<REAPER_PROJECT 0.1 "4.56/x64" 1495036102
  RIPPLE 0
  GROUPOVERRIDE 0 0 0
  AUTOXFADE 1
  ENVATTACH 1
  MIXERUIFLAGS 11 48
  PEAKGAIN 1.00000000000000
  FEEDBACK 0
  PANLAW 1.00000000000000
  PROJOFFS 0.00000000000000 0
  MAXPROJLEN 0 600.00000000000000
  GRID 3199 8 1.00000000000000 8 1.00000000000000 0 0
  TIMEMODE 1 0 -1
  PANMODE 3
  CURSOR 24.20168400000724
  ZOOM 6.36400816428833 0 0
  VZOOMEX 0
  USE_REC_CFG 0
  RECMODE 1
  SMPTESYNC 0 23.976024 100 40 1000 300 0 0.000000 1
  LOOP 0
  LOOPGRAN 0 4.00000000000000
  RECORD_PATH "" ""
  <RECORD_CFG
  >
  <APPLYFX_CFG
  >
  RENDER_FILE ""
  RENDER_PATTERN ""
  RENDER_FMT 0 2 0
  RENDER_1X 0
  RENDER_RANGE 1 0.00000000000000 0.00000000000000
  RENDER_RESAMPLE 3 0 1
  RENDER_ADDTOPROJ 0
  RENDER_STEMS 0
  RENDER_DITHER 0
  TIMELOCKMODE 1
  TEMPOENVLOCKMODE 1
  ITEMMIX 0
  DEFPITCHMODE 393216
  TAKELANE 1
  SAMPLERATE 44100 0 0
  <RENDER_CFG
  >
  LOCK 1
  <METRONOME 6 2.000000
    VOL 0.250000 0.125000
    FREQ 800 1600 0
    BEATLEN 4
    SAMPLES "" ""
  >
  GLOBAL_AUTO -1
  TEMPO 120.00000000000000 4 4
  PLAYRATE 1.00000000000000 0 0.25000 4.00000
  SELECTION 0.00000000000672 0.00000000000672
  SELECTION2 0.00000000000672 0.00000000000672
  MASTERAUTOMODE 0
  MASTERTRACKHEIGHT 0
  MASTERPEAKCOL 16576
  MASTERMUTESOLO 0
  MASTERTRACKVIEW 1 0.666700 0.500000 0.500000 0 -1 0
  MASTERHWOUT 0 0 1.00000000000000 0.00000000000000 0 0 0 -1.00000000000000
  MASTER_NCH 2 2
  MASTER_VOLUME 1.00000000000000 0.00000000000000 -1.00000000000000 -1.00000000000000 1.00000000000000
  MASTER_FX 1
  MASTER_SEL 0
  <MASTERPLAYSPEEDENV
    ACT 0
    VIS 0 1 1.000000
    LANEHEIGHT 0 0
    ARM 0
    DEFSHAPE 0 -1 -1
  >
  <TEMPOENVEX
    ACT 0
    VIS 1 0 1.000000
    LANEHEIGHT 0 0
    ARM 0
    DEFSHAPE 1 -1 -1
    PT 0.000000000000 89.2499877281 1
  >
  MARKER 1 13.44538000000402 "Guit" 0 0
  MARKER 2 24.20168400000724 "Basse" 0 0
  MARKER 3 34.95798800001045 "It's you" 0 0
  MARKER 4 51.09244400001528 "We must(2)" 0 0
  MARKER 5 59.15967200001769 "Lovely" 0 0
  MARKER 6 80.67228000002413 "And I'll pull " 0 0
  MARKER 7 96.80673600002895 "We must(2)" 0 0
  MARKER 8 104.87396400003136 "Lovely girl " 0 0
  MARKER 9 126.38657200003780 "in time..." 0 0
  MARKER 10 139.83195200004181 "In you i see dirty" 0 0
  MARKER 11 155.96640800004664 "We must(1)" 0 0
  MARKER 12 158.65548400004744 "Solo" 0 0
  MARKER 13 169.41178800005068 "Drinking mercury" 0 0
  MARKER 14 209.74792800006273 "And you'll always be my whore" 0 0
  MARKER 15 217.81515600006514 "And I'll pull your crooked teeth" 0 0
  MARKER 16 225.88238400006756 "In you I feel" 0 0
  MARKER 17 233.94961200006998 "In you feel so pretty" 0 0
  MARKER 18 242.01684000007239 "We must" 0 0
  MARKER 19 247.39499200007398 "We must" 0 0
  <PROJBAY
  >
  <TRACK '{3574F6AA-2F69-4804-B6A1-70A91451C97A}'
    NAME "Bass Guitar - AvaAdore.midi"
    PEAKCOL 16576
    BEAT -1
    AUTOMODE 0
    VOLPAN 3.98107170553497 0.00000000000000 -1.00000000000000 -1.00000000000000 1.00000000000000
    MUTESOLO 0 0 0
    IPHASE 0
    ISBUS 0 0
    BUSCOMP 0 0
    SHOWINMIX 1 0.666700 0.500000 1 0.500000 0 -1 0
    FREEMODE 0
    SEL 0
    REC 0 0 0 0 0 0 0
    VU 2
    TRACKHEIGHT 0 0
    INQ 0 0 0 0.5000000000 100 0 0 100
    NCHAN 2
    FX 1
    TRACKID {3574F6AA-2F69-4804-B6A1-70A91451C97A}
    PERF 0
    MIDIOUT 0
    MAINSEND 1 0
    <ITEM
      POSITION 0.00000000000000
      SNAPOFFS 0.00000000000000
      LENGTH 260.84037200000000
      LOOP 1
      ALLTAKES 0
      SEL 0
      FADEIN 1 0.000000 0.000000 1 0 0.000000
      FADEOUT 1 0.000000 0.000000 1 0 0.000000
      MUTE 0
      IGUID {F8FAD79B-AA15-402B-A62D-83B5E83C59F3}
      IID 1
      NAME "Bass Guitar - AvaAdore.midi.mid"
      VOLPAN 1.000000 0.000000 1.000000 -1.000000
      SOFFS 0.00000000000000 0.00000000000000
      PLAYRATE 1.00000000000000 1 0.00000000000000 -1 0 0.002500
      CHANMODE 0
      GUID {EB49F1C9-72B2-457B-88B3-3B125BDD9A32}
      <SOURCE MIDI
        HASDATA 1 120 QN
        POOLEDEVTS {EA78456D-8F02-4898-9713-6FAB295AB515}
        <X 0 0
          /wNBdmEgQWRvcmU=
        >
        <X 0 0
          /wNNaXh0dXJlIG9mIFN0dWRpbyBhbmQgTGl2ZSBWZXJzaW9u
        >
        <X 0 0
          /wNCYXNzIEd1aXRhcg==
        >
        <X 0 0
          /wFUaGlzIE1pZGkgZmlsZSBoYXMgYmVlbiBvcHRpbWlzZWQgZm9yIA==
          WEcgU3ludGhlc2lzZXJzLgo=
        >
        <X 0 0
          /wFDaGFubmVsIDEwIGFuZCAxMSBoYXZlIHRvIG1hZGUgdG8gYmUgZA==
          cnVtIGNoYW5uZWxzLgo=
        >
        <X 0 0
          /wFDaGFubmVsIDEwIGJlaW5nIGEgU3RhbmRhcmQgRHJ1bSBLaXQK
        >
        <X 0 0
          /wFDaGFubmVsIDExIGJlaW5nIGEgUm9jayBLaXQgKEJldHRlciBCYQ==
          c3MgRHJ1bSkK
        >
        E 0 b0 00 00
        E 0 b0 20 00
        E 0 c0 22 00
        E 0 b0 07 7f
        E 4320 90 1d 7e
        E 60 90 1d 00
        E 0 90 1d 7e
        E 60 90 1d 00
        E 90 90 1d 7e
        E 30 90 1d 00
        E 0 90 1d 7e
        E 60 90 1d 00
        E 0 90 1d 7e
        E 26 e0 00 40
        E 4 e0 00 41
        E 1 e0 00 42
        E 2 e0 00 43
        E 2 e0 00 44
        E 1 e0 00 45
        E 2 e0 00 46
        E 2 e0 00 47
        E 1 e0 00 48
        E 2 e0 00 49
        E 2 e0 00 4a
        E 1 e0 00 4b
        E 2 e0 00 4c
        E 2 e0 00 4d
        E 1 e0 00 4e
        E 2 e0 00 4f
        E 2 e0 00 50
        E 1 e0 00 51
        E 2 e0 00 52
        E 2 e0 00 53
        E 1 e0 00 54
        E 2 e0 00 55
        E 2 e0 00 56
        E 1 e0 00 57
        E 2 e0 00 58
        E 2 e0 00 59
        E 1 e0 00 5a
        E 2 e0 00 5b
        E 2 e0 00 5c
        E 1 e0 00 5d
        E 2 e0 00 5e
        E 2 e0 00 5f
        E 1 e0 00 60
        E 2 e0 00 61
        E 2 e0 00 62
        E 1 e0 00 63
        E 2 e0 00 64
        E 2 e0 00 65
        E 0 90 1d 00
        E 0 90 20 7e
        E 1 e0 00 66
        E 2 e0 00 67
        E 2 e0 00 68
        E 1 e0 00 54
        E 2 e0 00 40
        E 52 90 20 00
        E 0 90 20 7e
        E 30 90 20 00
        E 0 90 1d 7e
        E 60 90 1d 00
        E 0 90 1d 7e
        E 60 90 1d 00
        E 90 90 1d 7e
        E 30 90 1d 00
        E 0 90 1d 7e
        E 60 90 1d 00
        E 0 90 1d 7e
        E 26 e0 00 40
        E 4 e0 00 41
        E 1 e0 00 42
        E 2 e0 00 43
        E 2 e0 00 44
        E 1 e0 00 45
        E 2 e0 00 46
        E 2 e0 00 47
        E 1 e0 00 48
        E 2 e0 00 49
        E 2 e0 00 4a
        E 1 e0 00 4b
        E 2 e0 00 4c
        E 2 e0 00 4d
        E 1 e0 00 4e
        E 2 e0 00 4f
        E 2 e0 00 50
        E 1 e0 00 51
        E 2 e0 00 52
        E 2 e0 00 53
        E 1 e0 00 54
        E 2 e0 00 55
        E 2 e0 00 56
        E 1 e0 00 57
        E 2 e0 00 58
        E 2 e0 00 59
        E 1 e0 00 5a
        E 2 e0 00 5b
        E 2 e0 00 5c
        E 1 e0 00 5d
        E 2 e0 00 5e
        E 2 e0 00 5f
        E 1 e0 00 60
        E 2 e0 00 61
        E 2 e0 00 62
        E 1 e0 00 63
        E 2 e0 00 64
        E 2 e0 00 65
        E 0 90 1d 00
        E 0 90 20 7e
        E 1 e0 00 66
        E 2 e0 00 67
        E 2 e0 00 68
        E 1 e0 00 54
        E 2 e0 00 40
        E 52 90 20 00
        E 0 90 20 7e
        E 30 90 20 00
        E 0 90 1d 7e
        E 60 90 1d 00
        E 0 90 1d 7e
        E 60 90 1d 00
        E 90 90 1d 7e
        E 30 90 1d 00
        E 0 90 1d 7e
        E 60 90 1d 00
        E 0 90 1d 7e
        E 26 e0 00 40
        E 4 e0 00 41
        E 1 e0 00 42
        E 2 e0 00 43
        E 2 e0 00 44
        E 1 e0 00 45
        E 2 e0 00 46
        E 2 e0 00 47
        E 1 e0 00 48
        E 2 e0 00 49
        E 2 e0 00 4a
        E 1 e0 00 4b
        E 2 e0 00 4c
        E 2 e0 00 4d
        E 1 e0 00 4e
        E 2 e0 00 4f
        E 2 e0 00 50
        E 1 e0 00 51
        E 2 e0 00 52
        E 2 e0 00 53
        E 1 e0 00 54
        E 2 e0 00 55
        E 2 e0 00 56
        E 1 e0 00 57
        E 2 e0 00 58
        E 2 e0 00 59
        E 1 e0 00 5a
        E 2 e0 00 5b
        E 2 e0 00 5c
        E 1 e0 00 5d
        E 2 e0 00 5e
        E 2 e0 00 5f
        E 1 e0 00 60
        E 2 e0 00 61
        E 2 e0 00 62
        E 1 e0 00 63
        E 2 e0 00 64
        E 2 e0 00 65
        E 0 90 1d 00
        E 0 90 20 7e
        E 1 e0 00 66
        E 2 e0 00 67
        E 2 e0 00 68
        E 1 e0 00 54
        E 2 e0 00 40
        E 52 90 20 00
        E 0 90 20 7e
        E 30 90 20 00
        E 0 90 1d 7e
        E 60 90 1d 00
        E 0 90 1d 7e
        E 60 90 1d 00
        E 90 90 1d 7e
        E 30 90 1d 00
        E 0 90 1d 7e
        E 60 90 1d 00
        E 0 90 1d 7e
        E 26 e0 00 40
        E 4 e0 00 41
        E 1 e0 00 42
        E 2 e0 00 43
        E 2 e0 00 44
        E 1 e0 00 45
        E 2 e0 00 46
        E 2 e0 00 47
        E 1 e0 00 48
        E 2 e0 00 49
        E 2 e0 00 4a
        E 1 e0 00 4b
        E 2 e0 00 4c
        E 2 e0 00 4d
        E 1 e0 00 4e
        E 2 e0 00 4f
        E 2 e0 00 50
        E 1 e0 00 51
        E 2 e0 00 52
        E 2 e0 00 53
        E 1 e0 00 54
        E 2 e0 00 55
        E 2 e0 00 56
        E 1 e0 00 57
        E 2 e0 00 58
        E 2 e0 00 59
        E 1 e0 00 5a
        E 2 e0 00 5b
        E 2 e0 00 5c
        E 1 e0 00 5d
        E 2 e0 00 5e
        E 2 e0 00 5f
        E 1 e0 00 60
        E 2 e0 00 61
        E 2 e0 00 62
        E 1 e0 00 63
        E 2 e0 00 64
        E 2 e0 00 65
        E 0 90 1d 00
        E 0 90 20 7e
        E 1 e0 00 66
        E 2 e0 00 67
        E 2 e0 00 68
        E 1 e0 00 54
        E 2 e0 00 40
        E 52 90 20 00
        E 0 90 20 7e
        E 30 90 20 00
        E 0 90 1d 7e
        E 60 90 1d 00
        E 0 90 1d 7e
        E 60 90 1d 00
        E 90 90 1d 7e
        E 30 90 1d 00
        E 0 90 1d 7e
        E 60 90 1d 00
        E 0 90 1d 7e
        E 26 e0 00 40
        E 4 e0 00 41
        E 1 e0 00 42
        E 2 e0 00 43
        E 2 e0 00 44
        E 1 e0 00 45
        E 2 e0 00 46
        E 2 e0 00 47
        E 1 e0 00 48
        E 2 e0 00 49
        E 2 e0 00 4a
        E 1 e0 00 4b
        E 2 e0 00 4c
        E 2 e0 00 4d
        E 1 e0 00 4e
        E 2 e0 00 4f
        E 2 e0 00 50
        E 1 e0 00 51
        E 2 e0 00 52
        E 2 e0 00 53
        E 1 e0 00 54
        E 2 e0 00 55
        E 2 e0 00 56
        E 1 e0 00 57
        E 2 e0 00 58
        E 2 e0 00 59
        E 1 e0 00 5a
        E 2 e0 00 5b
        E 2 e0 00 5c
        E 1 e0 00 5d
        E 2 e0 00 5e
        E 2 e0 00 5f
        E 1 e0 00 60
        E 2 e0 00 61
        E 2 e0 00 62
        E 1 e0 00 63
        E 2 e0 00 64
        E 2 e0 00 65
        E 0 90 1d 00
        E 0 90 20 7e
        E 1 e0 00 66
        E 2 e0 00 67
        E 2 e0 00 68
        E 1 e0 00 54
        E 2 e0 00 40
        E 52 90 20 00
        E 0 90 20 7e
        E 30 90 20 00
        E 0 90 1d 7e
        E 60 90 1d 00
        E 0 90 1d 7e
        E 60 90 1d 00
        E 90 90 1d 7e
        E 30 90 1d 00
        E 0 90 1d 7e
        E 60 90 1d 00
        E 0 90 1d 7e
        E 26 e0 00 40
        E 4 e0 00 41
        E 1 e0 00 42
        E 2 e0 00 43
        E 2 e0 00 44
        E 1 e0 00 45
        E 2 e0 00 46
        E 2 e0 00 47
        E 1 e0 00 48
        E 2 e0 00 49
        E 2 e0 00 4a
        E 1 e0 00 4b
        E 2 e0 00 4c
        E 2 e0 00 4d
        E 1 e0 00 4e
        E 2 e0 00 4f
        E 2 e0 00 50
        E 1 e0 00 51
        E 2 e0 00 52
        E 2 e0 00 53
        E 1 e0 00 54
        E 2 e0 00 55
        E 2 e0 00 56
        E 1 e0 00 57
        E 2 e0 00 58
        E 2 e0 00 59
        E 1 e0 00 5a
        E 2 e0 00 5b
        E 2 e0 00 5c
        E 1 e0 00 5d
        E 2 e0 00 5e
        E 2 e0 00 5f
        E 1 e0 00 60
        E 2 e0 00 61
        E 2 e0 00 62
        E 1 e0 00 63
        E 2 e0 00 64
        E 2 e0 00 65
        E 0 90 1d 00
        E 0 90 20 7e
        E 1 e0 00 66
        E 2 e0 00 67
        E 2 e0 00 68
        E 1 e0 00 54
        E 2 e0 00 40
        E 52 90 20 00
        E 0 90 20 7e
        E 30 90 20 00
        E 0 90 1d 7e
        E 60 90 1d 00
        E 0 90 1d 7e
        E 60 90 1d 00
        E 90 90 1d 7e
        E 30 90 1d 00
        E 0 90 1d 7e
        E 60 90 1d 00
        E 0 90 1d 7e
        E 26 e0 00 40
        E 4 e0 00 41
        E 1 e0 00 42
        E 2 e0 00 43
        E 2 e0 00 44
        E 1 e0 00 45
        E 2 e0 00 46
        E 2 e0 00 47
        E 1 e0 00 48
        E 2 e0 00 49
        E 2 e0 00 4a
        E 1 e0 00 4b
        E 2 e0 00 4c
        E 2 e0 00 4d
        E 1 e0 00 4e
        E 2 e0 00 4f
        E 2 e0 00 50
        E 1 e0 00 51
        E 2 e0 00 52
        E 2 e0 00 53
        E 1 e0 00 54
        E 2 e0 00 55
        E 2 e0 00 56
        E 1 e0 00 57
        E 2 e0 00 58
        E 2 e0 00 59
        E 1 e0 00 5a
        E 2 e0 00 5b
        E 2 e0 00 5c
        E 1 e0 00 5d
        E 2 e0 00 5e
        E 2 e0 00 5f
        E 1 e0 00 60
        E 2 e0 00 61
        E 2 e0 00 62
        E 1 e0 00 63
        E 2 e0 00 64
        E 2 e0 00 65
        E 0 90 1d 00
        E 0 90 20 7e
        E 1 e0 00 66
        E 2 e0 00 67
        E 2 e0 00 68
        E 1 e0 00 54
        E 2 e0 00 40
        E 52 90 20 00
        E 0 90 20 7e
        E 30 90 20 00
        E 0 90 1d 7e
        E 60 90 1d 00
        E 0 90 1d 7e
        E 60 90 1d 00
        E 90 90 1d 7e
        E 30 90 1d 00
        E 0 90 1d 7e
        E 60 90 1d 00
        E 0 90 1d 7e
        E 26 e0 00 40
        E 4 e0 00 41
        E 1 e0 00 42
        E 2 e0 00 43
        E 2 e0 00 44
        E 1 e0 00 45
        E 2 e0 00 46
        E 2 e0 00 47
        E 1 e0 00 48
        E 2 e0 00 49
        E 2 e0 00 4a
        E 1 e0 00 4b
        E 2 e0 00 4c
        E 2 e0 00 4d
        E 1 e0 00 4e
        E 2 e0 00 4f
        E 2 e0 00 50
        E 1 e0 00 51
        E 2 e0 00 52
        E 2 e0 00 53
        E 1 e0 00 54
        E 2 e0 00 55
        E 2 e0 00 56
        E 1 e0 00 57
        E 2 e0 00 58
        E 2 e0 00 59
        E 1 e0 00 5a
        E 2 e0 00 5b
        E 2 e0 00 5c
        E 1 e0 00 5d
        E 2 e0 00 5e
        E 2 e0 00 5f
        E 1 e0 00 60
        E 2 e0 00 61
        E 2 e0 00 62
        E 1 e0 00 63
        E 2 e0 00 64
        E 2 e0 00 65
        E 0 90 1d 00
        E 0 90 20 7e
        E 1 e0 00 66
        E 2 e0 00 67
        E 2 e0 00 68
        E 1 e0 00 54
        E 2 e0 00 40
        E 52 90 20 00
        E 0 90 20 7e
        E 30 90 20 00
        E 0 90 1d 7e
        E 60 90 1d 00
        E 0 90 1d 7e
        E 60 90 1d 00
        E 90 90 1d 7e
        E 30 90 1d 00
        E 0 90 1d 7e
        E 60 90 1d 00
        E 0 90 1d 7e
        E 26 e0 00 40
        E 4 e0 00 41
        E 1 e0 00 42
        E 2 e0 00 43
        E 2 e0 00 44
        E 1 e0 00 45
        E 2 e0 00 46
        E 2 e0 00 47
        E 1 e0 00 48
        E 2 e0 00 49
        E 2 e0 00 4a
        E 1 e0 00 4b
        E 2 e0 00 4c
        E 2 e0 00 4d
        E 1 e0 00 4e
        E 2 e0 00 4f
        E 2 e0 00 50
        E 1 e0 00 51
        E 2 e0 00 52
        E 2 e0 00 53
        E 1 e0 00 54
        E 2 e0 00 55
        E 2 e0 00 56
        E 1 e0 00 57
        E 2 e0 00 58
        E 2 e0 00 59
        E 1 e0 00 5a
        E 2 e0 00 5b
        E 2 e0 00 5c
        E 1 e0 00 5d
        E 2 e0 00 5e
        E 2 e0 00 5f
        E 1 e0 00 60
        E 2 e0 00 61
        E 2 e0 00 62
        E 1 e0 00 63
        E 2 e0 00 64
        E 2 e0 00 65
        E 0 90 1d 00
        E 0 90 20 7e
        E 1 e0 00 66
        E 2 e0 00 67
        E 2 e0 00 68
        E 1 e0 00 54
        E 2 e0 00 40
        E 52 90 20 00
        E 0 90 20 7e
        E 30 90 20 00
        E 0 90 1d 7e
        E 60 90 1d 00
        E 0 90 1d 7e
        E 60 90 1d 00
        E 90 90 1d 7e
        E 30 90 1d 00
        E 0 90 1d 7e
        E 60 90 1d 00
        E 0 90 1d 7e
        E 26 e0 00 40
        E 4 e0 00 41
        E 1 e0 00 42
        E 2 e0 00 43
        E 2 e0 00 44
        E 1 e0 00 45
        E 2 e0 00 46
        E 2 e0 00 47
        E 1 e0 00 48
        E 2 e0 00 49
        E 2 e0 00 4a
        E 1 e0 00 4b
        E 2 e0 00 4c
        E 2 e0 00 4d
        E 1 e0 00 4e
        E 2 e0 00 4f
        E 2 e0 00 50
        E 1 e0 00 51
        E 2 e0 00 52
        E 2 e0 00 53
        E 1 e0 00 54
        E 2 e0 00 55
        E 2 e0 00 56
        E 1 e0 00 57
        E 2 e0 00 58
        E 2 e0 00 59
        E 1 e0 00 5a
        E 2 e0 00 5b
        E 2 e0 00 5c
        E 1 e0 00 5d
        E 2 e0 00 5e
        E 2 e0 00 5f
        E 1 e0 00 60
        E 2 e0 00 61
        E 2 e0 00 62
        E 1 e0 00 63
        E 2 e0 00 64
        E 2 e0 00 65
        E 0 90 1d 00
        E 0 90 20 7e
        E 1 e0 00 66
        E 2 e0 00 67
        E 2 e0 00 68
        E 1 e0 00 54
        E 2 e0 00 40
        E 52 90 20 00
        E 0 90 20 7e
        E 30 90 20 00
        E 0 90 1b 7e
        E 90 90 1b 00
        E 0 90 1b 7e
        E 30 90 1b 00
        E 0 90 1b 7e
        E 30 90 1b 00
        E 0 90 1b 7e
        E 30 90 1b 00
        E 0 90 1b 7e
        E 30 90 1b 00
        E 0 90 1b 7e
        E 30 90 1b 00
        E 0 90 22 7e
        E 90 90 22 00
        E 0 90 22 7e
        E 30 90 22 00
        E 0 90 22 7e
        E 30 90 22 00
        E 0 90 22 7e
        E 30 90 22 00
        E 0 90 22 7e
        E 30 90 22 00
        E 0 90 22 7e
        E 30 90 22 00
        E 0 90 1d 7e
        E 60 90 1d 00
        E 0 90 1d 7e
        E 60 90 1d 00
        E 90 90 1d 7e
        E 30 90 1d 00
        E 0 90 1d 7e
        E 60 90 1d 00
        E 0 90 1d 7e
        E 26 e0 00 40
        E 4 e0 00 41
        E 1 e0 00 42
        E 2 e0 00 43
        E 2 e0 00 44
        E 1 e0 00 45
        E 2 e0 00 46
        E 2 e0 00 47
        E 1 e0 00 48
        E 2 e0 00 49
        E 2 e0 00 4a
        E 1 e0 00 4b
        E 2 e0 00 4c
        E 2 e0 00 4d
        E 1 e0 00 4e
        E 2 e0 00 4f
        E 2 e0 00 50
        E 1 e0 00 51
        E 2 e0 00 52
        E 2 e0 00 53
        E 1 e0 00 54
        E 2 e0 00 55
        E 2 e0 00 56
        E 1 e0 00 57
        E 2 e0 00 58
        E 2 e0 00 59
        E 1 e0 00 5a
        E 2 e0 00 5b
        E 2 e0 00 5c
        E 1 e0 00 5d
        E 2 e0 00 5e
        E 2 e0 00 5f
        E 1 e0 00 60
        E 2 e0 00 61
        E 2 e0 00 62
        E 1 e0 00 63
        E 2 e0 00 64
        E 2 e0 00 65
        E 0 90 1d 00
        E 0 90 20 7e
        E 1 e0 00 66
        E 2 e0 00 67
        E 2 e0 00 68
        E 1 e0 00 54
        E 2 e0 00 40
        E 52 90 20 00
        E 0 90 20 7e
        E 30 90 20 00
        E 0 90 1b 7e
        E 90 90 1b 00
        E 0 90 1b 7e
        E 30 90 1b 00
        E 0 90 1b 7e
        E 30 90 1b 00
        E 0 90 1b 7e
        E 30 90 1b 00
        E 0 90 1b 7e
        E 30 90 1b 00
        E 0 90 1b 7e
        E 30 90 1b 00
        E 0 90 22 7e
        E 90 90 22 00
        E 0 90 22 7e
        E 30 90 22 00
        E 0 90 22 7e
        E 30 90 22 00
        E 0 90 22 7e
        E 30 90 22 00
        E 0 90 22 7e
        E 30 90 22 00
        E 0 90 22 7e
        E 30 90 22 00
        E 0 90 20 7e
        E 60 90 20 00
        E 0 90 20 7e
        E 60 90 20 00
        E 0 90 20 7e
        E 90 90 20 00
        E 0 90 20 7e
        E 30 90 20 00
        E 0 90 20 7e
        E 90 90 20 00
        E 0 90 20 7e
        E 30 90 20 00
        E 0 90 20 7e
        E 60 90 20 00
        E 0 90 20 7e
        E 30 90 20 00
        E 0 90 20 7e
        E 30 90 20 00
        E 0 90 24 7e
        E 60 90 24 00
        E 0 90 24 7e
        E 60 90 24 00
        E 0 90 24 7e
        E 90 90 24 00
        E 0 90 24 7e
        E 30 90 24 00
        E 0 90 24 7e
        E 90 90 24 00
        E 0 90 24 7f
        E 30 90 24 00
        E 0 90 24 7f
        E 60 90 24 00
        E 0 90 24 7f
        E 30 90 24 00
        E 0 90 24 7f
        E 30 90 24 00
        E 0 90 25 7f
        E 60 90 25 00
        E 0 90 25 7f
        E 60 90 25 00
        E 0 90 25 7f
        E 90 90 25 00
        E 0 90 25 7f
        E 30 90 25 00
        E 0 90 22 7f
        E 90 90 22 00
        E 0 90 22 7f
        E 30 90 22 00
        E 0 90 22 7f
        E 60 90 22 00
        E 0 90 22 7f
        E 30 90 22 00
        E 0 90 22 7f
        E 30 90 22 00
        E 0 90 20 7f
        E 60 90 20 00
        E 0 90 20 7f
        E 60 90 20 00
        E 0 90 20 7f
        E 90 90 20 00
        E 0 90 20 7f
        E 30 90 20 00
        E 0 90 20 7f
        E 90 90 20 00
        E 0 90 20 7f
        E 30 90 20 00
        E 0 90 20 7f
        E 60 90 20 00
        E 0 90 20 7f
        E 30 90 20 00
        E 0 90 20 7f
        E 30 90 20 00
        E 0 90 1d 7f
        E 60 90 1d 00
        E 0 90 1d 7f
        E 60 90 1d 00
        E 90 90 1d 7f
        E 30 90 1d 00
        E 0 90 1d 7f
        E 60 90 1d 00
        E 0 90 1d 7f
        E 26 e0 00 40
        E 4 e0 00 41
        E 1 e0 00 42
        E 2 e0 00 43
        E 2 e0 00 44
        E 1 e0 00 45
        E 2 e0 00 46
        E 2 e0 00 47
        E 1 e0 00 48
        E 2 e0 00 49
        E 2 e0 00 4a
        E 1 e0 00 4b
        E 2 e0 00 4c
        E 2 e0 00 4d
        E 1 e0 00 4e
        E 2 e0 00 4f
        E 2 e0 00 50
        E 1 e0 00 51
        E 2 e0 00 52
        E 2 e0 00 53
        E 1 e0 00 54
        E 2 e0 00 55
        E 2 e0 00 56
        E 1 e0 00 57
        E 2 e0 00 58
        E 2 e0 00 59
        E 1 e0 00 5a
        E 2 e0 00 5b
        E 2 e0 00 5c
        E 1 e0 00 5d
        E 2 e0 00 5e
        E 2 e0 00 5f
        E 1 e0 00 60
        E 2 e0 00 61
        E 2 e0 00 62
        E 1 e0 00 63
        E 2 e0 00 64
        E 2 e0 00 65
        E 0 90 1d 00
        E 0 90 20 7f
        E 1 e0 00 66
        E 2 e0 00 67
        E 2 e0 00 68
        E 1 e0 00 54
        E 2 e0 00 40
        E 52 90 20 00
        E 0 90 20 7f
        E 30 90 20 00
        E 0 90 1d 7f
        E 60 90 1d 00
        E 0 90 1d 7f
        E 60 90 1d 00
        E 90 90 1d 7f
        E 30 90 1d 00
        E 0 90 1d 7f
        E 60 90 1d 00
        E 0 90 1d 7f
        E 26 e0 00 40
        E 4 e0 00 41
        E 1 e0 00 42
        E 2 e0 00 43
        E 2 e0 00 44
        E 1 e0 00 45
        E 2 e0 00 46
        E 2 e0 00 47
        E 1 e0 00 48
        E 2 e0 00 49
        E 2 e0 00 4a
        E 1 e0 00 4b
        E 2 e0 00 4c
        E 2 e0 00 4d
        E 1 e0 00 4e
        E 2 e0 00 4f
        E 2 e0 00 50
        E 1 e0 00 51
        E 2 e0 00 52
        E 2 e0 00 53
        E 1 e0 00 54
        E 2 e0 00 55
        E 2 e0 00 56
        E 1 e0 00 57
        E 2 e0 00 58
        E 2 e0 00 59
        E 1 e0 00 5a
        E 2 e0 00 5b
        E 2 e0 00 5c
        E 1 e0 00 5d
        E 2 e0 00 5e
        E 2 e0 00 5f
        E 1 e0 00 60
        E 2 e0 00 61
        E 2 e0 00 62
        E 1 e0 00 63
        E 2 e0 00 64
        E 2 e0 00 65
        E 0 90 1d 00
        E 0 90 20 7f
        E 1 e0 00 66
        E 2 e0 00 67
        E 2 e0 00 68
        E 1 e0 00 54
        E 2 e0 00 40
        E 52 90 20 00
        E 0 90 20 7f
        E 30 90 20 00
        E 0 90 1d 7f
        E 60 90 1d 00
        E 0 90 1d 7f
        E 60 90 1d 00
        E 90 90 1d 7f
        E 30 90 1d 00
        E 0 90 1d 7f
        E 60 90 1d 00
        E 0 90 1d 7f
        E 26 e0 00 40
        E 4 e0 00 41
        E 1 e0 00 42
        E 2 e0 00 43
        E 2 e0 00 44
        E 1 e0 00 45
        E 2 e0 00 46
        E 2 e0 00 47
        E 1 e0 00 48
        E 2 e0 00 49
        E 2 e0 00 4a
        E 1 e0 00 4b
        E 2 e0 00 4c
        E 2 e0 00 4d
        E 1 e0 00 4e
        E 2 e0 00 4f
        E 2 e0 00 50
        E 1 e0 00 51
        E 2 e0 00 52
        E 2 e0 00 53
        E 1 e0 00 54
        E 2 e0 00 55
        E 2 e0 00 56
        E 1 e0 00 57
        E 2 e0 00 58
        E 2 e0 00 59
        E 1 e0 00 5a
        E 2 e0 00 5b
        E 2 e0 00 5c
        E 1 e0 00 5d
        E 2 e0 00 5e
        E 2 e0 00 5f
        E 1 e0 00 60
        E 2 e0 00 61
        E 2 e0 00 62
        E 1 e0 00 63
        E 2 e0 00 64
        E 2 e0 00 65
        E 0 90 1d 00
        E 0 90 20 7f
        E 1 e0 00 66
        E 2 e0 00 67
        E 2 e0 00 68
        E 1 e0 00 54
        E 2 e0 00 40
        E 52 90 20 00
        E 0 90 20 7f
        E 30 90 20 00
        E 0 90 1d 7f
        E 60 90 1d 00
        E 0 90 1d 7f
        E 60 90 1d 00
        E 90 90 1d 7f
        E 30 90 1d 00
        E 0 90 1d 7f
        E 60 90 1d 00
        E 0 90 1d 7f
        E 26 e0 00 40
        E 4 e0 00 41
        E 1 e0 00 42
        E 2 e0 00 43
        E 2 e0 00 44
        E 1 e0 00 45
        E 2 e0 00 46
        E 2 e0 00 47
        E 1 e0 00 48
        E 2 e0 00 49
        E 2 e0 00 4a
        E 1 e0 00 4b
        E 2 e0 00 4c
        E 2 e0 00 4d
        E 1 e0 00 4e
        E 2 e0 00 4f
        E 2 e0 00 50
        E 1 e0 00 51
        E 2 e0 00 52
        E 2 e0 00 53
        E 1 e0 00 54
        E 2 e0 00 55
        E 2 e0 00 56
        E 1 e0 00 57
        E 2 e0 00 58
        E 2 e0 00 59
        E 1 e0 00 5a
        E 2 e0 00 5b
        E 2 e0 00 5c
        E 1 e0 00 5d
        E 2 e0 00 5e
        E 2 e0 00 5f
        E 1 e0 00 60
        E 2 e0 00 61
        E 2 e0 00 62
        E 1 e0 00 63
        E 2 e0 00 64
        E 2 e0 00 65
        E 0 90 1d 00
        E 0 90 20 7f
        E 1 e0 00 66
        E 2 e0 00 67
        E 2 e0 00 68
        E 1 e0 00 54
        E 2 e0 00 40
        E 52 90 20 00
        E 0 90 20 7f
        E 30 90 20 00
        E 0 90 1d 7f
        E 60 90 1d 00
        E 0 90 1d 7f
        E 60 90 1d 00
        E 90 90 1d 7f
        E 30 90 1d 00
        E 0 90 1d 7f
        E 60 90 1d 00
        E 0 90 1d 7f
        E 26 e0 00 40
        E 4 e0 00 41
        E 1 e0 00 42
        E 2 e0 00 43
        E 2 e0 00 44
        E 1 e0 00 45
        E 2 e0 00 46
        E 2 e0 00 47
        E 1 e0 00 48
        E 2 e0 00 49
        E 2 e0 00 4a
        E 1 e0 00 4b
        E 2 e0 00 4c
        E 2 e0 00 4d
        E 1 e0 00 4e
        E 2 e0 00 4f
        E 2 e0 00 50
        E 1 e0 00 51
        E 2 e0 00 52
        E 2 e0 00 53
        E 1 e0 00 54
        E 2 e0 00 55
        E 2 e0 00 56
        E 1 e0 00 57
        E 2 e0 00 58
        E 2 e0 00 59
        E 1 e0 00 5a
        E 2 e0 00 5b
        E 2 e0 00 5c
        E 1 e0 00 5d
        E 2 e0 00 5e
        E 2 e0 00 5f
        E 1 e0 00 60
        E 2 e0 00 61
        E 2 e0 00 62
        E 1 e0 00 63
        E 2 e0 00 64
        E 2 e0 00 65
        E 0 90 1d 00
        E 0 90 20 7f
        E 1 e0 00 66
        E 2 e0 00 67
        E 2 e0 00 68
        E 1 e0 00 54
        E 2 e0 00 40
        E 52 90 20 00
        E 0 90 20 7f
        E 30 90 20 00
        E 0 90 1d 7f
        E 60 90 1d 00
        E 0 90 1d 7f
        E 60 90 1d 00
        E 90 90 1d 7f
        E 30 90 1d 00
        E 0 90 1d 7f
        E 60 90 1d 00
        E 0 90 1d 7f
        E 26 e0 00 40
        E 4 e0 00 41
        E 1 e0 00 42
        E 2 e0 00 43
        E 2 e0 00 44
        E 1 e0 00 45
        E 2 e0 00 46
        E 2 e0 00 47
        E 1 e0 00 48
        E 2 e0 00 49
        E 2 e0 00 4a
        E 1 e0 00 4b
        E 2 e0 00 4c
        E 2 e0 00 4d
        E 1 e0 00 4e
        E 2 e0 00 4f
        E 2 e0 00 50
        E 1 e0 00 51
        E 2 e0 00 52
        E 2 e0 00 53
        E 1 e0 00 54
        E 2 e0 00 55
        E 2 e0 00 56
        E 1 e0 00 57
        E 2 e0 00 58
        E 2 e0 00 59
        E 1 e0 00 5a
        E 2 e0 00 5b
        E 2 e0 00 5c
        E 1 e0 00 5d
        E 2 e0 00 5e
        E 2 e0 00 5f
        E 1 e0 00 60
        E 2 e0 00 61
        E 2 e0 00 62
        E 1 e0 00 63
        E 2 e0 00 64
        E 2 e0 00 65
        E 0 90 1d 00
        E 0 90 20 7f
        E 1 e0 00 66
        E 2 e0 00 67
        E 2 e0 00 68
        E 1 e0 00 54
        E 2 e0 00 40
        E 52 90 20 00
        E 0 90 20 7f
        E 30 90 20 00
        E 0 90 1d 7f
        E 60 90 1d 00
        E 0 90 1d 7f
        E 60 90 1d 00
        E 90 90 1d 7f
        E 30 90 1d 00
        E 0 90 1d 7f
        E 60 90 1d 00
        E 0 90 1d 7f
        E 26 e0 00 40
        E 4 e0 00 41
        E 1 e0 00 42
        E 2 e0 00 43
        E 2 e0 00 44
        E 1 e0 00 45
        E 2 e0 00 46
        E 2 e0 00 47
        E 1 e0 00 48
        E 2 e0 00 49
        E 2 e0 00 4a
        E 1 e0 00 4b
        E 2 e0 00 4c
        E 2 e0 00 4d
        E 1 e0 00 4e
        E 2 e0 00 4f
        E 2 e0 00 50
        E 1 e0 00 51
        E 2 e0 00 52
        E 2 e0 00 53
        E 1 e0 00 54
        E 2 e0 00 55
        E 2 e0 00 56
        E 1 e0 00 57
        E 2 e0 00 58
        E 2 e0 00 59
        E 1 e0 00 5a
        E 2 e0 00 5b
        E 2 e0 00 5c
        E 1 e0 00 5d
        E 2 e0 00 5e
        E 2 e0 00 5f
        E 1 e0 00 60
        E 2 e0 00 61
        E 2 e0 00 62
        E 1 e0 00 63
        E 2 e0 00 64
        E 2 e0 00 65
        E 0 90 1d 00
        E 0 90 20 7f
        E 1 e0 00 66
        E 2 e0 00 67
        E 2 e0 00 68
        E 1 e0 00 54
        E 2 e0 00 40
        E 52 90 20 00
        E 0 90 20 7f
        E 30 90 20 00
        E 0 90 1d 7f
        E 60 90 1d 00
        E 0 90 1d 7f
        E 60 90 1d 00
        E 90 90 1d 7f
        E 30 90 1d 00
        E 0 90 1d 7f
        E 60 90 1d 00
        E 0 90 1d 7f
        E 26 e0 00 40
        E 4 e0 00 41
        E 1 e0 00 42
        E 2 e0 00 43
        E 2 e0 00 44
        E 1 e0 00 45
        E 2 e0 00 46
        E 2 e0 00 47
        E 1 e0 00 48
        E 2 e0 00 49
        E 2 e0 00 4a
        E 1 e0 00 4b
        E 2 e0 00 4c
        E 2 e0 00 4d
        E 1 e0 00 4e
        E 2 e0 00 4f
        E 2 e0 00 50
        E 1 e0 00 51
        E 2 e0 00 52
        E 2 e0 00 53
        E 1 e0 00 54
        E 2 e0 00 55
        E 2 e0 00 56
        E 1 e0 00 57
        E 2 e0 00 58
        E 2 e0 00 59
        E 1 e0 00 5a
        E 2 e0 00 5b
        E 2 e0 00 5c
        E 1 e0 00 5d
        E 2 e0 00 5e
        E 2 e0 00 5f
        E 1 e0 00 60
        E 2 e0 00 61
        E 2 e0 00 62
        E 1 e0 00 63
        E 2 e0 00 64
        E 2 e0 00 65
        E 0 90 1d 00
        E 0 90 20 7f
        E 1 e0 00 66
        E 2 e0 00 67
        E 2 e0 00 68
        E 1 e0 00 54
        E 2 e0 00 40
        E 52 90 20 00
        E 0 90 20 7f
        E 30 90 20 00
        E 0 90 1d 7f
        E 60 90 1d 00
        E 0 90 1d 7f
        E 60 90 1d 00
        E 90 90 1d 7f
        E 30 90 1d 00
        E 0 90 1d 7f
        E 60 90 1d 00
        E 0 90 1d 7f
        E 26 e0 00 40
        E 4 e0 00 41
        E 1 e0 00 42
        E 2 e0 00 43
        E 2 e0 00 44
        E 1 e0 00 45
        E 2 e0 00 46
        E 2 e0 00 47
        E 1 e0 00 48
        E 2 e0 00 49
        E 2 e0 00 4a
        E 1 e0 00 4b
        E 2 e0 00 4c
        E 2 e0 00 4d
        E 1 e0 00 4e
        E 2 e0 00 4f
        E 2 e0 00 50
        E 1 e0 00 51
        E 2 e0 00 52
        E 2 e0 00 53
        E 1 e0 00 54
        E 2 e0 00 55
        E 2 e0 00 56
        E 1 e0 00 57
        E 2 e0 00 58
        E 2 e0 00 59
        E 1 e0 00 5a
        E 2 e0 00 5b
        E 2 e0 00 5c
        E 1 e0 00 5d
        E 2 e0 00 5e
        E 2 e0 00 5f
        E 1 e0 00 60
        E 2 e0 00 61
        E 2 e0 00 62
        E 1 e0 00 63
        E 2 e0 00 64
        E 2 e0 00 65
        E 0 90 1d 00
        E 0 90 20 7f
        E 1 e0 00 66
        E 2 e0 00 67
        E 2 e0 00 68
        E 1 e0 00 54
        E 2 e0 00 40
        E 52 90 20 00
        E 0 90 20 7f
        E 30 90 20 00
        E 0 90 1d 7f
        E 60 90 1d 00
        E 0 90 1d 7f
        E 60 90 1d 00
        E 90 90 1d 7f
        E 30 90 1d 00
        E 0 90 1d 7f
        E 60 90 1d 00
        E 0 90 1d 7f
        E 26 e0 00 40
        E 4 e0 00 41
        E 1 e0 00 42
        E 2 e0 00 43
        E 2 e0 00 44
        E 1 e0 00 45
        E 2 e0 00 46
        E 2 e0 00 47
        E 1 e0 00 48
        E 2 e0 00 49
        E 2 e0 00 4a
        E 1 e0 00 4b
        E 2 e0 00 4c
        E 2 e0 00 4d
        E 1 e0 00 4e
        E 2 e0 00 4f
        E 2 e0 00 50
        E 1 e0 00 51
        E 2 e0 00 52
        E 2 e0 00 53
        E 1 e0 00 54
        E 2 e0 00 55
        E 2 e0 00 56
        E 1 e0 00 57
        E 2 e0 00 58
        E 2 e0 00 59
        E 1 e0 00 5a
        E 2 e0 00 5b
        E 2 e0 00 5c
        E 1 e0 00 5d
        E 2 e0 00 5e
        E 2 e0 00 5f
        E 1 e0 00 60
        E 2 e0 00 61
        E 2 e0 00 62
        E 1 e0 00 63
        E 2 e0 00 64
        E 2 e0 00 65
        E 0 90 1d 00
        E 0 90 20 7f
        E 1 e0 00 66
        E 2 e0 00 67
        E 2 e0 00 68
        E 1 e0 00 54
        E 2 e0 00 40
        E 52 90 20 00
        E 0 90 20 7f
        E 30 90 20 00
        E 0 90 1b 7f
        E 90 90 1b 00
        E 0 90 1b 7f
        E 30 90 1b 00
        E 0 90 1b 7f
        E 30 90 1b 00
        E 0 90 1b 7f
        E 30 90 1b 00
        E 0 90 1b 7f
        E 30 90 1b 00
        E 0 90 1b 7f
        E 30 90 1b 00
        E 0 90 22 7f
        E 90 90 22 00
        E 0 90 22 7f
        E 30 90 22 00
        E 0 90 22 7f
        E 30 90 22 00
        E 0 90 22 7f
        E 30 90 22 00
        E 0 90 22 7f
        E 30 90 22 00
        E 0 90 22 7f
        E 30 90 22 00
        E 0 90 1d 7f
        E 60 90 1d 00
        E 0 90 1d 7f
        E 60 90 1d 00
        E 90 90 1d 7f
        E 30 90 1d 00
        E 0 90 1d 7f
        E 60 90 1d 00
        E 0 90 1d 7f
        E 26 e0 00 40
        E 4 e0 00 41
        E 1 e0 00 42
        E 2 e0 00 43
        E 2 e0 00 44
        E 1 e0 00 45
        E 2 e0 00 46
        E 2 e0 00 47
        E 1 e0 00 48
        E 2 e0 00 49
        E 2 e0 00 4a
        E 1 e0 00 4b
        E 2 e0 00 4c
        E 2 e0 00 4d
        E 1 e0 00 4e
        E 2 e0 00 4f
        E 2 e0 00 50
        E 1 e0 00 51
        E 2 e0 00 52
        E 2 e0 00 53
        E 1 e0 00 54
        E 2 e0 00 55
        E 2 e0 00 56
        E 1 e0 00 57
        E 2 e0 00 58
        E 2 e0 00 59
        E 1 e0 00 5a
        E 2 e0 00 5b
        E 2 e0 00 5c
        E 1 e0 00 5d
        E 2 e0 00 5e
        E 2 e0 00 5f
        E 1 e0 00 60
        E 2 e0 00 61
        E 2 e0 00 62
        E 1 e0 00 63
        E 2 e0 00 64
        E 2 e0 00 65
        E 0 90 1d 00
        E 0 90 20 7f
        E 1 e0 00 66
        E 2 e0 00 67
        E 2 e0 00 68
        E 1 e0 00 54
        E 2 e0 00 40
        E 52 90 20 00
        E 0 90 20 7f
        E 30 90 20 00
        E 0 90 1b 7f
        E 90 90 1b 00
        E 0 90 1b 7f
        E 30 90 1b 00
        E 0 90 1b 7f
        E 30 90 1b 00
        E 0 90 1b 7f
        E 30 90 1b 00
        E 0 90 1b 7f
        E 30 90 1b 00
        E 0 90 1b 7f
        E 30 90 1b 00
        E 0 90 22 7f
        E 90 90 22 00
        E 0 90 22 7f
        E 30 90 22 00
        E 0 90 22 7f
        E 30 90 22 00
        E 0 90 22 7f
        E 30 90 22 00
        E 0 90 22 7f
        E 30 90 22 00
        E 0 90 22 7f
        E 30 90 22 00
        E 0 90 20 7f
        E 60 90 20 00
        E 0 90 20 7f
        E 60 90 20 00
        E 0 90 20 7f
        E 90 90 20 00
        E 0 90 20 7f
        E 30 90 20 00
        E 0 90 20 7f
        E 90 90 20 00
        E 0 90 20 7f
        E 30 90 20 00
        E 0 90 20 7f
        E 60 90 20 00
        E 0 90 20 7f
        E 30 90 20 00
        E 0 90 20 7f
        E 30 90 20 00
        E 0 90 24 7f
        E 60 90 24 00
        E 0 90 24 7f
        E 60 90 24 00
        E 0 90 24 7f
        E 90 90 24 00
        E 0 90 24 7f
        E 30 90 24 00
        E 0 90 24 7f
        E 90 90 24 00
        E 0 90 24 7f
        E 30 90 24 00
        E 0 90 24 7f
        E 60 90 24 00
        E 0 90 24 7f
        E 30 90 24 00
        E 0 90 24 7f
        E 30 90 24 00
        E 0 90 25 7f
        E 60 90 25 00
        E 0 90 25 7f
        E 60 90 25 00
        E 0 90 25 7f
        E 90 90 25 00
        E 0 90 25 7f
        E 30 90 25 00
        E 0 90 24 7f
        E 90 90 24 00
        E 0 90 24 7f
        E 30 90 24 00
        E 0 90 22 7f
        E 60 90 22 00
        E 0 90 22 7f
        E 30 90 22 00
        E 0 90 22 7f
        E 30 90 22 00
        E 0 90 20 7f
        E 60 90 20 00
        E 0 90 20 7f
        E 60 90 20 00
        E 0 90 20 7f
        E 90 90 20 00
        E 0 90 20 7f
        E 30 90 20 00
        E 0 90 20 7f
        E 90 90 20 00
        E 0 90 20 7f
        E 30 90 20 00
        E 0 90 20 7f
        E 60 90 20 00
        E 0 90 20 7f
        E 30 90 20 00
        E 0 90 20 7f
        E 30 90 20 00
        E 0 90 20 7f
        E 60 90 20 00
        E 0 90 20 7f
        E 60 90 20 00
        E 0 90 20 7f
        E 90 90 20 00
        E 0 90 20 7f
        E 30 90 20 00
        E 0 90 20 7f
        E 90 90 20 00
        E 0 90 20 7f
        E 30 90 20 00
        E 0 90 20 7f
        E 60 90 20 00
        E 0 90 20 7f
        E 30 90 20 00
        E 0 90 20 7f
        E 30 90 20 00
        E 0 90 24 7f
        E 60 90 24 00
        E 0 90 24 7f
        E 60 90 24 00
        E 0 90 24 7f
        E 90 90 24 00
        E 0 90 24 7f
        E 30 90 24 00
        E 0 90 24 7f
        E 90 90 24 00
        E 0 90 24 7f
        E 30 90 24 00
        E 0 90 24 7f
        E 60 90 24 00
        E 0 90 24 7f
        E 30 90 24 00
        E 0 90 24 7f
        E 30 90 24 00
        E 0 90 25 7f
        E 60 90 25 00
        E 0 90 25 7f
        E 60 90 25 00
        E 0 90 25 7f
        E 90 90 25 00
        E 0 90 25 7f
        E 30 90 25 00
        E 0 90 24 7f
        E 90 90 24 00
        E 0 90 24 7f
        E 30 90 24 00
        E 0 90 22 7f
        E 60 90 22 00
        E 0 90 22 7f
        E 30 90 22 00
        E 0 90 22 7f
        E 30 90 22 00
        E 0 90 20 7f
        E 60 90 20 00
        E 0 90 20 7f
        E 60 90 20 00
        E 0 90 20 7f
        E 90 90 20 00
        E 0 90 20 7f
        E 30 90 20 00
        E 0 90 20 7f
        E 90 90 20 00
        E 0 90 20 7f
        E 30 90 20 00
        E 0 90 20 7f
        E 60 90 20 00
        E 0 90 20 7f
        E 30 90 20 00
        E 0 90 20 7f
        E 30 90 20 00
        E 0 90 22 7f
        E 60 90 22 00
        E 0 90 22 7f
        E 60 90 22 00
        E 0 90 22 7f
        E 90 90 22 00
        E 0 90 22 7f
        E 30 90 22 00
        E 0 90 22 7f
        E 90 90 22 00
        E 0 90 22 7f
        E 30 90 22 00
        E 0 90 22 7f
        E 60 90 22 00
        E 0 90 22 7f
        E 30 90 22 00
        E 0 90 22 7f
        E 30 90 22 00
        E 0 90 1d 7f
        E 60 90 1d 00
        E 0 90 1d 7f
        E 60 90 1d 00
        E 90 90 1d 7f
        E 30 90 1d 00
        E 0 90 1d 7f
        E 60 90 1d 00
        E 0 90 1d 7f
        E 26 e0 00 40
        E 4 e0 00 41
        E 1 e0 00 42
        E 2 e0 00 43
        E 2 e0 00 44
        E 1 e0 00 45
        E 2 e0 00 46
        E 2 e0 00 47
        E 1 e0 00 48
        E 2 e0 00 49
        E 2 e0 00 4a
        E 1 e0 00 4b
        E 2 e0 00 4c
        E 2 e0 00 4d
        E 1 e0 00 4e
        E 2 e0 00 4f
        E 2 e0 00 50
        E 1 e0 00 51
        E 2 e0 00 52
        E 2 e0 00 53
        E 1 e0 00 54
        E 2 e0 00 55
        E 2 e0 00 56
        E 1 e0 00 57
        E 2 e0 00 58
        E 2 e0 00 59
        E 1 e0 00 5a
        E 2 e0 00 5b
        E 2 e0 00 5c
        E 1 e0 00 5d
        E 2 e0 00 5e
        E 2 e0 00 5f
        E 1 e0 00 60
        E 2 e0 00 61
        E 2 e0 00 62
        E 1 e0 00 63
        E 2 e0 00 64
        E 2 e0 00 65
        E 0 90 1d 00
        E 0 90 20 7f
        E 1 e0 00 66
        E 2 e0 00 67
        E 2 e0 00 68
        E 1 e0 00 54
        E 2 e0 00 40
        E 52 90 20 00
        E 0 90 20 7f
        E 30 90 20 00
        E 0 90 1d 7f
        E 60 90 1d 00
        E 0 90 1d 7f
        E 60 90 1d 00
        E 90 90 1d 7f
        E 30 90 1d 00
        E 0 90 1d 7f
        E 60 90 1d 00
        E 0 90 1d 7f
        E 26 e0 00 40
        E 4 e0 00 41
        E 1 e0 00 42
        E 2 e0 00 43
        E 2 e0 00 44
        E 1 e0 00 45
        E 2 e0 00 46
        E 2 e0 00 47
        E 1 e0 00 48
        E 2 e0 00 49
        E 2 e0 00 4a
        E 1 e0 00 4b
        E 2 e0 00 4c
        E 2 e0 00 4d
        E 1 e0 00 4e
        E 2 e0 00 4f
        E 2 e0 00 50
        E 1 e0 00 51
        E 2 e0 00 52
        E 2 e0 00 53
        E 1 e0 00 54
        E 2 e0 00 55
        E 2 e0 00 56
        E 1 e0 00 57
        E 2 e0 00 58
        E 2 e0 00 59
        E 1 e0 00 5a
        E 2 e0 00 5b
        E 2 e0 00 5c
        E 1 e0 00 5d
        E 2 e0 00 5e
        E 2 e0 00 5f
        E 1 e0 00 60
        E 2 e0 00 61
        E 2 e0 00 62
        E 1 e0 00 63
        E 2 e0 00 64
        E 2 e0 00 65
        E 0 90 1d 00
        E 0 90 20 7f
        E 1 e0 00 66
        E 2 e0 00 67
        E 2 e0 00 68
        E 1 e0 00 54
        E 2 e0 00 40
        E 52 90 20 00
        E 0 90 20 7f
        E 30 90 20 00
        E 0 90 1d 7f
        E 60 90 1d 00
        E 0 90 1d 7f
        E 60 90 1d 00
        E 90 90 1d 7f
        E 30 90 1d 00
        E 0 90 1d 7f
        E 60 90 1d 00
        E 0 90 1d 7f
        E 26 e0 00 40
        E 4 e0 00 41
        E 1 e0 00 42
        E 2 e0 00 43
        E 2 e0 00 44
        E 1 e0 00 45
        E 2 e0 00 46
        E 2 e0 00 47
        E 1 e0 00 48
        E 2 e0 00 49
        E 2 e0 00 4a
        E 1 e0 00 4b
        E 2 e0 00 4c
        E 2 e0 00 4d
        E 1 e0 00 4e
        E 2 e0 00 4f
        E 2 e0 00 50
        E 1 e0 00 51
        E 2 e0 00 52
        E 2 e0 00 53
        E 1 e0 00 54
        E 2 e0 00 55
        E 2 e0 00 56
        E 1 e0 00 57
        E 2 e0 00 58
        E 2 e0 00 59
        E 1 e0 00 5a
        E 2 e0 00 5b
        E 2 e0 00 5c
        E 1 e0 00 5d
        E 2 e0 00 5e
        E 2 e0 00 5f
        E 1 e0 00 60
        E 2 e0 00 61
        E 2 e0 00 62
        E 1 e0 00 63
        E 2 e0 00 64
        E 2 e0 00 65
        E 0 90 1d 00
        E 0 90 20 7f
        E 1 e0 00 66
        E 2 e0 00 67
        E 2 e0 00 68
        E 1 e0 00 54
        E 2 e0 00 40
        E 52 90 20 00
        E 0 90 20 7f
        E 30 90 20 00
        E 0 90 1d 7f
        E 60 90 1d 00
        E 0 90 1d 7f
        E 60 90 1d 00
        E 90 90 1d 7f
        E 30 90 1d 00
        E 0 90 1d 7f
        E 60 90 1d 00
        E 0 90 1d 7f
        E 26 e0 00 40
        E 4 e0 00 41
        E 1 e0 00 42
        E 2 e0 00 43
        E 2 e0 00 44
        E 1 e0 00 45
        E 2 e0 00 46
        E 2 e0 00 47
        E 1 e0 00 48
        E 2 e0 00 49
        E 2 e0 00 4a
        E 1 e0 00 4b
        E 2 e0 00 4c
        E 2 e0 00 4d
        E 1 e0 00 4e
        E 2 e0 00 4f
        E 2 e0 00 50
        E 1 e0 00 51
        E 2 e0 00 52
        E 2 e0 00 53
        E 1 e0 00 54
        E 2 e0 00 55
        E 2 e0 00 56
        E 1 e0 00 57
        E 2 e0 00 58
        E 2 e0 00 59
        E 1 e0 00 5a
        E 2 e0 00 5b
        E 2 e0 00 5c
        E 1 e0 00 5d
        E 2 e0 00 5e
        E 2 e0 00 5f
        E 1 e0 00 60
        E 2 e0 00 61
        E 2 e0 00 62
        E 1 e0 00 63
        E 2 e0 00 64
        E 2 e0 00 65
        E 0 90 1d 00
        E 0 90 20 7f
        E 1 e0 00 66
        E 2 e0 00 67
        E 2 e0 00 68
        E 1 e0 00 54
        E 2 e0 00 40
        E 52 90 20 00
        E 0 90 20 7f
        E 30 90 20 00
        E 0 90 1d 7f
        E 60 90 1d 00
        E 0 90 1d 7f
        E 60 90 1d 00
        E 90 90 1d 7f
        E 30 90 1d 00
        E 0 90 1d 7f
        E 60 90 1d 00
        E 0 90 1d 7f
        E 26 e0 00 40
        E 4 e0 00 41
        E 1 e0 00 42
        E 2 e0 00 43
        E 2 e0 00 44
        E 1 e0 00 45
        E 2 e0 00 46
        E 2 e0 00 47
        E 1 e0 00 48
        E 2 e0 00 49
        E 2 e0 00 4a
        E 1 e0 00 4b
        E 2 e0 00 4c
        E 2 e0 00 4d
        E 1 e0 00 4e
        E 2 e0 00 4f
        E 2 e0 00 50
        E 1 e0 00 51
        E 2 e0 00 52
        E 2 e0 00 53
        E 1 e0 00 54
        E 2 e0 00 55
        E 2 e0 00 56
        E 1 e0 00 57
        E 2 e0 00 58
        E 2 e0 00 59
        E 1 e0 00 5a
        E 2 e0 00 5b
        E 2 e0 00 5c
        E 1 e0 00 5d
        E 2 e0 00 5e
        E 2 e0 00 5f
        E 1 e0 00 60
        E 2 e0 00 61
        E 2 e0 00 62
        E 1 e0 00 63
        E 2 e0 00 64
        E 2 e0 00 65
        E 0 90 1d 00
        E 0 90 20 7f
        E 1 e0 00 66
        E 2 e0 00 67
        E 2 e0 00 68
        E 1 e0 00 54
        E 2 e0 00 40
        E 52 90 20 00
        E 0 90 20 7f
        E 30 90 20 00
        E 0 90 1d 7f
        E 60 90 1d 00
        E 0 90 1d 7f
        E 60 90 1d 00
        E 90 90 1d 7f
        E 30 90 1d 00
        E 0 90 1d 7f
        E 60 90 1d 00
        E 0 90 1d 7f
        E 26 e0 00 40
        E 4 e0 00 41
        E 1 e0 00 42
        E 2 e0 00 43
        E 2 e0 00 44
        E 1 e0 00 45
        E 2 e0 00 46
        E 2 e0 00 47
        E 1 e0 00 48
        E 2 e0 00 49
        E 2 e0 00 4a
        E 1 e0 00 4b
        E 2 e0 00 4c
        E 2 e0 00 4d
        E 1 e0 00 4e
        E 2 e0 00 4f
        E 2 e0 00 50
        E 1 e0 00 51
        E 2 e0 00 52
        E 2 e0 00 53
        E 1 e0 00 54
        E 2 e0 00 55
        E 2 e0 00 56
        E 1 e0 00 57
        E 2 e0 00 58
        E 2 e0 00 59
        E 1 e0 00 5a
        E 2 e0 00 5b
        E 2 e0 00 5c
        E 1 e0 00 5d
        E 2 e0 00 5e
        E 2 e0 00 5f
        E 1 e0 00 60
        E 2 e0 00 61
        E 2 e0 00 62
        E 1 e0 00 63
        E 2 e0 00 64
        E 2 e0 00 65
        E 0 90 1d 00
        E 0 90 20 7f
        E 1 e0 00 66
        E 2 e0 00 67
        E 2 e0 00 68
        E 1 e0 00 54
        E 2 e0 00 40
        E 52 90 20 00
        E 0 90 20 7f
        E 30 90 20 00
        E 0 90 1d 7f
        E 60 90 1d 00
        E 0 90 1d 7f
        E 60 90 1d 00
        E 90 90 1d 7f
        E 30 90 1d 00
        E 0 90 1d 7f
        E 60 90 1d 00
        E 0 90 1d 7f
        E 26 e0 00 40
        E 4 e0 00 41
        E 1 e0 00 42
        E 2 e0 00 43
        E 2 e0 00 44
        E 1 e0 00 45
        E 2 e0 00 46
        E 2 e0 00 47
        E 1 e0 00 48
        E 2 e0 00 49
        E 2 e0 00 4a
        E 1 e0 00 4b
        E 2 e0 00 4c
        E 2 e0 00 4d
        E 1 e0 00 4e
        E 2 e0 00 4f
        E 2 e0 00 50
        E 1 e0 00 51
        E 2 e0 00 52
        E 2 e0 00 53
        E 1 e0 00 54
        E 2 e0 00 55
        E 2 e0 00 56
        E 1 e0 00 57
        E 2 e0 00 58
        E 2 e0 00 59
        E 1 e0 00 5a
        E 2 e0 00 5b
        E 2 e0 00 5c
        E 1 e0 00 5d
        E 2 e0 00 5e
        E 2 e0 00 5f
        E 1 e0 00 60
        E 2 e0 00 61
        E 2 e0 00 62
        E 1 e0 00 63
        E 2 e0 00 64
        E 2 e0 00 65
        E 0 90 1d 00
        E 0 90 20 7f
        E 1 e0 00 66
        E 2 e0 00 67
        E 2 e0 00 68
        E 1 e0 00 54
        E 2 e0 00 40
        E 52 90 20 00
        E 0 90 20 7f
        E 30 90 20 00
        E 0 90 1d 7f
        E 60 90 1d 00
        E 0 90 1d 7f
        E 60 90 1d 00
        E 90 90 1d 7f
        E 30 90 1d 00
        E 0 90 1d 7f
        E 60 90 1d 00
        E 0 90 1d 7f
        E 26 e0 00 40
        E 4 e0 00 41
        E 1 e0 00 42
        E 2 e0 00 43
        E 2 e0 00 44
        E 1 e0 00 45
        E 2 e0 00 46
        E 2 e0 00 47
        E 1 e0 00 48
        E 2 e0 00 49
        E 2 e0 00 4a
        E 1 e0 00 4b
        E 2 e0 00 4c
        E 2 e0 00 4d
        E 1 e0 00 4e
        E 2 e0 00 4f
        E 2 e0 00 50
        E 1 e0 00 51
        E 2 e0 00 52
        E 2 e0 00 53
        E 1 e0 00 54
        E 2 e0 00 55
        E 2 e0 00 56
        E 1 e0 00 57
        E 2 e0 00 58
        E 2 e0 00 59
        E 1 e0 00 5a
        E 2 e0 00 5b
        E 2 e0 00 5c
        E 1 e0 00 5d
        E 2 e0 00 5e
        E 2 e0 00 5f
        E 1 e0 00 60
        E 2 e0 00 61
        E 2 e0 00 62
        E 1 e0 00 63
        E 2 e0 00 64
        E 2 e0 00 65
        E 0 90 1d 00
        E 0 90 20 7f
        E 1 e0 00 66
        E 2 e0 00 67
        E 2 e0 00 68
        E 1 e0 00 54
        E 2 e0 00 40
        E 52 90 20 00
        E 0 90 20 7f
        E 30 90 20 00
        E 0 90 1d 7f
        E 60 90 1d 00
        E 0 90 1d 7f
        E 60 90 1d 00
        E 90 90 1d 7f
        E 30 90 1d 00
        E 0 90 1d 7f
        E 60 90 1d 00
        E 0 90 1d 7f
        E 26 e0 00 40
        E 4 e0 00 41
        E 1 e0 00 42
        E 2 e0 00 43
        E 2 e0 00 44
        E 1 e0 00 45
        E 2 e0 00 46
        E 2 e0 00 47
        E 1 e0 00 48
        E 2 e0 00 49
        E 2 e0 00 4a
        E 1 e0 00 4b
        E 2 e0 00 4c
        E 2 e0 00 4d
        E 1 e0 00 4e
        E 2 e0 00 4f
        E 2 e0 00 50
        E 1 e0 00 51
        E 2 e0 00 52
        E 2 e0 00 53
        E 1 e0 00 54
        E 2 e0 00 55
        E 2 e0 00 56
        E 1 e0 00 57
        E 2 e0 00 58
        E 2 e0 00 59
        E 1 e0 00 5a
        E 2 e0 00 5b
        E 2 e0 00 5c
        E 1 e0 00 5d
        E 2 e0 00 5e
        E 2 e0 00 5f
        E 1 e0 00 60
        E 2 e0 00 61
        E 2 e0 00 62
        E 1 e0 00 63
        E 2 e0 00 64
        E 2 e0 00 65
        E 0 90 1d 00
        E 0 90 20 7f
        E 1 e0 00 66
        E 2 e0 00 67
        E 2 e0 00 68
        E 1 e0 00 54
        E 2 e0 00 40
        E 52 90 20 00
        E 0 90 20 7f
        E 30 90 20 00
        E 0 90 1d 7f
        E 60 90 1d 00
        E 0 90 1d 7f
        E 60 90 1d 00
        E 90 90 1d 7f
        E 30 90 1d 00
        E 0 90 1d 7f
        E 60 90 1d 00
        E 0 90 1d 7f
        E 26 e0 00 40
        E 4 e0 00 41
        E 1 e0 00 42
        E 2 e0 00 43
        E 2 e0 00 44
        E 1 e0 00 45
        E 2 e0 00 46
        E 2 e0 00 47
        E 1 e0 00 48
        E 2 e0 00 49
        E 2 e0 00 4a
        E 1 e0 00 4b
        E 2 e0 00 4c
        E 2 e0 00 4d
        E 1 e0 00 4e
        E 2 e0 00 4f
        E 2 e0 00 50
        E 1 e0 00 51
        E 2 e0 00 52
        E 2 e0 00 53
        E 1 e0 00 54
        E 2 e0 00 55
        E 2 e0 00 56
        E 1 e0 00 57
        E 2 e0 00 58
        E 2 e0 00 59
        E 1 e0 00 5a
        E 2 e0 00 5b
        E 2 e0 00 5c
        E 1 e0 00 5d
        E 2 e0 00 5e
        E 2 e0 00 5f
        E 1 e0 00 60
        E 2 e0 00 61
        E 2 e0 00 62
        E 1 e0 00 63
        E 2 e0 00 64
        E 2 e0 00 65
        E 0 90 1d 00
        E 0 90 20 7f
        E 1 e0 00 66
        E 2 e0 00 67
        E 2 e0 00 68
        E 1 e0 00 54
        E 2 e0 00 40
        E 52 90 20 00
        E 0 90 20 7f
        E 30 90 20 00
        E 0 90 1b 7f
        E 90 90 1b 00
        E 0 90 1b 7f
        E 30 90 1b 00
        E 0 90 1b 7f
        E 30 90 1b 00
        E 0 90 1b 7f
        E 30 90 1b 00
        E 0 90 1b 7f
        E 30 90 1b 00
        E 0 90 1b 7f
        E 30 90 1b 00
        E 0 90 22 7f
        E 90 90 22 00
        E 0 90 22 7f
        E 30 90 22 00
        E 0 90 22 7f
        E 30 90 22 00
        E 0 90 22 7f
        E 30 90 22 00
        E 0 90 22 7f
        E 30 90 22 00
        E 0 90 22 7f
        E 30 90 22 00
        E 0 90 20 7f
        E 60 90 20 00
        E 0 90 20 7f
        E 60 90 20 00
        E 0 90 20 7f
        E 90 90 20 00
        E 0 90 20 7f
        E 30 90 20 00
        E 0 90 20 7f
        E 90 90 20 00
        E 0 90 20 7f
        E 30 90 20 00
        E 0 90 20 7f
        E 60 90 20 00
        E 0 90 20 7f
        E 30 90 20 00
        E 0 90 20 7f
        E 30 90 20 00
        E 0 90 24 7f
        E 60 90 24 00
        E 0 90 24 7f
        E 60 90 24 00
        E 0 90 24 7f
        E 90 90 24 00
        E 0 90 24 7f
        E 30 90 24 00
        E 0 90 24 7f
        E 90 90 24 00
        E 0 90 24 7f
        E 30 90 24 00
        E 0 90 24 7f
        E 60 90 24 00
        E 0 90 24 7f
        E 30 90 24 00
        E 0 90 24 7f
        E 30 90 24 00
        E 0 90 25 7f
        E 60 90 25 00
        E 0 90 25 7f
        E 60 90 25 00
        E 0 90 25 7f
        E 90 90 25 00
        E 0 90 25 7f
        E 30 90 25 00
        E 0 90 24 7f
        E 90 90 24 00
        E 0 90 24 7f
        E 30 90 24 00
        E 0 90 22 7f
        E 60 90 22 00
        E 0 90 22 7f
        E 30 90 22 00
        E 0 90 22 7f
        E 30 90 22 00
        E 0 90 20 7f
        E 60 90 20 00
        E 0 90 20 7f
        E 60 90 20 00
        E 0 90 20 7f
        E 90 90 20 00
        E 0 90 20 7f
        E 30 90 20 00
        E 0 90 20 7f
        E 90 90 20 00
        E 0 90 20 7f
        E 30 90 20 00
        E 0 90 20 7f
        E 60 90 20 00
        E 0 90 20 7f
        E 30 90 20 00
        E 0 90 20 7f
        E 30 90 20 00
        E 0 90 20 7f
        E 60 90 20 00
        E 0 90 20 7f
        E 60 90 20 00
        E 0 90 20 7f
        E 90 90 20 00
        E 0 90 20 7f
        E 30 90 20 00
        E 0 90 20 7f
        E 90 90 20 00
        E 0 90 20 7f
        E 30 90 20 00
        E 0 90 20 7f
        E 60 90 20 00
        E 0 90 20 7f
        E 30 90 20 00
        E 0 90 20 7f
        E 30 90 20 00
        E 0 90 24 7f
        E 60 90 24 00
        E 0 90 24 7f
        E 60 90 24 00
        E 0 90 24 7f
        E 90 90 24 00
        E 0 90 24 7f
        E 30 90 24 00
        E 0 90 24 7f
        E 90 90 24 00
        E 0 90 24 7f
        E 30 90 24 00
        E 0 90 24 7f
        E 60 90 24 00
        E 0 90 24 7f
        E 30 90 24 00
        E 0 90 24 7f
        E 30 90 24 00
        E 0 90 25 7f
        E 60 90 25 00
        E 0 90 25 7f
        E 60 90 25 00
        E 0 90 25 7f
        E 90 90 25 00
        E 0 90 25 7f
        E 30 90 25 00
        E 0 90 24 7f
        E 90 90 24 00
        E 0 90 24 7f
        E 30 90 24 00
        E 0 90 22 7f
        E 60 90 22 00
        E 0 90 22 7f
        E 30 90 22 00
        E 0 90 22 7f
        E 30 90 22 00
        E 0 90 20 7f
        E 60 90 20 00
        E 0 90 20 7f
        E 60 90 20 00
        E 0 90 20 7f
        E 90 90 20 00
        E 0 90 20 7f
        E 30 90 20 00
        E 0 90 20 7f
        E 90 90 20 00
        E 0 90 20 7f
        E 30 90 20 00
        E 0 90 20 7f
        E 60 90 20 00
        E 0 90 20 7f
        E 30 90 20 00
        E 0 90 20 7f
        E 30 90 20 00
        E 0 90 20 7f
        E 60 90 20 00
        E 0 90 20 7f
        E 60 90 20 00
        E 0 90 20 7f
        E 90 90 20 00
        E 0 90 20 7f
        E 30 90 20 00
        E 0 90 20 7f
        E 90 90 20 00
        E 0 90 20 7f
        E 30 90 20 00
        E 0 90 20 7f
        E 60 90 20 00
        E 0 90 20 7f
        E 30 90 20 00
        E 0 90 20 7f
        E 30 90 20 00
        E 0 90 24 7f
        E 60 90 24 00
        E 0 90 24 7f
        E 60 90 24 00
        E 0 90 24 7f
        E 90 90 24 00
        E 0 90 24 7f
        E 30 90 24 00
        E 0 90 24 7f
        E 90 90 24 00
        E 0 90 24 7f
        E 30 90 24 00
        E 0 90 24 7f
        E 60 90 24 00
        E 0 90 24 7f
        E 30 90 24 00
        E 0 90 24 7f
        E 30 90 24 00
        E 0 90 25 7f
        E 60 90 25 00
        E 0 90 25 7f
        E 60 90 25 00
        E 0 90 25 7f
        E 90 90 25 00
        E 0 90 25 7f
        E 30 90 25 00
        E 0 90 24 7f
        E 90 90 24 00
        E 0 90 24 7f
        E 30 90 24 00
        E 0 90 22 7f
        E 60 90 22 00
        E 0 90 22 7f
        E 30 90 22 00
        E 0 90 22 7f
        E 30 90 22 00
        E 0 90 20 7f
        E 60 90 20 00
        E 0 90 20 7f
        E 60 90 20 00
        E 0 90 20 7f
        E 90 90 20 00
        E 0 90 20 7f
        E 30 90 20 00
        E 0 90 20 7f
        E 90 90 20 00
        E 0 90 20 7f
        E 30 90 20 00
        E 0 90 20 7f
        E 60 90 20 00
        E 0 90 20 7f
        E 30 90 20 00
        E 0 90 20 7f
        E 30 90 20 00
        E 0 90 22 7f
        E 60 90 22 00
        E 0 90 22 7f
        E 60 90 22 00
        E 0 90 22 7f
        E 90 90 22 00
        E 0 90 22 7f
        E 30 90 22 00
        E 0 90 22 7f
        E 90 90 22 00
        E 0 90 22 7f
        E 30 90 22 00
        E 0 90 22 7f
        E 60 90 22 00
        E 0 90 22 7f
        E 30 90 22 00
        E 0 90 22 7f
        E 30 90 22 00
        E 0 90 20 7f
        E 60 90 20 00
        E 0 90 20 7f
        E 60 90 20 00
        E 0 90 20 7f
        E 90 90 20 00
        E 0 90 20 7f
        E 30 90 20 00
        E 0 90 20 7f
        E 90 90 20 00
        E 0 90 20 7f
        E 30 90 20 00
        E 0 90 20 7f
        E 60 90 20 00
        E 0 90 20 7f
        E 30 90 20 00
        E 0 90 20 7f
        E 30 90 20 00
        E 0 90 22 7f
        E 60 90 22 00
        E 0 90 22 7f
        E 60 90 22 00
        E 0 90 22 7f
        E 90 90 22 00
        E 0 90 22 7f
        E 30 90 22 00
        E 0 90 22 7f
        E 90 90 22 00
        E 0 90 22 7f
        E 30 90 22 00
        E 0 90 22 7f
        E 60 90 22 00
        E 0 90 22 7f
        E 30 90 22 00
        E 0 90 22 7f
        E 30 90 22 00
        E 0 90 1d 7f
        E 60 90 1d 00
        E 0 90 1d 7f
        E 60 90 1d 00
        E 90 90 1d 7f
        E 30 90 1d 00
        E 0 90 1d 7f
        E 60 90 1d 00
        E 0 90 1d 7f
        E 26 e0 00 40
        E 4 e0 00 41
        E 1 e0 00 42
        E 2 e0 00 43
        E 2 e0 00 44
        E 1 e0 00 45
        E 2 e0 00 46
        E 2 e0 00 47
        E 1 e0 00 48
        E 2 e0 00 49
        E 2 e0 00 4a
        E 1 e0 00 4b
        E 2 e0 00 4c
        E 2 e0 00 4d
        E 1 e0 00 4e
        E 2 e0 00 4f
        E 2 e0 00 50
        E 1 e0 00 51
        E 2 e0 00 52
        E 2 e0 00 53
        E 1 e0 00 54
        E 2 e0 00 55
        E 2 e0 00 56
        E 1 e0 00 57
        E 2 e0 00 58
        E 2 e0 00 59
        E 1 e0 00 5a
        E 2 e0 00 5b
        E 2 e0 00 5c
        E 1 e0 00 5d
        E 2 e0 00 5e
        E 2 e0 00 5f
        E 1 e0 00 60
        E 2 e0 00 61
        E 2 e0 00 62
        E 1 e0 00 63
        E 2 e0 00 64
        E 2 e0 00 65
        E 0 90 1d 00
        E 0 90 20 7f
        E 1 e0 00 66
        E 2 e0 00 67
        E 2 e0 00 68
        E 1 e0 00 54
        E 2 e0 00 40
        E 52 90 20 00
        E 0 90 20 7f
        E 30 90 20 00
        E 0 90 1d 7f
        E 60 90 1d 00
        E 0 90 1d 7f
        E 60 90 1d 00
        E 90 90 1d 7f
        E 30 90 1d 00
        E 0 90 1d 7f
        E 60 90 1d 00
        E 0 90 1d 7f
        E 26 e0 00 40
        E 4 e0 00 41
        E 1 e0 00 42
        E 2 e0 00 43
        E 2 e0 00 44
        E 1 e0 00 45
        E 2 e0 00 46
        E 2 e0 00 47
        E 1 e0 00 48
        E 2 e0 00 49
        E 2 e0 00 4a
        E 1 e0 00 4b
        E 2 e0 00 4c
        E 2 e0 00 4d
        E 1 e0 00 4e
        E 2 e0 00 4f
        E 2 e0 00 50
        E 1 e0 00 51
        E 2 e0 00 52
        E 2 e0 00 53
        E 1 e0 00 54
        E 2 e0 00 55
        E 2 e0 00 56
        E 1 e0 00 57
        E 2 e0 00 58
        E 2 e0 00 59
        E 1 e0 00 5a
        E 2 e0 00 5b
        E 2 e0 00 5c
        E 1 e0 00 5d
        E 2 e0 00 5e
        E 2 e0 00 5f
        E 1 e0 00 60
        E 2 e0 00 61
        E 2 e0 00 62
        E 1 e0 00 63
        E 2 e0 00 64
        E 2 e0 00 65
        E 0 90 1d 00
        E 0 90 20 7f
        E 1 e0 00 66
        E 2 e0 00 67
        E 2 e0 00 68
        E 1 e0 00 54
        E 2 e0 00 40
        E 52 90 20 00
        E 0 90 20 7f
        E 30 90 20 00
        E 0 90 1d 7f
        E 60 90 1d 00
        E 0 90 1d 7f
        E 60 90 1d 00
        E 90 90 1d 7f
        E 30 90 1d 00
        E 0 90 1d 7f
        E 60 90 1d 00
        E 0 90 1d 7f
        E 26 e0 00 40
        E 4 e0 00 41
        E 1 e0 00 42
        E 2 e0 00 43
        E 2 e0 00 44
        E 1 e0 00 45
        E 2 e0 00 46
        E 2 e0 00 47
        E 1 e0 00 48
        E 2 e0 00 49
        E 2 e0 00 4a
        E 1 e0 00 4b
        E 2 e0 00 4c
        E 2 e0 00 4d
        E 1 e0 00 4e
        E 2 e0 00 4f
        E 2 e0 00 50
        E 1 e0 00 51
        E 2 e0 00 52
        E 2 e0 00 53
        E 1 e0 00 54
        E 2 e0 00 55
        E 2 e0 00 56
        E 1 e0 00 57
        E 2 e0 00 58
        E 2 e0 00 59
        E 1 e0 00 5a
        E 2 e0 00 5b
        E 2 e0 00 5c
        E 1 e0 00 5d
        E 2 e0 00 5e
        E 2 e0 00 5f
        E 1 e0 00 60
        E 2 e0 00 61
        E 2 e0 00 62
        E 1 e0 00 63
        E 2 e0 00 64
        E 2 e0 00 65
        E 0 90 1d 00
        E 0 90 20 7f
        E 1 e0 00 66
        E 2 e0 00 67
        E 2 e0 00 68
        E 1 e0 00 54
        E 2 e0 00 40
        E 52 90 20 00
        E 0 90 20 7f
        E 30 90 20 00
        E 0 90 1d 7f
        E 60 90 1d 00
        E 0 90 1d 7f
        E 60 90 1d 00
        E 90 90 1d 7f
        E 30 90 1d 00
        E 0 90 1d 7f
        E 60 90 1d 00
        E 0 90 1d 7f
        E 26 e0 00 40
        E 4 e0 00 41
        E 1 e0 00 42
        E 2 e0 00 43
        E 2 e0 00 44
        E 1 e0 00 45
        E 2 e0 00 46
        E 2 e0 00 47
        E 1 e0 00 48
        E 2 e0 00 49
        E 2 e0 00 4a
        E 1 e0 00 4b
        E 2 e0 00 4c
        E 2 e0 00 4d
        E 1 e0 00 4e
        E 2 e0 00 4f
        E 2 e0 00 50
        E 1 e0 00 51
        E 2 e0 00 52
        E 2 e0 00 53
        E 1 e0 00 54
        E 2 e0 00 55
        E 2 e0 00 56
        E 1 e0 00 57
        E 2 e0 00 58
        E 2 e0 00 59
        E 1 e0 00 5a
        E 2 e0 00 5b
        E 2 e0 00 5c
        E 1 e0 00 5d
        E 2 e0 00 5e
        E 2 e0 00 5f
        E 1 e0 00 60
        E 2 e0 00 61
        E 2 e0 00 62
        E 1 e0 00 63
        E 2 e0 00 64
        E 2 e0 00 65
        E 0 90 1d 00
        E 0 90 20 7f
        E 1 e0 00 66
        E 2 e0 00 67
        E 2 e0 00 68
        E 1 e0 00 54
        E 2 e0 00 40
        E 52 90 20 00
        E 0 90 20 7f
        E 30 90 20 00
        E 0 90 1d 7f
        E 60 90 1d 00
        E 0 90 1d 7f
        E 60 90 1d 00
        E 90 90 1d 7f
        E 30 90 1d 00
        E 0 90 1d 7f
        E 60 90 1d 00
        E 0 90 1d 7f
        E 26 e0 00 40
        E 4 e0 00 41
        E 1 e0 00 42
        E 2 e0 00 43
        E 2 e0 00 44
        E 1 e0 00 45
        E 2 e0 00 46
        E 2 e0 00 47
        E 1 e0 00 48
        E 2 e0 00 49
        E 2 e0 00 4a
        E 1 e0 00 4b
        E 2 e0 00 4c
        E 2 e0 00 4d
        E 1 e0 00 4e
        E 2 e0 00 4f
        E 2 e0 00 50
        E 1 e0 00 51
        E 2 e0 00 52
        E 2 e0 00 53
        E 1 e0 00 54
        E 2 e0 00 55
        E 2 e0 00 56
        E 1 e0 00 57
        E 2 e0 00 58
        E 2 e0 00 59
        E 1 e0 00 5a
        E 2 e0 00 5b
        E 2 e0 00 5c
        E 1 e0 00 5d
        E 2 e0 00 5e
        E 2 e0 00 5f
        E 1 e0 00 60
        E 2 e0 00 61
        E 2 e0 00 62
        E 1 e0 00 63
        E 2 e0 00 64
        E 2 e0 00 65
        E 0 90 1d 00
        E 0 90 20 7f
        E 1 e0 00 66
        E 2 e0 00 67
        E 2 e0 00 68
        E 1 e0 00 54
        E 2 e0 00 40
        E 52 90 20 00
        E 0 90 20 7f
        E 30 90 20 00
        E 0 90 1d 7f
        E 60 90 1d 00
        E 0 90 1d 7f
        E 60 90 1d 00
        E 90 90 1d 7f
        E 30 90 1d 00
        E 0 90 1d 7f
        E 60 90 1d 00
        E 0 90 1d 7f
        E 26 e0 00 40
        E 4 e0 00 41
        E 1 e0 00 42
        E 2 e0 00 43
        E 2 e0 00 44
        E 1 e0 00 45
        E 2 e0 00 46
        E 2 e0 00 47
        E 1 e0 00 48
        E 2 e0 00 49
        E 2 e0 00 4a
        E 1 e0 00 4b
        E 2 e0 00 4c
        E 2 e0 00 4d
        E 1 e0 00 4e
        E 2 e0 00 4f
        E 2 e0 00 50
        E 1 e0 00 51
        E 2 e0 00 52
        E 2 e0 00 53
        E 1 e0 00 54
        E 2 e0 00 55
        E 2 e0 00 56
        E 1 e0 00 57
        E 2 e0 00 58
        E 2 e0 00 59
        E 1 e0 00 5a
        E 2 e0 00 5b
        E 2 e0 00 5c
        E 1 e0 00 5d
        E 2 e0 00 5e
        E 2 e0 00 5f
        E 1 e0 00 60
        E 2 e0 00 61
        E 2 e0 00 62
        E 1 e0 00 63
        E 2 e0 00 64
        E 2 e0 00 65
        E 0 90 1d 00
        E 0 90 20 7f
        E 1 e0 00 66
        E 2 e0 00 67
        E 2 e0 00 68
        E 1 e0 00 54
        E 2 e0 00 40
        E 52 90 20 00
        E 0 90 20 7f
        E 30 90 20 00
        E 0 90 1b 7f
        E 90 90 1b 00
        E 0 90 1b 7f
        E 30 90 1b 00
        E 0 90 1b 7f
        E 30 90 1b 00
        E 0 90 1b 7f
        E 30 90 1b 00
        E 0 90 1b 7f
        E 30 90 1b 00
        E 0 90 1b 7f
        E 30 90 1b 00
        E 0 90 22 7f
        E 90 90 22 00
        E 0 90 22 7f
        E 30 90 22 00
        E 0 90 22 7f
        E 30 90 22 00
        E 0 90 22 7f
        E 30 90 22 00
        E 0 90 22 7f
        E 30 90 22 00
        E 0 90 22 7f
        E 30 90 22 00
        E 0 90 1d 7f
        E 60 90 1d 00
        E 0 90 1d 7f
        E 60 90 1d 00
        E 90 90 1d 7f
        E 30 90 1d 00
        E 0 90 1d 7f
        E 60 90 1d 00
        E 0 90 1d 7f
        E 26 e0 00 40
        E 4 e0 00 41
        E 1 e0 00 42
        E 2 e0 00 43
        E 2 e0 00 44
        E 1 e0 00 45
        E 2 e0 00 46
        E 2 e0 00 47
        E 1 e0 00 48
        E 2 e0 00 49
        E 2 e0 00 4a
        E 1 e0 00 4b
        E 2 e0 00 4c
        E 2 e0 00 4d
        E 1 e0 00 4e
        E 2 e0 00 4f
        E 2 e0 00 50
        E 1 e0 00 51
        E 2 e0 00 52
        E 2 e0 00 53
        E 1 e0 00 54
        E 2 e0 00 55
        E 2 e0 00 56
        E 1 e0 00 57
        E 2 e0 00 58
        E 2 e0 00 59
        E 1 e0 00 5a
        E 2 e0 00 5b
        E 2 e0 00 5c
        E 1 e0 00 5d
        E 2 e0 00 5e
        E 2 e0 00 5f
        E 1 e0 00 60
        E 2 e0 00 61
        E 2 e0 00 62
        E 1 e0 00 63
        E 2 e0 00 64
        E 2 e0 00 65
        E 0 90 1d 00
        E 0 90 20 7f
        E 1 e0 00 66
        E 2 e0 00 67
        E 2 e0 00 68
        E 1 e0 00 54
        E 2 e0 00 40
        E 52 90 20 00
        E 0 90 20 7f
        E 30 90 20 00
        E 0 90 1d 7f
        E 60 90 1d 00
        E 0 90 1d 7f
        E 60 90 1d 00
        E 90 90 1d 7f
        E 30 90 1d 00
        E 0 90 1d 7f
        E 60 90 1d 00
        E 0 90 1d 7f
        E 26 e0 00 40
        E 4 e0 00 41
        E 1 e0 00 42
        E 2 e0 00 43
        E 2 e0 00 44
        E 1 e0 00 45
        E 2 e0 00 46
        E 2 e0 00 47
        E 1 e0 00 48
        E 2 e0 00 49
        E 2 e0 00 4a
        E 1 e0 00 4b
        E 2 e0 00 4c
        E 2 e0 00 4d
        E 1 e0 00 4e
        E 2 e0 00 4f
        E 2 e0 00 50
        E 1 e0 00 51
        E 2 e0 00 52
        E 2 e0 00 53
        E 1 e0 00 54
        E 2 e0 00 55
        E 2 e0 00 56
        E 1 e0 00 57
        E 2 e0 00 58
        E 2 e0 00 59
        E 1 e0 00 5a
        E 2 e0 00 5b
        E 2 e0 00 5c
        E 1 e0 00 5d
        E 2 e0 00 5e
        E 2 e0 00 5f
        E 1 e0 00 60
        E 2 e0 00 61
        E 2 e0 00 62
        E 1 e0 00 63
        E 2 e0 00 64
        E 2 e0 00 65
        E 0 90 1d 00
        E 0 90 20 7f
        E 1 e0 00 66
        E 2 e0 00 67
        E 2 e0 00 68
        E 1 e0 00 54
        E 2 e0 00 40
        E 52 90 20 00
        E 0 90 20 7f
        E 30 90 20 00
        E 0 90 1b 7f
        E 90 90 1b 00
        E 0 90 1b 7f
        E 30 90 1b 00
        E 0 90 1b 7f
        E 30 90 1b 00
        E 0 90 1b 7f
        E 30 90 1b 00
        E 0 90 1b 7f
        E 30 90 1b 00
        E 0 90 1b 7f
        E 30 90 1b 00
        E 0 90 22 7f
        E 90 90 22 00
        E 0 90 22 7f
        E 30 90 22 00
        E 0 90 22 7f
        E 30 90 22 00
        E 0 90 22 7f
        E 30 90 22 00
        E 0 90 22 7f
        E 30 90 22 00
        E 0 90 22 7f
        E 30 90 22 00
        E 0 90 1d 7f
        E 60 90 1d 00
        E 0 90 1d 7f
        E 60 90 1d 00
        E 90 90 1d 7f
        E 30 90 1d 00
        E 0 90 1d 7f
        E 60 90 1d 00
        E 0 90 1d 7f
        E 26 e0 00 40
        E 4 e0 00 41
        E 1 e0 00 42
        E 2 e0 00 43
        E 2 e0 00 44
        E 1 e0 00 45
        E 2 e0 00 46
        E 2 e0 00 47
        E 1 e0 00 48
        E 2 e0 00 49
        E 2 e0 00 4a
        E 1 e0 00 4b
        E 2 e0 00 4c
        E 2 e0 00 4d
        E 1 e0 00 4e
        E 2 e0 00 4f
        E 2 e0 00 50
        E 1 e0 00 51
        E 2 e0 00 52
        E 2 e0 00 53
        E 1 e0 00 54
        E 2 e0 00 55
        E 2 e0 00 56
        E 1 e0 00 57
        E 2 e0 00 58
        E 2 e0 00 59
        E 1 e0 00 5a
        E 2 e0 00 5b
        E 2 e0 00 5c
        E 1 e0 00 5d
        E 2 e0 00 5e
        E 2 e0 00 5f
        E 1 e0 00 60
        E 2 e0 00 61
        E 2 e0 00 62
        E 1 e0 00 63
        E 2 e0 00 64
        E 2 e0 00 65
        E 0 90 1d 00
        E 0 90 20 7f
        E 1 e0 00 66
        E 2 e0 00 67
        E 2 e0 00 68
        E 1 e0 00 54
        E 2 e0 00 40
        E 52 90 20 00
        E 0 90 20 7f
        E 30 90 20 00
        E 0 90 1d 7f
        E 60 90 1d 00
        E 0 90 1d 7f
        E 60 90 1d 00
        E 90 90 1d 7f
        E 30 90 1d 00
        E 0 90 1d 7f
        E 60 90 1d 00
        E 0 90 1d 7f
        E 26 e0 00 40
        E 4 e0 00 41
        E 1 e0 00 42
        E 2 e0 00 43
        E 2 e0 00 44
        E 1 e0 00 45
        E 2 e0 00 46
        E 2 e0 00 47
        E 1 e0 00 48
        E 2 e0 00 49
        E 2 e0 00 4a
        E 1 e0 00 4b
        E 2 e0 00 4c
        E 2 e0 00 4d
        E 1 e0 00 4e
        E 2 e0 00 4f
        E 2 e0 00 50
        E 1 e0 00 51
        E 2 e0 00 52
        E 2 e0 00 53
        E 1 e0 00 54
        E 2 e0 00 55
        E 2 e0 00 56
        E 1 e0 00 57
        E 2 e0 00 58
        E 2 e0 00 59
        E 1 e0 00 5a
        E 2 e0 00 5b
        E 2 e0 00 5c
        E 1 e0 00 5d
        E 2 e0 00 5e
        E 2 e0 00 5f
        E 1 e0 00 60
        E 2 e0 00 61
        E 2 e0 00 62
        E 1 e0 00 63
        E 2 e0 00 64
        E 2 e0 00 65
        E 0 90 1d 00
        E 0 90 20 7f
        E 1 e0 00 66
        E 2 e0 00 67
        E 2 e0 00 68
        E 1 e0 00 54
        E 2 e0 00 40
        E 52 90 20 00
        E 0 90 20 7f
        E 30 90 20 00
        E 0 90 1b 7f
        E 90 90 1b 00
        E 0 90 1b 7f
        E 30 90 1b 00
        E 0 90 1b 7f
        E 30 90 1b 00
        E 0 90 1b 7f
        E 30 90 1b 00
        E 0 90 1b 7f
        E 30 90 1b 00
        E 0 90 1b 7f
        E 30 90 1b 00
        E 0 90 22 7f
        E 90 90 22 00
        E 0 90 22 7f
        E 30 90 22 00
        E 0 90 22 7f
        E 30 90 22 00
        E 0 90 22 7f
        E 30 90 22 00
        E 0 90 22 7f
        E 30 90 22 00
        E 0 90 22 7f
        E 30 90 22 00
        E 0 90 1d 7f
        E 60 90 1d 00
        E 0 90 1d 7f
        E 60 90 1d 00
        E 90 90 1d 7f
        E 30 90 1d 00
        E 0 90 1d 7f
        E 60 90 1d 00
        E 0 90 1d 7f
        E 26 e0 00 40
        E 4 e0 00 41
        E 1 e0 00 42
        E 2 e0 00 43
        E 2 e0 00 44
        E 1 e0 00 45
        E 2 e0 00 46
        E 2 e0 00 47
        E 1 e0 00 48
        E 2 e0 00 49
        E 2 e0 00 4a
        E 1 e0 00 4b
        E 2 e0 00 4c
        E 2 e0 00 4d
        E 1 e0 00 4e
        E 2 e0 00 4f
        E 2 e0 00 50
        E 1 e0 00 51
        E 2 e0 00 52
        E 2 e0 00 53
        E 1 e0 00 54
        E 2 e0 00 55
        E 2 e0 00 56
        E 1 e0 00 57
        E 2 e0 00 58
        E 2 e0 00 59
        E 1 e0 00 5a
        E 2 e0 00 5b
        E 2 e0 00 5c
        E 1 e0 00 5d
        E 2 e0 00 5e
        E 2 e0 00 5f
        E 1 e0 00 60
        E 2 e0 00 61
        E 2 e0 00 62
        E 1 e0 00 63
        E 2 e0 00 64
        E 2 e0 00 65
        E 0 90 1d 00
        E 0 90 20 7f
        E 1 e0 00 66
        E 2 e0 00 67
        E 2 e0 00 68
        E 1 e0 00 54
        E 2 e0 00 40
        E 52 90 20 00
        E 0 90 20 7f
        E 30 90 20 00
        E 0 90 1b 7f
        E 90 90 1b 00
        E 0 90 1b 7f
        E 30 90 1b 00
        E 0 90 1b 7f
        E 30 90 1b 00
        E 0 90 1b 7f
        E 30 90 1b 00
        E 0 90 1b 7f
        E 30 90 1b 00
        E 0 90 1b 7f
        E 30 90 1b 00
        E 0 90 22 7f
        E 90 90 22 00
        E 0 90 22 7f
        E 30 90 22 00
        E 0 90 22 7f
        E 30 90 22 00
        E 0 90 22 7f
        E 30 90 22 00
        E 0 90 22 7f
        E 30 90 22 00
        E 0 90 22 7f
        E 30 90 22 00
        E 0 90 1d 7f
        E 60 90 1d 00
        E 0 90 1d 7f
        E 60 90 1d 00
        E 90 90 1d 7f
        E 30 90 1d 00
        E 0 90 1d 7f
        E 60 90 1d 00
        E 0 90 1d 7f
        E 26 e0 00 40
        E 4 e0 00 41
        E 1 e0 00 42
        E 2 e0 00 43
        E 2 e0 00 44
        E 1 e0 00 45
        E 2 e0 00 46
        E 2 e0 00 47
        E 1 e0 00 48
        E 2 e0 00 49
        E 2 e0 00 4a
        E 1 e0 00 4b
        E 2 e0 00 4c
        E 2 e0 00 4d
        E 1 e0 00 4e
        E 2 e0 00 4f
        E 2 e0 00 50
        E 1 e0 00 51
        E 2 e0 00 52
        E 2 e0 00 53
        E 1 e0 00 54
        E 2 e0 00 55
        E 2 e0 00 56
        E 1 e0 00 57
        E 2 e0 00 58
        E 2 e0 00 59
        E 1 e0 00 5a
        E 2 e0 00 5b
        E 2 e0 00 5c
        E 1 e0 00 5d
        E 2 e0 00 5e
        E 2 e0 00 5f
        E 1 e0 00 60
        E 2 e0 00 61
        E 2 e0 00 62
        E 1 e0 00 63
        E 2 e0 00 64
        E 2 e0 00 65
        E 0 90 1d 00
        E 0 90 20 7f
        E 1 e0 00 66
        E 2 e0 00 67
        E 2 e0 00 68
        E 1 e0 00 54
        E 2 e0 00 40
        E 52 90 20 00
        E 0 90 20 7f
        E 30 90 20 00
        E 0 90 1b 7f
        E 90 90 1b 00
        E 0 90 1b 7f
        E 30 90 1b 00
        E 0 90 1b 7f
        E 30 90 1b 00
        E 0 90 1b 7f
        E 30 90 1b 00
        E 0 90 1b 7f
        E 30 90 1b 00
        E 0 90 1b 7f
        E 30 90 1b 00
        E 0 90 22 7f
        E 90 90 22 00
        E 0 90 22 7f
        E 30 90 22 00
        E 0 90 22 7f
        E 30 90 22 00
        E 0 90 22 7f
        E 30 90 22 00
        E 0 90 22 7f
        E 30 90 22 00
        E 0 90 22 7f
        E 30 90 22 00
        E 0 90 1d 7f
        E 60 90 1d 00
        E 0 90 1d 7f
        E 60 90 1d 00
        E 90 90 1d 7f
        E 30 90 1d 00
        E 0 90 1d 7f
        E 60 90 1d 00
        E 0 90 1d 7f
        E 26 e0 00 40
        E 4 e0 00 41
        E 1 e0 00 42
        E 2 e0 00 43
        E 2 e0 00 44
        E 1 e0 00 45
        E 2 e0 00 46
        E 2 e0 00 47
        E 1 e0 00 48
        E 2 e0 00 49
        E 2 e0 00 4a
        E 1 e0 00 4b
        E 2 e0 00 4c
        E 2 e0 00 4d
        E 1 e0 00 4e
        E 2 e0 00 4f
        E 2 e0 00 50
        E 1 e0 00 51
        E 2 e0 00 52
        E 2 e0 00 53
        E 1 e0 00 54
        E 2 e0 00 55
        E 2 e0 00 56
        E 1 e0 00 57
        E 2 e0 00 58
        E 2 e0 00 59
        E 1 e0 00 5a
        E 2 e0 00 5b
        E 2 e0 00 5c
        E 1 e0 00 5d
        E 2 e0 00 5e
        E 2 e0 00 5f
        E 1 e0 00 60
        E 2 e0 00 61
        E 2 e0 00 62
        E 1 e0 00 63
        E 2 e0 00 64
        E 2 e0 00 65
        E 0 90 1d 00
        E 0 90 20 7f
        E 1 e0 00 66
        E 2 e0 00 67
        E 2 e0 00 68
        E 1 e0 00 54
        E 2 e0 00 40
        E 52 90 20 00
        E 0 90 20 7f
        E 30 90 20 00
        E 0 90 1b 7f
        E 90 90 1b 00
        E 0 90 1b 7f
        E 30 90 1b 00
        E 0 90 1b 7f
        E 30 90 1b 00
        E 0 90 1b 7f
        E 30 90 1b 00
        E 0 90 1b 7f
        E 30 90 1b 00
        E 0 90 1b 7f
        E 30 90 1b 00
        E 0 90 22 7f
        E 90 90 22 00
        E 0 90 22 7f
        E 30 90 22 00
        E 0 90 22 7f
        E 30 90 22 00
        E 0 90 22 7f
        E 30 90 22 00
        E 0 90 22 7f
        E 30 90 22 00
        E 0 90 22 7f
        E 30 90 22 00
        E 0 90 1d 7f
        E 60 90 1d 00
        E 0 90 1d 7f
        E 60 90 1d 00
        E 90 90 1d 7f
        E 30 90 1d 00
        E 0 90 1d 7f
        E 60 90 1d 00
        E 0 90 1d 7f
        E 26 e0 00 40
        E 4 e0 00 41
        E 1 e0 00 42
        E 2 e0 00 43
        E 2 e0 00 44
        E 1 e0 00 45
        E 2 e0 00 46
        E 2 e0 00 47
        E 1 e0 00 48
        E 2 e0 00 49
        E 2 e0 00 4a
        E 1 e0 00 4b
        E 2 e0 00 4c
        E 2 e0 00 4d
        E 1 e0 00 4e
        E 2 e0 00 4f
        E 2 e0 00 50
        E 1 e0 00 51
        E 2 e0 00 52
        E 2 e0 00 53
        E 1 e0 00 54
        E 2 e0 00 55
        E 2 e0 00 56
        E 1 e0 00 57
        E 2 e0 00 58
        E 2 e0 00 59
        E 1 e0 00 5a
        E 2 e0 00 5b
        E 2 e0 00 5c
        E 1 e0 00 5d
        E 2 e0 00 5e
        E 2 e0 00 5f
        E 1 e0 00 60
        E 2 e0 00 61
        E 2 e0 00 62
        E 1 e0 00 63
        E 2 e0 00 64
        E 2 e0 00 65
        E 0 90 1d 00
        E 0 90 20 7f
        E 1 e0 00 66
        E 2 e0 00 67
        E 2 e0 00 68
        E 1 e0 00 54
        E 2 e0 00 40
        E 52 90 20 00
        E 0 90 20 7f
        E 30 90 20 00
        E 0 90 1d 7f
        E 60 90 1d 00
        E 0 90 1d 7f
        E 60 90 1d 00
        E 90 90 1d 7f
        E 30 90 1d 00
        E 0 90 1d 7f
        E 60 90 1d 00
        E 0 90 1d 7f
        E 26 e0 00 40
        E 4 e0 00 41
        E 1 e0 00 42
        E 2 e0 00 43
        E 2 e0 00 44
        E 1 e0 00 45
        E 2 e0 00 46
        E 2 e0 00 47
        E 1 e0 00 48
        E 2 e0 00 49
        E 2 e0 00 4a
        E 1 e0 00 4b
        E 2 e0 00 4c
        E 2 e0 00 4d
        E 1 e0 00 4e
        E 2 e0 00 4f
        E 2 e0 00 50
        E 1 e0 00 51
        E 2 e0 00 52
        E 2 e0 00 53
        E 1 e0 00 54
        E 2 e0 00 55
        E 2 e0 00 56
        E 1 e0 00 57
        E 2 e0 00 58
        E 2 e0 00 59
        E 1 e0 00 5a
        E 2 e0 00 5b
        E 2 e0 00 5c
        E 1 e0 00 5d
        E 2 e0 00 5e
        E 2 e0 00 5f
        E 1 e0 00 60
        E 2 e0 00 61
        E 2 e0 00 62
        E 1 e0 00 63
        E 2 e0 00 64
        E 2 e0 00 65
        E 0 90 1d 00
        E 0 90 20 7f
        E 1 e0 00 66
        E 2 e0 00 67
        E 2 e0 00 68
        E 1 e0 00 54
        E 2 e0 00 40
        E 52 90 20 00
        E 0 90 20 7f
        E 30 90 20 00
        E 0 90 1d 7f
        E 60 90 1d 00
        E 0 90 1d 7f
        E 60 90 1d 00
        E 90 90 1d 7f
        E 30 90 1d 00
        E 0 90 1d 7f
        E 60 90 1d 00
        E 0 90 1d 7f
        E 26 e0 00 40
        E 4 e0 00 41
        E 1 e0 00 42
        E 2 e0 00 43
        E 2 e0 00 44
        E 1 e0 00 45
        E 2 e0 00 46
        E 2 e0 00 47
        E 1 e0 00 48
        E 2 e0 00 49
        E 2 e0 00 4a
        E 1 e0 00 4b
        E 2 e0 00 4c
        E 2 e0 00 4d
        E 1 e0 00 4e
        E 2 e0 00 4f
        E 2 e0 00 50
        E 1 e0 00 51
        E 2 e0 00 52
        E 2 e0 00 53
        E 1 e0 00 54
        E 2 e0 00 55
        E 2 e0 00 56
        E 1 e0 00 57
        E 2 e0 00 58
        E 2 e0 00 59
        E 1 e0 00 5a
        E 2 e0 00 5b
        E 2 e0 00 5c
        E 1 e0 00 5d
        E 2 e0 00 5e
        E 2 e0 00 5f
        E 1 e0 00 60
        E 2 e0 00 61
        E 2 e0 00 62
        E 1 e0 00 63
        E 2 e0 00 64
        E 2 e0 00 65
        E 0 90 1d 00
        E 0 90 20 7f
        E 1 e0 00 66
        E 2 e0 00 67
        E 2 e0 00 68
        E 1 e0 00 54
        E 2 e0 00 40
        E 52 90 20 00
        E 0 90 20 7f
        E 30 90 20 00
        E 0 90 1d 7f
        E 60 90 1d 00
        E 0 90 1d 7f
        E 266 e0 00 40
        E 4 e0 00 41
        E 1 e0 00 42
        E 2 e0 00 43
        E 2 e0 00 44
        E 1 e0 00 45
        E 2 e0 00 46
        E 2 e0 00 47
        E 1 e0 00 48
        E 2 e0 00 49
        E 2 e0 00 4a
        E 1 e0 00 4b
        E 2 e0 00 4c
        E 2 e0 00 4d
        E 1 e0 00 4e
        E 2 e0 00 4f
        E 2 e0 00 50
        E 1 e0 00 51
        E 2 e0 00 52
        E 2 e0 00 53
        E 1 e0 00 54
        E 2 e0 00 55
        E 2 e0 00 56
        E 1 e0 00 57
        E 2 e0 00 58
        E 2 e0 00 59
        E 1 e0 00 5a
        E 2 e0 00 5b
        E 2 e0 00 5c
        E 1 e0 00 5d
        E 2 e0 00 5e
        E 2 e0 00 5f
        E 1 e0 00 60
        E 2 e0 00 61
        E 2 e0 00 62
        E 1 e0 00 63
        E 2 e0 00 64
        E 2 e0 00 65
        E 1 e0 00 66
        E 2 e0 00 67
        E 2 e0 00 68
        E 1 e0 00 54
        E 2 e0 00 40
        E 81 90 1d 00
        E 1 b0 7b 00
        GUID {509C0B05-0755-4E24-9E57-697363B247C1}
        IGNTEMPO 0 120.00000000 4 4
        SRCCOLOR 1218
        VELLANE -1 111 0
      >
    >
  >
  <TRACK '{1DDEDF79-8669-4DD8-B7B2-83EC78249E12}'
    NAME "Overdrive Guitar - AvaAdore.midi"
    PEAKCOL 16576
    BEAT -1
    AUTOMODE 0
    VOLPAN 1.00000000000000 0.00000000000000 -1.00000000000000 -1.00000000000000 1.00000000000000
    MUTESOLO 1 0 0
    IPHASE 0
    ISBUS 0 0
    BUSCOMP 0 0
    SHOWINMIX 1 0.666700 0.500000 1 0.500000 0 -1 0
    FREEMODE 0
    SEL 1
    REC 0 0 0 0 0 0 0
    VU 2
    TRACKHEIGHT 0 0
    INQ 0 0 0 0.5000000000 100 0 0 100
    NCHAN 2
    FX 1
    TRACKID {1DDEDF79-8669-4DD8-B7B2-83EC78249E12}
    PERF 0
    MIDIOUT 0
    MAINSEND 1 0
    <ITEM
      POSITION 0.00000000000000
      SNAPOFFS 0.00000000000000
      LENGTH 260.84037200000000
      LOOP 1
      ALLTAKES 0
      SEL 1
      FADEIN 1 0.000000 0.000000 1 0 0.000000
      FADEOUT 1 0.000000 0.000000 1 0 0.000000
      MUTE 0
      IGUID {AAC573C1-907E-43C4-AC70-842E55212F8F}
      IID 2
      NAME "Overdrive Guitar - AvaAdore.midi.mid"
      VOLPAN 1.000000 0.000000 1.000000 -1.000000
      SOFFS 0.00000000000000 0.00000000000000
      PLAYRATE 1.00000000000000 1 0.00000000000000 -1 0 0.002500
      CHANMODE 0
      GUID {34C5B2B9-A1B7-4EF4-B809-E6701DFCF57E}
      <SOURCE MIDI
        HASDATA 1 120 QN
        POOLEDEVTS {D7AE7596-F7B9-4064-B755-4CD32C90E6EB}
        <X 0 0
          /wNBdmEgQWRvcmU=
        >
        <X 0 0
          /wNNaXh0dXJlIG9mIFN0dWRpbyBhbmQgTGl2ZSBWZXJzaW9u
        >
        <X 0 0
          /wNPdmVyZHJpdmUgR3VpdGFy
        >
        <X 0 0
          /wFUaGlzIE1pZGkgZmlsZSBoYXMgYmVlbiBvcHRpbWlzZWQgZm9yIA==
          WEcgU3ludGhlc2lzZXJzLgo=
        >
        <X 0 0
          /wFDaGFubmVsIDEwIGFuZCAxMSBoYXZlIHRvIG1hZGUgdG8gYmUgZA==
          cnVtIGNoYW5uZWxzLgo=
        >
        <X 0 0
          /wFDaGFubmVsIDEwIGJlaW5nIGEgU3RhbmRhcmQgRHJ1bSBLaXQK
        >
        <X 0 0
          /wFDaGFubmVsIDExIGJlaW5nIGEgUm9jayBLaXQgKEJldHRlciBCYQ==
          c3MgRHJ1bSkK
        >
        E 0 b1 00 00
        E 0 b1 20 00
        E 0 c1 1d 00
        E 0 b1 07 78
        E 2400 91 30 64
        E 0 91 29 64
        E 60 91 29 00
        E 0 91 30 00
        E 0 91 30 64
        E 0 91 29 64
        E 60 91 29 00
        E 0 91 30 00
        E 0 91 30 64
        E 0 91 29 64
        E 5 91 29 00
        E 0 91 30 00
        E 25 91 30 64
        E 0 91 29 64
        E 5 91 29 00
        E 0 91 30 00
        E 25 91 30 64
        E 0 91 29 64
        E 5 91 29 00
        E 0 91 30 00
        E 25 91 30 64
        E 0 91 29 64
        E 30 91 29 00
        E 0 91 30 00
        E 0 91 30 64
        E 0 91 29 64
        E 60 91 29 00
        E 0 91 30 00
        E 0 91 30 64
        E 0 91 29 64
        E 26 e1 00 40
        E 4 e1 00 41
        E 1 e1 00 42
        E 2 e1 00 43
        E 2 e1 00 44
        E 1 e1 00 45
        E 2 e1 00 46
        E 2 e1 00 47
        E 1 e1 00 48
        E 2 e1 00 49
        E 2 e1 00 4a
        E 1 e1 00 4b
        E 2 e1 00 4c
        E 2 e1 00 4d
        E 1 e1 00 4e
        E 2 e1 00 4f
        E 2 e1 00 50
        E 1 e1 00 51
        E 2 e1 00 52
        E 2 e1 00 53
        E 1 e1 00 54
        E 2 e1 00 55
        E 2 e1 00 56
        E 1 e1 00 57
        E 2 e1 00 58
        E 2 e1 00 59
        E 1 e1 00 5a
        E 2 e1 00 5b
        E 2 e1 00 5c
        E 1 e1 00 5d
        E 2 e1 00 5e
        E 2 e1 00 5f
        E 1 e1 00 60
        E 2 e1 00 61
        E 2 e1 00 62
        E 1 e1 00 63
        E 2 e1 00 64
        E 2 e1 00 65
        E 0 91 29 00
        E 0 91 30 00
        E 0 91 33 64
        E 0 91 2c 64
        E 1 e1 00 66
        E 2 e1 00 67
        E 2 e1 00 68
        E 1 e1 00 54
        E 2 e1 00 40
        E 52 91 2c 00
        E 0 91 33 00
        E 0 91 33 64
        E 0 91 2c 64
        E 30 91 2c 00
        E 0 91 33 00
        E 0 91 30 64
        E 0 91 29 64
        E 60 91 29 00
        E 0 91 30 00
        E 0 91 30 64
        E 0 91 29 64
        E 60 91 29 00
        E 0 91 30 00
        E 0 91 30 64
        E 0 91 29 64
        E 1 91 29 00
        E 0 91 30 00
        E 29 91 30 64
        E 0 91 29 64
        E 1 91 29 00
        E 0 91 30 00
        E 29 91 30 64
        E 0 91 29 64
        E 1 91 29 00
        E 0 91 30 00
        E 29 91 30 64
        E 0 91 29 64
        E 30 91 29 00
        E 0 91 30 00
        E 0 91 30 64
        E 0 91 29 64
        E 60 91 29 00
        E 0 91 30 00
        E 0 91 30 64
        E 0 91 29 64
        E 26 e1 00 40
        E 4 e1 00 41
        E 1 e1 00 42
        E 2 e1 00 43
        E 2 e1 00 44
        E 1 e1 00 45
        E 2 e1 00 46
        E 2 e1 00 47
        E 1 e1 00 48
        E 2 e1 00 49
        E 2 e1 00 4a
        E 1 e1 00 4b
        E 2 e1 00 4c
        E 2 e1 00 4d
        E 1 e1 00 4e
        E 2 e1 00 4f
        E 2 e1 00 50
        E 1 e1 00 51
        E 2 e1 00 52
        E 2 e1 00 53
        E 1 e1 00 54
        E 2 e1 00 55
        E 2 e1 00 56
        E 1 e1 00 57
        E 2 e1 00 58
        E 2 e1 00 59
        E 1 e1 00 5a
        E 2 e1 00 5b
        E 2 e1 00 5c
        E 1 e1 00 5d
        E 2 e1 00 5e
        E 2 e1 00 5f
        E 1 e1 00 60
        E 2 e1 00 61
        E 2 e1 00 62
        E 1 e1 00 63
        E 2 e1 00 64
        E 2 e1 00 65
        E 0 91 29 00
        E 0 91 30 00
        E 0 91 33 64
        E 0 91 2c 64
        E 1 e1 00 66
        E 2 e1 00 67
        E 2 e1 00 68
        E 1 e1 00 54
        E 2 e1 00 40
        E 52 91 2c 00
        E 0 91 33 00
        E 0 91 33 64
        E 0 91 2c 64
        E 30 91 2c 00
        E 0 91 33 00
        E 0 91 30 64
        E 0 91 29 64
        E 60 91 29 00
        E 0 91 30 00
        E 0 91 30 64
        E 0 91 29 64
        E 60 91 29 00
        E 0 91 30 00
        E 0 91 30 64
        E 0 91 29 64
        E 1 91 29 00
        E 0 91 30 00
        E 29 91 30 64
        E 0 91 29 64
        E 1 91 29 00
        E 0 91 30 00
        E 29 91 30 64
        E 0 91 29 64
        E 1 91 29 00
        E 0 91 30 00
        E 29 91 30 64
        E 0 91 29 64
        E 30 91 29 00
        E 0 91 30 00
        E 0 91 30 64
        E 0 91 29 64
        E 60 91 29 00
        E 0 91 30 00
        E 0 91 30 64
        E 0 91 29 64
        E 26 e1 00 40
        E 4 e1 00 41
        E 1 e1 00 42
        E 2 e1 00 43
        E 2 e1 00 44
        E 1 e1 00 45
        E 2 e1 00 46
        E 2 e1 00 47
        E 1 e1 00 48
        E 2 e1 00 49
        E 2 e1 00 4a
        E 1 e1 00 4b
        E 2 e1 00 4c
        E 2 e1 00 4d
        E 1 e1 00 4e
        E 2 e1 00 4f
        E 2 e1 00 50
        E 1 e1 00 51
        E 2 e1 00 52
        E 2 e1 00 53
        E 1 e1 00 54
        E 2 e1 00 55
        E 2 e1 00 56
        E 1 e1 00 57
        E 2 e1 00 58
        E 2 e1 00 59
        E 1 e1 00 5a
        E 2 e1 00 5b
        E 2 e1 00 5c
        E 1 e1 00 5d
        E 2 e1 00 5e
        E 2 e1 00 5f
        E 1 e1 00 60
        E 2 e1 00 61
        E 2 e1 00 62
        E 1 e1 00 63
        E 2 e1 00 64
        E 2 e1 00 65
        E 0 91 29 00
        E 0 91 30 00
        E 0 91 33 64
        E 0 91 2c 64
        E 1 e1 00 66
        E 2 e1 00 67
        E 2 e1 00 68
        E 1 e1 00 54
        E 2 e1 00 40
        E 52 91 2c 00
        E 0 91 33 00
        E 0 91 33 64
        E 0 91 2c 64
        E 30 91 2c 00
        E 0 91 33 00
        E 0 91 30 64
        E 0 91 29 64
        E 60 91 29 00
        E 0 91 30 00
        E 0 91 30 64
        E 0 91 29 64
        E 60 91 29 00
        E 0 91 30 00
        E 0 91 30 64
        E 0 91 29 64
        E 1 91 29 00
        E 0 91 30 00
        E 29 91 30 64
        E 0 91 29 64
        E 1 91 29 00
        E 0 91 30 00
        E 29 91 30 64
        E 0 91 29 64
        E 1 91 29 00
        E 0 91 30 00
        E 29 91 30 64
        E 0 91 29 64
        E 30 91 29 00
        E 0 91 30 00
        E 0 91 30 64
        E 0 91 29 64
        E 60 91 29 00
        E 0 91 30 00
        E 0 91 30 64
        E 0 91 29 64
        E 26 e1 00 40
        E 4 e1 00 41
        E 1 e1 00 42
        E 2 e1 00 43
        E 2 e1 00 44
        E 1 e1 00 45
        E 2 e1 00 46
        E 2 e1 00 47
        E 1 e1 00 48
        E 2 e1 00 49
        E 2 e1 00 4a
        E 1 e1 00 4b
        E 2 e1 00 4c
        E 2 e1 00 4d
        E 1 e1 00 4e
        E 2 e1 00 4f
        E 2 e1 00 50
        E 1 e1 00 51
        E 2 e1 00 52
        E 2 e1 00 53
        E 1 e1 00 54
        E 2 e1 00 55
        E 2 e1 00 56
        E 1 e1 00 57
        E 2 e1 00 58
        E 2 e1 00 59
        E 1 e1 00 5a
        E 2 e1 00 5b
        E 2 e1 00 5c
        E 1 e1 00 5d
        E 2 e1 00 5e
        E 2 e1 00 5f
        E 1 e1 00 60
        E 2 e1 00 61
        E 2 e1 00 62
        E 1 e1 00 63
        E 2 e1 00 64
        E 2 e1 00 65
        E 0 91 29 00
        E 0 91 30 00
        E 0 91 33 64
        E 0 91 2c 64
        E 1 e1 00 66
        E 2 e1 00 67
        E 2 e1 00 68
        E 1 e1 00 54
        E 2 e1 00 40
        E 52 91 2c 00
        E 0 91 33 00
        E 0 91 33 64
        E 0 91 2c 64
        E 30 91 2c 00
        E 0 91 33 00
        E 0 91 30 64
        E 0 91 29 64
        E 60 91 29 00
        E 0 91 30 00
        E 0 91 30 64
        E 0 91 29 64
        E 60 91 29 00
        E 0 91 30 00
        E 0 91 30 64
        E 0 91 29 64
        E 1 91 29 00
        E 0 91 30 00
        E 29 91 30 64
        E 0 91 29 64
        E 1 91 29 00
        E 0 91 30 00
        E 29 91 30 64
        E 0 91 29 64
        E 1 91 29 00
        E 0 91 30 00
        E 29 91 30 64
        E 0 91 29 64
        E 30 91 29 00
        E 0 91 30 00
        E 0 91 30 64
        E 0 91 29 64
        E 60 91 29 00
        E 0 91 30 00
        E 0 91 30 64
        E 0 91 29 64
        E 26 e1 00 40
        E 4 e1 00 41
        E 1 e1 00 42
        E 2 e1 00 43
        E 2 e1 00 44
        E 1 e1 00 45
        E 2 e1 00 46
        E 2 e1 00 47
        E 1 e1 00 48
        E 2 e1 00 49
        E 2 e1 00 4a
        E 1 e1 00 4b
        E 2 e1 00 4c
        E 2 e1 00 4d
        E 1 e1 00 4e
        E 2 e1 00 4f
        E 2 e1 00 50
        E 1 e1 00 51
        E 2 e1 00 52
        E 2 e1 00 53
        E 1 e1 00 54
        E 2 e1 00 55
        E 2 e1 00 56
        E 1 e1 00 57
        E 2 e1 00 58
        E 2 e1 00 59
        E 1 e1 00 5a
        E 2 e1 00 5b
        E 2 e1 00 5c
        E 1 e1 00 5d
        E 2 e1 00 5e
        E 2 e1 00 5f
        E 1 e1 00 60
        E 2 e1 00 61
        E 2 e1 00 62
        E 1 e1 00 63
        E 2 e1 00 64
        E 2 e1 00 65
        E 0 91 29 00
        E 0 91 30 00
        E 0 91 33 64
        E 0 91 2c 64
        E 1 e1 00 66
        E 2 e1 00 67
        E 2 e1 00 68
        E 1 e1 00 54
        E 2 e1 00 40
        E 52 91 2c 00
        E 0 91 33 00
        E 0 91 33 64
        E 0 91 2c 64
        E 30 91 2c 00
        E 0 91 33 00
        E 0 91 30 64
        E 0 91 29 64
        E 60 91 29 00
        E 0 91 30 00
        E 0 91 30 64
        E 0 91 29 64
        E 60 91 29 00
        E 0 91 30 00
        E 0 91 30 64
        E 0 91 29 64
        E 1 91 29 00
        E 0 91 30 00
        E 29 91 30 64
        E 0 91 29 64
        E 1 91 29 00
        E 0 91 30 00
        E 29 91 30 64
        E 0 91 29 64
        E 1 91 29 00
        E 0 91 30 00
        E 29 91 30 64
        E 0 91 29 64
        E 30 91 29 00
        E 0 91 30 00
        E 0 91 30 64
        E 0 91 29 64
        E 60 91 29 00
        E 0 91 30 00
        E 0 91 30 64
        E 0 91 29 64
        E 26 e1 00 40
        E 4 e1 00 41
        E 1 e1 00 42
        E 2 e1 00 43
        E 2 e1 00 44
        E 1 e1 00 45
        E 2 e1 00 46
        E 2 e1 00 47
        E 1 e1 00 48
        E 2 e1 00 49
        E 2 e1 00 4a
        E 1 e1 00 4b
        E 2 e1 00 4c
        E 2 e1 00 4d
        E 1 e1 00 4e
        E 2 e1 00 4f
        E 2 e1 00 50
        E 1 e1 00 51
        E 2 e1 00 52
        E 2 e1 00 53
        E 1 e1 00 54
        E 2 e1 00 55
        E 2 e1 00 56
        E 1 e1 00 57
        E 2 e1 00 58
        E 2 e1 00 59
        E 1 e1 00 5a
        E 2 e1 00 5b
        E 2 e1 00 5c
        E 1 e1 00 5d
        E 2 e1 00 5e
        E 2 e1 00 5f
        E 1 e1 00 60
        E 2 e1 00 61
        E 2 e1 00 62
        E 1 e1 00 63
        E 2 e1 00 64
        E 2 e1 00 65
        E 0 91 29 00
        E 0 91 30 00
        E 0 91 33 64
        E 0 91 2c 64
        E 1 e1 00 66
        E 2 e1 00 67
        E 2 e1 00 68
        E 1 e1 00 54
        E 2 e1 00 40
        E 52 91 2c 00
        E 0 91 33 00
        E 0 91 33 64
        E 0 91 2c 64
        E 30 91 2c 00
        E 0 91 33 00
        E 0 91 30 64
        E 0 91 29 64
        E 60 91 29 00
        E 0 91 30 00
        E 0 91 30 64
        E 0 91 29 64
        E 60 91 29 00
        E 0 91 30 00
        E 0 91 29 64
        E 0 91 30 64
        E 1 91 30 00
        E 0 91 29 00
        E 29 91 29 64
        E 0 91 30 64
        E 1 91 30 00
        E 0 91 29 00
        E 29 91 29 64
        E 0 91 30 64
        E 1 91 30 00
        E 0 91 29 00
        E 29 91 30 64
        E 0 91 29 64
        E 30 91 29 00
        E 0 91 30 00
        E 0 91 30 64
        E 0 91 29 64
        E 60 91 29 00
        E 0 91 30 00
        E 0 91 30 64
        E 0 91 29 64
        E 26 e1 00 40
        E 4 e1 00 41
        E 1 e1 00 42
        E 2 e1 00 43
        E 2 e1 00 44
        E 1 e1 00 45
        E 2 e1 00 46
        E 2 e1 00 47
        E 1 e1 00 48
        E 2 e1 00 49
        E 2 e1 00 4a
        E 1 e1 00 4b
        E 2 e1 00 4c
        E 2 e1 00 4d
        E 1 e1 00 4e
        E 2 e1 00 4f
        E 2 e1 00 50
        E 1 e1 00 51
        E 2 e1 00 52
        E 2 e1 00 53
        E 1 e1 00 54
        E 2 e1 00 55
        E 2 e1 00 56
        E 1 e1 00 57
        E 2 e1 00 58
        E 2 e1 00 59
        E 1 e1 00 5a
        E 2 e1 00 5b
        E 2 e1 00 5c
        E 1 e1 00 5d
        E 2 e1 00 5e
        E 2 e1 00 5f
        E 1 e1 00 60
        E 2 e1 00 61
        E 2 e1 00 62
        E 1 e1 00 63
        E 2 e1 00 64
        E 2 e1 00 65
        E 0 91 29 00
        E 0 91 30 00
        E 0 91 33 64
        E 0 91 2c 64
        E 1 e1 00 66
        E 2 e1 00 67
        E 2 e1 00 68
        E 1 e1 00 54
        E 2 e1 00 40
        E 52 91 2c 00
        E 0 91 33 00
        E 0 91 33 64
        E 0 91 2c 64
        E 30 91 2c 00
        E 0 91 33 00
        E 0 91 30 64
        E 0 91 29 64
        E 60 91 29 00
        E 0 91 30 00
        E 0 91 30 64
        E 0 91 29 64
        E 60 91 29 00
        E 0 91 30 00
        E 0 91 30 64
        E 0 91 29 64
        E 1 91 29 00
        E 0 91 30 00
        E 29 91 30 64
        E 0 91 29 64
        E 1 91 29 00
        E 0 91 30 00
        E 29 91 30 64
        E 0 91 29 64
        E 1 91 29 00
        E 0 91 30 00
        E 29 91 30 64
        E 0 91 29 64
        E 30 91 29 00
        E 0 91 30 00
        E 0 91 30 64
        E 0 91 29 64
        E 60 91 29 00
        E 0 91 30 00
        E 0 91 30 64
        E 0 91 29 64
        E 26 e1 00 40
        E 4 e1 00 41
        E 1 e1 00 42
        E 2 e1 00 43
        E 2 e1 00 44
        E 1 e1 00 45
        E 2 e1 00 46
        E 2 e1 00 47
        E 1 e1 00 48
        E 2 e1 00 49
        E 2 e1 00 4a
        E 1 e1 00 4b
        E 2 e1 00 4c
        E 2 e1 00 4d
        E 1 e1 00 4e
        E 2 e1 00 4f
        E 2 e1 00 50
        E 1 e1 00 51
        E 2 e1 00 52
        E 2 e1 00 53
        E 1 e1 00 54
        E 2 e1 00 55
        E 2 e1 00 56
        E 1 e1 00 57
        E 2 e1 00 58
        E 2 e1 00 59
        E 1 e1 00 5a
        E 2 e1 00 5b
        E 2 e1 00 5c
        E 1 e1 00 5d
        E 2 e1 00 5e
        E 2 e1 00 5f
        E 1 e1 00 60
        E 2 e1 00 61
        E 2 e1 00 62
        E 1 e1 00 63
        E 2 e1 00 64
        E 2 e1 00 65
        E 0 91 29 00
        E 0 91 30 00
        E 0 91 33 64
        E 0 91 2c 64
        E 1 e1 00 66
        E 2 e1 00 67
        E 2 e1 00 68
        E 1 e1 00 54
        E 2 e1 00 40
        E 52 91 2c 00
        E 0 91 33 00
        E 0 91 33 64
        E 0 91 2c 64
        E 30 91 2c 00
        E 0 91 33 00
        E 2880 91 2e 64
        E 0 91 27 64
        E 90 91 27 00
        E 0 91 2e 00
        E 0 91 2e 64
        E 0 91 27 64
        E 30 91 27 00
        E 0 91 2e 00
        E 0 91 2e 64
        E 0 91 27 64
        E 30 91 27 00
        E 0 91 2e 00
        E 0 91 2e 64
        E 0 91 27 64
        E 30 91 27 00
        E 0 91 2e 00
        E 0 91 2e 64
        E 0 91 27 64
        E 30 91 27 00
        E 0 91 2e 00
        E 0 91 2e 64
        E 0 91 27 64
        E 30 91 27 00
        E 0 91 2e 00
        E 0 91 35 64
        E 0 91 2e 64
        E 90 91 2e 00
        E 0 91 35 00
        E 0 91 35 64
        E 0 91 2e 64
        E 30 91 2e 00
        E 0 91 35 00
        E 0 91 35 64
        E 0 91 2e 64
        E 30 91 2e 00
        E 0 91 35 00
        E 0 91 35 64
        E 0 91 2e 64
        E 30 91 2e 00
        E 0 91 35 00
        E 0 91 35 64
        E 0 91 2e 64
        E 30 91 2e 00
        E 0 91 35 00
        E 0 91 35 64
        E 0 91 2e 64
        E 30 91 2e 00
        E 0 91 35 00
        E 0 91 30 64
        E 0 91 29 64
        E 60 91 29 00
        E 0 91 30 00
        E 0 91 30 64
        E 0 91 29 64
        E 60 91 29 00
        E 0 91 30 00
        E 0 91 30 64
        E 0 91 29 64
        E 1 91 29 00
        E 0 91 30 00
        E 29 91 30 64
        E 0 91 29 64
        E 1 91 29 00
        E 0 91 30 00
        E 29 91 30 64
        E 0 91 29 64
        E 1 91 29 00
        E 0 91 30 00
        E 29 91 30 64
        E 0 91 29 64
        E 30 91 29 00
        E 0 91 30 00
        E 0 91 30 64
        E 0 91 29 64
        E 60 91 29 00
        E 0 91 30 00
        E 0 91 30 64
        E 0 91 29 64
        E 26 e1 00 40
        E 4 e1 00 41
        E 1 e1 00 42
        E 2 e1 00 43
        E 2 e1 00 44
        E 1 e1 00 45
        E 2 e1 00 46
        E 2 e1 00 47
        E 1 e1 00 48
        E 2 e1 00 49
        E 2 e1 00 4a
        E 1 e1 00 4b
        E 2 e1 00 4c
        E 2 e1 00 4d
        E 1 e1 00 4e
        E 2 e1 00 4f
        E 2 e1 00 50
        E 1 e1 00 51
        E 2 e1 00 52
        E 2 e1 00 53
        E 1 e1 00 54
        E 2 e1 00 55
        E 2 e1 00 56
        E 1 e1 00 57
        E 2 e1 00 58
        E 2 e1 00 59
        E 1 e1 00 5a
        E 2 e1 00 5b
        E 2 e1 00 5c
        E 1 e1 00 5d
        E 2 e1 00 5e
        E 2 e1 00 5f
        E 1 e1 00 60
        E 2 e1 00 61
        E 2 e1 00 62
        E 1 e1 00 63
        E 2 e1 00 64
        E 2 e1 00 65
        E 0 91 29 00
        E 0 91 30 00
        E 0 91 33 64
        E 0 91 2c 64
        E 1 e1 00 66
        E 2 e1 00 67
        E 2 e1 00 68
        E 1 e1 00 54
        E 2 e1 00 40
        E 52 91 2c 00
        E 0 91 33 00
        E 0 91 33 64
        E 0 91 2c 64
        E 30 91 2c 00
        E 0 91 33 00
        E 0 91 2e 64
        E 0 91 27 64
        E 90 91 27 00
        E 0 91 2e 00
        E 0 91 2e 64
        E 0 91 27 64
        E 30 91 27 00
        E 0 91 2e 00
        E 0 91 2e 64
        E 0 91 27 64
        E 30 91 27 00
        E 0 91 2e 00
        E 0 91 2e 64
        E 0 91 27 64
        E 30 91 27 00
        E 0 91 2e 00
        E 0 91 2e 64
        E 0 91 27 64
        E 30 91 27 00
        E 0 91 2e 00
        E 0 91 2e 64
        E 0 91 27 64
        E 30 91 27 00
        E 0 91 2e 00
        E 0 91 35 64
        E 0 91 2e 64
        E 90 91 2e 00
        E 0 91 35 00
        E 0 91 35 64
        E 0 91 2e 64
        E 30 91 2e 00
        E 0 91 35 00
        E 0 91 35 64
        E 0 91 2e 64
        E 30 91 2e 00
        E 0 91 35 00
        E 0 91 35 64
        E 0 91 2e 64
        E 30 91 2e 00
        E 0 91 35 00
        E 0 91 35 64
        E 0 91 2e 64
        E 30 91 2e 00
        E 0 91 35 00
        E 0 91 35 64
        E 0 91 2e 64
        E 30 91 2e 00
        E 0 91 35 00
        E 0 91 33 64
        E 0 91 2c 64
        E 60 91 2c 00
        E 0 91 33 00
        E 0 91 33 64
        E 0 91 2c 64
        E 60 91 2c 00
        E 0 91 33 00
        E 0 91 33 64
        E 0 91 2c 64
        E 90 91 2c 00
        E 0 91 33 00
        E 0 91 33 64
        E 0 91 2c 64
        E 30 91 2c 00
        E 0 91 33 00
        E 0 91 33 64
        E 0 91 2c 64
        E 90 91 2c 00
        E 0 91 33 00
        E 0 91 33 64
        E 0 91 2c 64
        E 30 91 2c 00
        E 0 91 33 00
        E 0 91 33 64
        E 0 91 2c 64
        E 60 91 2c 00
        E 0 91 33 00
        E 0 91 33 64
        E 0 91 2c 64
        E 30 91 2c 00
        E 0 91 33 00
        E 0 91 33 64
        E 0 91 2c 64
        E 30 91 2c 00
        E 0 91 33 00
        E 0 91 37 64
        E 0 91 30 64
        E 60 91 30 00
        E 0 91 37 00
        E 0 91 37 64
        E 0 91 30 64
        E 60 91 30 00
        E 0 91 37 00
        E 0 91 37 64
        E 0 91 30 64
        E 90 91 30 00
        E 0 91 37 00
        E 0 91 37 64
        E 0 91 30 64
        E 30 91 30 00
        E 0 91 37 00
        E 0 91 37 64
        E 0 91 30 64
        E 90 91 30 00
        E 0 91 37 00
        E 0 91 37 64
        E 0 91 30 64
        E 30 91 30 00
        E 0 91 37 00
        E 0 91 37 64
        E 0 91 30 64
        E 60 91 30 00
        E 0 91 37 00
        E 0 91 37 64
        E 0 91 30 64
        E 30 91 30 00
        E 0 91 37 00
        E 0 91 37 64
        E 0 91 30 64
        E 30 91 30 00
        E 0 91 37 00
        E 0 91 38 64
        E 0 91 31 64
        E 60 91 31 00
        E 0 91 38 00
        E 0 91 38 64
        E 0 91 31 64
        E 60 91 31 00
        E 0 91 38 00
        E 0 91 38 64
        E 0 91 31 64
        E 90 91 31 00
        E 0 91 38 00
        E 0 91 38 64
        E 0 91 31 64
        E 30 91 31 00
        E 0 91 38 00
        E 0 91 35 64
        E 0 91 2e 64
        E 90 91 2e 00
        E 0 91 35 00
        E 0 91 35 64
        E 0 91 2e 64
        E 30 91 2e 00
        E 0 91 35 00
        E 0 91 35 64
        E 0 91 2e 64
        E 60 91 2e 00
        E 0 91 35 00
        E 0 91 35 64
        E 0 91 2e 64
        E 30 91 2e 00
        E 0 91 35 00
        E 0 91 35 64
        E 0 91 2e 64
        E 30 91 2e 00
        E 0 91 35 00
        E 0 91 33 64
        E 0 91 2c 64
        E 60 91 2c 00
        E 0 91 33 00
        E 0 91 33 64
        E 0 91 2c 64
        E 60 91 2c 00
        E 0 91 33 00
        E 0 91 33 64
        E 0 91 2c 64
        E 90 91 2c 00
        E 0 91 33 00
        E 0 91 33 64
        E 0 91 2c 64
        E 30 91 2c 00
        E 0 91 33 00
        E 0 91 33 64
        E 0 91 2c 64
        E 90 91 2c 00
        E 0 91 33 00
        E 0 91 33 64
        E 0 91 2c 64
        E 30 91 2c 00
        E 0 91 33 00
        E 0 91 33 64
        E 0 91 2c 64
        E 60 91 2c 00
        E 0 91 33 00
        E 0 91 33 64
        E 0 91 2c 64
        E 30 91 2c 00
        E 0 91 33 00
        E 0 91 33 64
        E 0 91 2c 64
        E 30 91 2c 00
        E 0 91 33 00
        E 0 91 30 64
        E 0 91 29 64
        E 60 91 29 00
        E 0 91 30 00
        E 0 91 30 64
        E 0 91 29 64
        E 60 91 29 00
        E 0 91 30 00
        E 0 91 30 64
        E 0 91 29 64
        E 1 91 29 00
        E 0 91 30 00
        E 29 91 30 64
        E 0 91 29 64
        E 1 91 29 00
        E 0 91 30 00
        E 29 91 30 64
        E 0 91 29 64
        E 1 91 29 00
        E 0 91 30 00
        E 29 91 30 64
        E 0 91 29 64
        E 30 91 29 00
        E 0 91 30 00
        E 0 91 30 64
        E 0 91 29 64
        E 60 91 29 00
        E 0 91 30 00
        E 0 91 30 64
        E 0 91 29 64
        E 26 e1 00 40
        E 4 e1 00 41
        E 1 e1 00 42
        E 2 e1 00 43
        E 2 e1 00 44
        E 1 e1 00 45
        E 2 e1 00 46
        E 2 e1 00 47
        E 1 e1 00 48
        E 2 e1 00 49
        E 2 e1 00 4a
        E 1 e1 00 4b
        E 2 e1 00 4c
        E 2 e1 00 4d
        E 1 e1 00 4e
        E 2 e1 00 4f
        E 2 e1 00 50
        E 1 e1 00 51
        E 2 e1 00 52
        E 2 e1 00 53
        E 1 e1 00 54
        E 2 e1 00 55
        E 2 e1 00 56
        E 1 e1 00 57
        E 2 e1 00 58
        E 2 e1 00 59
        E 1 e1 00 5a
        E 2 e1 00 5b
        E 2 e1 00 5c
        E 1 e1 00 5d
        E 2 e1 00 5e
        E 2 e1 00 5f
        E 1 e1 00 60
        E 2 e1 00 61
        E 2 e1 00 62
        E 1 e1 00 63
        E 2 e1 00 64
        E 2 e1 00 65
        E 0 91 29 00
        E 0 91 30 00
        E 0 91 33 64
        E 0 91 2c 64
        E 1 e1 00 66
        E 2 e1 00 67
        E 2 e1 00 68
        E 1 e1 00 54
        E 2 e1 00 40
        E 52 91 2c 00
        E 0 91 33 00
        E 0 91 33 64
        E 0 91 2c 64
        E 30 91 2c 00
        E 0 91 33 00
        E 0 91 30 64
        E 0 91 29 64
        E 60 91 29 00
        E 0 91 30 00
        E 0 91 30 64
        E 0 91 29 64
        E 60 91 29 00
        E 0 91 30 00
        E 0 91 29 64
        E 0 91 30 64
        E 1 91 30 00
        E 0 91 29 00
        E 29 91 29 64
        E 0 91 30 64
        E 1 91 30 00
        E 0 91 29 00
        E 29 91 29 64
        E 0 91 30 64
        E 1 91 30 00
        E 0 91 29 00
        E 29 91 30 64
        E 0 91 29 64
        E 30 91 29 00
        E 0 91 30 00
        E 0 91 30 64
        E 0 91 29 64
        E 60 91 29 00
        E 0 91 30 00
        E 0 91 30 64
        E 0 91 29 64
        E 26 e1 00 40
        E 4 e1 00 41
        E 1 e1 00 42
        E 2 e1 00 43
        E 2 e1 00 44
        E 1 e1 00 45
        E 2 e1 00 46
        E 2 e1 00 47
        E 1 e1 00 48
        E 2 e1 00 49
        E 2 e1 00 4a
        E 1 e1 00 4b
        E 2 e1 00 4c
        E 2 e1 00 4d
        E 1 e1 00 4e
        E 2 e1 00 4f
        E 2 e1 00 50
        E 1 e1 00 51
        E 2 e1 00 52
        E 2 e1 00 53
        E 1 e1 00 54
        E 2 e1 00 55
        E 2 e1 00 56
        E 1 e1 00 57
        E 2 e1 00 58
        E 2 e1 00 59
        E 1 e1 00 5a
        E 2 e1 00 5b
        E 2 e1 00 5c
        E 1 e1 00 5d
        E 2 e1 00 5e
        E 2 e1 00 5f
        E 1 e1 00 60
        E 2 e1 00 61
        E 2 e1 00 62
        E 1 e1 00 63
        E 2 e1 00 64
        E 2 e1 00 65
        E 0 91 29 00
        E 0 91 30 00
        E 0 91 33 64
        E 0 91 2c 64
        E 1 e1 00 66
        E 2 e1 00 67
        E 2 e1 00 68
        E 1 e1 00 54
        E 2 e1 00 40
        E 52 91 2c 00
        E 0 91 33 00
        E 0 91 33 64
        E 0 91 2c 64
        E 30 91 2c 00
        E 0 91 33 00
        E 0 91 30 64
        E 0 91 29 64
        E 60 91 29 00
        E 0 91 30 00
        E 0 91 30 64
        E 0 91 29 64
        E 60 91 29 00
        E 0 91 30 00
        E 0 91 30 64
        E 0 91 29 64
        E 1 91 29 00
        E 0 91 30 00
        E 29 91 30 64
        E 0 91 29 64
        E 1 91 29 00
        E 0 91 30 00
        E 29 91 30 64
        E 0 91 29 64
        E 1 91 29 00
        E 0 91 30 00
        E 29 91 30 64
        E 0 91 29 64
        E 30 91 29 00
        E 0 91 30 00
        E 0 91 30 64
        E 0 91 29 64
        E 60 91 29 00
        E 0 91 30 00
        E 0 91 30 64
        E 0 91 29 64
        E 26 e1 00 40
        E 4 e1 00 41
        E 1 e1 00 42
        E 2 e1 00 43
        E 2 e1 00 44
        E 1 e1 00 45
        E 2 e1 00 46
        E 2 e1 00 47
        E 1 e1 00 48
        E 2 e1 00 49
        E 2 e1 00 4a
        E 1 e1 00 4b
        E 2 e1 00 4c
        E 2 e1 00 4d
        E 1 e1 00 4e
        E 2 e1 00 4f
        E 2 e1 00 50
        E 1 e1 00 51
        E 2 e1 00 52
        E 2 e1 00 53
        E 1 e1 00 54
        E 2 e1 00 55
        E 2 e1 00 56
        E 1 e1 00 57
        E 2 e1 00 58
        E 2 e1 00 59
        E 1 e1 00 5a
        E 2 e1 00 5b
        E 2 e1 00 5c
        E 1 e1 00 5d
        E 2 e1 00 5e
        E 2 e1 00 5f
        E 1 e1 00 60
        E 2 e1 00 61
        E 2 e1 00 62
        E 1 e1 00 63
        E 2 e1 00 64
        E 2 e1 00 65
        E 0 91 29 00
        E 0 91 30 00
        E 0 91 33 64
        E 0 91 2c 64
        E 1 e1 00 66
        E 2 e1 00 67
        E 2 e1 00 68
        E 1 e1 00 54
        E 2 e1 00 40
        E 52 91 2c 00
        E 0 91 33 00
        E 0 91 33 64
        E 0 91 2c 64
        E 30 91 2c 00
        E 0 91 33 00
        E 0 91 30 64
        E 0 91 29 64
        E 60 91 29 00
        E 0 91 30 00
        E 0 91 30 64
        E 0 91 29 64
        E 60 91 29 00
        E 0 91 30 00
        E 0 91 29 64
        E 0 91 30 64
        E 1 91 30 00
        E 0 91 29 00
        E 29 91 29 64
        E 0 91 30 64
        E 1 91 30 00
        E 0 91 29 00
        E 29 91 29 64
        E 0 91 30 64
        E 1 91 30 00
        E 0 91 29 00
        E 29 91 30 64
        E 0 91 29 64
        E 30 91 29 00
        E 0 91 30 00
        E 0 91 30 64
        E 0 91 29 64
        E 60 91 29 00
        E 0 91 30 00
        E 0 91 30 64
        E 0 91 29 64
        E 26 e1 00 40
        E 4 e1 00 41
        E 1 e1 00 42
        E 2 e1 00 43
        E 2 e1 00 44
        E 1 e1 00 45
        E 2 e1 00 46
        E 2 e1 00 47
        E 1 e1 00 48
        E 2 e1 00 49
        E 2 e1 00 4a
        E 1 e1 00 4b
        E 2 e1 00 4c
        E 2 e1 00 4d
        E 1 e1 00 4e
        E 2 e1 00 4f
        E 2 e1 00 50
        E 1 e1 00 51
        E 2 e1 00 52
        E 2 e1 00 53
        E 1 e1 00 54
        E 2 e1 00 55
        E 2 e1 00 56
        E 1 e1 00 57
        E 2 e1 00 58
        E 2 e1 00 59
        E 1 e1 00 5a
        E 2 e1 00 5b
        E 2 e1 00 5c
        E 1 e1 00 5d
        E 2 e1 00 5e
        E 2 e1 00 5f
        E 1 e1 00 60
        E 2 e1 00 61
        E 2 e1 00 62
        E 1 e1 00 63
        E 2 e1 00 64
        E 2 e1 00 65
        E 0 91 29 00
        E 0 91 30 00
        E 0 91 33 64
        E 0 91 2c 64
        E 1 e1 00 66
        E 2 e1 00 67
        E 2 e1 00 68
        E 1 e1 00 54
        E 2 e1 00 40
        E 52 91 2c 00
        E 0 91 33 00
        E 0 91 33 64
        E 0 91 2c 64
        E 30 91 2c 00
        E 0 91 33 00
        E 0 91 30 64
        E 0 91 29 64
        E 60 91 29 00
        E 0 91 30 00
        E 0 91 30 64
        E 0 91 29 64
        E 60 91 29 00
        E 0 91 30 00
        E 0 91 30 64
        E 0 91 29 64
        E 1 91 29 00
        E 0 91 30 00
        E 29 91 30 64
        E 0 91 29 64
        E 1 91 29 00
        E 0 91 30 00
        E 29 91 30 64
        E 0 91 29 64
        E 1 91 29 00
        E 0 91 30 00
        E 29 91 30 64
        E 0 91 29 64
        E 30 91 29 00
        E 0 91 30 00
        E 0 91 30 64
        E 0 91 29 64
        E 60 91 29 00
        E 0 91 30 00
        E 0 91 30 64
        E 0 91 29 64
        E 26 e1 00 40
        E 4 e1 00 41
        E 1 e1 00 42
        E 2 e1 00 43
        E 2 e1 00 44
        E 1 e1 00 45
        E 2 e1 00 46
        E 2 e1 00 47
        E 1 e1 00 48
        E 2 e1 00 49
        E 2 e1 00 4a
        E 1 e1 00 4b
        E 2 e1 00 4c
        E 2 e1 00 4d
        E 1 e1 00 4e
        E 2 e1 00 4f
        E 2 e1 00 50
        E 1 e1 00 51
        E 2 e1 00 52
        E 2 e1 00 53
        E 1 e1 00 54
        E 2 e1 00 55
        E 2 e1 00 56
        E 1 e1 00 57
        E 2 e1 00 58
        E 2 e1 00 59
        E 1 e1 00 5a
        E 2 e1 00 5b
        E 2 e1 00 5c
        E 1 e1 00 5d
        E 2 e1 00 5e
        E 2 e1 00 5f
        E 1 e1 00 60
        E 2 e1 00 61
        E 2 e1 00 62
        E 1 e1 00 63
        E 2 e1 00 64
        E 2 e1 00 65
        E 0 91 29 00
        E 0 91 30 00
        E 0 91 33 64
        E 0 91 2c 64
        E 1 e1 00 66
        E 2 e1 00 67
        E 2 e1 00 68
        E 1 e1 00 54
        E 2 e1 00 40
        E 52 91 2c 00
        E 0 91 33 00
        E 0 91 33 64
        E 0 91 2c 64
        E 30 91 2c 00
        E 0 91 33 00
        E 0 91 30 64
        E 0 91 29 64
        E 60 91 29 00
        E 0 91 30 00
        E 0 91 30 64
        E 0 91 29 64
        E 60 91 29 00
        E 0 91 30 00
        E 0 91 29 64
        E 0 91 30 64
        E 1 91 30 00
        E 0 91 29 00
        E 29 91 29 64
        E 0 91 30 64
        E 1 91 30 00
        E 0 91 29 00
        E 29 91 29 64
        E 0 91 30 64
        E 1 91 30 00
        E 0 91 29 00
        E 29 91 30 64
        E 0 91 29 64
        E 30 91 29 00
        E 0 91 30 00
        E 0 91 30 64
        E 0 91 29 64
        E 60 91 29 00
        E 0 91 30 00
        E 0 91 30 64
        E 0 91 29 64
        E 26 e1 00 40
        E 4 e1 00 41
        E 1 e1 00 42
        E 2 e1 00 43
        E 2 e1 00 44
        E 1 e1 00 45
        E 2 e1 00 46
        E 2 e1 00 47
        E 1 e1 00 48
        E 2 e1 00 49
        E 2 e1 00 4a
        E 1 e1 00 4b
        E 2 e1 00 4c
        E 2 e1 00 4d
        E 1 e1 00 4e
        E 2 e1 00 4f
        E 2 e1 00 50
        E 1 e1 00 51
        E 2 e1 00 52
        E 2 e1 00 53
        E 1 e1 00 54
        E 2 e1 00 55
        E 2 e1 00 56
        E 1 e1 00 57
        E 2 e1 00 58
        E 2 e1 00 59
        E 1 e1 00 5a
        E 2 e1 00 5b
        E 2 e1 00 5c
        E 1 e1 00 5d
        E 2 e1 00 5e
        E 2 e1 00 5f
        E 1 e1 00 60
        E 2 e1 00 61
        E 2 e1 00 62
        E 1 e1 00 63
        E 2 e1 00 64
        E 2 e1 00 65
        E 0 91 29 00
        E 0 91 30 00
        E 0 91 33 64
        E 0 91 2c 64
        E 1 e1 00 66
        E 2 e1 00 67
        E 2 e1 00 68
        E 1 e1 00 54
        E 2 e1 00 40
        E 52 91 2c 00
        E 0 91 33 00
        E 0 91 33 64
        E 0 91 2c 64
        E 30 91 2c 00
        E 0 91 33 00
        E 0 91 30 64
        E 0 91 29 64
        E 60 91 29 00
        E 0 91 30 00
        E 0 91 30 64
        E 0 91 29 64
        E 60 91 29 00
        E 0 91 30 00
        E 0 91 30 64
        E 0 91 29 64
        E 1 91 29 00
        E 0 91 30 00
        E 29 91 30 64
        E 0 91 29 64
        E 1 91 29 00
        E 0 91 30 00
        E 29 91 30 64
        E 0 91 29 64
        E 1 91 29 00
        E 0 91 30 00
        E 29 91 30 64
        E 0 91 29 64
        E 30 91 29 00
        E 0 91 30 00
        E 0 91 30 64
        E 0 91 29 64
        E 60 91 29 00
        E 0 91 30 00
        E 0 91 30 64
        E 0 91 29 64
        E 26 e1 00 40
        E 4 e1 00 41
        E 1 e1 00 42
        E 2 e1 00 43
        E 2 e1 00 44
        E 1 e1 00 45
        E 2 e1 00 46
        E 2 e1 00 47
        E 1 e1 00 48
        E 2 e1 00 49
        E 2 e1 00 4a
        E 1 e1 00 4b
        E 2 e1 00 4c
        E 2 e1 00 4d
        E 1 e1 00 4e
        E 2 e1 00 4f
        E 2 e1 00 50
        E 1 e1 00 51
        E 2 e1 00 52
        E 2 e1 00 53
        E 1 e1 00 54
        E 2 e1 00 55
        E 2 e1 00 56
        E 1 e1 00 57
        E 2 e1 00 58
        E 2 e1 00 59
        E 1 e1 00 5a
        E 2 e1 00 5b
        E 2 e1 00 5c
        E 1 e1 00 5d
        E 2 e1 00 5e
        E 2 e1 00 5f
        E 1 e1 00 60
        E 2 e1 00 61
        E 2 e1 00 62
        E 1 e1 00 63
        E 2 e1 00 64
        E 2 e1 00 65
        E 0 91 29 00
        E 0 91 30 00
        E 0 91 33 64
        E 0 91 2c 64
        E 1 e1 00 66
        E 2 e1 00 67
        E 2 e1 00 68
        E 1 e1 00 54
        E 2 e1 00 40
        E 52 91 2c 00
        E 0 91 33 00
        E 0 91 33 64
        E 0 91 2c 64
        E 30 91 2c 00
        E 0 91 33 00
        E 0 91 30 64
        E 0 91 29 64
        E 60 91 29 00
        E 0 91 30 00
        E 0 91 30 64
        E 0 91 29 64
        E 60 91 29 00
        E 0 91 30 00
        E 0 91 29 64
        E 0 91 30 64
        E 1 91 30 00
        E 0 91 29 00
        E 29 91 29 64
        E 0 91 30 64
        E 1 91 30 00
        E 0 91 29 00
        E 29 91 29 64
        E 0 91 30 64
        E 1 91 30 00
        E 0 91 29 00
        E 29 91 30 64
        E 0 91 29 64
        E 30 91 29 00
        E 0 91 30 00
        E 0 91 30 64
        E 0 91 29 64
        E 60 91 29 00
        E 0 91 30 00
        E 0 91 30 64
        E 0 91 29 64
        E 26 e1 00 40
        E 4 e1 00 41
        E 1 e1 00 42
        E 2 e1 00 43
        E 2 e1 00 44
        E 1 e1 00 45
        E 2 e1 00 46
        E 2 e1 00 47
        E 1 e1 00 48
        E 2 e1 00 49
        E 2 e1 00 4a
        E 1 e1 00 4b
        E 2 e1 00 4c
        E 2 e1 00 4d
        E 1 e1 00 4e
        E 2 e1 00 4f
        E 2 e1 00 50
        E 1 e1 00 51
        E 2 e1 00 52
        E 2 e1 00 53
        E 1 e1 00 54
        E 2 e1 00 55
        E 2 e1 00 56
        E 1 e1 00 57
        E 2 e1 00 58
        E 2 e1 00 59
        E 1 e1 00 5a
        E 2 e1 00 5b
        E 2 e1 00 5c
        E 1 e1 00 5d
        E 2 e1 00 5e
        E 2 e1 00 5f
        E 1 e1 00 60
        E 2 e1 00 61
        E 2 e1 00 62
        E 1 e1 00 63
        E 2 e1 00 64
        E 2 e1 00 65
        E 0 91 29 00
        E 0 91 30 00
        E 0 91 33 64
        E 0 91 2c 64
        E 1 e1 00 66
        E 2 e1 00 67
        E 2 e1 00 68
        E 1 e1 00 54
        E 2 e1 00 40
        E 52 91 2c 00
        E 0 91 33 00
        E 0 91 33 64
        E 0 91 2c 64
        E 30 91 2c 00
        E 0 91 33 00
        E 0 91 30 64
        E 0 91 29 64
        E 60 91 29 00
        E 0 91 30 00
        E 0 91 30 64
        E 0 91 29 64
        E 60 91 29 00
        E 0 91 30 00
        E 0 91 30 64
        E 0 91 29 64
        E 1 91 29 00
        E 0 91 30 00
        E 29 91 30 64
        E 0 91 29 64
        E 1 91 29 00
        E 0 91 30 00
        E 29 91 30 64
        E 0 91 29 64
        E 1 91 29 00
        E 0 91 30 00
        E 29 91 30 64
        E 0 91 29 64
        E 30 91 29 00
        E 0 91 30 00
        E 0 91 30 64
        E 0 91 29 64
        E 60 91 29 00
        E 0 91 30 00
        E 0 91 30 64
        E 0 91 29 64
        E 26 e1 00 40
        E 4 e1 00 41
        E 1 e1 00 42
        E 2 e1 00 43
        E 2 e1 00 44
        E 1 e1 00 45
        E 2 e1 00 46
        E 2 e1 00 47
        E 1 e1 00 48
        E 2 e1 00 49
        E 2 e1 00 4a
        E 1 e1 00 4b
        E 2 e1 00 4c
        E 2 e1 00 4d
        E 1 e1 00 4e
        E 2 e1 00 4f
        E 2 e1 00 50
        E 1 e1 00 51
        E 2 e1 00 52
        E 2 e1 00 53
        E 1 e1 00 54
        E 2 e1 00 55
        E 2 e1 00 56
        E 1 e1 00 57
        E 2 e1 00 58
        E 2 e1 00 59
        E 1 e1 00 5a
        E 2 e1 00 5b
        E 2 e1 00 5c
        E 1 e1 00 5d
        E 2 e1 00 5e
        E 2 e1 00 5f
        E 1 e1 00 60
        E 2 e1 00 61
        E 2 e1 00 62
        E 1 e1 00 63
        E 2 e1 00 64
        E 2 e1 00 65
        E 0 91 29 00
        E 0 91 30 00
        E 0 91 33 64
        E 0 91 2c 64
        E 1 e1 00 66
        E 2 e1 00 67
        E 2 e1 00 68
        E 1 e1 00 54
        E 2 e1 00 40
        E 52 91 2c 00
        E 0 91 33 00
        E 0 91 33 64
        E 0 91 2c 64
        E 30 91 2c 00
        E 0 91 33 00
        E 0 91 30 64
        E 0 91 29 64
        E 60 91 29 00
        E 0 91 30 00
        E 0 91 30 64
        E 0 91 29 64
        E 60 91 29 00
        E 0 91 30 00
        E 0 91 29 64
        E 0 91 30 64
        E 1 91 30 00
        E 0 91 29 00
        E 29 91 29 64
        E 0 91 30 64
        E 1 91 30 00
        E 0 91 29 00
        E 29 91 29 64
        E 0 91 30 64
        E 1 91 30 00
        E 0 91 29 00
        E 29 91 30 64
        E 0 91 29 64
        E 30 91 29 00
        E 0 91 30 00
        E 0 91 30 64
        E 0 91 29 64
        E 60 91 29 00
        E 0 91 30 00
        E 0 91 30 64
        E 0 91 29 64
        E 26 e1 00 40
        E 4 e1 00 41
        E 1 e1 00 42
        E 2 e1 00 43
        E 2 e1 00 44
        E 1 e1 00 45
        E 2 e1 00 46
        E 2 e1 00 47
        E 1 e1 00 48
        E 2 e1 00 49
        E 2 e1 00 4a
        E 1 e1 00 4b
        E 2 e1 00 4c
        E 2 e1 00 4d
        E 1 e1 00 4e
        E 2 e1 00 4f
        E 2 e1 00 50
        E 1 e1 00 51
        E 2 e1 00 52
        E 2 e1 00 53
        E 1 e1 00 54
        E 2 e1 00 55
        E 2 e1 00 56
        E 1 e1 00 57
        E 2 e1 00 58
        E 2 e1 00 59
        E 1 e1 00 5a
        E 2 e1 00 5b
        E 2 e1 00 5c
        E 1 e1 00 5d
        E 2 e1 00 5e
        E 2 e1 00 5f
        E 1 e1 00 60
        E 2 e1 00 61
        E 2 e1 00 62
        E 1 e1 00 63
        E 2 e1 00 64
        E 2 e1 00 65
        E 0 91 29 00
        E 0 91 30 00
        E 0 91 33 64
        E 0 91 2c 64
        E 1 e1 00 66
        E 2 e1 00 67
        E 2 e1 00 68
        E 1 e1 00 54
        E 2 e1 00 40
        E 52 91 2c 00
        E 0 91 33 00
        E 0 91 33 64
        E 0 91 2c 64
        E 30 91 2c 00
        E 0 91 33 00
        E 0 91 2e 64
        E 0 91 27 64
        E 90 91 27 00
        E 0 91 2e 00
        E 0 91 2e 64
        E 0 91 27 64
        E 30 91 27 00
        E 0 91 2e 00
        E 0 91 2e 64
        E 0 91 27 64
        E 30 91 27 00
        E 0 91 2e 00
        E 0 91 2e 64
        E 0 91 27 64
        E 30 91 27 00
        E 0 91 2e 00
        E 0 91 2e 64
        E 0 91 27 64
        E 30 91 27 00
        E 0 91 2e 00
        E 0 91 2e 64
        E 0 91 27 64
        E 30 91 27 00
        E 0 91 2e 00
        E 0 91 35 64
        E 0 91 2e 64
        E 90 91 2e 00
        E 0 91 35 00
        E 0 91 35 64
        E 0 91 2e 64
        E 30 91 2e 00
        E 0 91 35 00
        E 0 91 35 64
        E 0 91 2e 64
        E 30 91 2e 00
        E 0 91 35 00
        E 0 91 35 64
        E 0 91 2e 64
        E 30 91 2e 00
        E 0 91 35 00
        E 0 91 35 64
        E 0 91 2e 64
        E 30 91 2e 00
        E 0 91 35 00
        E 0 91 35 64
        E 0 91 2e 64
        E 30 91 2e 00
        E 0 91 35 00
        E 0 91 30 64
        E 0 91 29 64
        E 60 91 29 00
        E 0 91 30 00
        E 0 91 30 64
        E 0 91 29 64
        E 60 91 29 00
        E 0 91 30 00
        E 0 91 30 64
        E 0 91 29 64
        E 1 91 29 00
        E 0 91 30 00
        E 29 91 30 64
        E 0 91 29 64
        E 1 91 29 00
        E 0 91 30 00
        E 29 91 30 64
        E 0 91 29 64
        E 1 91 29 00
        E 0 91 30 00
        E 29 91 30 64
        E 0 91 29 64
        E 30 91 29 00
        E 0 91 30 00
        E 0 91 30 64
        E 0 91 29 64
        E 60 91 29 00
        E 0 91 30 00
        E 0 91 30 64
        E 0 91 29 64
        E 26 e1 00 40
        E 4 e1 00 41
        E 1 e1 00 42
        E 2 e1 00 43
        E 2 e1 00 44
        E 1 e1 00 45
        E 2 e1 00 46
        E 2 e1 00 47
        E 1 e1 00 48
        E 2 e1 00 49
        E 2 e1 00 4a
        E 1 e1 00 4b
        E 2 e1 00 4c
        E 2 e1 00 4d
        E 1 e1 00 4e
        E 2 e1 00 4f
        E 2 e1 00 50
        E 1 e1 00 51
        E 2 e1 00 52
        E 2 e1 00 53
        E 1 e1 00 54
        E 2 e1 00 55
        E 2 e1 00 56
        E 1 e1 00 57
        E 2 e1 00 58
        E 2 e1 00 59
        E 1 e1 00 5a
        E 2 e1 00 5b
        E 2 e1 00 5c
        E 1 e1 00 5d
        E 2 e1 00 5e
        E 2 e1 00 5f
        E 1 e1 00 60
        E 2 e1 00 61
        E 2 e1 00 62
        E 1 e1 00 63
        E 2 e1 00 64
        E 2 e1 00 65
        E 0 91 29 00
        E 0 91 30 00
        E 0 91 33 64
        E 0 91 2c 64
        E 1 e1 00 66
        E 2 e1 00 67
        E 2 e1 00 68
        E 1 e1 00 54
        E 2 e1 00 40
        E 52 91 2c 00
        E 0 91 33 00
        E 0 91 33 64
        E 0 91 2c 64
        E 30 91 2c 00
        E 0 91 33 00
        E 0 91 2e 64
        E 0 91 27 64
        E 90 91 27 00
        E 0 91 2e 00
        E 0 91 2e 64
        E 0 91 27 64
        E 30 91 27 00
        E 0 91 2e 00
        E 0 91 2e 64
        E 0 91 27 64
        E 30 91 27 00
        E 0 91 2e 00
        E 0 91 2e 64
        E 0 91 27 64
        E 30 91 27 00
        E 0 91 2e 00
        E 0 91 2e 64
        E 0 91 27 64
        E 30 91 27 00
        E 0 91 2e 00
        E 0 91 2e 64
        E 0 91 27 64
        E 30 91 27 00
        E 0 91 2e 00
        E 0 91 35 64
        E 0 91 2e 64
        E 90 91 2e 00
        E 0 91 35 00
        E 0 91 35 64
        E 0 91 2e 64
        E 30 91 2e 00
        E 0 91 35 00
        E 0 91 35 64
        E 0 91 2e 64
        E 30 91 2e 00
        E 0 91 35 00
        E 0 91 35 64
        E 0 91 2e 64
        E 30 91 2e 00
        E 0 91 35 00
        E 0 91 35 64
        E 0 91 2e 64
        E 30 91 2e 00
        E 0 91 35 00
        E 0 91 35 64
        E 0 91 2e 64
        E 30 91 2e 00
        E 0 91 35 00
        E 0 91 33 64
        E 0 91 2c 64
        E 60 91 2c 00
        E 0 91 33 00
        E 0 91 33 64
        E 0 91 2c 64
        E 60 91 2c 00
        E 0 91 33 00
        E 0 91 33 64
        E 0 91 2c 64
        E 90 91 2c 00
        E 0 91 33 00
        E 0 91 33 64
        E 0 91 2c 64
        E 30 91 2c 00
        E 0 91 33 00
        E 0 91 33 64
        E 0 91 2c 64
        E 90 91 2c 00
        E 0 91 33 00
        E 0 91 33 64
        E 0 91 2c 64
        E 30 91 2c 00
        E 0 91 33 00
        E 0 91 33 64
        E 0 91 2c 64
        E 60 91 2c 00
        E 0 91 33 00
        E 0 91 33 64
        E 0 91 2c 64
        E 30 91 2c 00
        E 0 91 33 00
        E 0 91 33 64
        E 0 91 2c 64
        E 30 91 2c 00
        E 0 91 33 00
        E 0 91 37 64
        E 0 91 30 64
        E 60 91 30 00
        E 0 91 37 00
        E 0 91 37 64
        E 0 91 30 64
        E 60 91 30 00
        E 0 91 37 00
        E 0 91 37 64
        E 0 91 30 64
        E 90 91 30 00
        E 0 91 37 00
        E 0 91 37 64
        E 0 91 30 64
        E 30 91 30 00
        E 0 91 37 00
        E 0 91 37 64
        E 0 91 30 64
        E 90 91 30 00
        E 0 91 37 00
        E 0 91 37 64
        E 0 91 30 64
        E 30 91 30 00
        E 0 91 37 00
        E 0 91 37 64
        E 0 91 30 64
        E 60 91 30 00
        E 0 91 37 00
        E 0 91 37 64
        E 0 91 30 64
        E 30 91 30 00
        E 0 91 37 00
        E 0 91 37 64
        E 0 91 30 64
        E 30 91 30 00
        E 0 91 37 00
        E 0 91 38 64
        E 0 91 31 64
        E 60 91 31 00
        E 0 91 38 00
        E 0 91 38 64
        E 0 91 31 64
        E 60 91 31 00
        E 0 91 38 00
        E 0 91 38 64
        E 0 91 31 64
        E 90 91 31 00
        E 0 91 38 00
        E 0 91 38 64
        E 0 91 31 64
        E 30 91 31 00
        E 0 91 38 00
        E 0 91 35 64
        E 0 91 2e 64
        E 90 91 2e 00
        E 0 91 35 00
        E 0 91 35 64
        E 0 91 2e 64
        E 30 91 2e 00
        E 0 91 35 00
        E 0 91 35 64
        E 0 91 2e 64
        E 60 91 2e 00
        E 0 91 35 00
        E 0 91 35 64
        E 0 91 2e 64
        E 30 91 2e 00
        E 0 91 35 00
        E 0 91 35 64
        E 0 91 2e 64
        E 30 91 2e 00
        E 0 91 35 00
        E 0 91 33 64
        E 0 91 2c 64
        E 60 91 2c 00
        E 0 91 33 00
        E 0 91 33 64
        E 0 91 2c 64
        E 60 91 2c 00
        E 0 91 33 00
        E 0 91 33 64
        E 0 91 2c 64
        E 90 91 2c 00
        E 0 91 33 00
        E 0 91 33 64
        E 0 91 2c 64
        E 30 91 2c 00
        E 0 91 33 00
        E 0 91 33 64
        E 0 91 2c 64
        E 90 91 2c 00
        E 0 91 33 00
        E 0 91 33 64
        E 0 91 2c 64
        E 30 91 2c 00
        E 0 91 33 00
        E 0 91 33 64
        E 0 91 2c 64
        E 60 91 2c 00
        E 0 91 33 00
        E 0 91 33 64
        E 0 91 2c 64
        E 30 91 2c 00
        E 0 91 33 00
        E 0 91 33 64
        E 0 91 2c 64
        E 30 91 2c 00
        E 0 91 33 00
        E 0 91 33 64
        E 0 91 2c 64
        E 60 91 2c 00
        E 0 91 33 00
        E 0 91 33 64
        E 0 91 2c 64
        E 60 91 2c 00
        E 0 91 33 00
        E 0 91 33 64
        E 0 91 2c 64
        E 90 91 2c 00
        E 0 91 33 00
        E 0 91 33 64
        E 0 91 2c 64
        E 30 91 2c 00
        E 0 91 33 00
        E 0 91 33 64
        E 0 91 2c 64
        E 90 91 2c 00
        E 0 91 33 00
        E 0 91 33 64
        E 0 91 2c 64
        E 30 91 2c 00
        E 0 91 33 00
        E 0 91 33 64
        E 0 91 2c 64
        E 60 91 2c 00
        E 0 91 33 00
        E 0 91 33 64
        E 0 91 2c 64
        E 30 91 2c 00
        E 0 91 33 00
        E 0 91 33 64
        E 0 91 2c 64
        E 30 91 2c 00
        E 0 91 33 00
        E 0 91 37 64
        E 0 91 30 64
        E 60 91 30 00
        E 0 91 37 00
        E 0 91 37 64
        E 0 91 30 64
        E 60 91 30 00
        E 0 91 37 00
        E 0 91 37 64
        E 0 91 30 64
        E 90 91 30 00
        E 0 91 37 00
        E 0 91 37 64
        E 0 91 30 64
        E 30 91 30 00
        E 0 91 37 00
        E 0 91 37 64
        E 0 91 30 64
        E 90 91 30 00
        E 0 91 37 00
        E 0 91 37 64
        E 0 91 30 64
        E 30 91 30 00
        E 0 91 37 00
        E 0 91 37 64
        E 0 91 30 64
        E 60 91 30 00
        E 0 91 37 00
        E 0 91 37 64
        E 0 91 30 64
        E 30 91 30 00
        E 0 91 37 00
        E 0 91 37 64
        E 0 91 30 64
        E 30 91 30 00
        E 0 91 37 00
        E 0 91 38 64
        E 0 91 31 64
        E 60 91 31 00
        E 0 91 38 00
        E 0 91 38 64
        E 0 91 31 64
        E 60 91 31 00
        E 0 91 38 00
        E 0 91 38 64
        E 0 91 31 64
        E 90 91 31 00
        E 0 91 38 00
        E 0 91 38 64
        E 0 91 31 64
        E 30 91 31 00
        E 0 91 38 00
        E 0 91 35 64
        E 0 91 2e 64
        E 90 91 2e 00
        E 0 91 35 00
        E 0 91 35 64
        E 0 91 2e 64
        E 30 91 2e 00
        E 0 91 35 00
        E 0 91 35 64
        E 0 91 2e 64
        E 60 91 2e 00
        E 0 91 35 00
        E 0 91 35 64
        E 0 91 2e 64
        E 30 91 2e 00
        E 0 91 35 00
        E 0 91 35 64
        E 0 91 2e 64
        E 30 91 2e 00
        E 0 91 35 00
        E 0 91 33 64
        E 0 91 2c 64
        E 60 91 2c 00
        E 0 91 33 00
        E 0 91 33 64
        E 0 91 2c 64
        E 60 91 2c 00
        E 0 91 33 00
        E 0 91 33 64
        E 0 91 2c 64
        E 90 91 2c 00
        E 0 91 33 00
        E 0 91 33 64
        E 0 91 2c 64
        E 30 91 2c 00
        E 0 91 33 00
        E 0 91 33 64
        E 0 91 2c 64
        E 90 91 2c 00
        E 0 91 33 00
        E 0 91 33 64
        E 0 91 2c 64
        E 30 91 2c 00
        E 0 91 33 00
        E 0 91 33 64
        E 0 91 2c 64
        E 60 91 2c 00
        E 0 91 33 00
        E 0 91 33 64
        E 0 91 2c 64
        E 30 91 2c 00
        E 0 91 33 00
        E 0 91 33 64
        E 0 91 2c 64
        E 30 91 2c 00
        E 0 91 33 00
        E 0 91 35 64
        E 0 91 2e 64
        E 60 91 2e 00
        E 0 91 35 00
        E 0 91 35 64
        E 0 91 2e 64
        E 60 91 2e 00
        E 0 91 35 00
        E 0 91 35 64
        E 0 91 2e 64
        E 90 91 2e 00
        E 0 91 35 00
        E 0 91 35 64
        E 0 91 2e 64
        E 30 91 2e 00
        E 0 91 35 00
        E 0 91 35 64
        E 0 91 2e 64
        E 90 91 2e 00
        E 0 91 35 00
        E 0 91 35 64
        E 0 91 2e 64
        E 30 91 2e 00
        E 0 91 35 00
        E 0 91 35 64
        E 0 91 2e 64
        E 60 91 2e 00
        E 0 91 35 00
        E 0 91 35 64
        E 0 91 2e 64
        E 30 91 2e 00
        E 0 91 35 00
        E 0 91 35 64
        E 0 91 2e 64
        E 30 91 2e 00
        E 0 91 35 00
        E 0 91 30 64
        E 0 91 29 64
        E 60 91 29 00
        E 0 91 30 00
        E 0 91 30 64
        E 0 91 29 64
        E 60 91 29 00
        E 0 91 30 00
        E 0 91 30 64
        E 0 91 29 64
        E 1 91 29 00
        E 0 91 30 00
        E 29 91 30 64
        E 0 91 29 64
        E 1 91 29 00
        E 0 91 30 00
        E 29 91 30 64
        E 0 91 29 64
        E 1 91 29 00
        E 0 91 30 00
        E 29 91 30 64
        E 0 91 29 64
        E 30 91 29 00
        E 0 91 30 00
        E 0 91 30 64
        E 0 91 29 64
        E 60 91 29 00
        E 0 91 30 00
        E 0 91 30 64
        E 0 91 29 64
        E 60 91 29 00
        E 0 91 30 00
        E 0 91 29 64
        E 0 91 30 64
        E 1 91 30 00
        E 0 91 29 00
        E 29 91 29 64
        E 0 91 30 64
        E 1 91 30 00
        E 0 91 29 00
        E 29 91 29 64
        E 0 91 30 64
        E 1 91 30 00
        E 0 91 29 00
        E 29 91 30 64
        E 0 91 29 64
        E 30 91 29 00
        E 0 91 30 00
        E 0 91 30 61
        E 0 91 29 61
        E 60 91 29 00
        E 0 91 30 00
        E 0 91 30 5a
        E 0 91 29 5a
        E 60 91 29 00
        E 0 91 30 00
        E 0 91 30 64
        E 0 91 29 64
        E 1 91 29 00
        E 0 91 30 00
        E 29 91 30 64
        E 0 91 29 64
        E 1 91 29 00
        E 0 91 30 00
        E 29 91 30 64
        E 0 91 29 64
        E 1 91 29 00
        E 0 91 30 00
        E 29 91 30 47
        E 0 91 29 47
        E 30 91 29 00
        E 0 91 30 00
        E 0 91 30 44
        E 0 91 29 44
        E 60 91 29 00
        E 0 91 30 00
        E 0 91 30 3c
        E 0 91 29 3c
        E 60 91 29 00
        E 0 91 30 00
        E 0 91 30 64
        E 0 91 29 64
        E 1 91 29 00
        E 0 91 30 00
        E 29 91 30 64
        E 0 91 29 64
        E 1 91 29 00
        E 0 91 30 00
        E 29 91 30 64
        E 0 91 29 64
        E 1 91 29 00
        E 0 91 30 00
        E 29 91 30 64
        E 0 91 29 64
        E 1 91 29 00
        E 0 91 30 00
        E 2909 91 30 64
        E 0 91 29 64
        E 60 91 29 00
        E 0 91 30 00
        E 0 91 30 64
        E 0 91 29 64
        E 60 91 29 00
        E 0 91 30 00
        E 0 91 30 64
        E 0 91 29 64
        E 5 91 29 00
        E 0 91 30 00
        E 25 91 30 64
        E 0 91 29 64
        E 5 91 29 00
        E 0 91 30 00
        E 25 91 30 64
        E 0 91 29 64
        E 5 91 29 00
        E 0 91 30 00
        E 25 91 30 64
        E 0 91 29 64
        E 30 91 29 00
        E 0 91 30 00
        E 0 91 30 64
        E 0 91 29 64
        E 60 91 29 00
        E 0 91 30 00
        E 0 91 30 64
        E 0 91 29 64
        E 26 e1 00 40
        E 4 e1 00 41
        E 1 e1 00 42
        E 2 e1 00 43
        E 2 e1 00 44
        E 1 e1 00 45
        E 2 e1 00 46
        E 2 e1 00 47
        E 1 e1 00 48
        E 2 e1 00 49
        E 2 e1 00 4a
        E 1 e1 00 4b
        E 2 e1 00 4c
        E 2 e1 00 4d
        E 1 e1 00 4e
        E 2 e1 00 4f
        E 2 e1 00 50
        E 1 e1 00 51
        E 2 e1 00 52
        E 2 e1 00 53
        E 1 e1 00 54
        E 2 e1 00 55
        E 2 e1 00 56
        E 1 e1 00 57
        E 2 e1 00 58
        E 2 e1 00 59
        E 1 e1 00 5a
        E 2 e1 00 5b
        E 2 e1 00 5c
        E 1 e1 00 5d
        E 2 e1 00 5e
        E 2 e1 00 5f
        E 1 e1 00 60
        E 2 e1 00 61
        E 2 e1 00 62
        E 1 e1 00 63
        E 2 e1 00 64
        E 2 e1 00 65
        E 0 91 29 00
        E 0 91 30 00
        E 0 91 33 64
        E 0 91 2c 64
        E 1 e1 00 66
        E 2 e1 00 67
        E 2 e1 00 68
        E 1 e1 00 54
        E 2 e1 00 40
        E 52 91 2c 00
        E 0 91 33 00
        E 0 91 33 64
        E 0 91 2c 64
        E 30 91 2c 00
        E 0 91 33 00
        E 0 91 30 64
        E 0 91 29 64
        E 60 91 29 00
        E 0 91 30 00
        E 0 91 30 64
        E 0 91 29 64
        E 60 91 29 00
        E 0 91 30 00
        E 0 91 30 64
        E 0 91 29 64
        E 1 91 29 00
        E 0 91 30 00
        E 29 91 30 64
        E 0 91 29 64
        E 1 91 29 00
        E 0 91 30 00
        E 29 91 30 64
        E 0 91 29 64
        E 1 91 29 00
        E 0 91 30 00
        E 29 91 30 64
        E 0 91 29 64
        E 30 91 29 00
        E 0 91 30 00
        E 0 91 30 64
        E 0 91 29 64
        E 60 91 29 00
        E 0 91 30 00
        E 0 91 30 64
        E 0 91 29 64
        E 26 e1 00 40
        E 4 e1 00 41
        E 1 e1 00 42
        E 2 e1 00 43
        E 2 e1 00 44
        E 1 e1 00 45
        E 2 e1 00 46
        E 2 e1 00 47
        E 1 e1 00 48
        E 2 e1 00 49
        E 2 e1 00 4a
        E 1 e1 00 4b
        E 2 e1 00 4c
        E 2 e1 00 4d
        E 1 e1 00 4e
        E 2 e1 00 4f
        E 2 e1 00 50
        E 1 e1 00 51
        E 2 e1 00 52
        E 2 e1 00 53
        E 1 e1 00 54
        E 2 e1 00 55
        E 2 e1 00 56
        E 1 e1 00 57
        E 2 e1 00 58
        E 2 e1 00 59
        E 1 e1 00 5a
        E 2 e1 00 5b
        E 2 e1 00 5c
        E 1 e1 00 5d
        E 2 e1 00 5e
        E 2 e1 00 5f
        E 1 e1 00 60
        E 2 e1 00 61
        E 2 e1 00 62
        E 1 e1 00 63
        E 2 e1 00 64
        E 2 e1 00 65
        E 0 91 29 00
        E 0 91 30 00
        E 0 91 33 64
        E 0 91 2c 64
        E 1 e1 00 66
        E 2 e1 00 67
        E 2 e1 00 68
        E 1 e1 00 54
        E 2 e1 00 40
        E 52 91 2c 00
        E 0 91 33 00
        E 0 91 33 64
        E 0 91 2c 64
        E 30 91 2c 00
        E 0 91 33 00
        E 0 91 2e 64
        E 0 91 27 64
        E 90 91 27 00
        E 0 91 2e 00
        E 0 91 2e 64
        E 0 91 27 64
        E 30 91 27 00
        E 0 91 2e 00
        E 0 91 2e 64
        E 0 91 27 64
        E 30 91 27 00
        E 0 91 2e 00
        E 0 91 2e 64
        E 0 91 27 64
        E 30 91 27 00
        E 0 91 2e 00
        E 0 91 2e 64
        E 0 91 27 64
        E 30 91 27 00
        E 0 91 2e 00
        E 0 91 2e 64
        E 0 91 27 64
        E 30 91 27 00
        E 0 91 2e 00
        E 0 91 35 64
        E 0 91 2e 64
        E 90 91 2e 00
        E 0 91 35 00
        E 0 91 35 64
        E 0 91 2e 64
        E 30 91 2e 00
        E 0 91 35 00
        E 0 91 35 64
        E 0 91 2e 64
        E 30 91 2e 00
        E 0 91 35 00
        E 0 91 35 64
        E 0 91 2e 64
        E 30 91 2e 00
        E 0 91 35 00
        E 0 91 35 64
        E 0 91 2e 64
        E 30 91 2e 00
        E 0 91 35 00
        E 0 91 35 64
        E 0 91 2e 64
        E 30 91 2e 00
        E 0 91 35 00
        E 0 91 38 64
        E 30 91 38 00
        E 0 91 38 64
        E 30 91 38 00
        E 0 91 3a 64
        E 30 91 3a 00
        E 0 91 3a 64
        E 30 91 3a 00
        E 0 91 3c 64
        E 30 91 3c 00
        E 0 91 3c 64
        E 30 91 3c 00
        E 0 91 3d 64
        E 30 91 3d 00
        E 0 91 3d 64
        E 30 91 3d 00
        E 0 91 3f 64
        E 30 91 3f 00
        E 0 91 3f 64
        E 30 91 3f 00
        E 0 91 41 64
        E 30 91 41 00
        E 0 91 41 64
        E 30 91 41 00
        E 0 91 42 64
        E 30 91 42 00
        E 0 91 42 64
        E 30 91 42 00
        E 0 91 44 64
        E 30 91 44 00
        E 0 91 44 64
        E 30 91 44 00
        E 0 91 4b 64
        E 120 91 4b 00
        E 0 91 49 64
        E 30 91 49 00
        E 0 91 48 64
        E 30 91 48 00
        E 0 91 49 64
        E 30 91 49 00
        E 0 91 48 64
        E 90 91 48 00
        E 0 91 49 64
        E 30 91 49 00
        E 0 91 48 64
        E 60 91 48 00
        E 0 91 46 64
        E 90 91 46 00
        E 0 91 48 64
        E 120 91 48 00
        E 0 91 46 64
        E 30 91 46 00
        E 0 91 48 64
        E 30 91 48 00
        E 0 91 46 64
        E 30 91 46 00
        E 0 91 44 64
        E 90 91 44 00
        E 0 91 46 64
        E 30 91 46 00
        E 0 91 48 64
        E 60 91 48 00
        E 0 91 46 64
        E 30 91 44 64
        E 15 91 46 00
        E 30 91 44 00
        E 15 e1 00 40
        E 0 91 46 64
        E 13 e1 00 41
        E 10 e1 00 42
        E 10 e1 00 43
        E 13 e1 00 44
        E 10 e1 00 45
        E 10 e1 00 46
        E 10 e1 00 47
        E 14 e1 00 48
        E 10 e1 00 49
        E 10 e1 00 4a
        E 10 e1 00 4b
        E 13 e1 00 4c
        E 10 e1 00 4d
        E 10 e1 00 4e
        E 13 e1 00 4f
        E 10 e1 00 50
        E 10 e1 00 51
        E 10 e1 00 52
        E 14 e1 00 53
        E 10 e1 00 54
        E 10 e1 00 55
        E 10 e1 00 56
        E 13 e1 00 57
        E 10 e1 00 58
        E 10 e1 00 59
        E 13 e1 00 5a
        E 10 e1 00 5b
        E 10 e1 00 5c
        E 10 e1 00 5d
        E 14 e1 00 5e
        E 10 e1 00 5f
        E 10 e1 00 60
        E 10 e1 00 62
        E 20 e1 00 61
        E 3 e1 00 60
        E 10 e1 00 5f
        E 3 e1 00 5e
        E 4 e1 00 5d
        E 10 e1 00 5c
        E 6 e1 00 5b
        E 7 e1 00 59
        E 3 e1 00 58
        E 4 e1 00 55
        E 3 e1 00 54
        E 3 e1 00 53
        E 4 e1 00 52
        E 3 e1 00 51
        E 3 e1 00 4f
        E 7 e1 00 4e
        E 3 e1 00 4d
        E 4 e1 00 4b
        E 3 e1 00 4a
        E 3 e1 00 49
        E 4 e1 00 48
        E 3 e1 00 47
        E 3 e1 00 42
        E 4 e1 00 40
        E 0 91 46 00
        E 0 91 33 64
        E 0 91 2c 64
        E 60 91 2c 00
        E 0 91 33 00
        E 0 91 33 64
        E 0 91 2c 64
        E 60 91 2c 00
        E 0 91 33 00
        E 0 91 33 64
        E 0 91 2c 64
        E 90 91 2c 00
        E 0 91 33 00
        E 0 91 33 64
        E 0 91 2c 64
        E 30 91 2c 00
        E 0 91 33 00
        E 0 91 33 64
        E 0 91 2c 64
        E 90 91 2c 00
        E 0 91 33 00
        E 0 91 33 64
        E 0 91 2c 64
        E 30 91 2c 00
        E 0 91 33 00
        E 0 91 33 64
        E 0 91 2c 64
        E 60 91 2c 00
        E 0 91 33 00
        E 0 91 33 64
        E 0 91 2c 64
        E 30 91 2c 00
        E 0 91 33 00
        E 0 91 33 64
        E 0 91 2c 64
        E 30 91 2c 00
        E 0 91 33 00
        E 0 91 37 64
        E 0 91 30 64
        E 60 91 30 00
        E 0 91 37 00
        E 0 91 37 64
        E 0 91 30 64
        E 60 91 30 00
        E 0 91 37 00
        E 0 91 37 64
        E 0 91 30 64
        E 90 91 30 00
        E 0 91 37 00
        E 0 91 37 64
        E 0 91 30 64
        E 30 91 30 00
        E 0 91 37 00
        E 0 91 37 64
        E 0 91 30 64
        E 90 91 30 00
        E 0 91 37 00
        E 0 91 37 64
        E 0 91 30 64
        E 30 91 30 00
        E 0 91 37 00
        E 0 91 37 64
        E 0 91 30 64
        E 60 91 30 00
        E 0 91 37 00
        E 0 91 37 64
        E 0 91 30 64
        E 30 91 30 00
        E 0 91 37 00
        E 0 91 37 64
        E 0 91 30 64
        E 30 91 30 00
        E 0 91 37 00
        E 0 91 38 64
        E 0 91 31 64
        E 60 91 31 00
        E 0 91 38 00
        E 0 91 38 64
        E 0 91 31 64
        E 60 91 31 00
        E 0 91 38 00
        E 0 91 38 64
        E 0 91 31 64
        E 90 91 31 00
        E 0 91 38 00
        E 0 91 38 64
        E 0 91 31 64
        E 30 91 31 00
        E 0 91 38 00
        E 0 91 35 64
        E 0 91 2e 64
        E 90 91 2e 00
        E 0 91 35 00
        E 0 91 35 64
        E 0 91 2e 64
        E 30 91 2e 00
        E 0 91 35 00
        E 0 91 35 64
        E 0 91 2e 64
        E 60 91 2e 00
        E 0 91 35 00
        E 0 91 35 64
        E 0 91 2e 64
        E 30 91 2e 00
        E 0 91 35 00
        E 0 91 35 64
        E 0 91 2e 64
        E 30 91 2e 00
        E 0 91 35 00
        E 0 91 33 64
        E 0 91 2c 64
        E 60 91 2c 00
        E 0 91 33 00
        E 0 91 33 64
        E 0 91 2c 64
        E 60 91 2c 00
        E 0 91 33 00
        E 0 91 33 64
        E 0 91 2c 64
        E 90 91 2c 00
        E 0 91 33 00
        E 0 91 33 64
        E 0 91 2c 64
        E 30 91 2c 00
        E 0 91 33 00
        E 0 91 33 64
        E 0 91 2c 64
        E 90 91 2c 00
        E 0 91 33 00
        E 0 91 33 64
        E 0 91 2c 64
        E 30 91 2c 00
        E 0 91 33 00
        E 0 91 33 64
        E 0 91 2c 64
        E 60 91 2c 00
        E 0 91 33 00
        E 0 91 33 64
        E 0 91 2c 64
        E 30 91 2c 00
        E 0 91 33 00
        E 0 91 33 64
        E 0 91 2c 64
        E 30 91 2c 00
        E 0 91 33 00
        E 0 91 33 64
        E 0 91 2c 64
        E 60 91 2c 00
        E 0 91 33 00
        E 0 91 33 64
        E 0 91 2c 64
        E 60 91 2c 00
        E 0 91 33 00
        E 0 91 33 64
        E 0 91 2c 64
        E 90 91 2c 00
        E 0 91 33 00
        E 0 91 33 64
        E 0 91 2c 64
        E 30 91 2c 00
        E 0 91 33 00
        E 0 91 33 64
        E 0 91 2c 64
        E 90 91 2c 00
        E 0 91 33 00
        E 0 91 33 64
        E 0 91 2c 64
        E 30 91 2c 00
        E 0 91 33 00
        E 0 91 33 64
        E 0 91 2c 64
        E 60 91 2c 00
        E 0 91 33 00
        E 0 91 33 64
        E 0 91 2c 64
        E 30 91 2c 00
        E 0 91 33 00
        E 0 91 33 64
        E 0 91 2c 64
        E 30 91 2c 00
        E 0 91 33 00
        E 0 91 37 64
        E 0 91 30 64
        E 60 91 30 00
        E 0 91 37 00
        E 0 91 37 64
        E 0 91 30 64
        E 60 91 30 00
        E 0 91 37 00
        E 0 91 37 64
        E 0 91 30 64
        E 90 91 30 00
        E 0 91 37 00
        E 0 91 37 64
        E 0 91 30 64
        E 30 91 30 00
        E 0 91 37 00
        E 0 91 37 64
        E 0 91 30 64
        E 90 91 30 00
        E 0 91 37 00
        E 0 91 37 64
        E 0 91 30 64
        E 30 91 30 00
        E 0 91 37 00
        E 0 91 37 64
        E 0 91 30 64
        E 60 91 30 00
        E 0 91 37 00
        E 0 91 37 64
        E 0 91 30 64
        E 30 91 30 00
        E 0 91 37 00
        E 0 91 37 64
        E 0 91 30 64
        E 30 91 30 00
        E 0 91 37 00
        E 0 91 38 64
        E 0 91 31 64
        E 60 91 31 00
        E 0 91 38 00
        E 0 91 38 64
        E 0 91 31 64
        E 60 91 31 00
        E 0 91 38 00
        E 0 91 38 64
        E 0 91 31 64
        E 90 91 31 00
        E 0 91 38 00
        E 0 91 38 64
        E 0 91 31 64
        E 30 91 31 00
        E 0 91 38 00
        E 0 91 35 64
        E 0 91 2e 64
        E 90 91 2e 00
        E 0 91 35 00
        E 0 91 35 64
        E 0 91 2e 64
        E 30 91 2e 00
        E 0 91 35 00
        E 0 91 35 64
        E 0 91 2e 64
        E 60 91 2e 00
        E 0 91 35 00
        E 0 91 35 64
        E 0 91 2e 64
        E 30 91 2e 00
        E 0 91 35 00
        E 0 91 35 64
        E 0 91 2e 64
        E 30 91 2e 00
        E 0 91 35 00
        E 0 91 33 64
        E 0 91 2c 64
        E 60 91 2c 00
        E 0 91 33 00
        E 0 91 33 64
        E 0 91 2c 64
        E 60 91 2c 00
        E 0 91 33 00
        E 0 91 33 64
        E 0 91 2c 64
        E 90 91 2c 00
        E 0 91 33 00
        E 0 91 33 64
        E 0 91 2c 64
        E 30 91 2c 00
        E 0 91 33 00
        E 0 91 33 64
        E 0 91 2c 64
        E 90 91 2c 00
        E 0 91 33 00
        E 0 91 33 64
        E 0 91 2c 64
        E 30 91 2c 00
        E 0 91 33 00
        E 0 91 33 64
        E 0 91 2c 64
        E 60 91 2c 00
        E 0 91 33 00
        E 0 91 33 64
        E 0 91 2c 64
        E 30 91 2c 00
        E 0 91 33 00
        E 0 91 33 64
        E 0 91 2c 64
        E 30 91 2c 00
        E 0 91 33 00
        E 0 91 35 64
        E 0 91 2e 64
        E 60 91 2e 00
        E 0 91 35 00
        E 0 91 35 64
        E 0 91 2e 64
        E 60 91 2e 00
        E 0 91 35 00
        E 0 91 35 64
        E 0 91 2e 64
        E 90 91 2e 00
        E 0 91 35 00
        E 0 91 35 64
        E 0 91 2e 64
        E 30 91 2e 00
        E 0 91 35 00
        E 0 91 35 64
        E 0 91 2e 64
        E 90 91 2e 00
        E 0 91 35 00
        E 0 91 35 64
        E 0 91 2e 64
        E 30 91 2e 00
        E 0 91 35 00
        E 0 91 35 64
        E 0 91 2e 64
        E 60 91 2e 00
        E 0 91 35 00
        E 0 91 35 64
        E 0 91 2e 64
        E 30 91 2e 00
        E 0 91 35 00
        E 0 91 35 64
        E 0 91 2e 64
        E 30 91 2e 00
        E 0 91 35 00
        E 0 91 33 64
        E 0 91 2c 64
        E 60 91 2c 00
        E 0 91 33 00
        E 0 91 33 64
        E 0 91 2c 64
        E 60 91 2c 00
        E 0 91 33 00
        E 0 91 33 64
        E 0 91 2c 64
        E 90 91 2c 00
        E 0 91 33 00
        E 0 91 33 64
        E 0 91 2c 64
        E 30 91 2c 00
        E 0 91 33 00
        E 0 91 33 64
        E 0 91 2c 64
        E 90 91 2c 00
        E 0 91 33 00
        E 0 91 33 64
        E 0 91 2c 64
        E 30 91 2c 00
        E 0 91 33 00
        E 0 91 33 64
        E 0 91 2c 64
        E 60 91 2c 00
        E 0 91 33 00
        E 0 91 33 64
        E 0 91 2c 64
        E 30 91 2c 00
        E 0 91 33 00
        E 0 91 33 64
        E 0 91 2c 64
        E 30 91 2c 00
        E 0 91 33 00
        E 0 91 35 64
        E 0 91 2e 64
        E 60 91 2e 00
        E 0 91 35 00
        E 0 91 35 64
        E 0 91 2e 64
        E 60 91 2e 00
        E 0 91 35 00
        E 0 91 35 64
        E 0 91 2e 64
        E 90 91 2e 00
        E 0 91 35 00
        E 0 91 35 64
        E 0 91 2e 64
        E 30 91 2e 00
        E 0 91 35 00
        E 0 91 35 64
        E 0 91 2e 64
        E 90 91 2e 00
        E 0 91 35 00
        E 0 91 35 64
        E 0 91 2e 64
        E 30 91 2e 00
        E 0 91 35 00
        E 0 91 35 64
        E 0 91 2e 64
        E 60 91 2e 00
        E 0 91 35 00
        E 0 91 35 64
        E 0 91 2e 64
        E 30 91 2e 00
        E 0 91 35 00
        E 0 91 35 64
        E 0 91 2e 64
        E 30 91 2e 00
        E 0 91 35 00
        E 0 91 30 64
        E 0 91 29 64
        E 60 91 29 00
        E 0 91 30 00
        E 0 91 30 64
        E 0 91 29 64
        E 60 91 29 00
        E 0 91 30 00
        E 0 91 30 64
        E 0 91 29 64
        E 1 91 29 00
        E 0 91 30 00
        E 29 91 30 64
        E 0 91 29 64
        E 1 91 29 00
        E 0 91 30 00
        E 29 91 30 64
        E 0 91 29 64
        E 1 91 29 00
        E 0 91 30 00
        E 29 91 30 64
        E 0 91 29 64
        E 30 91 29 00
        E 0 91 30 00
        E 0 91 30 64
        E 0 91 29 64
        E 60 91 29 00
        E 0 91 30 00
        E 0 91 30 64
        E 0 91 29 64
        E 26 e1 00 40
        E 4 e1 00 41
        E 1 e1 00 42
        E 2 e1 00 43
        E 2 e1 00 44
        E 1 e1 00 45
        E 2 e1 00 46
        E 2 e1 00 47
        E 1 e1 00 48
        E 2 e1 00 49
        E 2 e1 00 4a
        E 1 e1 00 4b
        E 2 e1 00 4c
        E 2 e1 00 4d
        E 1 e1 00 4e
        E 2 e1 00 4f
        E 2 e1 00 50
        E 1 e1 00 51
        E 2 e1 00 52
        E 2 e1 00 53
        E 1 e1 00 54
        E 2 e1 00 55
        E 2 e1 00 56
        E 1 e1 00 57
        E 2 e1 00 58
        E 2 e1 00 59
        E 1 e1 00 5a
        E 2 e1 00 5b
        E 2 e1 00 5c
        E 1 e1 00 5d
        E 2 e1 00 5e
        E 2 e1 00 5f
        E 1 e1 00 60
        E 2 e1 00 61
        E 2 e1 00 62
        E 1 e1 00 63
        E 2 e1 00 64
        E 2 e1 00 65
        E 0 91 29 00
        E 0 91 30 00
        E 0 91 33 64
        E 0 91 2c 64
        E 1 e1 00 66
        E 2 e1 00 67
        E 2 e1 00 68
        E 1 e1 00 54
        E 2 e1 00 40
        E 52 91 2c 00
        E 0 91 33 00
        E 0 91 33 64
        E 0 91 2c 64
        E 30 91 2c 00
        E 0 91 33 00
        E 0 91 30 64
        E 0 91 29 64
        E 60 91 29 00
        E 0 91 30 00
        E 0 91 30 64
        E 0 91 29 64
        E 60 91 29 00
        E 0 91 30 00
        E 0 91 30 64
        E 0 91 29 64
        E 1 91 29 00
        E 0 91 30 00
        E 29 91 30 64
        E 0 91 29 64
        E 1 91 29 00
        E 0 91 30 00
        E 29 91 30 64
        E 0 91 29 64
        E 1 91 29 00
        E 0 91 30 00
        E 29 91 30 64
        E 0 91 29 64
        E 30 91 29 00
        E 0 91 30 00
        E 0 91 30 64
        E 0 91 29 64
        E 60 91 29 00
        E 0 91 30 00
        E 0 91 30 64
        E 0 91 29 64
        E 26 e1 00 40
        E 4 e1 00 41
        E 1 e1 00 42
        E 2 e1 00 43
        E 2 e1 00 44
        E 1 e1 00 45
        E 2 e1 00 46
        E 2 e1 00 47
        E 1 e1 00 48
        E 2 e1 00 49
        E 2 e1 00 4a
        E 1 e1 00 4b
        E 2 e1 00 4c
        E 2 e1 00 4d
        E 1 e1 00 4e
        E 2 e1 00 4f
        E 2 e1 00 50
        E 1 e1 00 51
        E 2 e1 00 52
        E 2 e1 00 53
        E 1 e1 00 54
        E 2 e1 00 55
        E 2 e1 00 56
        E 1 e1 00 57
        E 2 e1 00 58
        E 2 e1 00 59
        E 1 e1 00 5a
        E 2 e1 00 5b
        E 2 e1 00 5c
        E 1 e1 00 5d
        E 2 e1 00 5e
        E 2 e1 00 5f
        E 1 e1 00 60
        E 2 e1 00 61
        E 2 e1 00 62
        E 1 e1 00 63
        E 2 e1 00 64
        E 2 e1 00 65
        E 0 91 29 00
        E 0 91 30 00
        E 0 91 33 64
        E 0 91 2c 64
        E 1 e1 00 66
        E 2 e1 00 67
        E 2 e1 00 68
        E 1 e1 00 54
        E 2 e1 00 40
        E 52 91 2c 00
        E 0 91 33 00
        E 0 91 33 64
        E 0 91 2c 64
        E 30 91 2c 00
        E 0 91 33 00
        E 0 91 30 64
        E 0 91 29 64
        E 60 91 29 00
        E 0 91 30 00
        E 0 91 30 64
        E 0 91 29 64
        E 60 91 29 00
        E 0 91 30 00
        E 0 91 30 64
        E 0 91 29 64
        E 1 91 29 00
        E 0 91 30 00
        E 29 91 30 64
        E 0 91 29 64
        E 1 91 29 00
        E 0 91 30 00
        E 29 91 30 64
        E 0 91 29 64
        E 1 91 29 00
        E 0 91 30 00
        E 29 91 30 64
        E 0 91 29 64
        E 30 91 29 00
        E 0 91 30 00
        E 0 91 30 64
        E 0 91 29 64
        E 60 91 29 00
        E 0 91 30 00
        E 0 91 30 64
        E 0 91 29 64
        E 26 e1 00 40
        E 4 e1 00 41
        E 1 e1 00 42
        E 2 e1 00 43
        E 2 e1 00 44
        E 1 e1 00 45
        E 2 e1 00 46
        E 2 e1 00 47
        E 1 e1 00 48
        E 2 e1 00 49
        E 2 e1 00 4a
        E 1 e1 00 4b
        E 2 e1 00 4c
        E 2 e1 00 4d
        E 1 e1 00 4e
        E 2 e1 00 4f
        E 2 e1 00 50
        E 1 e1 00 51
        E 2 e1 00 52
        E 2 e1 00 53
        E 1 e1 00 54
        E 2 e1 00 55
        E 2 e1 00 56
        E 1 e1 00 57
        E 2 e1 00 58
        E 2 e1 00 59
        E 1 e1 00 5a
        E 2 e1 00 5b
        E 2 e1 00 5c
        E 1 e1 00 5d
        E 2 e1 00 5e
        E 2 e1 00 5f
        E 1 e1 00 60
        E 2 e1 00 61
        E 2 e1 00 62
        E 1 e1 00 63
        E 2 e1 00 64
        E 2 e1 00 65
        E 0 91 29 00
        E 0 91 30 00
        E 0 91 33 64
        E 0 91 2c 64
        E 1 e1 00 66
        E 2 e1 00 67
        E 2 e1 00 68
        E 1 e1 00 54
        E 2 e1 00 40
        E 52 91 2c 00
        E 0 91 33 00
        E 0 91 33 64
        E 0 91 2c 64
        E 30 91 2c 00
        E 0 91 33 00
        E 0 91 30 64
        E 0 91 29 64
        E 60 91 29 00
        E 0 91 30 00
        E 0 91 30 64
        E 0 91 29 64
        E 60 91 29 00
        E 0 91 30 00
        E 0 91 30 64
        E 0 91 29 64
        E 1 91 29 00
        E 0 91 30 00
        E 29 91 30 64
        E 0 91 29 64
        E 1 91 29 00
        E 0 91 30 00
        E 29 91 30 64
        E 0 91 29 64
        E 1 91 29 00
        E 0 91 30 00
        E 29 91 30 64
        E 0 91 29 64
        E 30 91 29 00
        E 0 91 30 00
        E 0 91 30 64
        E 0 91 29 64
        E 60 91 29 00
        E 0 91 30 00
        E 0 91 30 64
        E 0 91 29 64
        E 26 e1 00 40
        E 4 e1 00 41
        E 1 e1 00 42
        E 2 e1 00 43
        E 2 e1 00 44
        E 1 e1 00 45
        E 2 e1 00 46
        E 2 e1 00 47
        E 1 e1 00 48
        E 2 e1 00 49
        E 2 e1 00 4a
        E 1 e1 00 4b
        E 2 e1 00 4c
        E 2 e1 00 4d
        E 1 e1 00 4e
        E 2 e1 00 4f
        E 2 e1 00 50
        E 1 e1 00 51
        E 2 e1 00 52
        E 2 e1 00 53
        E 1 e1 00 54
        E 2 e1 00 55
        E 2 e1 00 56
        E 1 e1 00 57
        E 2 e1 00 58
        E 2 e1 00 59
        E 1 e1 00 5a
        E 2 e1 00 5b
        E 2 e1 00 5c
        E 1 e1 00 5d
        E 2 e1 00 5e
        E 2 e1 00 5f
        E 1 e1 00 60
        E 2 e1 00 61
        E 2 e1 00 62
        E 1 e1 00 63
        E 2 e1 00 64
        E 2 e1 00 65
        E 0 91 29 00
        E 0 91 30 00
        E 0 91 33 64
        E 0 91 2c 64
        E 1 e1 00 66
        E 2 e1 00 67
        E 2 e1 00 68
        E 1 e1 00 54
        E 2 e1 00 40
        E 52 91 2c 00
        E 0 91 33 00
        E 0 91 33 64
        E 0 91 2c 64
        E 30 91 2c 00
        E 0 91 33 00
        E 0 91 30 64
        E 0 91 29 64
        E 60 91 29 00
        E 0 91 30 00
        E 0 91 30 64
        E 0 91 29 64
        E 60 91 29 00
        E 0 91 30 00
        E 0 91 29 64
        E 0 91 30 64
        E 1 91 30 00
        E 0 91 29 00
        E 29 91 29 64
        E 0 91 30 64
        E 1 91 30 00
        E 0 91 29 00
        E 29 91 29 64
        E 0 91 30 64
        E 1 91 30 00
        E 0 91 29 00
        E 29 91 30 64
        E 0 91 29 64
        E 30 91 29 00
        E 0 91 30 00
        E 0 91 30 64
        E 0 91 29 64
        E 60 91 29 00
        E 0 91 30 00
        E 0 91 30 64
        E 0 91 29 64
        E 26 e1 00 40
        E 4 e1 00 41
        E 1 e1 00 42
        E 2 e1 00 43
        E 2 e1 00 44
        E 1 e1 00 45
        E 2 e1 00 46
        E 2 e1 00 47
        E 1 e1 00 48
        E 2 e1 00 49
        E 2 e1 00 4a
        E 1 e1 00 4b
        E 2 e1 00 4c
        E 2 e1 00 4d
        E 1 e1 00 4e
        E 2 e1 00 4f
        E 2 e1 00 50
        E 1 e1 00 51
        E 2 e1 00 52
        E 2 e1 00 53
        E 1 e1 00 54
        E 2 e1 00 55
        E 2 e1 00 56
        E 1 e1 00 57
        E 2 e1 00 58
        E 2 e1 00 59
        E 1 e1 00 5a
        E 2 e1 00 5b
        E 2 e1 00 5c
        E 1 e1 00 5d
        E 2 e1 00 5e
        E 2 e1 00 5f
        E 1 e1 00 60
        E 2 e1 00 61
        E 2 e1 00 62
        E 1 e1 00 63
        E 2 e1 00 64
        E 2 e1 00 65
        E 0 91 29 00
        E 0 91 30 00
        E 0 91 33 64
        E 0 91 2c 64
        E 1 e1 00 66
        E 2 e1 00 67
        E 2 e1 00 68
        E 1 e1 00 54
        E 2 e1 00 40
        E 52 91 2c 00
        E 0 91 33 00
        E 0 91 33 64
        E 0 91 2c 64
        E 30 91 2c 00
        E 0 91 33 00
        E 0 91 30 64
        E 0 91 29 64
        E 60 91 29 00
        E 0 91 30 00
        E 0 91 30 64
        E 0 91 29 64
        E 60 91 29 00
        E 0 91 30 00
        E 0 91 30 64
        E 0 91 29 64
        E 1 91 29 00
        E 0 91 30 00
        E 29 91 30 64
        E 0 91 29 64
        E 1 91 29 00
        E 0 91 30 00
        E 29 91 30 64
        E 0 91 29 64
        E 1 91 29 00
        E 0 91 30 00
        E 29 91 30 64
        E 0 91 29 64
        E 30 91 29 00
        E 0 91 30 00
        E 0 91 30 64
        E 0 91 29 64
        E 60 91 29 00
        E 0 91 30 00
        E 0 91 30 64
        E 0 91 29 64
        E 26 e1 00 40
        E 4 e1 00 41
        E 1 e1 00 42
        E 2 e1 00 43
        E 2 e1 00 44
        E 1 e1 00 45
        E 2 e1 00 46
        E 2 e1 00 47
        E 1 e1 00 48
        E 2 e1 00 49
        E 2 e1 00 4a
        E 1 e1 00 4b
        E 2 e1 00 4c
        E 2 e1 00 4d
        E 1 e1 00 4e
        E 2 e1 00 4f
        E 2 e1 00 50
        E 1 e1 00 51
        E 2 e1 00 52
        E 2 e1 00 53
        E 1 e1 00 54
        E 2 e1 00 55
        E 2 e1 00 56
        E 1 e1 00 57
        E 2 e1 00 58
        E 2 e1 00 59
        E 1 e1 00 5a
        E 2 e1 00 5b
        E 2 e1 00 5c
        E 1 e1 00 5d
        E 2 e1 00 5e
        E 2 e1 00 5f
        E 1 e1 00 60
        E 2 e1 00 61
        E 2 e1 00 62
        E 1 e1 00 63
        E 2 e1 00 64
        E 2 e1 00 65
        E 0 91 29 00
        E 0 91 30 00
        E 0 91 33 64
        E 0 91 2c 64
        E 1 e1 00 66
        E 2 e1 00 67
        E 2 e1 00 68
        E 1 e1 00 54
        E 2 e1 00 40
        E 52 91 2c 00
        E 0 91 33 00
        E 0 91 33 64
        E 0 91 2c 64
        E 30 91 2c 00
        E 0 91 33 00
        E 0 91 2e 64
        E 0 91 27 64
        E 90 91 27 00
        E 0 91 2e 00
        E 0 91 2e 64
        E 0 91 27 64
        E 30 91 27 00
        E 0 91 2e 00
        E 0 91 2e 64
        E 0 91 27 64
        E 30 91 27 00
        E 0 91 2e 00
        E 0 91 2e 64
        E 0 91 27 64
        E 30 91 27 00
        E 0 91 2e 00
        E 0 91 2e 64
        E 0 91 27 64
        E 30 91 27 00
        E 0 91 2e 00
        E 0 91 2e 64
        E 0 91 27 64
        E 30 91 27 00
        E 0 91 2e 00
        E 0 91 35 64
        E 0 91 2e 64
        E 90 91 2e 00
        E 0 91 35 00
        E 0 91 35 64
        E 0 91 2e 64
        E 30 91 2e 00
        E 0 91 35 00
        E 0 91 35 64
        E 0 91 2e 64
        E 30 91 2e 00
        E 0 91 35 00
        E 0 91 35 64
        E 0 91 2e 64
        E 30 91 2e 00
        E 0 91 35 00
        E 0 91 35 64
        E 0 91 2e 64
        E 30 91 2e 00
        E 0 91 35 00
        E 0 91 35 64
        E 0 91 2e 64
        E 30 91 2e 00
        E 0 91 35 00
        E 0 91 30 64
        E 0 91 29 64
        E 60 91 29 00
        E 0 91 30 00
        E 0 91 30 64
        E 0 91 29 64
        E 60 91 29 00
        E 0 91 30 00
        E 0 91 30 64
        E 0 91 29 64
        E 5 91 29 00
        E 0 91 30 00
        E 25 91 30 64
        E 0 91 29 64
        E 5 91 29 00
        E 0 91 30 00
        E 25 91 30 64
        E 0 91 29 64
        E 5 91 29 00
        E 0 91 30 00
        E 25 91 30 64
        E 0 91 29 64
        E 30 91 29 00
        E 0 91 30 00
        E 0 91 30 64
        E 0 91 29 64
        E 60 91 29 00
        E 0 91 30 00
        E 0 91 30 64
        E 0 91 29 64
        E 26 e1 00 40
        E 4 e1 00 41
        E 1 e1 00 42
        E 2 e1 00 43
        E 2 e1 00 44
        E 1 e1 00 45
        E 2 e1 00 46
        E 2 e1 00 47
        E 1 e1 00 48
        E 2 e1 00 49
        E 2 e1 00 4a
        E 1 e1 00 4b
        E 2 e1 00 4c
        E 2 e1 00 4d
        E 1 e1 00 4e
        E 2 e1 00 4f
        E 2 e1 00 50
        E 1 e1 00 51
        E 2 e1 00 52
        E 2 e1 00 53
        E 1 e1 00 54
        E 2 e1 00 55
        E 2 e1 00 56
        E 1 e1 00 57
        E 2 e1 00 58
        E 2 e1 00 59
        E 1 e1 00 5a
        E 2 e1 00 5b
        E 2 e1 00 5c
        E 1 e1 00 5d
        E 2 e1 00 5e
        E 2 e1 00 5f
        E 1 e1 00 60
        E 2 e1 00 61
        E 2 e1 00 62
        E 1 e1 00 63
        E 2 e1 00 64
        E 2 e1 00 65
        E 0 91 29 00
        E 0 91 30 00
        E 0 91 33 64
        E 0 91 2c 64
        E 1 e1 00 66
        E 2 e1 00 67
        E 2 e1 00 68
        E 1 e1 00 54
        E 2 e1 00 40
        E 52 91 2c 00
        E 0 91 33 00
        E 0 91 33 64
        E 0 91 2c 64
        E 30 91 2c 00
        E 0 91 33 00
        E 0 91 30 64
        E 0 91 29 64
        E 60 91 29 00
        E 0 91 30 00
        E 0 91 30 64
        E 0 91 29 64
        E 60 91 29 00
        E 0 91 30 00
        E 0 91 30 64
        E 0 91 29 64
        E 1 91 29 00
        E 0 91 30 00
        E 29 91 30 64
        E 0 91 29 64
        E 1 91 29 00
        E 0 91 30 00
        E 29 91 30 64
        E 0 91 29 64
        E 1 91 29 00
        E 0 91 30 00
        E 29 91 30 64
        E 0 91 29 64
        E 30 91 29 00
        E 0 91 30 00
        E 0 91 30 64
        E 0 91 29 64
        E 60 91 29 00
        E 0 91 30 00
        E 0 91 30 64
        E 0 91 29 64
        E 26 e1 00 40
        E 4 e1 00 41
        E 1 e1 00 42
        E 2 e1 00 43
        E 2 e1 00 44
        E 1 e1 00 45
        E 2 e1 00 46
        E 2 e1 00 47
        E 1 e1 00 48
        E 2 e1 00 49
        E 2 e1 00 4a
        E 1 e1 00 4b
        E 2 e1 00 4c
        E 2 e1 00 4d
        E 1 e1 00 4e
        E 2 e1 00 4f
        E 2 e1 00 50
        E 1 e1 00 51
        E 2 e1 00 52
        E 2 e1 00 53
        E 1 e1 00 54
        E 2 e1 00 55
        E 2 e1 00 56
        E 1 e1 00 57
        E 2 e1 00 58
        E 2 e1 00 59
        E 1 e1 00 5a
        E 2 e1 00 5b
        E 2 e1 00 5c
        E 1 e1 00 5d
        E 2 e1 00 5e
        E 2 e1 00 5f
        E 1 e1 00 60
        E 2 e1 00 61
        E 2 e1 00 62
        E 1 e1 00 63
        E 2 e1 00 64
        E 2 e1 00 65
        E 0 91 29 00
        E 0 91 30 00
        E 0 91 33 64
        E 0 91 2c 64
        E 1 e1 00 66
        E 2 e1 00 67
        E 2 e1 00 68
        E 1 e1 00 54
        E 2 e1 00 40
        E 52 91 2c 00
        E 0 91 33 00
        E 0 91 33 64
        E 0 91 2c 64
        E 30 91 2c 00
        E 0 91 33 00
        E 0 91 2e 64
        E 0 91 27 64
        E 90 91 27 00
        E 0 91 2e 00
        E 0 91 2e 64
        E 0 91 27 64
        E 30 91 27 00
        E 0 91 2e 00
        E 0 91 2e 64
        E 0 91 27 64
        E 30 91 27 00
        E 0 91 2e 00
        E 0 91 2e 64
        E 0 91 27 64
        E 30 91 27 00
        E 0 91 2e 00
        E 0 91 2e 64
        E 0 91 27 64
        E 30 91 27 00
        E 0 91 2e 00
        E 0 91 2e 64
        E 0 91 27 64
        E 30 91 27 00
        E 0 91 2e 00
        E 0 91 35 64
        E 0 91 2e 64
        E 90 91 2e 00
        E 0 91 35 00
        E 0 91 35 64
        E 0 91 2e 64
        E 30 91 2e 00
        E 0 91 35 00
        E 0 91 35 64
        E 0 91 2e 64
        E 30 91 2e 00
        E 0 91 35 00
        E 0 91 35 64
        E 0 91 2e 64
        E 30 91 2e 00
        E 0 91 35 00
        E 0 91 35 64
        E 0 91 2e 64
        E 30 91 2e 00
        E 0 91 35 00
        E 0 91 35 64
        E 0 91 2e 64
        E 30 91 2e 00
        E 0 91 35 00
        E 0 91 30 64
        E 0 91 29 64
        E 60 91 29 00
        E 0 91 30 00
        E 0 91 30 64
        E 0 91 29 64
        E 60 91 29 00
        E 0 91 30 00
        E 0 91 30 64
        E 0 91 29 64
        E 5 91 29 00
        E 0 91 30 00
        E 25 91 30 64
        E 0 91 29 64
        E 5 91 29 00
        E 0 91 30 00
        E 25 91 30 64
        E 0 91 29 64
        E 5 91 29 00
        E 0 91 30 00
        E 25 91 30 64
        E 0 91 29 64
        E 30 91 29 00
        E 0 91 30 00
        E 0 91 30 64
        E 0 91 29 64
        E 60 91 29 00
        E 0 91 30 00
        E 0 91 30 64
        E 0 91 29 64
        E 26 e1 00 40
        E 4 e1 00 41
        E 1 e1 00 42
        E 2 e1 00 43
        E 2 e1 00 44
        E 1 e1 00 45
        E 2 e1 00 46
        E 2 e1 00 47
        E 1 e1 00 48
        E 2 e1 00 49
        E 2 e1 00 4a
        E 1 e1 00 4b
        E 2 e1 00 4c
        E 2 e1 00 4d
        E 1 e1 00 4e
        E 2 e1 00 4f
        E 2 e1 00 50
        E 1 e1 00 51
        E 2 e1 00 52
        E 2 e1 00 53
        E 1 e1 00 54
        E 2 e1 00 55
        E 2 e1 00 56
        E 1 e1 00 57
        E 2 e1 00 58
        E 2 e1 00 59
        E 1 e1 00 5a
        E 2 e1 00 5b
        E 2 e1 00 5c
        E 1 e1 00 5d
        E 2 e1 00 5e
        E 2 e1 00 5f
        E 1 e1 00 60
        E 2 e1 00 61
        E 2 e1 00 62
        E 1 e1 00 63
        E 2 e1 00 64
        E 2 e1 00 65
        E 0 91 29 00
        E 0 91 30 00
        E 0 91 33 64
        E 0 91 2c 64
        E 1 e1 00 66
        E 2 e1 00 67
        E 2 e1 00 68
        E 1 e1 00 54
        E 2 e1 00 40
        E 52 91 2c 00
        E 0 91 33 00
        E 0 91 33 64
        E 0 91 2c 64
        E 30 91 2c 00
        E 0 91 33 00
        E 0 91 30 64
        E 0 91 29 64
        E 60 91 29 00
        E 0 91 30 00
        E 0 91 30 64
        E 0 91 29 64
        E 60 91 29 00
        E 0 91 30 00
        E 0 91 30 64
        E 0 91 29 64
        E 1 91 29 00
        E 0 91 30 00
        E 29 91 30 64
        E 0 91 29 64
        E 1 91 29 00
        E 0 91 30 00
        E 29 91 30 64
        E 0 91 29 64
        E 1 91 29 00
        E 0 91 30 00
        E 29 91 30 64
        E 0 91 29 64
        E 30 91 29 00
        E 0 91 30 00
        E 0 91 30 64
        E 0 91 29 64
        E 60 91 29 00
        E 0 91 30 00
        E 0 91 30 64
        E 0 91 29 64
        E 26 e1 00 40
        E 4 e1 00 41
        E 1 e1 00 42
        E 2 e1 00 43
        E 2 e1 00 44
        E 1 e1 00 45
        E 2 e1 00 46
        E 2 e1 00 47
        E 1 e1 00 48
        E 2 e1 00 49
        E 2 e1 00 4a
        E 1 e1 00 4b
        E 2 e1 00 4c
        E 2 e1 00 4d
        E 1 e1 00 4e
        E 2 e1 00 4f
        E 2 e1 00 50
        E 1 e1 00 51
        E 2 e1 00 52
        E 2 e1 00 53
        E 1 e1 00 54
        E 2 e1 00 55
        E 2 e1 00 56
        E 1 e1 00 57
        E 2 e1 00 58
        E 2 e1 00 59
        E 1 e1 00 5a
        E 2 e1 00 5b
        E 2 e1 00 5c
        E 1 e1 00 5d
        E 2 e1 00 5e
        E 2 e1 00 5f
        E 1 e1 00 60
        E 2 e1 00 61
        E 2 e1 00 62
        E 1 e1 00 63
        E 2 e1 00 64
        E 2 e1 00 65
        E 0 91 29 00
        E 0 91 30 00
        E 0 91 33 64
        E 0 91 2c 64
        E 1 e1 00 66
        E 2 e1 00 67
        E 2 e1 00 68
        E 1 e1 00 54
        E 2 e1 00 40
        E 52 91 2c 00
        E 0 91 33 00
        E 0 91 33 64
        E 0 91 2c 64
        E 30 91 2c 00
        E 0 91 33 00
        E 0 91 2e 64
        E 0 91 27 64
        E 90 91 27 00
        E 0 91 2e 00
        E 0 91 2e 64
        E 0 91 27 64
        E 30 91 27 00
        E 0 91 2e 00
        E 0 91 2e 64
        E 0 91 27 64
        E 30 91 27 00
        E 0 91 2e 00
        E 0 91 2e 64
        E 0 91 27 64
        E 30 91 27 00
        E 0 91 2e 00
        E 0 91 2e 64
        E 0 91 27 64
        E 30 91 27 00
        E 0 91 2e 00
        E 0 91 2e 64
        E 0 91 27 64
        E 30 91 27 00
        E 0 91 2e 00
        E 0 91 35 64
        E 0 91 2e 64
        E 90 91 2e 00
        E 0 91 35 00
        E 0 91 35 64
        E 0 91 2e 64
        E 30 91 2e 00
        E 0 91 35 00
        E 0 91 35 64
        E 0 91 2e 64
        E 30 91 2e 00
        E 0 91 35 00
        E 0 91 35 64
        E 0 91 2e 64
        E 30 91 2e 00
        E 0 91 35 00
        E 0 91 35 64
        E 0 91 2e 64
        E 30 91 2e 00
        E 0 91 35 00
        E 0 91 35 64
        E 0 91 2e 64
        E 30 91 2e 00
        E 0 91 35 00
        E 0 91 30 64
        E 0 91 29 64
        E 60 91 29 00
        E 0 91 30 00
        E 0 91 30 64
        E 0 91 29 64
        E 60 91 29 00
        E 0 91 30 00
        E 0 91 30 64
        E 0 91 29 64
        E 1 91 29 00
        E 0 91 30 00
        E 29 91 30 64
        E 0 91 29 64
        E 1 91 29 00
        E 0 91 30 00
        E 29 91 30 64
        E 0 91 29 64
        E 1 91 29 00
        E 0 91 30 00
        E 29 91 30 64
        E 0 91 29 64
        E 30 91 29 00
        E 0 91 30 00
        E 0 91 30 64
        E 0 91 29 64
        E 60 91 29 00
        E 0 91 30 00
        E 0 91 30 64
        E 0 91 29 64
        E 26 e1 00 40
        E 4 e1 00 41
        E 1 e1 00 42
        E 2 e1 00 43
        E 2 e1 00 44
        E 1 e1 00 45
        E 2 e1 00 46
        E 2 e1 00 47
        E 1 e1 00 48
        E 2 e1 00 49
        E 2 e1 00 4a
        E 1 e1 00 4b
        E 2 e1 00 4c
        E 2 e1 00 4d
        E 1 e1 00 4e
        E 2 e1 00 4f
        E 2 e1 00 50
        E 1 e1 00 51
        E 2 e1 00 52
        E 2 e1 00 53
        E 1 e1 00 54
        E 2 e1 00 55
        E 2 e1 00 56
        E 1 e1 00 57
        E 2 e1 00 58
        E 2 e1 00 59
        E 1 e1 00 5a
        E 2 e1 00 5b
        E 2 e1 00 5c
        E 1 e1 00 5d
        E 2 e1 00 5e
        E 2 e1 00 5f
        E 1 e1 00 60
        E 2 e1 00 61
        E 2 e1 00 62
        E 1 e1 00 63
        E 2 e1 00 64
        E 2 e1 00 65
        E 0 91 29 00
        E 0 91 30 00
        E 0 91 33 64
        E 0 91 2c 64
        E 1 e1 00 66
        E 2 e1 00 67
        E 2 e1 00 68
        E 1 e1 00 54
        E 2 e1 00 40
        E 52 91 2c 00
        E 0 91 33 00
        E 0 91 33 64
        E 0 91 2c 64
        E 30 91 2c 00
        E 0 91 33 00
        E 0 91 2e 64
        E 0 91 27 64
        E 90 91 27 00
        E 0 91 2e 00
        E 0 91 2e 64
        E 0 91 27 64
        E 30 91 27 00
        E 0 91 2e 00
        E 0 91 2e 64
        E 0 91 27 64
        E 30 91 27 00
        E 0 91 2e 00
        E 0 91 2e 64
        E 0 91 27 64
        E 30 91 27 00
        E 0 91 2e 00
        E 0 91 2e 64
        E 0 91 27 64
        E 30 91 27 00
        E 0 91 2e 00
        E 0 91 2e 64
        E 0 91 27 64
        E 30 91 27 00
        E 0 91 2e 00
        E 0 91 35 64
        E 0 91 2e 64
        E 90 91 2e 00
        E 0 91 35 00
        E 0 91 35 64
        E 0 91 2e 64
        E 30 91 2e 00
        E 0 91 35 00
        E 0 91 35 64
        E 0 91 2e 64
        E 30 91 2e 00
        E 0 91 35 00
        E 0 91 35 64
        E 0 91 2e 64
        E 30 91 2e 00
        E 0 91 35 00
        E 0 91 35 64
        E 0 91 2e 64
        E 30 91 2e 00
        E 0 91 35 00
        E 0 91 35 64
        E 0 91 2e 64
        E 30 91 2e 00
        E 0 91 35 00
        E 0 91 30 64
        E 0 91 29 64
        E 60 91 29 00
        E 0 91 30 00
        E 0 91 30 64
        E 0 91 29 64
        E 60 91 29 00
        E 0 91 30 00
        E 0 91 30 64
        E 0 91 29 64
        E 1 91 29 00
        E 0 91 30 00
        E 29 91 30 64
        E 0 91 29 64
        E 1 91 29 00
        E 0 91 30 00
        E 29 91 30 64
        E 0 91 29 64
        E 1 91 29 00
        E 0 91 30 00
        E 29 91 30 64
        E 0 91 29 64
        E 30 91 29 00
        E 0 91 30 00
        E 0 91 30 64
        E 0 91 29 64
        E 60 91 29 00
        E 0 91 30 00
        E 0 91 30 64
        E 0 91 29 64
        E 26 e1 00 40
        E 4 e1 00 41
        E 1 e1 00 42
        E 2 e1 00 43
        E 2 e1 00 44
        E 1 e1 00 45
        E 2 e1 00 46
        E 2 e1 00 47
        E 1 e1 00 48
        E 2 e1 00 49
        E 2 e1 00 4a
        E 1 e1 00 4b
        E 2 e1 00 4c
        E 2 e1 00 4d
        E 1 e1 00 4e
        E 2 e1 00 4f
        E 2 e1 00 50
        E 1 e1 00 51
        E 2 e1 00 52
        E 2 e1 00 53
        E 1 e1 00 54
        E 2 e1 00 55
        E 2 e1 00 56
        E 1 e1 00 57
        E 2 e1 00 58
        E 2 e1 00 59
        E 1 e1 00 5a
        E 2 e1 00 5b
        E 2 e1 00 5c
        E 1 e1 00 5d
        E 2 e1 00 5e
        E 2 e1 00 5f
        E 1 e1 00 60
        E 2 e1 00 61
        E 2 e1 00 62
        E 1 e1 00 63
        E 2 e1 00 64
        E 2 e1 00 65
        E 0 91 29 00
        E 0 91 30 00
        E 0 91 33 64
        E 0 91 2c 64
        E 1 e1 00 66
        E 2 e1 00 67
        E 2 e1 00 68
        E 1 e1 00 54
        E 2 e1 00 40
        E 52 91 2c 00
        E 0 91 33 00
        E 0 91 33 64
        E 0 91 2c 64
        E 30 91 2c 00
        E 0 91 33 00
        E 0 91 2e 64
        E 0 91 27 64
        E 90 91 27 00
        E 0 91 2e 00
        E 0 91 2e 64
        E 0 91 27 64
        E 30 91 27 00
        E 0 91 2e 00
        E 0 91 2e 64
        E 0 91 27 64
        E 30 91 27 00
        E 0 91 2e 00
        E 0 91 2e 64
        E 0 91 27 64
        E 30 91 27 00
        E 0 91 2e 00
        E 0 91 2e 64
        E 0 91 27 64
        E 30 91 27 00
        E 0 91 2e 00
        E 0 91 2e 64
        E 0 91 27 64
        E 30 91 27 00
        E 0 91 2e 00
        E 0 91 35 64
        E 0 91 2e 64
        E 90 91 2e 00
        E 0 91 35 00
        E 0 91 35 64
        E 0 91 2e 64
        E 30 91 2e 00
        E 0 91 35 00
        E 0 91 35 64
        E 0 91 2e 64
        E 30 91 2e 00
        E 0 91 35 00
        E 0 91 35 64
        E 0 91 2e 64
        E 30 91 2e 00
        E 0 91 35 00
        E 0 91 35 64
        E 0 91 2e 64
        E 30 91 2e 00
        E 0 91 35 00
        E 0 91 35 64
        E 0 91 2e 64
        E 30 91 2e 00
        E 0 91 35 00
        E 0 91 30 64
        E 0 91 29 64
        E 60 91 29 00
        E 0 91 30 00
        E 0 91 30 64
        E 0 91 29 64
        E 60 91 29 00
        E 0 91 30 00
        E 0 91 30 64
        E 0 91 29 64
        E 1 91 29 00
        E 0 91 30 00
        E 29 91 30 64
        E 0 91 29 64
        E 1 91 29 00
        E 0 91 30 00
        E 29 91 30 64
        E 0 91 29 64
        E 1 91 29 00
        E 0 91 30 00
        E 29 91 30 64
        E 0 91 29 64
        E 30 91 29 00
        E 0 91 30 00
        E 0 91 30 64
        E 0 91 29 64
        E 60 91 29 00
        E 0 91 30 00
        E 0 91 30 64
        E 0 91 29 64
        E 26 e1 00 40
        E 4 e1 00 41
        E 1 e1 00 42
        E 2 e1 00 43
        E 2 e1 00 44
        E 1 e1 00 45
        E 2 e1 00 46
        E 2 e1 00 47
        E 1 e1 00 48
        E 2 e1 00 49
        E 2 e1 00 4a
        E 1 e1 00 4b
        E 2 e1 00 4c
        E 2 e1 00 4d
        E 1 e1 00 4e
        E 2 e1 00 4f
        E 2 e1 00 50
        E 1 e1 00 51
        E 2 e1 00 52
        E 2 e1 00 53
        E 1 e1 00 54
        E 2 e1 00 55
        E 2 e1 00 56
        E 1 e1 00 57
        E 2 e1 00 58
        E 2 e1 00 59
        E 1 e1 00 5a
        E 2 e1 00 5b
        E 2 e1 00 5c
        E 1 e1 00 5d
        E 2 e1 00 5e
        E 2 e1 00 5f
        E 1 e1 00 60
        E 2 e1 00 61
        E 2 e1 00 62
        E 1 e1 00 63
        E 2 e1 00 64
        E 2 e1 00 65
        E 0 91 29 00
        E 0 91 30 00
        E 0 91 33 64
        E 0 91 2c 64
        E 1 e1 00 66
        E 2 e1 00 67
        E 2 e1 00 68
        E 1 e1 00 54
        E 2 e1 00 40
        E 52 91 2c 00
        E 0 91 33 00
        E 0 91 33 64
        E 0 91 2c 64
        E 30 91 2c 00
        E 0 91 33 00
        E 0 91 2e 64
        E 0 91 27 64
        E 90 91 27 00
        E 0 91 2e 00
        E 0 91 2e 64
        E 0 91 27 64
        E 30 91 27 00
        E 0 91 2e 00
        E 0 91 2e 64
        E 0 91 27 64
        E 30 91 27 00
        E 0 91 2e 00
        E 0 91 2e 64
        E 0 91 27 64
        E 30 91 27 00
        E 0 91 2e 00
        E 0 91 2e 64
        E 0 91 27 64
        E 30 91 27 00
        E 0 91 2e 00
        E 0 91 2e 64
        E 0 91 27 64
        E 30 91 27 00
        E 0 91 2e 00
        E 0 91 35 64
        E 0 91 2e 64
        E 90 91 2e 00
        E 0 91 35 00
        E 0 91 35 64
        E 0 91 2e 64
        E 30 91 2e 00
        E 0 91 35 00
        E 0 91 35 64
        E 0 91 2e 64
        E 30 91 2e 00
        E 0 91 35 00
        E 0 91 35 64
        E 0 91 2e 64
        E 30 91 2e 00
        E 0 91 35 00
        E 0 91 35 64
        E 0 91 2e 64
        E 30 91 2e 00
        E 0 91 35 00
        E 0 91 35 64
        E 0 91 2e 64
        E 30 91 2e 00
        E 0 91 35 00
        E 0 91 30 64
        E 0 91 29 64
        E 60 91 29 00
        E 0 91 30 00
        E 0 91 30 64
        E 0 91 29 64
        E 60 91 29 00
        E 0 91 30 00
        E 0 91 30 64
        E 0 91 29 64
        E 5 91 29 00
        E 0 91 30 00
        E 25 91 30 64
        E 0 91 29 64
        E 5 91 29 00
        E 0 91 30 00
        E 25 91 30 64
        E 0 91 29 64
        E 5 91 29 00
        E 0 91 30 00
        E 25 91 30 64
        E 0 91 29 64
        E 30 91 29 00
        E 0 91 30 00
        E 0 91 30 64
        E 0 91 29 64
        E 60 91 29 00
        E 0 91 30 00
        E 0 91 30 64
        E 0 91 29 64
        E 26 e1 00 40
        E 4 e1 00 41
        E 1 e1 00 42
        E 2 e1 00 43
        E 2 e1 00 44
        E 1 e1 00 45
        E 2 e1 00 46
        E 2 e1 00 47
        E 1 e1 00 48
        E 2 e1 00 49
        E 2 e1 00 4a
        E 1 e1 00 4b
        E 2 e1 00 4c
        E 2 e1 00 4d
        E 1 e1 00 4e
        E 2 e1 00 4f
        E 2 e1 00 50
        E 1 e1 00 51
        E 2 e1 00 52
        E 2 e1 00 53
        E 1 e1 00 54
        E 2 e1 00 55
        E 2 e1 00 56
        E 1 e1 00 57
        E 2 e1 00 58
        E 2 e1 00 59
        E 1 e1 00 5a
        E 2 e1 00 5b
        E 2 e1 00 5c
        E 1 e1 00 5d
        E 2 e1 00 5e
        E 2 e1 00 5f
        E 1 e1 00 60
        E 2 e1 00 61
        E 2 e1 00 62
        E 1 e1 00 63
        E 2 e1 00 64
        E 2 e1 00 65
        E 0 91 29 00
        E 0 91 30 00
        E 0 91 33 64
        E 0 91 2c 64
        E 1 e1 00 66
        E 2 e1 00 67
        E 2 e1 00 68
        E 1 e1 00 54
        E 2 e1 00 40
        E 52 91 2c 00
        E 0 91 33 00
        E 0 91 33 64
        E 0 91 2c 64
        E 30 91 2c 00
        E 0 91 33 00
        E 0 91 30 64
        E 0 91 29 64
        E 60 91 29 00
        E 0 91 30 00
        E 0 91 30 64
        E 0 91 29 64
        E 60 91 29 00
        E 0 91 30 00
        E 0 91 30 64
        E 0 91 29 64
        E 1 91 29 00
        E 0 91 30 00
        E 29 91 30 64
        E 0 91 29 64
        E 1 91 29 00
        E 0 91 30 00
        E 29 91 30 64
        E 0 91 29 64
        E 1 91 29 00
        E 0 91 30 00
        E 29 91 30 64
        E 0 91 29 64
        E 30 91 29 00
        E 0 91 30 00
        E 0 91 30 64
        E 0 91 29 64
        E 60 91 29 00
        E 0 91 30 00
        E 0 91 30 64
        E 0 91 29 64
        E 26 e1 00 40
        E 4 e1 00 41
        E 1 e1 00 42
        E 2 e1 00 43
        E 2 e1 00 44
        E 1 e1 00 45
        E 2 e1 00 46
        E 2 e1 00 47
        E 1 e1 00 48
        E 2 e1 00 49
        E 2 e1 00 4a
        E 1 e1 00 4b
        E 2 e1 00 4c
        E 2 e1 00 4d
        E 1 e1 00 4e
        E 2 e1 00 4f
        E 2 e1 00 50
        E 1 e1 00 51
        E 2 e1 00 52
        E 2 e1 00 53
        E 1 e1 00 54
        E 2 e1 00 55
        E 2 e1 00 56
        E 1 e1 00 57
        E 2 e1 00 58
        E 2 e1 00 59
        E 1 e1 00 5a
        E 2 e1 00 5b
        E 2 e1 00 5c
        E 1 e1 00 5d
        E 2 e1 00 5e
        E 2 e1 00 5f
        E 1 e1 00 60
        E 2 e1 00 61
        E 2 e1 00 62
        E 1 e1 00 63
        E 2 e1 00 64
        E 2 e1 00 65
        E 0 91 29 00
        E 0 91 30 00
        E 0 91 33 64
        E 0 91 2c 64
        E 1 e1 00 66
        E 2 e1 00 67
        E 2 e1 00 68
        E 1 e1 00 54
        E 2 e1 00 40
        E 52 91 2c 00
        E 0 91 33 00
        E 0 91 33 64
        E 0 91 2c 64
        E 30 91 2c 00
        E 0 91 33 00
        E 0 91 30 64
        E 0 91 29 64
        E 60 91 29 00
        E 0 91 30 00
        E 0 91 30 64
        E 0 91 29 64
        E 60 91 29 00
        E 0 91 30 00
        E 0 91 30 64
        E 0 91 29 64
        E 1 91 29 00
        E 0 91 30 00
        E 29 91 30 64
        E 0 91 29 64
        E 1 91 29 00
        E 0 91 30 00
        E 29 91 30 64
        E 0 91 29 64
        E 1 91 29 00
        E 0 91 30 00
        E 29 91 30 64
        E 0 91 29 64
        E 30 91 29 00
        E 0 91 30 00
        E 0 91 30 64
        E 0 91 29 64
        E 60 91 29 00
        E 0 91 30 00
        E 0 91 30 64
        E 0 91 29 64
        E 26 e1 00 40
        E 4 e1 00 41
        E 1 e1 00 42
        E 2 e1 00 43
        E 2 e1 00 44
        E 1 e1 00 45
        E 2 e1 00 46
        E 2 e1 00 47
        E 1 e1 00 48
        E 2 e1 00 49
        E 2 e1 00 4a
        E 1 e1 00 4b
        E 2 e1 00 4c
        E 2 e1 00 4d
        E 1 e1 00 4e
        E 2 e1 00 4f
        E 2 e1 00 50
        E 1 e1 00 51
        E 2 e1 00 52
        E 2 e1 00 53
        E 1 e1 00 54
        E 2 e1 00 55
        E 2 e1 00 56
        E 1 e1 00 57
        E 2 e1 00 58
        E 2 e1 00 59
        E 1 e1 00 5a
        E 2 e1 00 5b
        E 2 e1 00 5c
        E 1 e1 00 5d
        E 2 e1 00 5e
        E 2 e1 00 5f
        E 1 e1 00 60
        E 2 e1 00 61
        E 2 e1 00 62
        E 1 e1 00 63
        E 2 e1 00 64
        E 2 e1 00 65
        E 0 91 29 00
        E 0 91 30 00
        E 0 91 33 64
        E 0 91 2c 64
        E 1 e1 00 66
        E 2 e1 00 67
        E 2 e1 00 68
        E 1 e1 00 54
        E 2 e1 00 40
        E 52 91 2c 00
        E 0 91 33 00
        E 0 91 33 64
        E 0 91 2c 64
        E 30 91 2c 00
        E 0 91 33 00
        E 0 91 30 64
        E 0 91 29 64
        E 60 91 29 00
        E 0 91 30 00
        E 0 91 30 64
        E 0 91 29 64
        E 419 91 29 00
        E 0 91 30 00
        E 1 b0 7b 00
        GUID {EE104650-B1AE-4143-92AF-3D31D93F0139}
        IGNTEMPO 0 120.00000000 4 4
        SRCCOLOR 1219
        VELLANE -1 111 0
        CFGEDITVIEW 28090.074710 0.407767 52 12 0 0 0 0 0
        KEYSNAP 0 0 "102034050607" 0 "Major"
        TRACKSEL 226 0 0
        EVTFILTER 0 -1 -1 -1 -1 0 1 0 0 -1.00000000 -1.00000000
        CFGEDIT 1 1 0 1 0 0 1 0 1 1 1 0.12500000 348 193 1520 872 0 0 0 0 0.00000000 0 0 0 0 0.500000 0 0 1.000000 64
      >
    >
  >
  <TRACK '{04B5580B-4F82-4E23-A557-BE3D93593C51}'
    NAME "Overdrive Guitar - AvaAdore.midi"
    PEAKCOL 16576
    BEAT -1
    AUTOMODE 0
    VOLPAN 1.00000000000000 0.00000000000000 -1.00000000000000 -1.00000000000000 1.00000000000000
    MUTESOLO 1 0 0
    IPHASE 0
    ISBUS 0 0
    BUSCOMP 0 0
    SHOWINMIX 1 0.666700 0.500000 1 0.500000 0 -1 0
    FREEMODE 0
    SEL 0
    REC 0 0 0 0 0 0 0
    VU 2
    TRACKHEIGHT 0 0
    INQ 0 0 0 0.5000000000 100 0 0 100
    NCHAN 2
    FX 1
    TRACKID {04B5580B-4F82-4E23-A557-BE3D93593C51}
    PERF 0
    MIDIOUT 0
    MAINSEND 1 0
    <ITEM
      POSITION 0.00000000000000
      SNAPOFFS 0.00000000000000
      LENGTH 260.84037200000000
      LOOP 1
      ALLTAKES 0
      SEL 0
      FADEIN 1 0.000000 0.000000 1 0 0.000000
      FADEOUT 1 0.000000 0.000000 1 0 0.000000
      MUTE 0
      IGUID {8057B5FD-CA3F-4908-BE30-0D0285A9E349}
      IID 3
      NAME "Overdrive Guitar - AvaAdore.midi.mid"
      VOLPAN 1.000000 0.000000 1.000000 -1.000000
      SOFFS 0.00000000000000 0.00000000000000
      PLAYRATE 1.00000000000000 1 0.00000000000000 -1 0 0.002500
      CHANMODE 0
      GUID {26E20E03-0C24-474E-B216-DBE6DACFBA49}
      <SOURCE MIDI
        HASDATA 1 120 QN
        POOLEDEVTS {D628B0FD-ACE1-45D0-939F-FB10FAF8CF29}
        <X 0 0
          /wNBdmEgQWRvcmU=
        >
        <X 0 0
          /wNNaXh0dXJlIG9mIFN0dWRpbyBhbmQgTGl2ZSBWZXJzaW9u
        >
        <X 0 0
          /wNPdmVyZHJpdmUgR3VpdGFy
        >
        <X 0 0
          /wFUaGlzIE1pZGkgZmlsZSBoYXMgYmVlbiBvcHRpbWlzZWQgZm9yIA==
          WEcgU3ludGhlc2lzZXJzLgo=
        >
        <X 0 0
          /wFDaGFubmVsIDEwIGFuZCAxMSBoYXZlIHRvIG1hZGUgdG8gYmUgZA==
          cnVtIGNoYW5uZWxzLgo=
        >
        <X 0 0
          /wFDaGFubmVsIDEwIGJlaW5nIGEgU3RhbmRhcmQgRHJ1bSBLaXQK
        >
        <X 0 0
          /wFDaGFubmVsIDExIGJlaW5nIGEgUm9jayBLaXQgKEJldHRlciBCYQ==
          c3MgRHJ1bSkK
        >
        E 0 b1 00 00
        E 0 b1 20 00
        E 0 c1 1d 00
        E 0 b1 07 78
        E 4320 91 35 64
        E 60 91 35 00
        E 0 91 35 64
        E 60 91 35 00
        E 90 91 35 64
        E 30 91 35 00
        E 0 91 35 64
        E 60 91 35 00
        E 0 91 35 64
        E 26 e1 00 40
        E 4 e1 00 41
        E 1 e1 00 42
        E 2 e1 00 43
        E 2 e1 00 44
        E 1 e1 00 45
        E 2 e1 00 46
        E 2 e1 00 47
        E 1 e1 00 48
        E 2 e1 00 49
        E 2 e1 00 4a
        E 1 e1 00 4b
        E 2 e1 00 4c
        E 2 e1 00 4d
        E 1 e1 00 4e
        E 2 e1 00 4f
        E 2 e1 00 50
        E 1 e1 00 51
        E 2 e1 00 52
        E 2 e1 00 53
        E 1 e1 00 54
        E 2 e1 00 55
        E 2 e1 00 56
        E 1 e1 00 57
        E 2 e1 00 58
        E 2 e1 00 59
        E 1 e1 00 5a
        E 2 e1 00 5b
        E 2 e1 00 5c
        E 1 e1 00 5d
        E 2 e1 00 5e
        E 2 e1 00 5f
        E 1 e1 00 60
        E 2 e1 00 61
        E 2 e1 00 62
        E 1 e1 00 63
        E 2 e1 00 64
        E 2 e1 00 65
        E 0 91 35 00
        E 0 91 38 64
        E 1 e1 00 66
        E 2 e1 00 67
        E 2 e1 00 68
        E 1 e1 00 54
        E 2 e1 00 40
        E 52 91 38 00
        E 0 91 38 64
        E 30 91 38 00
        E 0 91 35 64
        E 60 91 35 00
        E 0 91 35 64
        E 60 91 35 00
        E 90 91 35 64
        E 30 91 35 00
        E 0 91 35 64
        E 60 91 35 00
        E 0 91 35 64
        E 26 e1 00 40
        E 4 e1 00 41
        E 1 e1 00 42
        E 2 e1 00 43
        E 2 e1 00 44
        E 1 e1 00 45
        E 2 e1 00 46
        E 2 e1 00 47
        E 1 e1 00 48
        E 2 e1 00 49
        E 2 e1 00 4a
        E 1 e1 00 4b
        E 2 e1 00 4c
        E 2 e1 00 4d
        E 1 e1 00 4e
        E 2 e1 00 4f
        E 2 e1 00 50
        E 1 e1 00 51
        E 2 e1 00 52
        E 2 e1 00 53
        E 1 e1 00 54
        E 2 e1 00 55
        E 2 e1 00 56
        E 1 e1 00 57
        E 2 e1 00 58
        E 2 e1 00 59
        E 1 e1 00 5a
        E 2 e1 00 5b
        E 2 e1 00 5c
        E 1 e1 00 5d
        E 2 e1 00 5e
        E 2 e1 00 5f
        E 1 e1 00 60
        E 2 e1 00 61
        E 2 e1 00 62
        E 1 e1 00 63
        E 2 e1 00 64
        E 2 e1 00 65
        E 0 91 35 00
        E 0 91 38 64
        E 1 e1 00 66
        E 2 e1 00 67
        E 2 e1 00 68
        E 1 e1 00 54
        E 2 e1 00 40
        E 52 91 38 00
        E 0 91 38 64
        E 30 91 38 00
        E 0 91 35 64
        E 60 91 35 00
        E 0 91 35 64
        E 60 91 35 00
        E 90 91 35 64
        E 30 91 35 00
        E 0 91 35 64
        E 60 91 35 00
        E 0 91 35 64
        E 26 e1 00 40
        E 4 e1 00 41
        E 1 e1 00 42
        E 2 e1 00 43
        E 2 e1 00 44
        E 1 e1 00 45
        E 2 e1 00 46
        E 2 e1 00 47
        E 1 e1 00 48
        E 2 e1 00 49
        E 2 e1 00 4a
        E 1 e1 00 4b
        E 2 e1 00 4c
        E 2 e1 00 4d
        E 1 e1 00 4e
        E 2 e1 00 4f
        E 2 e1 00 50
        E 1 e1 00 51
        E 2 e1 00 52
        E 2 e1 00 53
        E 1 e1 00 54
        E 2 e1 00 55
        E 2 e1 00 56
        E 1 e1 00 57
        E 2 e1 00 58
        E 2 e1 00 59
        E 1 e1 00 5a
        E 2 e1 00 5b
        E 2 e1 00 5c
        E 1 e1 00 5d
        E 2 e1 00 5e
        E 2 e1 00 5f
        E 1 e1 00 60
        E 2 e1 00 61
        E 2 e1 00 62
        E 1 e1 00 63
        E 2 e1 00 64
        E 2 e1 00 65
        E 0 91 35 00
        E 0 91 38 64
        E 1 e1 00 66
        E 2 e1 00 67
        E 2 e1 00 68
        E 1 e1 00 54
        E 2 e1 00 40
        E 52 91 38 00
        E 0 91 38 64
        E 30 91 38 00
        E 0 91 35 64
        E 60 91 35 00
        E 0 91 35 64
        E 60 91 35 00
        E 90 91 35 64
        E 30 91 35 00
        E 0 91 35 64
        E 60 91 35 00
        E 0 91 35 64
        E 26 e1 00 40
        E 4 e1 00 41
        E 1 e1 00 42
        E 2 e1 00 43
        E 2 e1 00 44
        E 1 e1 00 45
        E 2 e1 00 46
        E 2 e1 00 47
        E 1 e1 00 48
        E 2 e1 00 49
        E 2 e1 00 4a
        E 1 e1 00 4b
        E 2 e1 00 4c
        E 2 e1 00 4d
        E 1 e1 00 4e
        E 2 e1 00 4f
        E 2 e1 00 50
        E 1 e1 00 51
        E 2 e1 00 52
        E 2 e1 00 53
        E 1 e1 00 54
        E 2 e1 00 55
        E 2 e1 00 56
        E 1 e1 00 57
        E 2 e1 00 58
        E 2 e1 00 59
        E 1 e1 00 5a
        E 2 e1 00 5b
        E 2 e1 00 5c
        E 1 e1 00 5d
        E 2 e1 00 5e
        E 2 e1 00 5f
        E 1 e1 00 60
        E 2 e1 00 61
        E 2 e1 00 62
        E 1 e1 00 63
        E 2 e1 00 64
        E 2 e1 00 65
        E 0 91 35 00
        E 0 91 38 64
        E 1 e1 00 66
        E 2 e1 00 67
        E 2 e1 00 68
        E 1 e1 00 54
        E 2 e1 00 40
        E 52 91 38 00
        E 0 91 38 64
        E 30 91 38 00
        E 6240 91 35 64
        E 60 91 35 00
        E 0 91 35 64
        E 60 91 35 00
        E 90 91 35 64
        E 30 91 35 00
        E 0 91 35 64
        E 60 91 35 00
        E 0 91 35 64
        E 26 e1 00 40
        E 4 e1 00 41
        E 1 e1 00 42
        E 2 e1 00 43
        E 2 e1 00 44
        E 1 e1 00 45
        E 2 e1 00 46
        E 2 e1 00 47
        E 1 e1 00 48
        E 2 e1 00 49
        E 2 e1 00 4a
        E 1 e1 00 4b
        E 2 e1 00 4c
        E 2 e1 00 4d
        E 1 e1 00 4e
        E 2 e1 00 4f
        E 2 e1 00 50
        E 1 e1 00 51
        E 2 e1 00 52
        E 2 e1 00 53
        E 1 e1 00 54
        E 2 e1 00 55
        E 2 e1 00 56
        E 1 e1 00 57
        E 2 e1 00 58
        E 2 e1 00 59
        E 1 e1 00 5a
        E 2 e1 00 5b
        E 2 e1 00 5c
        E 1 e1 00 5d
        E 2 e1 00 5e
        E 2 e1 00 5f
        E 1 e1 00 60
        E 2 e1 00 61
        E 2 e1 00 62
        E 1 e1 00 63
        E 2 e1 00 64
        E 2 e1 00 65
        E 0 91 35 00
        E 0 91 38 64
        E 1 e1 00 66
        E 2 e1 00 67
        E 2 e1 00 68
        E 1 e1 00 54
        E 2 e1 00 40
        E 52 91 38 00
        E 0 91 38 64
        E 30 91 38 00
        E 0 91 35 64
        E 60 91 35 00
        E 0 91 35 64
        E 60 91 35 00
        E 90 91 35 64
        E 30 91 35 00
        E 0 91 35 64
        E 60 91 35 00
        E 0 91 35 64
        E 26 e1 00 40
        E 4 e1 00 41
        E 1 e1 00 42
        E 2 e1 00 43
        E 2 e1 00 44
        E 1 e1 00 45
        E 2 e1 00 46
        E 2 e1 00 47
        E 1 e1 00 48
        E 2 e1 00 49
        E 2 e1 00 4a
        E 1 e1 00 4b
        E 2 e1 00 4c
        E 2 e1 00 4d
        E 1 e1 00 4e
        E 2 e1 00 4f
        E 2 e1 00 50
        E 1 e1 00 51
        E 2 e1 00 52
        E 2 e1 00 53
        E 1 e1 00 54
        E 2 e1 00 55
        E 2 e1 00 56
        E 1 e1 00 57
        E 2 e1 00 58
        E 2 e1 00 59
        E 1 e1 00 5a
        E 2 e1 00 5b
        E 2 e1 00 5c
        E 1 e1 00 5d
        E 2 e1 00 5e
        E 2 e1 00 5f
        E 1 e1 00 60
        E 2 e1 00 61
        E 2 e1 00 62
        E 1 e1 00 63
        E 2 e1 00 64
        E 2 e1 00 65
        E 0 91 35 00
        E 0 91 38 64
        E 1 e1 00 66
        E 2 e1 00 67
        E 2 e1 00 68
        E 1 e1 00 54
        E 2 e1 00 40
        E 52 91 38 00
        E 0 91 38 64
        E 30 91 38 00
        E 0 91 35 64
        E 60 91 35 00
        E 0 91 35 64
        E 60 91 35 00
        E 90 91 35 64
        E 30 91 35 00
        E 0 91 35 64
        E 60 91 35 00
        E 0 91 35 64
        E 26 e1 00 40
        E 4 e1 00 41
        E 1 e1 00 42
        E 2 e1 00 43
        E 2 e1 00 44
        E 1 e1 00 45
        E 2 e1 00 46
        E 2 e1 00 47
        E 1 e1 00 48
        E 2 e1 00 49
        E 2 e1 00 4a
        E 1 e1 00 4b
        E 2 e1 00 4c
        E 2 e1 00 4d
        E 1 e1 00 4e
        E 2 e1 00 4f
        E 2 e1 00 50
        E 1 e1 00 51
        E 2 e1 00 52
        E 2 e1 00 53
        E 1 e1 00 54
        E 2 e1 00 55
        E 2 e1 00 56
        E 1 e1 00 57
        E 2 e1 00 58
        E 2 e1 00 59
        E 1 e1 00 5a
        E 2 e1 00 5b
        E 2 e1 00 5c
        E 1 e1 00 5d
        E 2 e1 00 5e
        E 2 e1 00 5f
        E 1 e1 00 60
        E 2 e1 00 61
        E 2 e1 00 62
        E 1 e1 00 63
        E 2 e1 00 64
        E 2 e1 00 65
        E 0 91 35 00
        E 0 91 38 64
        E 1 e1 00 66
        E 2 e1 00 67
        E 2 e1 00 68
        E 1 e1 00 54
        E 2 e1 00 40
        E 52 91 38 00
        E 0 91 38 64
        E 30 91 38 00
        E 0 91 35 64
        E 60 91 35 00
        E 0 91 35 64
        E 60 91 35 00
        E 90 91 35 64
        E 30 91 35 00
        E 0 91 35 64
        E 60 91 35 00
        E 0 91 35 64
        E 26 e1 00 40
        E 4 e1 00 41
        E 1 e1 00 42
        E 2 e1 00 43
        E 2 e1 00 44
        E 1 e1 00 45
        E 2 e1 00 46
        E 2 e1 00 47
        E 1 e1 00 48
        E 2 e1 00 49
        E 2 e1 00 4a
        E 1 e1 00 4b
        E 2 e1 00 4c
        E 2 e1 00 4d
        E 1 e1 00 4e
        E 2 e1 00 4f
        E 2 e1 00 50
        E 1 e1 00 51
        E 2 e1 00 52
        E 2 e1 00 53
        E 1 e1 00 54
        E 2 e1 00 55
        E 2 e1 00 56
        E 1 e1 00 57
        E 2 e1 00 58
        E 2 e1 00 59
        E 1 e1 00 5a
        E 2 e1 00 5b
        E 2 e1 00 5c
        E 1 e1 00 5d
        E 2 e1 00 5e
        E 2 e1 00 5f
        E 1 e1 00 60
        E 2 e1 00 61
        E 2 e1 00 62
        E 1 e1 00 63
        E 2 e1 00 64
        E 2 e1 00 65
        E 0 91 35 00
        E 0 91 38 64
        E 1 e1 00 66
        E 2 e1 00 67
        E 2 e1 00 68
        E 1 e1 00 54
        E 2 e1 00 40
        E 52 91 38 00
        E 0 91 38 64
        E 30 91 38 00
        E 8640 91 35 64
        E 60 91 35 00
        E 0 91 35 64
        E 60 91 35 00
        E 90 91 35 64
        E 30 91 35 00
        E 0 91 35 64
        E 60 91 35 00
        E 0 91 35 64
        E 60 91 35 00
        E 90 91 35 64
        E 30 91 35 00
        E 3360 91 35 64
        E 0 91 29 64
        E 60 91 29 00
        E 0 91 35 00
        E 0 91 35 64
        E 0 91 29 64
        E 60 91 29 00
        E 0 91 35 00
        E 0 91 35 64
        E 0 91 29 64
        E 5 91 29 00
        E 0 91 35 00
        E 25 91 35 64
        E 0 91 29 64
        E 5 91 29 00
        E 0 91 35 00
        E 25 91 35 64
        E 0 91 29 64
        E 5 91 29 00
        E 0 91 35 00
        E 25 91 35 64
        E 0 91 29 64
        E 30 91 29 00
        E 0 91 35 00
        E 0 91 35 64
        E 0 91 29 64
        E 60 91 29 00
        E 0 91 35 00
        E 0 91 35 64
        E 0 91 29 64
        E 26 e1 00 40
        E 4 e1 00 41
        E 1 e1 00 42
        E 2 e1 00 43
        E 2 e1 00 44
        E 1 e1 00 45
        E 2 e1 00 46
        E 2 e1 00 47
        E 1 e1 00 48
        E 2 e1 00 49
        E 2 e1 00 4a
        E 1 e1 00 4b
        E 2 e1 00 4c
        E 2 e1 00 4d
        E 1 e1 00 4e
        E 2 e1 00 4f
        E 2 e1 00 50
        E 1 e1 00 51
        E 2 e1 00 52
        E 2 e1 00 53
        E 1 e1 00 54
        E 2 e1 00 55
        E 2 e1 00 56
        E 1 e1 00 57
        E 2 e1 00 58
        E 2 e1 00 59
        E 1 e1 00 5a
        E 2 e1 00 5b
        E 2 e1 00 5c
        E 1 e1 00 5d
        E 2 e1 00 5e
        E 2 e1 00 5f
        E 1 e1 00 60
        E 2 e1 00 61
        E 2 e1 00 62
        E 1 e1 00 63
        E 2 e1 00 64
        E 2 e1 00 65
        E 0 91 29 00
        E 0 91 35 00
        E 0 91 38 64
        E 0 91 2c 64
        E 1 e1 00 66
        E 2 e1 00 67
        E 2 e1 00 68
        E 1 e1 00 54
        E 2 e1 00 40
        E 52 91 2c 00
        E 0 91 38 00
        E 0 91 38 64
        E 0 91 2c 64
        E 30 91 2c 00
        E 0 91 38 00
        E 0 91 35 64
        E 0 91 29 64
        E 60 91 29 00
        E 0 91 35 00
        E 0 91 35 64
        E 0 91 29 64
        E 60 91 29 00
        E 0 91 35 00
        E 0 91 35 64
        E 0 91 29 64
        E 1 91 29 00
        E 0 91 35 00
        E 29 91 35 64
        E 0 91 29 64
        E 1 91 29 00
        E 0 91 35 00
        E 29 91 35 64
        E 0 91 29 64
        E 1 91 29 00
        E 0 91 35 00
        E 29 91 35 64
        E 0 91 29 64
        E 30 91 29 00
        E 0 91 35 00
        E 0 91 35 64
        E 0 91 29 64
        E 60 91 29 00
        E 0 91 35 00
        E 0 91 35 64
        E 0 91 29 64
        E 26 e1 00 40
        E 4 e1 00 41
        E 1 e1 00 42
        E 2 e1 00 43
        E 2 e1 00 44
        E 1 e1 00 45
        E 2 e1 00 46
        E 2 e1 00 47
        E 1 e1 00 48
        E 2 e1 00 49
        E 2 e1 00 4a
        E 1 e1 00 4b
        E 2 e1 00 4c
        E 2 e1 00 4d
        E 1 e1 00 4e
        E 2 e1 00 4f
        E 2 e1 00 50
        E 1 e1 00 51
        E 2 e1 00 52
        E 2 e1 00 53
        E 1 e1 00 54
        E 2 e1 00 55
        E 2 e1 00 56
        E 1 e1 00 57
        E 2 e1 00 58
        E 2 e1 00 59
        E 1 e1 00 5a
        E 2 e1 00 5b
        E 2 e1 00 5c
        E 1 e1 00 5d
        E 2 e1 00 5e
        E 2 e1 00 5f
        E 1 e1 00 60
        E 2 e1 00 61
        E 2 e1 00 62
        E 1 e1 00 63
        E 2 e1 00 64
        E 2 e1 00 65
        E 0 91 29 00
        E 0 91 35 00
        E 0 91 38 64
        E 0 91 2c 64
        E 1 e1 00 66
        E 2 e1 00 67
        E 2 e1 00 68
        E 1 e1 00 54
        E 2 e1 00 40
        E 52 91 2c 00
        E 0 91 38 00
        E 0 91 38 64
        E 0 91 2c 64
        E 30 91 2c 00
        E 0 91 38 00
        E 0 91 33 64
        E 0 91 27 64
        E 90 91 27 00
        E 0 91 33 00
        E 0 91 33 64
        E 0 91 27 64
        E 30 91 27 00
        E 0 91 33 00
        E 0 91 33 64
        E 0 91 27 64
        E 30 91 27 00
        E 0 91 33 00
        E 0 91 33 64
        E 0 91 27 64
        E 30 91 27 00
        E 0 91 33 00
        E 0 91 33 64
        E 0 91 27 64
        E 30 91 27 00
        E 0 91 33 00
        E 0 91 33 64
        E 0 91 27 64
        E 30 91 27 00
        E 0 91 33 00
        E 0 91 3a 64
        E 0 91 2e 64
        E 90 91 2e 00
        E 0 91 3a 00
        E 0 91 3a 64
        E 0 91 2e 64
        E 30 91 2e 00
        E 0 91 3a 00
        E 0 91 3a 64
        E 0 91 2e 64
        E 30 91 2e 00
        E 0 91 3a 00
        E 0 91 3a 64
        E 0 91 2e 64
        E 30 91 2e 00
        E 0 91 3a 00
        E 0 91 3a 64
        E 0 91 2e 64
        E 30 91 2e 00
        E 0 91 3a 00
        E 0 91 3a 64
        E 0 91 2e 64
        E 30 91 2e 00
        E 0 91 3a 00
        E 0 91 38 64
        E 30 91 38 00
        E 0 91 38 64
        E 30 91 38 00
        E 0 91 3a 64
        E 30 91 3a 00
        E 0 91 3a 64
        E 30 91 3a 00
        E 0 91 3c 64
        E 30 91 3c 00
        E 0 91 3c 64
        E 30 91 3c 00
        E 0 91 3d 64
        E 30 91 3d 00
        E 0 91 3d 64
        E 30 91 3d 00
        E 0 91 3f 64
        E 30 91 3f 00
        E 0 91 3f 64
        E 30 91 3f 00
        E 0 91 41 64
        E 30 91 41 00
        E 0 91 41 64
        E 30 91 41 00
        E 0 91 42 64
        E 30 91 42 00
        E 0 91 42 64
        E 30 91 42 00
        E 0 91 44 64
        E 30 91 44 00
        E 0 91 44 64
        E 30 91 44 00
        E 0 91 4b 64
        E 120 91 4b 00
        E 0 91 49 64
        E 30 91 49 00
        E 0 91 48 64
        E 30 91 48 00
        E 0 91 49 64
        E 30 91 49 00
        E 0 91 48 64
        E 90 91 48 00
        E 0 91 49 64
        E 30 91 49 00
        E 0 91 48 64
        E 60 91 48 00
        E 0 91 46 64
        E 90 91 46 00
        E 0 91 48 64
        E 120 91 48 00
        E 0 91 46 64
        E 30 91 46 00
        E 0 91 48 64
        E 30 91 48 00
        E 0 91 46 64
        E 30 91 46 00
        E 0 91 44 64
        E 90 91 44 00
        E 0 91 46 64
        E 30 91 46 00
        E 0 91 48 64
        E 60 91 48 00
        E 0 91 46 64
        E 30 91 44 64
        E 15 91 46 00
        E 30 91 44 00
        E 15 e1 00 40
        E 0 91 46 64
        E 13 e1 00 41
        E 10 e1 00 42
        E 10 e1 00 43
        E 13 e1 00 44
        E 10 e1 00 45
        E 10 e1 00 46
        E 10 e1 00 47
        E 14 e1 00 48
        E 10 e1 00 49
        E 10 e1 00 4a
        E 10 e1 00 4b
        E 13 e1 00 4c
        E 10 e1 00 4d
        E 10 e1 00 4e
        E 13 e1 00 4f
        E 10 e1 00 50
        E 10 e1 00 51
        E 10 e1 00 52
        E 14 e1 00 53
        E 10 e1 00 54
        E 10 e1 00 55
        E 10 e1 00 56
        E 13 e1 00 57
        E 10 e1 00 58
        E 10 e1 00 59
        E 13 e1 00 5a
        E 10 e1 00 5b
        E 10 e1 00 5c
        E 10 e1 00 5d
        E 14 e1 00 5e
        E 10 e1 00 5f
        E 10 e1 00 60
        E 10 e1 00 62
        E 20 e1 00 61
        E 3 e1 00 60
        E 10 e1 00 5f
        E 3 e1 00 5e
        E 4 e1 00 5d
        E 10 e1 00 5c
        E 6 e1 00 5b
        E 7 e1 00 59
        E 3 e1 00 58
        E 4 e1 00 55
        E 3 e1 00 54
        E 3 e1 00 53
        E 4 e1 00 52
        E 3 e1 00 51
        E 3 e1 00 4f
        E 7 e1 00 4e
        E 3 e1 00 4d
        E 4 e1 00 4b
        E 3 e1 00 4a
        E 3 e1 00 49
        E 4 e1 00 48
        E 3 e1 00 47
        E 3 e1 00 42
        E 4 e1 00 40
        E 0 91 46 00
        E 5280 91 35 64
        E 60 91 35 00
        E 0 91 35 64
        E 60 91 35 00
        E 90 91 35 64
        E 30 91 35 00
        E 0 91 35 64
        E 60 91 35 00
        E 0 91 35 64
        E 26 e1 00 40
        E 4 e1 00 41
        E 1 e1 00 42
        E 2 e1 00 43
        E 2 e1 00 44
        E 1 e1 00 45
        E 2 e1 00 46
        E 2 e1 00 47
        E 1 e1 00 48
        E 2 e1 00 49
        E 2 e1 00 4a
        E 1 e1 00 4b
        E 2 e1 00 4c
        E 2 e1 00 4d
        E 1 e1 00 4e
        E 2 e1 00 4f
        E 2 e1 00 50
        E 1 e1 00 51
        E 2 e1 00 52
        E 2 e1 00 53
        E 1 e1 00 54
        E 2 e1 00 55
        E 2 e1 00 56
        E 1 e1 00 57
        E 2 e1 00 58
        E 2 e1 00 59
        E 1 e1 00 5a
        E 2 e1 00 5b
        E 2 e1 00 5c
        E 1 e1 00 5d
        E 2 e1 00 5e
        E 2 e1 00 5f
        E 1 e1 00 60
        E 2 e1 00 61
        E 2 e1 00 62
        E 1 e1 00 63
        E 2 e1 00 64
        E 2 e1 00 65
        E 0 91 35 00
        E 0 91 38 64
        E 1 e1 00 66
        E 2 e1 00 67
        E 2 e1 00 68
        E 1 e1 00 54
        E 2 e1 00 40
        E 52 91 38 00
        E 0 91 38 64
        E 30 91 38 00
        E 0 91 35 64
        E 60 91 35 00
        E 0 91 35 64
        E 60 91 35 00
        E 90 91 35 64
        E 30 91 35 00
        E 0 91 35 64
        E 60 91 35 00
        E 0 91 35 64
        E 26 e1 00 40
        E 4 e1 00 41
        E 1 e1 00 42
        E 2 e1 00 43
        E 2 e1 00 44
        E 1 e1 00 45
        E 2 e1 00 46
        E 2 e1 00 47
        E 1 e1 00 48
        E 2 e1 00 49
        E 2 e1 00 4a
        E 1 e1 00 4b
        E 2 e1 00 4c
        E 2 e1 00 4d
        E 1 e1 00 4e
        E 2 e1 00 4f
        E 2 e1 00 50
        E 1 e1 00 51
        E 2 e1 00 52
        E 2 e1 00 53
        E 1 e1 00 54
        E 2 e1 00 55
        E 2 e1 00 56
        E 1 e1 00 57
        E 2 e1 00 58
        E 2 e1 00 59
        E 1 e1 00 5a
        E 2 e1 00 5b
        E 2 e1 00 5c
        E 1 e1 00 5d
        E 2 e1 00 5e
        E 2 e1 00 5f
        E 1 e1 00 60
        E 2 e1 00 61
        E 2 e1 00 62
        E 1 e1 00 63
        E 2 e1 00 64
        E 2 e1 00 65
        E 0 91 35 00
        E 0 91 38 64
        E 1 e1 00 66
        E 2 e1 00 67
        E 2 e1 00 68
        E 1 e1 00 54
        E 2 e1 00 40
        E 52 91 38 00
        E 0 91 38 64
        E 30 91 38 00
        E 0 91 35 64
        E 60 91 35 00
        E 0 91 35 64
        E 60 91 35 00
        E 90 91 35 64
        E 30 91 35 00
        E 0 91 35 64
        E 60 91 35 00
        E 0 91 35 64
        E 26 e1 00 40
        E 4 e1 00 41
        E 1 e1 00 42
        E 2 e1 00 43
        E 2 e1 00 44
        E 1 e1 00 45
        E 2 e1 00 46
        E 2 e1 00 47
        E 1 e1 00 48
        E 2 e1 00 49
        E 2 e1 00 4a
        E 1 e1 00 4b
        E 2 e1 00 4c
        E 2 e1 00 4d
        E 1 e1 00 4e
        E 2 e1 00 4f
        E 2 e1 00 50
        E 1 e1 00 51
        E 2 e1 00 52
        E 2 e1 00 53
        E 1 e1 00 54
        E 2 e1 00 55
        E 2 e1 00 56
        E 1 e1 00 57
        E 2 e1 00 58
        E 2 e1 00 59
        E 1 e1 00 5a
        E 2 e1 00 5b
        E 2 e1 00 5c
        E 1 e1 00 5d
        E 2 e1 00 5e
        E 2 e1 00 5f
        E 1 e1 00 60
        E 2 e1 00 61
        E 2 e1 00 62
        E 1 e1 00 63
        E 2 e1 00 64
        E 2 e1 00 65
        E 0 91 35 00
        E 0 91 38 64
        E 1 e1 00 66
        E 2 e1 00 67
        E 2 e1 00 68
        E 1 e1 00 54
        E 2 e1 00 40
        E 52 91 38 00
        E 0 91 38 64
        E 30 91 38 00
        E 0 91 35 64
        E 60 91 35 00
        E 0 91 35 64
        E 60 91 35 00
        E 90 91 35 64
        E 30 91 35 00
        E 0 91 35 64
        E 60 91 35 00
        E 0 91 35 64
        E 26 e1 00 40
        E 4 e1 00 41
        E 1 e1 00 42
        E 2 e1 00 43
        E 2 e1 00 44
        E 1 e1 00 45
        E 2 e1 00 46
        E 2 e1 00 47
        E 1 e1 00 48
        E 2 e1 00 49
        E 2 e1 00 4a
        E 1 e1 00 4b
        E 2 e1 00 4c
        E 2 e1 00 4d
        E 1 e1 00 4e
        E 2 e1 00 4f
        E 2 e1 00 50
        E 1 e1 00 51
        E 2 e1 00 52
        E 2 e1 00 53
        E 1 e1 00 54
        E 2 e1 00 55
        E 2 e1 00 56
        E 1 e1 00 57
        E 2 e1 00 58
        E 2 e1 00 59
        E 1 e1 00 5a
        E 2 e1 00 5b
        E 2 e1 00 5c
        E 1 e1 00 5d
        E 2 e1 00 5e
        E 2 e1 00 5f
        E 1 e1 00 60
        E 2 e1 00 61
        E 2 e1 00 62
        E 1 e1 00 63
        E 2 e1 00 64
        E 2 e1 00 65
        E 0 91 35 00
        E 0 91 38 64
        E 1 e1 00 66
        E 2 e1 00 67
        E 2 e1 00 68
        E 1 e1 00 54
        E 2 e1 00 40
        E 52 91 38 00
        E 0 91 38 64
        E 30 91 38 00
        E 0 91 35 64
        E 60 91 35 00
        E 0 91 35 64
        E 60 91 35 00
        E 90 91 35 64
        E 30 91 35 00
        E 0 91 35 64
        E 60 91 35 00
        E 0 91 35 64
        E 26 e1 00 40
        E 4 e1 00 41
        E 1 e1 00 42
        E 2 e1 00 43
        E 2 e1 00 44
        E 1 e1 00 45
        E 2 e1 00 46
        E 2 e1 00 47
        E 1 e1 00 48
        E 2 e1 00 49
        E 2 e1 00 4a
        E 1 e1 00 4b
        E 2 e1 00 4c
        E 2 e1 00 4d
        E 1 e1 00 4e
        E 2 e1 00 4f
        E 2 e1 00 50
        E 1 e1 00 51
        E 2 e1 00 52
        E 2 e1 00 53
        E 1 e1 00 54
        E 2 e1 00 55
        E 2 e1 00 56
        E 1 e1 00 57
        E 2 e1 00 58
        E 2 e1 00 59
        E 1 e1 00 5a
        E 2 e1 00 5b
        E 2 e1 00 5c
        E 1 e1 00 5d
        E 2 e1 00 5e
        E 2 e1 00 5f
        E 1 e1 00 60
        E 2 e1 00 61
        E 2 e1 00 62
        E 1 e1 00 63
        E 2 e1 00 64
        E 2 e1 00 65
        E 0 91 35 00
        E 0 91 38 64
        E 1 e1 00 66
        E 2 e1 00 67
        E 2 e1 00 68
        E 1 e1 00 54
        E 2 e1 00 40
        E 52 91 38 00
        E 0 91 38 64
        E 30 91 38 00
        E 0 91 35 64
        E 60 91 35 00
        E 0 91 35 64
        E 60 91 35 00
        E 90 91 35 64
        E 30 91 35 00
        E 0 91 35 64
        E 60 91 35 00
        E 0 91 35 64
        E 26 e1 00 40
        E 4 e1 00 41
        E 1 e1 00 42
        E 2 e1 00 43
        E 2 e1 00 44
        E 1 e1 00 45
        E 2 e1 00 46
        E 2 e1 00 47
        E 1 e1 00 48
        E 2 e1 00 49
        E 2 e1 00 4a
        E 1 e1 00 4b
        E 2 e1 00 4c
        E 2 e1 00 4d
        E 1 e1 00 4e
        E 2 e1 00 4f
        E 2 e1 00 50
        E 1 e1 00 51
        E 2 e1 00 52
        E 2 e1 00 53
        E 1 e1 00 54
        E 2 e1 00 55
        E 2 e1 00 56
        E 1 e1 00 57
        E 2 e1 00 58
        E 2 e1 00 59
        E 1 e1 00 5a
        E 2 e1 00 5b
        E 2 e1 00 5c
        E 1 e1 00 5d
        E 2 e1 00 5e
        E 2 e1 00 5f
        E 1 e1 00 60
        E 2 e1 00 61
        E 2 e1 00 62
        E 1 e1 00 63
        E 2 e1 00 64
        E 2 e1 00 65
        E 0 91 35 00
        E 0 91 38 64
        E 1 e1 00 66
        E 2 e1 00 67
        E 2 e1 00 68
        E 1 e1 00 54
        E 2 e1 00 40
        E 52 91 38 00
        E 0 91 38 64
        E 30 91 38 00
        E 0 91 33 64
        E 0 91 27 64
        E 90 91 27 00
        E 0 91 33 00
        E 0 91 33 64
        E 0 91 27 64
        E 30 91 27 00
        E 0 91 33 00
        E 0 91 33 64
        E 0 91 27 64
        E 30 91 27 00
        E 0 91 33 00
        E 0 91 33 64
        E 0 91 27 64
        E 30 91 27 00
        E 0 91 33 00
        E 0 91 33 64
        E 0 91 27 64
        E 30 91 27 00
        E 0 91 33 00
        E 0 91 33 64
        E 0 91 27 64
        E 30 91 27 00
        E 0 91 33 00
        E 0 91 3a 64
        E 0 91 2e 64
        E 90 91 2e 00
        E 0 91 3a 00
        E 0 91 3a 64
        E 0 91 2e 64
        E 30 91 2e 00
        E 0 91 3a 00
        E 0 91 3a 64
        E 0 91 2e 64
        E 30 91 2e 00
        E 0 91 3a 00
        E 0 91 3a 64
        E 0 91 2e 64
        E 30 91 2e 00
        E 0 91 3a 00
        E 0 91 3a 64
        E 0 91 2e 64
        E 30 91 2e 00
        E 0 91 3a 00
        E 0 91 3a 64
        E 0 91 2e 64
        E 30 91 2e 00
        E 0 91 3a 00
        E 0 91 35 64
        E 60 91 35 00
        E 0 91 35 64
        E 60 91 35 00
        E 90 91 35 64
        E 30 91 35 00
        E 0 91 35 64
        E 60 91 35 00
        E 0 91 35 64
        E 26 e1 00 40
        E 4 e1 00 41
        E 1 e1 00 42
        E 2 e1 00 43
        E 2 e1 00 44
        E 1 e1 00 45
        E 2 e1 00 46
        E 2 e1 00 47
        E 1 e1 00 48
        E 2 e1 00 49
        E 2 e1 00 4a
        E 1 e1 00 4b
        E 2 e1 00 4c
        E 2 e1 00 4d
        E 1 e1 00 4e
        E 2 e1 00 4f
        E 2 e1 00 50
        E 1 e1 00 51
        E 2 e1 00 52
        E 2 e1 00 53
        E 1 e1 00 54
        E 2 e1 00 55
        E 2 e1 00 56
        E 1 e1 00 57
        E 2 e1 00 58
        E 2 e1 00 59
        E 1 e1 00 5a
        E 2 e1 00 5b
        E 2 e1 00 5c
        E 1 e1 00 5d
        E 2 e1 00 5e
        E 2 e1 00 5f
        E 1 e1 00 60
        E 2 e1 00 61
        E 2 e1 00 62
        E 1 e1 00 63
        E 2 e1 00 64
        E 2 e1 00 65
        E 0 91 35 00
        E 0 91 38 64
        E 1 e1 00 66
        E 2 e1 00 67
        E 2 e1 00 68
        E 1 e1 00 54
        E 2 e1 00 40
        E 52 91 38 00
        E 0 91 38 64
        E 30 91 38 00
        E 0 91 35 64
        E 60 91 35 00
        E 0 91 35 64
        E 60 91 35 00
        E 90 91 35 64
        E 30 91 35 00
        E 0 91 35 64
        E 60 91 35 00
        E 0 91 35 64
        E 26 e1 00 40
        E 4 e1 00 41
        E 1 e1 00 42
        E 2 e1 00 43
        E 2 e1 00 44
        E 1 e1 00 45
        E 2 e1 00 46
        E 2 e1 00 47
        E 1 e1 00 48
        E 2 e1 00 49
        E 2 e1 00 4a
        E 1 e1 00 4b
        E 2 e1 00 4c
        E 2 e1 00 4d
        E 1 e1 00 4e
        E 2 e1 00 4f
        E 2 e1 00 50
        E 1 e1 00 51
        E 2 e1 00 52
        E 2 e1 00 53
        E 1 e1 00 54
        E 2 e1 00 55
        E 2 e1 00 56
        E 1 e1 00 57
        E 2 e1 00 58
        E 2 e1 00 59
        E 1 e1 00 5a
        E 2 e1 00 5b
        E 2 e1 00 5c
        E 1 e1 00 5d
        E 2 e1 00 5e
        E 2 e1 00 5f
        E 1 e1 00 60
        E 2 e1 00 61
        E 2 e1 00 62
        E 1 e1 00 63
        E 2 e1 00 64
        E 2 e1 00 65
        E 0 91 35 00
        E 0 91 38 64
        E 1 e1 00 66
        E 2 e1 00 67
        E 2 e1 00 68
        E 1 e1 00 54
        E 2 e1 00 40
        E 52 91 38 00
        E 0 91 38 64
        E 30 91 38 00
        E 0 91 33 64
        E 0 91 27 64
        E 90 91 27 00
        E 0 91 33 00
        E 0 91 33 64
        E 0 91 27 64
        E 30 91 27 00
        E 0 91 33 00
        E 0 91 33 64
        E 0 91 27 64
        E 30 91 27 00
        E 0 91 33 00
        E 0 91 33 64
        E 0 91 27 64
        E 30 91 27 00
        E 0 91 33 00
        E 0 91 33 64
        E 0 91 27 64
        E 30 91 27 00
        E 0 91 33 00
        E 0 91 33 64
        E 0 91 27 64
        E 30 91 27 00
        E 0 91 33 00
        E 0 91 3a 64
        E 0 91 2e 64
        E 90 91 2e 00
        E 0 91 3a 00
        E 0 91 3a 64
        E 0 91 2e 64
        E 30 91 2e 00
        E 0 91 3a 00
        E 0 91 3a 64
        E 0 91 2e 64
        E 30 91 2e 00
        E 0 91 3a 00
        E 0 91 3a 64
        E 0 91 2e 64
        E 30 91 2e 00
        E 0 91 3a 00
        E 0 91 3a 64
        E 0 91 2e 64
        E 30 91 2e 00
        E 0 91 3a 00
        E 0 91 3a 64
        E 0 91 2e 64
        E 30 91 2e 00
        E 0 91 3a 00
        E 0 91 35 64
        E 60 91 35 00
        E 0 91 35 64
        E 60 91 35 00
        E 90 91 35 64
        E 30 91 35 00
        E 0 91 35 64
        E 60 91 35 00
        E 0 91 35 64
        E 26 e1 00 40
        E 4 e1 00 41
        E 1 e1 00 42
        E 2 e1 00 43
        E 2 e1 00 44
        E 1 e1 00 45
        E 2 e1 00 46
        E 2 e1 00 47
        E 1 e1 00 48
        E 2 e1 00 49
        E 2 e1 00 4a
        E 1 e1 00 4b
        E 2 e1 00 4c
        E 2 e1 00 4d
        E 1 e1 00 4e
        E 2 e1 00 4f
        E 2 e1 00 50
        E 1 e1 00 51
        E 2 e1 00 52
        E 2 e1 00 53
        E 1 e1 00 54
        E 2 e1 00 55
        E 2 e1 00 56
        E 1 e1 00 57
        E 2 e1 00 58
        E 2 e1 00 59
        E 1 e1 00 5a
        E 2 e1 00 5b
        E 2 e1 00 5c
        E 1 e1 00 5d
        E 2 e1 00 5e
        E 2 e1 00 5f
        E 1 e1 00 60
        E 2 e1 00 61
        E 2 e1 00 62
        E 1 e1 00 63
        E 2 e1 00 64
        E 2 e1 00 65
        E 0 91 35 00
        E 0 91 38 64
        E 1 e1 00 66
        E 2 e1 00 67
        E 2 e1 00 68
        E 1 e1 00 54
        E 2 e1 00 40
        E 52 91 38 00
        E 0 91 38 64
        E 30 91 38 00
        E 0 91 35 64
        E 60 91 35 00
        E 0 91 35 64
        E 60 91 35 00
        E 90 91 35 64
        E 30 91 35 00
        E 0 91 35 64
        E 60 91 35 00
        E 0 91 35 64
        E 26 e1 00 40
        E 4 e1 00 41
        E 1 e1 00 42
        E 2 e1 00 43
        E 2 e1 00 44
        E 1 e1 00 45
        E 2 e1 00 46
        E 2 e1 00 47
        E 1 e1 00 48
        E 2 e1 00 49
        E 2 e1 00 4a
        E 1 e1 00 4b
        E 2 e1 00 4c
        E 2 e1 00 4d
        E 1 e1 00 4e
        E 2 e1 00 4f
        E 2 e1 00 50
        E 1 e1 00 51
        E 2 e1 00 52
        E 2 e1 00 53
        E 1 e1 00 54
        E 2 e1 00 55
        E 2 e1 00 56
        E 1 e1 00 57
        E 2 e1 00 58
        E 2 e1 00 59
        E 1 e1 00 5a
        E 2 e1 00 5b
        E 2 e1 00 5c
        E 1 e1 00 5d
        E 2 e1 00 5e
        E 2 e1 00 5f
        E 1 e1 00 60
        E 2 e1 00 61
        E 2 e1 00 62
        E 1 e1 00 63
        E 2 e1 00 64
        E 2 e1 00 65
        E 0 91 35 00
        E 0 91 38 64
        E 1 e1 00 66
        E 2 e1 00 67
        E 2 e1 00 68
        E 1 e1 00 54
        E 2 e1 00 40
        E 52 91 38 00
        E 0 91 38 64
        E 30 91 38 00
        E 0 91 33 64
        E 0 91 27 64
        E 90 91 27 00
        E 0 91 33 00
        E 0 91 33 64
        E 0 91 27 64
        E 30 91 27 00
        E 0 91 33 00
        E 0 91 33 64
        E 0 91 27 64
        E 30 91 27 00
        E 0 91 33 00
        E 0 91 33 64
        E 0 91 27 64
        E 30 91 27 00
        E 0 91 33 00
        E 0 91 33 64
        E 0 91 27 64
        E 30 91 27 00
        E 0 91 33 00
        E 0 91 33 64
        E 0 91 27 64
        E 30 91 27 00
        E 0 91 33 00
        E 0 91 3a 64
        E 0 91 2e 64
        E 90 91 2e 00
        E 0 91 3a 00
        E 0 91 3a 64
        E 0 91 2e 64
        E 30 91 2e 00
        E 0 91 3a 00
        E 0 91 3a 64
        E 0 91 2e 64
        E 30 91 2e 00
        E 0 91 3a 00
        E 0 91 3a 64
        E 0 91 2e 64
        E 30 91 2e 00
        E 0 91 3a 00
        E 0 91 3a 64
        E 0 91 2e 64
        E 30 91 2e 00
        E 0 91 3a 00
        E 0 91 3a 64
        E 0 91 2e 64
        E 30 91 2e 00
        E 0 91 3a 00
        E 0 91 35 64
        E 60 91 35 00
        E 0 91 35 64
        E 60 91 35 00
        E 90 91 35 64
        E 30 91 35 00
        E 0 91 35 64
        E 60 91 35 00
        E 0 91 35 64
        E 26 e1 00 40
        E 4 e1 00 41
        E 1 e1 00 42
        E 2 e1 00 43
        E 2 e1 00 44
        E 1 e1 00 45
        E 2 e1 00 46
        E 2 e1 00 47
        E 1 e1 00 48
        E 2 e1 00 49
        E 2 e1 00 4a
        E 1 e1 00 4b
        E 2 e1 00 4c
        E 2 e1 00 4d
        E 1 e1 00 4e
        E 2 e1 00 4f
        E 2 e1 00 50
        E 1 e1 00 51
        E 2 e1 00 52
        E 2 e1 00 53
        E 1 e1 00 54
        E 2 e1 00 55
        E 2 e1 00 56
        E 1 e1 00 57
        E 2 e1 00 58
        E 2 e1 00 59
        E 1 e1 00 5a
        E 2 e1 00 5b
        E 2 e1 00 5c
        E 1 e1 00 5d
        E 2 e1 00 5e
        E 2 e1 00 5f
        E 1 e1 00 60
        E 2 e1 00 61
        E 2 e1 00 62
        E 1 e1 00 63
        E 2 e1 00 64
        E 2 e1 00 65
        E 0 91 35 00
        E 0 91 38 64
        E 1 e1 00 66
        E 2 e1 00 67
        E 2 e1 00 68
        E 1 e1 00 54
        E 2 e1 00 40
        E 52 91 38 00
        E 0 91 38 64
        E 30 91 38 00
        E 0 91 33 64
        E 0 91 27 64
        E 90 91 27 00
        E 0 91 33 00
        E 0 91 33 64
        E 0 91 27 64
        E 30 91 27 00
        E 0 91 33 00
        E 0 91 33 64
        E 0 91 27 64
        E 30 91 27 00
        E 0 91 33 00
        E 0 91 33 64
        E 0 91 27 64
        E 30 91 27 00
        E 0 91 33 00
        E 0 91 33 64
        E 0 91 27 64
        E 30 91 27 00
        E 0 91 33 00
        E 0 91 33 64
        E 0 91 27 64
        E 30 91 27 00
        E 0 91 33 00
        E 0 91 3a 64
        E 0 91 2e 64
        E 90 91 2e 00
        E 0 91 3a 00
        E 0 91 3a 64
        E 0 91 2e 64
        E 30 91 2e 00
        E 0 91 3a 00
        E 0 91 3a 64
        E 0 91 2e 64
        E 30 91 2e 00
        E 0 91 3a 00
        E 0 91 3a 64
        E 0 91 2e 64
        E 30 91 2e 00
        E 0 91 3a 00
        E 0 91 3a 64
        E 0 91 2e 64
        E 30 91 2e 00
        E 0 91 3a 00
        E 0 91 3a 64
        E 0 91 2e 64
        E 30 91 2e 00
        E 0 91 3a 00
        E 0 91 35 64
        E 60 91 35 00
        E 0 91 35 64
        E 60 91 35 00
        E 90 91 35 64
        E 30 91 35 00
        E 0 91 35 64
        E 60 91 35 00
        E 0 91 35 64
        E 26 e1 00 40
        E 4 e1 00 41
        E 1 e1 00 42
        E 2 e1 00 43
        E 2 e1 00 44
        E 1 e1 00 45
        E 2 e1 00 46
        E 2 e1 00 47
        E 1 e1 00 48
        E 2 e1 00 49
        E 2 e1 00 4a
        E 1 e1 00 4b
        E 2 e1 00 4c
        E 2 e1 00 4d
        E 1 e1 00 4e
        E 2 e1 00 4f
        E 2 e1 00 50
        E 1 e1 00 51
        E 2 e1 00 52
        E 2 e1 00 53
        E 1 e1 00 54
        E 2 e1 00 55
        E 2 e1 00 56
        E 1 e1 00 57
        E 2 e1 00 58
        E 2 e1 00 59
        E 1 e1 00 5a
        E 2 e1 00 5b
        E 2 e1 00 5c
        E 1 e1 00 5d
        E 2 e1 00 5e
        E 2 e1 00 5f
        E 1 e1 00 60
        E 2 e1 00 61
        E 2 e1 00 62
        E 1 e1 00 63
        E 2 e1 00 64
        E 2 e1 00 65
        E 0 91 35 00
        E 0 91 38 64
        E 1 e1 00 66
        E 2 e1 00 67
        E 2 e1 00 68
        E 1 e1 00 54
        E 2 e1 00 40
        E 52 91 38 00
        E 0 91 38 64
        E 30 91 38 00
        E 0 91 33 64
        E 0 91 27 64
        E 90 91 27 00
        E 0 91 33 00
        E 0 91 33 64
        E 0 91 27 64
        E 30 91 27 00
        E 0 91 33 00
        E 0 91 33 64
        E 0 91 27 64
        E 30 91 27 00
        E 0 91 33 00
        E 0 91 33 64
        E 0 91 27 64
        E 30 91 27 00
        E 0 91 33 00
        E 0 91 33 64
        E 0 91 27 64
        E 30 91 27 00
        E 0 91 33 00
        E 0 91 33 64
        E 0 91 27 64
        E 30 91 27 00
        E 0 91 33 00
        E 0 91 3a 64
        E 0 91 2e 64
        E 90 91 2e 00
        E 0 91 3a 00
        E 0 91 3a 64
        E 0 91 2e 64
        E 30 91 2e 00
        E 0 91 3a 00
        E 0 91 3a 64
        E 0 91 2e 64
        E 30 91 2e 00
        E 0 91 3a 00
        E 0 91 3a 64
        E 0 91 2e 64
        E 30 91 2e 00
        E 0 91 3a 00
        E 0 91 3a 64
        E 0 91 2e 64
        E 30 91 2e 00
        E 0 91 3a 00
        E 0 91 3a 64
        E 0 91 2e 64
        E 30 91 2e 00
        E 0 91 3a 00
        E 0 91 35 64
        E 60 91 35 00
        E 0 91 35 64
        E 60 91 35 00
        E 90 91 35 64
        E 30 91 35 00
        E 0 91 35 64
        E 60 91 35 00
        E 0 91 35 64
        E 26 e1 00 40
        E 4 e1 00 41
        E 1 e1 00 42
        E 2 e1 00 43
        E 2 e1 00 44
        E 1 e1 00 45
        E 2 e1 00 46
        E 2 e1 00 47
        E 1 e1 00 48
        E 2 e1 00 49
        E 2 e1 00 4a
        E 1 e1 00 4b
        E 2 e1 00 4c
        E 2 e1 00 4d
        E 1 e1 00 4e
        E 2 e1 00 4f
        E 2 e1 00 50
        E 1 e1 00 51
        E 2 e1 00 52
        E 2 e1 00 53
        E 1 e1 00 54
        E 2 e1 00 55
        E 2 e1 00 56
        E 1 e1 00 57
        E 2 e1 00 58
        E 2 e1 00 59
        E 1 e1 00 5a
        E 2 e1 00 5b
        E 2 e1 00 5c
        E 1 e1 00 5d
        E 2 e1 00 5e
        E 2 e1 00 5f
        E 1 e1 00 60
        E 2 e1 00 61
        E 2 e1 00 62
        E 1 e1 00 63
        E 2 e1 00 64
        E 2 e1 00 65
        E 0 91 35 00
        E 0 91 38 64
        E 1 e1 00 66
        E 2 e1 00 67
        E 2 e1 00 68
        E 1 e1 00 54
        E 2 e1 00 40
        E 52 91 38 00
        E 0 91 38 64
        E 30 91 38 00
        E 0 91 33 64
        E 0 91 27 64
        E 90 91 27 00
        E 0 91 33 00
        E 0 91 33 64
        E 0 91 27 64
        E 30 91 27 00
        E 0 91 33 00
        E 0 91 33 64
        E 0 91 27 64
        E 30 91 27 00
        E 0 91 33 00
        E 0 91 33 64
        E 0 91 27 64
        E 30 91 27 00
        E 0 91 33 00
        E 0 91 33 64
        E 0 91 27 64
        E 30 91 27 00
        E 0 91 33 00
        E 0 91 33 64
        E 0 91 27 64
        E 30 91 27 00
        E 0 91 33 00
        E 0 91 3a 64
        E 0 91 2e 64
        E 90 91 2e 00
        E 0 91 3a 00
        E 0 91 3a 64
        E 0 91 2e 64
        E 30 91 2e 00
        E 0 91 3a 00
        E 0 91 3a 64
        E 0 91 2e 64
        E 30 91 2e 00
        E 0 91 3a 00
        E 0 91 3a 64
        E 0 91 2e 64
        E 30 91 2e 00
        E 0 91 3a 00
        E 0 91 3a 64
        E 0 91 2e 64
        E 30 91 2e 00
        E 0 91 3a 00
        E 0 91 3a 64
        E 0 91 2e 64
        E 30 91 2e 00
        E 0 91 3a 00
        E 0 91 35 64
        E 60 91 35 00
        E 0 91 35 64
        E 60 91 35 00
        E 90 91 35 64
        E 30 91 35 00
        E 0 91 35 64
        E 60 91 35 00
        E 0 91 35 64
        E 26 e1 00 40
        E 4 e1 00 41
        E 1 e1 00 42
        E 2 e1 00 43
        E 2 e1 00 44
        E 1 e1 00 45
        E 2 e1 00 46
        E 2 e1 00 47
        E 1 e1 00 48
        E 2 e1 00 49
        E 2 e1 00 4a
        E 1 e1 00 4b
        E 2 e1 00 4c
        E 2 e1 00 4d
        E 1 e1 00 4e
        E 2 e1 00 4f
        E 2 e1 00 50
        E 1 e1 00 51
        E 2 e1 00 52
        E 2 e1 00 53
        E 1 e1 00 54
        E 2 e1 00 55
        E 2 e1 00 56
        E 1 e1 00 57
        E 2 e1 00 58
        E 2 e1 00 59
        E 1 e1 00 5a
        E 2 e1 00 5b
        E 2 e1 00 5c
        E 1 e1 00 5d
        E 2 e1 00 5e
        E 2 e1 00 5f
        E 1 e1 00 60
        E 2 e1 00 61
        E 2 e1 00 62
        E 1 e1 00 63
        E 2 e1 00 64
        E 2 e1 00 65
        E 0 91 35 00
        E 0 91 38 64
        E 1 e1 00 66
        E 2 e1 00 67
        E 2 e1 00 68
        E 1 e1 00 54
        E 2 e1 00 40
        E 52 91 38 00
        E 0 91 38 64
        E 30 91 38 00
        E 0 91 35 64
        E 60 91 35 00
        E 0 91 35 64
        E 60 91 35 00
        E 90 91 35 64
        E 30 91 35 00
        E 0 91 35 64
        E 60 91 35 00
        E 0 91 35 64
        E 26 e1 00 40
        E 4 e1 00 41
        E 1 e1 00 42
        E 2 e1 00 43
        E 2 e1 00 44
        E 1 e1 00 45
        E 2 e1 00 46
        E 2 e1 00 47
        E 1 e1 00 48
        E 2 e1 00 49
        E 2 e1 00 4a
        E 1 e1 00 4b
        E 2 e1 00 4c
        E 2 e1 00 4d
        E 1 e1 00 4e
        E 2 e1 00 4f
        E 2 e1 00 50
        E 1 e1 00 51
        E 2 e1 00 52
        E 2 e1 00 53
        E 1 e1 00 54
        E 2 e1 00 55
        E 2 e1 00 56
        E 1 e1 00 57
        E 2 e1 00 58
        E 2 e1 00 59
        E 1 e1 00 5a
        E 2 e1 00 5b
        E 2 e1 00 5c
        E 1 e1 00 5d
        E 2 e1 00 5e
        E 2 e1 00 5f
        E 1 e1 00 60
        E 2 e1 00 61
        E 2 e1 00 62
        E 1 e1 00 63
        E 2 e1 00 64
        E 2 e1 00 65
        E 0 91 35 00
        E 0 91 38 64
        E 1 e1 00 66
        E 2 e1 00 67
        E 2 e1 00 68
        E 1 e1 00 54
        E 2 e1 00 40
        E 52 91 38 00
        E 0 91 38 64
        E 30 91 38 00
        E 0 91 35 64
        E 60 91 35 00
        E 0 91 35 64
        E 60 91 35 00
        E 90 91 35 64
        E 30 91 35 00
        E 0 91 35 64
        E 60 91 35 00
        E 0 91 35 64
        E 26 e1 00 40
        E 4 e1 00 41
        E 1 e1 00 42
        E 2 e1 00 43
        E 2 e1 00 44
        E 1 e1 00 45
        E 2 e1 00 46
        E 2 e1 00 47
        E 1 e1 00 48
        E 2 e1 00 49
        E 2 e1 00 4a
        E 1 e1 00 4b
        E 2 e1 00 4c
        E 2 e1 00 4d
        E 1 e1 00 4e
        E 2 e1 00 4f
        E 2 e1 00 50
        E 1 e1 00 51
        E 2 e1 00 52
        E 2 e1 00 53
        E 1 e1 00 54
        E 2 e1 00 55
        E 2 e1 00 56
        E 1 e1 00 57
        E 2 e1 00 58
        E 2 e1 00 59
        E 1 e1 00 5a
        E 2 e1 00 5b
        E 2 e1 00 5c
        E 1 e1 00 5d
        E 2 e1 00 5e
        E 2 e1 00 5f
        E 1 e1 00 60
        E 2 e1 00 61
        E 2 e1 00 62
        E 1 e1 00 63
        E 2 e1 00 64
        E 2 e1 00 65
        E 0 91 35 00
        E 0 91 38 64
        E 1 e1 00 66
        E 2 e1 00 67
        E 2 e1 00 68
        E 1 e1 00 54
        E 2 e1 00 40
        E 52 91 38 00
        E 0 91 38 64
        E 30 91 38 00
        E 0 91 35 64
        E 60 91 35 00
        E 0 91 35 64
        E 419 91 35 00
        E 1 b0 7b 00
        GUID {F5861A9E-CB20-40A1-84F7-CCE9A85FFC1C}
        IGNTEMPO 0 120.00000000 4 4
        SRCCOLOR 1220
        VELLANE -1 111 0
      >
    >
  >
  <TRACK '{88DE3EFF-7A48-485A-967E-DEE22857F120}'
    NAME "Overdrive Guitar - AvaAdore.midi"
    PEAKCOL 16576
    BEAT -1
    AUTOMODE 0
    VOLPAN 1.00000000000000 0.00000000000000 -1.00000000000000 -1.00000000000000 1.00000000000000
    MUTESOLO 1 0 0
    IPHASE 0
    ISBUS 0 0
    BUSCOMP 0 0
    SHOWINMIX 1 0.666700 0.500000 1 0.500000 0 -1 0
    FREEMODE 0
    SEL 0
    REC 0 0 0 0 0 0 0
    VU 2
    TRACKHEIGHT 0 0
    INQ 0 0 0 0.5000000000 100 0 0 100
    NCHAN 2
    FX 1
    TRACKID {88DE3EFF-7A48-485A-967E-DEE22857F120}
    PERF 0
    MIDIOUT 0
    MAINSEND 1 0
    <FXCHAIN
      SHOW 0
      LASTSEL 0
      DOCKED 0
      BYPASS 0 0
      <VST "ReaControlMIDI (Cockos)" "reacontrolmidi.dll" 0 ""
        ZG1jcu5e7f4AAAAAAAAAAOUAAAABAAAAAAAQAP////8AAAAAAAAAAAAAAAAJAAAADAAAAAEAAAD/PwAAACAAAAAgAAAAAAAAOAAAAEM6XFVzZXJzXE1hdG91bml4XEFw
        cERhdGFcUm9hbWluZ1xSRUFQRVJcRGF0YVxHTS5yZWFiYW5rAAAAAAAAAAAAAAAAAAAAAAAAAAAAAAAAAAAAAAAAAAAAAAAAAQAAAAAAAAAAAAAAAAAAAAAAAAAAAAAA
        AAAAAAAGAAAATWFqb3IADQAAADEwMjAzNDA1MDYwNwABAAAAAAAAAAAAAAAACgAAAA0AAAABAAAAAAAAAAAAAAAAABAAAAA=
      >
      FLOATPOS 0 0 0 0
      FXID {32B8A9A9-0AA3-4684-912B-C26C8A7E1D21}
      WAK 0
    >
    <ITEM
      POSITION 0.00000000000000
      SNAPOFFS 0.00000000000000
      LENGTH 169.41178800000000
      LOOP 1
      ALLTAKES 0
      SEL 0
      FADEIN 1 0.000000 0.000000 1 0 0.000000
      FADEOUT 1 0.000000 0.000000 1 0 0.000000
      MUTE 0
      IGUID {216AB029-D438-4ED7-AE33-96A909C77698}
      IID 4
      NAME "Overdrive Guitar - AvaAdore.midi.mid"
      VOLPAN 1.000000 0.000000 1.000000 -1.000000
      SOFFS 0.00000000000000 0.00000000000000
      PLAYRATE 1.00000000000000 1 0.00000000000000 -1 0 0.002500
      CHANMODE 0
      GUID {0BB92956-2628-46B3-8961-9F4F967D055B}
      <SOURCE MIDI
        HASDATA 1 120 QN
        POOLEDEVTS {538EB818-4824-4B2C-A4F4-7A8C12BF6D45}
        <X 0 0
          /wNBdmEgQWRvcmU=
        >
        <X 0 0
          /wNNaXh0dXJlIG9mIFN0dWRpbyBhbmQgTGl2ZSBWZXJzaW9u
        >
        <X 0 0
          /wNPdmVyZHJpdmUgR3VpdGFy
        >
        <X 0 0
          /wFUaGlzIE1pZGkgZmlsZSBoYXMgYmVlbiBvcHRpbWlzZWQgZm9yIA==
          WEcgU3ludGhlc2lzZXJzLgo=
        >
        <X 0 0
          /wFDaGFubmVsIDEwIGFuZCAxMSBoYXZlIHRvIG1hZGUgdG8gYmUgZA==
          cnVtIGNoYW5uZWxzLgo=
        >
        <X 0 0
          /wFDaGFubmVsIDEwIGJlaW5nIGEgU3RhbmRhcmQgRHJ1bSBLaXQK
        >
        <X 0 0
          /wFDaGFubmVsIDExIGJlaW5nIGEgUm9jayBLaXQgKEJldHRlciBCYQ==
          c3MgRHJ1bSkK
        >
        E 0 b3 00 00
        E 0 b3 20 00
        E 0 c3 1d 00
        E 0 b3 07 5f
        E 26880 93 35 64
        E 0 93 29 64
        E 60 93 29 00
        E 0 93 35 00
        E 0 93 35 64
        E 0 93 29 64
        E 60 93 29 00
        E 0 93 35 00
        E 0 93 35 64
        E 0 93 29 64
        E 5 93 29 00
        E 0 93 35 00
        E 25 93 35 64
        E 0 93 29 64
        E 5 93 29 00
        E 0 93 35 00
        E 25 93 35 64
        E 0 93 29 64
        E 5 93 29 00
        E 0 93 35 00
        E 25 93 35 64
        E 0 93 29 64
        E 30 93 29 00
        E 0 93 35 00
        E 0 93 35 64
        E 0 93 29 64
        E 60 93 29 00
        E 0 93 35 00
        E 0 93 35 64
        E 0 93 29 64
        E 26 e3 00 40
        E 4 e3 00 41
        E 1 e3 00 42
        E 2 e3 00 43
        E 2 e3 00 44
        E 1 e3 00 45
        E 2 e3 00 46
        E 2 e3 00 47
        E 1 e3 00 48
        E 2 e3 00 49
        E 2 e3 00 4a
        E 1 e3 00 4b
        E 2 e3 00 4c
        E 2 e3 00 4d
        E 1 e3 00 4e
        E 2 e3 00 4f
        E 2 e3 00 50
        E 1 e3 00 51
        E 2 e3 00 52
        E 2 e3 00 53
        E 1 e3 00 54
        E 2 e3 00 55
        E 2 e3 00 56
        E 1 e3 00 57
        E 2 e3 00 58
        E 2 e3 00 59
        E 1 e3 00 5a
        E 2 e3 00 5b
        E 2 e3 00 5c
        E 1 e3 00 5d
        E 2 e3 00 5e
        E 2 e3 00 5f
        E 1 e3 00 60
        E 2 e3 00 61
        E 2 e3 00 62
        E 1 e3 00 63
        E 2 e3 00 64
        E 2 e3 00 65
        E 0 93 29 00
        E 0 93 35 00
        E 0 93 38 64
        E 0 93 2c 64
        E 1 e3 00 66
        E 2 e3 00 67
        E 2 e3 00 68
        E 1 e3 00 54
        E 2 e3 00 40
        E 52 93 2c 00
        E 0 93 38 00
        E 0 93 38 64
        E 0 93 2c 64
        E 30 93 2c 00
        E 0 93 38 00
        E 0 93 35 64
        E 0 93 29 64
        E 60 93 29 00
        E 0 93 35 00
        E 0 93 35 64
        E 0 93 29 64
        E 60 93 29 00
        E 0 93 35 00
        E 0 93 35 64
        E 0 93 29 64
        E 1 93 29 00
        E 0 93 35 00
        E 29 93 35 64
        E 0 93 29 64
        E 1 93 29 00
        E 0 93 35 00
        E 29 93 35 64
        E 0 93 29 64
        E 1 93 29 00
        E 0 93 35 00
        E 29 93 35 64
        E 0 93 29 64
        E 30 93 29 00
        E 0 93 35 00
        E 0 93 35 64
        E 0 93 29 64
        E 60 93 29 00
        E 0 93 35 00
        E 0 93 35 64
        E 0 93 29 64
        E 26 e3 00 40
        E 4 e3 00 41
        E 1 e3 00 42
        E 2 e3 00 43
        E 2 e3 00 44
        E 1 e3 00 45
        E 2 e3 00 46
        E 2 e3 00 47
        E 1 e3 00 48
        E 2 e3 00 49
        E 2 e3 00 4a
        E 1 e3 00 4b
        E 2 e3 00 4c
        E 2 e3 00 4d
        E 1 e3 00 4e
        E 2 e3 00 4f
        E 2 e3 00 50
        E 1 e3 00 51
        E 2 e3 00 52
        E 2 e3 00 53
        E 1 e3 00 54
        E 2 e3 00 55
        E 2 e3 00 56
        E 1 e3 00 57
        E 2 e3 00 58
        E 2 e3 00 59
        E 1 e3 00 5a
        E 2 e3 00 5b
        E 2 e3 00 5c
        E 1 e3 00 5d
        E 2 e3 00 5e
        E 2 e3 00 5f
        E 1 e3 00 60
        E 2 e3 00 61
        E 2 e3 00 62
        E 1 e3 00 63
        E 2 e3 00 64
        E 2 e3 00 65
        E 0 93 29 00
        E 0 93 35 00
        E 0 93 38 64
        E 0 93 2c 64
        E 1 e3 00 66
        E 2 e3 00 67
        E 2 e3 00 68
        E 1 e3 00 54
        E 2 e3 00 40
        E 52 93 2c 00
        E 0 93 38 00
        E 0 93 38 64
        E 0 93 2c 64
        E 30 93 2c 00
        E 0 93 38 00
        E 480 93 2c 64
        E 30 93 2c 00
        E 0 93 2c 64
        E 30 93 2c 00
        E 0 93 2e 64
        E 30 93 2e 00
        E 0 93 2e 64
        E 30 93 2e 00
        E 0 93 30 64
        E 30 93 30 00
        E 0 93 30 64
        E 30 93 30 00
        E 0 93 31 64
        E 30 93 31 00
        E 0 93 31 64
        E 30 93 31 00
        E 0 93 33 64
        E 30 93 33 00
        E 0 93 33 64
        E 30 93 33 00
        E 0 93 35 64
        E 30 93 35 00
        E 0 93 35 64
        E 30 93 35 00
        E 0 93 36 64
        E 30 93 36 00
        E 0 93 36 64
        E 30 93 36 00
        E 0 93 38 64
        E 30 93 38 00
        E 0 93 38 64
        E 30 93 38 00
        E 0 93 3f 64
        E 120 93 3f 00
        E 0 93 3d 64
        E 30 93 3d 00
        E 0 93 3c 64
        E 30 93 3c 00
        E 0 93 3d 64
        E 30 93 3d 00
        E 0 93 3c 64
        E 90 93 3c 00
        E 0 93 3d 64
        E 30 93 3d 00
        E 0 93 3c 64
        E 60 93 3c 00
        E 0 93 3a 64
        E 90 93 3a 00
        E 0 93 3c 64
        E 120 93 3c 00
        E 0 93 3a 64
        E 30 93 3a 00
        E 0 93 3c 64
        E 30 93 3c 00
        E 0 93 3a 64
        E 30 93 3a 00
        E 0 93 38 64
        E 90 93 38 00
        E 0 93 3a 64
        E 30 93 3a 00
        E 0 93 3c 64
        E 60 93 3c 00
        E 0 93 3a 64
        E 30 93 38 64
        E 15 93 3a 00
        E 30 93 38 00
        E 15 e3 00 40
        E 0 93 3a 64
        E 13 e3 00 41
        E 10 e3 00 42
        E 10 e3 00 43
        E 13 e3 00 44
        E 10 e3 00 45
        E 10 e3 00 46
        E 10 e3 00 47
        E 14 e3 00 48
        E 10 e3 00 49
        E 10 e3 00 4a
        E 10 e3 00 4b
        E 13 e3 00 4c
        E 10 e3 00 4d
        E 10 e3 00 4e
        E 13 e3 00 4f
        E 10 e3 00 50
        E 10 e3 00 51
        E 10 e3 00 52
        E 14 e3 00 53
        E 10 e3 00 54
        E 10 e3 00 55
        E 10 e3 00 56
        E 13 e3 00 57
        E 10 e3 00 58
        E 10 e3 00 59
        E 13 e3 00 5a
        E 10 e3 00 5b
        E 10 e3 00 5c
        E 10 e3 00 5d
        E 14 e3 00 5e
        E 10 e3 00 5f
        E 10 e3 00 60
        E 10 e3 00 62
        E 20 e3 00 61
        E 3 e3 00 60
        E 10 e3 00 5f
        E 3 e3 00 5e
        E 4 e3 00 5d
        E 10 e3 00 5c
        E 6 e3 00 5b
        E 7 e3 00 59
        E 3 e3 00 58
        E 4 e3 00 55
        E 3 e3 00 54
        E 3 e3 00 53
        E 4 e3 00 52
        E 3 e3 00 51
        E 3 e3 00 4f
        E 7 e3 00 4e
        E 3 e3 00 4d
        E 4 e3 00 4b
        E 3 e3 00 4a
        E 3 e3 00 49
        E 4 e3 00 48
        E 3 e3 00 47
        E 3 e3 00 42
        E 3 93 3a 00
        E 1 b0 7b 00
        GUID {7376D04B-4D42-4F65-B216-105AFFBFC54D}
        IGNTEMPO 0 120.00000000 4 4
        SRCCOLOR 1221
        VELLANE -1 111 0
      >
    >
  >
  <TRACK '{B55462DD-0850-4DD7-821E-2044E0920F79}'
    NAME "Clean Guitar - AvaAdore.midi"
    PEAKCOL 16576
    BEAT -1
    AUTOMODE 0
    VOLPAN 1.00000000000000 0.00000000000000 -1.00000000000000 -1.00000000000000 1.00000000000000
    MUTESOLO 1 0 0
    IPHASE 0
    ISBUS 0 0
    BUSCOMP 0 0
    SHOWINMIX 1 0.666700 0.500000 1 0.500000 0 -1 0
    FREEMODE 0
    SEL 0
    REC 0 0 0 0 0 0 0
    VU 2
    TRACKHEIGHT 0 0
    INQ 0 0 0 0.5000000000 100 0 0 100
    NCHAN 2
    FX 1
    TRACKID {B55462DD-0850-4DD7-821E-2044E0920F79}
    PERF 0
    MIDIOUT 0
    MAINSEND 1 0
    <FXCHAIN
      SHOW 0
      LASTSEL 0
      DOCKED 0
      BYPASS 0 0
      <VST "ReaControlMIDI (Cockos)" "reacontrolmidi.dll" 0 ""
        ZG1jcu5e7f4AAAAAAAAAAOUAAAABAAAAAAAQAP////8AAAAAAAAAAAAAAAAJAAAADAAAAAEAAAD/PwAAACAAAAAgAAAAAAAAOAAAAEM6XFVzZXJzXE1hdG91bml4XEFw
        cERhdGFcUm9hbWluZ1xSRUFQRVJcRGF0YVxHTS5yZWFiYW5rAAAAAAAAAAAAAAAAAAAAAAAAAAAAAAAAAAAAAAAAAAAAAAAAAQAAAAAAAAAAAAAAAAAAAAAAAAAAAAAA
        AAAAAAAGAAAATWFqb3IADQAAADEwMjAzNDA1MDYwNwABAAAAAAAAAAAAAAAACgAAAA0AAAABAAAAAAAAAAAAAAAAABAAAAA=
      >
      FLOATPOS 0 0 0 0
      FXID {A7B094D6-B9F1-4B62-9AAC-FB9600FFE433}
      WAK 0
    >
    <ITEM
      POSITION 0.00000000000000
      SNAPOFFS 0.00000000000000
      LENGTH 198.99162400000000
      LOOP 1
      ALLTAKES 0
      SEL 0
      FADEIN 1 0.000000 0.000000 1 0 0.000000
      FADEOUT 1 0.000000 0.000000 1 0 0.000000
      MUTE 0
      IGUID {C43FA13E-2C16-4B09-A9CD-0A9177610F21}
      IID 5
      NAME "Clean Guitar - AvaAdore.midi.mid"
      VOLPAN 1.000000 0.000000 1.000000 -1.000000
      SOFFS 0.00000000000000 0.00000000000000
      PLAYRATE 1.00000000000000 1 0.00000000000000 -1 0 0.002500
      CHANMODE 0
      GUID {0591025A-987E-4D49-8031-4E7ECCFF84D5}
      <SOURCE MIDI
        HASDATA 1 120 QN
        POOLEDEVTS {14B88CCC-A083-474C-89A9-BE44FEC0FDF1}
        <X 0 0
          /wNBdmEgQWRvcmU=
        >
        <X 0 0
          /wNNaXh0dXJlIG9mIFN0dWRpbyBhbmQgTGl2ZSBWZXJzaW9u
        >
        <X 0 0
          /wNDbGVhbiBHdWl0YXI=
        >
        <X 0 0
          /wFUaGlzIE1pZGkgZmlsZSBoYXMgYmVlbiBvcHRpbWlzZWQgZm9yIA==
          WEcgU3ludGhlc2lzZXJzLgo=
        >
        <X 0 0
          /wFDaGFubmVsIDEwIGFuZCAxMSBoYXZlIHRvIG1hZGUgdG8gYmUgZA==
          cnVtIGNoYW5uZWxzLgo=
        >
        <X 0 0
          /wFDaGFubmVsIDEwIGJlaW5nIGEgU3RhbmRhcmQgRHJ1bSBLaXQK
        >
        <X 0 0
          /wFDaGFubmVsIDExIGJlaW5nIGEgUm9jayBLaXQgKEJldHRlciBCYQ==
          c3MgRHJ1bSkK
        >
        E 0 b2 00 00
        E 0 b2 20 00
        E 0 c2 1b 00
        E 0 b2 07 5f
        E 10560 92 33 64
        E 0 92 2c 64
        E 60 92 2c 00
        E 0 92 33 00
        E 0 92 33 64
        E 0 92 2c 64
        E 60 92 2c 00
        E 0 92 33 00
        E 0 92 33 64
        E 0 92 2c 64
        E 90 92 2c 00
        E 0 92 33 00
        E 0 92 33 64
        E 0 92 2c 64
        E 30 92 2c 00
        E 0 92 33 00
        E 0 92 33 64
        E 0 92 2c 64
        E 90 92 2c 00
        E 0 92 33 00
        E 0 92 33 64
        E 0 92 2c 64
        E 30 92 2c 00
        E 0 92 33 00
        E 0 92 33 64
        E 0 92 2c 64
        E 60 92 2c 00
        E 0 92 33 00
        E 0 92 33 64
        E 0 92 2c 64
        E 30 92 2c 00
        E 0 92 33 00
        E 0 92 33 64
        E 0 92 2c 64
        E 30 92 2c 00
        E 0 92 33 00
        E 0 92 37 64
        E 0 92 30 64
        E 60 92 30 00
        E 0 92 37 00
        E 0 92 37 64
        E 0 92 30 64
        E 60 92 30 00
        E 0 92 37 00
        E 0 92 37 64
        E 0 92 30 64
        E 90 92 30 00
        E 0 92 37 00
        E 0 92 37 64
        E 0 92 30 64
        E 30 92 30 00
        E 0 92 37 00
        E 0 92 37 64
        E 0 92 30 64
        E 90 92 30 00
        E 0 92 37 00
        E 0 92 37 64
        E 0 92 30 64
        E 30 92 30 00
        E 0 92 37 00
        E 0 92 37 64
        E 0 92 30 64
        E 60 92 30 00
        E 0 92 37 00
        E 0 92 37 64
        E 0 92 30 64
        E 30 92 30 00
        E 0 92 37 00
        E 0 92 37 64
        E 0 92 30 64
        E 30 92 30 00
        E 0 92 37 00
        E 0 92 38 64
        E 0 92 31 64
        E 60 92 31 00
        E 0 92 38 00
        E 0 92 38 64
        E 0 92 31 64
        E 60 92 31 00
        E 0 92 38 00
        E 0 92 38 64
        E 0 92 31 64
        E 90 92 31 00
        E 0 92 38 00
        E 0 92 38 64
        E 0 92 31 64
        E 30 92 31 00
        E 0 92 38 00
        E 0 92 35 64
        E 0 92 2e 64
        E 90 92 2e 00
        E 0 92 35 00
        E 0 92 35 64
        E 0 92 2e 64
        E 30 92 2e 00
        E 0 92 35 00
        E 0 92 35 64
        E 0 92 2e 64
        E 60 92 2e 00
        E 0 92 35 00
        E 0 92 35 64
        E 0 92 2e 64
        E 30 92 2e 00
        E 0 92 35 00
        E 0 92 35 64
        E 0 92 2e 64
        E 30 92 2e 00
        E 0 92 35 00
        E 0 92 33 64
        E 0 92 2c 64
        E 60 92 2c 00
        E 0 92 33 00
        E 0 92 33 64
        E 0 92 2c 64
        E 60 92 2c 00
        E 0 92 33 00
        E 0 92 33 64
        E 0 92 2c 64
        E 90 92 2c 00
        E 0 92 33 00
        E 0 92 33 64
        E 0 92 2c 64
        E 30 92 2c 00
        E 0 92 33 00
        E 0 92 33 64
        E 0 92 2c 64
        E 90 92 2c 00
        E 0 92 33 00
        E 0 92 33 64
        E 0 92 2c 64
        E 30 92 2c 00
        E 0 92 33 00
        E 0 92 33 64
        E 0 92 2c 64
        E 60 92 2c 00
        E 0 92 33 00
        E 0 92 33 64
        E 0 92 2c 64
        E 30 92 2c 00
        E 0 92 33 00
        E 0 92 33 64
        E 0 92 2c 64
        E 30 92 2c 00
        E 0 92 33 00
        E 6240 92 33 64
        E 0 92 2c 64
        E 60 92 2c 00
        E 0 92 33 00
        E 0 92 33 64
        E 0 92 2c 64
        E 60 92 2c 00
        E 0 92 33 00
        E 0 92 33 64
        E 0 92 2c 64
        E 90 92 2c 00
        E 0 92 33 00
        E 0 92 33 64
        E 0 92 2c 64
        E 30 92 2c 00
        E 0 92 33 00
        E 0 92 33 64
        E 0 92 2c 64
        E 90 92 2c 00
        E 0 92 33 00
        E 0 92 33 64
        E 0 92 2c 64
        E 30 92 2c 00
        E 0 92 33 00
        E 0 92 33 64
        E 0 92 2c 64
        E 60 92 2c 00
        E 0 92 33 00
        E 0 92 33 64
        E 0 92 2c 64
        E 30 92 2c 00
        E 0 92 33 00
        E 0 92 33 64
        E 0 92 2c 64
        E 30 92 2c 00
        E 0 92 33 00
        E 0 92 37 64
        E 0 92 30 64
        E 60 92 30 00
        E 0 92 37 00
        E 0 92 37 64
        E 0 92 30 64
        E 60 92 30 00
        E 0 92 37 00
        E 0 92 37 64
        E 0 92 30 64
        E 90 92 30 00
        E 0 92 37 00
        E 0 92 37 64
        E 0 92 30 64
        E 30 92 30 00
        E 0 92 37 00
        E 0 92 37 64
        E 0 92 30 64
        E 90 92 30 00
        E 0 92 37 00
        E 0 92 37 64
        E 0 92 30 64
        E 30 92 30 00
        E 0 92 37 00
        E 0 92 37 64
        E 0 92 30 64
        E 60 92 30 00
        E 0 92 37 00
        E 0 92 37 64
        E 0 92 30 64
        E 30 92 30 00
        E 0 92 37 00
        E 0 92 37 64
        E 0 92 30 64
        E 30 92 30 00
        E 0 92 37 00
        E 0 92 38 64
        E 0 92 31 64
        E 60 92 31 00
        E 0 92 38 00
        E 0 92 38 64
        E 0 92 31 64
        E 60 92 31 00
        E 0 92 38 00
        E 0 92 38 64
        E 0 92 31 64
        E 90 92 31 00
        E 0 92 38 00
        E 0 92 38 64
        E 0 92 31 64
        E 30 92 31 00
        E 0 92 38 00
        E 0 92 35 64
        E 0 92 2e 64
        E 90 92 2e 00
        E 0 92 35 00
        E 0 92 35 64
        E 0 92 2e 64
        E 30 92 2e 00
        E 0 92 35 00
        E 0 92 35 64
        E 0 92 2e 64
        E 60 92 2e 00
        E 0 92 35 00
        E 0 92 35 64
        E 0 92 2e 64
        E 30 92 2e 00
        E 0 92 35 00
        E 0 92 35 64
        E 0 92 2e 64
        E 30 92 2e 00
        E 0 92 35 00
        E 0 92 33 64
        E 0 92 2c 64
        E 60 92 2c 00
        E 0 92 33 00
        E 0 92 33 64
        E 0 92 2c 64
        E 60 92 2c 00
        E 0 92 33 00
        E 0 92 33 64
        E 0 92 2c 64
        E 90 92 2c 00
        E 0 92 33 00
        E 0 92 33 64
        E 0 92 2c 64
        E 30 92 2c 00
        E 0 92 33 00
        E 0 92 33 64
        E 0 92 2c 64
        E 90 92 2c 00
        E 0 92 33 00
        E 0 92 33 64
        E 0 92 2c 64
        E 30 92 2c 00
        E 0 92 33 00
        E 0 92 33 64
        E 0 92 2c 64
        E 60 92 2c 00
        E 0 92 33 00
        E 0 92 33 64
        E 0 92 2c 64
        E 30 92 2c 00
        E 0 92 33 00
        E 0 92 33 64
        E 0 92 2c 64
        E 30 92 2c 00
        E 0 92 33 00
        E 0 92 33 64
        E 0 92 2c 64
        E 60 92 2c 00
        E 0 92 33 00
        E 0 92 33 64
        E 0 92 2c 64
        E 60 92 2c 00
        E 0 92 33 00
        E 0 92 33 64
        E 0 92 2c 64
        E 90 92 2c 00
        E 0 92 33 00
        E 0 92 33 64
        E 0 92 2c 64
        E 30 92 2c 00
        E 0 92 33 00
        E 0 92 33 64
        E 0 92 2c 64
        E 90 92 2c 00
        E 0 92 33 00
        E 0 92 33 64
        E 0 92 2c 64
        E 30 92 2c 00
        E 0 92 33 00
        E 0 92 33 64
        E 0 92 2c 64
        E 60 92 2c 00
        E 0 92 33 00
        E 0 92 33 64
        E 0 92 2c 64
        E 30 92 2c 00
        E 0 92 33 00
        E 0 92 33 64
        E 0 92 2c 64
        E 30 92 2c 00
        E 0 92 33 00
        E 0 92 37 64
        E 0 92 30 64
        E 60 92 30 00
        E 0 92 37 00
        E 0 92 37 64
        E 0 92 30 64
        E 60 92 30 00
        E 0 92 37 00
        E 0 92 37 64
        E 0 92 30 64
        E 90 92 30 00
        E 0 92 37 00
        E 0 92 37 64
        E 0 92 30 64
        E 30 92 30 00
        E 0 92 37 00
        E 0 92 37 64
        E 0 92 30 64
        E 90 92 30 00
        E 0 92 37 00
        E 0 92 37 64
        E 0 92 30 64
        E 30 92 30 00
        E 0 92 37 00
        E 0 92 37 64
        E 0 92 30 64
        E 60 92 30 00
        E 0 92 37 00
        E 0 92 37 64
        E 0 92 30 64
        E 30 92 30 00
        E 0 92 37 00
        E 0 92 37 64
        E 0 92 30 64
        E 30 92 30 00
        E 0 92 37 00
        E 0 92 38 64
        E 0 92 31 64
        E 60 92 31 00
        E 0 92 38 00
        E 0 92 38 64
        E 0 92 31 64
        E 60 92 31 00
        E 0 92 38 00
        E 0 92 38 64
        E 0 92 31 64
        E 90 92 31 00
        E 0 92 38 00
        E 0 92 38 64
        E 0 92 31 64
        E 30 92 31 00
        E 0 92 38 00
        E 0 92 35 64
        E 0 92 2e 64
        E 90 92 2e 00
        E 0 92 35 00
        E 0 92 35 64
        E 0 92 2e 64
        E 30 92 2e 00
        E 0 92 35 00
        E 0 92 35 64
        E 0 92 2e 64
        E 60 92 2e 00
        E 0 92 35 00
        E 0 92 35 64
        E 0 92 2e 64
        E 30 92 2e 00
        E 0 92 35 00
        E 0 92 35 64
        E 0 92 2e 64
        E 30 92 2e 00
        E 0 92 35 00
        E 0 92 33 64
        E 0 92 2c 64
        E 60 92 2c 00
        E 0 92 33 00
        E 0 92 33 64
        E 0 92 2c 64
        E 60 92 2c 00
        E 0 92 33 00
        E 0 92 33 64
        E 0 92 2c 64
        E 90 92 2c 00
        E 0 92 33 00
        E 0 92 33 64
        E 0 92 2c 64
        E 30 92 2c 00
        E 0 92 33 00
        E 0 92 33 64
        E 0 92 2c 64
        E 90 92 2c 00
        E 0 92 33 00
        E 0 92 33 64
        E 0 92 2c 64
        E 30 92 2c 00
        E 0 92 33 00
        E 0 92 33 64
        E 0 92 2c 64
        E 60 92 2c 00
        E 0 92 33 00
        E 0 92 33 64
        E 0 92 2c 64
        E 30 92 2c 00
        E 0 92 33 00
        E 0 92 33 64
        E 0 92 2c 64
        E 30 92 2c 00
        E 0 92 33 00
        E 0 92 35 64
        E 0 92 2e 64
        E 60 92 2e 00
        E 0 92 35 00
        E 0 92 35 64
        E 0 92 2e 64
        E 60 92 2e 00
        E 0 92 35 00
        E 0 92 35 64
        E 0 92 2e 64
        E 90 92 2e 00
        E 0 92 35 00
        E 0 92 35 64
        E 0 92 2e 64
        E 30 92 2e 00
        E 0 92 35 00
        E 0 92 35 64
        E 0 92 2e 64
        E 90 92 2e 00
        E 0 92 35 00
        E 0 92 35 64
        E 0 92 2e 64
        E 30 92 2e 00
        E 0 92 35 00
        E 0 92 35 64
        E 0 92 2e 64
        E 60 92 2e 00
        E 0 92 35 00
        E 0 92 35 64
        E 0 92 2e 64
        E 30 92 2e 00
        E 0 92 35 00
        E 0 92 35 64
        E 0 92 2e 64
        E 30 92 2e 00
        E 0 92 35 00
        E 7200 92 33 64
        E 0 92 2c 64
        E 60 92 2c 00
        E 0 92 33 00
        E 0 92 33 64
        E 0 92 2c 64
        E 60 92 2c 00
        E 0 92 33 00
        E 0 92 33 64
        E 0 92 2c 64
        E 90 92 2c 00
        E 0 92 33 00
        E 0 92 33 64
        E 0 92 2c 64
        E 30 92 2c 00
        E 0 92 33 00
        E 0 92 33 64
        E 0 92 2c 64
        E 90 92 2c 00
        E 0 92 33 00
        E 0 92 33 64
        E 0 92 2c 64
        E 30 92 2c 00
        E 0 92 33 00
        E 0 92 33 64
        E 0 92 2c 64
        E 60 92 2c 00
        E 0 92 33 00
        E 0 92 33 64
        E 0 92 2c 64
        E 30 92 2c 00
        E 0 92 33 00
        E 0 92 33 64
        E 0 92 2c 64
        E 30 92 2c 00
        E 0 92 33 00
        E 0 92 37 64
        E 0 92 30 64
        E 60 92 30 00
        E 0 92 37 00
        E 0 92 37 64
        E 0 92 30 64
        E 60 92 30 00
        E 0 92 37 00
        E 0 92 37 64
        E 0 92 30 64
        E 90 92 30 00
        E 0 92 37 00
        E 0 92 37 64
        E 0 92 30 64
        E 30 92 30 00
        E 0 92 37 00
        E 0 92 37 64
        E 0 92 30 64
        E 90 92 30 00
        E 0 92 37 00
        E 0 92 37 64
        E 0 92 30 64
        E 30 92 30 00
        E 0 92 37 00
        E 0 92 37 64
        E 0 92 30 64
        E 60 92 30 00
        E 0 92 37 00
        E 0 92 37 64
        E 0 92 30 64
        E 30 92 30 00
        E 0 92 37 00
        E 0 92 37 64
        E 0 92 30 64
        E 30 92 30 00
        E 0 92 37 00
        E 0 92 38 64
        E 0 92 31 64
        E 60 92 31 00
        E 0 92 38 00
        E 0 92 38 64
        E 0 92 31 64
        E 60 92 31 00
        E 0 92 38 00
        E 0 92 38 64
        E 0 92 31 64
        E 90 92 31 00
        E 0 92 38 00
        E 0 92 38 64
        E 0 92 31 64
        E 30 92 31 00
        E 0 92 38 00
        E 0 92 35 64
        E 0 92 2e 64
        E 90 92 2e 00
        E 0 92 35 00
        E 0 92 35 64
        E 0 92 2e 64
        E 30 92 2e 00
        E 0 92 35 00
        E 0 92 35 64
        E 0 92 2e 64
        E 60 92 2e 00
        E 0 92 35 00
        E 0 92 35 64
        E 0 92 2e 64
        E 30 92 2e 00
        E 0 92 35 00
        E 0 92 35 64
        E 0 92 2e 64
        E 30 92 2e 00
        E 0 92 35 00
        E 0 92 33 64
        E 0 92 2c 64
        E 60 92 2c 00
        E 0 92 33 00
        E 0 92 33 64
        E 0 92 2c 64
        E 60 92 2c 00
        E 0 92 33 00
        E 0 92 33 64
        E 0 92 2c 64
        E 90 92 2c 00
        E 0 92 33 00
        E 0 92 33 64
        E 0 92 2c 64
        E 30 92 2c 00
        E 0 92 33 00
        E 0 92 33 64
        E 0 92 2c 64
        E 90 92 2c 00
        E 0 92 33 00
        E 0 92 33 64
        E 0 92 2c 64
        E 30 92 2c 00
        E 0 92 33 00
        E 0 92 33 64
        E 0 92 2c 64
        E 60 92 2c 00
        E 0 92 33 00
        E 0 92 33 64
        E 0 92 2c 64
        E 30 92 2c 00
        E 0 92 33 00
        E 0 92 33 64
        E 0 92 2c 64
        E 30 92 2c 00
        E 0 92 33 00
        E 0 92 33 64
        E 0 92 2c 64
        E 60 92 2c 00
        E 0 92 33 00
        E 0 92 33 64
        E 0 92 2c 64
        E 60 92 2c 00
        E 0 92 33 00
        E 0 92 33 64
        E 0 92 2c 64
        E 90 92 2c 00
        E 0 92 33 00
        E 0 92 33 64
        E 0 92 2c 64
        E 30 92 2c 00
        E 0 92 33 00
        E 0 92 33 64
        E 0 92 2c 64
        E 90 92 2c 00
        E 0 92 33 00
        E 0 92 33 64
        E 0 92 2c 64
        E 30 92 2c 00
        E 0 92 33 00
        E 0 92 33 64
        E 0 92 2c 64
        E 60 92 2c 00
        E 0 92 33 00
        E 0 92 33 64
        E 0 92 2c 64
        E 30 92 2c 00
        E 0 92 33 00
        E 0 92 33 64
        E 0 92 2c 64
        E 30 92 2c 00
        E 0 92 33 00
        E 0 92 37 64
        E 0 92 30 64
        E 60 92 30 00
        E 0 92 37 00
        E 0 92 37 64
        E 0 92 30 64
        E 60 92 30 00
        E 0 92 37 00
        E 0 92 37 64
        E 0 92 30 64
        E 90 92 30 00
        E 0 92 37 00
        E 0 92 37 64
        E 0 92 30 64
        E 30 92 30 00
        E 0 92 37 00
        E 0 92 37 64
        E 0 92 30 64
        E 90 92 30 00
        E 0 92 37 00
        E 0 92 37 64
        E 0 92 30 64
        E 30 92 30 00
        E 0 92 37 00
        E 0 92 37 64
        E 0 92 30 64
        E 60 92 30 00
        E 0 92 37 00
        E 0 92 37 64
        E 0 92 30 64
        E 30 92 30 00
        E 0 92 37 00
        E 0 92 37 64
        E 0 92 30 64
        E 30 92 30 00
        E 0 92 37 00
        E 0 92 38 64
        E 0 92 31 64
        E 60 92 31 00
        E 0 92 38 00
        E 0 92 38 64
        E 0 92 31 64
        E 60 92 31 00
        E 0 92 38 00
        E 0 92 38 64
        E 0 92 31 64
        E 90 92 31 00
        E 0 92 38 00
        E 0 92 38 64
        E 0 92 31 64
        E 30 92 31 00
        E 0 92 38 00
        E 0 92 35 64
        E 0 92 2e 64
        E 90 92 2e 00
        E 0 92 35 00
        E 0 92 35 64
        E 0 92 2e 64
        E 30 92 2e 00
        E 0 92 35 00
        E 0 92 35 64
        E 0 92 2e 64
        E 60 92 2e 00
        E 0 92 35 00
        E 0 92 35 64
        E 0 92 2e 64
        E 30 92 2e 00
        E 0 92 35 00
        E 0 92 35 64
        E 0 92 2e 64
        E 30 92 2e 00
        E 0 92 35 00
        E 0 92 33 64
        E 0 92 2c 64
        E 60 92 2c 00
        E 0 92 33 00
        E 0 92 33 64
        E 0 92 2c 64
        E 60 92 2c 00
        E 0 92 33 00
        E 0 92 33 64
        E 0 92 2c 64
        E 90 92 2c 00
        E 0 92 33 00
        E 0 92 33 64
        E 0 92 2c 64
        E 30 92 2c 00
        E 0 92 33 00
        E 0 92 33 64
        E 0 92 2c 64
        E 90 92 2c 00
        E 0 92 33 00
        E 0 92 33 64
        E 0 92 2c 64
        E 30 92 2c 00
        E 0 92 33 00
        E 0 92 33 64
        E 0 92 2c 64
        E 60 92 2c 00
        E 0 92 33 00
        E 0 92 33 64
        E 0 92 2c 64
        E 30 92 2c 00
        E 0 92 33 00
        E 0 92 33 64
        E 0 92 2c 64
        E 30 92 2c 00
        E 0 92 33 00
        E 0 92 35 64
        E 0 92 2e 64
        E 60 92 2e 00
        E 0 92 35 00
        E 0 92 35 64
        E 0 92 2e 64
        E 60 92 2e 00
        E 0 92 35 00
        E 0 92 35 64
        E 0 92 2e 64
        E 90 92 2e 00
        E 0 92 35 00
        E 0 92 35 64
        E 0 92 2e 64
        E 30 92 2e 00
        E 0 92 35 00
        E 0 92 35 64
        E 0 92 2e 64
        E 90 92 2e 00
        E 0 92 35 00
        E 0 92 35 64
        E 0 92 2e 64
        E 30 92 2e 00
        E 0 92 35 00
        E 0 92 35 64
        E 0 92 2e 64
        E 60 92 2e 00
        E 0 92 35 00
        E 0 92 35 64
        E 0 92 2e 64
        E 30 92 2e 00
        E 0 92 35 00
        E 0 92 35 64
        E 0 92 2e 64
        E 30 92 2e 00
        E 0 92 35 00
        E 0 92 33 64
        E 0 92 2c 64
        E 60 92 2c 00
        E 0 92 33 00
        E 0 92 33 64
        E 0 92 2c 64
        E 60 92 2c 00
        E 0 92 33 00
        E 0 92 33 64
        E 0 92 2c 64
        E 90 92 2c 00
        E 0 92 33 00
        E 0 92 33 64
        E 0 92 2c 64
        E 30 92 2c 00
        E 0 92 33 00
        E 0 92 33 64
        E 0 92 2c 64
        E 90 92 2c 00
        E 0 92 33 00
        E 0 92 33 64
        E 0 92 2c 64
        E 30 92 2c 00
        E 0 92 33 00
        E 0 92 33 64
        E 0 92 2c 64
        E 60 92 2c 00
        E 0 92 33 00
        E 0 92 33 64
        E 0 92 2c 64
        E 30 92 2c 00
        E 0 92 33 00
        E 0 92 33 64
        E 0 92 2c 64
        E 30 92 2c 00
        E 0 92 33 00
        E 0 92 35 64
        E 0 92 2e 64
        E 60 92 2e 00
        E 0 92 35 00
        E 0 92 35 64
        E 0 92 2e 64
        E 60 92 2e 00
        E 0 92 35 00
        E 0 92 35 64
        E 0 92 2e 64
        E 90 92 2e 00
        E 0 92 35 00
        E 0 92 35 64
        E 0 92 2e 64
        E 30 92 2e 00
        E 0 92 35 00
        E 0 92 35 64
        E 0 92 2e 64
        E 90 92 2e 00
        E 0 92 35 00
        E 0 92 35 64
        E 0 92 2e 64
        E 30 92 2e 00
        E 0 92 35 00
        E 0 92 35 64
        E 0 92 2e 64
        E 60 92 2e 00
        E 0 92 35 00
        E 0 92 35 64
        E 0 92 2e 64
        E 30 92 2e 00
        E 0 92 35 00
        E 0 92 35 64
        E 0 92 2e 64
        E 29 92 2e 00
        E 0 92 35 00
        E 1 b0 7b 00
        GUID {A236D826-3275-482A-944C-BB273DAAA9CC}
        IGNTEMPO 0 120.00000000 4 4
        SRCCOLOR 1222
        VELLANE -1 111 0
      >
    >
  >
  <TRACK '{6B05B6CE-D1DC-4CAD-AAEC-FA73FDEAE09C}'
    NAME "Drums (Standard Kit) - AvaAdore.midi"
    PEAKCOL 16576
    BEAT -1
    AUTOMODE 0
    VOLPAN 1.00000000000000 0.00000000000000 -1.00000000000000 -1.00000000000000 1.00000000000000
    MUTESOLO 1 0 0
    IPHASE 0
    ISBUS 0 0
    BUSCOMP 0 0
    SHOWINMIX 1 0.666700 0.500000 1 0.500000 0 -1 0
    FREEMODE 0
    SEL 0
    REC 0 0 0 0 0 0 0
    VU 2
    TRACKHEIGHT 0 0
    INQ 0 0 0 0.5000000000 100 0 0 100
    NCHAN 2
    FX 1
    TRACKID {6B05B6CE-D1DC-4CAD-AAEC-FA73FDEAE09C}
    PERF 0
    MIDIOUT 0
    MAINSEND 1 0
    <ITEM
      POSITION 0.00000000000000
      SNAPOFFS 0.00000000000000
      LENGTH 260.84037200000000
      LOOP 1
      ALLTAKES 0
      SEL 0
      FADEIN 1 0.000000 0.000000 1 0 0.000000
      FADEOUT 1 0.000000 0.000000 1 0 0.000000
      MUTE 0
      IGUID {3F83E1B2-139B-4C9F-B2F8-FB3C9CC9B9CF}
      IID 6
      NAME "Drums (Standard Kit) - AvaAdore.midi.mid"
      VOLPAN 1.000000 0.000000 1.000000 -1.000000
      SOFFS 0.00000000000000 0.00000000000000
      PLAYRATE 1.00000000000000 1 0.00000000000000 -1 0 0.002500
      CHANMODE 0
      GUID {1D6F3A0C-185C-4970-87C0-10C48717D6A6}
      <SOURCE MIDI
        HASDATA 1 120 QN
        POOLEDEVTS {D87EB842-47ED-4C41-A0D1-20F39DF87DDA}
        <X 0 0
          /wNBdmEgQWRvcmU=
        >
        <X 0 0
          /wNNaXh0dXJlIG9mIFN0dWRpbyBhbmQgTGl2ZSBWZXJzaW9u
        >
        <X 0 0
          /wNEcnVtcyAoU3RhbmRhcmQgS2l0KQ==
        >
        <X 0 0
          /wFUaGlzIE1pZGkgZmlsZSBoYXMgYmVlbiBvcHRpbWlzZWQgZm9yIA==
          WEcgU3ludGhlc2lzZXJzLgo=
        >
        <X 0 0
          /wFDaGFubmVsIDEwIGFuZCAxMSBoYXZlIHRvIG1hZGUgdG8gYmUgZA==
          cnVtIGNoYW5uZWxzLgo=
        >
        <X 0 0
          /wFDaGFubmVsIDEwIGJlaW5nIGEgU3RhbmRhcmQgRHJ1bSBLaXQK
        >
        <X 0 0
          /wFDaGFubmVsIDExIGJlaW5nIGEgUm9jayBLaXQgKEJldHRlciBCYQ==
          c3MgRHJ1bSkK
        >
        E 0 b9 00 7f
        E 0 b9 20 00
        E 0 c9 00 00
        E 0 b9 07 50
        E 480 99 2a 7f
        E 0 99 1b 7f
        E 0 99 3b 7f
        E 30 99 3b 00
        E 0 99 1b 00
        E 0 99 2a 00
        E 0 99 1b 7f
        E 0 99 2a 7f
        E 30 99 2a 00
        E 0 99 1b 00
        E 0 99 1b 7f
        E 30 99 1b 00
        E 0 99 1b 7f
        E 0 99 2a 7f
        E 30 99 2a 00
        E 0 99 1b 00
        E 0 99 1b 7f
        E 0 99 2a 7f
        E 0 99 3c 7f
        E 30 99 3c 00
        E 0 99 2a 00
        E 0 99 1b 00
        E 0 99 1b 7f
        E 0 99 3d 7f
        E 30 99 3d 00
        E 0 99 1b 00
        E 0 99 1b 7f
        E 0 99 2a 7f
        E 0 99 3d 7f
        E 30 99 3d 00
        E 0 99 2a 00
        E 0 99 1b 00
        E 0 99 1b 7f
        E 30 99 1b 00
        E 0 99 1b 7f
        E 0 99 2a 7f
        E 30 99 2a 00
        E 0 99 1b 00
        E 0 99 1b 7f
        E 0 99 2a 7f
        E 30 99 2a 00
        E 0 99 1b 00
        E 0 99 1b 7f
        E 0 99 3c 7f
        E 30 99 3c 00
        E 0 99 1b 00
        E 0 99 1b 7f
        E 0 99 2a 7f
        E 0 99 3d 7f
        E 30 99 3d 00
        E 0 99 2a 00
        E 0 99 1b 00
        E 0 99 1b 7f
        E 0 99 3d 7f
        E 30 99 3d 00
        E 0 99 1b 00
        E 0 99 1b 7f
        E 0 99 2a 7f
        E 0 99 3c 7f
        E 30 99 3c 00
        E 0 99 2a 00
        E 0 99 1b 00
        E 0 99 1b 7f
        E 30 99 1b 00
        E 0 99 1b 7f
        E 0 99 2a 7f
        E 30 99 2a 00
        E 0 99 1b 00
        E 0 99 2a 7f
        E 0 99 1b 7f
        E 0 99 3b 7f
        E 30 99 3b 00
        E 0 99 1b 00
        E 0 99 2a 00
        E 0 99 1b 7f
        E 0 99 2a 7f
        E 30 99 2a 00
        E 0 99 1b 00
        E 0 99 1b 7f
        E 30 99 1b 00
        E 0 99 1b 7f
        E 0 99 2a 7f
        E 30 99 2a 00
        E 0 99 1b 00
        E 0 99 1b 7f
        E 0 99 2a 7f
        E 0 99 3c 7f
        E 30 99 3c 00
        E 0 99 2a 00
        E 0 99 1b 00
        E 0 99 1b 7f
        E 0 99 3d 7f
        E 30 99 3d 00
        E 0 99 1b 00
        E 0 99 1b 7f
        E 0 99 2a 7f
        E 0 99 3d 7f
        E 30 99 3d 00
        E 0 99 2a 00
        E 0 99 1b 00
        E 0 99 1b 7f
        E 30 99 1b 00
        E 0 99 1b 7f
        E 0 99 2a 7f
        E 30 99 2a 00
        E 0 99 1b 00
        E 0 99 1b 7f
        E 0 99 2a 7f
        E 30 99 2a 00
        E 0 99 1b 00
        E 0 99 1b 7f
        E 0 99 3c 7f
        E 30 99 3c 00
        E 0 99 1b 00
        E 0 99 1b 7f
        E 0 99 2a 7f
        E 0 99 3d 7f
        E 30 99 3d 00
        E 0 99 2a 00
        E 0 99 1b 00
        E 0 99 1b 7f
        E 0 99 3d 7f
        E 30 99 3d 00
        E 0 99 1b 00
        E 0 99 1b 7f
        E 0 99 2a 7f
        E 0 99 3c 7f
        E 30 99 3c 00
        E 0 99 2a 00
        E 0 99 1b 00
        E 0 99 1b 7f
        E 30 99 1b 00
        E 0 99 1b 7f
        E 0 99 2a 7f
        E 30 99 2a 00
        E 0 99 1b 00
        E 0 99 1b 7f
        E 0 99 2a 7f
        E 0 99 3b 7f
        E 30 99 3b 00
        E 0 99 2a 00
        E 0 99 1b 00
        E 0 99 1b 7f
        E 0 99 2a 7f
        E 30 99 2a 00
        E 0 99 1b 00
        E 0 99 1b 7f
        E 30 99 1b 00
        E 0 99 1b 7f
        E 0 99 2a 7f
        E 30 99 2a 00
        E 0 99 1b 00
        E 0 99 1b 7f
        E 0 99 2a 7f
        E 0 99 3c 7f
        E 30 99 3c 00
        E 0 99 2a 00
        E 0 99 1b 00
        E 0 99 1b 7f
        E 0 99 3d 7f
        E 30 99 3d 00
        E 0 99 1b 00
        E 0 99 1b 7f
        E 0 99 2a 7f
        E 0 99 3d 7f
        E 30 99 3d 00
        E 0 99 2a 00
        E 0 99 1b 00
        E 0 99 1b 7f
        E 30 99 1b 00
        E 0 99 1b 7f
        E 0 99 2a 7f
        E 30 99 2a 00
        E 0 99 1b 00
        E 0 99 1b 7f
        E 0 99 2a 7f
        E 30 99 2a 00
        E 0 99 1b 00
        E 0 99 1b 7f
        E 0 99 3c 7f
        E 30 99 3c 00
        E 0 99 1b 00
        E 0 99 1b 7f
        E 0 99 2a 7f
        E 0 99 3d 7f
        E 30 99 3d 00
        E 0 99 2a 00
        E 0 99 1b 00
        E 0 99 1b 7f
        E 0 99 3d 7f
        E 30 99 3d 00
        E 0 99 1b 00
        E 0 99 1b 7f
        E 0 99 2a 7f
        E 0 99 3c 7f
        E 30 99 3c 00
        E 0 99 2a 00
        E 0 99 1b 00
        E 0 99 1b 7f
        E 30 99 1b 00
        E 0 99 1b 7f
        E 0 99 2a 7f
        E 30 99 2a 00
        E 0 99 1b 00
        E 0 99 3b 7f
        E 0 99 1b 7f
        E 0 99 2a 7f
        E 30 99 2a 00
        E 0 99 1b 00
        E 0 99 3b 00
        E 0 99 1b 7f
        E 0 99 2a 7f
        E 30 99 2a 00
        E 0 99 1b 00
        E 0 99 1b 7f
        E 30 99 1b 00
        E 0 99 1b 7f
        E 0 99 2a 7f
        E 30 99 2a 00
        E 0 99 1b 00
        E 0 99 1b 7f
        E 0 99 2a 7f
        E 0 99 3c 7f
        E 30 99 3c 00
        E 0 99 2a 00
        E 0 99 1b 00
        E 0 99 1b 7f
        E 0 99 3d 7f
        E 30 99 3d 00
        E 0 99 1b 00
        E 0 99 1b 7f
        E 0 99 2a 7f
        E 0 99 3d 7f
        E 30 99 3d 00
        E 0 99 2a 00
        E 0 99 1b 00
        E 0 99 1b 7f
        E 30 99 1b 00
        E 0 99 1b 7f
        E 0 99 2a 7f
        E 30 99 2a 00
        E 0 99 1b 00
        E 0 99 1b 7f
        E 0 99 2a 7f
        E 30 99 2a 00
        E 0 99 1b 00
        E 0 99 1b 7f
        E 0 99 3c 7f
        E 30 99 3c 00
        E 0 99 1b 00
        E 0 99 1b 7f
        E 0 99 2a 7f
        E 0 99 3d 7f
        E 30 99 3d 00
        E 0 99 2a 00
        E 0 99 1b 00
        E 0 99 1b 7f
        E 0 99 3d 7f
        E 30 99 3d 00
        E 0 99 1b 00
        E 0 99 1b 7f
        E 0 99 2a 7f
        E 0 99 3c 7f
        E 30 99 3c 00
        E 0 99 2a 00
        E 0 99 1b 00
        E 0 99 1b 7f
        E 30 99 1b 00
        E 0 99 1b 7f
        E 0 99 2a 7f
        E 30 99 2a 00
        E 0 99 1b 00
        E 0 99 2a 7f
        E 0 99 1b 7f
        E 0 99 3b 7f
        E 30 99 3b 00
        E 0 99 1b 00
        E 0 99 2a 00
        E 0 99 1b 7f
        E 0 99 2a 7f
        E 30 99 2a 00
        E 0 99 1b 00
        E 0 99 1b 7f
        E 30 99 1b 00
        E 0 99 1b 7f
        E 0 99 2a 7f
        E 30 99 2a 00
        E 0 99 1b 00
        E 0 99 1b 7f
        E 0 99 2a 7f
        E 0 99 3c 7f
        E 30 99 3c 00
        E 0 99 2a 00
        E 0 99 1b 00
        E 0 99 1b 7f
        E 0 99 3d 7f
        E 30 99 3d 00
        E 0 99 1b 00
        E 0 99 1b 7f
        E 0 99 2a 7f
        E 0 99 3d 7f
        E 30 99 3d 00
        E 0 99 2a 00
        E 0 99 1b 00
        E 0 99 1b 7f
        E 30 99 1b 00
        E 0 99 1b 7f
        E 0 99 2a 7f
        E 30 99 2a 00
        E 0 99 1b 00
        E 0 99 1b 7f
        E 0 99 2a 7f
        E 30 99 2a 00
        E 0 99 1b 00
        E 0 99 1b 7f
        E 0 99 3c 7f
        E 30 99 3c 00
        E 0 99 1b 00
        E 0 99 1b 7f
        E 0 99 2a 7f
        E 0 99 3d 7f
        E 30 99 3d 00
        E 0 99 2a 00
        E 0 99 1b 00
        E 0 99 1b 7f
        E 0 99 3d 7f
        E 30 99 3d 00
        E 0 99 1b 00
        E 0 99 1b 7f
        E 0 99 2a 7f
        E 0 99 3c 7f
        E 30 99 3c 00
        E 0 99 2a 00
        E 0 99 1b 00
        E 0 99 1b 7f
        E 30 99 1b 00
        E 0 99 1b 7f
        E 0 99 2a 7f
        E 30 99 2a 00
        E 0 99 1b 00
        E 0 99 1b 7f
        E 0 99 2a 7f
        E 0 99 3b 7f
        E 30 99 3b 00
        E 0 99 2a 00
        E 0 99 1b 00
        E 0 99 1b 7f
        E 0 99 2a 7f
        E 30 99 2a 00
        E 0 99 1b 00
        E 0 99 1b 7f
        E 30 99 1b 00
        E 0 99 1b 7f
        E 0 99 2a 7f
        E 30 99 2a 00
        E 0 99 1b 00
        E 0 99 1b 7f
        E 0 99 2a 7f
        E 0 99 3c 7f
        E 30 99 3c 00
        E 0 99 2a 00
        E 0 99 1b 00
        E 0 99 1b 7f
        E 0 99 3d 7f
        E 30 99 3d 00
        E 0 99 1b 00
        E 0 99 1b 7f
        E 0 99 2a 7f
        E 0 99 3d 7f
        E 30 99 3d 00
        E 0 99 2a 00
        E 0 99 1b 00
        E 0 99 1b 7f
        E 30 99 1b 00
        E 0 99 1b 7f
        E 0 99 2a 7f
        E 30 99 2a 00
        E 0 99 1b 00
        E 0 99 1b 7f
        E 0 99 2a 7f
        E 30 99 2a 00
        E 0 99 1b 00
        E 0 99 1b 7f
        E 0 99 3c 7f
        E 30 99 3c 00
        E 0 99 1b 00
        E 0 99 1b 7f
        E 0 99 2a 7f
        E 0 99 3d 7f
        E 30 99 3d 00
        E 0 99 2a 00
        E 0 99 1b 00
        E 0 99 1b 7f
        E 0 99 3d 7f
        E 30 99 3d 00
        E 0 99 1b 00
        E 0 99 1b 7f
        E 0 99 2a 7f
        E 0 99 3c 7f
        E 30 99 3c 00
        E 0 99 2a 00
        E 0 99 1b 00
        E 0 99 1b 7f
        E 30 99 1b 00
        E 0 99 1b 7f
        E 0 99 2a 7f
        E 30 99 2a 00
        E 0 99 1b 00
        E 0 99 3b 7f
        E 0 99 1b 7f
        E 0 99 2a 7f
        E 30 99 2a 00
        E 0 99 1b 00
        E 0 99 3b 00
        E 0 99 1b 7f
        E 0 99 2a 7f
        E 30 99 2a 00
        E 0 99 1b 00
        E 0 99 1b 7f
        E 30 99 1b 00
        E 0 99 1b 7f
        E 0 99 2a 7f
        E 30 99 2a 00
        E 0 99 1b 00
        E 0 99 1b 7f
        E 0 99 2a 7f
        E 0 99 3c 7f
        E 30 99 3c 00
        E 0 99 2a 00
        E 0 99 1b 00
        E 0 99 1b 7f
        E 0 99 3d 7f
        E 30 99 3d 00
        E 0 99 1b 00
        E 0 99 1b 7f
        E 0 99 2a 7f
        E 0 99 3d 7f
        E 30 99 3d 00
        E 0 99 2a 00
        E 0 99 1b 00
        E 0 99 1b 7f
        E 30 99 1b 00
        E 0 99 1b 7f
        E 0 99 2a 7f
        E 30 99 2a 00
        E 0 99 1b 00
        E 0 99 1b 7f
        E 0 99 2a 7f
        E 30 99 2a 00
        E 0 99 1b 00
        E 0 99 1b 7f
        E 0 99 3c 7f
        E 30 99 3c 00
        E 0 99 1b 00
        E 0 99 1b 7f
        E 0 99 2a 7f
        E 0 99 3d 7f
        E 30 99 3d 00
        E 0 99 2a 00
        E 0 99 1b 00
        E 0 99 1b 7f
        E 0 99 3d 7f
        E 30 99 3d 00
        E 0 99 1b 00
        E 0 99 1b 7f
        E 0 99 2a 7f
        E 0 99 3c 7f
        E 30 99 3c 00
        E 0 99 2a 00
        E 0 99 1b 00
        E 0 99 1b 7f
        E 30 99 1b 00
        E 0 99 1b 7f
        E 0 99 2a 7f
        E 30 99 2a 00
        E 0 99 1b 00
        E 0 99 3b 7f
        E 0 99 2a 7f
        E 0 99 1b 7f
        E 0 99 26 7f
        E 30 99 26 00
        E 0 99 1b 00
        E 0 99 3b 00
        E 0 99 2a 00
        E 0 99 26 00
        E 0 99 1b 7f
        E 30 99 1b 00
        E 0 99 1b 7f
        E 0 99 26 7f
        E 30 99 26 00
        E 0 99 1b 00
        E 0 99 1b 7f
        E 30 99 1b 00
        E 0 99 2a 7f
        E 0 99 3b 7f
        E 0 99 1b 7f
        E 0 99 26 7f
        E 30 99 26 00
        E 0 99 1b 00
        E 0 99 2a 00
        E 0 99 3b 00
        E 0 99 26 00
        E 0 99 1b 7f
        E 30 99 1b 00
        E 0 99 1b 7f
        E 0 99 26 7f
        E 30 99 26 00
        E 0 99 1b 00
        E 0 99 1b 7f
        E 30 99 1b 00
        E 0 99 3b 7f
        E 0 99 2a 7f
        E 0 99 28 7f
        E 0 99 1b 7f
        E 30 99 1b 00
        E 0 99 3b 00
        E 0 99 2a 00
        E 0 99 28 00
        E 0 99 3b 7f
        E 0 99 28 7f
        E 0 99 2a 7f
        E 0 99 1b 7f
        E 30 99 1b 00
        E 0 99 3b 00
        E 0 99 28 00
        E 0 99 2a 00
        E 0 99 2a 7f
        E 0 99 3b 7f
        E 0 99 28 7f
        E 0 99 1b 7f
        E 30 99 1b 00
        E 0 99 2a 00
        E 0 99 3b 00
        E 0 99 28 00
        E 0 99 2a 7f
        E 0 99 1b 7f
        E 0 99 3b 7f
        E 0 99 28 7f
        E 30 99 28 00
        E 0 99 2a 00
        E 0 99 1b 00
        E 0 99 3b 00
        E 0 99 2a 7f
        E 0 99 3b 7f
        E 0 99 28 7f
        E 0 99 1b 7f
        E 30 99 1b 00
        E 0 99 2a 00
        E 0 99 3b 00
        E 0 99 28 00
        E 0 99 3b 7f
        E 0 99 28 7f
        E 0 99 2a 7f
        E 0 99 1b 7f
        E 30 99 1b 00
        E 0 99 3b 00
        E 0 99 28 00
        E 0 99 2a 00
        E 0 99 2a 7f
        E 0 99 3b 7f
        E 0 99 28 7f
        E 0 99 1b 7f
        E 30 99 1b 00
        E 0 99 2a 00
        E 0 99 3b 00
        E 0 99 28 00
        E 0 99 2a 7f
        E 0 99 1b 7f
        E 0 99 3b 7f
        E 0 99 28 7f
        E 30 99 28 00
        E 0 99 2a 00
        E 0 99 1b 00
        E 0 99 3b 00
        E 0 99 1b 7f
        E 0 99 2a 7f
        E 0 99 33 7c
        E 0 99 2a 7c
        E 30 99 2a 00
        E 0 99 1b 00
        E 0 99 2a 00
        E 0 99 33 00
        E 0 99 1b 7f
        E 0 99 2a 7f
        E 30 99 2a 00
        E 0 99 1b 00
        E 0 99 1b 7f
        E 0 99 33 41
        E 0 99 2a 41
        E 30 99 2a 00
        E 0 99 33 00
        E 0 99 1b 00
        E 0 99 1b 7f
        E 0 99 2a 7f
        E 0 99 33 40
        E 30 99 33 00
        E 0 99 2a 00
        E 0 99 1b 00
        E 0 99 26 7f
        E 0 99 28 7f
        E 0 99 1b 7f
        E 0 99 2a 7f
        E 0 99 33 73
        E 0 99 28 73
        E 0 99 2a 73
        E 30 99 2a 00
        E 0 99 28 00
        E 0 99 1b 00
        E 0 99 26 00
        E 0 99 28 00
        E 0 99 1b 7f
        E 30 99 1b 00
        E 0 99 33 00
        E 0 99 1b 7f
        E 0 99 2a 4d
        E 30 99 2a 00
        E 0 99 1b 00
        E 0 99 28 7f
        E 0 99 1b 7f
        E 0 99 33 64
        E 0 99 28 64
        E 30 99 28 00
        E 0 99 1b 00
        E 0 99 33 00
        E 0 99 1b 7f
        E 0 99 2a 7f
        E 0 99 33 68
        E 0 99 2a 68
        E 30 99 2a 00
        E 0 99 1b 00
        E 0 99 2a 00
        E 0 99 33 00
        E 0 99 1b 7f
        E 0 99 2a 7f
        E 0 99 33 35
        E 0 99 28 35
        E 30 99 28 00
        E 0 99 1b 00
        E 0 99 2a 00
        E 0 99 33 00
        E 0 99 1b 7f
        E 0 99 33 4c
        E 0 99 2a 4c
        E 30 99 2a 00
        E 0 99 1b 00
        E 0 99 1b 7f
        E 0 99 2a 7f
        E 30 99 2a 00
        E 0 99 1b 00
        E 0 99 33 00
        E 0 99 26 7f
        E 0 99 28 7f
        E 0 99 1b 7f
        E 0 99 33 7d
        E 0 99 28 7d
        E 0 99 2a 7d
        E 30 99 2a 00
        E 0 99 28 00
        E 0 99 1b 00
        E 0 99 26 00
        E 0 99 28 00
        E 0 99 33 00
        E 0 99 1b 7f
        E 0 99 2a 7f
        E 0 99 33 32
        E 30 99 33 00
        E 0 99 2a 00
        E 0 99 1b 00
        E 0 99 1b 7f
        E 0 99 2a 44
        E 0 99 28 44
        E 0 99 2a 44
        E 30 99 28 00
        E 0 99 1b 00
        E 0 99 2a 00
        E 0 99 1b 7f
        E 0 99 2a 7f
        E 0 99 28 3e
        E 30 99 28 00
        E 0 99 2a 00
        E 0 99 1b 00
        E 0 99 2a 00
        E 0 99 1b 7f
        E 0 99 2a 7f
        E 0 99 33 7f
        E 0 99 2a 7f
        E 30 99 2a 00
        E 0 99 1b 00
        E 0 99 2a 00
        E 0 99 33 00
        E 0 99 1b 7f
        E 0 99 2a 7f
        E 30 99 2a 00
        E 0 99 1b 00
        E 0 99 1b 7f
        E 0 99 33 4f
        E 0 99 2a 4f
        E 30 99 2a 00
        E 0 99 33 00
        E 0 99 1b 00
        E 0 99 1b 7f
        E 0 99 2a 7f
        E 0 99 33 39
        E 30 99 33 00
        E 0 99 2a 00
        E 0 99 1b 00
        E 0 99 26 7f
        E 0 99 28 7f
        E 0 99 1b 7f
        E 0 99 2a 7f
        E 0 99 33 71
        E 0 99 28 71
        E 0 99 2a 71
        E 30 99 2a 00
        E 0 99 28 00
        E 0 99 1b 00
        E 0 99 26 00
        E 0 99 28 00
        E 0 99 1b 7f
        E 30 99 1b 00
        E 0 99 33 00
        E 0 99 1b 7f
        E 0 99 2a 45
        E 30 99 2a 00
        E 0 99 1b 00
        E 0 99 28 7f
        E 0 99 1b 7f
        E 0 99 33 67
        E 0 99 28 67
        E 30 99 28 00
        E 0 99 1b 00
        E 0 99 33 00
        E 0 99 1b 7f
        E 0 99 2a 7f
        E 0 99 33 71
        E 0 99 2a 71
        E 30 99 2a 00
        E 0 99 1b 00
        E 0 99 2a 00
        E 0 99 33 00
        E 0 99 1b 7f
        E 0 99 2a 7f
        E 0 99 33 36
        E 0 99 28 36
        E 30 99 28 00
        E 0 99 1b 00
        E 0 99 2a 00
        E 0 99 33 00
        E 0 99 1b 7f
        E 0 99 33 47
        E 0 99 2a 47
        E 30 99 2a 00
        E 0 99 1b 00
        E 0 99 1b 7f
        E 0 99 2a 7f
        E 30 99 2a 00
        E 0 99 1b 00
        E 0 99 33 00
        E 0 99 26 7f
        E 0 99 28 7f
        E 0 99 1b 7f
        E 0 99 33 6a
        E 0 99 28 6a
        E 0 99 2a 6a
        E 30 99 2a 00
        E 0 99 28 00
        E 0 99 1b 00
        E 0 99 26 00
        E 0 99 28 00
        E 0 99 33 00
        E 0 99 1b 7f
        E 0 99 2a 7f
        E 0 99 33 38
        E 30 99 33 00
        E 0 99 2a 00
        E 0 99 1b 00
        E 0 99 1b 7f
        E 0 99 2a 48
        E 0 99 28 48
        E 0 99 2a 48
        E 30 99 28 00
        E 0 99 1b 00
        E 0 99 2a 00
        E 0 99 1b 7f
        E 0 99 2a 7f
        E 0 99 28 4d
        E 30 99 28 00
        E 0 99 2a 00
        E 0 99 1b 00
        E 0 99 2a 00
        E 0 99 1b 7f
        E 0 99 2a 7f
        E 0 99 33 7c
        E 0 99 2a 7c
        E 30 99 2a 00
        E 0 99 1b 00
        E 0 99 2a 00
        E 0 99 33 00
        E 0 99 1b 7f
        E 0 99 2a 7f
        E 30 99 2a 00
        E 0 99 1b 00
        E 0 99 1b 7f
        E 0 99 33 41
        E 0 99 2a 41
        E 30 99 2a 00
        E 0 99 33 00
        E 0 99 1b 00
        E 0 99 1b 7f
        E 0 99 2a 7f
        E 0 99 33 40
        E 30 99 33 00
        E 0 99 2a 00
        E 0 99 1b 00
        E 0 99 26 7f
        E 0 99 28 7f
        E 0 99 1b 7f
        E 0 99 2a 7f
        E 0 99 33 73
        E 0 99 28 73
        E 0 99 2a 73
        E 30 99 2a 00
        E 0 99 28 00
        E 0 99 1b 00
        E 0 99 26 00
        E 0 99 28 00
        E 0 99 1b 7f
        E 30 99 1b 00
        E 0 99 33 00
        E 0 99 1b 7f
        E 0 99 2a 4d
        E 30 99 2a 00
        E 0 99 1b 00
        E 0 99 28 7f
        E 0 99 1b 7f
        E 0 99 33 64
        E 0 99 28 64
        E 30 99 28 00
        E 0 99 1b 00
        E 0 99 33 00
        E 0 99 1b 7f
        E 0 99 2a 7f
        E 0 99 33 68
        E 0 99 2a 68
        E 30 99 2a 00
        E 0 99 1b 00
        E 0 99 2a 00
        E 0 99 33 00
        E 0 99 1b 7f
        E 0 99 2a 7f
        E 0 99 33 35
        E 0 99 28 35
        E 30 99 28 00
        E 0 99 1b 00
        E 0 99 2a 00
        E 0 99 33 00
        E 0 99 1b 7f
        E 0 99 33 4c
        E 0 99 2a 4c
        E 30 99 2a 00
        E 0 99 1b 00
        E 0 99 1b 7f
        E 0 99 2a 7f
        E 30 99 2a 00
        E 0 99 1b 00
        E 0 99 33 00
        E 0 99 26 7f
        E 0 99 28 7f
        E 0 99 1b 7f
        E 0 99 33 7d
        E 0 99 28 7d
        E 0 99 2a 7d
        E 30 99 2a 00
        E 0 99 28 00
        E 0 99 1b 00
        E 0 99 26 00
        E 0 99 28 00
        E 0 99 33 00
        E 0 99 1b 7f
        E 0 99 2a 7f
        E 0 99 33 32
        E 30 99 33 00
        E 0 99 2a 00
        E 0 99 1b 00
        E 0 99 1b 7f
        E 0 99 2a 44
        E 0 99 28 44
        E 0 99 2a 44
        E 30 99 28 00
        E 0 99 1b 00
        E 0 99 2a 00
        E 0 99 1b 7f
        E 0 99 2a 7f
        E 0 99 28 3e
        E 30 99 28 00
        E 0 99 2a 00
        E 0 99 1b 00
        E 0 99 2a 00
        E 0 99 1b 7f
        E 0 99 2a 7f
        E 0 99 33 7f
        E 0 99 2a 7f
        E 30 99 2a 00
        E 0 99 1b 00
        E 0 99 2a 00
        E 0 99 33 00
        E 0 99 1b 7f
        E 0 99 2a 7f
        E 30 99 2a 00
        E 0 99 1b 00
        E 0 99 1b 7f
        E 0 99 33 4f
        E 0 99 2a 4f
        E 30 99 2a 00
        E 0 99 33 00
        E 0 99 1b 00
        E 0 99 1b 7f
        E 0 99 2a 7f
        E 0 99 33 39
        E 30 99 33 00
        E 0 99 2a 00
        E 0 99 1b 00
        E 0 99 26 7f
        E 0 99 28 7f
        E 0 99 1b 7f
        E 0 99 2a 7f
        E 0 99 33 71
        E 0 99 28 71
        E 0 99 2a 71
        E 30 99 2a 00
        E 0 99 28 00
        E 0 99 1b 00
        E 0 99 26 00
        E 0 99 28 00
        E 0 99 1b 7f
        E 30 99 1b 00
        E 0 99 33 00
        E 0 99 1b 7f
        E 0 99 2a 45
        E 30 99 2a 00
        E 0 99 1b 00
        E 0 99 28 7f
        E 0 99 1b 7f
        E 0 99 33 67
        E 0 99 28 67
        E 30 99 28 00
        E 0 99 1b 00
        E 0 99 33 00
        E 0 99 1b 7f
        E 0 99 2a 7f
        E 0 99 33 71
        E 0 99 2a 71
        E 30 99 2a 00
        E 0 99 1b 00
        E 0 99 2a 00
        E 0 99 33 00
        E 0 99 1b 7f
        E 0 99 2a 7f
        E 0 99 33 36
        E 0 99 28 36
        E 30 99 28 00
        E 0 99 1b 00
        E 0 99 2a 00
        E 0 99 33 00
        E 0 99 1b 7f
        E 0 99 33 47
        E 0 99 2a 47
        E 30 99 2a 00
        E 0 99 1b 00
        E 0 99 1b 7f
        E 0 99 2a 7f
        E 30 99 2a 00
        E 0 99 1b 00
        E 0 99 33 00
        E 0 99 26 7f
        E 0 99 28 7f
        E 0 99 1b 7f
        E 0 99 33 6a
        E 0 99 28 6a
        E 0 99 2a 6a
        E 30 99 2a 00
        E 0 99 28 00
        E 0 99 1b 00
        E 0 99 26 00
        E 0 99 28 00
        E 0 99 33 00
        E 0 99 1b 7f
        E 0 99 2a 7f
        E 0 99 33 38
        E 30 99 33 00
        E 0 99 2a 00
        E 0 99 1b 00
        E 0 99 1b 7f
        E 0 99 2a 48
        E 0 99 28 48
        E 0 99 2a 48
        E 30 99 28 00
        E 0 99 1b 00
        E 0 99 2a 00
        E 0 99 1b 7f
        E 0 99 2a 7f
        E 0 99 28 4d
        E 30 99 28 00
        E 0 99 2a 00
        E 0 99 1b 00
        E 0 99 2a 00
        E 0 99 1b 7f
        E 0 99 2a 7f
        E 0 99 33 7c
        E 0 99 2a 7c
        E 30 99 2a 00
        E 0 99 1b 00
        E 0 99 2a 00
        E 0 99 33 00
        E 0 99 1b 7f
        E 0 99 2a 7f
        E 30 99 2a 00
        E 0 99 1b 00
        E 0 99 1b 7f
        E 0 99 33 41
        E 0 99 2a 41
        E 30 99 2a 00
        E 0 99 33 00
        E 0 99 1b 00
        E 0 99 1b 7f
        E 0 99 2a 7f
        E 0 99 33 40
        E 30 99 33 00
        E 0 99 2a 00
        E 0 99 1b 00
        E 0 99 26 7f
        E 0 99 28 7f
        E 0 99 1b 7f
        E 0 99 2a 7f
        E 0 99 33 73
        E 0 99 28 73
        E 0 99 2a 73
        E 30 99 2a 00
        E 0 99 28 00
        E 0 99 1b 00
        E 0 99 26 00
        E 0 99 28 00
        E 0 99 1b 7f
        E 30 99 1b 00
        E 0 99 33 00
        E 0 99 1b 7f
        E 0 99 2a 4d
        E 30 99 2a 00
        E 0 99 1b 00
        E 0 99 28 7f
        E 0 99 1b 7f
        E 0 99 33 64
        E 0 99 28 64
        E 30 99 28 00
        E 0 99 1b 00
        E 0 99 33 00
        E 0 99 1b 7f
        E 0 99 2a 7f
        E 0 99 33 68
        E 0 99 2a 68
        E 30 99 2a 00
        E 0 99 1b 00
        E 0 99 2a 00
        E 0 99 33 00
        E 0 99 1b 7f
        E 0 99 2a 7f
        E 0 99 33 35
        E 0 99 28 35
        E 30 99 28 00
        E 0 99 1b 00
        E 0 99 2a 00
        E 0 99 33 00
        E 0 99 1b 7f
        E 0 99 33 4c
        E 0 99 2a 4c
        E 30 99 2a 00
        E 0 99 1b 00
        E 0 99 1b 7f
        E 0 99 2a 7f
        E 30 99 2a 00
        E 0 99 1b 00
        E 0 99 33 00
        E 0 99 26 7f
        E 0 99 28 7f
        E 0 99 1b 7f
        E 0 99 33 7d
        E 0 99 28 7d
        E 0 99 2a 7d
        E 30 99 2a 00
        E 0 99 28 00
        E 0 99 1b 00
        E 0 99 26 00
        E 0 99 28 00
        E 0 99 33 00
        E 0 99 1b 7f
        E 0 99 2a 7f
        E 0 99 33 32
        E 30 99 33 00
        E 0 99 2a 00
        E 0 99 1b 00
        E 0 99 1b 7f
        E 0 99 2a 44
        E 0 99 28 44
        E 0 99 2a 44
        E 30 99 28 00
        E 0 99 1b 00
        E 0 99 2a 00
        E 0 99 1b 7f
        E 0 99 2a 7f
        E 0 99 28 3e
        E 30 99 28 00
        E 0 99 2a 00
        E 0 99 1b 00
        E 0 99 2a 00
        E 0 99 1b 7f
        E 0 99 2a 7f
        E 0 99 33 7f
        E 0 99 2a 7f
        E 30 99 2a 00
        E 0 99 1b 00
        E 0 99 2a 00
        E 0 99 33 00
        E 0 99 1b 7f
        E 0 99 2a 7f
        E 30 99 2a 00
        E 0 99 1b 00
        E 0 99 1b 7f
        E 0 99 33 4f
        E 0 99 2a 4f
        E 30 99 2a 00
        E 0 99 33 00
        E 0 99 1b 00
        E 0 99 1b 7f
        E 0 99 2a 7f
        E 0 99 33 39
        E 30 99 33 00
        E 0 99 2a 00
        E 0 99 1b 00
        E 0 99 26 7f
        E 0 99 28 7f
        E 0 99 1b 7f
        E 0 99 2a 7f
        E 0 99 33 71
        E 0 99 28 71
        E 0 99 2a 71
        E 30 99 2a 00
        E 0 99 28 00
        E 0 99 1b 00
        E 0 99 26 00
        E 0 99 28 00
        E 0 99 1b 7f
        E 30 99 1b 00
        E 0 99 33 00
        E 0 99 1b 7f
        E 0 99 2a 45
        E 30 99 2a 00
        E 0 99 1b 00
        E 0 99 28 7f
        E 0 99 1b 7f
        E 0 99 33 67
        E 0 99 28 67
        E 30 99 28 00
        E 0 99 1b 00
        E 0 99 33 00
        E 0 99 1b 7f
        E 0 99 2a 7f
        E 0 99 33 71
        E 0 99 2a 71
        E 30 99 2a 00
        E 0 99 1b 00
        E 0 99 2a 00
        E 0 99 33 00
        E 0 99 1b 7f
        E 0 99 2a 7f
        E 0 99 33 36
        E 0 99 28 36
        E 30 99 28 00
        E 0 99 1b 00
        E 0 99 2a 00
        E 0 99 33 00
        E 0 99 1b 7f
        E 0 99 33 47
        E 0 99 2a 47
        E 30 99 2a 00
        E 0 99 1b 00
        E 0 99 1b 7f
        E 0 99 2a 7f
        E 30 99 2a 00
        E 0 99 1b 00
        E 0 99 33 00
        E 0 99 26 7f
        E 0 99 28 7f
        E 0 99 1b 7f
        E 0 99 33 6a
        E 0 99 28 6a
        E 0 99 2a 6a
        E 30 99 2a 00
        E 0 99 28 00
        E 0 99 1b 00
        E 0 99 26 00
        E 0 99 28 00
        E 0 99 33 00
        E 0 99 1b 7f
        E 0 99 2a 7f
        E 0 99 33 38
        E 30 99 33 00
        E 0 99 2a 00
        E 0 99 1b 00
        E 0 99 1b 7f
        E 0 99 2a 48
        E 0 99 28 48
        E 0 99 2a 48
        E 30 99 28 00
        E 0 99 1b 00
        E 0 99 2a 00
        E 0 99 1b 7f
        E 0 99 2a 7f
        E 0 99 28 4d
        E 30 99 28 00
        E 0 99 2a 00
        E 0 99 1b 00
        E 0 99 2a 00
        E 0 99 1b 7f
        E 0 99 2a 7f
        E 0 99 33 7c
        E 0 99 2a 7c
        E 30 99 2a 00
        E 0 99 1b 00
        E 0 99 2a 00
        E 0 99 33 00
        E 0 99 1b 7f
        E 0 99 2a 7f
        E 30 99 2a 00
        E 0 99 1b 00
        E 0 99 1b 7f
        E 0 99 33 41
        E 0 99 2a 41
        E 30 99 2a 00
        E 0 99 33 00
        E 0 99 1b 00
        E 0 99 1b 7f
        E 0 99 2a 7f
        E 0 99 33 40
        E 30 99 33 00
        E 0 99 2a 00
        E 0 99 1b 00
        E 0 99 26 7f
        E 0 99 28 7f
        E 0 99 1b 7f
        E 0 99 2a 7f
        E 0 99 33 73
        E 0 99 28 73
        E 0 99 2a 73
        E 30 99 2a 00
        E 0 99 28 00
        E 0 99 1b 00
        E 0 99 26 00
        E 0 99 28 00
        E 0 99 1b 7f
        E 30 99 1b 00
        E 0 99 33 00
        E 0 99 1b 7f
        E 0 99 2a 4d
        E 30 99 2a 00
        E 0 99 1b 00
        E 0 99 28 7f
        E 0 99 1b 7f
        E 0 99 33 64
        E 0 99 28 64
        E 30 99 28 00
        E 0 99 1b 00
        E 0 99 33 00
        E 0 99 1b 7f
        E 0 99 2a 7f
        E 0 99 33 68
        E 0 99 2a 68
        E 30 99 2a 00
        E 0 99 1b 00
        E 0 99 2a 00
        E 0 99 33 00
        E 0 99 1b 7f
        E 0 99 2a 7f
        E 0 99 33 35
        E 0 99 28 35
        E 30 99 28 00
        E 0 99 1b 00
        E 0 99 2a 00
        E 0 99 33 00
        E 0 99 1b 7f
        E 0 99 33 4c
        E 0 99 2a 4c
        E 30 99 2a 00
        E 0 99 1b 00
        E 0 99 1b 7f
        E 0 99 2a 7f
        E 30 99 2a 00
        E 0 99 1b 00
        E 0 99 33 00
        E 0 99 26 7f
        E 0 99 28 7f
        E 0 99 1b 7f
        E 0 99 33 7d
        E 0 99 28 7d
        E 0 99 2a 7d
        E 30 99 2a 00
        E 0 99 28 00
        E 0 99 1b 00
        E 0 99 26 00
        E 0 99 28 00
        E 0 99 33 00
        E 0 99 1b 7f
        E 0 99 2a 7f
        E 0 99 33 32
        E 30 99 33 00
        E 0 99 2a 00
        E 0 99 1b 00
        E 0 99 1b 7f
        E 0 99 2a 44
        E 0 99 28 44
        E 0 99 2a 44
        E 30 99 28 00
        E 0 99 1b 00
        E 0 99 2a 00
        E 0 99 1b 7f
        E 0 99 2a 7f
        E 0 99 28 3e
        E 30 99 28 00
        E 0 99 2a 00
        E 0 99 1b 00
        E 0 99 2a 00
        E 0 99 1b 7f
        E 0 99 2a 7f
        E 0 99 33 7f
        E 0 99 2a 7f
        E 30 99 2a 00
        E 0 99 1b 00
        E 0 99 2a 00
        E 0 99 33 00
        E 0 99 1b 7f
        E 0 99 2a 7f
        E 30 99 2a 00
        E 0 99 1b 00
        E 0 99 1b 7f
        E 0 99 33 4f
        E 0 99 2a 4f
        E 30 99 2a 00
        E 0 99 33 00
        E 0 99 1b 00
        E 0 99 1b 7f
        E 0 99 2a 7f
        E 0 99 33 39
        E 30 99 33 00
        E 0 99 2a 00
        E 0 99 1b 00
        E 0 99 26 7f
        E 0 99 28 7f
        E 0 99 1b 7f
        E 0 99 2a 7f
        E 0 99 33 71
        E 0 99 28 71
        E 0 99 2a 71
        E 30 99 2a 00
        E 0 99 28 00
        E 0 99 1b 00
        E 0 99 26 00
        E 0 99 28 00
        E 0 99 1b 7f
        E 30 99 1b 00
        E 0 99 33 00
        E 0 99 1b 7f
        E 0 99 2a 45
        E 30 99 2a 00
        E 0 99 1b 00
        E 0 99 28 7f
        E 0 99 1b 7f
        E 0 99 33 67
        E 0 99 28 67
        E 30 99 28 00
        E 0 99 1b 00
        E 0 99 33 00
        E 0 99 1b 7f
        E 0 99 2a 7f
        E 0 99 33 71
        E 0 99 2a 71
        E 30 99 2a 00
        E 0 99 1b 00
        E 0 99 2a 00
        E 0 99 33 00
        E 0 99 1b 7f
        E 0 99 2a 7f
        E 0 99 33 36
        E 0 99 28 36
        E 30 99 28 00
        E 0 99 1b 00
        E 0 99 2a 00
        E 0 99 33 00
        E 0 99 1b 7f
        E 0 99 33 47
        E 0 99 2a 47
        E 30 99 2a 00
        E 0 99 1b 00
        E 0 99 1b 7f
        E 0 99 2a 7f
        E 30 99 2a 00
        E 0 99 1b 00
        E 0 99 33 00
        E 0 99 26 7f
        E 0 99 28 7f
        E 0 99 1b 7f
        E 0 99 33 6a
        E 0 99 28 6a
        E 0 99 2a 6a
        E 30 99 2a 00
        E 0 99 28 00
        E 0 99 1b 00
        E 0 99 26 00
        E 0 99 28 00
        E 0 99 33 00
        E 0 99 1b 7f
        E 0 99 2a 7f
        E 0 99 33 38
        E 30 99 33 00
        E 0 99 2a 00
        E 0 99 1b 00
        E 0 99 1b 7f
        E 0 99 2a 48
        E 0 99 28 48
        E 0 99 2a 48
        E 30 99 28 00
        E 0 99 1b 00
        E 0 99 2a 00
        E 0 99 1b 7f
        E 0 99 2a 7f
        E 0 99 28 4d
        E 30 99 28 00
        E 0 99 2a 00
        E 0 99 1b 00
        E 0 99 2a 00
        E 0 99 1b 7f
        E 0 99 2a 7f
        E 0 99 33 7c
        E 0 99 2a 7c
        E 30 99 2a 00
        E 0 99 1b 00
        E 0 99 2a 00
        E 0 99 33 00
        E 0 99 1b 7f
        E 0 99 2a 7f
        E 30 99 2a 00
        E 0 99 1b 00
        E 0 99 1b 7f
        E 0 99 33 41
        E 0 99 2a 41
        E 30 99 2a 00
        E 0 99 33 00
        E 0 99 1b 00
        E 0 99 1b 7f
        E 0 99 2a 7f
        E 0 99 33 40
        E 30 99 33 00
        E 0 99 2a 00
        E 0 99 1b 00
        E 0 99 26 7f
        E 0 99 28 7f
        E 0 99 1b 7f
        E 0 99 2a 7f
        E 0 99 33 73
        E 0 99 28 73
        E 0 99 2a 73
        E 30 99 2a 00
        E 0 99 28 00
        E 0 99 1b 00
        E 0 99 26 00
        E 0 99 28 00
        E 0 99 1b 7f
        E 30 99 1b 00
        E 0 99 33 00
        E 0 99 1b 7f
        E 0 99 2a 4d
        E 30 99 2a 00
        E 0 99 1b 00
        E 0 99 28 7f
        E 0 99 1b 7f
        E 0 99 33 64
        E 0 99 28 64
        E 30 99 28 00
        E 0 99 1b 00
        E 0 99 33 00
        E 0 99 1b 7f
        E 0 99 2a 7f
        E 0 99 33 68
        E 0 99 2a 68
        E 30 99 2a 00
        E 0 99 1b 00
        E 0 99 2a 00
        E 0 99 33 00
        E 0 99 1b 7f
        E 0 99 2a 7f
        E 0 99 33 35
        E 0 99 28 35
        E 30 99 28 00
        E 0 99 1b 00
        E 0 99 2a 00
        E 0 99 33 00
        E 0 99 1b 7f
        E 0 99 33 4c
        E 0 99 2a 4c
        E 30 99 2a 00
        E 0 99 1b 00
        E 0 99 1b 7f
        E 0 99 2a 7f
        E 30 99 2a 00
        E 0 99 1b 00
        E 0 99 33 00
        E 0 99 26 7f
        E 0 99 28 7f
        E 0 99 1b 7f
        E 0 99 33 7d
        E 0 99 28 7d
        E 0 99 2a 7d
        E 30 99 2a 00
        E 0 99 28 00
        E 0 99 1b 00
        E 0 99 26 00
        E 0 99 28 00
        E 0 99 33 00
        E 0 99 1b 7f
        E 0 99 2a 7f
        E 0 99 33 32
        E 30 99 33 00
        E 0 99 2a 00
        E 0 99 1b 00
        E 0 99 1b 7f
        E 0 99 2a 44
        E 0 99 28 44
        E 0 99 2a 44
        E 30 99 28 00
        E 0 99 1b 00
        E 0 99 2a 00
        E 0 99 1b 7f
        E 0 99 2a 7f
        E 0 99 28 3e
        E 30 99 28 00
        E 0 99 2a 00
        E 0 99 1b 00
        E 0 99 2a 00
        E 0 99 1b 7f
        E 0 99 2a 7f
        E 0 99 33 7f
        E 0 99 2a 7f
        E 30 99 2a 00
        E 0 99 1b 00
        E 0 99 2a 00
        E 0 99 33 00
        E 0 99 1b 7f
        E 0 99 2a 7f
        E 30 99 2a 00
        E 0 99 1b 00
        E 0 99 1b 7f
        E 0 99 33 4f
        E 0 99 2a 4f
        E 30 99 2a 00
        E 0 99 33 00
        E 0 99 1b 00
        E 0 99 1b 7f
        E 0 99 2a 7f
        E 0 99 33 39
        E 30 99 33 00
        E 0 99 2a 00
        E 0 99 1b 00
        E 0 99 26 7f
        E 0 99 28 7f
        E 0 99 1b 7f
        E 0 99 2a 7f
        E 0 99 33 71
        E 0 99 28 71
        E 0 99 2a 71
        E 30 99 2a 00
        E 0 99 28 00
        E 0 99 1b 00
        E 0 99 26 00
        E 0 99 28 00
        E 0 99 1b 7f
        E 30 99 1b 00
        E 0 99 33 00
        E 0 99 1b 7f
        E 0 99 2a 45
        E 30 99 2a 00
        E 0 99 1b 00
        E 0 99 28 7f
        E 0 99 1b 7f
        E 0 99 33 67
        E 0 99 28 67
        E 30 99 28 00
        E 0 99 1b 00
        E 0 99 33 00
        E 0 99 1b 7f
        E 0 99 2a 7f
        E 0 99 33 71
        E 0 99 2a 71
        E 0 99 2e 64
        E 0 99 28 64
        E 0 99 26 64
        E 30 99 26 00
        E 0 99 2e 00
        E 0 99 2a 00
        E 0 99 33 00
        E 0 99 1b 00
        E 0 99 28 00
        E 0 99 2a 00
        E 0 99 1b 7f
        E 0 99 2a 7f
        E 0 99 33 36
        E 0 99 28 64
        E 0 99 26 64
        E 0 99 2c 64
        E 30 99 2c 00
        E 0 99 28 00
        E 0 99 2a 00
        E 0 99 33 00
        E 0 99 1b 00
        E 0 99 26 00
        E 0 99 28 00
        E 0 99 1b 7f
        E 0 99 33 47
        E 0 99 2a 47
        E 0 99 2e 64
        E 30 99 2e 00
        E 0 99 2a 00
        E 0 99 1b 00
        E 0 99 1b 7f
        E 0 99 2a 7f
        E 0 99 28 64
        E 30 99 28 00
        E 0 99 33 00
        E 0 99 1b 00
        E 0 99 2a 00
        E 0 99 28 64
        E 0 99 26 7f
        E 0 99 28 7f
        E 0 99 1b 7f
        E 0 99 33 6a
        E 0 99 28 6a
        E 0 99 2a 6a
        E 0 99 2e 64
        E 0 99 26 64
        E 0 99 28 64
        E 30 99 28 00
        E 0 99 1b 00
        E 0 99 28 00
        E 0 99 33 00
        E 0 99 26 00
        E 0 99 2e 00
        E 0 99 2a 00
        E 0 99 28 00
        E 0 99 26 00
        E 0 99 1b 7f
        E 0 99 2a 7f
        E 0 99 33 38
        E 0 99 28 64
        E 0 99 26 64
        E 30 99 26 00
        E 0 99 33 00
        E 0 99 1b 00
        E 0 99 2a 00
        E 0 99 28 00
        E 0 99 1b 7f
        E 0 99 2a 48
        E 0 99 28 48
        E 0 99 2a 48
        E 0 99 2e 64
        E 30 99 2e 00
        E 0 99 1b 00
        E 0 99 28 00
        E 0 99 2a 00
        E 0 99 1b 7f
        E 0 99 2a 7f
        E 0 99 28 64
        E 0 99 26 64
        E 30 99 26 00
        E 0 99 1b 00
        E 0 99 2a 00
        E 0 99 28 00
        E 0 99 1b 7f
        E 0 99 2a 7f
        E 0 99 33 7c
        E 0 99 2a 7c
        E 30 99 2a 00
        E 0 99 1b 00
        E 0 99 2a 00
        E 0 99 33 00
        E 0 99 1b 7f
        E 0 99 2a 7f
        E 30 99 2a 00
        E 0 99 1b 00
        E 0 99 1b 7f
        E 0 99 33 41
        E 0 99 2a 41
        E 30 99 2a 00
        E 0 99 33 00
        E 0 99 1b 00
        E 0 99 1b 7f
        E 0 99 2a 7f
        E 0 99 33 40
        E 30 99 33 00
        E 0 99 2a 00
        E 0 99 1b 00
        E 0 99 26 7f
        E 0 99 28 7f
        E 0 99 1b 7f
        E 0 99 2a 7f
        E 0 99 33 73
        E 0 99 28 73
        E 0 99 2a 73
        E 30 99 2a 00
        E 0 99 28 00
        E 0 99 1b 00
        E 0 99 26 00
        E 0 99 28 00
        E 0 99 1b 7f
        E 30 99 1b 00
        E 0 99 33 00
        E 0 99 1b 7f
        E 0 99 2a 4d
        E 30 99 2a 00
        E 0 99 1b 00
        E 0 99 28 7f
        E 0 99 1b 7f
        E 0 99 33 64
        E 0 99 28 64
        E 30 99 28 00
        E 0 99 1b 00
        E 0 99 33 00
        E 0 99 1b 7f
        E 0 99 2a 7f
        E 0 99 33 68
        E 0 99 2a 68
        E 30 99 2a 00
        E 0 99 1b 00
        E 0 99 2a 00
        E 0 99 33 00
        E 0 99 1b 7f
        E 0 99 2a 7f
        E 0 99 33 35
        E 0 99 28 35
        E 30 99 28 00
        E 0 99 1b 00
        E 0 99 2a 00
        E 0 99 33 00
        E 0 99 1b 7f
        E 0 99 33 4c
        E 0 99 2a 4c
        E 30 99 2a 00
        E 0 99 1b 00
        E 0 99 1b 7f
        E 0 99 2a 7f
        E 30 99 2a 00
        E 0 99 1b 00
        E 0 99 33 00
        E 0 99 26 7f
        E 0 99 28 7f
        E 0 99 1b 7f
        E 0 99 33 7d
        E 0 99 28 7d
        E 0 99 2a 7d
        E 30 99 2a 00
        E 0 99 28 00
        E 0 99 1b 00
        E 0 99 26 00
        E 0 99 28 00
        E 0 99 33 00
        E 0 99 1b 7f
        E 0 99 2a 7f
        E 0 99 33 32
        E 30 99 33 00
        E 0 99 2a 00
        E 0 99 1b 00
        E 0 99 1b 7f
        E 0 99 2a 44
        E 0 99 28 44
        E 0 99 2a 44
        E 30 99 28 00
        E 0 99 1b 00
        E 0 99 2a 00
        E 0 99 1b 7f
        E 0 99 2a 7f
        E 0 99 28 3e
        E 30 99 28 00
        E 0 99 2a 00
        E 0 99 1b 00
        E 0 99 2a 00
        E 0 99 1b 7f
        E 0 99 2a 7f
        E 0 99 33 7f
        E 0 99 2a 7f
        E 30 99 2a 00
        E 0 99 1b 00
        E 0 99 2a 00
        E 0 99 33 00
        E 0 99 1b 7f
        E 0 99 2a 7f
        E 30 99 2a 00
        E 0 99 1b 00
        E 0 99 1b 7f
        E 0 99 33 4f
        E 0 99 2a 4f
        E 30 99 2a 00
        E 0 99 33 00
        E 0 99 1b 00
        E 0 99 1b 7f
        E 0 99 2a 7f
        E 0 99 33 39
        E 30 99 33 00
        E 0 99 2a 00
        E 0 99 1b 00
        E 0 99 26 7f
        E 0 99 28 7f
        E 0 99 1b 7f
        E 0 99 2a 7f
        E 0 99 33 71
        E 0 99 28 71
        E 0 99 2a 71
        E 30 99 2a 00
        E 0 99 28 00
        E 0 99 1b 00
        E 0 99 26 00
        E 0 99 28 00
        E 0 99 1b 7f
        E 30 99 1b 00
        E 0 99 33 00
        E 0 99 1b 7f
        E 0 99 2a 45
        E 30 99 2a 00
        E 0 99 1b 00
        E 0 99 28 7f
        E 0 99 1b 7f
        E 0 99 33 67
        E 0 99 28 67
        E 30 99 28 00
        E 0 99 1b 00
        E 0 99 33 00
        E 0 99 1b 7f
        E 0 99 2a 7f
        E 0 99 33 71
        E 0 99 2a 71
        E 30 99 2a 00
        E 0 99 1b 00
        E 0 99 2a 00
        E 0 99 33 00
        E 0 99 1b 7f
        E 0 99 2a 7f
        E 0 99 33 36
        E 0 99 28 36
        E 30 99 28 00
        E 0 99 1b 00
        E 0 99 2a 00
        E 0 99 33 00
        E 0 99 1b 7f
        E 0 99 33 47
        E 0 99 2a 47
        E 30 99 2a 00
        E 0 99 1b 00
        E 0 99 1b 7f
        E 0 99 2a 7f
        E 30 99 2a 00
        E 0 99 1b 00
        E 0 99 33 00
        E 0 99 26 7f
        E 0 99 28 7f
        E 0 99 1b 7f
        E 0 99 33 6a
        E 0 99 28 6a
        E 0 99 2a 6a
        E 30 99 2a 00
        E 0 99 28 00
        E 0 99 1b 00
        E 0 99 26 00
        E 0 99 28 00
        E 0 99 33 00
        E 0 99 1b 7f
        E 0 99 2a 7f
        E 0 99 33 38
        E 30 99 33 00
        E 0 99 2a 00
        E 0 99 1b 00
        E 0 99 1b 7f
        E 0 99 2a 48
        E 0 99 28 48
        E 0 99 2a 48
        E 30 99 28 00
        E 0 99 1b 00
        E 0 99 2a 00
        E 0 99 1b 7f
        E 0 99 2a 7f
        E 0 99 28 4d
        E 30 99 28 00
        E 0 99 2a 00
        E 0 99 1b 00
        E 0 99 2a 00
        E 0 99 1b 7f
        E 0 99 2a 7f
        E 0 99 33 7f
        E 0 99 2a 7f
        E 30 99 2a 00
        E 0 99 1b 00
        E 0 99 2a 00
        E 0 99 33 00
        E 0 99 1b 7f
        E 0 99 2a 7f
        E 30 99 2a 00
        E 0 99 1b 00
        E 0 99 1b 7f
        E 0 99 33 4f
        E 0 99 2a 4f
        E 30 99 2a 00
        E 0 99 33 00
        E 0 99 1b 00
        E 0 99 1b 7f
        E 0 99 2a 7f
        E 0 99 26 7f
        E 0 99 28 7f
        E 0 99 2a 7f
        E 0 99 33 39
        E 30 99 33 00
        E 0 99 2a 00
        E 0 99 26 00
        E 0 99 1b 00
        E 0 99 2a 00
        E 0 99 28 00
        E 0 99 26 7f
        E 0 99 28 7f
        E 0 99 1b 7f
        E 0 99 2a 7f
        E 0 99 33 71
        E 0 99 28 71
        E 0 99 2a 71
        E 30 99 2a 00
        E 0 99 28 00
        E 0 99 1b 00
        E 0 99 26 00
        E 0 99 28 00
        E 0 99 1b 7f
        E 30 99 1b 00
        E 0 99 33 00
        E 0 99 1b 7f
        E 0 99 2a 45
        E 30 99 2a 00
        E 0 99 1b 00
        E 0 99 28 7f
        E 0 99 1b 7f
        E 0 99 33 67
        E 0 99 28 67
        E 30 99 28 00
        E 0 99 1b 00
        E 0 99 33 00
        E 0 99 1b 7f
        E 0 99 2a 7f
        E 0 99 26 7f
        E 0 99 28 7f
        E 0 99 2a 7f
        E 0 99 33 71
        E 0 99 2a 71
        E 30 99 2a 00
        E 0 99 26 00
        E 0 99 1b 00
        E 0 99 33 00
        E 0 99 28 00
        E 0 99 1b 7f
        E 0 99 2a 7f
        E 0 99 33 36
        E 0 99 28 36
        E 30 99 28 00
        E 0 99 1b 00
        E 0 99 2a 00
        E 0 99 33 00
        E 0 99 1b 7f
        E 0 99 33 47
        E 0 99 2a 47
        E 30 99 2a 00
        E 0 99 1b 00
        E 0 99 1b 7f
        E 0 99 2a 7f
        E 30 99 2a 00
        E 0 99 1b 00
        E 0 99 33 00
        E 0 99 26 7f
        E 0 99 28 7f
        E 0 99 1b 7f
        E 0 99 33 6a
        E 0 99 28 6a
        E 0 99 2a 6a
        E 30 99 2a 00
        E 0 99 28 00
        E 0 99 1b 00
        E 0 99 26 00
        E 0 99 28 00
        E 0 99 33 00
        E 0 99 1b 7f
        E 0 99 2a 7f
        E 0 99 33 38
        E 30 99 33 00
        E 0 99 2a 00
        E 0 99 1b 00
        E 0 99 1b 7f
        E 0 99 26 7f
        E 0 99 28 7f
        E 0 99 2a 48
        E 0 99 28 48
        E 0 99 2a 48
        E 30 99 28 00
        E 0 99 2a 00
        E 0 99 26 00
        E 0 99 28 00
        E 0 99 1b 00
        E 0 99 2a 00
        E 0 99 1b 7f
        E 0 99 2a 7f
        E 0 99 28 4d
        E 30 99 28 00
        E 0 99 2a 00
        E 0 99 1b 00
        E 0 99 2a 00
        E 0 99 2e 7f
        E 0 99 2a 7f
        E 0 99 33 7f
        E 0 99 3b 64
        E 0 99 23 64
        E 30 99 33 00
        E 0 99 2e 00
        E 0 99 2a 00
        E 30 99 23 00
        E 0 99 2e 4f
        E 0 99 2a 4f
        E 0 99 33 4f
        E 0 99 23 64
        E 30 99 33 00
        E 0 99 2a 00
        E 0 99 2e 00
        E 0 99 33 39
        E 30 99 33 00
        E 0 99 3b 00
        E 0 99 23 00
        E 0 99 28 71
        E 0 99 2e 71
        E 0 99 26 71
        E 0 99 2a 71
        E 0 99 33 71
        E 0 99 28 64
        E 0 99 26 64
        E 0 99 31 64
        E 0 99 3b 64
        E 30 99 2a 00
        E 0 99 2e 00
        E 30 99 31 00
        E 0 99 28 00
        E 0 99 26 00
        E 0 99 33 00
        E 0 99 28 00
        E 0 99 26 00
        E 0 99 2e 45
        E 0 99 2a 45
        E 0 99 23 64
        E 30 99 2a 00
        E 0 99 2e 00
        E 0 99 2e 67
        E 0 99 2a 67
        E 0 99 33 67
        E 0 99 26 64
        E 30 99 33 00
        E 0 99 2a 00
        E 0 99 2e 00
        E 0 99 23 00
        E 0 99 3b 00
        E 0 99 2e 71
        E 0 99 2a 71
        E 0 99 33 71
        E 0 99 23 64
        E 0 99 3b 64
        E 30 99 33 00
        E 0 99 2a 00
        E 0 99 26 00
        E 0 99 2e 00
        E 0 99 33 36
        E 0 99 26 64
        E 30 99 33 00
        E 0 99 23 00
        E 0 99 2e 47
        E 0 99 2a 47
        E 0 99 33 47
        E 0 99 23 64
        E 30 99 2a 00
        E 0 99 2e 00
        E 0 99 26 00
        E 30 99 3b 00
        E 0 99 33 00
        E 0 99 23 00
        E 0 99 28 6a
        E 0 99 2e 6a
        E 0 99 26 6a
        E 0 99 2a 6a
        E 0 99 33 6a
        E 0 99 26 64
        E 0 99 28 64
        E 0 99 31 64
        E 0 99 3b 64
        E 30 99 33 00
        E 0 99 2a 00
        E 0 99 2e 00
        E 0 99 33 38
        E 30 99 33 00
        E 0 99 28 00
        E 0 99 26 00
        E 0 99 28 00
        E 0 99 31 00
        E 0 99 26 00
        E 0 99 2e 48
        E 0 99 2a 48
        E 0 99 23 64
        E 30 99 23 00
        E 0 99 2a 00
        E 0 99 2e 00
        E 0 99 26 64
        E 30 99 3b 00
        E 0 99 2a 00
        E 0 99 2e 7c
        E 0 99 2a 7c
        E 0 99 33 7c
        E 0 99 3b 64
        E 0 99 23 64
        E 3 99 26 00
        E 27 99 33 00
        E 0 99 2e 00
        E 0 99 2a 00
        E 30 99 23 00
        E 0 99 2e 41
        E 0 99 2a 41
        E 0 99 33 41
        E 0 99 23 64
        E 30 99 33 00
        E 0 99 2a 00
        E 0 99 2e 00
        E 0 99 33 40
        E 30 99 33 00
        E 0 99 3b 00
        E 0 99 23 00
        E 0 99 28 73
        E 0 99 2e 73
        E 0 99 26 73
        E 0 99 2a 73
        E 0 99 33 73
        E 0 99 28 64
        E 0 99 26 64
        E 0 99 31 64
        E 0 99 3b 64
        E 30 99 2a 00
        E 0 99 2e 00
        E 30 99 31 00
        E 0 99 28 00
        E 0 99 26 00
        E 0 99 33 00
        E 0 99 28 00
        E 0 99 26 00
        E 0 99 2e 4d
        E 0 99 2a 4d
        E 0 99 23 64
        E 30 99 2a 00
        E 0 99 2e 00
        E 0 99 2e 64
        E 0 99 2a 64
        E 0 99 33 64
        E 0 99 26 64
        E 30 99 33 00
        E 0 99 2a 00
        E 0 99 2e 00
        E 0 99 23 00
        E 0 99 3b 00
        E 0 99 2e 68
        E 0 99 2a 68
        E 0 99 33 68
        E 0 99 23 64
        E 0 99 3b 64
        E 30 99 33 00
        E 0 99 2a 00
        E 0 99 26 00
        E 0 99 2e 00
        E 0 99 33 35
        E 0 99 26 64
        E 30 99 33 00
        E 0 99 23 00
        E 0 99 2e 4c
        E 0 99 2a 4c
        E 0 99 33 4c
        E 0 99 23 64
        E 30 99 2a 00
        E 0 99 2e 00
        E 0 99 26 00
        E 30 99 3b 00
        E 0 99 33 00
        E 0 99 23 00
        E 0 99 28 7d
        E 0 99 2e 7d
        E 0 99 26 7d
        E 0 99 2a 7d
        E 0 99 33 7d
        E 0 99 26 64
        E 0 99 28 64
        E 0 99 31 64
        E 0 99 3b 64
        E 30 99 33 00
        E 0 99 2a 00
        E 0 99 2e 00
        E 0 99 33 32
        E 30 99 33 00
        E 0 99 28 00
        E 0 99 26 00
        E 0 99 28 00
        E 0 99 31 00
        E 0 99 26 00
        E 0 99 2e 44
        E 0 99 2a 44
        E 0 99 23 64
        E 30 99 23 00
        E 0 99 2a 00
        E 0 99 2e 00
        E 0 99 26 64
        E 30 99 3b 00
        E 0 99 2a 00
        E 0 99 2e 7f
        E 0 99 2a 7f
        E 0 99 33 7f
        E 0 99 3b 64
        E 0 99 23 64
        E 3 99 26 00
        E 27 99 33 00
        E 0 99 2e 00
        E 0 99 2a 00
        E 30 99 23 00
        E 0 99 2e 4f
        E 0 99 2a 4f
        E 0 99 33 4f
        E 0 99 23 64
        E 30 99 33 00
        E 0 99 2a 00
        E 0 99 2e 00
        E 0 99 33 39
        E 30 99 33 00
        E 0 99 3b 00
        E 0 99 23 00
        E 0 99 28 71
        E 0 99 2e 71
        E 0 99 26 71
        E 0 99 2a 71
        E 0 99 33 71
        E 0 99 28 64
        E 0 99 26 64
        E 0 99 31 64
        E 0 99 3b 64
        E 30 99 2a 00
        E 0 99 2e 00
        E 30 99 31 00
        E 0 99 28 00
        E 0 99 26 00
        E 0 99 33 00
        E 0 99 28 00
        E 0 99 26 00
        E 0 99 2e 45
        E 0 99 2a 45
        E 0 99 23 64
        E 30 99 2a 00
        E 0 99 2e 00
        E 0 99 2e 67
        E 0 99 2a 67
        E 0 99 33 67
        E 0 99 26 64
        E 30 99 33 00
        E 0 99 2a 00
        E 0 99 2e 00
        E 0 99 23 00
        E 0 99 3b 00
        E 0 99 2e 71
        E 0 99 2a 71
        E 0 99 33 71
        E 0 99 23 64
        E 0 99 3b 64
        E 30 99 33 00
        E 0 99 2a 00
        E 0 99 26 00
        E 0 99 2e 00
        E 0 99 33 36
        E 0 99 26 64
        E 30 99 33 00
        E 0 99 23 00
        E 0 99 2e 47
        E 0 99 2a 47
        E 0 99 33 47
        E 0 99 23 64
        E 30 99 2a 00
        E 0 99 2e 00
        E 0 99 26 00
        E 30 99 3b 00
        E 0 99 33 00
        E 0 99 23 00
        E 0 99 28 6a
        E 0 99 2e 6a
        E 0 99 26 6a
        E 0 99 2a 6a
        E 0 99 33 6a
        E 0 99 26 64
        E 0 99 28 64
        E 0 99 31 64
        E 0 99 3b 64
        E 30 99 33 00
        E 0 99 2a 00
        E 0 99 2e 00
        E 0 99 33 38
        E 30 99 33 00
        E 0 99 28 00
        E 0 99 26 00
        E 0 99 28 00
        E 0 99 31 00
        E 0 99 26 00
        E 0 99 2e 48
        E 0 99 2a 48
        E 0 99 23 64
        E 30 99 23 00
        E 0 99 2a 00
        E 0 99 2e 00
        E 0 99 26 64
        E 30 99 3b 00
        E 0 99 2a 00
        E 0 99 2e 7c
        E 0 99 2a 7c
        E 0 99 33 7c
        E 0 99 2e 7c
        E 0 99 28 7c
        E 0 99 3b 64
        E 0 99 23 64
        E 3 99 26 00
        E 27 99 2e 00
        E 0 99 2a 00
        E 0 99 33 00
        E 0 99 28 00
        E 30 99 23 00
        E 0 99 2e 41
        E 0 99 2a 41
        E 0 99 33 41
        E 0 99 23 64
        E 30 99 33 00
        E 0 99 2a 00
        E 0 99 2e 00
        E 0 99 33 40
        E 30 99 33 00
        E 0 99 3b 00
        E 0 99 23 00
        E 0 99 28 73
        E 0 99 2e 73
        E 0 99 26 73
        E 0 99 2a 73
        E 0 99 33 73
        E 0 99 2e 73
        E 0 99 28 64
        E 0 99 26 64
        E 0 99 31 64
        E 0 99 3b 64
        E 30 99 2e 00
        E 0 99 2a 00
        E 30 99 31 00
        E 0 99 28 00
        E 0 99 26 00
        E 0 99 33 00
        E 0 99 28 00
        E 0 99 26 00
        E 0 99 2e 4d
        E 0 99 2a 4d
        E 0 99 28 4d
        E 0 99 23 64
        E 30 99 28 00
        E 0 99 2a 00
        E 0 99 2e 00
        E 0 99 2e 64
        E 0 99 2a 64
        E 0 99 33 64
        E 0 99 28 64
        E 0 99 26 64
        E 30 99 28 00
        E 0 99 2a 00
        E 0 99 3b 00
        E 0 99 2e 00
        E 0 99 23 00
        E 0 99 33 00
        E 0 99 2e 68
        E 0 99 2a 68
        E 0 99 33 68
        E 0 99 2e 68
        E 0 99 23 64
        E 0 99 3b 64
        E 30 99 2e 00
        E 0 99 33 00
        E 0 99 26 00
        E 0 99 2a 00
        E 0 99 2e 00
        E 0 99 33 35
        E 0 99 28 35
        E 0 99 26 64
        E 30 99 28 00
        E 0 99 33 00
        E 0 99 23 00
        E 0 99 2e 4c
        E 0 99 2a 4c
        E 0 99 33 4c
        E 0 99 2b 4c
        E 0 99 23 64
        E 30 99 2b 00
        E 0 99 2e 00
        E 0 99 26 00
        E 0 99 2a 00
        E 30 99 3b 00
        E 0 99 33 00
        E 0 99 23 00
        E 0 99 28 7d
        E 0 99 2e 7d
        E 0 99 26 7d
        E 0 99 2a 7d
        E 0 99 33 7d
        E 30 99 33 00
        E 0 99 28 00
        E 0 99 2e 00
        E 0 99 2a 00
        E 0 99 33 32
        E 0 99 28 32
        E 30 99 28 00
        E 0 99 26 00
        E 0 99 28 00
        E 0 99 33 00
        E 0 99 2e 44
        E 0 99 2a 44
        E 0 99 28 44
        E 30 99 28 00
        E 0 99 2e 00
        E 0 99 2a 00
        E 30 99 2a 00
        E 0 99 33 7f
        E 0 99 1b 7f
        E 0 99 2a 7f
        E 30 99 2a 00
        E 0 99 1b 00
        E 0 99 33 00
        E 0 99 1b 7f
        E 0 99 2a 7f
        E 30 99 2a 00
        E 0 99 1b 00
        E 0 99 1b 7f
        E 0 99 33 4f
        E 30 99 33 00
        E 0 99 1b 00
        E 0 99 1b 7f
        E 0 99 2a 7f
        E 0 99 33 39
        E 30 99 33 00
        E 0 99 2a 00
        E 0 99 1b 00
        E 0 99 26 7f
        E 0 99 28 7f
        E 0 99 1b 7f
        E 0 99 2a 7f
        E 0 99 33 71
        E 0 99 26 71
        E 0 99 28 71
        E 30 99 28 00
        E 0 99 1b 00
        E 0 99 28 00
        E 0 99 26 00
        E 0 99 2a 00
        E 0 99 1b 7f
        E 30 99 1b 00
        E 0 99 26 00
        E 0 99 33 00
        E 0 99 28 00
        E 0 99 1b 7f
        E 0 99 2a 7f
        E 30 99 2a 00
        E 0 99 1b 00
        E 0 99 28 7f
        E 0 99 1b 7f
        E 0 99 33 67
        E 30 99 33 00
        E 0 99 1b 00
        E 0 99 28 00
        E 0 99 1b 7f
        E 0 99 2a 7f
        E 0 99 33 71
        E 30 99 33 00
        E 0 99 2a 00
        E 0 99 1b 00
        E 0 99 1b 7f
        E 0 99 2a 7f
        E 0 99 33 36
        E 30 99 33 00
        E 0 99 2a 00
        E 0 99 1b 00
        E 0 99 1b 7f
        E 0 99 33 47
        E 30 99 1b 00
        E 0 99 1b 7f
        E 0 99 2a 7f
        E 30 99 2a 00
        E 0 99 1b 00
        E 0 99 33 00
        E 0 99 26 7f
        E 0 99 28 7f
        E 0 99 1b 7f
        E 0 99 33 6a
        E 0 99 26 6a
        E 0 99 28 6a
        E 30 99 28 00
        E 0 99 1b 00
        E 0 99 28 00
        E 0 99 26 00
        E 0 99 33 00
        E 0 99 1b 7f
        E 0 99 2a 7f
        E 0 99 33 38
        E 30 99 33 00
        E 0 99 1b 00
        E 0 99 26 00
        E 0 99 28 00
        E 0 99 2a 00
        E 0 99 1b 7f
        E 0 99 2a 48
        E 30 99 1b 00
        E 0 99 1b 7f
        E 0 99 2a 7f
        E 30 99 2a 00
        E 0 99 1b 00
        E 0 99 2a 00
        E 0 99 1b 7f
        E 0 99 2a 7f
        E 0 99 33 7c
        E 30 99 33 00
        E 0 99 2a 00
        E 0 99 1b 00
        E 0 99 1b 7f
        E 0 99 2a 7f
        E 30 99 2a 00
        E 0 99 1b 00
        E 0 99 1b 7f
        E 0 99 33 41
        E 30 99 33 00
        E 0 99 1b 00
        E 0 99 1b 7f
        E 0 99 2a 7f
        E 0 99 33 40
        E 30 99 33 00
        E 0 99 2a 00
        E 0 99 1b 00
        E 0 99 26 7f
        E 0 99 28 7f
        E 0 99 1b 7f
        E 0 99 2a 7f
        E 0 99 33 73
        E 0 99 26 73
        E 0 99 28 73
        E 30 99 28 00
        E 0 99 1b 00
        E 0 99 28 00
        E 0 99 26 00
        E 0 99 2a 00
        E 0 99 1b 7f
        E 30 99 1b 00
        E 0 99 26 00
        E 0 99 33 00
        E 0 99 28 00
        E 0 99 1b 7f
        E 0 99 2a 7f
        E 30 99 2a 00
        E 0 99 1b 00
        E 0 99 28 7f
        E 0 99 1b 7f
        E 0 99 33 64
        E 30 99 33 00
        E 0 99 1b 00
        E 0 99 28 00
        E 0 99 1b 7f
        E 0 99 2a 7f
        E 0 99 33 68
        E 30 99 33 00
        E 0 99 2a 00
        E 0 99 1b 00
        E 0 99 1b 7f
        E 0 99 2a 7f
        E 0 99 33 35
        E 30 99 33 00
        E 0 99 2a 00
        E 0 99 1b 00
        E 0 99 1b 7f
        E 0 99 33 4c
        E 30 99 1b 00
        E 0 99 1b 7f
        E 0 99 2a 7f
        E 30 99 2a 00
        E 0 99 1b 00
        E 0 99 33 00
        E 0 99 33 7d
        E 0 99 26 7d
        E 0 99 28 7d
        E 0 99 26 7f
        E 0 99 28 7f
        E 0 99 1b 7f
        E 30 99 1b 00
        E 0 99 26 00
        E 0 99 28 00
        E 0 99 33 00
        E 0 99 28 00
        E 0 99 1b 7f
        E 0 99 2a 7f
        E 0 99 33 32
        E 30 99 33 00
        E 0 99 1b 00
        E 0 99 26 00
        E 0 99 28 00
        E 0 99 2a 00
        E 0 99 1b 7f
        E 0 99 2a 44
        E 0 99 28 44
        E 30 99 28 00
        E 0 99 1b 00
        E 0 99 1b 7f
        E 0 99 2a 7f
        E 30 99 2a 00
        E 0 99 1b 00
        E 0 99 2a 00
        E 0 99 33 7f
        E 0 99 1b 7f
        E 0 99 2a 7f
        E 30 99 2a 00
        E 0 99 1b 00
        E 0 99 33 00
        E 0 99 1b 7f
        E 0 99 2a 7f
        E 30 99 2a 00
        E 0 99 1b 00
        E 0 99 1b 7f
        E 0 99 33 4f
        E 30 99 33 00
        E 0 99 1b 00
        E 0 99 1b 7f
        E 0 99 2a 7f
        E 0 99 33 39
        E 30 99 33 00
        E 0 99 2a 00
        E 0 99 1b 00
        E 0 99 26 7f
        E 0 99 28 7f
        E 0 99 1b 7f
        E 0 99 2a 7f
        E 0 99 33 71
        E 0 99 26 71
        E 0 99 28 71
        E 30 99 28 00
        E 0 99 1b 00
        E 0 99 28 00
        E 0 99 26 00
        E 0 99 2a 00
        E 0 99 1b 7f
        E 30 99 1b 00
        E 0 99 26 00
        E 0 99 33 00
        E 0 99 28 00
        E 0 99 1b 7f
        E 0 99 2a 7f
        E 30 99 2a 00
        E 0 99 1b 00
        E 0 99 28 7f
        E 0 99 1b 7f
        E 0 99 33 67
        E 30 99 33 00
        E 0 99 1b 00
        E 0 99 28 00
        E 0 99 1b 7f
        E 0 99 2a 7f
        E 0 99 33 71
        E 30 99 33 00
        E 0 99 2a 00
        E 0 99 1b 00
        E 0 99 1b 7f
        E 0 99 2a 7f
        E 0 99 33 36
        E 30 99 33 00
        E 0 99 2a 00
        E 0 99 1b 00
        E 0 99 1b 7f
        E 0 99 33 47
        E 30 99 1b 00
        E 0 99 1b 7f
        E 0 99 2a 7f
        E 30 99 2a 00
        E 0 99 1b 00
        E 0 99 33 00
        E 0 99 26 7f
        E 0 99 28 7f
        E 0 99 1b 7f
        E 0 99 33 6a
        E 0 99 26 6a
        E 0 99 28 6a
        E 30 99 28 00
        E 0 99 1b 00
        E 0 99 28 00
        E 0 99 26 00
        E 0 99 33 00
        E 0 99 1b 7f
        E 0 99 2a 7f
        E 0 99 33 38
        E 30 99 33 00
        E 0 99 1b 00
        E 0 99 26 00
        E 0 99 28 00
        E 0 99 2a 00
        E 0 99 1b 7f
        E 0 99 2a 48
        E 30 99 1b 00
        E 0 99 1b 7f
        E 0 99 2a 7f
        E 30 99 2a 00
        E 0 99 1b 00
        E 0 99 2a 00
        E 0 99 1b 7f
        E 0 99 2a 7f
        E 0 99 33 7c
        E 30 99 33 00
        E 0 99 2a 00
        E 0 99 1b 00
        E 0 99 1b 7f
        E 0 99 2a 7f
        E 30 99 2a 00
        E 0 99 1b 00
        E 0 99 1b 7f
        E 0 99 33 41
        E 30 99 33 00
        E 0 99 1b 00
        E 0 99 1b 7f
        E 0 99 2a 7f
        E 0 99 33 40
        E 30 99 33 00
        E 0 99 2a 00
        E 0 99 1b 00
        E 0 99 26 7f
        E 0 99 28 7f
        E 0 99 1b 7f
        E 0 99 2a 7f
        E 0 99 33 73
        E 0 99 26 73
        E 0 99 28 73
        E 30 99 28 00
        E 0 99 1b 00
        E 0 99 28 00
        E 0 99 26 00
        E 0 99 2a 00
        E 0 99 1b 7f
        E 30 99 1b 00
        E 0 99 26 00
        E 0 99 33 00
        E 0 99 28 00
        E 0 99 1b 7f
        E 0 99 2a 7f
        E 30 99 2a 00
        E 0 99 1b 00
        E 0 99 28 7f
        E 0 99 1b 7f
        E 0 99 33 64
        E 30 99 33 00
        E 0 99 1b 00
        E 0 99 28 00
        E 0 99 1b 7f
        E 0 99 2a 7f
        E 0 99 33 68
        E 30 99 33 00
        E 0 99 2a 00
        E 0 99 1b 00
        E 0 99 1b 7f
        E 0 99 2a 7f
        E 0 99 33 35
        E 30 99 33 00
        E 0 99 2a 00
        E 0 99 1b 00
        E 0 99 1b 7f
        E 0 99 33 4c
        E 30 99 1b 00
        E 0 99 1b 7f
        E 0 99 2a 7f
        E 30 99 2a 00
        E 0 99 1b 00
        E 0 99 33 00
        E 0 99 33 7d
        E 0 99 26 7d
        E 0 99 28 7d
        E 0 99 26 7f
        E 0 99 28 7f
        E 0 99 1b 7f
        E 30 99 1b 00
        E 0 99 26 00
        E 0 99 28 00
        E 0 99 33 00
        E 0 99 28 00
        E 0 99 1b 7f
        E 0 99 2a 7f
        E 0 99 33 32
        E 30 99 33 00
        E 0 99 1b 00
        E 0 99 26 00
        E 0 99 28 00
        E 0 99 2a 00
        E 0 99 2a 44
        E 0 99 1b 7f
        E 0 99 28 44
        E 30 99 28 00
        E 0 99 1b 00
        E 0 99 1b 7f
        E 0 99 2a 7f
        E 30 99 2a 00
        E 0 99 1b 00
        E 0 99 2a 00
        E 0 99 1b 7f
        E 0 99 2a 7f
        E 0 99 33 7c
        E 0 99 2a 7c
        E 30 99 2a 00
        E 0 99 1b 00
        E 0 99 2a 00
        E 0 99 33 00
        E 0 99 1b 7f
        E 0 99 2a 7f
        E 30 99 2a 00
        E 0 99 1b 00
        E 0 99 1b 7f
        E 0 99 33 41
        E 0 99 2a 41
        E 30 99 2a 00
        E 0 99 33 00
        E 0 99 1b 00
        E 0 99 1b 7f
        E 0 99 2a 7f
        E 0 99 33 40
        E 30 99 33 00
        E 0 99 2a 00
        E 0 99 1b 00
        E 0 99 26 7f
        E 0 99 28 7f
        E 0 99 1b 7f
        E 0 99 2a 7f
        E 0 99 33 73
        E 0 99 28 73
        E 0 99 2a 73
        E 30 99 2a 00
        E 0 99 28 00
        E 0 99 1b 00
        E 0 99 26 00
        E 0 99 28 00
        E 0 99 1b 7f
        E 30 99 1b 00
        E 0 99 33 00
        E 0 99 1b 7f
        E 0 99 2a 4d
        E 30 99 2a 00
        E 0 99 1b 00
        E 0 99 28 7f
        E 0 99 1b 7f
        E 0 99 33 64
        E 0 99 28 64
        E 30 99 28 00
        E 0 99 1b 00
        E 0 99 33 00
        E 0 99 1b 7f
        E 0 99 2a 7f
        E 0 99 33 68
        E 0 99 2a 68
        E 30 99 2a 00
        E 0 99 1b 00
        E 0 99 2a 00
        E 0 99 33 00
        E 0 99 1b 7f
        E 0 99 2a 7f
        E 0 99 33 35
        E 0 99 28 35
        E 30 99 28 00
        E 0 99 1b 00
        E 0 99 2a 00
        E 0 99 33 00
        E 0 99 1b 7f
        E 0 99 33 4c
        E 0 99 2a 4c
        E 30 99 2a 00
        E 0 99 1b 00
        E 0 99 1b 7f
        E 0 99 2a 7f
        E 30 99 2a 00
        E 0 99 1b 00
        E 0 99 33 00
        E 0 99 26 7f
        E 0 99 28 7f
        E 0 99 1b 7f
        E 0 99 33 7d
        E 0 99 28 7d
        E 0 99 2a 7d
        E 30 99 2a 00
        E 0 99 28 00
        E 0 99 1b 00
        E 0 99 26 00
        E 0 99 28 00
        E 0 99 33 00
        E 0 99 1b 7f
        E 0 99 2a 7f
        E 0 99 33 32
        E 30 99 33 00
        E 0 99 2a 00
        E 0 99 1b 00
        E 0 99 1b 7f
        E 0 99 2a 44
        E 0 99 28 44
        E 0 99 2a 44
        E 30 99 28 00
        E 0 99 1b 00
        E 0 99 2a 00
        E 0 99 1b 7f
        E 0 99 2a 7f
        E 0 99 28 3e
        E 30 99 28 00
        E 0 99 2a 00
        E 0 99 1b 00
        E 0 99 2a 00
        E 0 99 1b 7f
        E 0 99 2a 7f
        E 0 99 33 7f
        E 0 99 2a 7f
        E 30 99 2a 00
        E 0 99 1b 00
        E 0 99 2a 00
        E 0 99 33 00
        E 0 99 1b 7f
        E 0 99 2a 7f
        E 30 99 2a 00
        E 0 99 1b 00
        E 0 99 1b 7f
        E 0 99 33 4f
        E 0 99 2a 4f
        E 30 99 2a 00
        E 0 99 33 00
        E 0 99 1b 00
        E 0 99 1b 7f
        E 0 99 2a 7f
        E 0 99 33 39
        E 30 99 33 00
        E 0 99 2a 00
        E 0 99 1b 00
        E 0 99 26 7f
        E 0 99 28 7f
        E 0 99 1b 7f
        E 0 99 2a 7f
        E 0 99 33 71
        E 0 99 28 71
        E 0 99 2a 71
        E 30 99 2a 00
        E 0 99 28 00
        E 0 99 1b 00
        E 0 99 26 00
        E 0 99 28 00
        E 0 99 1b 7f
        E 30 99 1b 00
        E 0 99 33 00
        E 0 99 1b 7f
        E 0 99 2a 45
        E 30 99 2a 00
        E 0 99 1b 00
        E 0 99 28 7f
        E 0 99 1b 7f
        E 0 99 33 67
        E 0 99 28 67
        E 30 99 28 00
        E 0 99 1b 00
        E 0 99 33 00
        E 0 99 1b 7f
        E 0 99 2a 7f
        E 0 99 33 71
        E 0 99 2a 71
        E 30 99 2a 00
        E 0 99 1b 00
        E 0 99 2a 00
        E 0 99 33 00
        E 0 99 1b 7f
        E 0 99 2a 7f
        E 0 99 33 36
        E 0 99 28 36
        E 30 99 28 00
        E 0 99 1b 00
        E 0 99 2a 00
        E 0 99 33 00
        E 0 99 1b 7f
        E 0 99 33 47
        E 0 99 2a 47
        E 30 99 2a 00
        E 0 99 1b 00
        E 0 99 1b 7f
        E 0 99 2a 7f
        E 30 99 2a 00
        E 0 99 1b 00
        E 0 99 33 00
        E 0 99 26 7f
        E 0 99 28 7f
        E 0 99 1b 7f
        E 0 99 33 6a
        E 0 99 28 6a
        E 0 99 2a 6a
        E 30 99 2a 00
        E 0 99 28 00
        E 0 99 1b 00
        E 0 99 26 00
        E 0 99 28 00
        E 0 99 33 00
        E 0 99 1b 7f
        E 0 99 2a 7f
        E 0 99 33 38
        E 30 99 33 00
        E 0 99 2a 00
        E 0 99 1b 00
        E 0 99 1b 7f
        E 0 99 2a 48
        E 0 99 28 48
        E 0 99 2a 48
        E 30 99 28 00
        E 0 99 1b 00
        E 0 99 2a 00
        E 0 99 1b 7f
        E 0 99 2a 7f
        E 0 99 28 4d
        E 30 99 28 00
        E 0 99 2a 00
        E 0 99 1b 00
        E 0 99 2a 00
        E 0 99 1b 7f
        E 0 99 2a 7f
        E 0 99 33 7c
        E 0 99 2a 7c
        E 30 99 2a 00
        E 0 99 1b 00
        E 0 99 2a 00
        E 0 99 33 00
        E 0 99 1b 7f
        E 0 99 2a 7f
        E 30 99 2a 00
        E 0 99 1b 00
        E 0 99 1b 7f
        E 0 99 33 41
        E 0 99 2a 41
        E 30 99 2a 00
        E 0 99 33 00
        E 0 99 1b 00
        E 0 99 1b 7f
        E 0 99 2a 7f
        E 0 99 33 40
        E 30 99 33 00
        E 0 99 2a 00
        E 0 99 1b 00
        E 0 99 26 7f
        E 0 99 28 7f
        E 0 99 1b 7f
        E 0 99 2a 7f
        E 0 99 33 73
        E 0 99 28 73
        E 0 99 2a 73
        E 30 99 2a 00
        E 0 99 28 00
        E 0 99 1b 00
        E 0 99 26 00
        E 0 99 28 00
        E 0 99 1b 7f
        E 30 99 1b 00
        E 0 99 33 00
        E 0 99 1b 7f
        E 0 99 2a 4d
        E 30 99 2a 00
        E 0 99 1b 00
        E 0 99 28 7f
        E 0 99 1b 7f
        E 0 99 33 64
        E 0 99 28 64
        E 30 99 28 00
        E 0 99 1b 00
        E 0 99 33 00
        E 0 99 1b 7f
        E 0 99 2a 7f
        E 0 99 33 68
        E 0 99 2a 68
        E 30 99 2a 00
        E 0 99 1b 00
        E 0 99 2a 00
        E 0 99 33 00
        E 0 99 1b 7f
        E 0 99 2a 7f
        E 0 99 33 35
        E 0 99 28 35
        E 30 99 28 00
        E 0 99 1b 00
        E 0 99 2a 00
        E 0 99 33 00
        E 0 99 1b 7f
        E 0 99 33 4c
        E 0 99 2a 4c
        E 30 99 2a 00
        E 0 99 1b 00
        E 0 99 1b 7f
        E 0 99 2a 7f
        E 30 99 2a 00
        E 0 99 1b 00
        E 0 99 33 00
        E 0 99 26 7f
        E 0 99 28 7f
        E 0 99 1b 7f
        E 0 99 33 7d
        E 0 99 28 7d
        E 0 99 2a 7d
        E 30 99 2a 00
        E 0 99 28 00
        E 0 99 1b 00
        E 0 99 26 00
        E 0 99 28 00
        E 0 99 33 00
        E 0 99 1b 7f
        E 0 99 2a 7f
        E 0 99 33 32
        E 30 99 33 00
        E 0 99 2a 00
        E 0 99 1b 00
        E 0 99 1b 7f
        E 0 99 2a 44
        E 0 99 28 44
        E 0 99 2a 44
        E 30 99 28 00
        E 0 99 1b 00
        E 0 99 2a 00
        E 0 99 1b 7f
        E 0 99 2a 7f
        E 0 99 28 3e
        E 30 99 28 00
        E 0 99 2a 00
        E 0 99 1b 00
        E 0 99 2a 00
        E 0 99 1b 7f
        E 0 99 2a 7f
        E 0 99 33 7f
        E 0 99 2a 7f
        E 30 99 2a 00
        E 0 99 1b 00
        E 0 99 2a 00
        E 0 99 33 00
        E 0 99 1b 7f
        E 0 99 2a 7f
        E 30 99 2a 00
        E 0 99 1b 00
        E 0 99 1b 7f
        E 0 99 33 4f
        E 0 99 2a 4f
        E 30 99 2a 00
        E 0 99 33 00
        E 0 99 1b 00
        E 0 99 1b 7f
        E 0 99 2a 7f
        E 0 99 33 39
        E 30 99 33 00
        E 0 99 2a 00
        E 0 99 1b 00
        E 0 99 26 7f
        E 0 99 28 7f
        E 0 99 1b 7f
        E 0 99 2a 7f
        E 0 99 33 71
        E 0 99 28 71
        E 0 99 2a 71
        E 30 99 2a 00
        E 0 99 28 00
        E 0 99 1b 00
        E 0 99 26 00
        E 0 99 28 00
        E 0 99 1b 7f
        E 30 99 1b 00
        E 0 99 33 00
        E 0 99 1b 7f
        E 0 99 2a 45
        E 30 99 2a 00
        E 0 99 1b 00
        E 0 99 28 7f
        E 0 99 1b 7f
        E 0 99 33 67
        E 0 99 28 67
        E 30 99 28 00
        E 0 99 1b 00
        E 0 99 33 00
        E 0 99 1b 7f
        E 0 99 2a 7f
        E 0 99 33 71
        E 0 99 2a 71
        E 30 99 2a 00
        E 0 99 1b 00
        E 0 99 2a 00
        E 0 99 33 00
        E 0 99 1b 7f
        E 0 99 2a 7f
        E 0 99 33 36
        E 0 99 28 36
        E 30 99 28 00
        E 0 99 1b 00
        E 0 99 2a 00
        E 0 99 33 00
        E 0 99 1b 7f
        E 0 99 33 47
        E 0 99 2a 47
        E 30 99 2a 00
        E 0 99 1b 00
        E 0 99 1b 7f
        E 0 99 2a 7f
        E 30 99 2a 00
        E 0 99 1b 00
        E 0 99 33 00
        E 0 99 26 7f
        E 0 99 28 7f
        E 0 99 1b 7f
        E 0 99 33 6a
        E 0 99 28 6a
        E 0 99 2a 6a
        E 30 99 2a 00
        E 0 99 28 00
        E 0 99 1b 00
        E 0 99 26 00
        E 0 99 28 00
        E 0 99 33 00
        E 0 99 1b 7f
        E 0 99 2a 7f
        E 0 99 33 38
        E 30 99 33 00
        E 0 99 2a 00
        E 0 99 1b 00
        E 0 99 1b 7f
        E 0 99 2a 48
        E 0 99 28 48
        E 0 99 2a 48
        E 30 99 28 00
        E 0 99 1b 00
        E 0 99 2a 00
        E 0 99 1b 7f
        E 0 99 2a 7f
        E 0 99 28 4d
        E 30 99 28 00
        E 0 99 2a 00
        E 0 99 1b 00
        E 0 99 2a 00
        E 0 99 1b 7f
        E 0 99 2a 7f
        E 0 99 33 7c
        E 0 99 2a 7c
        E 30 99 2a 00
        E 0 99 1b 00
        E 0 99 2a 00
        E 0 99 33 00
        E 0 99 1b 7f
        E 0 99 2a 7f
        E 30 99 2a 00
        E 0 99 1b 00
        E 0 99 1b 7f
        E 0 99 33 41
        E 0 99 2a 41
        E 30 99 2a 00
        E 0 99 33 00
        E 0 99 1b 00
        E 0 99 1b 7f
        E 0 99 2a 7f
        E 0 99 33 40
        E 30 99 33 00
        E 0 99 2a 00
        E 0 99 1b 00
        E 0 99 26 7f
        E 0 99 28 7f
        E 0 99 1b 7f
        E 0 99 2a 7f
        E 0 99 33 73
        E 0 99 28 73
        E 0 99 2a 73
        E 30 99 2a 00
        E 0 99 28 00
        E 0 99 1b 00
        E 0 99 26 00
        E 0 99 28 00
        E 0 99 1b 7f
        E 30 99 1b 00
        E 0 99 33 00
        E 0 99 1b 7f
        E 0 99 2a 4d
        E 30 99 2a 00
        E 0 99 1b 00
        E 0 99 28 7f
        E 0 99 1b 7f
        E 0 99 33 64
        E 0 99 28 64
        E 30 99 28 00
        E 0 99 1b 00
        E 0 99 33 00
        E 0 99 1b 7f
        E 0 99 2a 7f
        E 0 99 33 68
        E 0 99 2a 68
        E 30 99 2a 00
        E 0 99 1b 00
        E 0 99 2a 00
        E 0 99 33 00
        E 0 99 1b 7f
        E 0 99 2a 7f
        E 0 99 33 35
        E 0 99 28 35
        E 30 99 28 00
        E 0 99 1b 00
        E 0 99 2a 00
        E 0 99 33 00
        E 0 99 1b 7f
        E 0 99 33 4c
        E 0 99 2a 4c
        E 30 99 2a 00
        E 0 99 1b 00
        E 0 99 1b 7f
        E 0 99 2a 7f
        E 30 99 2a 00
        E 0 99 1b 00
        E 0 99 33 00
        E 0 99 26 7f
        E 0 99 28 7f
        E 0 99 1b 7f
        E 0 99 33 7d
        E 0 99 28 7d
        E 0 99 2a 7d
        E 30 99 2a 00
        E 0 99 28 00
        E 0 99 1b 00
        E 0 99 26 00
        E 0 99 28 00
        E 0 99 33 00
        E 0 99 1b 7f
        E 0 99 2a 7f
        E 0 99 33 32
        E 30 99 33 00
        E 0 99 2a 00
        E 0 99 1b 00
        E 0 99 1b 7f
        E 0 99 2a 44
        E 0 99 28 44
        E 0 99 2a 44
        E 30 99 28 00
        E 0 99 1b 00
        E 0 99 2a 00
        E 0 99 1b 7f
        E 0 99 2a 7f
        E 0 99 28 3e
        E 30 99 28 00
        E 0 99 2a 00
        E 0 99 1b 00
        E 0 99 2a 00
        E 0 99 1b 7f
        E 0 99 2a 7f
        E 0 99 33 7f
        E 0 99 2a 7f
        E 30 99 2a 00
        E 0 99 1b 00
        E 0 99 2a 00
        E 0 99 33 00
        E 0 99 1b 7f
        E 0 99 2a 7f
        E 30 99 2a 00
        E 0 99 1b 00
        E 0 99 1b 7f
        E 0 99 33 4f
        E 0 99 2a 4f
        E 30 99 2a 00
        E 0 99 33 00
        E 0 99 1b 00
        E 0 99 1b 7f
        E 0 99 2a 7f
        E 0 99 33 39
        E 30 99 33 00
        E 0 99 2a 00
        E 0 99 1b 00
        E 0 99 26 7f
        E 0 99 28 7f
        E 0 99 1b 7f
        E 0 99 2a 7f
        E 0 99 33 71
        E 0 99 28 71
        E 0 99 2a 71
        E 30 99 2a 00
        E 0 99 28 00
        E 0 99 1b 00
        E 0 99 26 00
        E 0 99 28 00
        E 0 99 1b 7f
        E 30 99 1b 00
        E 0 99 33 00
        E 0 99 1b 7f
        E 0 99 2a 45
        E 30 99 2a 00
        E 0 99 1b 00
        E 0 99 28 7f
        E 0 99 1b 7f
        E 0 99 33 67
        E 0 99 28 67
        E 30 99 28 00
        E 0 99 1b 00
        E 0 99 33 00
        E 0 99 1b 7f
        E 0 99 2a 7f
        E 0 99 33 71
        E 0 99 2a 71
        E 0 99 2e 64
        E 0 99 28 64
        E 0 99 26 64
        E 30 99 26 00
        E 0 99 2e 00
        E 0 99 2a 00
        E 0 99 33 00
        E 0 99 1b 00
        E 0 99 28 00
        E 0 99 2a 00
        E 0 99 1b 7f
        E 0 99 2a 7f
        E 0 99 33 36
        E 0 99 28 64
        E 0 99 26 64
        E 0 99 2c 64
        E 30 99 2c 00
        E 0 99 28 00
        E 0 99 2a 00
        E 0 99 33 00
        E 0 99 1b 00
        E 0 99 26 00
        E 0 99 28 00
        E 0 99 1b 7f
        E 0 99 33 47
        E 0 99 2a 47
        E 0 99 2e 64
        E 30 99 2e 00
        E 0 99 2a 00
        E 0 99 1b 00
        E 0 99 1b 7f
        E 0 99 2a 7f
        E 0 99 28 64
        E 30 99 28 00
        E 0 99 33 00
        E 0 99 1b 00
        E 0 99 2a 00
        E 0 99 28 64
        E 0 99 26 7f
        E 0 99 28 7f
        E 0 99 1b 7f
        E 0 99 33 6a
        E 0 99 28 6a
        E 0 99 2a 6a
        E 0 99 2e 64
        E 0 99 26 64
        E 0 99 28 64
        E 30 99 28 00
        E 0 99 1b 00
        E 0 99 28 00
        E 0 99 33 00
        E 0 99 26 00
        E 0 99 2e 00
        E 0 99 2a 00
        E 0 99 28 00
        E 0 99 26 00
        E 0 99 1b 7f
        E 0 99 2a 7f
        E 0 99 33 38
        E 0 99 28 64
        E 0 99 26 64
        E 30 99 26 00
        E 0 99 33 00
        E 0 99 1b 00
        E 0 99 2a 00
        E 0 99 28 00
        E 0 99 1b 7f
        E 0 99 2a 48
        E 0 99 28 48
        E 0 99 2a 48
        E 0 99 2e 64
        E 30 99 2e 00
        E 0 99 1b 00
        E 0 99 28 00
        E 0 99 2a 00
        E 0 99 1b 7f
        E 0 99 2a 7f
        E 0 99 28 64
        E 0 99 26 64
        E 30 99 26 00
        E 0 99 1b 00
        E 0 99 2a 00
        E 0 99 28 00
        E 0 99 1b 7f
        E 0 99 2a 7f
        E 0 99 33 7c
        E 0 99 2a 7c
        E 30 99 2a 00
        E 0 99 1b 00
        E 0 99 2a 00
        E 0 99 33 00
        E 0 99 1b 7f
        E 0 99 2a 7f
        E 30 99 2a 00
        E 0 99 1b 00
        E 0 99 1b 7f
        E 0 99 33 41
        E 0 99 2a 41
        E 30 99 2a 00
        E 0 99 33 00
        E 0 99 1b 00
        E 0 99 1b 7f
        E 0 99 2a 7f
        E 0 99 33 40
        E 30 99 33 00
        E 0 99 2a 00
        E 0 99 1b 00
        E 0 99 26 7f
        E 0 99 28 7f
        E 0 99 1b 7f
        E 0 99 2a 7f
        E 0 99 33 73
        E 0 99 28 73
        E 0 99 2a 73
        E 30 99 2a 00
        E 0 99 28 00
        E 0 99 1b 00
        E 0 99 26 00
        E 0 99 28 00
        E 0 99 1b 7f
        E 30 99 1b 00
        E 0 99 33 00
        E 0 99 1b 7f
        E 0 99 2a 4d
        E 30 99 2a 00
        E 0 99 1b 00
        E 0 99 28 7f
        E 0 99 1b 7f
        E 0 99 33 64
        E 0 99 28 64
        E 30 99 28 00
        E 0 99 1b 00
        E 0 99 33 00
        E 0 99 1b 7f
        E 0 99 2a 7f
        E 0 99 33 68
        E 0 99 2a 68
        E 30 99 2a 00
        E 0 99 1b 00
        E 0 99 2a 00
        E 0 99 33 00
        E 0 99 1b 7f
        E 0 99 2a 7f
        E 0 99 33 35
        E 0 99 28 35
        E 30 99 28 00
        E 0 99 1b 00
        E 0 99 2a 00
        E 0 99 33 00
        E 0 99 1b 7f
        E 0 99 33 4c
        E 0 99 2a 4c
        E 30 99 2a 00
        E 0 99 1b 00
        E 0 99 1b 7f
        E 0 99 2a 7f
        E 30 99 2a 00
        E 0 99 1b 00
        E 0 99 33 00
        E 0 99 26 7f
        E 0 99 28 7f
        E 0 99 1b 7f
        E 0 99 33 7d
        E 0 99 28 7d
        E 0 99 2a 7d
        E 30 99 2a 00
        E 0 99 28 00
        E 0 99 1b 00
        E 0 99 26 00
        E 0 99 28 00
        E 0 99 33 00
        E 0 99 1b 7f
        E 0 99 2a 7f
        E 0 99 33 32
        E 30 99 33 00
        E 0 99 2a 00
        E 0 99 1b 00
        E 0 99 1b 7f
        E 0 99 2a 44
        E 0 99 28 44
        E 0 99 2a 44
        E 30 99 28 00
        E 0 99 1b 00
        E 0 99 2a 00
        E 0 99 1b 7f
        E 0 99 2a 7f
        E 0 99 28 3e
        E 30 99 28 00
        E 0 99 2a 00
        E 0 99 1b 00
        E 0 99 2a 00
        E 0 99 1b 7f
        E 0 99 2a 7f
        E 0 99 33 7f
        E 0 99 2a 7f
        E 30 99 2a 00
        E 0 99 1b 00
        E 0 99 2a 00
        E 0 99 33 00
        E 0 99 1b 7f
        E 0 99 2a 7f
        E 30 99 2a 00
        E 0 99 1b 00
        E 0 99 1b 7f
        E 0 99 33 4f
        E 0 99 2a 4f
        E 30 99 2a 00
        E 0 99 33 00
        E 0 99 1b 00
        E 0 99 1b 7f
        E 0 99 2a 7f
        E 0 99 33 39
        E 30 99 33 00
        E 0 99 2a 00
        E 0 99 1b 00
        E 0 99 26 7f
        E 0 99 28 7f
        E 0 99 1b 7f
        E 0 99 2a 7f
        E 0 99 33 71
        E 0 99 28 71
        E 0 99 2a 71
        E 30 99 2a 00
        E 0 99 28 00
        E 0 99 1b 00
        E 0 99 26 00
        E 0 99 28 00
        E 0 99 1b 7f
        E 30 99 1b 00
        E 0 99 33 00
        E 0 99 1b 7f
        E 0 99 2a 45
        E 30 99 2a 00
        E 0 99 1b 00
        E 0 99 28 7f
        E 0 99 1b 7f
        E 0 99 33 67
        E 0 99 28 67
        E 30 99 28 00
        E 0 99 1b 00
        E 0 99 33 00
        E 0 99 1b 7f
        E 0 99 2a 7f
        E 0 99 33 71
        E 0 99 2a 71
        E 30 99 2a 00
        E 0 99 1b 00
        E 0 99 2a 00
        E 0 99 33 00
        E 0 99 1b 7f
        E 0 99 2a 7f
        E 0 99 33 36
        E 0 99 28 36
        E 30 99 28 00
        E 0 99 1b 00
        E 0 99 2a 00
        E 0 99 33 00
        E 0 99 1b 7f
        E 0 99 33 47
        E 0 99 2a 47
        E 30 99 2a 00
        E 0 99 1b 00
        E 0 99 1b 7f
        E 0 99 2a 7f
        E 30 99 2a 00
        E 0 99 1b 00
        E 0 99 33 00
        E 0 99 26 7f
        E 0 99 28 7f
        E 0 99 1b 7f
        E 0 99 33 6a
        E 0 99 28 6a
        E 0 99 2a 6a
        E 30 99 2a 00
        E 0 99 28 00
        E 0 99 1b 00
        E 0 99 26 00
        E 0 99 28 00
        E 0 99 33 00
        E 0 99 1b 7f
        E 0 99 2a 7f
        E 0 99 33 38
        E 30 99 33 00
        E 0 99 2a 00
        E 0 99 1b 00
        E 0 99 1b 7f
        E 0 99 2a 48
        E 0 99 28 48
        E 0 99 2a 48
        E 30 99 28 00
        E 0 99 1b 00
        E 0 99 2a 00
        E 0 99 1b 7f
        E 0 99 2a 7f
        E 0 99 28 4d
        E 30 99 28 00
        E 0 99 2a 00
        E 0 99 1b 00
        E 0 99 2a 00
        E 0 99 1b 7f
        E 0 99 2a 7f
        E 0 99 33 7f
        E 0 99 2a 7f
        E 30 99 2a 00
        E 0 99 1b 00
        E 0 99 2a 00
        E 0 99 33 00
        E 0 99 1b 7f
        E 0 99 2a 7f
        E 30 99 2a 00
        E 0 99 1b 00
        E 0 99 1b 7f
        E 0 99 33 4f
        E 0 99 2a 4f
        E 30 99 2a 00
        E 0 99 33 00
        E 0 99 1b 00
        E 0 99 1b 7f
        E 0 99 2a 7f
        E 0 99 26 7f
        E 0 99 28 7f
        E 0 99 2a 7f
        E 0 99 33 39
        E 30 99 33 00
        E 0 99 2a 00
        E 0 99 26 00
        E 0 99 1b 00
        E 0 99 2a 00
        E 0 99 28 00
        E 0 99 26 7f
        E 0 99 28 7f
        E 0 99 1b 7f
        E 0 99 2a 7f
        E 0 99 33 71
        E 0 99 28 71
        E 0 99 2a 71
        E 30 99 2a 00
        E 0 99 28 00
        E 0 99 1b 00
        E 0 99 26 00
        E 0 99 28 00
        E 0 99 1b 7f
        E 30 99 1b 00
        E 0 99 33 00
        E 0 99 1b 7f
        E 0 99 2a 45
        E 30 99 2a 00
        E 0 99 1b 00
        E 0 99 28 7f
        E 0 99 1b 7f
        E 0 99 33 67
        E 0 99 28 67
        E 30 99 28 00
        E 0 99 1b 00
        E 0 99 33 00
        E 0 99 1b 7f
        E 0 99 2a 7f
        E 0 99 26 7f
        E 0 99 28 7f
        E 0 99 2a 7f
        E 0 99 33 71
        E 0 99 2a 71
        E 30 99 2a 00
        E 0 99 26 00
        E 0 99 1b 00
        E 0 99 33 00
        E 0 99 28 00
        E 0 99 1b 7f
        E 0 99 2a 7f
        E 0 99 33 36
        E 0 99 28 36
        E 30 99 28 00
        E 0 99 1b 00
        E 0 99 2a 00
        E 0 99 33 00
        E 0 99 1b 7f
        E 0 99 33 47
        E 0 99 2a 47
        E 30 99 2a 00
        E 0 99 1b 00
        E 0 99 1b 7f
        E 0 99 2a 7f
        E 30 99 2a 00
        E 0 99 1b 00
        E 0 99 33 00
        E 0 99 26 7f
        E 0 99 28 7f
        E 0 99 1b 7f
        E 0 99 33 6a
        E 0 99 28 6a
        E 0 99 2a 6a
        E 30 99 2a 00
        E 0 99 28 00
        E 0 99 1b 00
        E 0 99 26 00
        E 0 99 28 00
        E 0 99 33 00
        E 0 99 1b 7f
        E 0 99 2a 7f
        E 0 99 33 38
        E 30 99 33 00
        E 0 99 2a 00
        E 0 99 1b 00
        E 0 99 1b 7f
        E 0 99 26 7f
        E 0 99 28 7f
        E 0 99 2a 48
        E 0 99 28 48
        E 0 99 2a 48
        E 30 99 28 00
        E 0 99 2a 00
        E 0 99 26 00
        E 0 99 28 00
        E 0 99 1b 00
        E 0 99 2a 00
        E 0 99 1b 7f
        E 0 99 2a 7f
        E 0 99 28 4d
        E 30 99 28 00
        E 0 99 2a 00
        E 0 99 1b 00
        E 0 99 2a 00
        E 0 99 2e 7c
        E 0 99 2a 7c
        E 0 99 33 7c
        E 0 99 3b 64
        E 0 99 23 64
        E 30 99 33 00
        E 0 99 2e 00
        E 0 99 2a 00
        E 30 99 23 00
        E 0 99 2e 41
        E 0 99 2a 41
        E 0 99 33 41
        E 0 99 23 64
        E 30 99 33 00
        E 0 99 2a 00
        E 0 99 2e 00
        E 0 99 33 40
        E 30 99 33 00
        E 0 99 3b 00
        E 0 99 23 00
        E 0 99 28 73
        E 0 99 2e 73
        E 0 99 26 73
        E 0 99 2a 73
        E 0 99 33 73
        E 0 99 28 64
        E 0 99 26 64
        E 0 99 31 64
        E 0 99 3b 64
        E 30 99 2a 00
        E 0 99 2e 00
        E 30 99 31 00
        E 0 99 28 00
        E 0 99 26 00
        E 0 99 33 00
        E 0 99 28 00
        E 0 99 26 00
        E 0 99 2e 4d
        E 0 99 2a 4d
        E 0 99 23 64
        E 30 99 2a 00
        E 0 99 2e 00
        E 0 99 2e 64
        E 0 99 2a 64
        E 0 99 33 64
        E 0 99 26 64
        E 30 99 33 00
        E 0 99 2a 00
        E 0 99 2e 00
        E 0 99 23 00
        E 0 99 3b 00
        E 0 99 2e 68
        E 0 99 2a 68
        E 0 99 33 68
        E 0 99 23 64
        E 0 99 3b 64
        E 30 99 33 00
        E 0 99 2a 00
        E 0 99 26 00
        E 0 99 2e 00
        E 0 99 33 35
        E 0 99 26 64
        E 30 99 33 00
        E 0 99 23 00
        E 0 99 2e 4c
        E 0 99 2a 4c
        E 0 99 33 4c
        E 0 99 23 64
        E 30 99 2a 00
        E 0 99 2e 00
        E 0 99 26 00
        E 30 99 3b 00
        E 0 99 33 00
        E 0 99 23 00
        E 0 99 28 7d
        E 0 99 2e 7d
        E 0 99 26 7d
        E 0 99 2a 7d
        E 0 99 33 7d
        E 0 99 26 64
        E 0 99 28 64
        E 0 99 31 64
        E 0 99 3b 64
        E 30 99 33 00
        E 0 99 2a 00
        E 0 99 2e 00
        E 0 99 33 32
        E 30 99 33 00
        E 0 99 28 00
        E 0 99 26 00
        E 0 99 28 00
        E 0 99 31 00
        E 0 99 26 00
        E 0 99 2e 44
        E 0 99 2a 44
        E 0 99 23 64
        E 30 99 23 00
        E 0 99 2a 00
        E 0 99 2e 00
        E 0 99 26 64
        E 30 99 3b 00
        E 0 99 2a 00
        E 0 99 2e 7f
        E 0 99 2a 7f
        E 0 99 33 7f
        E 0 99 3b 64
        E 0 99 23 64
        E 3 99 26 00
        E 27 99 33 00
        E 0 99 2e 00
        E 0 99 2a 00
        E 30 99 23 00
        E 0 99 2e 4f
        E 0 99 2a 4f
        E 0 99 33 4f
        E 0 99 23 64
        E 30 99 33 00
        E 0 99 2a 00
        E 0 99 2e 00
        E 0 99 33 39
        E 30 99 33 00
        E 0 99 3b 00
        E 0 99 23 00
        E 0 99 28 71
        E 0 99 2e 71
        E 0 99 26 71
        E 0 99 2a 71
        E 0 99 33 71
        E 0 99 28 64
        E 0 99 26 64
        E 0 99 31 64
        E 0 99 3b 64
        E 30 99 2a 00
        E 0 99 2e 00
        E 30 99 31 00
        E 0 99 28 00
        E 0 99 26 00
        E 0 99 33 00
        E 0 99 28 00
        E 0 99 26 00
        E 0 99 2e 45
        E 0 99 2a 45
        E 0 99 23 64
        E 30 99 2a 00
        E 0 99 2e 00
        E 0 99 2e 67
        E 0 99 2a 67
        E 0 99 33 67
        E 0 99 26 64
        E 30 99 33 00
        E 0 99 2a 00
        E 0 99 2e 00
        E 0 99 23 00
        E 0 99 3b 00
        E 0 99 2e 71
        E 0 99 2a 71
        E 0 99 33 71
        E 0 99 23 64
        E 0 99 3b 64
        E 30 99 33 00
        E 0 99 2a 00
        E 0 99 26 00
        E 0 99 2e 00
        E 0 99 33 36
        E 0 99 26 64
        E 30 99 33 00
        E 0 99 23 00
        E 0 99 2e 47
        E 0 99 2a 47
        E 0 99 33 47
        E 0 99 23 64
        E 30 99 2a 00
        E 0 99 2e 00
        E 0 99 26 00
        E 30 99 3b 00
        E 0 99 33 00
        E 0 99 23 00
        E 0 99 28 6a
        E 0 99 2e 6a
        E 0 99 26 6a
        E 0 99 2a 6a
        E 0 99 33 6a
        E 0 99 26 64
        E 0 99 28 64
        E 0 99 31 64
        E 0 99 3b 64
        E 30 99 33 00
        E 0 99 2a 00
        E 0 99 2e 00
        E 0 99 33 38
        E 30 99 33 00
        E 0 99 28 00
        E 0 99 26 00
        E 0 99 28 00
        E 0 99 31 00
        E 0 99 26 00
        E 0 99 2e 48
        E 0 99 2a 48
        E 0 99 23 64
        E 30 99 23 00
        E 0 99 2a 00
        E 0 99 2e 00
        E 0 99 26 64
        E 30 99 3b 00
        E 0 99 2a 00
        E 0 99 2e 7c
        E 0 99 2a 7c
        E 0 99 33 7c
        E 0 99 3b 64
        E 0 99 23 64
        E 3 99 26 00
        E 27 99 33 00
        E 0 99 2e 00
        E 0 99 2a 00
        E 30 99 23 00
        E 0 99 2e 41
        E 0 99 2a 41
        E 0 99 33 41
        E 0 99 23 64
        E 30 99 33 00
        E 0 99 2a 00
        E 0 99 2e 00
        E 0 99 33 40
        E 30 99 33 00
        E 0 99 3b 00
        E 0 99 23 00
        E 0 99 28 73
        E 0 99 2e 73
        E 0 99 26 73
        E 0 99 2a 73
        E 0 99 33 73
        E 0 99 28 64
        E 0 99 26 64
        E 0 99 31 64
        E 0 99 3b 64
        E 30 99 2a 00
        E 0 99 2e 00
        E 30 99 31 00
        E 0 99 28 00
        E 0 99 26 00
        E 0 99 33 00
        E 0 99 28 00
        E 0 99 26 00
        E 0 99 2e 4d
        E 0 99 2a 4d
        E 0 99 23 64
        E 30 99 2a 00
        E 0 99 2e 00
        E 0 99 2e 64
        E 0 99 2a 64
        E 0 99 33 64
        E 0 99 26 64
        E 30 99 33 00
        E 0 99 2a 00
        E 0 99 2e 00
        E 0 99 23 00
        E 0 99 3b 00
        E 0 99 2e 68
        E 0 99 2a 68
        E 0 99 33 68
        E 0 99 23 64
        E 0 99 3b 64
        E 30 99 33 00
        E 0 99 2a 00
        E 0 99 26 00
        E 0 99 2e 00
        E 0 99 33 35
        E 0 99 26 64
        E 30 99 33 00
        E 0 99 23 00
        E 0 99 2e 4c
        E 0 99 2a 4c
        E 0 99 33 4c
        E 0 99 23 64
        E 30 99 2a 00
        E 0 99 2e 00
        E 0 99 26 00
        E 30 99 3b 00
        E 0 99 33 00
        E 0 99 23 00
        E 0 99 28 7d
        E 0 99 2e 7d
        E 0 99 26 7d
        E 0 99 2a 7d
        E 0 99 33 7d
        E 0 99 26 64
        E 0 99 28 64
        E 0 99 31 64
        E 0 99 3b 64
        E 30 99 33 00
        E 0 99 2a 00
        E 0 99 2e 00
        E 0 99 33 32
        E 30 99 33 00
        E 0 99 28 00
        E 0 99 26 00
        E 0 99 28 00
        E 0 99 31 00
        E 0 99 26 00
        E 0 99 2e 44
        E 0 99 2a 44
        E 0 99 23 64
        E 30 99 23 00
        E 0 99 2a 00
        E 0 99 2e 00
        E 0 99 26 64
        E 30 99 3b 00
        E 0 99 2a 00
        E 0 99 2e 7f
        E 0 99 2a 7f
        E 0 99 33 7f
        E 0 99 3b 64
        E 0 99 23 64
        E 3 99 26 00
        E 27 99 33 00
        E 0 99 2e 00
        E 0 99 2a 00
        E 30 99 23 00
        E 0 99 2e 4f
        E 0 99 2a 4f
        E 0 99 33 4f
        E 0 99 23 64
        E 30 99 33 00
        E 0 99 2a 00
        E 0 99 2e 00
        E 0 99 33 39
        E 30 99 33 00
        E 0 99 3b 00
        E 0 99 23 00
        E 0 99 28 71
        E 0 99 2e 71
        E 0 99 26 71
        E 0 99 2a 71
        E 0 99 33 71
        E 0 99 28 64
        E 0 99 26 64
        E 0 99 31 64
        E 0 99 3b 64
        E 30 99 2a 00
        E 0 99 2e 00
        E 30 99 31 00
        E 0 99 28 00
        E 0 99 26 00
        E 0 99 33 00
        E 0 99 28 00
        E 0 99 26 00
        E 0 99 2e 45
        E 0 99 2a 45
        E 0 99 23 64
        E 30 99 2a 00
        E 0 99 2e 00
        E 0 99 2e 67
        E 0 99 2a 67
        E 0 99 33 67
        E 0 99 26 64
        E 30 99 33 00
        E 0 99 2a 00
        E 0 99 2e 00
        E 0 99 23 00
        E 0 99 3b 00
        E 0 99 2e 71
        E 0 99 2a 71
        E 0 99 33 71
        E 0 99 23 64
        E 0 99 3b 64
        E 30 99 33 00
        E 0 99 2a 00
        E 0 99 26 00
        E 0 99 2e 00
        E 0 99 33 36
        E 0 99 26 64
        E 30 99 33 00
        E 0 99 23 00
        E 0 99 2e 47
        E 0 99 2a 47
        E 0 99 33 47
        E 0 99 23 64
        E 30 99 2a 00
        E 0 99 2e 00
        E 0 99 26 00
        E 30 99 3b 00
        E 0 99 33 00
        E 0 99 23 00
        E 0 99 28 6a
        E 0 99 2e 6a
        E 0 99 26 6a
        E 0 99 2a 6a
        E 0 99 33 6a
        E 30 99 33 00
        E 0 99 2e 00
        E 0 99 2a 00
        E 0 99 33 38
        E 30 99 33 00
        E 0 99 26 00
        E 0 99 28 00
        E 0 99 2e 48
        E 0 99 2a 48
        E 30 99 2a 00
        E 0 99 2e 00
        E 30 99 2a 00
        E 0 99 2e 7c
        E 0 99 2a 7c
        E 0 99 33 7c
        E 0 99 3b 64
        E 0 99 23 64
        E 30 99 33 00
        E 0 99 2e 00
        E 0 99 2a 00
        E 30 99 23 00
        E 0 99 2e 41
        E 0 99 2a 41
        E 0 99 33 41
        E 0 99 23 64
        E 30 99 33 00
        E 0 99 2a 00
        E 0 99 2e 00
        E 0 99 33 40
        E 30 99 33 00
        E 0 99 3b 00
        E 0 99 23 00
        E 0 99 28 73
        E 0 99 2e 73
        E 0 99 26 73
        E 0 99 2a 73
        E 0 99 33 73
        E 0 99 28 64
        E 0 99 26 64
        E 0 99 31 64
        E 0 99 3b 64
        E 30 99 2a 00
        E 0 99 2e 00
        E 30 99 31 00
        E 0 99 28 00
        E 0 99 26 00
        E 0 99 33 00
        E 0 99 28 00
        E 0 99 26 00
        E 0 99 2e 4d
        E 0 99 2a 4d
        E 0 99 23 64
        E 30 99 2a 00
        E 0 99 2e 00
        E 0 99 2e 64
        E 0 99 2a 64
        E 0 99 33 64
        E 0 99 26 64
        E 30 99 33 00
        E 0 99 2a 00
        E 0 99 2e 00
        E 0 99 23 00
        E 0 99 3b 00
        E 0 99 2e 68
        E 0 99 2a 68
        E 0 99 33 68
        E 0 99 23 64
        E 0 99 3b 64
        E 30 99 33 00
        E 0 99 2a 00
        E 0 99 26 00
        E 0 99 2e 00
        E 0 99 33 35
        E 0 99 26 64
        E 30 99 33 00
        E 0 99 23 00
        E 0 99 2e 4c
        E 0 99 2a 4c
        E 0 99 33 4c
        E 0 99 23 64
        E 30 99 2a 00
        E 0 99 2e 00
        E 0 99 26 00
        E 30 99 3b 00
        E 0 99 33 00
        E 0 99 23 00
        E 0 99 28 7d
        E 0 99 2e 7d
        E 0 99 26 7d
        E 0 99 2a 7d
        E 0 99 33 7d
        E 0 99 26 64
        E 0 99 28 64
        E 0 99 31 64
        E 0 99 3b 64
        E 30 99 33 00
        E 0 99 2a 00
        E 0 99 2e 00
        E 0 99 33 32
        E 30 99 33 00
        E 0 99 28 00
        E 0 99 26 00
        E 0 99 28 00
        E 0 99 31 00
        E 0 99 26 00
        E 0 99 2e 44
        E 0 99 2a 44
        E 0 99 23 64
        E 30 99 23 00
        E 0 99 2a 00
        E 0 99 2e 00
        E 0 99 26 64
        E 30 99 3b 00
        E 0 99 2a 00
        E 0 99 2e 7f
        E 0 99 2a 7f
        E 0 99 33 7f
        E 0 99 3b 64
        E 0 99 23 64
        E 3 99 26 00
        E 27 99 33 00
        E 0 99 2e 00
        E 0 99 2a 00
        E 30 99 23 00
        E 0 99 2e 4f
        E 0 99 2a 4f
        E 0 99 33 4f
        E 0 99 23 64
        E 30 99 33 00
        E 0 99 2a 00
        E 0 99 2e 00
        E 0 99 33 39
        E 30 99 33 00
        E 0 99 3b 00
        E 0 99 23 00
        E 0 99 28 71
        E 0 99 2e 71
        E 0 99 26 71
        E 0 99 2a 71
        E 0 99 33 71
        E 0 99 28 64
        E 0 99 26 64
        E 0 99 31 64
        E 0 99 3b 64
        E 30 99 2a 00
        E 0 99 2e 00
        E 30 99 31 00
        E 0 99 28 00
        E 0 99 26 00
        E 0 99 33 00
        E 0 99 28 00
        E 0 99 26 00
        E 0 99 2e 45
        E 0 99 2a 45
        E 0 99 23 64
        E 30 99 2a 00
        E 0 99 2e 00
        E 0 99 2e 67
        E 0 99 2a 67
        E 0 99 33 67
        E 0 99 26 64
        E 30 99 33 00
        E 0 99 2a 00
        E 0 99 2e 00
        E 0 99 23 00
        E 0 99 3b 00
        E 0 99 2e 71
        E 0 99 2a 71
        E 0 99 33 71
        E 0 99 23 64
        E 0 99 3b 64
        E 30 99 33 00
        E 0 99 2a 00
        E 0 99 26 00
        E 0 99 2e 00
        E 0 99 33 36
        E 0 99 26 64
        E 30 99 33 00
        E 0 99 23 00
        E 0 99 2e 47
        E 0 99 2a 47
        E 0 99 33 47
        E 0 99 23 64
        E 30 99 2a 00
        E 0 99 2e 00
        E 0 99 26 00
        E 30 99 3b 00
        E 0 99 33 00
        E 0 99 23 00
        E 0 99 28 6a
        E 0 99 2e 6a
        E 0 99 26 6a
        E 0 99 2a 6a
        E 0 99 33 6a
        E 0 99 26 64
        E 0 99 28 64
        E 0 99 31 64
        E 0 99 3b 64
        E 30 99 33 00
        E 0 99 2a 00
        E 0 99 2e 00
        E 0 99 33 38
        E 30 99 33 00
        E 0 99 28 00
        E 0 99 26 00
        E 0 99 28 00
        E 0 99 31 00
        E 0 99 26 00
        E 0 99 2e 48
        E 0 99 2a 48
        E 0 99 23 64
        E 30 99 23 00
        E 0 99 2a 00
        E 0 99 2e 00
        E 0 99 26 64
        E 30 99 3b 00
        E 0 99 2a 00
        E 0 99 2e 7c
        E 0 99 2a 7c
        E 0 99 33 7c
        E 0 99 3b 64
        E 0 99 23 64
        E 3 99 26 00
        E 27 99 33 00
        E 0 99 2e 00
        E 0 99 2a 00
        E 30 99 23 00
        E 0 99 2e 41
        E 0 99 2a 41
        E 0 99 33 41
        E 0 99 23 64
        E 30 99 33 00
        E 0 99 2a 00
        E 0 99 2e 00
        E 0 99 33 40
        E 30 99 33 00
        E 0 99 3b 00
        E 0 99 23 00
        E 0 99 28 73
        E 0 99 2e 73
        E 0 99 26 73
        E 0 99 2a 73
        E 0 99 33 73
        E 0 99 28 64
        E 0 99 26 64
        E 0 99 31 64
        E 0 99 3b 64
        E 30 99 2a 00
        E 0 99 2e 00
        E 30 99 31 00
        E 0 99 28 00
        E 0 99 26 00
        E 0 99 33 00
        E 0 99 28 00
        E 0 99 26 00
        E 0 99 2e 4d
        E 0 99 2a 4d
        E 0 99 23 64
        E 30 99 2a 00
        E 0 99 2e 00
        E 0 99 2e 64
        E 0 99 2a 64
        E 0 99 33 64
        E 0 99 26 64
        E 30 99 33 00
        E 0 99 2a 00
        E 0 99 2e 00
        E 0 99 23 00
        E 0 99 3b 00
        E 0 99 2e 68
        E 0 99 2a 68
        E 0 99 33 68
        E 0 99 23 64
        E 0 99 3b 64
        E 30 99 33 00
        E 0 99 2a 00
        E 0 99 26 00
        E 0 99 2e 00
        E 0 99 33 35
        E 0 99 26 64
        E 30 99 33 00
        E 0 99 23 00
        E 0 99 2e 4c
        E 0 99 2a 4c
        E 0 99 33 4c
        E 0 99 23 64
        E 30 99 2a 00
        E 0 99 2e 00
        E 0 99 26 00
        E 30 99 3b 00
        E 0 99 33 00
        E 0 99 23 00
        E 0 99 28 7d
        E 0 99 2e 7d
        E 0 99 26 7d
        E 0 99 2a 7d
        E 0 99 33 7d
        E 0 99 26 64
        E 0 99 28 64
        E 0 99 31 64
        E 0 99 3b 64
        E 30 99 33 00
        E 0 99 2a 00
        E 0 99 2e 00
        E 0 99 33 32
        E 30 99 33 00
        E 0 99 28 00
        E 0 99 26 00
        E 0 99 28 00
        E 0 99 31 00
        E 0 99 26 00
        E 0 99 2e 44
        E 0 99 2a 44
        E 0 99 23 64
        E 30 99 23 00
        E 0 99 2a 00
        E 0 99 2e 00
        E 0 99 26 64
        E 30 99 3b 00
        E 0 99 2a 00
        E 0 99 2e 7f
        E 0 99 2a 7f
        E 0 99 33 7f
        E 0 99 3b 64
        E 0 99 23 64
        E 3 99 26 00
        E 27 99 33 00
        E 0 99 2e 00
        E 0 99 2a 00
        E 30 99 23 00
        E 0 99 2e 4f
        E 0 99 2a 4f
        E 0 99 33 4f
        E 0 99 23 64
        E 30 99 33 00
        E 0 99 2a 00
        E 0 99 2e 00
        E 0 99 33 39
        E 30 99 33 00
        E 0 99 3b 00
        E 0 99 23 00
        E 0 99 28 71
        E 0 99 2e 71
        E 0 99 26 71
        E 0 99 2a 71
        E 0 99 33 71
        E 0 99 28 64
        E 0 99 26 64
        E 0 99 31 64
        E 0 99 3b 64
        E 30 99 2a 00
        E 0 99 2e 00
        E 30 99 31 00
        E 0 99 28 00
        E 0 99 26 00
        E 0 99 33 00
        E 0 99 28 00
        E 0 99 26 00
        E 0 99 2e 45
        E 0 99 2a 45
        E 0 99 23 64
        E 30 99 2a 00
        E 0 99 2e 00
        E 0 99 2e 67
        E 0 99 2a 67
        E 0 99 33 67
        E 0 99 26 64
        E 30 99 33 00
        E 0 99 2a 00
        E 0 99 2e 00
        E 0 99 23 00
        E 0 99 3b 00
        E 0 99 2e 71
        E 0 99 2a 71
        E 0 99 33 71
        E 0 99 23 64
        E 0 99 3b 64
        E 30 99 33 00
        E 0 99 2a 00
        E 0 99 26 00
        E 0 99 2e 00
        E 0 99 33 36
        E 0 99 26 64
        E 30 99 33 00
        E 0 99 23 00
        E 0 99 2e 47
        E 0 99 2a 47
        E 0 99 33 47
        E 0 99 23 64
        E 30 99 2a 00
        E 0 99 2e 00
        E 0 99 26 00
        E 30 99 3b 00
        E 0 99 33 00
        E 0 99 23 00
        E 0 99 28 6a
        E 0 99 2e 6a
        E 0 99 26 6a
        E 0 99 2a 6a
        E 0 99 33 6a
        E 30 99 33 00
        E 0 99 2e 00
        E 0 99 2a 00
        E 0 99 33 38
        E 30 99 33 00
        E 0 99 26 00
        E 0 99 28 00
        E 0 99 2e 48
        E 0 99 2a 48
        E 30 99 2a 00
        E 0 99 2e 00
        E 30 99 2a 00
        E 0 99 2e 7c
        E 0 99 2a 7c
        E 0 99 26 7c
        E 0 99 33 7c
        E 0 99 26 7c
        E 30 99 26 00
        E 0 99 33 00
        E 30 99 2a 00
        E 0 99 2e 00
        E 0 99 2e 41
        E 0 99 2a 41
        E 0 99 26 41
        E 0 99 33 41
        E 30 99 33 00
        E 0 99 26 00
        E 0 99 33 40
        E 30 99 33 00
        E 0 99 2a 00
        E 0 99 2e 00
        E 0 99 26 73
        E 0 99 2a 73
        E 0 99 2e 73
        E 0 99 26 73
        E 0 99 33 73
        E 30 99 26 00
        E 30 99 2a 00
        E 0 99 2e 00
        E 0 99 33 00
        E 0 99 2a 4d
        E 0 99 2e 4d
        E 0 99 26 4d
        E 30 99 26 00
        E 0 99 33 64
        E 30 99 33 00
        E 0 99 2e 00
        E 0 99 2a 00
        E 0 99 33 68
        E 0 99 2e 68
        E 0 99 2a 68
        E 0 99 26 68
        E 30 99 26 00
        E 0 99 33 00
        E 0 99 26 00
        E 0 99 33 35
        E 30 99 33 00
        E 0 99 2a 00
        E 0 99 2e 00
        E 0 99 2e 4c
        E 0 99 2a 4c
        E 0 99 26 4c
        E 0 99 33 4c
        E 0 99 26 4c
        E 30 99 26 00
        E 30 99 2e 00
        E 0 99 2a 00
        E 0 99 33 00
        E 0 99 2a 7d
        E 0 99 2e 7d
        E 0 99 26 7d
        E 0 99 33 7d
        E 0 99 26 7d
        E 30 99 26 00
        E 0 99 33 00
        E 0 99 33 32
        E 30 99 33 00
        E 0 99 2e 00
        E 0 99 2a 00
        E 0 99 2e 44
        E 0 99 26 44
        E 0 99 2a 44
        E 0 99 26 44
        E 0 99 2a 44
        E 30 99 26 00
        E 30 99 2e 00
        E 0 99 2a 00
        E 0 99 1b 7f
        E 0 99 2a 7f
        E 0 99 33 7f
        E 0 99 2a 7f
        E 30 99 2a 00
        E 0 99 1b 00
        E 0 99 2a 00
        E 0 99 33 00
        E 0 99 1b 7c
        E 0 99 2a 7c
        E 30 99 2a 00
        E 0 99 1b 00
        E 0 99 1b 79
        E 0 99 33 79
        E 0 99 2a 79
        E 30 99 2a 00
        E 0 99 33 00
        E 0 99 1b 00
        E 0 99 1b 76
        E 0 99 2a 76
        E 0 99 33 76
        E 30 99 33 00
        E 0 99 2a 00
        E 0 99 1b 00
        E 0 99 26 73
        E 0 99 28 73
        E 0 99 1b 73
        E 0 99 2a 73
        E 0 99 33 73
        E 0 99 28 73
        E 0 99 2a 73
        E 30 99 2a 00
        E 0 99 28 00
        E 0 99 1b 00
        E 0 99 26 00
        E 0 99 28 00
        E 0 99 1b 70
        E 30 99 1b 00
        E 0 99 33 00
        E 0 99 1b 6d
        E 0 99 2a 6d
        E 30 99 2a 00
        E 0 99 1b 00
        E 0 99 28 6a
        E 0 99 1b 6a
        E 0 99 33 6a
        E 0 99 28 6a
        E 30 99 28 00
        E 0 99 1b 00
        E 0 99 33 00
        E 0 99 1b 67
        E 0 99 2a 67
        E 0 99 33 67
        E 0 99 2a 67
        E 30 99 2a 00
        E 0 99 1b 00
        E 0 99 2a 00
        E 0 99 33 00
        E 0 99 1b 64
        E 0 99 2a 64
        E 0 99 33 64
        E 0 99 28 64
        E 30 99 28 00
        E 0 99 1b 00
        E 0 99 2a 00
        E 0 99 33 00
        E 0 99 1b 61
        E 0 99 33 61
        E 0 99 2a 61
        E 30 99 2a 00
        E 0 99 1b 00
        E 0 99 1b 5e
        E 0 99 2a 5e
        E 30 99 2a 00
        E 0 99 1b 00
        E 0 99 33 00
        E 0 99 26 5b
        E 0 99 28 5b
        E 0 99 1b 5b
        E 0 99 33 5b
        E 0 99 28 5b
        E 0 99 2a 5b
        E 30 99 2a 00
        E 0 99 28 00
        E 0 99 1b 00
        E 0 99 26 00
        E 0 99 28 00
        E 0 99 33 00
        E 0 99 1b 58
        E 0 99 2a 58
        E 0 99 33 58
        E 30 99 33 00
        E 0 99 2a 00
        E 0 99 1b 00
        E 0 99 1b 55
        E 0 99 2a 55
        E 0 99 28 55
        E 0 99 2a 55
        E 30 99 28 00
        E 0 99 1b 00
        E 0 99 2a 00
        E 0 99 1b 52
        E 0 99 2a 52
        E 0 99 28 52
        E 30 99 28 00
        E 0 99 2a 00
        E 0 99 1b 00
        E 0 99 2a 00
        E 0 99 2a 50
        E 0 99 1b 50
        E 0 99 3b 50
        E 30 99 3b 00
        E 0 99 1b 00
        E 0 99 2a 00
        E 0 99 1b 50
        E 0 99 2a 50
        E 30 99 2a 00
        E 0 99 1b 00
        E 0 99 1b 50
        E 30 99 1b 00
        E 0 99 1b 50
        E 0 99 2a 50
        E 30 99 2a 00
        E 0 99 1b 00
        E 0 99 1b 50
        E 0 99 2a 50
        E 0 99 3c 50
        E 30 99 3c 00
        E 0 99 2a 00
        E 0 99 1b 00
        E 0 99 1b 50
        E 0 99 3d 50
        E 30 99 3d 00
        E 0 99 1b 00
        E 0 99 1b 50
        E 0 99 2a 50
        E 0 99 3d 50
        E 30 99 3d 00
        E 0 99 2a 00
        E 0 99 1b 00
        E 0 99 1b 50
        E 30 99 1b 00
        E 0 99 1b 50
        E 0 99 2a 50
        E 30 99 2a 00
        E 0 99 1b 00
        E 0 99 1b 50
        E 0 99 2a 50
        E 30 99 2a 00
        E 0 99 1b 00
        E 0 99 1b 50
        E 0 99 3c 50
        E 30 99 3c 00
        E 0 99 1b 00
        E 0 99 1b 50
        E 0 99 2a 50
        E 0 99 3d 50
        E 30 99 3d 00
        E 0 99 2a 00
        E 0 99 1b 00
        E 0 99 1b 50
        E 0 99 3d 50
        E 30 99 3d 00
        E 0 99 1b 00
        E 0 99 1b 50
        E 0 99 2a 50
        E 0 99 3c 50
        E 30 99 3c 00
        E 0 99 2a 00
        E 0 99 1b 00
        E 0 99 1b 50
        E 30 99 1b 00
        E 0 99 1b 50
        E 0 99 2a 50
        E 30 99 2a 00
        E 0 99 1b 00
        E 0 99 2a 50
        E 0 99 1b 50
        E 0 99 3b 50
        E 30 99 3b 00
        E 0 99 1b 00
        E 0 99 2a 00
        E 0 99 1b 50
        E 0 99 2a 50
        E 30 99 2a 00
        E 0 99 1b 00
        E 0 99 1b 50
        E 30 99 1b 00
        E 0 99 1b 50
        E 0 99 2a 50
        E 30 99 2a 00
        E 0 99 1b 00
        E 0 99 1b 50
        E 0 99 2a 50
        E 0 99 3c 50
        E 30 99 3c 00
        E 0 99 2a 00
        E 0 99 1b 00
        E 0 99 1b 50
        E 0 99 3d 50
        E 30 99 3d 00
        E 0 99 1b 00
        E 0 99 1b 50
        E 0 99 2a 50
        E 0 99 3d 50
        E 30 99 3d 00
        E 0 99 2a 00
        E 0 99 1b 00
        E 0 99 1b 50
        E 30 99 1b 00
        E 0 99 1b 50
        E 0 99 2a 50
        E 30 99 2a 00
        E 0 99 1b 00
        E 0 99 1b 50
        E 0 99 2a 50
        E 30 99 2a 00
        E 0 99 1b 00
        E 0 99 1b 50
        E 0 99 3c 50
        E 30 99 3c 00
        E 0 99 1b 00
        E 0 99 1b 50
        E 0 99 2a 50
        E 0 99 3d 50
        E 30 99 3d 00
        E 0 99 2a 00
        E 0 99 1b 00
        E 0 99 1b 50
        E 0 99 3d 50
        E 30 99 3d 00
        E 0 99 1b 00
        E 0 99 1b 50
        E 0 99 2a 50
        E 0 99 3c 50
        E 30 99 3c 00
        E 0 99 2a 00
        E 0 99 1b 00
        E 0 99 1b 50
        E 30 99 1b 00
        E 0 99 1b 50
        E 0 99 2a 50
        E 30 99 2a 00
        E 0 99 1b 00
        E 0 99 2a 50
        E 0 99 1b 50
        E 0 99 3b 50
        E 30 99 3b 00
        E 0 99 1b 00
        E 0 99 2a 00
        E 0 99 1b 50
        E 0 99 2a 50
        E 30 99 2a 00
        E 0 99 1b 00
        E 0 99 1b 50
        E 30 99 1b 00
        E 0 99 1b 50
        E 0 99 2a 50
        E 30 99 2a 00
        E 0 99 1b 00
        E 0 99 1b 50
        E 0 99 2a 50
        E 0 99 3c 50
        E 30 99 3c 00
        E 0 99 2a 00
        E 0 99 1b 00
        E 0 99 1b 50
        E 0 99 3d 50
        E 30 99 3d 00
        E 0 99 1b 00
        E 0 99 1b 50
        E 0 99 2a 50
        E 0 99 3d 50
        E 30 99 3d 00
        E 0 99 2a 00
        E 0 99 1b 00
        E 0 99 1b 50
        E 30 99 1b 00
        E 0 99 1b 50
        E 0 99 2a 50
        E 30 99 2a 00
        E 0 99 1b 00
        E 0 99 1b 50
        E 0 99 2a 50
        E 30 99 2a 00
        E 0 99 1b 00
        E 0 99 1b 50
        E 0 99 3c 50
        E 30 99 3c 00
        E 0 99 1b 00
        E 0 99 1b 50
        E 0 99 2a 50
        E 0 99 3d 50
        E 30 99 3d 00
        E 0 99 2a 00
        E 0 99 1b 00
        E 0 99 1b 50
        E 0 99 3d 50
        E 30 99 3d 00
        E 0 99 1b 00
        E 0 99 1b 50
        E 0 99 2a 50
        E 0 99 3c 50
        E 30 99 3c 00
        E 0 99 2a 00
        E 0 99 1b 00
        E 0 99 1b 50
        E 30 99 1b 00
        E 0 99 1b 50
        E 0 99 2a 50
        E 30 99 2a 00
        E 0 99 1b 00
        E 0 99 2a 50
        E 0 99 1b 50
        E 0 99 3b 50
        E 30 99 3b 00
        E 0 99 1b 00
        E 0 99 2a 00
        E 0 99 1b 50
        E 0 99 2a 50
        E 30 99 2a 00
        E 0 99 1b 00
        E 0 99 1b 50
        E 30 99 1b 00
        E 0 99 1b 50
        E 0 99 2a 50
        E 30 99 2a 00
        E 0 99 1b 00
        E 0 99 1b 50
        E 0 99 2a 50
        E 0 99 3c 50
        E 30 99 3c 00
        E 0 99 2a 00
        E 0 99 1b 00
        E 0 99 1b 50
        E 0 99 3d 50
        E 30 99 3d 00
        E 0 99 1b 00
        E 0 99 1b 50
        E 0 99 2a 50
        E 0 99 3d 50
        E 30 99 3d 00
        E 0 99 2a 00
        E 0 99 1b 00
        E 0 99 1b 50
        E 30 99 1b 00
        E 0 99 1b 50
        E 0 99 2a 50
        E 30 99 2a 00
        E 0 99 1b 00
        E 0 99 1b 50
        E 0 99 2a 50
        E 30 99 2a 00
        E 0 99 1b 00
        E 0 99 1b 50
        E 0 99 3c 50
        E 30 99 3c 00
        E 0 99 1b 00
        E 0 99 1b 50
        E 0 99 2a 50
        E 0 99 3d 50
        E 30 99 3d 00
        E 0 99 2a 00
        E 0 99 1b 00
        E 0 99 1b 50
        E 0 99 3d 50
        E 30 99 3d 00
        E 0 99 1b 00
        E 0 99 1b 50
        E 0 99 2a 50
        E 0 99 3c 50
        E 30 99 3c 00
        E 0 99 2a 00
        E 0 99 1b 00
        E 0 99 1b 50
        E 30 99 1b 00
        E 0 99 1b 50
        E 0 99 2a 50
        E 30 99 2a 00
        E 0 99 1b 00
        E 0 99 2a 50
        E 0 99 1b 50
        E 0 99 3b 50
        E 30 99 3b 00
        E 0 99 1b 00
        E 0 99 2a 00
        E 0 99 1b 50
        E 0 99 2a 50
        E 30 99 2a 00
        E 0 99 1b 00
        E 0 99 1b 50
        E 30 99 1b 00
        E 0 99 1b 50
        E 0 99 2a 50
        E 30 99 2a 00
        E 0 99 1b 00
        E 0 99 1b 50
        E 0 99 2a 50
        E 0 99 3c 50
        E 30 99 3c 00
        E 0 99 2a 00
        E 0 99 1b 00
        E 0 99 1b 50
        E 0 99 3d 50
        E 30 99 3d 00
        E 0 99 1b 00
        E 0 99 1b 50
        E 0 99 2a 50
        E 0 99 3d 50
        E 30 99 3d 00
        E 0 99 2a 00
        E 0 99 1b 00
        E 0 99 1b 50
        E 30 99 1b 00
        E 0 99 1b 50
        E 0 99 2a 50
        E 30 99 2a 00
        E 0 99 1b 00
        E 0 99 1b 50
        E 0 99 2a 50
        E 30 99 2a 00
        E 0 99 1b 00
        E 0 99 1b 50
        E 0 99 3c 50
        E 30 99 3c 00
        E 0 99 1b 00
        E 0 99 1b 50
        E 0 99 2a 50
        E 0 99 3d 50
        E 30 99 3d 00
        E 0 99 2a 00
        E 0 99 1b 00
        E 0 99 1b 50
        E 0 99 3d 50
        E 30 99 3d 00
        E 0 99 1b 00
        E 0 99 1b 50
        E 0 99 2a 50
        E 0 99 3c 50
        E 30 99 3c 00
        E 0 99 2a 00
        E 0 99 1b 00
        E 0 99 1b 50
        E 30 99 1b 00
        E 0 99 1b 50
        E 0 99 2a 50
        E 30 99 2a 00
        E 0 99 1b 00
        E 0 99 2a 50
        E 0 99 1b 50
        E 0 99 3b 50
        E 30 99 3b 00
        E 0 99 1b 00
        E 0 99 2a 00
        E 0 99 1b 50
        E 0 99 2a 50
        E 30 99 2a 00
        E 0 99 1b 00
        E 0 99 1b 50
        E 30 99 1b 00
        E 0 99 1b 50
        E 0 99 2a 50
        E 30 99 2a 00
        E 0 99 1b 00
        E 0 99 1b 50
        E 0 99 2a 50
        E 0 99 3c 50
        E 30 99 3c 00
        E 0 99 2a 00
        E 0 99 1b 00
        E 0 99 1b 50
        E 0 99 3d 50
        E 30 99 3d 00
        E 0 99 1b 00
        E 0 99 1b 50
        E 0 99 2a 50
        E 0 99 3d 50
        E 30 99 3d 00
        E 0 99 2a 00
        E 0 99 1b 00
        E 0 99 1b 50
        E 30 99 1b 00
        E 0 99 1b 50
        E 0 99 2a 50
        E 30 99 2a 00
        E 0 99 1b 00
        E 0 99 1b 50
        E 0 99 2a 50
        E 30 99 2a 00
        E 0 99 1b 00
        E 0 99 1b 50
        E 0 99 3c 50
        E 30 99 3c 00
        E 0 99 1b 00
        E 0 99 1b 50
        E 0 99 2a 50
        E 0 99 3d 50
        E 30 99 3d 00
        E 0 99 2a 00
        E 0 99 1b 00
        E 0 99 1b 50
        E 0 99 3d 50
        E 30 99 3d 00
        E 0 99 1b 00
        E 0 99 1b 50
        E 0 99 2a 50
        E 0 99 3c 50
        E 30 99 3c 00
        E 0 99 2a 00
        E 0 99 1b 00
        E 0 99 1b 50
        E 30 99 1b 00
        E 0 99 1b 50
        E 0 99 2a 50
        E 30 99 2a 00
        E 0 99 1b 00
        E 0 99 2a 50
        E 0 99 1b 50
        E 0 99 3b 50
        E 30 99 3b 00
        E 0 99 1b 00
        E 0 99 2a 00
        E 0 99 1b 50
        E 0 99 2a 50
        E 30 99 2a 00
        E 0 99 1b 00
        E 0 99 1b 50
        E 30 99 1b 00
        E 0 99 1b 50
        E 0 99 2a 50
        E 30 99 2a 00
        E 0 99 1b 00
        E 0 99 1b 50
        E 0 99 2a 50
        E 0 99 3c 50
        E 30 99 3c 00
        E 0 99 2a 00
        E 0 99 1b 00
        E 0 99 1b 50
        E 0 99 3d 50
        E 30 99 3d 00
        E 0 99 1b 00
        E 0 99 1b 50
        E 0 99 2a 50
        E 0 99 3d 50
        E 30 99 3d 00
        E 0 99 2a 00
        E 0 99 1b 00
        E 0 99 1b 50
        E 30 99 1b 00
        E 0 99 1b 50
        E 0 99 2a 50
        E 30 99 2a 00
        E 0 99 1b 00
        E 0 99 1b 56
        E 0 99 2a 56
        E 30 99 2a 00
        E 0 99 1b 00
        E 0 99 1b 5c
        E 0 99 3c 5c
        E 30 99 3c 00
        E 0 99 1b 00
        E 0 99 1b 62
        E 0 99 2a 62
        E 0 99 3d 62
        E 30 99 3d 00
        E 0 99 2a 00
        E 0 99 1b 00
        E 0 99 1b 67
        E 0 99 3d 67
        E 30 99 3d 00
        E 0 99 1b 00
        E 0 99 1b 6d
        E 0 99 2a 6d
        E 0 99 3c 6d
        E 30 99 3c 00
        E 0 99 2a 00
        E 0 99 1b 00
        E 0 99 1b 73
        E 30 99 1b 00
        E 0 99 1b 79
        E 0 99 2a 79
        E 30 99 2a 00
        E 0 99 1b 00
        E 0 99 2a 7f
        E 0 99 1b 7f
        E 0 99 3b 7f
        E 30 99 3b 00
        E 0 99 1b 00
        E 0 99 2a 00
        E 0 99 1b 7f
        E 0 99 2a 7f
        E 30 99 2a 00
        E 0 99 1b 00
        E 0 99 1b 7f
        E 30 99 1b 00
        E 0 99 1b 7f
        E 0 99 2a 7f
        E 30 99 2a 00
        E 0 99 1b 00
        E 0 99 1b 7f
        E 0 99 2a 7f
        E 0 99 3c 7f
        E 30 99 3c 00
        E 0 99 2a 00
        E 0 99 1b 00
        E 0 99 1b 7f
        E 0 99 3d 7f
        E 30 99 3d 00
        E 0 99 1b 00
        E 0 99 1b 7f
        E 0 99 2a 7f
        E 0 99 3d 7f
        E 30 99 3d 00
        E 0 99 2a 00
        E 0 99 1b 00
        E 0 99 1b 7f
        E 30 99 1b 00
        E 0 99 1b 7f
        E 0 99 2a 7f
        E 30 99 2a 00
        E 0 99 1b 00
        E 0 99 1b 7f
        E 0 99 2a 7f
        E 30 99 2a 00
        E 0 99 1b 00
        E 0 99 1b 7f
        E 0 99 3c 7f
        E 30 99 3c 00
        E 0 99 1b 00
        E 0 99 1b 7f
        E 0 99 2a 7f
        E 0 99 3d 7f
        E 30 99 3d 00
        E 0 99 2a 00
        E 0 99 1b 00
        E 0 99 1b 7f
        E 0 99 3d 7f
        E 30 99 3d 00
        E 0 99 1b 00
        E 0 99 1b 7f
        E 0 99 2a 7f
        E 0 99 3c 7f
        E 30 99 3c 00
        E 0 99 2a 00
        E 0 99 1b 00
        E 0 99 1b 7f
        E 30 99 1b 00
        E 0 99 1b 7f
        E 0 99 2a 7f
        E 30 99 2a 00
        E 0 99 1b 00
        E 0 99 3b 7f
        E 0 99 2a 7f
        E 0 99 1b 7f
        E 0 99 26 7f
        E 30 99 26 00
        E 0 99 1b 00
        E 0 99 3b 00
        E 0 99 2a 00
        E 0 99 26 00
        E 0 99 1b 7f
        E 30 99 1b 00
        E 0 99 1b 7f
        E 0 99 26 7f
        E 30 99 26 00
        E 0 99 1b 00
        E 0 99 1b 7f
        E 30 99 1b 00
        E 0 99 2a 7f
        E 0 99 3b 7f
        E 0 99 1b 7f
        E 0 99 26 7f
        E 30 99 26 00
        E 0 99 1b 00
        E 0 99 2a 00
        E 0 99 3b 00
        E 0 99 26 00
        E 0 99 1b 7f
        E 30 99 1b 00
        E 0 99 1b 7f
        E 0 99 26 7f
        E 30 99 26 00
        E 0 99 1b 00
        E 0 99 1b 7f
        E 30 99 1b 00
        E 0 99 3b 7f
        E 0 99 2a 7f
        E 0 99 28 7f
        E 0 99 1b 7f
        E 30 99 1b 00
        E 0 99 3b 00
        E 0 99 2a 00
        E 0 99 28 00
        E 0 99 3b 7f
        E 0 99 28 7f
        E 0 99 2a 7f
        E 0 99 1b 7f
        E 30 99 1b 00
        E 0 99 3b 00
        E 0 99 28 00
        E 0 99 2a 00
        E 0 99 2a 7f
        E 0 99 3b 7f
        E 0 99 28 7f
        E 0 99 1b 7f
        E 30 99 1b 00
        E 0 99 2a 00
        E 0 99 3b 00
        E 0 99 28 00
        E 0 99 2a 7f
        E 0 99 1b 7f
        E 0 99 3b 7f
        E 0 99 28 7f
        E 30 99 28 00
        E 0 99 2a 00
        E 0 99 1b 00
        E 0 99 3b 00
        E 0 99 2a 7f
        E 0 99 3b 7f
        E 0 99 28 7f
        E 0 99 1b 7f
        E 30 99 1b 00
        E 0 99 2a 00
        E 0 99 3b 00
        E 0 99 28 00
        E 0 99 3b 7f
        E 0 99 28 7f
        E 0 99 2a 7f
        E 0 99 1b 7f
        E 30 99 1b 00
        E 0 99 3b 00
        E 0 99 28 00
        E 0 99 2a 00
        E 0 99 2a 7f
        E 0 99 3b 7f
        E 0 99 28 7f
        E 0 99 1b 7f
        E 30 99 1b 00
        E 0 99 2a 00
        E 0 99 3b 00
        E 0 99 28 00
        E 0 99 2a 7f
        E 0 99 1b 7f
        E 0 99 3b 7f
        E 0 99 28 7f
        E 30 99 28 00
        E 0 99 2a 00
        E 0 99 1b 00
        E 0 99 3b 00
        E 0 99 2e 7f
        E 0 99 2a 7f
        E 0 99 26 7f
        E 0 99 33 7f
        E 0 99 26 7f
        E 30 99 26 00
        E 0 99 33 00
        E 30 99 2a 00
        E 0 99 2e 00
        E 0 99 2e 4f
        E 0 99 2a 4f
        E 0 99 26 4f
        E 0 99 33 4f
        E 30 99 33 00
        E 0 99 26 00
        E 0 99 33 39
        E 30 99 33 00
        E 0 99 2a 00
        E 0 99 2e 00
        E 0 99 26 71
        E 0 99 2a 71
        E 0 99 2e 71
        E 0 99 26 71
        E 0 99 33 71
        E 30 99 26 00
        E 30 99 2a 00
        E 0 99 2e 00
        E 0 99 33 00
        E 0 99 2a 45
        E 0 99 2e 45
        E 0 99 26 45
        E 30 99 26 00
        E 0 99 33 67
        E 30 99 33 00
        E 0 99 2e 00
        E 0 99 2a 00
        E 0 99 33 71
        E 0 99 2e 71
        E 0 99 2a 71
        E 0 99 26 71
        E 30 99 26 00
        E 0 99 33 00
        E 0 99 26 00
        E 0 99 33 36
        E 30 99 33 00
        E 0 99 2a 00
        E 0 99 2e 00
        E 0 99 2e 47
        E 0 99 2a 47
        E 0 99 26 47
        E 0 99 33 47
        E 0 99 26 47
        E 30 99 26 00
        E 30 99 2e 00
        E 0 99 2a 00
        E 0 99 33 00
        E 0 99 2a 6a
        E 0 99 2e 6a
        E 0 99 26 6a
        E 0 99 33 6a
        E 0 99 26 6a
        E 30 99 26 00
        E 0 99 33 00
        E 0 99 33 38
        E 30 99 33 00
        E 0 99 2e 00
        E 0 99 2a 00
        E 0 99 2e 48
        E 0 99 26 48
        E 0 99 2a 48
        E 0 99 26 48
        E 0 99 2a 48
        E 30 99 26 00
        E 30 99 2e 00
        E 0 99 2a 00
        E 0 99 2e 7c
        E 0 99 2a 7c
        E 0 99 33 7c
        E 0 99 3b 64
        E 0 99 23 64
        E 30 99 33 00
        E 0 99 2e 00
        E 0 99 2a 00
        E 30 99 23 00
        E 0 99 2e 41
        E 0 99 2a 41
        E 0 99 33 41
        E 0 99 23 64
        E 30 99 33 00
        E 0 99 2a 00
        E 0 99 2e 00
        E 0 99 33 40
        E 30 99 33 00
        E 0 99 3b 00
        E 0 99 23 00
        E 0 99 28 73
        E 0 99 2e 73
        E 0 99 26 73
        E 0 99 2a 73
        E 0 99 33 73
        E 0 99 28 64
        E 0 99 26 64
        E 0 99 31 64
        E 0 99 3b 64
        E 30 99 2a 00
        E 0 99 2e 00
        E 30 99 31 00
        E 0 99 28 00
        E 0 99 26 00
        E 0 99 33 00
        E 0 99 28 00
        E 0 99 26 00
        E 0 99 2e 4d
        E 0 99 2a 4d
        E 0 99 23 64
        E 30 99 2a 00
        E 0 99 2e 00
        E 0 99 2e 64
        E 0 99 2a 64
        E 0 99 33 64
        E 0 99 26 64
        E 30 99 33 00
        E 0 99 2a 00
        E 0 99 2e 00
        E 0 99 23 00
        E 0 99 3b 00
        E 0 99 2e 68
        E 0 99 2a 68
        E 0 99 33 68
        E 0 99 23 64
        E 0 99 3b 64
        E 30 99 33 00
        E 0 99 2a 00
        E 0 99 26 00
        E 0 99 2e 00
        E 0 99 33 35
        E 0 99 26 64
        E 30 99 33 00
        E 0 99 23 00
        E 0 99 2e 4c
        E 0 99 2a 4c
        E 0 99 33 4c
        E 0 99 23 64
        E 30 99 2a 00
        E 0 99 2e 00
        E 0 99 26 00
        E 30 99 3b 00
        E 0 99 33 00
        E 0 99 23 00
        E 0 99 28 7d
        E 0 99 2e 7d
        E 0 99 26 7d
        E 0 99 2a 7d
        E 0 99 33 7d
        E 0 99 26 64
        E 0 99 28 64
        E 0 99 31 64
        E 0 99 3b 64
        E 30 99 33 00
        E 0 99 2a 00
        E 0 99 2e 00
        E 0 99 33 32
        E 30 99 33 00
        E 0 99 28 00
        E 0 99 26 00
        E 0 99 28 00
        E 0 99 31 00
        E 0 99 26 00
        E 0 99 2e 44
        E 0 99 2a 44
        E 0 99 23 64
        E 30 99 23 00
        E 0 99 2a 00
        E 0 99 2e 00
        E 0 99 26 64
        E 30 99 3b 00
        E 0 99 2a 00
        E 0 99 2e 7f
        E 0 99 2a 7f
        E 0 99 33 7f
        E 0 99 3b 64
        E 0 99 23 64
        E 3 99 26 00
        E 27 99 33 00
        E 0 99 2e 00
        E 0 99 2a 00
        E 30 99 23 00
        E 0 99 2e 4f
        E 0 99 2a 4f
        E 0 99 33 4f
        E 0 99 23 64
        E 30 99 33 00
        E 0 99 2a 00
        E 0 99 2e 00
        E 0 99 33 39
        E 30 99 33 00
        E 0 99 3b 00
        E 0 99 23 00
        E 0 99 28 71
        E 0 99 2e 71
        E 0 99 26 71
        E 0 99 2a 71
        E 0 99 33 71
        E 0 99 28 64
        E 0 99 26 64
        E 0 99 31 64
        E 0 99 3b 64
        E 30 99 2a 00
        E 0 99 2e 00
        E 30 99 31 00
        E 0 99 28 00
        E 0 99 26 00
        E 0 99 33 00
        E 0 99 28 00
        E 0 99 26 00
        E 0 99 2e 45
        E 0 99 2a 45
        E 0 99 23 64
        E 30 99 2a 00
        E 0 99 2e 00
        E 0 99 2e 67
        E 0 99 2a 67
        E 0 99 33 67
        E 0 99 26 64
        E 30 99 33 00
        E 0 99 2a 00
        E 0 99 2e 00
        E 0 99 23 00
        E 0 99 3b 00
        E 0 99 2e 71
        E 0 99 2a 71
        E 0 99 33 71
        E 0 99 23 64
        E 0 99 3b 64
        E 30 99 33 00
        E 0 99 2a 00
        E 0 99 26 00
        E 0 99 2e 00
        E 0 99 33 36
        E 0 99 26 64
        E 30 99 33 00
        E 0 99 23 00
        E 0 99 2e 47
        E 0 99 2a 47
        E 0 99 33 47
        E 0 99 23 64
        E 30 99 2a 00
        E 0 99 2e 00
        E 0 99 26 00
        E 30 99 3b 00
        E 0 99 33 00
        E 0 99 23 00
        E 0 99 28 6a
        E 0 99 2e 6a
        E 0 99 26 6a
        E 0 99 2a 6a
        E 0 99 33 6a
        E 0 99 26 64
        E 0 99 28 64
        E 0 99 31 64
        E 0 99 3b 64
        E 30 99 33 00
        E 0 99 2a 00
        E 0 99 2e 00
        E 0 99 33 38
        E 30 99 33 00
        E 0 99 28 00
        E 0 99 26 00
        E 0 99 28 00
        E 0 99 31 00
        E 0 99 26 00
        E 0 99 2e 48
        E 0 99 2a 48
        E 0 99 23 64
        E 30 99 23 00
        E 0 99 2a 00
        E 0 99 2e 00
        E 0 99 26 64
        E 30 99 3b 00
        E 0 99 2a 00
        E 0 99 2e 7c
        E 0 99 2a 7c
        E 0 99 33 7c
        E 0 99 3b 64
        E 0 99 23 64
        E 3 99 26 00
        E 27 99 33 00
        E 0 99 2e 00
        E 0 99 2a 00
        E 30 99 23 00
        E 0 99 2e 41
        E 0 99 2a 41
        E 0 99 33 41
        E 0 99 23 64
        E 30 99 33 00
        E 0 99 2a 00
        E 0 99 2e 00
        E 0 99 33 40
        E 30 99 33 00
        E 0 99 3b 00
        E 0 99 23 00
        E 0 99 28 73
        E 0 99 2e 73
        E 0 99 26 73
        E 0 99 2a 73
        E 0 99 33 73
        E 0 99 28 64
        E 0 99 26 64
        E 0 99 31 64
        E 0 99 3b 64
        E 30 99 2a 00
        E 0 99 2e 00
        E 30 99 31 00
        E 0 99 28 00
        E 0 99 26 00
        E 0 99 33 00
        E 0 99 28 00
        E 0 99 26 00
        E 0 99 2e 4d
        E 0 99 2a 4d
        E 0 99 23 64
        E 30 99 2a 00
        E 0 99 2e 00
        E 0 99 2e 64
        E 0 99 2a 64
        E 0 99 33 64
        E 0 99 26 64
        E 30 99 33 00
        E 0 99 2a 00
        E 0 99 2e 00
        E 0 99 23 00
        E 0 99 3b 00
        E 0 99 2e 68
        E 0 99 2a 68
        E 0 99 33 68
        E 0 99 23 64
        E 0 99 3b 64
        E 30 99 33 00
        E 0 99 2a 00
        E 0 99 26 00
        E 0 99 2e 00
        E 0 99 33 35
        E 0 99 26 64
        E 30 99 33 00
        E 0 99 23 00
        E 0 99 2e 4c
        E 0 99 2a 4c
        E 0 99 33 4c
        E 0 99 23 64
        E 30 99 2a 00
        E 0 99 2e 00
        E 0 99 26 00
        E 30 99 3b 00
        E 0 99 33 00
        E 0 99 23 00
        E 0 99 28 7d
        E 0 99 2e 7d
        E 0 99 26 7d
        E 0 99 2a 7d
        E 0 99 33 7d
        E 0 99 26 64
        E 0 99 28 64
        E 0 99 31 64
        E 0 99 3b 64
        E 30 99 33 00
        E 0 99 2a 00
        E 0 99 2e 00
        E 0 99 33 32
        E 30 99 33 00
        E 0 99 28 00
        E 0 99 26 00
        E 0 99 28 00
        E 0 99 31 00
        E 0 99 26 00
        E 0 99 2e 44
        E 0 99 2a 44
        E 0 99 23 64
        E 30 99 23 00
        E 0 99 2a 00
        E 0 99 2e 00
        E 0 99 26 64
        E 30 99 3b 00
        E 0 99 2a 00
        E 0 99 2e 7f
        E 0 99 2a 7f
        E 0 99 33 7f
        E 0 99 3b 64
        E 0 99 23 64
        E 3 99 26 00
        E 27 99 33 00
        E 0 99 2e 00
        E 0 99 2a 00
        E 30 99 23 00
        E 0 99 2e 4f
        E 0 99 2a 4f
        E 0 99 33 4f
        E 0 99 23 64
        E 30 99 33 00
        E 0 99 2a 00
        E 0 99 2e 00
        E 0 99 33 39
        E 30 99 33 00
        E 0 99 3b 00
        E 0 99 23 00
        E 0 99 28 71
        E 0 99 2e 71
        E 0 99 26 71
        E 0 99 2a 71
        E 0 99 33 71
        E 0 99 28 64
        E 0 99 26 64
        E 0 99 31 64
        E 0 99 3b 64
        E 30 99 2a 00
        E 0 99 2e 00
        E 30 99 31 00
        E 0 99 28 00
        E 0 99 26 00
        E 0 99 33 00
        E 0 99 28 00
        E 0 99 26 00
        E 0 99 2e 45
        E 0 99 2a 45
        E 0 99 23 64
        E 30 99 2a 00
        E 0 99 2e 00
        E 0 99 2e 67
        E 0 99 2a 67
        E 0 99 33 67
        E 0 99 26 64
        E 30 99 33 00
        E 0 99 2a 00
        E 0 99 2e 00
        E 0 99 23 00
        E 0 99 3b 00
        E 0 99 2e 71
        E 0 99 2a 71
        E 0 99 33 71
        E 0 99 23 64
        E 0 99 3b 64
        E 30 99 33 00
        E 0 99 2a 00
        E 0 99 26 00
        E 0 99 2e 00
        E 0 99 33 36
        E 0 99 26 64
        E 30 99 33 00
        E 0 99 23 00
        E 0 99 2e 47
        E 0 99 2a 47
        E 0 99 33 47
        E 0 99 23 64
        E 30 99 2a 00
        E 0 99 2e 00
        E 0 99 26 00
        E 30 99 3b 00
        E 0 99 33 00
        E 0 99 23 00
        E 0 99 28 6a
        E 0 99 2e 6a
        E 0 99 26 6a
        E 0 99 2a 6a
        E 0 99 33 6a
        E 30 99 33 00
        E 0 99 2e 00
        E 0 99 2a 00
        E 0 99 33 38
        E 30 99 33 00
        E 0 99 26 00
        E 0 99 28 00
        E 0 99 2e 48
        E 0 99 2a 48
        E 30 99 2a 00
        E 0 99 2e 00
        E 30 99 2a 00
        E 0 99 2e 7c
        E 0 99 2a 7c
        E 0 99 33 7c
        E 0 99 3b 64
        E 0 99 23 64
        E 30 99 33 00
        E 0 99 2e 00
        E 0 99 2a 00
        E 30 99 23 00
        E 0 99 2e 41
        E 0 99 2a 41
        E 0 99 33 41
        E 0 99 23 64
        E 30 99 33 00
        E 0 99 2a 00
        E 0 99 2e 00
        E 0 99 33 40
        E 30 99 33 00
        E 0 99 3b 00
        E 0 99 23 00
        E 0 99 28 73
        E 0 99 2e 73
        E 0 99 26 73
        E 0 99 2a 73
        E 0 99 33 73
        E 0 99 28 64
        E 0 99 26 64
        E 0 99 31 64
        E 0 99 3b 64
        E 30 99 2a 00
        E 0 99 2e 00
        E 30 99 31 00
        E 0 99 28 00
        E 0 99 26 00
        E 0 99 33 00
        E 0 99 28 00
        E 0 99 26 00
        E 0 99 2e 4d
        E 0 99 2a 4d
        E 0 99 23 64
        E 30 99 2a 00
        E 0 99 2e 00
        E 0 99 2e 64
        E 0 99 2a 64
        E 0 99 33 64
        E 0 99 26 64
        E 30 99 33 00
        E 0 99 2a 00
        E 0 99 2e 00
        E 0 99 23 00
        E 0 99 3b 00
        E 0 99 2e 68
        E 0 99 2a 68
        E 0 99 33 68
        E 0 99 23 64
        E 0 99 3b 64
        E 30 99 33 00
        E 0 99 2a 00
        E 0 99 26 00
        E 0 99 2e 00
        E 0 99 33 35
        E 0 99 26 64
        E 30 99 33 00
        E 0 99 23 00
        E 0 99 2e 4c
        E 0 99 2a 4c
        E 0 99 33 4c
        E 0 99 23 64
        E 30 99 2a 00
        E 0 99 2e 00
        E 0 99 26 00
        E 30 99 3b 00
        E 0 99 33 00
        E 0 99 23 00
        E 0 99 28 7d
        E 0 99 2e 7d
        E 0 99 26 7d
        E 0 99 2a 7d
        E 0 99 33 7d
        E 0 99 26 64
        E 0 99 28 64
        E 0 99 31 64
        E 0 99 3b 64
        E 30 99 33 00
        E 0 99 2a 00
        E 0 99 2e 00
        E 0 99 33 32
        E 30 99 33 00
        E 0 99 28 00
        E 0 99 26 00
        E 0 99 28 00
        E 0 99 31 00
        E 0 99 26 00
        E 0 99 2e 44
        E 0 99 2a 44
        E 0 99 23 64
        E 30 99 23 00
        E 0 99 2a 00
        E 0 99 2e 00
        E 0 99 26 64
        E 30 99 3b 00
        E 0 99 2a 00
        E 0 99 2e 7f
        E 0 99 2a 7f
        E 0 99 33 7f
        E 0 99 3b 64
        E 0 99 23 64
        E 3 99 26 00
        E 27 99 33 00
        E 0 99 2e 00
        E 0 99 2a 00
        E 30 99 23 00
        E 0 99 2e 4f
        E 0 99 2a 4f
        E 0 99 33 4f
        E 0 99 23 64
        E 30 99 33 00
        E 0 99 2a 00
        E 0 99 2e 00
        E 0 99 33 39
        E 30 99 33 00
        E 0 99 3b 00
        E 0 99 23 00
        E 0 99 28 71
        E 0 99 2e 71
        E 0 99 26 71
        E 0 99 2a 71
        E 0 99 33 71
        E 0 99 28 64
        E 0 99 26 64
        E 0 99 31 64
        E 0 99 3b 64
        E 30 99 2a 00
        E 0 99 2e 00
        E 30 99 31 00
        E 0 99 28 00
        E 0 99 26 00
        E 0 99 33 00
        E 0 99 28 00
        E 0 99 26 00
        E 0 99 2e 45
        E 0 99 2a 45
        E 0 99 23 64
        E 30 99 2a 00
        E 0 99 2e 00
        E 0 99 2e 67
        E 0 99 2a 67
        E 0 99 33 67
        E 0 99 26 64
        E 30 99 33 00
        E 0 99 2a 00
        E 0 99 2e 00
        E 0 99 23 00
        E 0 99 3b 00
        E 0 99 2e 71
        E 0 99 2a 71
        E 0 99 33 71
        E 0 99 23 64
        E 0 99 3b 64
        E 30 99 33 00
        E 0 99 2a 00
        E 0 99 26 00
        E 0 99 2e 00
        E 0 99 33 36
        E 0 99 26 64
        E 30 99 33 00
        E 0 99 23 00
        E 0 99 2e 47
        E 0 99 2a 47
        E 0 99 33 47
        E 0 99 23 64
        E 30 99 2a 00
        E 0 99 2e 00
        E 0 99 26 00
        E 30 99 3b 00
        E 0 99 33 00
        E 0 99 23 00
        E 0 99 28 6a
        E 0 99 2e 6a
        E 0 99 26 6a
        E 0 99 2a 6a
        E 0 99 33 6a
        E 0 99 26 64
        E 0 99 28 64
        E 0 99 31 64
        E 0 99 3b 64
        E 30 99 33 00
        E 0 99 2a 00
        E 0 99 2e 00
        E 0 99 33 38
        E 30 99 33 00
        E 0 99 28 00
        E 0 99 26 00
        E 0 99 28 00
        E 0 99 31 00
        E 0 99 26 00
        E 0 99 2e 48
        E 0 99 2a 48
        E 0 99 23 64
        E 30 99 23 00
        E 0 99 2a 00
        E 0 99 2e 00
        E 0 99 26 64
        E 30 99 3b 00
        E 0 99 2a 00
        E 0 99 2e 7c
        E 0 99 2a 7c
        E 0 99 33 7c
        E 0 99 3b 64
        E 0 99 23 64
        E 3 99 26 00
        E 27 99 33 00
        E 0 99 2e 00
        E 0 99 2a 00
        E 30 99 23 00
        E 0 99 2e 41
        E 0 99 2a 41
        E 0 99 33 41
        E 0 99 23 64
        E 30 99 33 00
        E 0 99 2a 00
        E 0 99 2e 00
        E 0 99 33 40
        E 30 99 33 00
        E 0 99 3b 00
        E 0 99 23 00
        E 0 99 28 73
        E 0 99 2e 73
        E 0 99 26 73
        E 0 99 2a 73
        E 0 99 33 73
        E 0 99 28 64
        E 0 99 26 64
        E 0 99 31 64
        E 0 99 3b 64
        E 30 99 2a 00
        E 0 99 2e 00
        E 30 99 31 00
        E 0 99 28 00
        E 0 99 26 00
        E 0 99 33 00
        E 0 99 28 00
        E 0 99 26 00
        E 0 99 2e 4d
        E 0 99 2a 4d
        E 0 99 23 64
        E 30 99 2a 00
        E 0 99 2e 00
        E 0 99 2e 64
        E 0 99 2a 64
        E 0 99 33 64
        E 0 99 26 64
        E 30 99 33 00
        E 0 99 2a 00
        E 0 99 2e 00
        E 0 99 23 00
        E 0 99 3b 00
        E 0 99 2e 68
        E 0 99 2a 68
        E 0 99 33 68
        E 0 99 23 64
        E 0 99 3b 64
        E 30 99 33 00
        E 0 99 2a 00
        E 0 99 26 00
        E 0 99 2e 00
        E 0 99 33 35
        E 0 99 26 64
        E 30 99 33 00
        E 0 99 23 00
        E 0 99 2e 4c
        E 0 99 2a 4c
        E 0 99 33 4c
        E 0 99 23 64
        E 30 99 2a 00
        E 0 99 2e 00
        E 0 99 26 00
        E 30 99 3b 00
        E 0 99 33 00
        E 0 99 23 00
        E 0 99 28 7d
        E 0 99 2e 7d
        E 0 99 26 7d
        E 0 99 2a 7d
        E 0 99 33 7d
        E 0 99 26 64
        E 0 99 28 64
        E 0 99 31 64
        E 0 99 3b 64
        E 30 99 33 00
        E 0 99 2a 00
        E 0 99 2e 00
        E 0 99 33 32
        E 30 99 33 00
        E 0 99 28 00
        E 0 99 26 00
        E 0 99 28 00
        E 0 99 31 00
        E 0 99 26 00
        E 0 99 2e 44
        E 0 99 2a 44
        E 0 99 23 64
        E 30 99 23 00
        E 0 99 2a 00
        E 0 99 2e 00
        E 0 99 26 64
        E 30 99 3b 00
        E 0 99 2a 00
        E 0 99 2e 7f
        E 0 99 2a 7f
        E 0 99 33 7f
        E 0 99 3b 64
        E 0 99 23 64
        E 3 99 26 00
        E 27 99 33 00
        E 0 99 2e 00
        E 0 99 2a 00
        E 30 99 23 00
        E 0 99 2e 4f
        E 0 99 2a 4f
        E 0 99 33 4f
        E 0 99 23 64
        E 30 99 33 00
        E 0 99 2a 00
        E 0 99 2e 00
        E 0 99 33 39
        E 30 99 33 00
        E 0 99 3b 00
        E 0 99 23 00
        E 0 99 28 71
        E 0 99 2e 71
        E 0 99 26 71
        E 0 99 2a 71
        E 0 99 33 71
        E 0 99 28 64
        E 0 99 26 64
        E 0 99 31 64
        E 0 99 3b 64
        E 30 99 2a 00
        E 0 99 2e 00
        E 30 99 31 00
        E 0 99 28 00
        E 0 99 26 00
        E 0 99 33 00
        E 0 99 28 00
        E 0 99 26 00
        E 0 99 2e 45
        E 0 99 2a 45
        E 0 99 23 64
        E 30 99 2a 00
        E 0 99 2e 00
        E 0 99 2e 67
        E 0 99 2a 67
        E 0 99 33 67
        E 0 99 26 64
        E 30 99 33 00
        E 0 99 2a 00
        E 0 99 2e 00
        E 0 99 23 00
        E 0 99 3b 00
        E 0 99 2e 71
        E 0 99 2a 71
        E 0 99 33 71
        E 0 99 23 64
        E 0 99 3b 64
        E 30 99 33 00
        E 0 99 2a 00
        E 0 99 26 00
        E 0 99 2e 00
        E 0 99 33 36
        E 0 99 26 64
        E 30 99 33 00
        E 0 99 23 00
        E 0 99 2e 47
        E 0 99 2a 47
        E 0 99 33 47
        E 0 99 23 64
        E 30 99 2a 00
        E 0 99 2e 00
        E 0 99 26 00
        E 30 99 3b 00
        E 0 99 33 00
        E 0 99 23 00
        E 0 99 28 6a
        E 0 99 2e 6a
        E 0 99 26 6a
        E 0 99 2a 6a
        E 0 99 33 6a
        E 30 99 33 00
        E 0 99 2e 00
        E 0 99 2a 00
        E 0 99 33 38
        E 30 99 33 00
        E 0 99 26 00
        E 0 99 28 00
        E 0 99 2e 48
        E 0 99 2a 48
        E 30 99 2a 00
        E 0 99 2e 00
        E 30 99 2a 00
        E 0 99 2e 7c
        E 0 99 2a 7c
        E 0 99 33 7c
        E 0 99 3b 64
        E 0 99 23 64
        E 30 99 33 00
        E 0 99 2e 00
        E 0 99 2a 00
        E 30 99 23 00
        E 0 99 2e 41
        E 0 99 2a 41
        E 0 99 33 41
        E 0 99 23 64
        E 30 99 33 00
        E 0 99 2a 00
        E 0 99 2e 00
        E 0 99 33 40
        E 30 99 33 00
        E 0 99 3b 00
        E 0 99 23 00
        E 0 99 28 73
        E 0 99 2e 73
        E 0 99 26 73
        E 0 99 2a 73
        E 0 99 33 73
        E 0 99 28 64
        E 0 99 26 64
        E 0 99 31 64
        E 0 99 3b 64
        E 30 99 2a 00
        E 0 99 2e 00
        E 30 99 31 00
        E 0 99 28 00
        E 0 99 26 00
        E 0 99 33 00
        E 0 99 28 00
        E 0 99 26 00
        E 0 99 2e 4d
        E 0 99 2a 4d
        E 0 99 23 64
        E 30 99 2a 00
        E 0 99 2e 00
        E 0 99 2e 64
        E 0 99 2a 64
        E 0 99 33 64
        E 0 99 26 64
        E 30 99 33 00
        E 0 99 2a 00
        E 0 99 2e 00
        E 0 99 23 00
        E 0 99 3b 00
        E 0 99 2e 68
        E 0 99 2a 68
        E 0 99 33 68
        E 0 99 23 64
        E 0 99 3b 64
        E 30 99 33 00
        E 0 99 2a 00
        E 0 99 26 00
        E 0 99 2e 00
        E 0 99 33 35
        E 0 99 26 64
        E 30 99 33 00
        E 0 99 23 00
        E 0 99 2e 4c
        E 0 99 2a 4c
        E 0 99 33 4c
        E 0 99 23 64
        E 30 99 2a 00
        E 0 99 2e 00
        E 0 99 26 00
        E 30 99 3b 00
        E 0 99 33 00
        E 0 99 23 00
        E 0 99 28 7d
        E 0 99 2e 7d
        E 0 99 26 7d
        E 0 99 2a 7d
        E 0 99 33 7d
        E 0 99 26 64
        E 0 99 28 64
        E 0 99 31 64
        E 0 99 3b 64
        E 30 99 33 00
        E 0 99 2a 00
        E 0 99 2e 00
        E 0 99 33 32
        E 30 99 33 00
        E 0 99 28 00
        E 0 99 26 00
        E 0 99 28 00
        E 0 99 31 00
        E 0 99 26 00
        E 0 99 2e 44
        E 0 99 2a 44
        E 0 99 23 64
        E 30 99 23 00
        E 0 99 2a 00
        E 0 99 2e 00
        E 0 99 26 64
        E 30 99 3b 00
        E 0 99 2a 00
        E 0 99 2e 7f
        E 0 99 2a 7f
        E 0 99 33 7f
        E 0 99 3b 64
        E 0 99 23 64
        E 3 99 26 00
        E 27 99 33 00
        E 0 99 2e 00
        E 0 99 2a 00
        E 30 99 23 00
        E 0 99 2e 4f
        E 0 99 2a 4f
        E 0 99 33 4f
        E 0 99 23 64
        E 30 99 33 00
        E 0 99 2a 00
        E 0 99 2e 00
        E 0 99 33 39
        E 30 99 33 00
        E 0 99 3b 00
        E 0 99 23 00
        E 0 99 28 71
        E 0 99 2e 71
        E 0 99 26 71
        E 0 99 2a 71
        E 0 99 33 71
        E 0 99 28 64
        E 0 99 26 64
        E 0 99 31 64
        E 0 99 3b 64
        E 30 99 2a 00
        E 0 99 2e 00
        E 30 99 31 00
        E 0 99 28 00
        E 0 99 26 00
        E 0 99 33 00
        E 0 99 28 00
        E 0 99 26 00
        E 0 99 2e 45
        E 0 99 2a 45
        E 0 99 23 64
        E 30 99 2a 00
        E 0 99 2e 00
        E 0 99 2e 67
        E 0 99 2a 67
        E 0 99 33 67
        E 0 99 26 64
        E 30 99 33 00
        E 0 99 2a 00
        E 0 99 2e 00
        E 0 99 23 00
        E 0 99 3b 00
        E 0 99 2e 71
        E 0 99 2a 71
        E 0 99 33 71
        E 0 99 23 64
        E 0 99 3b 64
        E 30 99 33 00
        E 0 99 2a 00
        E 0 99 26 00
        E 0 99 2e 00
        E 0 99 33 36
        E 0 99 26 64
        E 30 99 33 00
        E 0 99 23 00
        E 0 99 2e 47
        E 0 99 2a 47
        E 0 99 33 47
        E 0 99 23 64
        E 30 99 2a 00
        E 0 99 2e 00
        E 0 99 26 00
        E 30 99 3b 00
        E 0 99 33 00
        E 0 99 23 00
        E 0 99 28 6a
        E 0 99 2e 6a
        E 0 99 26 6a
        E 0 99 2a 6a
        E 0 99 33 6a
        E 0 99 26 64
        E 0 99 28 64
        E 0 99 31 64
        E 0 99 3b 64
        E 30 99 33 00
        E 0 99 2a 00
        E 0 99 2e 00
        E 0 99 33 38
        E 30 99 33 00
        E 0 99 28 00
        E 0 99 26 00
        E 0 99 28 00
        E 0 99 31 00
        E 0 99 26 00
        E 0 99 2e 48
        E 0 99 2a 48
        E 0 99 23 64
        E 30 99 23 00
        E 0 99 2a 00
        E 0 99 2e 00
        E 0 99 26 64
        E 30 99 3b 00
        E 0 99 2a 00
        E 0 99 2e 7c
        E 0 99 2a 7c
        E 0 99 33 7c
        E 0 99 3b 64
        E 0 99 23 64
        E 3 99 26 00
        E 27 99 33 00
        E 0 99 2e 00
        E 0 99 2a 00
        E 30 99 23 00
        E 0 99 2e 41
        E 0 99 2a 41
        E 0 99 33 41
        E 0 99 23 64
        E 30 99 33 00
        E 0 99 2a 00
        E 0 99 2e 00
        E 0 99 33 40
        E 30 99 33 00
        E 0 99 3b 00
        E 0 99 23 00
        E 0 99 28 73
        E 0 99 2e 73
        E 0 99 26 73
        E 0 99 2a 73
        E 0 99 33 73
        E 0 99 28 64
        E 0 99 26 64
        E 0 99 31 64
        E 0 99 3b 64
        E 30 99 2a 00
        E 0 99 2e 00
        E 30 99 31 00
        E 0 99 28 00
        E 0 99 26 00
        E 0 99 33 00
        E 0 99 28 00
        E 0 99 26 00
        E 0 99 2e 4d
        E 0 99 2a 4d
        E 0 99 23 64
        E 30 99 2a 00
        E 0 99 2e 00
        E 0 99 2e 64
        E 0 99 2a 64
        E 0 99 33 64
        E 0 99 26 64
        E 30 99 33 00
        E 0 99 2a 00
        E 0 99 2e 00
        E 0 99 23 00
        E 0 99 3b 00
        E 0 99 2e 68
        E 0 99 2a 68
        E 0 99 33 68
        E 0 99 23 64
        E 0 99 3b 64
        E 30 99 33 00
        E 0 99 2a 00
        E 0 99 26 00
        E 0 99 2e 00
        E 0 99 33 35
        E 0 99 26 64
        E 30 99 33 00
        E 0 99 23 00
        E 0 99 2e 4c
        E 0 99 2a 4c
        E 0 99 33 4c
        E 0 99 23 64
        E 30 99 2a 00
        E 0 99 2e 00
        E 0 99 26 00
        E 30 99 3b 00
        E 0 99 33 00
        E 0 99 23 00
        E 0 99 28 7d
        E 0 99 2e 7d
        E 0 99 26 7d
        E 0 99 2a 7d
        E 0 99 33 7d
        E 0 99 26 64
        E 0 99 28 64
        E 0 99 31 64
        E 0 99 3b 64
        E 30 99 33 00
        E 0 99 2a 00
        E 0 99 2e 00
        E 0 99 33 32
        E 30 99 33 00
        E 0 99 28 00
        E 0 99 26 00
        E 0 99 28 00
        E 0 99 31 00
        E 0 99 26 00
        E 0 99 2e 44
        E 0 99 2a 44
        E 0 99 23 64
        E 30 99 23 00
        E 0 99 2a 00
        E 0 99 2e 00
        E 0 99 26 64
        E 30 99 3b 00
        E 0 99 2a 00
        E 0 99 2e 7f
        E 0 99 2a 7f
        E 0 99 33 7f
        E 0 99 3b 64
        E 0 99 23 64
        E 3 99 26 00
        E 27 99 33 00
        E 0 99 2e 00
        E 0 99 2a 00
        E 30 99 23 00
        E 0 99 2e 4f
        E 0 99 2a 4f
        E 0 99 33 4f
        E 0 99 23 64
        E 30 99 33 00
        E 0 99 2a 00
        E 0 99 2e 00
        E 0 99 33 39
        E 30 99 33 00
        E 0 99 3b 00
        E 0 99 23 00
        E 0 99 28 71
        E 0 99 2e 71
        E 0 99 26 71
        E 0 99 2a 71
        E 0 99 33 71
        E 0 99 28 64
        E 0 99 26 64
        E 0 99 31 64
        E 0 99 3b 64
        E 30 99 2a 00
        E 0 99 2e 00
        E 30 99 31 00
        E 0 99 28 00
        E 0 99 26 00
        E 0 99 33 00
        E 0 99 28 00
        E 0 99 26 00
        E 0 99 2e 45
        E 0 99 2a 45
        E 0 99 23 64
        E 30 99 2a 00
        E 0 99 2e 00
        E 0 99 2e 67
        E 0 99 2a 67
        E 0 99 33 67
        E 0 99 26 64
        E 30 99 33 00
        E 0 99 2a 00
        E 0 99 2e 00
        E 0 99 23 00
        E 0 99 3b 00
        E 0 99 2e 71
        E 0 99 2a 71
        E 0 99 33 71
        E 0 99 23 64
        E 0 99 3b 64
        E 30 99 33 00
        E 0 99 2a 00
        E 0 99 26 00
        E 0 99 2e 00
        E 0 99 33 36
        E 0 99 26 64
        E 30 99 33 00
        E 0 99 23 00
        E 0 99 2e 47
        E 0 99 2a 47
        E 0 99 33 47
        E 0 99 23 64
        E 30 99 2a 00
        E 0 99 2e 00
        E 0 99 26 00
        E 30 99 3b 00
        E 0 99 33 00
        E 0 99 23 00
        E 0 99 28 6a
        E 0 99 2e 6a
        E 0 99 26 6a
        E 0 99 2a 6a
        E 0 99 33 6a
        E 30 99 33 00
        E 0 99 2e 00
        E 0 99 2a 00
        E 0 99 33 38
        E 30 99 33 00
        E 0 99 26 00
        E 0 99 28 00
        E 0 99 2e 48
        E 0 99 2a 48
        E 30 99 2a 00
        E 0 99 2e 00
        E 30 99 2a 00
        E 0 99 2e 7c
        E 0 99 2a 7c
        E 0 99 26 7c
        E 0 99 33 7c
        E 0 99 26 7c
        E 30 99 26 00
        E 0 99 33 00
        E 30 99 2a 00
        E 0 99 2e 00
        E 0 99 2e 41
        E 0 99 2a 41
        E 0 99 26 41
        E 0 99 33 41
        E 30 99 33 00
        E 0 99 26 00
        E 0 99 33 40
        E 30 99 33 00
        E 0 99 2a 00
        E 0 99 2e 00
        E 0 99 26 73
        E 0 99 2a 73
        E 0 99 2e 73
        E 0 99 26 73
        E 0 99 33 73
        E 30 99 26 00
        E 30 99 2a 00
        E 0 99 2e 00
        E 0 99 33 00
        E 0 99 2a 4d
        E 0 99 2e 4d
        E 0 99 26 4d
        E 30 99 26 00
        E 0 99 33 64
        E 30 99 33 00
        E 0 99 2e 00
        E 0 99 2a 00
        E 0 99 33 68
        E 0 99 2e 68
        E 0 99 2a 68
        E 0 99 26 68
        E 30 99 26 00
        E 0 99 33 00
        E 0 99 26 00
        E 0 99 33 35
        E 30 99 33 00
        E 0 99 2a 00
        E 0 99 2e 00
        E 0 99 2e 4c
        E 0 99 2a 4c
        E 0 99 26 4c
        E 0 99 33 4c
        E 0 99 26 4c
        E 30 99 26 00
        E 30 99 2e 00
        E 0 99 2a 00
        E 0 99 33 00
        E 0 99 2a 7d
        E 0 99 2e 7d
        E 0 99 26 7d
        E 0 99 33 7d
        E 0 99 26 7d
        E 30 99 26 00
        E 0 99 33 00
        E 0 99 33 32
        E 30 99 33 00
        E 0 99 2e 00
        E 0 99 2a 00
        E 0 99 2e 44
        E 0 99 26 44
        E 0 99 2a 44
        E 0 99 26 44
        E 0 99 2a 44
        E 30 99 26 00
        E 30 99 2e 00
        E 0 99 2a 00
        E 0 99 1b 7f
        E 0 99 2a 7f
        E 0 99 33 7f
        E 0 99 2a 7f
        E 30 99 2a 00
        E 0 99 1b 00
        E 0 99 2a 00
        E 0 99 33 00
        E 0 99 1b 7f
        E 0 99 2a 7f
        E 30 99 2a 00
        E 0 99 1b 00
        E 0 99 1b 7f
        E 0 99 33 4f
        E 0 99 2a 4f
        E 30 99 2a 00
        E 0 99 33 00
        E 0 99 1b 00
        E 0 99 1b 7f
        E 0 99 2a 7f
        E 0 99 33 39
        E 30 99 33 00
        E 0 99 2a 00
        E 0 99 1b 00
        E 0 99 26 7f
        E 0 99 28 7f
        E 0 99 1b 7f
        E 0 99 2a 7f
        E 0 99 33 71
        E 0 99 28 71
        E 0 99 2a 71
        E 30 99 2a 00
        E 0 99 28 00
        E 0 99 1b 00
        E 0 99 26 00
        E 0 99 28 00
        E 0 99 1b 7f
        E 30 99 1b 00
        E 0 99 33 00
        E 0 99 1b 7f
        E 0 99 2a 45
        E 30 99 2a 00
        E 0 99 1b 00
        E 0 99 28 7f
        E 0 99 1b 7f
        E 0 99 33 67
        E 0 99 28 67
        E 30 99 28 00
        E 0 99 1b 00
        E 0 99 33 00
        E 0 99 1b 7f
        E 0 99 2a 7f
        E 0 99 33 71
        E 0 99 2a 71
        E 30 99 2a 00
        E 0 99 1b 00
        E 0 99 2a 00
        E 0 99 33 00
        E 0 99 1b 7f
        E 0 99 2a 7f
        E 0 99 33 36
        E 0 99 28 36
        E 30 99 28 00
        E 0 99 1b 00
        E 0 99 2a 00
        E 0 99 33 00
        E 0 99 1b 7f
        E 0 99 33 47
        E 0 99 2a 47
        E 30 99 2a 00
        E 0 99 1b 00
        E 0 99 1b 7f
        E 0 99 2a 7f
        E 30 99 2a 00
        E 0 99 1b 00
        E 0 99 33 00
        E 0 99 26 7f
        E 0 99 28 7f
        E 0 99 1b 7f
        E 0 99 33 6a
        E 0 99 28 6a
        E 0 99 2a 6a
        E 30 99 2a 00
        E 0 99 28 00
        E 0 99 1b 00
        E 0 99 26 00
        E 0 99 28 00
        E 0 99 33 00
        E 0 99 1b 7f
        E 0 99 2a 7f
        E 0 99 33 38
        E 30 99 33 00
        E 0 99 2a 00
        E 0 99 1b 00
        E 0 99 1b 7f
        E 0 99 2a 48
        E 0 99 28 48
        E 0 99 2a 48
        E 30 99 28 00
        E 0 99 1b 00
        E 0 99 2a 00
        E 0 99 1b 7f
        E 0 99 2a 7f
        E 0 99 28 4d
        E 30 99 28 00
        E 0 99 2a 00
        E 0 99 1b 00
        E 0 99 2a 00
        E 0 99 1b 7f
        E 0 99 2a 7f
        E 0 99 33 7f
        E 0 99 2a 7f
        E 30 99 2a 00
        E 0 99 1b 00
        E 0 99 2a 00
        E 0 99 33 00
        E 0 99 1b 7f
        E 0 99 2a 7f
        E 30 99 2a 00
        E 0 99 1b 00
        E 0 99 1b 7f
        E 0 99 33 4f
        E 0 99 2a 4f
        E 30 99 2a 00
        E 0 99 33 00
        E 0 99 1b 00
        E 0 99 1b 7f
        E 0 99 2a 7f
        E 0 99 26 7f
        E 0 99 28 7f
        E 0 99 2a 7f
        E 0 99 33 39
        E 30 99 33 00
        E 0 99 2a 00
        E 0 99 26 00
        E 0 99 1b 00
        E 0 99 2a 00
        E 0 99 28 00
        E 0 99 26 7f
        E 0 99 28 7f
        E 0 99 1b 7f
        E 0 99 2a 7f
        E 0 99 33 71
        E 0 99 28 71
        E 0 99 2a 71
        E 30 99 2a 00
        E 0 99 28 00
        E 0 99 1b 00
        E 0 99 26 00
        E 0 99 28 00
        E 0 99 1b 7f
        E 30 99 1b 00
        E 0 99 33 00
        E 0 99 1b 7f
        E 0 99 2a 45
        E 30 99 2a 00
        E 0 99 1b 00
        E 0 99 28 7f
        E 0 99 1b 7f
        E 0 99 33 67
        E 0 99 28 67
        E 30 99 28 00
        E 0 99 1b 00
        E 0 99 33 00
        E 0 99 1b 7f
        E 0 99 2a 7f
        E 0 99 26 7f
        E 0 99 28 7f
        E 0 99 2a 7f
        E 0 99 33 71
        E 0 99 2a 71
        E 30 99 2a 00
        E 0 99 26 00
        E 0 99 1b 00
        E 0 99 33 00
        E 0 99 28 00
        E 0 99 1b 7f
        E 0 99 2a 7f
        E 0 99 33 36
        E 0 99 28 36
        E 30 99 28 00
        E 0 99 1b 00
        E 0 99 2a 00
        E 0 99 33 00
        E 0 99 1b 7f
        E 0 99 33 47
        E 0 99 2a 47
        E 30 99 2a 00
        E 0 99 1b 00
        E 0 99 1b 7f
        E 0 99 2a 7f
        E 30 99 2a 00
        E 0 99 1b 00
        E 0 99 33 00
        E 0 99 26 7f
        E 0 99 28 7f
        E 0 99 1b 7f
        E 0 99 33 6a
        E 0 99 28 6a
        E 0 99 2a 6a
        E 30 99 2a 00
        E 0 99 28 00
        E 0 99 1b 00
        E 0 99 26 00
        E 0 99 28 00
        E 0 99 33 00
        E 0 99 1b 7f
        E 0 99 2a 7f
        E 0 99 33 38
        E 30 99 33 00
        E 0 99 2a 00
        E 0 99 1b 00
        E 0 99 1b 7f
        E 0 99 26 7f
        E 0 99 28 7f
        E 0 99 2a 48
        E 0 99 28 48
        E 0 99 2a 48
        E 30 99 28 00
        E 0 99 2a 00
        E 0 99 26 00
        E 0 99 28 00
        E 0 99 1b 00
        E 0 99 2a 00
        E 0 99 1b 7f
        E 0 99 2a 7f
        E 0 99 28 4d
        E 30 99 28 00
        E 0 99 2a 00
        E 0 99 1b 00
        E 0 99 2a 00
        E 0 99 33 7f
        E 0 99 1b 7f
        E 0 99 2a 7f
        E 30 99 2a 00
        E 0 99 1b 00
        E 0 99 33 00
        E 0 99 1b 7f
        E 0 99 2a 7f
        E 30 99 2a 00
        E 0 99 1b 00
        E 0 99 1b 7f
        E 0 99 33 4f
        E 30 99 33 00
        E 0 99 1b 00
        E 0 99 1b 7f
        E 0 99 2a 7f
        E 0 99 33 39
        E 30 99 33 00
        E 0 99 2a 00
        E 0 99 1b 00
        E 0 99 26 7f
        E 0 99 28 7f
        E 0 99 1b 7f
        E 0 99 2a 7f
        E 0 99 33 71
        E 0 99 26 71
        E 0 99 28 71
        E 30 99 28 00
        E 0 99 1b 00
        E 0 99 28 00
        E 0 99 26 00
        E 0 99 2a 00
        E 0 99 1b 7f
        E 30 99 1b 00
        E 0 99 26 00
        E 0 99 33 00
        E 0 99 28 00
        E 0 99 1b 7f
        E 0 99 2a 7f
        E 30 99 2a 00
        E 0 99 1b 00
        E 0 99 28 7f
        E 0 99 1b 7f
        E 0 99 33 67
        E 30 99 33 00
        E 0 99 1b 00
        E 0 99 28 00
        E 0 99 1b 7f
        E 0 99 2a 7f
        E 0 99 33 71
        E 30 99 33 00
        E 0 99 2a 00
        E 0 99 1b 00
        E 0 99 1b 7f
        E 0 99 2a 7f
        E 0 99 33 36
        E 30 99 33 00
        E 0 99 2a 00
        E 0 99 1b 00
        E 0 99 1b 7f
        E 0 99 33 47
        E 30 99 1b 00
        E 0 99 1b 7f
        E 0 99 2a 7f
        E 30 99 2a 00
        E 0 99 1b 00
        E 0 99 33 00
        E 0 99 26 7f
        E 0 99 28 7f
        E 0 99 1b 7f
        E 0 99 33 6a
        E 0 99 26 6a
        E 0 99 28 6a
        E 30 99 28 00
        E 0 99 1b 00
        E 0 99 28 00
        E 0 99 26 00
        E 0 99 33 00
        E 0 99 1b 7f
        E 0 99 2a 7f
        E 0 99 33 38
        E 30 99 33 00
        E 0 99 1b 00
        E 0 99 26 00
        E 0 99 28 00
        E 0 99 2a 00
        E 0 99 1b 7f
        E 0 99 2a 48
        E 30 99 1b 00
        E 0 99 1b 7f
        E 0 99 2a 7f
        E 30 99 2a 00
        E 0 99 1b 00
        E 0 99 2a 00
        E 0 99 1b 7f
        E 0 99 2a 7f
        E 0 99 33 7c
        E 30 99 33 00
        E 0 99 2a 00
        E 0 99 1b 00
        E 0 99 1b 7f
        E 0 99 2a 7f
        E 30 99 2a 00
        E 0 99 1b 00
        E 0 99 1b 7f
        E 0 99 33 41
        E 30 99 33 00
        E 0 99 1b 00
        E 0 99 1b 7f
        E 0 99 2a 7f
        E 0 99 33 40
        E 30 99 33 00
        E 0 99 2a 00
        E 0 99 1b 00
        E 0 99 26 7f
        E 0 99 28 7f
        E 0 99 1b 7f
        E 0 99 2a 7f
        E 0 99 33 73
        E 0 99 26 73
        E 0 99 28 73
        E 30 99 28 00
        E 0 99 1b 00
        E 0 99 28 00
        E 0 99 26 00
        E 0 99 2a 00
        E 0 99 1b 7f
        E 30 99 1b 00
        E 0 99 26 00
        E 0 99 33 00
        E 0 99 28 00
        E 0 99 1b 7f
        E 0 99 2a 7f
        E 30 99 2a 00
        E 0 99 1b 00
        E 0 99 28 7f
        E 0 99 1b 7f
        E 0 99 33 64
        E 30 99 33 00
        E 0 99 1b 00
        E 0 99 28 00
        E 0 99 1b 7f
        E 0 99 2a 7f
        E 0 99 33 68
        E 30 99 33 00
        E 0 99 2a 00
        E 0 99 1b 00
        E 0 99 1b 7f
        E 0 99 2a 7f
        E 0 99 33 35
        E 30 99 33 00
        E 0 99 2a 00
        E 0 99 1b 00
        E 0 99 1b 7f
        E 0 99 33 4c
        E 30 99 1b 00
        E 0 99 1b 7f
        E 0 99 2a 7f
        E 30 99 2a 00
        E 0 99 1b 00
        E 0 99 33 00
        E 0 99 33 7d
        E 0 99 26 7d
        E 0 99 28 7d
        E 0 99 26 7f
        E 0 99 28 7f
        E 0 99 1b 7f
        E 30 99 1b 00
        E 0 99 26 00
        E 0 99 28 00
        E 0 99 33 00
        E 0 99 28 00
        E 0 99 1b 7f
        E 0 99 2a 7f
        E 0 99 33 32
        E 30 99 33 00
        E 0 99 1b 00
        E 0 99 26 00
        E 0 99 28 00
        E 0 99 2a 00
        E 0 99 1b 7f
        E 0 99 2a 44
        E 0 99 28 44
        E 30 99 28 00
        E 0 99 1b 00
        E 0 99 1b 7f
        E 0 99 2a 7f
        E 30 99 2a 00
        E 0 99 1b 00
        E 0 99 2a 00
        E 0 99 33 7f
        E 0 99 1b 7f
        E 0 99 2a 7f
        E 30 99 2a 00
        E 0 99 1b 00
        E 0 99 33 00
        E 0 99 1b 7f
        E 0 99 2a 7f
        E 30 99 2a 00
        E 0 99 1b 00
        E 0 99 1b 7f
        E 0 99 33 4f
        E 30 99 33 00
        E 0 99 1b 00
        E 0 99 1b 7f
        E 0 99 2a 7f
        E 0 99 33 39
        E 30 99 33 00
        E 0 99 2a 00
        E 0 99 1b 00
        E 0 99 26 7f
        E 0 99 28 7f
        E 0 99 1b 7f
        E 0 99 2a 7f
        E 0 99 33 71
        E 0 99 26 71
        E 0 99 28 71
        E 30 99 28 00
        E 0 99 1b 00
        E 0 99 28 00
        E 0 99 26 00
        E 0 99 2a 00
        E 0 99 1b 7f
        E 30 99 1b 00
        E 0 99 26 00
        E 0 99 33 00
        E 0 99 28 00
        E 0 99 1b 7f
        E 0 99 2a 7f
        E 30 99 2a 00
        E 0 99 1b 00
        E 0 99 28 7f
        E 0 99 1b 7f
        E 0 99 33 67
        E 30 99 33 00
        E 0 99 1b 00
        E 0 99 28 00
        E 0 99 1b 7f
        E 0 99 2a 7f
        E 0 99 33 71
        E 30 99 33 00
        E 0 99 2a 00
        E 0 99 1b 00
        E 0 99 1b 7f
        E 0 99 2a 7f
        E 0 99 33 36
        E 30 99 33 00
        E 0 99 2a 00
        E 0 99 1b 00
        E 0 99 1b 7f
        E 0 99 33 47
        E 30 99 1b 00
        E 0 99 1b 7f
        E 0 99 2a 7f
        E 30 99 2a 00
        E 0 99 1b 00
        E 0 99 33 00
        E 0 99 26 7f
        E 0 99 28 7f
        E 0 99 1b 7f
        E 0 99 33 6a
        E 0 99 26 6a
        E 0 99 28 6a
        E 30 99 28 00
        E 0 99 1b 00
        E 0 99 28 00
        E 0 99 26 00
        E 0 99 33 00
        E 0 99 1b 7f
        E 0 99 2a 7f
        E 0 99 33 38
        E 30 99 33 00
        E 0 99 1b 00
        E 0 99 26 00
        E 0 99 28 00
        E 0 99 2a 00
        E 0 99 1b 7f
        E 0 99 2a 48
        E 30 99 1b 00
        E 0 99 1b 7f
        E 0 99 2a 7f
        E 30 99 2a 00
        E 0 99 1b 00
        E 0 99 2a 00
        E 0 99 1b 7f
        E 0 99 2a 7f
        E 0 99 33 7c
        E 30 99 33 00
        E 0 99 2a 00
        E 0 99 1b 00
        E 0 99 1b 7f
        E 0 99 2a 7f
        E 30 99 2a 00
        E 0 99 1b 00
        E 0 99 1b 7f
        E 0 99 33 41
        E 30 99 33 00
        E 0 99 1b 00
        E 0 99 1b 7f
        E 0 99 2a 7f
        E 0 99 33 40
        E 30 99 33 00
        E 0 99 2a 00
        E 0 99 1b 00
        E 0 99 26 7f
        E 0 99 28 7f
        E 0 99 1b 7f
        E 0 99 2a 7f
        E 0 99 33 73
        E 0 99 26 73
        E 0 99 28 73
        E 30 99 28 00
        E 0 99 1b 00
        E 0 99 28 00
        E 0 99 26 00
        E 0 99 2a 00
        E 0 99 1b 7f
        E 30 99 1b 00
        E 0 99 26 00
        E 0 99 33 00
        E 0 99 28 00
        E 0 99 1b 7f
        E 0 99 2a 7f
        E 30 99 2a 00
        E 0 99 1b 00
        E 0 99 28 7f
        E 0 99 1b 7f
        E 0 99 33 64
        E 30 99 33 00
        E 0 99 1b 00
        E 0 99 28 00
        E 0 99 1b 7f
        E 0 99 2a 7f
        E 0 99 33 68
        E 30 99 33 00
        E 0 99 2a 00
        E 0 99 1b 00
        E 0 99 1b 7f
        E 0 99 2a 7f
        E 0 99 33 35
        E 30 99 33 00
        E 0 99 2a 00
        E 0 99 1b 00
        E 0 99 1b 7f
        E 0 99 33 4c
        E 30 99 1b 00
        E 0 99 1b 7f
        E 0 99 2a 7f
        E 30 99 2a 00
        E 0 99 1b 00
        E 0 99 33 00
        E 0 99 33 7d
        E 0 99 26 7d
        E 0 99 28 7d
        E 0 99 26 7f
        E 0 99 28 7f
        E 0 99 1b 7f
        E 30 99 1b 00
        E 0 99 26 00
        E 0 99 28 00
        E 0 99 33 00
        E 0 99 28 00
        E 0 99 1b 7f
        E 0 99 2a 7f
        E 0 99 33 32
        E 30 99 33 00
        E 0 99 1b 00
        E 0 99 26 00
        E 0 99 28 00
        E 0 99 2a 00
        E 0 99 2a 44
        E 0 99 1b 7f
        E 0 99 28 44
        E 30 99 28 00
        E 0 99 1b 00
        E 0 99 1b 7f
        E 0 99 2a 7f
        E 30 99 2a 00
        E 0 99 1b 00
        E 0 99 2a 00
        E 0 99 1b 7f
        E 0 99 2a 7f
        E 0 99 33 7c
        E 30 99 33 00
        E 0 99 2a 00
        E 0 99 1b 00
        E 0 99 1b 7f
        E 0 99 2a 7f
        E 30 99 2a 00
        E 0 99 1b 00
        E 0 99 1b 7f
        E 0 99 33 41
        E 30 99 33 00
        E 0 99 1b 00
        E 0 99 1b 7f
        E 0 99 2a 7f
        E 0 99 33 40
        E 30 99 33 00
        E 0 99 2a 00
        E 0 99 1b 00
        E 0 99 26 7f
        E 0 99 28 7f
        E 0 99 1b 7f
        E 0 99 2a 7f
        E 0 99 33 73
        E 0 99 26 73
        E 0 99 28 73
        E 30 99 28 00
        E 0 99 1b 00
        E 0 99 28 00
        E 0 99 26 00
        E 0 99 2a 00
        E 0 99 1b 7f
        E 30 99 1b 00
        E 0 99 26 00
        E 0 99 33 00
        E 0 99 28 00
        E 0 99 1b 7f
        E 0 99 2a 7f
        E 30 99 2a 00
        E 0 99 1b 00
        E 0 99 28 7f
        E 0 99 1b 7f
        E 0 99 33 64
        E 30 99 33 00
        E 0 99 1b 00
        E 0 99 28 00
        E 0 99 1b 7f
        E 0 99 2a 7f
        E 0 99 33 68
        E 30 99 33 00
        E 0 99 2a 00
        E 0 99 1b 00
        E 0 99 1b 7f
        E 0 99 2a 7f
        E 0 99 33 35
        E 30 99 33 00
        E 0 99 2a 00
        E 0 99 1b 00
        E 0 99 1b 7f
        E 0 99 33 4c
        E 30 99 1b 00
        E 0 99 1b 7f
        E 0 99 2a 7f
        E 30 99 2a 00
        E 0 99 1b 00
        E 0 99 33 00
        E 0 99 33 7d
        E 0 99 26 7d
        E 0 99 28 7d
        E 0 99 26 7f
        E 0 99 28 7f
        E 0 99 1b 7f
        E 30 99 1b 00
        E 0 99 26 00
        E 0 99 28 00
        E 0 99 33 00
        E 0 99 28 00
        E 0 99 1b 7f
        E 0 99 2a 7f
        E 0 99 33 32
        E 30 99 33 00
        E 0 99 1b 00
        E 0 99 26 00
        E 0 99 28 00
        E 0 99 2a 00
        E 0 99 2a 44
        E 0 99 1b 7f
        E 0 99 28 44
        E 30 99 28 00
        E 0 99 1b 00
        E 0 99 1b 7f
        E 0 99 2a 7f
        E 30 99 2a 00
        E 0 99 1b 00
        E 0 99 2a 00
        E 0 99 1b 7f
        E 0 99 2a 7f
        E 0 99 33 7f
        E 0 99 2a 7f
        E 30 99 2a 00
        E 0 99 1b 00
        E 0 99 2a 00
        E 0 99 33 00
        E 0 99 1b 7f
        E 0 99 2a 7f
        E 30 99 2a 00
        E 0 99 1b 00
        E 0 99 1b 7f
        E 0 99 33 4f
        E 0 99 2a 4f
        E 30 99 2a 00
        E 0 99 33 00
        E 0 99 1b 00
        E 0 99 1b 7f
        E 0 99 2a 7f
        E 0 99 26 7f
        E 0 99 28 7f
        E 0 99 2a 7f
        E 0 99 33 39
        E 30 99 33 00
        E 0 99 2a 00
        E 0 99 26 00
        E 0 99 1b 00
        E 0 99 2a 00
        E 0 99 28 00
        E 0 99 26 7f
        E 0 99 28 7f
        E 0 99 1b 7f
        E 0 99 2a 7f
        E 0 99 33 71
        E 0 99 28 71
        E 0 99 2a 71
        E 30 99 2a 00
        E 0 99 28 00
        E 0 99 1b 00
        E 0 99 26 00
        E 0 99 28 00
        E 0 99 1b 7f
        E 30 99 1b 00
        E 0 99 33 00
        E 0 99 1b 7f
        E 0 99 2a 45
        E 30 99 2a 00
        E 0 99 1b 00
        E 0 99 28 7f
        E 0 99 1b 7f
        E 0 99 33 67
        E 0 99 28 67
        E 30 99 28 00
        E 0 99 1b 00
        E 0 99 33 00
        E 0 99 1b 7f
        E 0 99 2a 7f
        E 0 99 26 7f
        E 0 99 28 7f
        E 0 99 2a 7f
        E 0 99 33 71
        E 0 99 2a 71
        E 30 99 2a 00
        E 0 99 26 00
        E 0 99 1b 00
        E 0 99 33 00
        E 0 99 28 00
        E 0 99 1b 7f
        E 0 99 2a 7f
        E 0 99 33 36
        E 0 99 28 36
        E 30 99 28 00
        E 0 99 1b 00
        E 0 99 2a 00
        E 0 99 33 00
        E 0 99 1b 7f
        E 0 99 33 47
        E 0 99 2a 47
        E 30 99 2a 00
        E 0 99 1b 00
        E 0 99 1b 7f
        E 0 99 2a 7f
        E 30 99 2a 00
        E 0 99 1b 00
        E 0 99 33 00
        E 0 99 26 7f
        E 0 99 28 7f
        E 0 99 1b 7f
        E 0 99 33 6a
        E 0 99 28 6a
        E 0 99 2a 6a
        E 30 99 2a 00
        E 0 99 28 00
        E 0 99 1b 00
        E 0 99 26 00
        E 0 99 28 00
        E 0 99 33 00
        E 0 99 1b 7f
        E 0 99 2a 7f
        E 0 99 33 38
        E 30 99 33 00
        E 0 99 2a 00
        E 0 99 1b 00
        E 0 99 1b 7f
        E 0 99 26 7f
        E 0 99 28 7f
        E 0 99 2a 48
        E 0 99 28 48
        E 0 99 2a 48
        E 30 99 28 00
        E 0 99 2a 00
        E 0 99 26 00
        E 0 99 28 00
        E 0 99 1b 00
        E 0 99 2a 00
        E 0 99 1b 7f
        E 0 99 2a 7f
        E 0 99 28 4d
        E 30 99 28 00
        E 0 99 2a 00
        E 0 99 1b 00
        E 0 99 2a 00
        E 0 99 1b 7f
        E 0 99 2a 7f
        E 0 99 33 7c
        E 0 99 2a 7c
        E 30 99 2a 00
        E 0 99 1b 00
        E 0 99 2a 00
        E 0 99 33 00
        E 0 99 1b 7f
        E 0 99 2a 7f
        E 30 99 2a 00
        E 0 99 1b 00
        E 0 99 1b 7f
        E 0 99 33 41
        E 0 99 2a 41
        E 30 99 2a 00
        E 0 99 33 00
        E 0 99 1b 00
        E 0 99 1b 7f
        E 0 99 2a 7f
        E 0 99 33 40
        E 30 99 33 00
        E 0 99 2a 00
        E 0 99 1b 00
        E 0 99 26 7f
        E 0 99 28 7f
        E 0 99 1b 7f
        E 0 99 2a 7f
        E 0 99 33 73
        E 0 99 28 73
        E 0 99 2a 73
        E 30 99 2a 00
        E 0 99 28 00
        E 0 99 1b 00
        E 0 99 26 00
        E 0 99 28 00
        E 0 99 1b 7f
        E 30 99 1b 00
        E 0 99 33 00
        E 0 99 1b 7f
        E 0 99 2a 4d
        E 30 99 2a 00
        E 0 99 1b 00
        E 0 99 28 7f
        E 0 99 1b 7f
        E 0 99 33 64
        E 0 99 28 64
        E 30 99 28 00
        E 0 99 1b 00
        E 0 99 33 00
        E 0 99 1b 7f
        E 0 99 2a 7f
        E 0 99 33 68
        E 0 99 2a 68
        E 30 99 2a 00
        E 0 99 1b 00
        E 0 99 2a 00
        E 0 99 33 00
        E 0 99 1b 7f
        E 0 99 2a 7f
        E 0 99 33 35
        E 0 99 28 35
        E 30 99 28 00
        E 0 99 1b 00
        E 0 99 2a 00
        E 0 99 33 00
        E 0 99 1b 7f
        E 0 99 33 4c
        E 0 99 2a 4c
        E 30 99 2a 00
        E 0 99 1b 00
        E 0 99 1b 7f
        E 0 99 2a 7f
        E 30 99 2a 00
        E 0 99 1b 00
        E 0 99 33 00
        E 0 99 26 7f
        E 0 99 28 7f
        E 0 99 1b 7f
        E 0 99 33 7d
        E 0 99 28 7d
        E 0 99 2a 7d
        E 30 99 2a 00
        E 0 99 28 00
        E 0 99 1b 00
        E 0 99 26 00
        E 0 99 28 00
        E 0 99 33 00
        E 0 99 1b 7f
        E 0 99 2a 7f
        E 0 99 33 32
        E 30 99 33 00
        E 0 99 2a 00
        E 0 99 1b 00
        E 0 99 1b 7f
        E 0 99 2a 44
        E 0 99 28 44
        E 0 99 2a 44
        E 30 99 28 00
        E 0 99 1b 00
        E 0 99 2a 00
        E 0 99 1b 7f
        E 0 99 2a 7f
        E 0 99 28 3e
        E 30 99 28 00
        E 0 99 2a 00
        E 0 99 1b 00
        E 0 99 2a 00
        E 0 99 1b 7f
        E 0 99 2a 7f
        E 0 99 33 7f
        E 0 99 2a 7f
        E 30 99 2a 00
        E 0 99 1b 00
        E 0 99 2a 00
        E 0 99 33 00
        E 0 99 1b 7f
        E 0 99 2a 7f
        E 30 99 2a 00
        E 0 99 1b 00
        E 0 99 1b 7f
        E 0 99 33 4f
        E 0 99 2a 4f
        E 30 99 2a 00
        E 0 99 33 00
        E 0 99 1b 00
        E 0 99 1b 7f
        E 0 99 2a 7f
        E 0 99 33 39
        E 30 99 33 00
        E 0 99 2a 00
        E 0 99 1b 00
        E 0 99 26 7f
        E 0 99 28 7f
        E 0 99 1b 7f
        E 0 99 2a 7f
        E 0 99 33 71
        E 0 99 28 71
        E 0 99 2a 71
        E 30 99 2a 00
        E 0 99 28 00
        E 0 99 1b 00
        E 0 99 26 00
        E 0 99 28 00
        E 0 99 1b 7f
        E 30 99 1b 00
        E 0 99 33 00
        E 0 99 1b 7f
        E 0 99 2a 45
        E 30 99 2a 00
        E 0 99 1b 00
        E 0 99 28 7f
        E 0 99 1b 7f
        E 0 99 33 67
        E 0 99 28 67
        E 30 99 28 00
        E 0 99 1b 00
        E 0 99 33 00
        E 0 99 1b 7f
        E 0 99 2a 7f
        E 0 99 33 71
        E 0 99 2a 71
        E 30 99 2a 00
        E 0 99 1b 00
        E 0 99 2a 00
        E 0 99 33 00
        E 0 99 1b 7f
        E 0 99 2a 7f
        E 0 99 33 36
        E 0 99 28 36
        E 30 99 28 00
        E 0 99 1b 00
        E 0 99 2a 00
        E 0 99 33 00
        E 0 99 1b 7f
        E 0 99 33 47
        E 0 99 2a 47
        E 30 99 2a 00
        E 0 99 1b 00
        E 0 99 1b 7f
        E 0 99 2a 7f
        E 30 99 2a 00
        E 0 99 1b 00
        E 0 99 33 00
        E 0 99 26 7f
        E 0 99 28 7f
        E 0 99 1b 7f
        E 0 99 33 6a
        E 0 99 28 6a
        E 0 99 2a 6a
        E 30 99 2a 00
        E 0 99 28 00
        E 0 99 1b 00
        E 0 99 26 00
        E 0 99 28 00
        E 0 99 33 00
        E 0 99 1b 7f
        E 0 99 2a 7f
        E 0 99 33 38
        E 30 99 33 00
        E 0 99 2a 00
        E 0 99 1b 00
        E 0 99 1b 7f
        E 0 99 2a 48
        E 0 99 28 48
        E 0 99 2a 48
        E 30 99 28 00
        E 0 99 1b 00
        E 0 99 2a 00
        E 0 99 1b 7f
        E 0 99 2a 7f
        E 0 99 28 4d
        E 30 99 28 00
        E 0 99 2a 00
        E 0 99 1b 00
        E 0 99 2a 00
        E 0 99 1b 7f
        E 0 99 2a 7f
        E 0 99 33 7f
        E 0 99 2a 7f
        E 30 99 2a 00
        E 0 99 1b 00
        E 0 99 2a 00
        E 0 99 33 00
        E 0 99 1b 7f
        E 0 99 2a 7f
        E 30 99 2a 00
        E 0 99 1b 00
        E 0 99 1b 7f
        E 0 99 33 4f
        E 0 99 2a 4f
        E 30 99 2a 00
        E 0 99 33 00
        E 0 99 1b 00
        E 0 99 1b 7f
        E 0 99 2a 7f
        E 0 99 26 7f
        E 0 99 28 7f
        E 0 99 2a 7f
        E 0 99 33 39
        E 30 99 33 00
        E 0 99 2a 00
        E 0 99 26 00
        E 0 99 1b 00
        E 0 99 2a 00
        E 0 99 28 00
        E 0 99 26 7f
        E 0 99 28 7f
        E 0 99 1b 7f
        E 0 99 2a 7f
        E 0 99 33 71
        E 0 99 28 71
        E 0 99 2a 71
        E 30 99 2a 00
        E 0 99 28 00
        E 0 99 1b 00
        E 0 99 26 00
        E 0 99 28 00
        E 0 99 1b 7f
        E 30 99 1b 00
        E 0 99 33 00
        E 0 99 1b 7f
        E 0 99 2a 45
        E 30 99 2a 00
        E 0 99 1b 00
        E 0 99 28 7f
        E 0 99 1b 7f
        E 0 99 33 67
        E 0 99 28 67
        E 30 99 28 00
        E 0 99 1b 00
        E 0 99 33 00
        E 0 99 1b 7f
        E 0 99 2a 7f
        E 0 99 26 7f
        E 0 99 28 7f
        E 0 99 2a 7f
        E 0 99 33 71
        E 0 99 2a 71
        E 30 99 2a 00
        E 0 99 26 00
        E 0 99 1b 00
        E 0 99 33 00
        E 0 99 28 00
        E 0 99 1b 7f
        E 0 99 2a 7f
        E 0 99 33 36
        E 0 99 28 36
        E 30 99 28 00
        E 0 99 1b 00
        E 0 99 2a 00
        E 0 99 33 00
        E 0 99 1b 7f
        E 0 99 33 47
        E 0 99 2a 47
        E 30 99 2a 00
        E 0 99 1b 00
        E 0 99 1b 7f
        E 0 99 2a 7f
        E 30 99 2a 00
        E 0 99 1b 00
        E 0 99 33 00
        E 0 99 26 7f
        E 0 99 28 7f
        E 0 99 1b 7f
        E 0 99 33 6a
        E 0 99 28 6a
        E 0 99 2a 6a
        E 30 99 2a 00
        E 0 99 28 00
        E 0 99 1b 00
        E 0 99 26 00
        E 0 99 28 00
        E 0 99 33 00
        E 0 99 1b 7f
        E 0 99 2a 7f
        E 0 99 33 38
        E 30 99 33 00
        E 0 99 2a 00
        E 0 99 1b 00
        E 0 99 1b 7f
        E 0 99 26 7f
        E 0 99 28 7f
        E 0 99 2a 48
        E 0 99 28 48
        E 0 99 2a 48
        E 30 99 28 00
        E 0 99 2a 00
        E 0 99 26 00
        E 0 99 28 00
        E 0 99 1b 00
        E 0 99 2a 00
        E 0 99 1b 7f
        E 0 99 2a 7f
        E 0 99 28 4d
        E 30 99 28 00
        E 0 99 2a 00
        E 0 99 1b 00
        E 0 99 2a 00
        E 0 99 1b 7f
        E 0 99 2a 7f
        E 0 99 33 7c
        E 0 99 2a 7c
        E 30 99 2a 00
        E 0 99 1b 00
        E 0 99 2a 00
        E 0 99 33 00
        E 0 99 1b 7f
        E 0 99 2a 7f
        E 30 99 2a 00
        E 0 99 1b 00
        E 0 99 1b 7f
        E 0 99 33 41
        E 0 99 2a 41
        E 30 99 2a 00
        E 0 99 33 00
        E 0 99 1b 00
        E 0 99 1b 7f
        E 0 99 2a 7f
        E 0 99 33 40
        E 30 99 33 00
        E 0 99 2a 00
        E 0 99 1b 00
        E 0 99 26 7f
        E 0 99 28 7f
        E 0 99 1b 7f
        E 0 99 2a 7f
        E 0 99 33 73
        E 0 99 28 73
        E 0 99 2a 73
        E 30 99 2a 00
        E 0 99 28 00
        E 0 99 1b 00
        E 0 99 26 00
        E 0 99 28 00
        E 0 99 1b 7f
        E 30 99 1b 00
        E 0 99 33 00
        E 0 99 1b 7f
        E 0 99 2a 4d
        E 30 99 2a 00
        E 0 99 1b 00
        E 0 99 28 7f
        E 0 99 1b 7f
        E 0 99 33 64
        E 0 99 28 64
        E 30 99 28 00
        E 0 99 1b 00
        E 0 99 33 00
        E 0 99 1b 7f
        E 0 99 2a 7f
        E 0 99 33 68
        E 0 99 2a 68
        E 30 99 2a 00
        E 0 99 1b 00
        E 0 99 2a 00
        E 0 99 33 00
        E 0 99 1b 7f
        E 0 99 2a 7f
        E 0 99 33 35
        E 0 99 28 35
        E 30 99 28 00
        E 0 99 1b 00
        E 0 99 2a 00
        E 0 99 33 00
        E 0 99 1b 7f
        E 0 99 33 4c
        E 0 99 2a 4c
        E 30 99 2a 00
        E 0 99 1b 00
        E 0 99 1b 7f
        E 0 99 2a 7f
        E 30 99 2a 00
        E 0 99 1b 00
        E 0 99 33 00
        E 0 99 26 7f
        E 0 99 28 7f
        E 0 99 1b 7f
        E 0 99 33 7d
        E 0 99 28 7d
        E 0 99 2a 7d
        E 30 99 2a 00
        E 0 99 28 00
        E 0 99 1b 00
        E 0 99 26 00
        E 0 99 28 00
        E 0 99 33 00
        E 0 99 1b 7f
        E 0 99 2a 7f
        E 0 99 33 32
        E 30 99 33 00
        E 0 99 2a 00
        E 0 99 1b 00
        E 0 99 1b 7f
        E 0 99 2a 44
        E 0 99 28 44
        E 0 99 2a 44
        E 30 99 28 00
        E 0 99 1b 00
        E 0 99 2a 00
        E 0 99 1b 7f
        E 0 99 2a 7f
        E 0 99 28 3e
        E 30 99 28 00
        E 0 99 2a 00
        E 0 99 1b 00
        E 0 99 2a 00
        E 0 99 1b 7f
        E 0 99 2a 7f
        E 0 99 33 7f
        E 0 99 2a 7f
        E 30 99 2a 00
        E 0 99 1b 00
        E 0 99 2a 00
        E 0 99 33 00
        E 0 99 1b 7f
        E 0 99 2a 7f
        E 30 99 2a 00
        E 0 99 1b 00
        E 0 99 1b 7f
        E 0 99 33 4f
        E 0 99 2a 4f
        E 30 99 2a 00
        E 0 99 33 00
        E 0 99 1b 00
        E 0 99 1b 7f
        E 0 99 2a 7f
        E 0 99 33 39
        E 30 99 33 00
        E 0 99 2a 00
        E 0 99 1b 00
        E 0 99 26 7f
        E 0 99 28 7f
        E 0 99 1b 7f
        E 0 99 2a 7f
        E 0 99 33 71
        E 0 99 28 71
        E 0 99 2a 71
        E 30 99 2a 00
        E 0 99 28 00
        E 0 99 1b 00
        E 0 99 26 00
        E 0 99 28 00
        E 0 99 1b 7f
        E 30 99 1b 00
        E 0 99 33 00
        E 0 99 1b 7f
        E 0 99 2a 45
        E 30 99 2a 00
        E 0 99 1b 00
        E 0 99 28 7f
        E 0 99 1b 7f
        E 0 99 33 67
        E 0 99 28 67
        E 30 99 28 00
        E 0 99 1b 00
        E 0 99 33 00
        E 0 99 1b 7f
        E 0 99 2a 7f
        E 0 99 33 71
        E 0 99 2a 71
        E 30 99 2a 00
        E 0 99 1b 00
        E 0 99 2a 00
        E 0 99 33 00
        E 0 99 1b 7f
        E 0 99 2a 7f
        E 0 99 33 36
        E 0 99 28 36
        E 30 99 28 00
        E 0 99 1b 00
        E 0 99 2a 00
        E 0 99 33 00
        E 0 99 1b 7f
        E 0 99 33 47
        E 0 99 2a 47
        E 30 99 2a 00
        E 0 99 1b 00
        E 0 99 1b 7f
        E 0 99 2a 7f
        E 30 99 2a 00
        E 0 99 1b 00
        E 0 99 33 00
        E 0 99 26 7f
        E 0 99 28 7f
        E 0 99 1b 7f
        E 0 99 33 6a
        E 0 99 28 6a
        E 0 99 2a 6a
        E 30 99 2a 00
        E 0 99 28 00
        E 0 99 1b 00
        E 0 99 26 00
        E 0 99 28 00
        E 0 99 33 00
        E 0 99 1b 7f
        E 0 99 2a 7f
        E 0 99 33 38
        E 30 99 33 00
        E 0 99 2a 00
        E 0 99 1b 00
        E 0 99 1b 7f
        E 0 99 2a 48
        E 0 99 28 48
        E 0 99 2a 48
        E 30 99 28 00
        E 0 99 1b 00
        E 0 99 2a 00
        E 0 99 1b 7f
        E 0 99 2a 7f
        E 0 99 28 4d
        E 30 99 28 00
        E 0 99 2a 00
        E 0 99 1b 00
        E 0 99 2a 00
        E 0 99 1b 7f
        E 0 99 2a 7f
        E 0 99 33 7f
        E 0 99 2a 7f
        E 30 99 2a 00
        E 0 99 1b 00
        E 0 99 2a 00
        E 0 99 33 00
        E 0 99 1b 7f
        E 0 99 2a 7f
        E 30 99 2a 00
        E 0 99 1b 00
        E 0 99 1b 7f
        E 0 99 33 4f
        E 0 99 2a 4f
        E 30 99 2a 00
        E 0 99 33 00
        E 0 99 1b 00
        E 0 99 1b 7f
        E 0 99 2a 7f
        E 0 99 26 7f
        E 0 99 28 7f
        E 0 99 2a 7f
        E 0 99 33 39
        E 30 99 33 00
        E 0 99 2a 00
        E 0 99 26 00
        E 0 99 1b 00
        E 0 99 2a 00
        E 0 99 28 00
        E 0 99 26 7f
        E 0 99 28 7f
        E 0 99 1b 7f
        E 0 99 2a 7f
        E 0 99 33 71
        E 0 99 28 71
        E 0 99 2a 71
        E 30 99 2a 00
        E 0 99 28 00
        E 0 99 1b 00
        E 0 99 26 00
        E 0 99 28 00
        E 0 99 1b 7f
        E 30 99 1b 00
        E 0 99 33 00
        E 0 99 1b 7f
        E 0 99 2a 45
        E 30 99 2a 00
        E 0 99 1b 00
        E 0 99 28 7f
        E 0 99 1b 7f
        E 0 99 33 67
        E 0 99 28 67
        E 30 99 28 00
        E 0 99 1b 00
        E 0 99 33 00
        E 0 99 1b 7f
        E 0 99 2a 7f
        E 0 99 26 7f
        E 0 99 28 7f
        E 0 99 2a 7f
        E 0 99 33 71
        E 0 99 2a 71
        E 30 99 2a 00
        E 0 99 26 00
        E 0 99 1b 00
        E 0 99 33 00
        E 0 99 28 00
        E 0 99 1b 7f
        E 0 99 2a 7f
        E 0 99 33 36
        E 0 99 28 36
        E 30 99 28 00
        E 0 99 1b 00
        E 0 99 2a 00
        E 0 99 33 00
        E 0 99 1b 7f
        E 0 99 33 47
        E 0 99 2a 47
        E 30 99 2a 00
        E 0 99 1b 00
        E 0 99 1b 7f
        E 0 99 2a 7f
        E 30 99 2a 00
        E 0 99 1b 00
        E 0 99 33 00
        E 0 99 26 7f
        E 0 99 28 7f
        E 0 99 1b 7f
        E 0 99 33 6a
        E 0 99 28 6a
        E 0 99 2a 6a
        E 30 99 2a 00
        E 0 99 28 00
        E 0 99 1b 00
        E 0 99 26 00
        E 0 99 28 00
        E 0 99 33 00
        E 0 99 1b 7f
        E 0 99 2a 7f
        E 0 99 33 38
        E 30 99 33 00
        E 0 99 2a 00
        E 0 99 1b 00
        E 0 99 1b 7f
        E 0 99 26 7f
        E 0 99 28 7f
        E 0 99 2a 48
        E 0 99 28 48
        E 0 99 2a 48
        E 30 99 28 00
        E 0 99 2a 00
        E 0 99 26 00
        E 0 99 28 00
        E 0 99 1b 00
        E 0 99 2a 00
        E 0 99 1b 7f
        E 0 99 2a 7f
        E 0 99 28 4d
        E 30 99 28 00
        E 0 99 2a 00
        E 0 99 1b 00
        E 0 99 2a 00
        E 0 99 1b 7f
        E 0 99 2a 7f
        E 0 99 33 7c
        E 0 99 2a 7c
        E 30 99 2a 00
        E 0 99 1b 00
        E 0 99 2a 00
        E 0 99 33 00
        E 0 99 1b 7f
        E 0 99 2a 7f
        E 30 99 2a 00
        E 0 99 1b 00
        E 0 99 1b 7f
        E 0 99 33 41
        E 0 99 2a 41
        E 30 99 2a 00
        E 0 99 33 00
        E 0 99 1b 00
        E 0 99 1b 7f
        E 0 99 2a 7f
        E 0 99 33 40
        E 30 99 33 00
        E 0 99 2a 00
        E 0 99 1b 00
        E 0 99 26 7f
        E 0 99 28 7f
        E 0 99 1b 7f
        E 0 99 2a 7f
        E 0 99 33 73
        E 0 99 28 73
        E 0 99 2a 73
        E 30 99 2a 00
        E 0 99 28 00
        E 0 99 1b 00
        E 0 99 26 00
        E 0 99 28 00
        E 0 99 1b 7f
        E 30 99 1b 00
        E 0 99 33 00
        E 0 99 1b 7f
        E 0 99 2a 4d
        E 30 99 2a 00
        E 0 99 1b 00
        E 0 99 28 7f
        E 0 99 1b 7f
        E 0 99 33 64
        E 0 99 28 64
        E 30 99 28 00
        E 0 99 1b 00
        E 0 99 33 00
        E 0 99 1b 7f
        E 0 99 2a 7f
        E 0 99 33 68
        E 0 99 2a 68
        E 30 99 2a 00
        E 0 99 1b 00
        E 0 99 2a 00
        E 0 99 33 00
        E 0 99 1b 7f
        E 0 99 2a 7f
        E 0 99 33 35
        E 0 99 28 35
        E 30 99 28 00
        E 0 99 1b 00
        E 0 99 2a 00
        E 0 99 33 00
        E 0 99 1b 7f
        E 0 99 33 4c
        E 0 99 2a 4c
        E 30 99 2a 00
        E 0 99 1b 00
        E 0 99 1b 7f
        E 0 99 2a 7f
        E 30 99 2a 00
        E 0 99 1b 00
        E 0 99 33 00
        E 0 99 26 7f
        E 0 99 28 7f
        E 0 99 1b 7f
        E 0 99 33 7d
        E 0 99 28 7d
        E 0 99 2a 7d
        E 30 99 2a 00
        E 0 99 28 00
        E 0 99 1b 00
        E 0 99 26 00
        E 0 99 28 00
        E 0 99 33 00
        E 0 99 1b 7f
        E 0 99 2a 7f
        E 0 99 33 32
        E 30 99 33 00
        E 0 99 2a 00
        E 0 99 1b 00
        E 0 99 1b 7f
        E 0 99 2a 44
        E 0 99 28 44
        E 0 99 2a 44
        E 30 99 28 00
        E 0 99 1b 00
        E 0 99 2a 00
        E 0 99 1b 7f
        E 0 99 2a 7f
        E 0 99 28 3e
        E 30 99 28 00
        E 0 99 2a 00
        E 0 99 1b 00
        E 0 99 2a 00
        E 0 99 1b 7f
        E 0 99 2a 7f
        E 0 99 33 7f
        E 0 99 2a 7f
        E 30 99 2a 00
        E 0 99 1b 00
        E 0 99 2a 00
        E 0 99 33 00
        E 0 99 1b 7f
        E 0 99 2a 7f
        E 30 99 2a 00
        E 0 99 1b 00
        E 0 99 1b 7f
        E 0 99 33 4f
        E 0 99 2a 4f
        E 30 99 2a 00
        E 0 99 33 00
        E 0 99 1b 00
        E 0 99 1b 7f
        E 0 99 2a 7f
        E 0 99 26 7f
        E 0 99 28 7f
        E 0 99 2a 7f
        E 0 99 33 39
        E 30 99 33 00
        E 0 99 2a 00
        E 0 99 26 00
        E 0 99 1b 00
        E 0 99 2a 00
        E 0 99 28 00
        E 0 99 26 7f
        E 0 99 28 7f
        E 0 99 1b 7f
        E 0 99 2a 7f
        E 0 99 33 71
        E 0 99 28 71
        E 0 99 2a 71
        E 30 99 2a 00
        E 0 99 28 00
        E 0 99 1b 00
        E 0 99 26 00
        E 0 99 28 00
        E 0 99 1b 7f
        E 30 99 1b 00
        E 0 99 33 00
        E 0 99 1b 7f
        E 0 99 2a 45
        E 30 99 2a 00
        E 0 99 1b 00
        E 0 99 28 7f
        E 0 99 1b 7f
        E 0 99 33 67
        E 0 99 28 67
        E 30 99 28 00
        E 0 99 1b 00
        E 0 99 33 00
        E 0 99 1b 7f
        E 0 99 2a 7f
        E 0 99 26 7f
        E 0 99 28 7f
        E 0 99 2a 7f
        E 0 99 33 71
        E 0 99 2a 71
        E 30 99 2a 00
        E 0 99 26 00
        E 0 99 1b 00
        E 0 99 33 00
        E 0 99 28 00
        E 0 99 1b 7f
        E 0 99 2a 7f
        E 0 99 33 36
        E 0 99 28 36
        E 30 99 28 00
        E 0 99 1b 00
        E 0 99 2a 00
        E 0 99 33 00
        E 0 99 1b 7f
        E 0 99 33 47
        E 0 99 2a 47
        E 30 99 2a 00
        E 0 99 1b 00
        E 0 99 1b 7f
        E 0 99 2a 7f
        E 30 99 2a 00
        E 0 99 1b 00
        E 0 99 33 00
        E 0 99 26 7f
        E 0 99 28 7f
        E 0 99 1b 7f
        E 0 99 33 6a
        E 0 99 28 6a
        E 0 99 2a 6a
        E 30 99 2a 00
        E 0 99 28 00
        E 0 99 1b 00
        E 0 99 26 00
        E 0 99 28 00
        E 0 99 33 00
        E 0 99 1b 7f
        E 0 99 2a 7f
        E 0 99 33 38
        E 30 99 33 00
        E 0 99 2a 00
        E 0 99 1b 00
        E 0 99 1b 7f
        E 0 99 26 7f
        E 0 99 28 7f
        E 0 99 2a 48
        E 0 99 28 48
        E 0 99 2a 48
        E 30 99 28 00
        E 0 99 2a 00
        E 0 99 26 00
        E 0 99 28 00
        E 0 99 1b 00
        E 0 99 2a 00
        E 0 99 1b 7f
        E 0 99 2a 7f
        E 0 99 28 4d
        E 30 99 28 00
        E 0 99 2a 00
        E 0 99 1b 00
        E 0 99 2a 00
        E 0 99 1b 7f
        E 0 99 2a 7f
        E 0 99 33 7c
        E 0 99 2a 7c
        E 30 99 2a 00
        E 0 99 1b 00
        E 0 99 2a 00
        E 0 99 33 00
        E 0 99 1b 7f
        E 0 99 2a 7f
        E 30 99 2a 00
        E 0 99 1b 00
        E 0 99 1b 7f
        E 0 99 33 41
        E 0 99 2a 41
        E 30 99 2a 00
        E 0 99 33 00
        E 0 99 1b 00
        E 0 99 1b 7f
        E 0 99 2a 7f
        E 0 99 33 40
        E 30 99 33 00
        E 0 99 2a 00
        E 0 99 1b 00
        E 0 99 26 7f
        E 0 99 28 7f
        E 0 99 1b 7f
        E 0 99 2a 7f
        E 0 99 33 73
        E 0 99 28 73
        E 0 99 2a 73
        E 30 99 2a 00
        E 0 99 28 00
        E 0 99 1b 00
        E 0 99 26 00
        E 0 99 28 00
        E 0 99 1b 7f
        E 30 99 1b 00
        E 0 99 33 00
        E 0 99 1b 7f
        E 0 99 2a 4d
        E 30 99 2a 00
        E 0 99 1b 00
        E 0 99 28 7f
        E 0 99 1b 7f
        E 0 99 33 64
        E 0 99 28 64
        E 30 99 28 00
        E 0 99 1b 00
        E 0 99 33 00
        E 0 99 1b 7f
        E 0 99 2a 7f
        E 0 99 33 68
        E 0 99 2a 68
        E 30 99 2a 00
        E 0 99 1b 00
        E 0 99 2a 00
        E 0 99 33 00
        E 0 99 1b 7f
        E 0 99 2a 7f
        E 0 99 33 35
        E 0 99 28 35
        E 30 99 28 00
        E 0 99 1b 00
        E 0 99 2a 00
        E 0 99 33 00
        E 0 99 1b 7f
        E 0 99 33 4c
        E 0 99 2a 4c
        E 30 99 2a 00
        E 0 99 1b 00
        E 0 99 1b 7f
        E 0 99 2a 7f
        E 30 99 2a 00
        E 0 99 1b 00
        E 0 99 33 00
        E 0 99 26 7f
        E 0 99 28 7f
        E 0 99 1b 7f
        E 0 99 33 7d
        E 0 99 28 7d
        E 0 99 2a 7d
        E 30 99 2a 00
        E 0 99 28 00
        E 0 99 1b 00
        E 0 99 26 00
        E 0 99 28 00
        E 0 99 33 00
        E 0 99 1b 7f
        E 0 99 2a 7f
        E 0 99 33 32
        E 30 99 33 00
        E 0 99 2a 00
        E 0 99 1b 00
        E 0 99 1b 7f
        E 0 99 2a 44
        E 0 99 28 44
        E 0 99 2a 44
        E 30 99 28 00
        E 0 99 1b 00
        E 0 99 2a 00
        E 0 99 1b 7f
        E 0 99 2a 7f
        E 0 99 28 3e
        E 30 99 28 00
        E 0 99 2a 00
        E 0 99 1b 00
        E 0 99 2a 00
        E 0 99 1b 7f
        E 0 99 2a 7f
        E 0 99 33 7f
        E 0 99 2a 7f
        E 30 99 2a 00
        E 0 99 1b 00
        E 0 99 2a 00
        E 0 99 33 00
        E 0 99 1b 7f
        E 0 99 2a 7f
        E 30 99 2a 00
        E 0 99 1b 00
        E 0 99 1b 7f
        E 0 99 33 4f
        E 0 99 2a 4f
        E 30 99 2a 00
        E 0 99 33 00
        E 0 99 1b 00
        E 0 99 1b 7f
        E 0 99 2a 7f
        E 0 99 26 7f
        E 0 99 28 7f
        E 0 99 2a 7f
        E 0 99 33 39
        E 30 99 33 00
        E 0 99 2a 00
        E 0 99 26 00
        E 0 99 1b 00
        E 0 99 2a 00
        E 0 99 28 00
        E 0 99 26 7f
        E 0 99 28 7f
        E 0 99 1b 7f
        E 0 99 2a 7f
        E 0 99 33 71
        E 0 99 28 71
        E 0 99 2a 71
        E 30 99 2a 00
        E 0 99 28 00
        E 0 99 1b 00
        E 0 99 26 00
        E 0 99 28 00
        E 0 99 1b 7f
        E 30 99 1b 00
        E 0 99 33 00
        E 0 99 1b 7f
        E 0 99 2a 45
        E 30 99 2a 00
        E 0 99 1b 00
        E 0 99 28 7f
        E 0 99 1b 7f
        E 0 99 33 67
        E 0 99 28 67
        E 30 99 28 00
        E 0 99 1b 00
        E 0 99 33 00
        E 0 99 1b 7f
        E 0 99 2a 7f
        E 0 99 26 7f
        E 0 99 28 7f
        E 0 99 2a 7f
        E 0 99 33 71
        E 0 99 2a 71
        E 30 99 2a 00
        E 0 99 26 00
        E 0 99 1b 00
        E 0 99 33 00
        E 0 99 28 00
        E 0 99 1b 7f
        E 0 99 2a 7f
        E 0 99 33 36
        E 0 99 28 36
        E 30 99 28 00
        E 0 99 1b 00
        E 0 99 2a 00
        E 0 99 33 00
        E 0 99 1b 7f
        E 0 99 33 47
        E 0 99 2a 47
        E 30 99 2a 00
        E 0 99 1b 00
        E 0 99 1b 7f
        E 0 99 2a 7f
        E 30 99 2a 00
        E 0 99 1b 00
        E 0 99 33 00
        E 0 99 26 7f
        E 0 99 28 7f
        E 0 99 1b 7f
        E 0 99 33 6a
        E 0 99 28 6a
        E 0 99 2a 6a
        E 30 99 2a 00
        E 0 99 28 00
        E 0 99 1b 00
        E 0 99 26 00
        E 0 99 28 00
        E 0 99 33 00
        E 0 99 1b 7f
        E 0 99 2a 7f
        E 0 99 33 38
        E 30 99 33 00
        E 0 99 2a 00
        E 0 99 1b 00
        E 0 99 1b 7f
        E 0 99 26 7f
        E 0 99 28 7f
        E 0 99 2a 48
        E 0 99 28 48
        E 0 99 2a 48
        E 30 99 28 00
        E 0 99 2a 00
        E 0 99 26 00
        E 0 99 28 00
        E 0 99 1b 00
        E 0 99 2a 00
        E 0 99 1b 7f
        E 0 99 2a 7f
        E 0 99 28 4d
        E 30 99 28 00
        E 0 99 2a 00
        E 0 99 1b 00
        E 0 99 2a 00
        E 0 99 1b 7f
        E 0 99 2a 7f
        E 0 99 33 7c
        E 0 99 2a 7c
        E 30 99 2a 00
        E 0 99 1b 00
        E 0 99 2a 00
        E 0 99 33 00
        E 0 99 1b 7f
        E 0 99 2a 7f
        E 30 99 2a 00
        E 0 99 1b 00
        E 0 99 1b 7f
        E 0 99 33 41
        E 0 99 2a 41
        E 30 99 2a 00
        E 0 99 33 00
        E 0 99 1b 00
        E 0 99 1b 7f
        E 0 99 2a 7f
        E 0 99 33 40
        E 30 99 33 00
        E 0 99 2a 00
        E 0 99 1b 00
        E 0 99 26 7f
        E 0 99 28 7f
        E 0 99 1b 7f
        E 0 99 2a 7f
        E 0 99 33 73
        E 0 99 28 73
        E 0 99 2a 73
        E 30 99 2a 00
        E 0 99 28 00
        E 0 99 1b 00
        E 0 99 26 00
        E 0 99 28 00
        E 0 99 1b 7f
        E 30 99 1b 00
        E 0 99 33 00
        E 0 99 1b 7f
        E 0 99 2a 4d
        E 30 99 2a 00
        E 0 99 1b 00
        E 0 99 28 7f
        E 0 99 1b 7f
        E 0 99 33 64
        E 0 99 28 64
        E 30 99 28 00
        E 0 99 1b 00
        E 0 99 33 00
        E 0 99 1b 7f
        E 0 99 2a 7f
        E 0 99 33 68
        E 0 99 2a 68
        E 30 99 2a 00
        E 0 99 1b 00
        E 0 99 2a 00
        E 0 99 33 00
        E 0 99 1b 7f
        E 0 99 2a 7f
        E 0 99 33 35
        E 0 99 28 35
        E 30 99 28 00
        E 0 99 1b 00
        E 0 99 2a 00
        E 0 99 33 00
        E 0 99 1b 7f
        E 0 99 33 4c
        E 0 99 2a 4c
        E 30 99 2a 00
        E 0 99 1b 00
        E 0 99 1b 7f
        E 0 99 2a 7f
        E 30 99 2a 00
        E 0 99 1b 00
        E 0 99 33 00
        E 0 99 26 7f
        E 0 99 28 7f
        E 0 99 1b 7f
        E 0 99 33 7d
        E 0 99 28 7d
        E 0 99 2a 7d
        E 30 99 2a 00
        E 0 99 28 00
        E 0 99 1b 00
        E 0 99 26 00
        E 0 99 28 00
        E 0 99 33 00
        E 0 99 1b 7f
        E 0 99 2a 7f
        E 0 99 33 32
        E 30 99 33 00
        E 0 99 2a 00
        E 0 99 1b 00
        E 0 99 1b 7f
        E 0 99 2a 44
        E 0 99 28 44
        E 0 99 2a 44
        E 30 99 28 00
        E 0 99 1b 00
        E 0 99 2a 00
        E 0 99 1b 7f
        E 0 99 2a 7f
        E 0 99 28 3e
        E 30 99 28 00
        E 0 99 2a 00
        E 0 99 1b 00
        E 0 99 2a 00
        E 0 99 1b 7f
        E 0 99 2a 7f
        E 0 99 33 7f
        E 0 99 2a 7f
        E 30 99 2a 00
        E 0 99 1b 00
        E 0 99 2a 00
        E 0 99 33 00
        E 0 99 1b 7f
        E 0 99 2a 7f
        E 30 99 2a 00
        E 0 99 1b 00
        E 0 99 1b 7f
        E 0 99 33 4f
        E 0 99 2a 4f
        E 30 99 2a 00
        E 0 99 33 00
        E 0 99 1b 00
        E 0 99 1b 7f
        E 0 99 2a 7f
        E 0 99 26 7f
        E 0 99 28 7f
        E 0 99 2a 7f
        E 0 99 33 39
        E 30 99 33 00
        E 0 99 2a 00
        E 0 99 26 00
        E 0 99 1b 00
        E 0 99 2a 00
        E 0 99 28 00
        E 0 99 26 7f
        E 0 99 28 7f
        E 0 99 1b 7f
        E 0 99 2a 7f
        E 0 99 33 71
        E 0 99 28 71
        E 0 99 2a 71
        E 30 99 2a 00
        E 0 99 28 00
        E 0 99 1b 00
        E 0 99 26 00
        E 0 99 28 00
        E 0 99 1b 7f
        E 30 99 1b 00
        E 0 99 33 00
        E 0 99 1b 7f
        E 0 99 2a 45
        E 30 99 2a 00
        E 0 99 1b 00
        E 0 99 28 7f
        E 0 99 1b 7f
        E 0 99 33 67
        E 0 99 28 67
        E 30 99 28 00
        E 0 99 1b 00
        E 0 99 33 00
        E 0 99 1b 7f
        E 0 99 2a 7f
        E 0 99 26 7f
        E 0 99 28 7f
        E 0 99 2a 7f
        E 0 99 33 71
        E 0 99 2a 71
        E 30 99 2a 00
        E 0 99 26 00
        E 0 99 1b 00
        E 0 99 33 00
        E 0 99 28 00
        E 0 99 1b 7f
        E 0 99 2a 7f
        E 0 99 33 36
        E 0 99 28 36
        E 30 99 28 00
        E 0 99 1b 00
        E 0 99 2a 00
        E 0 99 33 00
        E 0 99 1b 7f
        E 0 99 33 47
        E 0 99 2a 47
        E 30 99 2a 00
        E 0 99 1b 00
        E 0 99 1b 7f
        E 0 99 2a 7f
        E 30 99 2a 00
        E 0 99 1b 00
        E 0 99 33 00
        E 0 99 26 7f
        E 0 99 28 7f
        E 0 99 1b 7f
        E 0 99 33 6a
        E 0 99 28 6a
        E 0 99 2a 6a
        E 30 99 2a 00
        E 0 99 28 00
        E 0 99 1b 00
        E 0 99 26 00
        E 0 99 28 00
        E 0 99 33 00
        E 0 99 1b 7f
        E 0 99 2a 7f
        E 0 99 33 38
        E 30 99 33 00
        E 0 99 2a 00
        E 0 99 1b 00
        E 0 99 1b 7f
        E 0 99 26 7f
        E 0 99 28 7f
        E 0 99 2a 48
        E 0 99 28 48
        E 0 99 2a 48
        E 30 99 28 00
        E 0 99 2a 00
        E 0 99 26 00
        E 0 99 28 00
        E 0 99 1b 00
        E 0 99 2a 00
        E 0 99 1b 7f
        E 0 99 2a 7f
        E 0 99 28 4d
        E 30 99 28 00
        E 0 99 2a 00
        E 0 99 1b 00
        E 0 99 2a 00
        E 0 99 1b 7f
        E 0 99 2a 7f
        E 0 99 33 7c
        E 0 99 2a 7c
        E 30 99 2a 00
        E 0 99 1b 00
        E 0 99 2a 00
        E 0 99 33 00
        E 0 99 1b 7f
        E 0 99 2a 7f
        E 30 99 2a 00
        E 0 99 1b 00
        E 0 99 1b 7f
        E 0 99 33 41
        E 0 99 2a 41
        E 30 99 2a 00
        E 0 99 33 00
        E 0 99 1b 00
        E 0 99 1b 7f
        E 0 99 2a 7f
        E 0 99 33 40
        E 30 99 33 00
        E 0 99 2a 00
        E 0 99 1b 00
        E 0 99 26 7f
        E 0 99 28 7f
        E 0 99 1b 7f
        E 0 99 2a 7f
        E 0 99 33 73
        E 0 99 28 73
        E 0 99 2a 73
        E 30 99 2a 00
        E 0 99 28 00
        E 0 99 1b 00
        E 0 99 26 00
        E 0 99 28 00
        E 0 99 1b 7f
        E 30 99 1b 00
        E 0 99 33 00
        E 0 99 1b 7f
        E 0 99 2a 4d
        E 30 99 2a 00
        E 0 99 1b 00
        E 0 99 28 7f
        E 0 99 1b 7f
        E 0 99 33 64
        E 0 99 28 64
        E 30 99 28 00
        E 0 99 1b 00
        E 0 99 33 00
        E 0 99 1b 7f
        E 0 99 2a 7f
        E 0 99 33 68
        E 0 99 2a 68
        E 30 99 2a 00
        E 0 99 1b 00
        E 0 99 2a 00
        E 0 99 33 00
        E 0 99 1b 7f
        E 0 99 2a 7f
        E 0 99 33 35
        E 0 99 28 35
        E 30 99 28 00
        E 0 99 1b 00
        E 0 99 2a 00
        E 0 99 33 00
        E 0 99 1b 7f
        E 0 99 33 4c
        E 0 99 2a 4c
        E 30 99 2a 00
        E 0 99 1b 00
        E 0 99 1b 7f
        E 0 99 2a 7f
        E 30 99 2a 00
        E 0 99 1b 00
        E 0 99 33 00
        E 0 99 26 7f
        E 0 99 28 7f
        E 0 99 1b 7f
        E 0 99 33 7d
        E 0 99 28 7d
        E 0 99 2a 7d
        E 30 99 2a 00
        E 0 99 28 00
        E 0 99 1b 00
        E 0 99 26 00
        E 0 99 28 00
        E 0 99 33 00
        E 0 99 1b 7f
        E 0 99 2a 7f
        E 0 99 33 32
        E 30 99 33 00
        E 0 99 2a 00
        E 0 99 1b 00
        E 0 99 1b 7f
        E 0 99 2a 44
        E 0 99 28 44
        E 0 99 2a 44
        E 30 99 28 00
        E 0 99 1b 00
        E 0 99 2a 00
        E 0 99 1b 7f
        E 0 99 2a 7f
        E 0 99 28 3e
        E 30 99 28 00
        E 0 99 2a 00
        E 0 99 1b 00
        E 0 99 2a 00
        E 0 99 33 7f
        E 0 99 1b 7f
        E 0 99 2a 7f
        E 30 99 2a 00
        E 0 99 1b 00
        E 0 99 33 00
        E 0 99 1b 7f
        E 0 99 2a 7f
        E 30 99 2a 00
        E 0 99 1b 00
        E 0 99 1b 7f
        E 0 99 33 4f
        E 30 99 33 00
        E 0 99 1b 00
        E 0 99 1b 7f
        E 0 99 2a 7f
        E 0 99 33 39
        E 30 99 33 00
        E 0 99 2a 00
        E 0 99 1b 00
        E 0 99 26 7f
        E 0 99 28 7f
        E 0 99 1b 7f
        E 0 99 2a 7f
        E 0 99 33 71
        E 0 99 26 71
        E 0 99 28 71
        E 30 99 28 00
        E 0 99 1b 00
        E 0 99 28 00
        E 0 99 26 00
        E 0 99 2a 00
        E 0 99 1b 7f
        E 30 99 1b 00
        E 0 99 26 00
        E 0 99 33 00
        E 0 99 28 00
        E 0 99 1b 7f
        E 0 99 2a 7f
        E 30 99 2a 00
        E 0 99 1b 00
        E 0 99 28 7f
        E 0 99 1b 7f
        E 0 99 33 67
        E 30 99 33 00
        E 0 99 1b 00
        E 0 99 28 00
        E 0 99 1b 7f
        E 0 99 2a 7f
        E 0 99 33 71
        E 30 99 33 00
        E 0 99 2a 00
        E 0 99 1b 00
        E 0 99 1b 7f
        E 0 99 2a 7f
        E 0 99 33 36
        E 30 99 33 00
        E 0 99 2a 00
        E 0 99 1b 00
        E 0 99 1b 7f
        E 0 99 33 47
        E 30 99 1b 00
        E 0 99 1b 7f
        E 0 99 2a 7f
        E 30 99 2a 00
        E 0 99 1b 00
        E 0 99 33 00
        E 0 99 26 7f
        E 0 99 28 7f
        E 0 99 1b 7f
        E 0 99 33 6a
        E 0 99 26 6a
        E 0 99 28 6a
        E 30 99 28 00
        E 0 99 1b 00
        E 0 99 28 00
        E 0 99 26 00
        E 0 99 33 00
        E 0 99 1b 7f
        E 0 99 2a 7f
        E 0 99 33 38
        E 30 99 33 00
        E 0 99 1b 00
        E 0 99 26 00
        E 0 99 28 00
        E 0 99 2a 00
        E 0 99 1b 7f
        E 0 99 2a 48
        E 30 99 1b 00
        E 0 99 1b 7f
        E 0 99 2a 7f
        E 30 99 2a 00
        E 0 99 1b 00
        E 0 99 2a 00
        E 0 99 1b 7f
        E 0 99 2a 7f
        E 0 99 33 7c
        E 30 99 33 00
        E 0 99 2a 00
        E 0 99 1b 00
        E 0 99 1b 7f
        E 0 99 2a 7f
        E 30 99 2a 00
        E 0 99 1b 00
        E 0 99 1b 7f
        E 0 99 33 41
        E 30 99 33 00
        E 0 99 1b 00
        E 0 99 1b 7f
        E 0 99 2a 7f
        E 0 99 33 40
        E 30 99 33 00
        E 0 99 2a 00
        E 0 99 1b 00
        E 0 99 26 7f
        E 0 99 28 7f
        E 0 99 1b 7f
        E 0 99 2a 7f
        E 0 99 33 73
        E 0 99 26 73
        E 0 99 28 73
        E 30 99 28 00
        E 0 99 1b 00
        E 0 99 28 00
        E 0 99 26 00
        E 0 99 2a 00
        E 0 99 1b 7f
        E 30 99 1b 00
        E 0 99 26 00
        E 0 99 33 00
        E 0 99 28 00
        E 0 99 1b 7f
        E 0 99 2a 7f
        E 30 99 2a 00
        E 0 99 1b 00
        E 0 99 28 7f
        E 0 99 1b 7f
        E 0 99 33 64
        E 30 99 33 00
        E 0 99 1b 00
        E 0 99 28 00
        E 0 99 1b 7f
        E 0 99 2a 7f
        E 0 99 33 68
        E 30 99 33 00
        E 0 99 2a 00
        E 0 99 1b 00
        E 0 99 1b 7f
        E 0 99 2a 7f
        E 0 99 33 35
        E 30 99 33 00
        E 0 99 2a 00
        E 0 99 1b 00
        E 0 99 1b 7f
        E 0 99 33 4c
        E 30 99 1b 00
        E 0 99 1b 7f
        E 0 99 2a 7f
        E 30 99 2a 00
        E 0 99 1b 00
        E 0 99 33 00
        E 0 99 33 7d
        E 0 99 26 7d
        E 0 99 28 7d
        E 0 99 26 7f
        E 0 99 28 7f
        E 0 99 1b 7f
        E 30 99 1b 00
        E 0 99 26 00
        E 0 99 28 00
        E 0 99 33 00
        E 0 99 28 00
        E 0 99 1b 7f
        E 0 99 2a 7f
        E 0 99 33 32
        E 30 99 33 00
        E 0 99 1b 00
        E 0 99 26 00
        E 0 99 28 00
        E 0 99 2a 00
        E 0 99 1b 7f
        E 0 99 2a 44
        E 0 99 28 44
        E 30 99 28 00
        E 0 99 1b 00
        E 0 99 1b 7f
        E 0 99 2a 7f
        E 30 99 2a 00
        E 0 99 1b 00
        E 0 99 2a 00
        E 0 99 33 7f
        E 0 99 1b 7f
        E 0 99 2a 7f
        E 30 99 2a 00
        E 0 99 1b 00
        E 0 99 33 00
        E 0 99 1b 7f
        E 0 99 2a 7f
        E 30 99 2a 00
        E 0 99 1b 00
        E 0 99 1b 7f
        E 0 99 33 4f
        E 30 99 33 00
        E 0 99 1b 00
        E 0 99 1b 7f
        E 0 99 2a 7f
        E 0 99 33 39
        E 30 99 33 00
        E 0 99 2a 00
        E 0 99 1b 00
        E 0 99 26 7f
        E 0 99 28 7f
        E 0 99 1b 7f
        E 0 99 2a 7f
        E 0 99 33 71
        E 0 99 26 71
        E 0 99 28 71
        E 30 99 28 00
        E 0 99 1b 00
        E 0 99 28 00
        E 0 99 26 00
        E 0 99 2a 00
        E 0 99 1b 7f
        E 30 99 1b 00
        E 0 99 26 00
        E 0 99 33 00
        E 0 99 28 00
        E 0 99 1b 7f
        E 0 99 2a 7f
        E 30 99 2a 00
        E 0 99 1b 00
        E 0 99 28 7f
        E 0 99 1b 7f
        E 0 99 33 67
        E 30 99 33 00
        E 0 99 1b 00
        E 0 99 28 00
        E 0 99 1b 7f
        E 0 99 2a 7f
        E 0 99 33 71
        E 30 99 33 00
        E 0 99 2a 00
        E 0 99 1b 00
        E 0 99 1b 7f
        E 0 99 2a 7f
        E 0 99 33 36
        E 30 99 33 00
        E 0 99 2a 00
        E 0 99 1b 00
        E 0 99 1b 7f
        E 0 99 33 47
        E 30 99 1b 00
        E 0 99 1b 7f
        E 0 99 2a 7f
        E 30 99 2a 00
        E 0 99 1b 00
        E 0 99 33 00
        E 0 99 26 7f
        E 0 99 28 7f
        E 0 99 1b 7f
        E 0 99 33 6a
        E 0 99 26 6a
        E 0 99 28 6a
        E 30 99 28 00
        E 0 99 1b 00
        E 0 99 28 00
        E 0 99 26 00
        E 0 99 33 00
        E 0 99 1b 7f
        E 0 99 2a 7f
        E 0 99 33 38
        E 30 99 33 00
        E 0 99 1b 00
        E 0 99 26 00
        E 0 99 28 00
        E 0 99 2a 00
        E 0 99 1b 7f
        E 0 99 2a 48
        E 30 99 1b 00
        E 0 99 1b 7f
        E 0 99 2a 7f
        E 30 99 2a 00
        E 0 99 1b 00
        E 0 99 2a 00
        E 0 99 28 7f
        E 0 99 39 7f
        E 60 99 28 00
        E 419 99 39 00
        E 1 b0 7b 00
        GUID {4270A86A-0811-4DD5-B3A5-7888F0E63C94}
        IGNTEMPO 0 120.00000000 4 4
        SRCCOLOR 1223
        VELLANE -1 111 0
      >
    >
  >
  <TRACK '{0E49ECF6-6D03-4D44-9E81-D01B4C92416E}'
    NAME "Drums (Standard Kit) - AvaAdore.midi"
    PEAKCOL 16576
    BEAT -1
    AUTOMODE 0
    VOLPAN 1.00000000000000 0.00000000000000 -1.00000000000000 -1.00000000000000 1.00000000000000
    MUTESOLO 0 0 0
    IPHASE 0
    ISBUS 0 0
    BUSCOMP 0 0
    SHOWINMIX 1 0.666700 0.500000 1 0.500000 0 -1 0
    FREEMODE 0
    SEL 0
    REC 0 0 0 0 0 0 0
    VU 2
    TRACKHEIGHT 0 0
    INQ 0 0 0 0.5000000000 100 0 0 100
    NCHAN 2
    FX 1
    TRACKID {0E49ECF6-6D03-4D44-9E81-D01B4C92416E}
    PERF 0
    MIDIOUT 0
    MAINSEND 1 0
    <FXCHAIN
      WNDRECT 0 43 1173 696
      SHOW 0
      LASTSEL 0
      DOCKED 0
      BYPASS 0 0
      <VST "VSTi: MT-PowerDrumKit (MANDA AUDIO) (16 out)" "MT-PowerDrumKit.dll" 0 ""
        RFBUTe5e7f4AAAAAEAAAAAEAAAAAAAAAAgAAAAAAAAAEAAAAAAAAAAgAAAAAAAAAEAAAAAAAAAAgAAAAAAAAAEAAAAAAAAAAgAAAAAAAAAAAAQAAAAAAAAACAAAAAAAA
        AAQAAAAAAAAACAAAAAAAAAAQAAAAAAAAACAAAAAAAAAAQAAAAAAAAACAAAAAAAAAbAIAAAEAAAAAABAAAQAAAGwCAACamTk/XoNCP5qZOT+UwCY/lMAmPww9Pj+R70I/
        V5ZAP9h+Mj/YfjI/jSUwP40lMD+NJTA/AAAAPwAAAD8AAAA/PdSuPpxTsT5vEoM+F9kOPx1aRD9kVyI/4ZUoP4zalT5O1C4/TtQuPwAAgD8AAIA/AACAPwAAgD8AAIA/
        AACAPwAAgD8AAIA/AACAPwAAgD8AAIA/AACAPwAAgD8AAAAAAAAAAAAAAAAAAAAAAAAAAAAAAAAAAAAAAAAAAAAAAAAAAAAAAAAAAAAAAAAAAAAAAAAAAJnTST8AAAAA
        AAAAAEjhuj4zMxM/AAAAAAAAAAAAAAAA4XrUPilczz5xPco+AAAAAAAAAAAAAAAAAAAAAAAAAAAAAAAAAACAPwAAAAAAAAAAAAAAAAAAAAAAAAAAAAAAAAAAAAAAAAAA
        AAAAAAAAAAAAAAAAAAAAAAAAAAAAAAAAAAAAAAAAAAAAAAAAAAAAAAAA0D0AAPA9AADgPQAAGD4AACg+AAA4PgAAqD4AAEg+AAAwPgAAED4AAGA+AABwPgAAUD4AAIg+
        AACMPgAAaD4AAIA+AACgPQAAAD4AAAAAAACcPgAAmD4AAJQ+AAAAAAAAWD4AAEA+AAAgPgAAAAAAAAAAAAAAAAAAAAAAAAAAAAAAAAAAAAAAAMA9AAAIPgAAAAAAAKA+
        AAAAAAAAAAAAAAAAAAAAAAAAAAAAAAAAAAAAAAAAAAAAAAAAAAAAAAAAAAAAAAAAAAAAAAAAAAAAAAA/AACAPAAAAAAAAAAAAAAAAAAAAAAAAAAAAAAAAAAAAAAAAAAA
        AAAAAAAAAAAAABAAAAA=
      >
      FLOATPOS 0 0 0 0
      FXID {EA509883-2C92-4935-BD95-E9CE9B04E090}
      WAK 0
    >
    <ITEM
      POSITION 0.00000000000000
      SNAPOFFS 0.00000000000000
      LENGTH 260.84037200000000
      LOOP 1
      ALLTAKES 0
      SEL 0
      FADEIN 1 0.000000 0.000000 1 0 0.000000
      FADEOUT 1 0.000000 0.000000 1 0 0.000000
      MUTE 0
      IGUID {3F83E1B2-139B-4C9F-B2F8-FB3C9CC9B9CF}
      IID 6
      NAME "Drums (Standard Kit) - AvaAdore.midi.mid"
      VOLPAN 1.000000 0.000000 1.000000 -1.000000
      SOFFS 0.00000000000000 0.00000000000000
      PLAYRATE 1.00000000000000 1 0.00000000000000 -1 0 0.002500
      CHANMODE 0
      GUID {1D6F3A0C-185C-4970-87C0-10C48717D6A6}
      <SOURCE MIDI
        HASDATA 1 120 QN
        POOLEDEVTS {DA90FCBE-6119-4086-A1D4-32EAEB9D0948}
        <X 0 0
          /wNBdmEgQWRvcmU=
        >
        <X 0 0
          /wNNaXh0dXJlIG9mIFN0dWRpbyBhbmQgTGl2ZSBWZXJzaW9u
        >
        <X 0 0
          /wNEcnVtcyAoU3RhbmRhcmQgS2l0KQ==
        >
        <X 0 0
          /wFUaGlzIE1pZGkgZmlsZSBoYXMgYmVlbiBvcHRpbWlzZWQgZm9yIA==
          WEcgU3ludGhlc2lzZXJzLgo=
        >
        <X 0 0
          /wFDaGFubmVsIDEwIGFuZCAxMSBoYXZlIHRvIG1hZGUgdG8gYmUgZA==
          cnVtIGNoYW5uZWxzLgo=
        >
        <X 0 0
          /wFDaGFubmVsIDEwIGJlaW5nIGEgU3RhbmRhcmQgRHJ1bSBLaXQK
        >
        <X 0 0
          /wFDaGFubmVsIDExIGJlaW5nIGEgUm9jayBLaXQgKEJldHRlciBCYQ==
          c3MgRHJ1bSkK
        >
        E 0 b9 00 7f
        E 0 b9 20 00
        E 0 c9 00 00
        E 0 b9 07 50
        E 480 99 2a 7f
        E 0 99 1b 7f
        E 0 99 3b 7f
        E 30 99 3b 00
        E 0 99 1b 00
        E 0 99 2a 00
        E 0 99 1b 7f
        E 0 99 2a 7f
        E 30 99 2a 00
        E 0 99 1b 00
        E 0 99 1b 7f
        E 30 99 1b 00
        E 0 99 1b 7f
        E 0 99 2a 7f
        E 30 99 2a 00
        E 0 99 1b 00
        E 0 99 1b 7f
        E 0 99 2a 7f
        E 0 99 3c 7f
        E 30 99 3c 00
        E 0 99 2a 00
        E 0 99 1b 00
        E 0 99 1b 7f
        E 0 99 3d 7f
        E 30 99 3d 00
        E 0 99 1b 00
        E 0 99 1b 7f
        E 0 99 2a 7f
        E 0 99 3d 7f
        E 30 99 3d 00
        E 0 99 2a 00
        E 0 99 1b 00
        E 0 99 1b 7f
        E 30 99 1b 00
        E 0 99 1b 7f
        E 0 99 2a 7f
        E 30 99 2a 00
        E 0 99 1b 00
        E 0 99 1b 7f
        E 0 99 2a 7f
        E 30 99 2a 00
        E 0 99 1b 00
        E 0 99 1b 7f
        E 0 99 3c 7f
        E 30 99 3c 00
        E 0 99 1b 00
        E 0 99 1b 7f
        E 0 99 2a 7f
        E 0 99 3d 7f
        E 30 99 3d 00
        E 0 99 2a 00
        E 0 99 1b 00
        E 0 99 1b 7f
        E 0 99 3d 7f
        E 30 99 3d 00
        E 0 99 1b 00
        E 0 99 1b 7f
        E 0 99 2a 7f
        E 0 99 3c 7f
        E 30 99 3c 00
        E 0 99 2a 00
        E 0 99 1b 00
        E 0 99 1b 7f
        E 30 99 1b 00
        E 0 99 1b 7f
        E 0 99 2a 7f
        E 30 99 2a 00
        E 0 99 1b 00
        E 0 99 2a 7f
        E 0 99 1b 7f
        E 0 99 3b 7f
        E 30 99 3b 00
        E 0 99 1b 00
        E 0 99 2a 00
        E 0 99 1b 7f
        E 0 99 2a 7f
        E 30 99 2a 00
        E 0 99 1b 00
        E 0 99 1b 7f
        E 30 99 1b 00
        E 0 99 1b 7f
        E 0 99 2a 7f
        E 30 99 2a 00
        E 0 99 1b 00
        E 0 99 1b 7f
        E 0 99 2a 7f
        E 0 99 3c 7f
        E 30 99 3c 00
        E 0 99 2a 00
        E 0 99 1b 00
        E 0 99 1b 7f
        E 0 99 3d 7f
        E 30 99 3d 00
        E 0 99 1b 00
        E 0 99 1b 7f
        E 0 99 2a 7f
        E 0 99 3d 7f
        E 30 99 3d 00
        E 0 99 2a 00
        E 0 99 1b 00
        E 0 99 1b 7f
        E 30 99 1b 00
        E 0 99 1b 7f
        E 0 99 2a 7f
        E 30 99 2a 00
        E 0 99 1b 00
        E 0 99 1b 7f
        E 0 99 2a 7f
        E 30 99 2a 00
        E 0 99 1b 00
        E 0 99 1b 7f
        E 0 99 3c 7f
        E 30 99 3c 00
        E 0 99 1b 00
        E 0 99 1b 7f
        E 0 99 2a 7f
        E 0 99 3d 7f
        E 30 99 3d 00
        E 0 99 2a 00
        E 0 99 1b 00
        E 0 99 1b 7f
        E 0 99 3d 7f
        E 30 99 3d 00
        E 0 99 1b 00
        E 0 99 1b 7f
        E 0 99 2a 7f
        E 0 99 3c 7f
        E 30 99 3c 00
        E 0 99 2a 00
        E 0 99 1b 00
        E 0 99 1b 7f
        E 30 99 1b 00
        E 0 99 1b 7f
        E 0 99 2a 7f
        E 30 99 2a 00
        E 0 99 1b 00
        E 0 99 1b 7f
        E 0 99 2a 7f
        E 0 99 3b 7f
        E 30 99 3b 00
        E 0 99 2a 00
        E 0 99 1b 00
        E 0 99 1b 7f
        E 0 99 2a 7f
        E 30 99 2a 00
        E 0 99 1b 00
        E 0 99 1b 7f
        E 30 99 1b 00
        E 0 99 1b 7f
        E 0 99 2a 7f
        E 30 99 2a 00
        E 0 99 1b 00
        E 0 99 1b 7f
        E 0 99 2a 7f
        E 0 99 3c 7f
        E 30 99 3c 00
        E 0 99 2a 00
        E 0 99 1b 00
        E 0 99 1b 7f
        E 0 99 3d 7f
        E 30 99 3d 00
        E 0 99 1b 00
        E 0 99 1b 7f
        E 0 99 2a 7f
        E 0 99 3d 7f
        E 30 99 3d 00
        E 0 99 2a 00
        E 0 99 1b 00
        E 0 99 1b 7f
        E 30 99 1b 00
        E 0 99 1b 7f
        E 0 99 2a 7f
        E 30 99 2a 00
        E 0 99 1b 00
        E 0 99 1b 7f
        E 0 99 2a 7f
        E 30 99 2a 00
        E 0 99 1b 00
        E 0 99 1b 7f
        E 0 99 3c 7f
        E 30 99 3c 00
        E 0 99 1b 00
        E 0 99 1b 7f
        E 0 99 2a 7f
        E 0 99 3d 7f
        E 30 99 3d 00
        E 0 99 2a 00
        E 0 99 1b 00
        E 0 99 1b 7f
        E 0 99 3d 7f
        E 30 99 3d 00
        E 0 99 1b 00
        E 0 99 1b 7f
        E 0 99 2a 7f
        E 0 99 3c 7f
        E 30 99 3c 00
        E 0 99 2a 00
        E 0 99 1b 00
        E 0 99 1b 7f
        E 30 99 1b 00
        E 0 99 1b 7f
        E 0 99 2a 7f
        E 30 99 2a 00
        E 0 99 1b 00
        E 0 99 3b 7f
        E 0 99 1b 7f
        E 0 99 2a 7f
        E 30 99 2a 00
        E 0 99 1b 00
        E 0 99 3b 00
        E 0 99 1b 7f
        E 0 99 2a 7f
        E 30 99 2a 00
        E 0 99 1b 00
        E 0 99 1b 7f
        E 30 99 1b 00
        E 0 99 1b 7f
        E 0 99 2a 7f
        E 30 99 2a 00
        E 0 99 1b 00
        E 0 99 1b 7f
        E 0 99 2a 7f
        E 0 99 3c 7f
        E 30 99 3c 00
        E 0 99 2a 00
        E 0 99 1b 00
        E 0 99 1b 7f
        E 0 99 3d 7f
        E 30 99 3d 00
        E 0 99 1b 00
        E 0 99 1b 7f
        E 0 99 2a 7f
        E 0 99 3d 7f
        E 30 99 3d 00
        E 0 99 2a 00
        E 0 99 1b 00
        E 0 99 1b 7f
        E 30 99 1b 00
        E 0 99 1b 7f
        E 0 99 2a 7f
        E 30 99 2a 00
        E 0 99 1b 00
        E 0 99 1b 7f
        E 0 99 2a 7f
        E 30 99 2a 00
        E 0 99 1b 00
        E 0 99 1b 7f
        E 0 99 3c 7f
        E 30 99 3c 00
        E 0 99 1b 00
        E 0 99 1b 7f
        E 0 99 2a 7f
        E 0 99 3d 7f
        E 30 99 3d 00
        E 0 99 2a 00
        E 0 99 1b 00
        E 0 99 1b 7f
        E 0 99 3d 7f
        E 30 99 3d 00
        E 0 99 1b 00
        E 0 99 1b 7f
        E 0 99 2a 7f
        E 0 99 3c 7f
        E 30 99 3c 00
        E 0 99 2a 00
        E 0 99 1b 00
        E 0 99 1b 7f
        E 30 99 1b 00
        E 0 99 1b 7f
        E 0 99 2a 7f
        E 30 99 2a 00
        E 0 99 1b 00
        E 0 99 2a 7f
        E 0 99 1b 7f
        E 0 99 3b 7f
        E 30 99 3b 00
        E 0 99 1b 00
        E 0 99 2a 00
        E 0 99 1b 7f
        E 0 99 2a 7f
        E 30 99 2a 00
        E 0 99 1b 00
        E 0 99 1b 7f
        E 30 99 1b 00
        E 0 99 1b 7f
        E 0 99 2a 7f
        E 30 99 2a 00
        E 0 99 1b 00
        E 0 99 1b 7f
        E 0 99 2a 7f
        E 0 99 3c 7f
        E 30 99 3c 00
        E 0 99 2a 00
        E 0 99 1b 00
        E 0 99 1b 7f
        E 0 99 3d 7f
        E 30 99 3d 00
        E 0 99 1b 00
        E 0 99 1b 7f
        E 0 99 2a 7f
        E 0 99 3d 7f
        E 30 99 3d 00
        E 0 99 2a 00
        E 0 99 1b 00
        E 0 99 1b 7f
        E 30 99 1b 00
        E 0 99 1b 7f
        E 0 99 2a 7f
        E 30 99 2a 00
        E 0 99 1b 00
        E 0 99 1b 7f
        E 0 99 2a 7f
        E 30 99 2a 00
        E 0 99 1b 00
        E 0 99 1b 7f
        E 0 99 3c 7f
        E 30 99 3c 00
        E 0 99 1b 00
        E 0 99 1b 7f
        E 0 99 2a 7f
        E 0 99 3d 7f
        E 30 99 3d 00
        E 0 99 2a 00
        E 0 99 1b 00
        E 0 99 1b 7f
        E 0 99 3d 7f
        E 30 99 3d 00
        E 0 99 1b 00
        E 0 99 1b 7f
        E 0 99 2a 7f
        E 0 99 3c 7f
        E 30 99 3c 00
        E 0 99 2a 00
        E 0 99 1b 00
        E 0 99 1b 7f
        E 30 99 1b 00
        E 0 99 1b 7f
        E 0 99 2a 7f
        E 30 99 2a 00
        E 0 99 1b 00
        E 0 99 1b 7f
        E 0 99 2a 7f
        E 0 99 3b 7f
        E 30 99 3b 00
        E 0 99 2a 00
        E 0 99 1b 00
        E 0 99 1b 7f
        E 0 99 2a 7f
        E 30 99 2a 00
        E 0 99 1b 00
        E 0 99 1b 7f
        E 30 99 1b 00
        E 0 99 1b 7f
        E 0 99 2a 7f
        E 30 99 2a 00
        E 0 99 1b 00
        E 0 99 1b 7f
        E 0 99 2a 7f
        E 0 99 3c 7f
        E 30 99 3c 00
        E 0 99 2a 00
        E 0 99 1b 00
        E 0 99 1b 7f
        E 0 99 3d 7f
        E 30 99 3d 00
        E 0 99 1b 00
        E 0 99 1b 7f
        E 0 99 2a 7f
        E 0 99 3d 7f
        E 30 99 3d 00
        E 0 99 2a 00
        E 0 99 1b 00
        E 0 99 1b 7f
        E 30 99 1b 00
        E 0 99 1b 7f
        E 0 99 2a 7f
        E 30 99 2a 00
        E 0 99 1b 00
        E 0 99 1b 7f
        E 0 99 2a 7f
        E 30 99 2a 00
        E 0 99 1b 00
        E 0 99 1b 7f
        E 0 99 3c 7f
        E 30 99 3c 00
        E 0 99 1b 00
        E 0 99 1b 7f
        E 0 99 2a 7f
        E 0 99 3d 7f
        E 30 99 3d 00
        E 0 99 2a 00
        E 0 99 1b 00
        E 0 99 1b 7f
        E 0 99 3d 7f
        E 30 99 3d 00
        E 0 99 1b 00
        E 0 99 1b 7f
        E 0 99 2a 7f
        E 0 99 3c 7f
        E 30 99 3c 00
        E 0 99 2a 00
        E 0 99 1b 00
        E 0 99 1b 7f
        E 30 99 1b 00
        E 0 99 1b 7f
        E 0 99 2a 7f
        E 30 99 2a 00
        E 0 99 1b 00
        E 0 99 3b 7f
        E 0 99 1b 7f
        E 0 99 2a 7f
        E 30 99 2a 00
        E 0 99 1b 00
        E 0 99 3b 00
        E 0 99 1b 7f
        E 0 99 2a 7f
        E 30 99 2a 00
        E 0 99 1b 00
        E 0 99 1b 7f
        E 30 99 1b 00
        E 0 99 1b 7f
        E 0 99 2a 7f
        E 30 99 2a 00
        E 0 99 1b 00
        E 0 99 1b 7f
        E 0 99 2a 7f
        E 0 99 3c 7f
        E 30 99 3c 00
        E 0 99 2a 00
        E 0 99 1b 00
        E 0 99 1b 7f
        E 0 99 3d 7f
        E 30 99 3d 00
        E 0 99 1b 00
        E 0 99 1b 7f
        E 0 99 2a 7f
        E 0 99 3d 7f
        E 30 99 3d 00
        E 0 99 2a 00
        E 0 99 1b 00
        E 0 99 1b 7f
        E 30 99 1b 00
        E 0 99 1b 7f
        E 0 99 2a 7f
        E 30 99 2a 00
        E 0 99 1b 00
        E 0 99 1b 7f
        E 0 99 2a 7f
        E 30 99 2a 00
        E 0 99 1b 00
        E 0 99 1b 7f
        E 0 99 3c 7f
        E 30 99 3c 00
        E 0 99 1b 00
        E 0 99 1b 7f
        E 0 99 2a 7f
        E 0 99 3d 7f
        E 30 99 3d 00
        E 0 99 2a 00
        E 0 99 1b 00
        E 0 99 1b 7f
        E 0 99 3d 7f
        E 30 99 3d 00
        E 0 99 1b 00
        E 0 99 1b 7f
        E 0 99 2a 7f
        E 0 99 3c 7f
        E 30 99 3c 00
        E 0 99 2a 00
        E 0 99 1b 00
        E 0 99 1b 7f
        E 30 99 1b 00
        E 0 99 1b 7f
        E 0 99 2a 7f
        E 30 99 2a 00
        E 0 99 1b 00
        E 0 99 3b 7f
        E 0 99 2a 7f
        E 0 99 1b 7f
        E 0 99 26 7f
        E 30 99 26 00
        E 0 99 1b 00
        E 0 99 3b 00
        E 0 99 2a 00
        E 0 99 26 00
        E 0 99 1b 7f
        E 30 99 1b 00
        E 0 99 1b 7f
        E 0 99 26 7f
        E 30 99 26 00
        E 0 99 1b 00
        E 0 99 1b 7f
        E 30 99 1b 00
        E 0 99 2a 7f
        E 0 99 3b 7f
        E 0 99 1b 7f
        E 0 99 26 7f
        E 30 99 26 00
        E 0 99 1b 00
        E 0 99 2a 00
        E 0 99 3b 00
        E 0 99 26 00
        E 0 99 1b 7f
        E 30 99 1b 00
        E 0 99 1b 7f
        E 0 99 26 7f
        E 30 99 26 00
        E 0 99 1b 00
        E 0 99 1b 7f
        E 30 99 1b 00
        E 0 99 3b 7f
        E 0 99 2a 7f
        E 0 99 28 7f
        E 0 99 1b 7f
        E 30 99 1b 00
        E 0 99 3b 00
        E 0 99 2a 00
        E 0 99 28 00
        E 0 99 3b 7f
        E 0 99 28 7f
        E 0 99 2a 7f
        E 0 99 1b 7f
        E 30 99 1b 00
        E 0 99 3b 00
        E 0 99 28 00
        E 0 99 2a 00
        E 0 99 2a 7f
        E 0 99 3b 7f
        E 0 99 28 7f
        E 0 99 1b 7f
        E 30 99 1b 00
        E 0 99 2a 00
        E 0 99 3b 00
        E 0 99 28 00
        E 0 99 2a 7f
        E 0 99 1b 7f
        E 0 99 3b 7f
        E 0 99 28 7f
        E 30 99 28 00
        E 0 99 2a 00
        E 0 99 1b 00
        E 0 99 3b 00
        E 0 99 2a 7f
        E 0 99 3b 7f
        E 0 99 28 7f
        E 0 99 1b 7f
        E 30 99 1b 00
        E 0 99 2a 00
        E 0 99 3b 00
        E 0 99 28 00
        E 0 99 3b 7f
        E 0 99 28 7f
        E 0 99 2a 7f
        E 0 99 1b 7f
        E 30 99 1b 00
        E 0 99 3b 00
        E 0 99 28 00
        E 0 99 2a 00
        E 0 99 2a 7f
        E 0 99 3b 7f
        E 0 99 28 7f
        E 0 99 1b 7f
        E 30 99 1b 00
        E 0 99 2a 00
        E 0 99 3b 00
        E 0 99 28 00
        E 0 99 2a 7f
        E 0 99 1b 7f
        E 0 99 3b 7f
        E 0 99 28 7f
        E 30 99 28 00
        E 0 99 2a 00
        E 0 99 1b 00
        E 0 99 3b 00
        E 0 99 1b 7f
        E 0 99 2a 7f
        E 0 99 33 7c
        E 0 99 2a 7c
        E 30 99 2a 00
        E 0 99 1b 00
        E 0 99 2a 00
        E 0 99 33 00
        E 0 99 1b 7f
        E 0 99 2a 7f
        E 30 99 2a 00
        E 0 99 1b 00
        E 0 99 1b 7f
        E 0 99 33 41
        E 0 99 2a 41
        E 30 99 2a 00
        E 0 99 33 00
        E 0 99 1b 00
        E 0 99 1b 7f
        E 0 99 2a 7f
        E 0 99 33 40
        E 30 99 33 00
        E 0 99 2a 00
        E 0 99 1b 00
        E 0 99 26 7f
        E 0 99 28 7f
        E 0 99 1b 7f
        E 0 99 2a 7f
        E 0 99 33 73
        E 0 99 28 73
        E 0 99 2a 73
        E 30 99 2a 00
        E 0 99 28 00
        E 0 99 1b 00
        E 0 99 26 00
        E 0 99 28 00
        E 0 99 1b 7f
        E 30 99 1b 00
        E 0 99 33 00
        E 0 99 1b 7f
        E 0 99 2a 4d
        E 30 99 2a 00
        E 0 99 1b 00
        E 0 99 28 7f
        E 0 99 1b 7f
        E 0 99 33 64
        E 0 99 28 64
        E 30 99 28 00
        E 0 99 1b 00
        E 0 99 33 00
        E 0 99 1b 7f
        E 0 99 2a 7f
        E 0 99 33 68
        E 0 99 2a 68
        E 30 99 2a 00
        E 0 99 1b 00
        E 0 99 2a 00
        E 0 99 33 00
        E 0 99 1b 7f
        E 0 99 2a 7f
        E 0 99 33 35
        E 0 99 28 35
        E 30 99 28 00
        E 0 99 1b 00
        E 0 99 2a 00
        E 0 99 33 00
        E 0 99 1b 7f
        E 0 99 33 4c
        E 0 99 2a 4c
        E 30 99 2a 00
        E 0 99 1b 00
        E 0 99 1b 7f
        E 0 99 2a 7f
        E 30 99 2a 00
        E 0 99 1b 00
        E 0 99 33 00
        E 0 99 26 7f
        E 0 99 28 7f
        E 0 99 1b 7f
        E 0 99 33 7d
        E 0 99 28 7d
        E 0 99 2a 7d
        E 30 99 2a 00
        E 0 99 28 00
        E 0 99 1b 00
        E 0 99 26 00
        E 0 99 28 00
        E 0 99 33 00
        E 0 99 1b 7f
        E 0 99 2a 7f
        E 0 99 33 32
        E 30 99 33 00
        E 0 99 2a 00
        E 0 99 1b 00
        E 0 99 1b 7f
        E 0 99 2a 44
        E 0 99 28 44
        E 0 99 2a 44
        E 30 99 28 00
        E 0 99 1b 00
        E 0 99 2a 00
        E 0 99 1b 7f
        E 0 99 2a 7f
        E 0 99 28 3e
        E 30 99 28 00
        E 0 99 2a 00
        E 0 99 1b 00
        E 0 99 2a 00
        E 0 99 1b 7f
        E 0 99 2a 7f
        E 0 99 33 7f
        E 0 99 2a 7f
        E 30 99 2a 00
        E 0 99 1b 00
        E 0 99 2a 00
        E 0 99 33 00
        E 0 99 1b 7f
        E 0 99 2a 7f
        E 30 99 2a 00
        E 0 99 1b 00
        E 0 99 1b 7f
        E 0 99 33 4f
        E 0 99 2a 4f
        E 30 99 2a 00
        E 0 99 33 00
        E 0 99 1b 00
        E 0 99 1b 7f
        E 0 99 2a 7f
        E 0 99 33 39
        E 30 99 33 00
        E 0 99 2a 00
        E 0 99 1b 00
        E 0 99 26 7f
        E 0 99 28 7f
        E 0 99 1b 7f
        E 0 99 2a 7f
        E 0 99 33 71
        E 0 99 28 71
        E 0 99 2a 71
        E 30 99 2a 00
        E 0 99 28 00
        E 0 99 1b 00
        E 0 99 26 00
        E 0 99 28 00
        E 0 99 1b 7f
        E 30 99 1b 00
        E 0 99 33 00
        E 0 99 1b 7f
        E 0 99 2a 45
        E 30 99 2a 00
        E 0 99 1b 00
        E 0 99 28 7f
        E 0 99 1b 7f
        E 0 99 33 67
        E 0 99 28 67
        E 30 99 28 00
        E 0 99 1b 00
        E 0 99 33 00
        E 0 99 1b 7f
        E 0 99 2a 7f
        E 0 99 33 71
        E 0 99 2a 71
        E 30 99 2a 00
        E 0 99 1b 00
        E 0 99 2a 00
        E 0 99 33 00
        E 0 99 1b 7f
        E 0 99 2a 7f
        E 0 99 33 36
        E 0 99 28 36
        E 30 99 28 00
        E 0 99 1b 00
        E 0 99 2a 00
        E 0 99 33 00
        E 0 99 1b 7f
        E 0 99 33 47
        E 0 99 2a 47
        E 30 99 2a 00
        E 0 99 1b 00
        E 0 99 1b 7f
        E 0 99 2a 7f
        E 30 99 2a 00
        E 0 99 1b 00
        E 0 99 33 00
        E 0 99 26 7f
        E 0 99 28 7f
        E 0 99 1b 7f
        E 0 99 33 6a
        E 0 99 28 6a
        E 0 99 2a 6a
        E 30 99 2a 00
        E 0 99 28 00
        E 0 99 1b 00
        E 0 99 26 00
        E 0 99 28 00
        E 0 99 33 00
        E 0 99 1b 7f
        E 0 99 2a 7f
        E 0 99 33 38
        E 30 99 33 00
        E 0 99 2a 00
        E 0 99 1b 00
        E 0 99 1b 7f
        E 0 99 2a 48
        E 0 99 28 48
        E 0 99 2a 48
        E 30 99 28 00
        E 0 99 1b 00
        E 0 99 2a 00
        E 0 99 1b 7f
        E 0 99 2a 7f
        E 0 99 28 4d
        E 30 99 28 00
        E 0 99 2a 00
        E 0 99 1b 00
        E 0 99 2a 00
        E 0 99 1b 7f
        E 0 99 2a 7f
        E 0 99 33 7c
        E 0 99 2a 7c
        E 30 99 2a 00
        E 0 99 1b 00
        E 0 99 2a 00
        E 0 99 33 00
        E 0 99 1b 7f
        E 0 99 2a 7f
        E 30 99 2a 00
        E 0 99 1b 00
        E 0 99 1b 7f
        E 0 99 33 41
        E 0 99 2a 41
        E 30 99 2a 00
        E 0 99 33 00
        E 0 99 1b 00
        E 0 99 1b 7f
        E 0 99 2a 7f
        E 0 99 33 40
        E 30 99 33 00
        E 0 99 2a 00
        E 0 99 1b 00
        E 0 99 26 7f
        E 0 99 28 7f
        E 0 99 1b 7f
        E 0 99 2a 7f
        E 0 99 33 73
        E 0 99 28 73
        E 0 99 2a 73
        E 30 99 2a 00
        E 0 99 28 00
        E 0 99 1b 00
        E 0 99 26 00
        E 0 99 28 00
        E 0 99 1b 7f
        E 30 99 1b 00
        E 0 99 33 00
        E 0 99 1b 7f
        E 0 99 2a 4d
        E 30 99 2a 00
        E 0 99 1b 00
        E 0 99 28 7f
        E 0 99 1b 7f
        E 0 99 33 64
        E 0 99 28 64
        E 30 99 28 00
        E 0 99 1b 00
        E 0 99 33 00
        E 0 99 1b 7f
        E 0 99 2a 7f
        E 0 99 33 68
        E 0 99 2a 68
        E 30 99 2a 00
        E 0 99 1b 00
        E 0 99 2a 00
        E 0 99 33 00
        E 0 99 1b 7f
        E 0 99 2a 7f
        E 0 99 33 35
        E 0 99 28 35
        E 30 99 28 00
        E 0 99 1b 00
        E 0 99 2a 00
        E 0 99 33 00
        E 0 99 1b 7f
        E 0 99 33 4c
        E 0 99 2a 4c
        E 30 99 2a 00
        E 0 99 1b 00
        E 0 99 1b 7f
        E 0 99 2a 7f
        E 30 99 2a 00
        E 0 99 1b 00
        E 0 99 33 00
        E 0 99 26 7f
        E 0 99 28 7f
        E 0 99 1b 7f
        E 0 99 33 7d
        E 0 99 28 7d
        E 0 99 2a 7d
        E 30 99 2a 00
        E 0 99 28 00
        E 0 99 1b 00
        E 0 99 26 00
        E 0 99 28 00
        E 0 99 33 00
        E 0 99 1b 7f
        E 0 99 2a 7f
        E 0 99 33 32
        E 30 99 33 00
        E 0 99 2a 00
        E 0 99 1b 00
        E 0 99 1b 7f
        E 0 99 2a 44
        E 0 99 28 44
        E 0 99 2a 44
        E 30 99 28 00
        E 0 99 1b 00
        E 0 99 2a 00
        E 0 99 1b 7f
        E 0 99 2a 7f
        E 0 99 28 3e
        E 30 99 28 00
        E 0 99 2a 00
        E 0 99 1b 00
        E 0 99 2a 00
        E 0 99 1b 7f
        E 0 99 2a 7f
        E 0 99 33 7f
        E 0 99 2a 7f
        E 30 99 2a 00
        E 0 99 1b 00
        E 0 99 2a 00
        E 0 99 33 00
        E 0 99 1b 7f
        E 0 99 2a 7f
        E 30 99 2a 00
        E 0 99 1b 00
        E 0 99 1b 7f
        E 0 99 33 4f
        E 0 99 2a 4f
        E 30 99 2a 00
        E 0 99 33 00
        E 0 99 1b 00
        E 0 99 1b 7f
        E 0 99 2a 7f
        E 0 99 33 39
        E 30 99 33 00
        E 0 99 2a 00
        E 0 99 1b 00
        E 0 99 26 7f
        E 0 99 28 7f
        E 0 99 1b 7f
        E 0 99 2a 7f
        E 0 99 33 71
        E 0 99 28 71
        E 0 99 2a 71
        E 30 99 2a 00
        E 0 99 28 00
        E 0 99 1b 00
        E 0 99 26 00
        E 0 99 28 00
        E 0 99 1b 7f
        E 30 99 1b 00
        E 0 99 33 00
        E 0 99 1b 7f
        E 0 99 2a 45
        E 30 99 2a 00
        E 0 99 1b 00
        E 0 99 28 7f
        E 0 99 1b 7f
        E 0 99 33 67
        E 0 99 28 67
        E 30 99 28 00
        E 0 99 1b 00
        E 0 99 33 00
        E 0 99 1b 7f
        E 0 99 2a 7f
        E 0 99 33 71
        E 0 99 2a 71
        E 30 99 2a 00
        E 0 99 1b 00
        E 0 99 2a 00
        E 0 99 33 00
        E 0 99 1b 7f
        E 0 99 2a 7f
        E 0 99 33 36
        E 0 99 28 36
        E 30 99 28 00
        E 0 99 1b 00
        E 0 99 2a 00
        E 0 99 33 00
        E 0 99 1b 7f
        E 0 99 33 47
        E 0 99 2a 47
        E 30 99 2a 00
        E 0 99 1b 00
        E 0 99 1b 7f
        E 0 99 2a 7f
        E 30 99 2a 00
        E 0 99 1b 00
        E 0 99 33 00
        E 0 99 26 7f
        E 0 99 28 7f
        E 0 99 1b 7f
        E 0 99 33 6a
        E 0 99 28 6a
        E 0 99 2a 6a
        E 30 99 2a 00
        E 0 99 28 00
        E 0 99 1b 00
        E 0 99 26 00
        E 0 99 28 00
        E 0 99 33 00
        E 0 99 1b 7f
        E 0 99 2a 7f
        E 0 99 33 38
        E 30 99 33 00
        E 0 99 2a 00
        E 0 99 1b 00
        E 0 99 1b 7f
        E 0 99 2a 48
        E 0 99 28 48
        E 0 99 2a 48
        E 30 99 28 00
        E 0 99 1b 00
        E 0 99 2a 00
        E 0 99 1b 7f
        E 0 99 2a 7f
        E 0 99 28 4d
        E 30 99 28 00
        E 0 99 2a 00
        E 0 99 1b 00
        E 0 99 2a 00
        E 0 99 1b 7f
        E 0 99 2a 7f
        E 0 99 33 7c
        E 0 99 2a 7c
        E 30 99 2a 00
        E 0 99 1b 00
        E 0 99 2a 00
        E 0 99 33 00
        E 0 99 1b 7f
        E 0 99 2a 7f
        E 30 99 2a 00
        E 0 99 1b 00
        E 0 99 1b 7f
        E 0 99 33 41
        E 0 99 2a 41
        E 30 99 2a 00
        E 0 99 33 00
        E 0 99 1b 00
        E 0 99 1b 7f
        E 0 99 2a 7f
        E 0 99 33 40
        E 30 99 33 00
        E 0 99 2a 00
        E 0 99 1b 00
        E 0 99 26 7f
        E 0 99 28 7f
        E 0 99 1b 7f
        E 0 99 2a 7f
        E 0 99 33 73
        E 0 99 28 73
        E 0 99 2a 73
        E 30 99 2a 00
        E 0 99 28 00
        E 0 99 1b 00
        E 0 99 26 00
        E 0 99 28 00
        E 0 99 1b 7f
        E 30 99 1b 00
        E 0 99 33 00
        E 0 99 1b 7f
        E 0 99 2a 4d
        E 30 99 2a 00
        E 0 99 1b 00
        E 0 99 28 7f
        E 0 99 1b 7f
        E 0 99 33 64
        E 0 99 28 64
        E 30 99 28 00
        E 0 99 1b 00
        E 0 99 33 00
        E 0 99 1b 7f
        E 0 99 2a 7f
        E 0 99 33 68
        E 0 99 2a 68
        E 30 99 2a 00
        E 0 99 1b 00
        E 0 99 2a 00
        E 0 99 33 00
        E 0 99 1b 7f
        E 0 99 2a 7f
        E 0 99 33 35
        E 0 99 28 35
        E 30 99 28 00
        E 0 99 1b 00
        E 0 99 2a 00
        E 0 99 33 00
        E 0 99 1b 7f
        E 0 99 33 4c
        E 0 99 2a 4c
        E 30 99 2a 00
        E 0 99 1b 00
        E 0 99 1b 7f
        E 0 99 2a 7f
        E 30 99 2a 00
        E 0 99 1b 00
        E 0 99 33 00
        E 0 99 26 7f
        E 0 99 28 7f
        E 0 99 1b 7f
        E 0 99 33 7d
        E 0 99 28 7d
        E 0 99 2a 7d
        E 30 99 2a 00
        E 0 99 28 00
        E 0 99 1b 00
        E 0 99 26 00
        E 0 99 28 00
        E 0 99 33 00
        E 0 99 1b 7f
        E 0 99 2a 7f
        E 0 99 33 32
        E 30 99 33 00
        E 0 99 2a 00
        E 0 99 1b 00
        E 0 99 1b 7f
        E 0 99 2a 44
        E 0 99 28 44
        E 0 99 2a 44
        E 30 99 28 00
        E 0 99 1b 00
        E 0 99 2a 00
        E 0 99 1b 7f
        E 0 99 2a 7f
        E 0 99 28 3e
        E 30 99 28 00
        E 0 99 2a 00
        E 0 99 1b 00
        E 0 99 2a 00
        E 0 99 1b 7f
        E 0 99 2a 7f
        E 0 99 33 7f
        E 0 99 2a 7f
        E 30 99 2a 00
        E 0 99 1b 00
        E 0 99 2a 00
        E 0 99 33 00
        E 0 99 1b 7f
        E 0 99 2a 7f
        E 30 99 2a 00
        E 0 99 1b 00
        E 0 99 1b 7f
        E 0 99 33 4f
        E 0 99 2a 4f
        E 30 99 2a 00
        E 0 99 33 00
        E 0 99 1b 00
        E 0 99 1b 7f
        E 0 99 2a 7f
        E 0 99 33 39
        E 30 99 33 00
        E 0 99 2a 00
        E 0 99 1b 00
        E 0 99 26 7f
        E 0 99 28 7f
        E 0 99 1b 7f
        E 0 99 2a 7f
        E 0 99 33 71
        E 0 99 28 71
        E 0 99 2a 71
        E 30 99 2a 00
        E 0 99 28 00
        E 0 99 1b 00
        E 0 99 26 00
        E 0 99 28 00
        E 0 99 1b 7f
        E 30 99 1b 00
        E 0 99 33 00
        E 0 99 1b 7f
        E 0 99 2a 45
        E 30 99 2a 00
        E 0 99 1b 00
        E 0 99 28 7f
        E 0 99 1b 7f
        E 0 99 33 67
        E 0 99 28 67
        E 30 99 28 00
        E 0 99 1b 00
        E 0 99 33 00
        E 0 99 1b 7f
        E 0 99 2a 7f
        E 0 99 33 71
        E 0 99 2a 71
        E 30 99 2a 00
        E 0 99 1b 00
        E 0 99 2a 00
        E 0 99 33 00
        E 0 99 1b 7f
        E 0 99 2a 7f
        E 0 99 33 36
        E 0 99 28 36
        E 30 99 28 00
        E 0 99 1b 00
        E 0 99 2a 00
        E 0 99 33 00
        E 0 99 1b 7f
        E 0 99 33 47
        E 0 99 2a 47
        E 30 99 2a 00
        E 0 99 1b 00
        E 0 99 1b 7f
        E 0 99 2a 7f
        E 30 99 2a 00
        E 0 99 1b 00
        E 0 99 33 00
        E 0 99 26 7f
        E 0 99 28 7f
        E 0 99 1b 7f
        E 0 99 33 6a
        E 0 99 28 6a
        E 0 99 2a 6a
        E 30 99 2a 00
        E 0 99 28 00
        E 0 99 1b 00
        E 0 99 26 00
        E 0 99 28 00
        E 0 99 33 00
        E 0 99 1b 7f
        E 0 99 2a 7f
        E 0 99 33 38
        E 30 99 33 00
        E 0 99 2a 00
        E 0 99 1b 00
        E 0 99 1b 7f
        E 0 99 2a 48
        E 0 99 28 48
        E 0 99 2a 48
        E 30 99 28 00
        E 0 99 1b 00
        E 0 99 2a 00
        E 0 99 1b 7f
        E 0 99 2a 7f
        E 0 99 28 4d
        E 30 99 28 00
        E 0 99 2a 00
        E 0 99 1b 00
        E 0 99 2a 00
        E 0 99 1b 7f
        E 0 99 2a 7f
        E 0 99 33 7c
        E 0 99 2a 7c
        E 30 99 2a 00
        E 0 99 1b 00
        E 0 99 2a 00
        E 0 99 33 00
        E 0 99 1b 7f
        E 0 99 2a 7f
        E 30 99 2a 00
        E 0 99 1b 00
        E 0 99 1b 7f
        E 0 99 33 41
        E 0 99 2a 41
        E 30 99 2a 00
        E 0 99 33 00
        E 0 99 1b 00
        E 0 99 1b 7f
        E 0 99 2a 7f
        E 0 99 33 40
        E 30 99 33 00
        E 0 99 2a 00
        E 0 99 1b 00
        E 0 99 26 7f
        E 0 99 28 7f
        E 0 99 1b 7f
        E 0 99 2a 7f
        E 0 99 33 73
        E 0 99 28 73
        E 0 99 2a 73
        E 30 99 2a 00
        E 0 99 28 00
        E 0 99 1b 00
        E 0 99 26 00
        E 0 99 28 00
        E 0 99 1b 7f
        E 30 99 1b 00
        E 0 99 33 00
        E 0 99 1b 7f
        E 0 99 2a 4d
        E 30 99 2a 00
        E 0 99 1b 00
        E 0 99 28 7f
        E 0 99 1b 7f
        E 0 99 33 64
        E 0 99 28 64
        E 30 99 28 00
        E 0 99 1b 00
        E 0 99 33 00
        E 0 99 1b 7f
        E 0 99 2a 7f
        E 0 99 33 68
        E 0 99 2a 68
        E 30 99 2a 00
        E 0 99 1b 00
        E 0 99 2a 00
        E 0 99 33 00
        E 0 99 1b 7f
        E 0 99 2a 7f
        E 0 99 33 35
        E 0 99 28 35
        E 30 99 28 00
        E 0 99 1b 00
        E 0 99 2a 00
        E 0 99 33 00
        E 0 99 1b 7f
        E 0 99 33 4c
        E 0 99 2a 4c
        E 30 99 2a 00
        E 0 99 1b 00
        E 0 99 1b 7f
        E 0 99 2a 7f
        E 30 99 2a 00
        E 0 99 1b 00
        E 0 99 33 00
        E 0 99 26 7f
        E 0 99 28 7f
        E 0 99 1b 7f
        E 0 99 33 7d
        E 0 99 28 7d
        E 0 99 2a 7d
        E 30 99 2a 00
        E 0 99 28 00
        E 0 99 1b 00
        E 0 99 26 00
        E 0 99 28 00
        E 0 99 33 00
        E 0 99 1b 7f
        E 0 99 2a 7f
        E 0 99 33 32
        E 30 99 33 00
        E 0 99 2a 00
        E 0 99 1b 00
        E 0 99 1b 7f
        E 0 99 2a 44
        E 0 99 28 44
        E 0 99 2a 44
        E 30 99 28 00
        E 0 99 1b 00
        E 0 99 2a 00
        E 0 99 1b 7f
        E 0 99 2a 7f
        E 0 99 28 3e
        E 30 99 28 00
        E 0 99 2a 00
        E 0 99 1b 00
        E 0 99 2a 00
        E 0 99 1b 7f
        E 0 99 2a 7f
        E 0 99 33 7f
        E 0 99 2a 7f
        E 30 99 2a 00
        E 0 99 1b 00
        E 0 99 2a 00
        E 0 99 33 00
        E 0 99 1b 7f
        E 0 99 2a 7f
        E 30 99 2a 00
        E 0 99 1b 00
        E 0 99 1b 7f
        E 0 99 33 4f
        E 0 99 2a 4f
        E 30 99 2a 00
        E 0 99 33 00
        E 0 99 1b 00
        E 0 99 1b 7f
        E 0 99 2a 7f
        E 0 99 33 39
        E 30 99 33 00
        E 0 99 2a 00
        E 0 99 1b 00
        E 0 99 26 7f
        E 0 99 28 7f
        E 0 99 1b 7f
        E 0 99 2a 7f
        E 0 99 33 71
        E 0 99 28 71
        E 0 99 2a 71
        E 30 99 2a 00
        E 0 99 28 00
        E 0 99 1b 00
        E 0 99 26 00
        E 0 99 28 00
        E 0 99 1b 7f
        E 30 99 1b 00
        E 0 99 33 00
        E 0 99 1b 7f
        E 0 99 2a 45
        E 30 99 2a 00
        E 0 99 1b 00
        E 0 99 28 7f
        E 0 99 1b 7f
        E 0 99 33 67
        E 0 99 28 67
        E 30 99 28 00
        E 0 99 1b 00
        E 0 99 33 00
        E 0 99 1b 7f
        E 0 99 2a 7f
        E 0 99 33 71
        E 0 99 2a 71
        E 30 99 2a 00
        E 0 99 1b 00
        E 0 99 2a 00
        E 0 99 33 00
        E 0 99 1b 7f
        E 0 99 2a 7f
        E 0 99 33 36
        E 0 99 28 36
        E 30 99 28 00
        E 0 99 1b 00
        E 0 99 2a 00
        E 0 99 33 00
        E 0 99 1b 7f
        E 0 99 33 47
        E 0 99 2a 47
        E 30 99 2a 00
        E 0 99 1b 00
        E 0 99 1b 7f
        E 0 99 2a 7f
        E 30 99 2a 00
        E 0 99 1b 00
        E 0 99 33 00
        E 0 99 26 7f
        E 0 99 28 7f
        E 0 99 1b 7f
        E 0 99 33 6a
        E 0 99 28 6a
        E 0 99 2a 6a
        E 30 99 2a 00
        E 0 99 28 00
        E 0 99 1b 00
        E 0 99 26 00
        E 0 99 28 00
        E 0 99 33 00
        E 0 99 1b 7f
        E 0 99 2a 7f
        E 0 99 33 38
        E 30 99 33 00
        E 0 99 2a 00
        E 0 99 1b 00
        E 0 99 1b 7f
        E 0 99 2a 48
        E 0 99 28 48
        E 0 99 2a 48
        E 30 99 28 00
        E 0 99 1b 00
        E 0 99 2a 00
        E 0 99 1b 7f
        E 0 99 2a 7f
        E 0 99 28 4d
        E 30 99 28 00
        E 0 99 2a 00
        E 0 99 1b 00
        E 0 99 2a 00
        E 0 99 1b 7f
        E 0 99 2a 7f
        E 0 99 33 7c
        E 0 99 2a 7c
        E 30 99 2a 00
        E 0 99 1b 00
        E 0 99 2a 00
        E 0 99 33 00
        E 0 99 1b 7f
        E 0 99 2a 7f
        E 30 99 2a 00
        E 0 99 1b 00
        E 0 99 1b 7f
        E 0 99 33 41
        E 0 99 2a 41
        E 30 99 2a 00
        E 0 99 33 00
        E 0 99 1b 00
        E 0 99 1b 7f
        E 0 99 2a 7f
        E 0 99 33 40
        E 30 99 33 00
        E 0 99 2a 00
        E 0 99 1b 00
        E 0 99 26 7f
        E 0 99 28 7f
        E 0 99 1b 7f
        E 0 99 2a 7f
        E 0 99 33 73
        E 0 99 28 73
        E 0 99 2a 73
        E 30 99 2a 00
        E 0 99 28 00
        E 0 99 1b 00
        E 0 99 26 00
        E 0 99 28 00
        E 0 99 1b 7f
        E 30 99 1b 00
        E 0 99 33 00
        E 0 99 1b 7f
        E 0 99 2a 4d
        E 30 99 2a 00
        E 0 99 1b 00
        E 0 99 28 7f
        E 0 99 1b 7f
        E 0 99 33 64
        E 0 99 28 64
        E 30 99 28 00
        E 0 99 1b 00
        E 0 99 33 00
        E 0 99 1b 7f
        E 0 99 2a 7f
        E 0 99 33 68
        E 0 99 2a 68
        E 30 99 2a 00
        E 0 99 1b 00
        E 0 99 2a 00
        E 0 99 33 00
        E 0 99 1b 7f
        E 0 99 2a 7f
        E 0 99 33 35
        E 0 99 28 35
        E 30 99 28 00
        E 0 99 1b 00
        E 0 99 2a 00
        E 0 99 33 00
        E 0 99 1b 7f
        E 0 99 33 4c
        E 0 99 2a 4c
        E 30 99 2a 00
        E 0 99 1b 00
        E 0 99 1b 7f
        E 0 99 2a 7f
        E 30 99 2a 00
        E 0 99 1b 00
        E 0 99 33 00
        E 0 99 26 7f
        E 0 99 28 7f
        E 0 99 1b 7f
        E 0 99 33 7d
        E 0 99 28 7d
        E 0 99 2a 7d
        E 30 99 2a 00
        E 0 99 28 00
        E 0 99 1b 00
        E 0 99 26 00
        E 0 99 28 00
        E 0 99 33 00
        E 0 99 1b 7f
        E 0 99 2a 7f
        E 0 99 33 32
        E 30 99 33 00
        E 0 99 2a 00
        E 0 99 1b 00
        E 0 99 1b 7f
        E 0 99 2a 44
        E 0 99 28 44
        E 0 99 2a 44
        E 30 99 28 00
        E 0 99 1b 00
        E 0 99 2a 00
        E 0 99 1b 7f
        E 0 99 2a 7f
        E 0 99 28 3e
        E 30 99 28 00
        E 0 99 2a 00
        E 0 99 1b 00
        E 0 99 2a 00
        E 0 99 1b 7f
        E 0 99 2a 7f
        E 0 99 33 7f
        E 0 99 2a 7f
        E 30 99 2a 00
        E 0 99 1b 00
        E 0 99 2a 00
        E 0 99 33 00
        E 0 99 1b 7f
        E 0 99 2a 7f
        E 30 99 2a 00
        E 0 99 1b 00
        E 0 99 1b 7f
        E 0 99 33 4f
        E 0 99 2a 4f
        E 30 99 2a 00
        E 0 99 33 00
        E 0 99 1b 00
        E 0 99 1b 7f
        E 0 99 2a 7f
        E 0 99 33 39
        E 30 99 33 00
        E 0 99 2a 00
        E 0 99 1b 00
        E 0 99 26 7f
        E 0 99 28 7f
        E 0 99 1b 7f
        E 0 99 2a 7f
        E 0 99 33 71
        E 0 99 28 71
        E 0 99 2a 71
        E 30 99 2a 00
        E 0 99 28 00
        E 0 99 1b 00
        E 0 99 26 00
        E 0 99 28 00
        E 0 99 1b 7f
        E 30 99 1b 00
        E 0 99 33 00
        E 0 99 1b 7f
        E 0 99 2a 45
        E 30 99 2a 00
        E 0 99 1b 00
        E 0 99 28 7f
        E 0 99 1b 7f
        E 0 99 33 67
        E 0 99 28 67
        E 30 99 28 00
        E 0 99 1b 00
        E 0 99 33 00
        E 0 99 1b 7f
        E 0 99 2a 7f
        E 0 99 33 71
        E 0 99 2a 71
        E 0 99 2e 64
        E 0 99 28 64
        E 0 99 26 64
        E 30 99 26 00
        E 0 99 2e 00
        E 0 99 2a 00
        E 0 99 33 00
        E 0 99 1b 00
        E 0 99 28 00
        E 0 99 2a 00
        E 0 99 1b 7f
        E 0 99 2a 7f
        E 0 99 33 36
        E 0 99 28 64
        E 0 99 26 64
        E 0 99 2c 64
        E 30 99 2c 00
        E 0 99 28 00
        E 0 99 2a 00
        E 0 99 33 00
        E 0 99 1b 00
        E 0 99 26 00
        E 0 99 28 00
        E 0 99 1b 7f
        E 0 99 33 47
        E 0 99 2a 47
        E 0 99 2e 64
        E 30 99 2e 00
        E 0 99 2a 00
        E 0 99 1b 00
        E 0 99 1b 7f
        E 0 99 2a 7f
        E 0 99 28 64
        E 30 99 28 00
        E 0 99 33 00
        E 0 99 1b 00
        E 0 99 2a 00
        E 0 99 28 64
        E 0 99 26 7f
        E 0 99 28 7f
        E 0 99 1b 7f
        E 0 99 33 6a
        E 0 99 28 6a
        E 0 99 2a 6a
        E 0 99 2e 64
        E 0 99 26 64
        E 0 99 28 64
        E 30 99 28 00
        E 0 99 1b 00
        E 0 99 28 00
        E 0 99 33 00
        E 0 99 26 00
        E 0 99 2e 00
        E 0 99 2a 00
        E 0 99 28 00
        E 0 99 26 00
        E 0 99 1b 7f
        E 0 99 2a 7f
        E 0 99 33 38
        E 0 99 28 64
        E 0 99 26 64
        E 30 99 26 00
        E 0 99 33 00
        E 0 99 1b 00
        E 0 99 2a 00
        E 0 99 28 00
        E 0 99 1b 7f
        E 0 99 2a 48
        E 0 99 28 48
        E 0 99 2a 48
        E 0 99 2e 64
        E 30 99 2e 00
        E 0 99 1b 00
        E 0 99 28 00
        E 0 99 2a 00
        E 0 99 1b 7f
        E 0 99 2a 7f
        E 0 99 28 64
        E 0 99 26 64
        E 30 99 26 00
        E 0 99 1b 00
        E 0 99 2a 00
        E 0 99 28 00
        E 0 99 1b 7f
        E 0 99 2a 7f
        E 0 99 33 7c
        E 0 99 2a 7c
        E 30 99 2a 00
        E 0 99 1b 00
        E 0 99 2a 00
        E 0 99 33 00
        E 0 99 1b 7f
        E 0 99 2a 7f
        E 30 99 2a 00
        E 0 99 1b 00
        E 0 99 1b 7f
        E 0 99 33 41
        E 0 99 2a 41
        E 30 99 2a 00
        E 0 99 33 00
        E 0 99 1b 00
        E 0 99 1b 7f
        E 0 99 2a 7f
        E 0 99 33 40
        E 30 99 33 00
        E 0 99 2a 00
        E 0 99 1b 00
        E 0 99 26 7f
        E 0 99 28 7f
        E 0 99 1b 7f
        E 0 99 2a 7f
        E 0 99 33 73
        E 0 99 28 73
        E 0 99 2a 73
        E 30 99 2a 00
        E 0 99 28 00
        E 0 99 1b 00
        E 0 99 26 00
        E 0 99 28 00
        E 0 99 1b 7f
        E 30 99 1b 00
        E 0 99 33 00
        E 0 99 1b 7f
        E 0 99 2a 4d
        E 30 99 2a 00
        E 0 99 1b 00
        E 0 99 28 7f
        E 0 99 1b 7f
        E 0 99 33 64
        E 0 99 28 64
        E 30 99 28 00
        E 0 99 1b 00
        E 0 99 33 00
        E 0 99 1b 7f
        E 0 99 2a 7f
        E 0 99 33 68
        E 0 99 2a 68
        E 30 99 2a 00
        E 0 99 1b 00
        E 0 99 2a 00
        E 0 99 33 00
        E 0 99 1b 7f
        E 0 99 2a 7f
        E 0 99 33 35
        E 0 99 28 35
        E 30 99 28 00
        E 0 99 1b 00
        E 0 99 2a 00
        E 0 99 33 00
        E 0 99 1b 7f
        E 0 99 33 4c
        E 0 99 2a 4c
        E 30 99 2a 00
        E 0 99 1b 00
        E 0 99 1b 7f
        E 0 99 2a 7f
        E 30 99 2a 00
        E 0 99 1b 00
        E 0 99 33 00
        E 0 99 26 7f
        E 0 99 28 7f
        E 0 99 1b 7f
        E 0 99 33 7d
        E 0 99 28 7d
        E 0 99 2a 7d
        E 30 99 2a 00
        E 0 99 28 00
        E 0 99 1b 00
        E 0 99 26 00
        E 0 99 28 00
        E 0 99 33 00
        E 0 99 1b 7f
        E 0 99 2a 7f
        E 0 99 33 32
        E 30 99 33 00
        E 0 99 2a 00
        E 0 99 1b 00
        E 0 99 1b 7f
        E 0 99 2a 44
        E 0 99 28 44
        E 0 99 2a 44
        E 30 99 28 00
        E 0 99 1b 00
        E 0 99 2a 00
        E 0 99 1b 7f
        E 0 99 2a 7f
        E 0 99 28 3e
        E 30 99 28 00
        E 0 99 2a 00
        E 0 99 1b 00
        E 0 99 2a 00
        E 0 99 1b 7f
        E 0 99 2a 7f
        E 0 99 33 7f
        E 0 99 2a 7f
        E 30 99 2a 00
        E 0 99 1b 00
        E 0 99 2a 00
        E 0 99 33 00
        E 0 99 1b 7f
        E 0 99 2a 7f
        E 30 99 2a 00
        E 0 99 1b 00
        E 0 99 1b 7f
        E 0 99 33 4f
        E 0 99 2a 4f
        E 30 99 2a 00
        E 0 99 33 00
        E 0 99 1b 00
        E 0 99 1b 7f
        E 0 99 2a 7f
        E 0 99 33 39
        E 30 99 33 00
        E 0 99 2a 00
        E 0 99 1b 00
        E 0 99 26 7f
        E 0 99 28 7f
        E 0 99 1b 7f
        E 0 99 2a 7f
        E 0 99 33 71
        E 0 99 28 71
        E 0 99 2a 71
        E 30 99 2a 00
        E 0 99 28 00
        E 0 99 1b 00
        E 0 99 26 00
        E 0 99 28 00
        E 0 99 1b 7f
        E 30 99 1b 00
        E 0 99 33 00
        E 0 99 1b 7f
        E 0 99 2a 45
        E 30 99 2a 00
        E 0 99 1b 00
        E 0 99 28 7f
        E 0 99 1b 7f
        E 0 99 33 67
        E 0 99 28 67
        E 30 99 28 00
        E 0 99 1b 00
        E 0 99 33 00
        E 0 99 1b 7f
        E 0 99 2a 7f
        E 0 99 33 71
        E 0 99 2a 71
        E 30 99 2a 00
        E 0 99 1b 00
        E 0 99 2a 00
        E 0 99 33 00
        E 0 99 1b 7f
        E 0 99 2a 7f
        E 0 99 33 36
        E 0 99 28 36
        E 30 99 28 00
        E 0 99 1b 00
        E 0 99 2a 00
        E 0 99 33 00
        E 0 99 1b 7f
        E 0 99 33 47
        E 0 99 2a 47
        E 30 99 2a 00
        E 0 99 1b 00
        E 0 99 1b 7f
        E 0 99 2a 7f
        E 30 99 2a 00
        E 0 99 1b 00
        E 0 99 33 00
        E 0 99 26 7f
        E 0 99 28 7f
        E 0 99 1b 7f
        E 0 99 33 6a
        E 0 99 28 6a
        E 0 99 2a 6a
        E 30 99 2a 00
        E 0 99 28 00
        E 0 99 1b 00
        E 0 99 26 00
        E 0 99 28 00
        E 0 99 33 00
        E 0 99 1b 7f
        E 0 99 2a 7f
        E 0 99 33 38
        E 30 99 33 00
        E 0 99 2a 00
        E 0 99 1b 00
        E 0 99 1b 7f
        E 0 99 2a 48
        E 0 99 28 48
        E 0 99 2a 48
        E 30 99 28 00
        E 0 99 1b 00
        E 0 99 2a 00
        E 0 99 1b 7f
        E 0 99 2a 7f
        E 0 99 28 4d
        E 30 99 28 00
        E 0 99 2a 00
        E 0 99 1b 00
        E 0 99 2a 00
        E 0 99 1b 7f
        E 0 99 2a 7f
        E 0 99 33 7f
        E 0 99 2a 7f
        E 30 99 2a 00
        E 0 99 1b 00
        E 0 99 2a 00
        E 0 99 33 00
        E 0 99 1b 7f
        E 0 99 2a 7f
        E 30 99 2a 00
        E 0 99 1b 00
        E 0 99 1b 7f
        E 0 99 33 4f
        E 0 99 2a 4f
        E 30 99 2a 00
        E 0 99 33 00
        E 0 99 1b 00
        E 0 99 1b 7f
        E 0 99 2a 7f
        E 0 99 26 7f
        E 0 99 28 7f
        E 0 99 2a 7f
        E 0 99 33 39
        E 30 99 33 00
        E 0 99 2a 00
        E 0 99 26 00
        E 0 99 1b 00
        E 0 99 2a 00
        E 0 99 28 00
        E 0 99 26 7f
        E 0 99 28 7f
        E 0 99 1b 7f
        E 0 99 2a 7f
        E 0 99 33 71
        E 0 99 28 71
        E 0 99 2a 71
        E 30 99 2a 00
        E 0 99 28 00
        E 0 99 1b 00
        E 0 99 26 00
        E 0 99 28 00
        E 0 99 1b 7f
        E 30 99 1b 00
        E 0 99 33 00
        E 0 99 1b 7f
        E 0 99 2a 45
        E 30 99 2a 00
        E 0 99 1b 00
        E 0 99 28 7f
        E 0 99 1b 7f
        E 0 99 33 67
        E 0 99 28 67
        E 30 99 28 00
        E 0 99 1b 00
        E 0 99 33 00
        E 0 99 1b 7f
        E 0 99 2a 7f
        E 0 99 26 7f
        E 0 99 28 7f
        E 0 99 2a 7f
        E 0 99 33 71
        E 0 99 2a 71
        E 30 99 2a 00
        E 0 99 26 00
        E 0 99 1b 00
        E 0 99 33 00
        E 0 99 28 00
        E 0 99 1b 7f
        E 0 99 2a 7f
        E 0 99 33 36
        E 0 99 28 36
        E 30 99 28 00
        E 0 99 1b 00
        E 0 99 2a 00
        E 0 99 33 00
        E 0 99 1b 7f
        E 0 99 33 47
        E 0 99 2a 47
        E 30 99 2a 00
        E 0 99 1b 00
        E 0 99 1b 7f
        E 0 99 2a 7f
        E 30 99 2a 00
        E 0 99 1b 00
        E 0 99 33 00
        E 0 99 26 7f
        E 0 99 28 7f
        E 0 99 1b 7f
        E 0 99 33 6a
        E 0 99 28 6a
        E 0 99 2a 6a
        E 30 99 2a 00
        E 0 99 28 00
        E 0 99 1b 00
        E 0 99 26 00
        E 0 99 28 00
        E 0 99 33 00
        E 0 99 1b 7f
        E 0 99 2a 7f
        E 0 99 33 38
        E 30 99 33 00
        E 0 99 2a 00
        E 0 99 1b 00
        E 0 99 1b 7f
        E 0 99 26 7f
        E 0 99 28 7f
        E 0 99 2a 48
        E 0 99 28 48
        E 0 99 2a 48
        E 30 99 28 00
        E 0 99 2a 00
        E 0 99 26 00
        E 0 99 28 00
        E 0 99 1b 00
        E 0 99 2a 00
        E 0 99 1b 7f
        E 0 99 2a 7f
        E 0 99 28 4d
        E 30 99 28 00
        E 0 99 2a 00
        E 0 99 1b 00
        E 0 99 2a 00
        E 0 99 2e 7f
        E 0 99 2a 7f
        E 0 99 33 7f
        E 0 99 3b 64
        E 0 99 23 64
        E 30 99 33 00
        E 0 99 2e 00
        E 0 99 2a 00
        E 30 99 23 00
        E 0 99 2e 4f
        E 0 99 2a 4f
        E 0 99 33 4f
        E 0 99 23 64
        E 30 99 33 00
        E 0 99 2a 00
        E 0 99 2e 00
        E 0 99 33 39
        E 30 99 33 00
        E 0 99 3b 00
        E 0 99 23 00
        E 0 99 28 71
        E 0 99 2e 71
        E 0 99 26 71
        E 0 99 2a 71
        E 0 99 33 71
        E 0 99 28 64
        E 0 99 26 64
        E 0 99 31 64
        E 0 99 3b 64
        E 30 99 2a 00
        E 0 99 2e 00
        E 30 99 31 00
        E 0 99 28 00
        E 0 99 26 00
        E 0 99 33 00
        E 0 99 28 00
        E 0 99 26 00
        E 0 99 2e 45
        E 0 99 2a 45
        E 0 99 23 64
        E 30 99 2a 00
        E 0 99 2e 00
        E 0 99 2e 67
        E 0 99 2a 67
        E 0 99 33 67
        E 0 99 26 64
        E 30 99 33 00
        E 0 99 2a 00
        E 0 99 2e 00
        E 0 99 23 00
        E 0 99 3b 00
        E 0 99 2e 71
        E 0 99 2a 71
        E 0 99 33 71
        E 0 99 23 64
        E 0 99 3b 64
        E 30 99 33 00
        E 0 99 2a 00
        E 0 99 26 00
        E 0 99 2e 00
        E 0 99 33 36
        E 0 99 26 64
        E 30 99 33 00
        E 0 99 23 00
        E 0 99 2e 47
        E 0 99 2a 47
        E 0 99 33 47
        E 0 99 23 64
        E 30 99 2a 00
        E 0 99 2e 00
        E 0 99 26 00
        E 30 99 3b 00
        E 0 99 33 00
        E 0 99 23 00
        E 0 99 28 6a
        E 0 99 2e 6a
        E 0 99 26 6a
        E 0 99 2a 6a
        E 0 99 33 6a
        E 0 99 26 64
        E 0 99 28 64
        E 0 99 31 64
        E 0 99 3b 64
        E 30 99 33 00
        E 0 99 2a 00
        E 0 99 2e 00
        E 0 99 33 38
        E 30 99 33 00
        E 0 99 28 00
        E 0 99 26 00
        E 0 99 28 00
        E 0 99 31 00
        E 0 99 26 00
        E 0 99 2e 48
        E 0 99 2a 48
        E 0 99 23 64
        E 30 99 23 00
        E 0 99 2a 00
        E 0 99 2e 00
        E 0 99 26 64
        E 30 99 3b 00
        E 0 99 2a 00
        E 0 99 2e 7c
        E 0 99 2a 7c
        E 0 99 33 7c
        E 0 99 3b 64
        E 0 99 23 64
        E 3 99 26 00
        E 27 99 33 00
        E 0 99 2e 00
        E 0 99 2a 00
        E 30 99 23 00
        E 0 99 2e 41
        E 0 99 2a 41
        E 0 99 33 41
        E 0 99 23 64
        E 30 99 33 00
        E 0 99 2a 00
        E 0 99 2e 00
        E 0 99 33 40
        E 30 99 33 00
        E 0 99 3b 00
        E 0 99 23 00
        E 0 99 28 73
        E 0 99 2e 73
        E 0 99 26 73
        E 0 99 2a 73
        E 0 99 33 73
        E 0 99 28 64
        E 0 99 26 64
        E 0 99 31 64
        E 0 99 3b 64
        E 30 99 2a 00
        E 0 99 2e 00
        E 30 99 31 00
        E 0 99 28 00
        E 0 99 26 00
        E 0 99 33 00
        E 0 99 28 00
        E 0 99 26 00
        E 0 99 2e 4d
        E 0 99 2a 4d
        E 0 99 23 64
        E 30 99 2a 00
        E 0 99 2e 00
        E 0 99 2e 64
        E 0 99 2a 64
        E 0 99 33 64
        E 0 99 26 64
        E 30 99 33 00
        E 0 99 2a 00
        E 0 99 2e 00
        E 0 99 23 00
        E 0 99 3b 00
        E 0 99 2e 68
        E 0 99 2a 68
        E 0 99 33 68
        E 0 99 23 64
        E 0 99 3b 64
        E 30 99 33 00
        E 0 99 2a 00
        E 0 99 26 00
        E 0 99 2e 00
        E 0 99 33 35
        E 0 99 26 64
        E 30 99 33 00
        E 0 99 23 00
        E 0 99 2e 4c
        E 0 99 2a 4c
        E 0 99 33 4c
        E 0 99 23 64
        E 30 99 2a 00
        E 0 99 2e 00
        E 0 99 26 00
        E 30 99 3b 00
        E 0 99 33 00
        E 0 99 23 00
        E 0 99 28 7d
        E 0 99 2e 7d
        E 0 99 26 7d
        E 0 99 2a 7d
        E 0 99 33 7d
        E 0 99 26 64
        E 0 99 28 64
        E 0 99 31 64
        E 0 99 3b 64
        E 30 99 33 00
        E 0 99 2a 00
        E 0 99 2e 00
        E 0 99 33 32
        E 30 99 33 00
        E 0 99 28 00
        E 0 99 26 00
        E 0 99 28 00
        E 0 99 31 00
        E 0 99 26 00
        E 0 99 2e 44
        E 0 99 2a 44
        E 0 99 23 64
        E 30 99 23 00
        E 0 99 2a 00
        E 0 99 2e 00
        E 0 99 26 64
        E 30 99 3b 00
        E 0 99 2a 00
        E 0 99 2e 7f
        E 0 99 2a 7f
        E 0 99 33 7f
        E 0 99 3b 64
        E 0 99 23 64
        E 3 99 26 00
        E 27 99 33 00
        E 0 99 2e 00
        E 0 99 2a 00
        E 30 99 23 00
        E 0 99 2e 4f
        E 0 99 2a 4f
        E 0 99 33 4f
        E 0 99 23 64
        E 30 99 33 00
        E 0 99 2a 00
        E 0 99 2e 00
        E 0 99 33 39
        E 30 99 33 00
        E 0 99 3b 00
        E 0 99 23 00
        E 0 99 28 71
        E 0 99 2e 71
        E 0 99 26 71
        E 0 99 2a 71
        E 0 99 33 71
        E 0 99 28 64
        E 0 99 26 64
        E 0 99 31 64
        E 0 99 3b 64
        E 30 99 2a 00
        E 0 99 2e 00
        E 30 99 31 00
        E 0 99 28 00
        E 0 99 26 00
        E 0 99 33 00
        E 0 99 28 00
        E 0 99 26 00
        E 0 99 2e 45
        E 0 99 2a 45
        E 0 99 23 64
        E 30 99 2a 00
        E 0 99 2e 00
        E 0 99 2e 67
        E 0 99 2a 67
        E 0 99 33 67
        E 0 99 26 64
        E 30 99 33 00
        E 0 99 2a 00
        E 0 99 2e 00
        E 0 99 23 00
        E 0 99 3b 00
        E 0 99 2e 71
        E 0 99 2a 71
        E 0 99 33 71
        E 0 99 23 64
        E 0 99 3b 64
        E 30 99 33 00
        E 0 99 2a 00
        E 0 99 26 00
        E 0 99 2e 00
        E 0 99 33 36
        E 0 99 26 64
        E 30 99 33 00
        E 0 99 23 00
        E 0 99 2e 47
        E 0 99 2a 47
        E 0 99 33 47
        E 0 99 23 64
        E 30 99 2a 00
        E 0 99 2e 00
        E 0 99 26 00
        E 30 99 3b 00
        E 0 99 33 00
        E 0 99 23 00
        E 0 99 28 6a
        E 0 99 2e 6a
        E 0 99 26 6a
        E 0 99 2a 6a
        E 0 99 33 6a
        E 0 99 26 64
        E 0 99 28 64
        E 0 99 31 64
        E 0 99 3b 64
        E 30 99 33 00
        E 0 99 2a 00
        E 0 99 2e 00
        E 0 99 33 38
        E 30 99 33 00
        E 0 99 28 00
        E 0 99 26 00
        E 0 99 28 00
        E 0 99 31 00
        E 0 99 26 00
        E 0 99 2e 48
        E 0 99 2a 48
        E 0 99 23 64
        E 30 99 23 00
        E 0 99 2a 00
        E 0 99 2e 00
        E 0 99 26 64
        E 30 99 3b 00
        E 0 99 2a 00
        E 0 99 2e 7c
        E 0 99 2a 7c
        E 0 99 33 7c
        E 0 99 2e 7c
        E 0 99 28 7c
        E 0 99 3b 64
        E 0 99 23 64
        E 3 99 26 00
        E 27 99 2e 00
        E 0 99 2a 00
        E 0 99 33 00
        E 0 99 28 00
        E 30 99 23 00
        E 0 99 2e 41
        E 0 99 2a 41
        E 0 99 33 41
        E 0 99 23 64
        E 30 99 33 00
        E 0 99 2a 00
        E 0 99 2e 00
        E 0 99 33 40
        E 30 99 33 00
        E 0 99 3b 00
        E 0 99 23 00
        E 0 99 28 73
        E 0 99 2e 73
        E 0 99 26 73
        E 0 99 2a 73
        E 0 99 33 73
        E 0 99 2e 73
        E 0 99 28 64
        E 0 99 26 64
        E 0 99 31 64
        E 0 99 3b 64
        E 30 99 2e 00
        E 0 99 2a 00
        E 30 99 31 00
        E 0 99 28 00
        E 0 99 26 00
        E 0 99 33 00
        E 0 99 28 00
        E 0 99 26 00
        E 0 99 2e 4d
        E 0 99 2a 4d
        E 0 99 28 4d
        E 0 99 23 64
        E 30 99 28 00
        E 0 99 2a 00
        E 0 99 2e 00
        E 0 99 2e 64
        E 0 99 2a 64
        E 0 99 33 64
        E 0 99 28 64
        E 0 99 26 64
        E 30 99 28 00
        E 0 99 2a 00
        E 0 99 3b 00
        E 0 99 2e 00
        E 0 99 23 00
        E 0 99 33 00
        E 0 99 2e 68
        E 0 99 2a 68
        E 0 99 33 68
        E 0 99 2e 68
        E 0 99 23 64
        E 0 99 3b 64
        E 30 99 2e 00
        E 0 99 33 00
        E 0 99 26 00
        E 0 99 2a 00
        E 0 99 2e 00
        E 0 99 33 35
        E 0 99 28 35
        E 0 99 26 64
        E 30 99 28 00
        E 0 99 33 00
        E 0 99 23 00
        E 0 99 2e 4c
        E 0 99 2a 4c
        E 0 99 33 4c
        E 0 99 2b 4c
        E 0 99 23 64
        E 30 99 2b 00
        E 0 99 2e 00
        E 0 99 26 00
        E 0 99 2a 00
        E 30 99 3b 00
        E 0 99 33 00
        E 0 99 23 00
        E 0 99 28 7d
        E 0 99 2e 7d
        E 0 99 26 7d
        E 0 99 2a 7d
        E 0 99 33 7d
        E 30 99 33 00
        E 0 99 28 00
        E 0 99 2e 00
        E 0 99 2a 00
        E 0 99 33 32
        E 0 99 28 32
        E 30 99 28 00
        E 0 99 26 00
        E 0 99 28 00
        E 0 99 33 00
        E 0 99 2e 44
        E 0 99 2a 44
        E 0 99 28 44
        E 30 99 28 00
        E 0 99 2e 00
        E 0 99 2a 00
        E 30 99 2a 00
        E 0 99 33 7f
        E 0 99 1b 7f
        E 0 99 2a 7f
        E 30 99 2a 00
        E 0 99 1b 00
        E 0 99 33 00
        E 0 99 1b 7f
        E 0 99 2a 7f
        E 30 99 2a 00
        E 0 99 1b 00
        E 0 99 1b 7f
        E 0 99 33 4f
        E 30 99 33 00
        E 0 99 1b 00
        E 0 99 1b 7f
        E 0 99 2a 7f
        E 0 99 33 39
        E 30 99 33 00
        E 0 99 2a 00
        E 0 99 1b 00
        E 0 99 26 7f
        E 0 99 28 7f
        E 0 99 1b 7f
        E 0 99 2a 7f
        E 0 99 33 71
        E 0 99 26 71
        E 0 99 28 71
        E 30 99 28 00
        E 0 99 1b 00
        E 0 99 28 00
        E 0 99 26 00
        E 0 99 2a 00
        E 0 99 1b 7f
        E 30 99 1b 00
        E 0 99 26 00
        E 0 99 33 00
        E 0 99 28 00
        E 0 99 1b 7f
        E 0 99 2a 7f
        E 30 99 2a 00
        E 0 99 1b 00
        E 0 99 28 7f
        E 0 99 1b 7f
        E 0 99 33 67
        E 30 99 33 00
        E 0 99 1b 00
        E 0 99 28 00
        E 0 99 1b 7f
        E 0 99 2a 7f
        E 0 99 33 71
        E 30 99 33 00
        E 0 99 2a 00
        E 0 99 1b 00
        E 0 99 1b 7f
        E 0 99 2a 7f
        E 0 99 33 36
        E 30 99 33 00
        E 0 99 2a 00
        E 0 99 1b 00
        E 0 99 1b 7f
        E 0 99 33 47
        E 30 99 1b 00
        E 0 99 1b 7f
        E 0 99 2a 7f
        E 30 99 2a 00
        E 0 99 1b 00
        E 0 99 33 00
        E 0 99 26 7f
        E 0 99 28 7f
        E 0 99 1b 7f
        E 0 99 33 6a
        E 0 99 26 6a
        E 0 99 28 6a
        E 30 99 28 00
        E 0 99 1b 00
        E 0 99 28 00
        E 0 99 26 00
        E 0 99 33 00
        E 0 99 1b 7f
        E 0 99 2a 7f
        E 0 99 33 38
        E 30 99 33 00
        E 0 99 1b 00
        E 0 99 26 00
        E 0 99 28 00
        E 0 99 2a 00
        E 0 99 1b 7f
        E 0 99 2a 48
        E 30 99 1b 00
        E 0 99 1b 7f
        E 0 99 2a 7f
        E 30 99 2a 00
        E 0 99 1b 00
        E 0 99 2a 00
        E 0 99 1b 7f
        E 0 99 2a 7f
        E 0 99 33 7c
        E 30 99 33 00
        E 0 99 2a 00
        E 0 99 1b 00
        E 0 99 1b 7f
        E 0 99 2a 7f
        E 30 99 2a 00
        E 0 99 1b 00
        E 0 99 1b 7f
        E 0 99 33 41
        E 30 99 33 00
        E 0 99 1b 00
        E 0 99 1b 7f
        E 0 99 2a 7f
        E 0 99 33 40
        E 30 99 33 00
        E 0 99 2a 00
        E 0 99 1b 00
        E 0 99 26 7f
        E 0 99 28 7f
        E 0 99 1b 7f
        E 0 99 2a 7f
        E 0 99 33 73
        E 0 99 26 73
        E 0 99 28 73
        E 30 99 28 00
        E 0 99 1b 00
        E 0 99 28 00
        E 0 99 26 00
        E 0 99 2a 00
        E 0 99 1b 7f
        E 30 99 1b 00
        E 0 99 26 00
        E 0 99 33 00
        E 0 99 28 00
        E 0 99 1b 7f
        E 0 99 2a 7f
        E 30 99 2a 00
        E 0 99 1b 00
        E 0 99 28 7f
        E 0 99 1b 7f
        E 0 99 33 64
        E 30 99 33 00
        E 0 99 1b 00
        E 0 99 28 00
        E 0 99 1b 7f
        E 0 99 2a 7f
        E 0 99 33 68
        E 30 99 33 00
        E 0 99 2a 00
        E 0 99 1b 00
        E 0 99 1b 7f
        E 0 99 2a 7f
        E 0 99 33 35
        E 30 99 33 00
        E 0 99 2a 00
        E 0 99 1b 00
        E 0 99 1b 7f
        E 0 99 33 4c
        E 30 99 1b 00
        E 0 99 1b 7f
        E 0 99 2a 7f
        E 30 99 2a 00
        E 0 99 1b 00
        E 0 99 33 00
        E 0 99 33 7d
        E 0 99 26 7d
        E 0 99 28 7d
        E 0 99 26 7f
        E 0 99 28 7f
        E 0 99 1b 7f
        E 30 99 1b 00
        E 0 99 26 00
        E 0 99 28 00
        E 0 99 33 00
        E 0 99 28 00
        E 0 99 1b 7f
        E 0 99 2a 7f
        E 0 99 33 32
        E 30 99 33 00
        E 0 99 1b 00
        E 0 99 26 00
        E 0 99 28 00
        E 0 99 2a 00
        E 0 99 1b 7f
        E 0 99 2a 44
        E 0 99 28 44
        E 30 99 28 00
        E 0 99 1b 00
        E 0 99 1b 7f
        E 0 99 2a 7f
        E 30 99 2a 00
        E 0 99 1b 00
        E 0 99 2a 00
        E 0 99 33 7f
        E 0 99 1b 7f
        E 0 99 2a 7f
        E 30 99 2a 00
        E 0 99 1b 00
        E 0 99 33 00
        E 0 99 1b 7f
        E 0 99 2a 7f
        E 30 99 2a 00
        E 0 99 1b 00
        E 0 99 1b 7f
        E 0 99 33 4f
        E 30 99 33 00
        E 0 99 1b 00
        E 0 99 1b 7f
        E 0 99 2a 7f
        E 0 99 33 39
        E 30 99 33 00
        E 0 99 2a 00
        E 0 99 1b 00
        E 0 99 26 7f
        E 0 99 28 7f
        E 0 99 1b 7f
        E 0 99 2a 7f
        E 0 99 33 71
        E 0 99 26 71
        E 0 99 28 71
        E 30 99 28 00
        E 0 99 1b 00
        E 0 99 28 00
        E 0 99 26 00
        E 0 99 2a 00
        E 0 99 1b 7f
        E 30 99 1b 00
        E 0 99 26 00
        E 0 99 33 00
        E 0 99 28 00
        E 0 99 1b 7f
        E 0 99 2a 7f
        E 30 99 2a 00
        E 0 99 1b 00
        E 0 99 28 7f
        E 0 99 1b 7f
        E 0 99 33 67
        E 30 99 33 00
        E 0 99 1b 00
        E 0 99 28 00
        E 0 99 1b 7f
        E 0 99 2a 7f
        E 0 99 33 71
        E 30 99 33 00
        E 0 99 2a 00
        E 0 99 1b 00
        E 0 99 1b 7f
        E 0 99 2a 7f
        E 0 99 33 36
        E 30 99 33 00
        E 0 99 2a 00
        E 0 99 1b 00
        E 0 99 1b 7f
        E 0 99 33 47
        E 30 99 1b 00
        E 0 99 1b 7f
        E 0 99 2a 7f
        E 30 99 2a 00
        E 0 99 1b 00
        E 0 99 33 00
        E 0 99 26 7f
        E 0 99 28 7f
        E 0 99 1b 7f
        E 0 99 33 6a
        E 0 99 26 6a
        E 0 99 28 6a
        E 30 99 28 00
        E 0 99 1b 00
        E 0 99 28 00
        E 0 99 26 00
        E 0 99 33 00
        E 0 99 1b 7f
        E 0 99 2a 7f
        E 0 99 33 38
        E 30 99 33 00
        E 0 99 1b 00
        E 0 99 26 00
        E 0 99 28 00
        E 0 99 2a 00
        E 0 99 1b 7f
        E 0 99 2a 48
        E 30 99 1b 00
        E 0 99 1b 7f
        E 0 99 2a 7f
        E 30 99 2a 00
        E 0 99 1b 00
        E 0 99 2a 00
        E 0 99 1b 7f
        E 0 99 2a 7f
        E 0 99 33 7c
        E 30 99 33 00
        E 0 99 2a 00
        E 0 99 1b 00
        E 0 99 1b 7f
        E 0 99 2a 7f
        E 30 99 2a 00
        E 0 99 1b 00
        E 0 99 1b 7f
        E 0 99 33 41
        E 30 99 33 00
        E 0 99 1b 00
        E 0 99 1b 7f
        E 0 99 2a 7f
        E 0 99 33 40
        E 30 99 33 00
        E 0 99 2a 00
        E 0 99 1b 00
        E 0 99 26 7f
        E 0 99 28 7f
        E 0 99 1b 7f
        E 0 99 2a 7f
        E 0 99 33 73
        E 0 99 26 73
        E 0 99 28 73
        E 30 99 28 00
        E 0 99 1b 00
        E 0 99 28 00
        E 0 99 26 00
        E 0 99 2a 00
        E 0 99 1b 7f
        E 30 99 1b 00
        E 0 99 26 00
        E 0 99 33 00
        E 0 99 28 00
        E 0 99 1b 7f
        E 0 99 2a 7f
        E 30 99 2a 00
        E 0 99 1b 00
        E 0 99 28 7f
        E 0 99 1b 7f
        E 0 99 33 64
        E 30 99 33 00
        E 0 99 1b 00
        E 0 99 28 00
        E 0 99 1b 7f
        E 0 99 2a 7f
        E 0 99 33 68
        E 30 99 33 00
        E 0 99 2a 00
        E 0 99 1b 00
        E 0 99 1b 7f
        E 0 99 2a 7f
        E 0 99 33 35
        E 30 99 33 00
        E 0 99 2a 00
        E 0 99 1b 00
        E 0 99 1b 7f
        E 0 99 33 4c
        E 30 99 1b 00
        E 0 99 1b 7f
        E 0 99 2a 7f
        E 30 99 2a 00
        E 0 99 1b 00
        E 0 99 33 00
        E 0 99 33 7d
        E 0 99 26 7d
        E 0 99 28 7d
        E 0 99 26 7f
        E 0 99 28 7f
        E 0 99 1b 7f
        E 30 99 1b 00
        E 0 99 26 00
        E 0 99 28 00
        E 0 99 33 00
        E 0 99 28 00
        E 0 99 1b 7f
        E 0 99 2a 7f
        E 0 99 33 32
        E 30 99 33 00
        E 0 99 1b 00
        E 0 99 26 00
        E 0 99 28 00
        E 0 99 2a 00
        E 0 99 2a 44
        E 0 99 1b 7f
        E 0 99 28 44
        E 30 99 28 00
        E 0 99 1b 00
        E 0 99 1b 7f
        E 0 99 2a 7f
        E 30 99 2a 00
        E 0 99 1b 00
        E 0 99 2a 00
        E 0 99 1b 7f
        E 0 99 2a 7f
        E 0 99 33 7c
        E 0 99 2a 7c
        E 30 99 2a 00
        E 0 99 1b 00
        E 0 99 2a 00
        E 0 99 33 00
        E 0 99 1b 7f
        E 0 99 2a 7f
        E 30 99 2a 00
        E 0 99 1b 00
        E 0 99 1b 7f
        E 0 99 33 41
        E 0 99 2a 41
        E 30 99 2a 00
        E 0 99 33 00
        E 0 99 1b 00
        E 0 99 1b 7f
        E 0 99 2a 7f
        E 0 99 33 40
        E 30 99 33 00
        E 0 99 2a 00
        E 0 99 1b 00
        E 0 99 26 7f
        E 0 99 28 7f
        E 0 99 1b 7f
        E 0 99 2a 7f
        E 0 99 33 73
        E 0 99 28 73
        E 0 99 2a 73
        E 30 99 2a 00
        E 0 99 28 00
        E 0 99 1b 00
        E 0 99 26 00
        E 0 99 28 00
        E 0 99 1b 7f
        E 30 99 1b 00
        E 0 99 33 00
        E 0 99 1b 7f
        E 0 99 2a 4d
        E 30 99 2a 00
        E 0 99 1b 00
        E 0 99 28 7f
        E 0 99 1b 7f
        E 0 99 33 64
        E 0 99 28 64
        E 30 99 28 00
        E 0 99 1b 00
        E 0 99 33 00
        E 0 99 1b 7f
        E 0 99 2a 7f
        E 0 99 33 68
        E 0 99 2a 68
        E 30 99 2a 00
        E 0 99 1b 00
        E 0 99 2a 00
        E 0 99 33 00
        E 0 99 1b 7f
        E 0 99 2a 7f
        E 0 99 33 35
        E 0 99 28 35
        E 30 99 28 00
        E 0 99 1b 00
        E 0 99 2a 00
        E 0 99 33 00
        E 0 99 1b 7f
        E 0 99 33 4c
        E 0 99 2a 4c
        E 30 99 2a 00
        E 0 99 1b 00
        E 0 99 1b 7f
        E 0 99 2a 7f
        E 30 99 2a 00
        E 0 99 1b 00
        E 0 99 33 00
        E 0 99 26 7f
        E 0 99 28 7f
        E 0 99 1b 7f
        E 0 99 33 7d
        E 0 99 28 7d
        E 0 99 2a 7d
        E 30 99 2a 00
        E 0 99 28 00
        E 0 99 1b 00
        E 0 99 26 00
        E 0 99 28 00
        E 0 99 33 00
        E 0 99 1b 7f
        E 0 99 2a 7f
        E 0 99 33 32
        E 30 99 33 00
        E 0 99 2a 00
        E 0 99 1b 00
        E 0 99 1b 7f
        E 0 99 2a 44
        E 0 99 28 44
        E 0 99 2a 44
        E 30 99 28 00
        E 0 99 1b 00
        E 0 99 2a 00
        E 0 99 1b 7f
        E 0 99 2a 7f
        E 0 99 28 3e
        E 30 99 28 00
        E 0 99 2a 00
        E 0 99 1b 00
        E 0 99 2a 00
        E 0 99 1b 7f
        E 0 99 2a 7f
        E 0 99 33 7f
        E 0 99 2a 7f
        E 30 99 2a 00
        E 0 99 1b 00
        E 0 99 2a 00
        E 0 99 33 00
        E 0 99 1b 7f
        E 0 99 2a 7f
        E 30 99 2a 00
        E 0 99 1b 00
        E 0 99 1b 7f
        E 0 99 33 4f
        E 0 99 2a 4f
        E 30 99 2a 00
        E 0 99 33 00
        E 0 99 1b 00
        E 0 99 1b 7f
        E 0 99 2a 7f
        E 0 99 33 39
        E 30 99 33 00
        E 0 99 2a 00
        E 0 99 1b 00
        E 0 99 26 7f
        E 0 99 28 7f
        E 0 99 1b 7f
        E 0 99 2a 7f
        E 0 99 33 71
        E 0 99 28 71
        E 0 99 2a 71
        E 30 99 2a 00
        E 0 99 28 00
        E 0 99 1b 00
        E 0 99 26 00
        E 0 99 28 00
        E 0 99 1b 7f
        E 30 99 1b 00
        E 0 99 33 00
        E 0 99 1b 7f
        E 0 99 2a 45
        E 30 99 2a 00
        E 0 99 1b 00
        E 0 99 28 7f
        E 0 99 1b 7f
        E 0 99 33 67
        E 0 99 28 67
        E 30 99 28 00
        E 0 99 1b 00
        E 0 99 33 00
        E 0 99 1b 7f
        E 0 99 2a 7f
        E 0 99 33 71
        E 0 99 2a 71
        E 30 99 2a 00
        E 0 99 1b 00
        E 0 99 2a 00
        E 0 99 33 00
        E 0 99 1b 7f
        E 0 99 2a 7f
        E 0 99 33 36
        E 0 99 28 36
        E 30 99 28 00
        E 0 99 1b 00
        E 0 99 2a 00
        E 0 99 33 00
        E 0 99 1b 7f
        E 0 99 33 47
        E 0 99 2a 47
        E 30 99 2a 00
        E 0 99 1b 00
        E 0 99 1b 7f
        E 0 99 2a 7f
        E 30 99 2a 00
        E 0 99 1b 00
        E 0 99 33 00
        E 0 99 26 7f
        E 0 99 28 7f
        E 0 99 1b 7f
        E 0 99 33 6a
        E 0 99 28 6a
        E 0 99 2a 6a
        E 30 99 2a 00
        E 0 99 28 00
        E 0 99 1b 00
        E 0 99 26 00
        E 0 99 28 00
        E 0 99 33 00
        E 0 99 1b 7f
        E 0 99 2a 7f
        E 0 99 33 38
        E 30 99 33 00
        E 0 99 2a 00
        E 0 99 1b 00
        E 0 99 1b 7f
        E 0 99 2a 48
        E 0 99 28 48
        E 0 99 2a 48
        E 30 99 28 00
        E 0 99 1b 00
        E 0 99 2a 00
        E 0 99 1b 7f
        E 0 99 2a 7f
        E 0 99 28 4d
        E 30 99 28 00
        E 0 99 2a 00
        E 0 99 1b 00
        E 0 99 2a 00
        E 0 99 1b 7f
        E 0 99 2a 7f
        E 0 99 33 7c
        E 0 99 2a 7c
        E 30 99 2a 00
        E 0 99 1b 00
        E 0 99 2a 00
        E 0 99 33 00
        E 0 99 1b 7f
        E 0 99 2a 7f
        E 30 99 2a 00
        E 0 99 1b 00
        E 0 99 1b 7f
        E 0 99 33 41
        E 0 99 2a 41
        E 30 99 2a 00
        E 0 99 33 00
        E 0 99 1b 00
        E 0 99 1b 7f
        E 0 99 2a 7f
        E 0 99 33 40
        E 30 99 33 00
        E 0 99 2a 00
        E 0 99 1b 00
        E 0 99 26 7f
        E 0 99 28 7f
        E 0 99 1b 7f
        E 0 99 2a 7f
        E 0 99 33 73
        E 0 99 28 73
        E 0 99 2a 73
        E 30 99 2a 00
        E 0 99 28 00
        E 0 99 1b 00
        E 0 99 26 00
        E 0 99 28 00
        E 0 99 1b 7f
        E 30 99 1b 00
        E 0 99 33 00
        E 0 99 1b 7f
        E 0 99 2a 4d
        E 30 99 2a 00
        E 0 99 1b 00
        E 0 99 28 7f
        E 0 99 1b 7f
        E 0 99 33 64
        E 0 99 28 64
        E 30 99 28 00
        E 0 99 1b 00
        E 0 99 33 00
        E 0 99 1b 7f
        E 0 99 2a 7f
        E 0 99 33 68
        E 0 99 2a 68
        E 30 99 2a 00
        E 0 99 1b 00
        E 0 99 2a 00
        E 0 99 33 00
        E 0 99 1b 7f
        E 0 99 2a 7f
        E 0 99 33 35
        E 0 99 28 35
        E 30 99 28 00
        E 0 99 1b 00
        E 0 99 2a 00
        E 0 99 33 00
        E 0 99 1b 7f
        E 0 99 33 4c
        E 0 99 2a 4c
        E 30 99 2a 00
        E 0 99 1b 00
        E 0 99 1b 7f
        E 0 99 2a 7f
        E 30 99 2a 00
        E 0 99 1b 00
        E 0 99 33 00
        E 0 99 26 7f
        E 0 99 28 7f
        E 0 99 1b 7f
        E 0 99 33 7d
        E 0 99 28 7d
        E 0 99 2a 7d
        E 30 99 2a 00
        E 0 99 28 00
        E 0 99 1b 00
        E 0 99 26 00
        E 0 99 28 00
        E 0 99 33 00
        E 0 99 1b 7f
        E 0 99 2a 7f
        E 0 99 33 32
        E 30 99 33 00
        E 0 99 2a 00
        E 0 99 1b 00
        E 0 99 1b 7f
        E 0 99 2a 44
        E 0 99 28 44
        E 0 99 2a 44
        E 30 99 28 00
        E 0 99 1b 00
        E 0 99 2a 00
        E 0 99 1b 7f
        E 0 99 2a 7f
        E 0 99 28 3e
        E 30 99 28 00
        E 0 99 2a 00
        E 0 99 1b 00
        E 0 99 2a 00
        E 0 99 1b 7f
        E 0 99 2a 7f
        E 0 99 33 7f
        E 0 99 2a 7f
        E 30 99 2a 00
        E 0 99 1b 00
        E 0 99 2a 00
        E 0 99 33 00
        E 0 99 1b 7f
        E 0 99 2a 7f
        E 30 99 2a 00
        E 0 99 1b 00
        E 0 99 1b 7f
        E 0 99 33 4f
        E 0 99 2a 4f
        E 30 99 2a 00
        E 0 99 33 00
        E 0 99 1b 00
        E 0 99 1b 7f
        E 0 99 2a 7f
        E 0 99 33 39
        E 30 99 33 00
        E 0 99 2a 00
        E 0 99 1b 00
        E 0 99 26 7f
        E 0 99 28 7f
        E 0 99 1b 7f
        E 0 99 2a 7f
        E 0 99 33 71
        E 0 99 28 71
        E 0 99 2a 71
        E 30 99 2a 00
        E 0 99 28 00
        E 0 99 1b 00
        E 0 99 26 00
        E 0 99 28 00
        E 0 99 1b 7f
        E 30 99 1b 00
        E 0 99 33 00
        E 0 99 1b 7f
        E 0 99 2a 45
        E 30 99 2a 00
        E 0 99 1b 00
        E 0 99 28 7f
        E 0 99 1b 7f
        E 0 99 33 67
        E 0 99 28 67
        E 30 99 28 00
        E 0 99 1b 00
        E 0 99 33 00
        E 0 99 1b 7f
        E 0 99 2a 7f
        E 0 99 33 71
        E 0 99 2a 71
        E 30 99 2a 00
        E 0 99 1b 00
        E 0 99 2a 00
        E 0 99 33 00
        E 0 99 1b 7f
        E 0 99 2a 7f
        E 0 99 33 36
        E 0 99 28 36
        E 30 99 28 00
        E 0 99 1b 00
        E 0 99 2a 00
        E 0 99 33 00
        E 0 99 1b 7f
        E 0 99 33 47
        E 0 99 2a 47
        E 30 99 2a 00
        E 0 99 1b 00
        E 0 99 1b 7f
        E 0 99 2a 7f
        E 30 99 2a 00
        E 0 99 1b 00
        E 0 99 33 00
        E 0 99 26 7f
        E 0 99 28 7f
        E 0 99 1b 7f
        E 0 99 33 6a
        E 0 99 28 6a
        E 0 99 2a 6a
        E 30 99 2a 00
        E 0 99 28 00
        E 0 99 1b 00
        E 0 99 26 00
        E 0 99 28 00
        E 0 99 33 00
        E 0 99 1b 7f
        E 0 99 2a 7f
        E 0 99 33 38
        E 30 99 33 00
        E 0 99 2a 00
        E 0 99 1b 00
        E 0 99 1b 7f
        E 0 99 2a 48
        E 0 99 28 48
        E 0 99 2a 48
        E 30 99 28 00
        E 0 99 1b 00
        E 0 99 2a 00
        E 0 99 1b 7f
        E 0 99 2a 7f
        E 0 99 28 4d
        E 30 99 28 00
        E 0 99 2a 00
        E 0 99 1b 00
        E 0 99 2a 00
        E 0 99 1b 7f
        E 0 99 2a 7f
        E 0 99 33 7c
        E 0 99 2a 7c
        E 30 99 2a 00
        E 0 99 1b 00
        E 0 99 2a 00
        E 0 99 33 00
        E 0 99 1b 7f
        E 0 99 2a 7f
        E 30 99 2a 00
        E 0 99 1b 00
        E 0 99 1b 7f
        E 0 99 33 41
        E 0 99 2a 41
        E 30 99 2a 00
        E 0 99 33 00
        E 0 99 1b 00
        E 0 99 1b 7f
        E 0 99 2a 7f
        E 0 99 33 40
        E 30 99 33 00
        E 0 99 2a 00
        E 0 99 1b 00
        E 0 99 26 7f
        E 0 99 28 7f
        E 0 99 1b 7f
        E 0 99 2a 7f
        E 0 99 33 73
        E 0 99 28 73
        E 0 99 2a 73
        E 30 99 2a 00
        E 0 99 28 00
        E 0 99 1b 00
        E 0 99 26 00
        E 0 99 28 00
        E 0 99 1b 7f
        E 30 99 1b 00
        E 0 99 33 00
        E 0 99 1b 7f
        E 0 99 2a 4d
        E 30 99 2a 00
        E 0 99 1b 00
        E 0 99 28 7f
        E 0 99 1b 7f
        E 0 99 33 64
        E 0 99 28 64
        E 30 99 28 00
        E 0 99 1b 00
        E 0 99 33 00
        E 0 99 1b 7f
        E 0 99 2a 7f
        E 0 99 33 68
        E 0 99 2a 68
        E 30 99 2a 00
        E 0 99 1b 00
        E 0 99 2a 00
        E 0 99 33 00
        E 0 99 1b 7f
        E 0 99 2a 7f
        E 0 99 33 35
        E 0 99 28 35
        E 30 99 28 00
        E 0 99 1b 00
        E 0 99 2a 00
        E 0 99 33 00
        E 0 99 1b 7f
        E 0 99 33 4c
        E 0 99 2a 4c
        E 30 99 2a 00
        E 0 99 1b 00
        E 0 99 1b 7f
        E 0 99 2a 7f
        E 30 99 2a 00
        E 0 99 1b 00
        E 0 99 33 00
        E 0 99 26 7f
        E 0 99 28 7f
        E 0 99 1b 7f
        E 0 99 33 7d
        E 0 99 28 7d
        E 0 99 2a 7d
        E 30 99 2a 00
        E 0 99 28 00
        E 0 99 1b 00
        E 0 99 26 00
        E 0 99 28 00
        E 0 99 33 00
        E 0 99 1b 7f
        E 0 99 2a 7f
        E 0 99 33 32
        E 30 99 33 00
        E 0 99 2a 00
        E 0 99 1b 00
        E 0 99 1b 7f
        E 0 99 2a 44
        E 0 99 28 44
        E 0 99 2a 44
        E 30 99 28 00
        E 0 99 1b 00
        E 0 99 2a 00
        E 0 99 1b 7f
        E 0 99 2a 7f
        E 0 99 28 3e
        E 30 99 28 00
        E 0 99 2a 00
        E 0 99 1b 00
        E 0 99 2a 00
        E 0 99 1b 7f
        E 0 99 2a 7f
        E 0 99 33 7f
        E 0 99 2a 7f
        E 30 99 2a 00
        E 0 99 1b 00
        E 0 99 2a 00
        E 0 99 33 00
        E 0 99 1b 7f
        E 0 99 2a 7f
        E 30 99 2a 00
        E 0 99 1b 00
        E 0 99 1b 7f
        E 0 99 33 4f
        E 0 99 2a 4f
        E 30 99 2a 00
        E 0 99 33 00
        E 0 99 1b 00
        E 0 99 1b 7f
        E 0 99 2a 7f
        E 0 99 33 39
        E 30 99 33 00
        E 0 99 2a 00
        E 0 99 1b 00
        E 0 99 26 7f
        E 0 99 28 7f
        E 0 99 1b 7f
        E 0 99 2a 7f
        E 0 99 33 71
        E 0 99 28 71
        E 0 99 2a 71
        E 30 99 2a 00
        E 0 99 28 00
        E 0 99 1b 00
        E 0 99 26 00
        E 0 99 28 00
        E 0 99 1b 7f
        E 30 99 1b 00
        E 0 99 33 00
        E 0 99 1b 7f
        E 0 99 2a 45
        E 30 99 2a 00
        E 0 99 1b 00
        E 0 99 28 7f
        E 0 99 1b 7f
        E 0 99 33 67
        E 0 99 28 67
        E 30 99 28 00
        E 0 99 1b 00
        E 0 99 33 00
        E 0 99 1b 7f
        E 0 99 2a 7f
        E 0 99 33 71
        E 0 99 2a 71
        E 0 99 2e 64
        E 0 99 28 64
        E 0 99 26 64
        E 30 99 26 00
        E 0 99 2e 00
        E 0 99 2a 00
        E 0 99 33 00
        E 0 99 1b 00
        E 0 99 28 00
        E 0 99 2a 00
        E 0 99 1b 7f
        E 0 99 2a 7f
        E 0 99 33 36
        E 0 99 28 64
        E 0 99 26 64
        E 0 99 2c 64
        E 30 99 2c 00
        E 0 99 28 00
        E 0 99 2a 00
        E 0 99 33 00
        E 0 99 1b 00
        E 0 99 26 00
        E 0 99 28 00
        E 0 99 1b 7f
        E 0 99 33 47
        E 0 99 2a 47
        E 0 99 2e 64
        E 30 99 2e 00
        E 0 99 2a 00
        E 0 99 1b 00
        E 0 99 1b 7f
        E 0 99 2a 7f
        E 0 99 28 64
        E 30 99 28 00
        E 0 99 33 00
        E 0 99 1b 00
        E 0 99 2a 00
        E 0 99 28 64
        E 0 99 26 7f
        E 0 99 28 7f
        E 0 99 1b 7f
        E 0 99 33 6a
        E 0 99 28 6a
        E 0 99 2a 6a
        E 0 99 2e 64
        E 0 99 26 64
        E 0 99 28 64
        E 30 99 28 00
        E 0 99 1b 00
        E 0 99 28 00
        E 0 99 33 00
        E 0 99 26 00
        E 0 99 2e 00
        E 0 99 2a 00
        E 0 99 28 00
        E 0 99 26 00
        E 0 99 1b 7f
        E 0 99 2a 7f
        E 0 99 33 38
        E 0 99 28 64
        E 0 99 26 64
        E 30 99 26 00
        E 0 99 33 00
        E 0 99 1b 00
        E 0 99 2a 00
        E 0 99 28 00
        E 0 99 1b 7f
        E 0 99 2a 48
        E 0 99 28 48
        E 0 99 2a 48
        E 0 99 2e 64
        E 30 99 2e 00
        E 0 99 1b 00
        E 0 99 28 00
        E 0 99 2a 00
        E 0 99 1b 7f
        E 0 99 2a 7f
        E 0 99 28 64
        E 0 99 26 64
        E 30 99 26 00
        E 0 99 1b 00
        E 0 99 2a 00
        E 0 99 28 00
        E 0 99 1b 7f
        E 0 99 2a 7f
        E 0 99 33 7c
        E 0 99 2a 7c
        E 30 99 2a 00
        E 0 99 1b 00
        E 0 99 2a 00
        E 0 99 33 00
        E 0 99 1b 7f
        E 0 99 2a 7f
        E 30 99 2a 00
        E 0 99 1b 00
        E 0 99 1b 7f
        E 0 99 33 41
        E 0 99 2a 41
        E 30 99 2a 00
        E 0 99 33 00
        E 0 99 1b 00
        E 0 99 1b 7f
        E 0 99 2a 7f
        E 0 99 33 40
        E 30 99 33 00
        E 0 99 2a 00
        E 0 99 1b 00
        E 0 99 26 7f
        E 0 99 28 7f
        E 0 99 1b 7f
        E 0 99 2a 7f
        E 0 99 33 73
        E 0 99 28 73
        E 0 99 2a 73
        E 30 99 2a 00
        E 0 99 28 00
        E 0 99 1b 00
        E 0 99 26 00
        E 0 99 28 00
        E 0 99 1b 7f
        E 30 99 1b 00
        E 0 99 33 00
        E 0 99 1b 7f
        E 0 99 2a 4d
        E 30 99 2a 00
        E 0 99 1b 00
        E 0 99 28 7f
        E 0 99 1b 7f
        E 0 99 33 64
        E 0 99 28 64
        E 30 99 28 00
        E 0 99 1b 00
        E 0 99 33 00
        E 0 99 1b 7f
        E 0 99 2a 7f
        E 0 99 33 68
        E 0 99 2a 68
        E 30 99 2a 00
        E 0 99 1b 00
        E 0 99 2a 00
        E 0 99 33 00
        E 0 99 1b 7f
        E 0 99 2a 7f
        E 0 99 33 35
        E 0 99 28 35
        E 30 99 28 00
        E 0 99 1b 00
        E 0 99 2a 00
        E 0 99 33 00
        E 0 99 1b 7f
        E 0 99 33 4c
        E 0 99 2a 4c
        E 30 99 2a 00
        E 0 99 1b 00
        E 0 99 1b 7f
        E 0 99 2a 7f
        E 30 99 2a 00
        E 0 99 1b 00
        E 0 99 33 00
        E 0 99 26 7f
        E 0 99 28 7f
        E 0 99 1b 7f
        E 0 99 33 7d
        E 0 99 28 7d
        E 0 99 2a 7d
        E 30 99 2a 00
        E 0 99 28 00
        E 0 99 1b 00
        E 0 99 26 00
        E 0 99 28 00
        E 0 99 33 00
        E 0 99 1b 7f
        E 0 99 2a 7f
        E 0 99 33 32
        E 30 99 33 00
        E 0 99 2a 00
        E 0 99 1b 00
        E 0 99 1b 7f
        E 0 99 2a 44
        E 0 99 28 44
        E 0 99 2a 44
        E 30 99 28 00
        E 0 99 1b 00
        E 0 99 2a 00
        E 0 99 1b 7f
        E 0 99 2a 7f
        E 0 99 28 3e
        E 30 99 28 00
        E 0 99 2a 00
        E 0 99 1b 00
        E 0 99 2a 00
        E 0 99 1b 7f
        E 0 99 2a 7f
        E 0 99 33 7f
        E 0 99 2a 7f
        E 30 99 2a 00
        E 0 99 1b 00
        E 0 99 2a 00
        E 0 99 33 00
        E 0 99 1b 7f
        E 0 99 2a 7f
        E 30 99 2a 00
        E 0 99 1b 00
        E 0 99 1b 7f
        E 0 99 33 4f
        E 0 99 2a 4f
        E 30 99 2a 00
        E 0 99 33 00
        E 0 99 1b 00
        E 0 99 1b 7f
        E 0 99 2a 7f
        E 0 99 33 39
        E 30 99 33 00
        E 0 99 2a 00
        E 0 99 1b 00
        E 0 99 26 7f
        E 0 99 28 7f
        E 0 99 1b 7f
        E 0 99 2a 7f
        E 0 99 33 71
        E 0 99 28 71
        E 0 99 2a 71
        E 30 99 2a 00
        E 0 99 28 00
        E 0 99 1b 00
        E 0 99 26 00
        E 0 99 28 00
        E 0 99 1b 7f
        E 30 99 1b 00
        E 0 99 33 00
        E 0 99 1b 7f
        E 0 99 2a 45
        E 30 99 2a 00
        E 0 99 1b 00
        E 0 99 28 7f
        E 0 99 1b 7f
        E 0 99 33 67
        E 0 99 28 67
        E 30 99 28 00
        E 0 99 1b 00
        E 0 99 33 00
        E 0 99 1b 7f
        E 0 99 2a 7f
        E 0 99 33 71
        E 0 99 2a 71
        E 30 99 2a 00
        E 0 99 1b 00
        E 0 99 2a 00
        E 0 99 33 00
        E 0 99 1b 7f
        E 0 99 2a 7f
        E 0 99 33 36
        E 0 99 28 36
        E 30 99 28 00
        E 0 99 1b 00
        E 0 99 2a 00
        E 0 99 33 00
        E 0 99 1b 7f
        E 0 99 33 47
        E 0 99 2a 47
        E 30 99 2a 00
        E 0 99 1b 00
        E 0 99 1b 7f
        E 0 99 2a 7f
        E 30 99 2a 00
        E 0 99 1b 00
        E 0 99 33 00
        E 0 99 26 7f
        E 0 99 28 7f
        E 0 99 1b 7f
        E 0 99 33 6a
        E 0 99 28 6a
        E 0 99 2a 6a
        E 30 99 2a 00
        E 0 99 28 00
        E 0 99 1b 00
        E 0 99 26 00
        E 0 99 28 00
        E 0 99 33 00
        E 0 99 1b 7f
        E 0 99 2a 7f
        E 0 99 33 38
        E 30 99 33 00
        E 0 99 2a 00
        E 0 99 1b 00
        E 0 99 1b 7f
        E 0 99 2a 48
        E 0 99 28 48
        E 0 99 2a 48
        E 30 99 28 00
        E 0 99 1b 00
        E 0 99 2a 00
        E 0 99 1b 7f
        E 0 99 2a 7f
        E 0 99 28 4d
        E 30 99 28 00
        E 0 99 2a 00
        E 0 99 1b 00
        E 0 99 2a 00
        E 0 99 1b 7f
        E 0 99 2a 7f
        E 0 99 33 7f
        E 0 99 2a 7f
        E 30 99 2a 00
        E 0 99 1b 00
        E 0 99 2a 00
        E 0 99 33 00
        E 0 99 1b 7f
        E 0 99 2a 7f
        E 30 99 2a 00
        E 0 99 1b 00
        E 0 99 1b 7f
        E 0 99 33 4f
        E 0 99 2a 4f
        E 30 99 2a 00
        E 0 99 33 00
        E 0 99 1b 00
        E 0 99 1b 7f
        E 0 99 2a 7f
        E 0 99 26 7f
        E 0 99 28 7f
        E 0 99 2a 7f
        E 0 99 33 39
        E 30 99 33 00
        E 0 99 2a 00
        E 0 99 26 00
        E 0 99 1b 00
        E 0 99 2a 00
        E 0 99 28 00
        E 0 99 26 7f
        E 0 99 28 7f
        E 0 99 1b 7f
        E 0 99 2a 7f
        E 0 99 33 71
        E 0 99 28 71
        E 0 99 2a 71
        E 30 99 2a 00
        E 0 99 28 00
        E 0 99 1b 00
        E 0 99 26 00
        E 0 99 28 00
        E 0 99 1b 7f
        E 30 99 1b 00
        E 0 99 33 00
        E 0 99 1b 7f
        E 0 99 2a 45
        E 30 99 2a 00
        E 0 99 1b 00
        E 0 99 28 7f
        E 0 99 1b 7f
        E 0 99 33 67
        E 0 99 28 67
        E 30 99 28 00
        E 0 99 1b 00
        E 0 99 33 00
        E 0 99 1b 7f
        E 0 99 2a 7f
        E 0 99 26 7f
        E 0 99 28 7f
        E 0 99 2a 7f
        E 0 99 33 71
        E 0 99 2a 71
        E 30 99 2a 00
        E 0 99 26 00
        E 0 99 1b 00
        E 0 99 33 00
        E 0 99 28 00
        E 0 99 1b 7f
        E 0 99 2a 7f
        E 0 99 33 36
        E 0 99 28 36
        E 30 99 28 00
        E 0 99 1b 00
        E 0 99 2a 00
        E 0 99 33 00
        E 0 99 1b 7f
        E 0 99 33 47
        E 0 99 2a 47
        E 30 99 2a 00
        E 0 99 1b 00
        E 0 99 1b 7f
        E 0 99 2a 7f
        E 30 99 2a 00
        E 0 99 1b 00
        E 0 99 33 00
        E 0 99 26 7f
        E 0 99 28 7f
        E 0 99 1b 7f
        E 0 99 33 6a
        E 0 99 28 6a
        E 0 99 2a 6a
        E 30 99 2a 00
        E 0 99 28 00
        E 0 99 1b 00
        E 0 99 26 00
        E 0 99 28 00
        E 0 99 33 00
        E 0 99 1b 7f
        E 0 99 2a 7f
        E 0 99 33 38
        E 30 99 33 00
        E 0 99 2a 00
        E 0 99 1b 00
        E 0 99 1b 7f
        E 0 99 26 7f
        E 0 99 28 7f
        E 0 99 2a 48
        E 0 99 28 48
        E 0 99 2a 48
        E 30 99 28 00
        E 0 99 2a 00
        E 0 99 26 00
        E 0 99 28 00
        E 0 99 1b 00
        E 0 99 2a 00
        E 0 99 1b 7f
        E 0 99 2a 7f
        E 0 99 28 4d
        E 30 99 28 00
        E 0 99 2a 00
        E 0 99 1b 00
        E 0 99 2a 00
        E 0 99 2e 7c
        E 0 99 2a 7c
        E 0 99 33 7c
        E 0 99 3b 64
        E 0 99 23 64
        E 30 99 33 00
        E 0 99 2e 00
        E 0 99 2a 00
        E 30 99 23 00
        E 0 99 2e 41
        E 0 99 2a 41
        E 0 99 33 41
        E 0 99 23 64
        E 30 99 33 00
        E 0 99 2a 00
        E 0 99 2e 00
        E 0 99 33 40
        E 30 99 33 00
        E 0 99 3b 00
        E 0 99 23 00
        E 0 99 28 73
        E 0 99 2e 73
        E 0 99 26 73
        E 0 99 2a 73
        E 0 99 33 73
        E 0 99 28 64
        E 0 99 26 64
        E 0 99 31 64
        E 0 99 3b 64
        E 30 99 2a 00
        E 0 99 2e 00
        E 30 99 31 00
        E 0 99 28 00
        E 0 99 26 00
        E 0 99 33 00
        E 0 99 28 00
        E 0 99 26 00
        E 0 99 2e 4d
        E 0 99 2a 4d
        E 0 99 23 64
        E 30 99 2a 00
        E 0 99 2e 00
        E 0 99 2e 64
        E 0 99 2a 64
        E 0 99 33 64
        E 0 99 26 64
        E 30 99 33 00
        E 0 99 2a 00
        E 0 99 2e 00
        E 0 99 23 00
        E 0 99 3b 00
        E 0 99 2e 68
        E 0 99 2a 68
        E 0 99 33 68
        E 0 99 23 64
        E 0 99 3b 64
        E 30 99 33 00
        E 0 99 2a 00
        E 0 99 26 00
        E 0 99 2e 00
        E 0 99 33 35
        E 0 99 26 64
        E 30 99 33 00
        E 0 99 23 00
        E 0 99 2e 4c
        E 0 99 2a 4c
        E 0 99 33 4c
        E 0 99 23 64
        E 30 99 2a 00
        E 0 99 2e 00
        E 0 99 26 00
        E 30 99 3b 00
        E 0 99 33 00
        E 0 99 23 00
        E 0 99 28 7d
        E 0 99 2e 7d
        E 0 99 26 7d
        E 0 99 2a 7d
        E 0 99 33 7d
        E 0 99 26 64
        E 0 99 28 64
        E 0 99 31 64
        E 0 99 3b 64
        E 30 99 33 00
        E 0 99 2a 00
        E 0 99 2e 00
        E 0 99 33 32
        E 30 99 33 00
        E 0 99 28 00
        E 0 99 26 00
        E 0 99 28 00
        E 0 99 31 00
        E 0 99 26 00
        E 0 99 2e 44
        E 0 99 2a 44
        E 0 99 23 64
        E 30 99 23 00
        E 0 99 2a 00
        E 0 99 2e 00
        E 0 99 26 64
        E 30 99 3b 00
        E 0 99 2a 00
        E 0 99 2e 7f
        E 0 99 2a 7f
        E 0 99 33 7f
        E 0 99 3b 64
        E 0 99 23 64
        E 3 99 26 00
        E 27 99 33 00
        E 0 99 2e 00
        E 0 99 2a 00
        E 30 99 23 00
        E 0 99 2e 4f
        E 0 99 2a 4f
        E 0 99 33 4f
        E 0 99 23 64
        E 30 99 33 00
        E 0 99 2a 00
        E 0 99 2e 00
        E 0 99 33 39
        E 30 99 33 00
        E 0 99 3b 00
        E 0 99 23 00
        E 0 99 28 71
        E 0 99 2e 71
        E 0 99 26 71
        E 0 99 2a 71
        E 0 99 33 71
        E 0 99 28 64
        E 0 99 26 64
        E 0 99 31 64
        E 0 99 3b 64
        E 30 99 2a 00
        E 0 99 2e 00
        E 30 99 31 00
        E 0 99 28 00
        E 0 99 26 00
        E 0 99 33 00
        E 0 99 28 00
        E 0 99 26 00
        E 0 99 2e 45
        E 0 99 2a 45
        E 0 99 23 64
        E 30 99 2a 00
        E 0 99 2e 00
        E 0 99 2e 67
        E 0 99 2a 67
        E 0 99 33 67
        E 0 99 26 64
        E 30 99 33 00
        E 0 99 2a 00
        E 0 99 2e 00
        E 0 99 23 00
        E 0 99 3b 00
        E 0 99 2e 71
        E 0 99 2a 71
        E 0 99 33 71
        E 0 99 23 64
        E 0 99 3b 64
        E 30 99 33 00
        E 0 99 2a 00
        E 0 99 26 00
        E 0 99 2e 00
        E 0 99 33 36
        E 0 99 26 64
        E 30 99 33 00
        E 0 99 23 00
        E 0 99 2e 47
        E 0 99 2a 47
        E 0 99 33 47
        E 0 99 23 64
        E 30 99 2a 00
        E 0 99 2e 00
        E 0 99 26 00
        E 30 99 3b 00
        E 0 99 33 00
        E 0 99 23 00
        E 0 99 28 6a
        E 0 99 2e 6a
        E 0 99 26 6a
        E 0 99 2a 6a
        E 0 99 33 6a
        E 0 99 26 64
        E 0 99 28 64
        E 0 99 31 64
        E 0 99 3b 64
        E 30 99 33 00
        E 0 99 2a 00
        E 0 99 2e 00
        E 0 99 33 38
        E 30 99 33 00
        E 0 99 28 00
        E 0 99 26 00
        E 0 99 28 00
        E 0 99 31 00
        E 0 99 26 00
        E 0 99 2e 48
        E 0 99 2a 48
        E 0 99 23 64
        E 30 99 23 00
        E 0 99 2a 00
        E 0 99 2e 00
        E 0 99 26 64
        E 30 99 3b 00
        E 0 99 2a 00
        E 0 99 2e 7c
        E 0 99 2a 7c
        E 0 99 33 7c
        E 0 99 3b 64
        E 0 99 23 64
        E 3 99 26 00
        E 27 99 33 00
        E 0 99 2e 00
        E 0 99 2a 00
        E 30 99 23 00
        E 0 99 2e 41
        E 0 99 2a 41
        E 0 99 33 41
        E 0 99 23 64
        E 30 99 33 00
        E 0 99 2a 00
        E 0 99 2e 00
        E 0 99 33 40
        E 30 99 33 00
        E 0 99 3b 00
        E 0 99 23 00
        E 0 99 28 73
        E 0 99 2e 73
        E 0 99 26 73
        E 0 99 2a 73
        E 0 99 33 73
        E 0 99 28 64
        E 0 99 26 64
        E 0 99 31 64
        E 0 99 3b 64
        E 30 99 2a 00
        E 0 99 2e 00
        E 30 99 31 00
        E 0 99 28 00
        E 0 99 26 00
        E 0 99 33 00
        E 0 99 28 00
        E 0 99 26 00
        E 0 99 2e 4d
        E 0 99 2a 4d
        E 0 99 23 64
        E 30 99 2a 00
        E 0 99 2e 00
        E 0 99 2e 64
        E 0 99 2a 64
        E 0 99 33 64
        E 0 99 26 64
        E 30 99 33 00
        E 0 99 2a 00
        E 0 99 2e 00
        E 0 99 23 00
        E 0 99 3b 00
        E 0 99 2e 68
        E 0 99 2a 68
        E 0 99 33 68
        E 0 99 23 64
        E 0 99 3b 64
        E 30 99 33 00
        E 0 99 2a 00
        E 0 99 26 00
        E 0 99 2e 00
        E 0 99 33 35
        E 0 99 26 64
        E 30 99 33 00
        E 0 99 23 00
        E 0 99 2e 4c
        E 0 99 2a 4c
        E 0 99 33 4c
        E 0 99 23 64
        E 30 99 2a 00
        E 0 99 2e 00
        E 0 99 26 00
        E 30 99 3b 00
        E 0 99 33 00
        E 0 99 23 00
        E 0 99 28 7d
        E 0 99 2e 7d
        E 0 99 26 7d
        E 0 99 2a 7d
        E 0 99 33 7d
        E 0 99 26 64
        E 0 99 28 64
        E 0 99 31 64
        E 0 99 3b 64
        E 30 99 33 00
        E 0 99 2a 00
        E 0 99 2e 00
        E 0 99 33 32
        E 30 99 33 00
        E 0 99 28 00
        E 0 99 26 00
        E 0 99 28 00
        E 0 99 31 00
        E 0 99 26 00
        E 0 99 2e 44
        E 0 99 2a 44
        E 0 99 23 64
        E 30 99 23 00
        E 0 99 2a 00
        E 0 99 2e 00
        E 0 99 26 64
        E 30 99 3b 00
        E 0 99 2a 00
        E 0 99 2e 7f
        E 0 99 2a 7f
        E 0 99 33 7f
        E 0 99 3b 64
        E 0 99 23 64
        E 3 99 26 00
        E 27 99 33 00
        E 0 99 2e 00
        E 0 99 2a 00
        E 30 99 23 00
        E 0 99 2e 4f
        E 0 99 2a 4f
        E 0 99 33 4f
        E 0 99 23 64
        E 30 99 33 00
        E 0 99 2a 00
        E 0 99 2e 00
        E 0 99 33 39
        E 30 99 33 00
        E 0 99 3b 00
        E 0 99 23 00
        E 0 99 28 71
        E 0 99 2e 71
        E 0 99 26 71
        E 0 99 2a 71
        E 0 99 33 71
        E 0 99 28 64
        E 0 99 26 64
        E 0 99 31 64
        E 0 99 3b 64
        E 30 99 2a 00
        E 0 99 2e 00
        E 30 99 31 00
        E 0 99 28 00
        E 0 99 26 00
        E 0 99 33 00
        E 0 99 28 00
        E 0 99 26 00
        E 0 99 2e 45
        E 0 99 2a 45
        E 0 99 23 64
        E 30 99 2a 00
        E 0 99 2e 00
        E 0 99 2e 67
        E 0 99 2a 67
        E 0 99 33 67
        E 0 99 26 64
        E 30 99 33 00
        E 0 99 2a 00
        E 0 99 2e 00
        E 0 99 23 00
        E 0 99 3b 00
        E 0 99 2e 71
        E 0 99 2a 71
        E 0 99 33 71
        E 0 99 23 64
        E 0 99 3b 64
        E 30 99 33 00
        E 0 99 2a 00
        E 0 99 26 00
        E 0 99 2e 00
        E 0 99 33 36
        E 0 99 26 64
        E 30 99 33 00
        E 0 99 23 00
        E 0 99 2e 47
        E 0 99 2a 47
        E 0 99 33 47
        E 0 99 23 64
        E 30 99 2a 00
        E 0 99 2e 00
        E 0 99 26 00
        E 30 99 3b 00
        E 0 99 33 00
        E 0 99 23 00
        E 0 99 28 6a
        E 0 99 2e 6a
        E 0 99 26 6a
        E 0 99 2a 6a
        E 0 99 33 6a
        E 30 99 33 00
        E 0 99 2e 00
        E 0 99 2a 00
        E 0 99 33 38
        E 30 99 33 00
        E 0 99 26 00
        E 0 99 28 00
        E 0 99 2e 48
        E 0 99 2a 48
        E 30 99 2a 00
        E 0 99 2e 00
        E 30 99 2a 00
        E 0 99 2e 7c
        E 0 99 2a 7c
        E 0 99 33 7c
        E 0 99 3b 64
        E 0 99 23 64
        E 30 99 33 00
        E 0 99 2e 00
        E 0 99 2a 00
        E 30 99 23 00
        E 0 99 2e 41
        E 0 99 2a 41
        E 0 99 33 41
        E 0 99 23 64
        E 30 99 33 00
        E 0 99 2a 00
        E 0 99 2e 00
        E 0 99 33 40
        E 30 99 33 00
        E 0 99 3b 00
        E 0 99 23 00
        E 0 99 28 73
        E 0 99 2e 73
        E 0 99 26 73
        E 0 99 2a 73
        E 0 99 33 73
        E 0 99 28 64
        E 0 99 26 64
        E 0 99 31 64
        E 0 99 3b 64
        E 30 99 2a 00
        E 0 99 2e 00
        E 30 99 31 00
        E 0 99 28 00
        E 0 99 26 00
        E 0 99 33 00
        E 0 99 28 00
        E 0 99 26 00
        E 0 99 2e 4d
        E 0 99 2a 4d
        E 0 99 23 64
        E 30 99 2a 00
        E 0 99 2e 00
        E 0 99 2e 64
        E 0 99 2a 64
        E 0 99 33 64
        E 0 99 26 64
        E 30 99 33 00
        E 0 99 2a 00
        E 0 99 2e 00
        E 0 99 23 00
        E 0 99 3b 00
        E 0 99 2e 68
        E 0 99 2a 68
        E 0 99 33 68
        E 0 99 23 64
        E 0 99 3b 64
        E 30 99 33 00
        E 0 99 2a 00
        E 0 99 26 00
        E 0 99 2e 00
        E 0 99 33 35
        E 0 99 26 64
        E 30 99 33 00
        E 0 99 23 00
        E 0 99 2e 4c
        E 0 99 2a 4c
        E 0 99 33 4c
        E 0 99 23 64
        E 30 99 2a 00
        E 0 99 2e 00
        E 0 99 26 00
        E 30 99 3b 00
        E 0 99 33 00
        E 0 99 23 00
        E 0 99 28 7d
        E 0 99 2e 7d
        E 0 99 26 7d
        E 0 99 2a 7d
        E 0 99 33 7d
        E 0 99 26 64
        E 0 99 28 64
        E 0 99 31 64
        E 0 99 3b 64
        E 30 99 33 00
        E 0 99 2a 00
        E 0 99 2e 00
        E 0 99 33 32
        E 30 99 33 00
        E 0 99 28 00
        E 0 99 26 00
        E 0 99 28 00
        E 0 99 31 00
        E 0 99 26 00
        E 0 99 2e 44
        E 0 99 2a 44
        E 0 99 23 64
        E 30 99 23 00
        E 0 99 2a 00
        E 0 99 2e 00
        E 0 99 26 64
        E 30 99 3b 00
        E 0 99 2a 00
        E 0 99 2e 7f
        E 0 99 2a 7f
        E 0 99 33 7f
        E 0 99 3b 64
        E 0 99 23 64
        E 3 99 26 00
        E 27 99 33 00
        E 0 99 2e 00
        E 0 99 2a 00
        E 30 99 23 00
        E 0 99 2e 4f
        E 0 99 2a 4f
        E 0 99 33 4f
        E 0 99 23 64
        E 30 99 33 00
        E 0 99 2a 00
        E 0 99 2e 00
        E 0 99 33 39
        E 30 99 33 00
        E 0 99 3b 00
        E 0 99 23 00
        E 0 99 28 71
        E 0 99 2e 71
        E 0 99 26 71
        E 0 99 2a 71
        E 0 99 33 71
        E 0 99 28 64
        E 0 99 26 64
        E 0 99 31 64
        E 0 99 3b 64
        E 30 99 2a 00
        E 0 99 2e 00
        E 30 99 31 00
        E 0 99 28 00
        E 0 99 26 00
        E 0 99 33 00
        E 0 99 28 00
        E 0 99 26 00
        E 0 99 2e 45
        E 0 99 2a 45
        E 0 99 23 64
        E 30 99 2a 00
        E 0 99 2e 00
        E 0 99 2e 67
        E 0 99 2a 67
        E 0 99 33 67
        E 0 99 26 64
        E 30 99 33 00
        E 0 99 2a 00
        E 0 99 2e 00
        E 0 99 23 00
        E 0 99 3b 00
        E 0 99 2e 71
        E 0 99 2a 71
        E 0 99 33 71
        E 0 99 23 64
        E 0 99 3b 64
        E 30 99 33 00
        E 0 99 2a 00
        E 0 99 26 00
        E 0 99 2e 00
        E 0 99 33 36
        E 0 99 26 64
        E 30 99 33 00
        E 0 99 23 00
        E 0 99 2e 47
        E 0 99 2a 47
        E 0 99 33 47
        E 0 99 23 64
        E 30 99 2a 00
        E 0 99 2e 00
        E 0 99 26 00
        E 30 99 3b 00
        E 0 99 33 00
        E 0 99 23 00
        E 0 99 28 6a
        E 0 99 2e 6a
        E 0 99 26 6a
        E 0 99 2a 6a
        E 0 99 33 6a
        E 0 99 26 64
        E 0 99 28 64
        E 0 99 31 64
        E 0 99 3b 64
        E 30 99 33 00
        E 0 99 2a 00
        E 0 99 2e 00
        E 0 99 33 38
        E 30 99 33 00
        E 0 99 28 00
        E 0 99 26 00
        E 0 99 28 00
        E 0 99 31 00
        E 0 99 26 00
        E 0 99 2e 48
        E 0 99 2a 48
        E 0 99 23 64
        E 30 99 23 00
        E 0 99 2a 00
        E 0 99 2e 00
        E 0 99 26 64
        E 30 99 3b 00
        E 0 99 2a 00
        E 0 99 2e 7c
        E 0 99 2a 7c
        E 0 99 33 7c
        E 0 99 3b 64
        E 0 99 23 64
        E 3 99 26 00
        E 27 99 33 00
        E 0 99 2e 00
        E 0 99 2a 00
        E 30 99 23 00
        E 0 99 2e 41
        E 0 99 2a 41
        E 0 99 33 41
        E 0 99 23 64
        E 30 99 33 00
        E 0 99 2a 00
        E 0 99 2e 00
        E 0 99 33 40
        E 30 99 33 00
        E 0 99 3b 00
        E 0 99 23 00
        E 0 99 28 73
        E 0 99 2e 73
        E 0 99 26 73
        E 0 99 2a 73
        E 0 99 33 73
        E 0 99 28 64
        E 0 99 26 64
        E 0 99 31 64
        E 0 99 3b 64
        E 30 99 2a 00
        E 0 99 2e 00
        E 30 99 31 00
        E 0 99 28 00
        E 0 99 26 00
        E 0 99 33 00
        E 0 99 28 00
        E 0 99 26 00
        E 0 99 2e 4d
        E 0 99 2a 4d
        E 0 99 23 64
        E 30 99 2a 00
        E 0 99 2e 00
        E 0 99 2e 64
        E 0 99 2a 64
        E 0 99 33 64
        E 0 99 26 64
        E 30 99 33 00
        E 0 99 2a 00
        E 0 99 2e 00
        E 0 99 23 00
        E 0 99 3b 00
        E 0 99 2e 68
        E 0 99 2a 68
        E 0 99 33 68
        E 0 99 23 64
        E 0 99 3b 64
        E 30 99 33 00
        E 0 99 2a 00
        E 0 99 26 00
        E 0 99 2e 00
        E 0 99 33 35
        E 0 99 26 64
        E 30 99 33 00
        E 0 99 23 00
        E 0 99 2e 4c
        E 0 99 2a 4c
        E 0 99 33 4c
        E 0 99 23 64
        E 30 99 2a 00
        E 0 99 2e 00
        E 0 99 26 00
        E 30 99 3b 00
        E 0 99 33 00
        E 0 99 23 00
        E 0 99 28 7d
        E 0 99 2e 7d
        E 0 99 26 7d
        E 0 99 2a 7d
        E 0 99 33 7d
        E 0 99 26 64
        E 0 99 28 64
        E 0 99 31 64
        E 0 99 3b 64
        E 30 99 33 00
        E 0 99 2a 00
        E 0 99 2e 00
        E 0 99 33 32
        E 30 99 33 00
        E 0 99 28 00
        E 0 99 26 00
        E 0 99 28 00
        E 0 99 31 00
        E 0 99 26 00
        E 0 99 2e 44
        E 0 99 2a 44
        E 0 99 23 64
        E 30 99 23 00
        E 0 99 2a 00
        E 0 99 2e 00
        E 0 99 26 64
        E 30 99 3b 00
        E 0 99 2a 00
        E 0 99 2e 7f
        E 0 99 2a 7f
        E 0 99 33 7f
        E 0 99 3b 64
        E 0 99 23 64
        E 3 99 26 00
        E 27 99 33 00
        E 0 99 2e 00
        E 0 99 2a 00
        E 30 99 23 00
        E 0 99 2e 4f
        E 0 99 2a 4f
        E 0 99 33 4f
        E 0 99 23 64
        E 30 99 33 00
        E 0 99 2a 00
        E 0 99 2e 00
        E 0 99 33 39
        E 30 99 33 00
        E 0 99 3b 00
        E 0 99 23 00
        E 0 99 28 71
        E 0 99 2e 71
        E 0 99 26 71
        E 0 99 2a 71
        E 0 99 33 71
        E 0 99 28 64
        E 0 99 26 64
        E 0 99 31 64
        E 0 99 3b 64
        E 30 99 2a 00
        E 0 99 2e 00
        E 30 99 31 00
        E 0 99 28 00
        E 0 99 26 00
        E 0 99 33 00
        E 0 99 28 00
        E 0 99 26 00
        E 0 99 2e 45
        E 0 99 2a 45
        E 0 99 23 64
        E 30 99 2a 00
        E 0 99 2e 00
        E 0 99 2e 67
        E 0 99 2a 67
        E 0 99 33 67
        E 0 99 26 64
        E 30 99 33 00
        E 0 99 2a 00
        E 0 99 2e 00
        E 0 99 23 00
        E 0 99 3b 00
        E 0 99 2e 71
        E 0 99 2a 71
        E 0 99 33 71
        E 0 99 23 64
        E 0 99 3b 64
        E 30 99 33 00
        E 0 99 2a 00
        E 0 99 26 00
        E 0 99 2e 00
        E 0 99 33 36
        E 0 99 26 64
        E 30 99 33 00
        E 0 99 23 00
        E 0 99 2e 47
        E 0 99 2a 47
        E 0 99 33 47
        E 0 99 23 64
        E 30 99 2a 00
        E 0 99 2e 00
        E 0 99 26 00
        E 30 99 3b 00
        E 0 99 33 00
        E 0 99 23 00
        E 0 99 28 6a
        E 0 99 2e 6a
        E 0 99 26 6a
        E 0 99 2a 6a
        E 0 99 33 6a
        E 30 99 33 00
        E 0 99 2e 00
        E 0 99 2a 00
        E 0 99 33 38
        E 30 99 33 00
        E 0 99 26 00
        E 0 99 28 00
        E 0 99 2e 48
        E 0 99 2a 48
        E 30 99 2a 00
        E 0 99 2e 00
        E 30 99 2a 00
        E 0 99 2e 7c
        E 0 99 2a 7c
        E 0 99 26 7c
        E 0 99 33 7c
        E 0 99 26 7c
        E 30 99 26 00
        E 0 99 33 00
        E 30 99 2a 00
        E 0 99 2e 00
        E 0 99 2e 41
        E 0 99 2a 41
        E 0 99 26 41
        E 0 99 33 41
        E 30 99 33 00
        E 0 99 26 00
        E 0 99 33 40
        E 30 99 33 00
        E 0 99 2a 00
        E 0 99 2e 00
        E 0 99 26 73
        E 0 99 2a 73
        E 0 99 2e 73
        E 0 99 26 73
        E 0 99 33 73
        E 30 99 26 00
        E 30 99 2a 00
        E 0 99 2e 00
        E 0 99 33 00
        E 0 99 2a 4d
        E 0 99 2e 4d
        E 0 99 26 4d
        E 30 99 26 00
        E 0 99 33 64
        E 30 99 33 00
        E 0 99 2e 00
        E 0 99 2a 00
        E 0 99 33 68
        E 0 99 2e 68
        E 0 99 2a 68
        E 0 99 26 68
        E 30 99 26 00
        E 0 99 33 00
        E 0 99 26 00
        E 0 99 33 35
        E 30 99 33 00
        E 0 99 2a 00
        E 0 99 2e 00
        E 0 99 2e 4c
        E 0 99 2a 4c
        E 0 99 26 4c
        E 0 99 33 4c
        E 0 99 26 4c
        E 30 99 26 00
        E 30 99 2e 00
        E 0 99 2a 00
        E 0 99 33 00
        E 0 99 2a 7d
        E 0 99 2e 7d
        E 0 99 26 7d
        E 0 99 33 7d
        E 0 99 26 7d
        E 30 99 26 00
        E 0 99 33 00
        E 0 99 33 32
        E 30 99 33 00
        E 0 99 2e 00
        E 0 99 2a 00
        E 0 99 2e 44
        E 0 99 26 44
        E 0 99 2a 44
        E 0 99 26 44
        E 0 99 2a 44
        E 30 99 26 00
        E 30 99 2e 00
        E 0 99 2a 00
        E 0 99 1b 7f
        E 0 99 2a 7f
        E 0 99 33 7f
        E 0 99 2a 7f
        E 30 99 2a 00
        E 0 99 1b 00
        E 0 99 2a 00
        E 0 99 33 00
        E 0 99 1b 7c
        E 0 99 2a 7c
        E 30 99 2a 00
        E 0 99 1b 00
        E 0 99 1b 79
        E 0 99 33 79
        E 0 99 2a 79
        E 30 99 2a 00
        E 0 99 33 00
        E 0 99 1b 00
        E 0 99 1b 76
        E 0 99 2a 76
        E 0 99 33 76
        E 30 99 33 00
        E 0 99 2a 00
        E 0 99 1b 00
        E 0 99 26 73
        E 0 99 28 73
        E 0 99 1b 73
        E 0 99 2a 73
        E 0 99 33 73
        E 0 99 28 73
        E 0 99 2a 73
        E 30 99 2a 00
        E 0 99 28 00
        E 0 99 1b 00
        E 0 99 26 00
        E 0 99 28 00
        E 0 99 1b 70
        E 30 99 1b 00
        E 0 99 33 00
        E 0 99 1b 6d
        E 0 99 2a 6d
        E 30 99 2a 00
        E 0 99 1b 00
        E 0 99 28 6a
        E 0 99 1b 6a
        E 0 99 33 6a
        E 0 99 28 6a
        E 30 99 28 00
        E 0 99 1b 00
        E 0 99 33 00
        E 0 99 1b 67
        E 0 99 2a 67
        E 0 99 33 67
        E 0 99 2a 67
        E 30 99 2a 00
        E 0 99 1b 00
        E 0 99 2a 00
        E 0 99 33 00
        E 0 99 1b 64
        E 0 99 2a 64
        E 0 99 33 64
        E 0 99 28 64
        E 30 99 28 00
        E 0 99 1b 00
        E 0 99 2a 00
        E 0 99 33 00
        E 0 99 1b 61
        E 0 99 33 61
        E 0 99 2a 61
        E 30 99 2a 00
        E 0 99 1b 00
        E 0 99 1b 5e
        E 0 99 2a 5e
        E 30 99 2a 00
        E 0 99 1b 00
        E 0 99 33 00
        E 0 99 26 5b
        E 0 99 28 5b
        E 0 99 1b 5b
        E 0 99 33 5b
        E 0 99 28 5b
        E 0 99 2a 5b
        E 30 99 2a 00
        E 0 99 28 00
        E 0 99 1b 00
        E 0 99 26 00
        E 0 99 28 00
        E 0 99 33 00
        E 0 99 1b 58
        E 0 99 2a 58
        E 0 99 33 58
        E 30 99 33 00
        E 0 99 2a 00
        E 0 99 1b 00
        E 0 99 1b 55
        E 0 99 2a 55
        E 0 99 28 55
        E 0 99 2a 55
        E 30 99 28 00
        E 0 99 1b 00
        E 0 99 2a 00
        E 0 99 1b 52
        E 0 99 2a 52
        E 0 99 28 52
        E 30 99 28 00
        E 0 99 2a 00
        E 0 99 1b 00
        E 0 99 2a 00
        E 0 99 2a 50
        E 0 99 1b 50
        E 0 99 3b 50
        E 30 99 3b 00
        E 0 99 1b 00
        E 0 99 2a 00
        E 0 99 1b 50
        E 0 99 2a 50
        E 30 99 2a 00
        E 0 99 1b 00
        E 0 99 1b 50
        E 30 99 1b 00
        E 0 99 1b 50
        E 0 99 2a 50
        E 30 99 2a 00
        E 0 99 1b 00
        E 0 99 1b 50
        E 0 99 2a 50
        E 0 99 3c 50
        E 30 99 3c 00
        E 0 99 2a 00
        E 0 99 1b 00
        E 0 99 1b 50
        E 0 99 3d 50
        E 30 99 3d 00
        E 0 99 1b 00
        E 0 99 1b 50
        E 0 99 2a 50
        E 0 99 3d 50
        E 30 99 3d 00
        E 0 99 2a 00
        E 0 99 1b 00
        E 0 99 1b 50
        E 30 99 1b 00
        E 0 99 1b 50
        E 0 99 2a 50
        E 30 99 2a 00
        E 0 99 1b 00
        E 0 99 1b 50
        E 0 99 2a 50
        E 30 99 2a 00
        E 0 99 1b 00
        E 0 99 1b 50
        E 0 99 3c 50
        E 30 99 3c 00
        E 0 99 1b 00
        E 0 99 1b 50
        E 0 99 2a 50
        E 0 99 3d 50
        E 30 99 3d 00
        E 0 99 2a 00
        E 0 99 1b 00
        E 0 99 1b 50
        E 0 99 3d 50
        E 30 99 3d 00
        E 0 99 1b 00
        E 0 99 1b 50
        E 0 99 2a 50
        E 0 99 3c 50
        E 30 99 3c 00
        E 0 99 2a 00
        E 0 99 1b 00
        E 0 99 1b 50
        E 30 99 1b 00
        E 0 99 1b 50
        E 0 99 2a 50
        E 30 99 2a 00
        E 0 99 1b 00
        E 0 99 2a 50
        E 0 99 1b 50
        E 0 99 3b 50
        E 30 99 3b 00
        E 0 99 1b 00
        E 0 99 2a 00
        E 0 99 1b 50
        E 0 99 2a 50
        E 30 99 2a 00
        E 0 99 1b 00
        E 0 99 1b 50
        E 30 99 1b 00
        E 0 99 1b 50
        E 0 99 2a 50
        E 30 99 2a 00
        E 0 99 1b 00
        E 0 99 1b 50
        E 0 99 2a 50
        E 0 99 3c 50
        E 30 99 3c 00
        E 0 99 2a 00
        E 0 99 1b 00
        E 0 99 1b 50
        E 0 99 3d 50
        E 30 99 3d 00
        E 0 99 1b 00
        E 0 99 1b 50
        E 0 99 2a 50
        E 0 99 3d 50
        E 30 99 3d 00
        E 0 99 2a 00
        E 0 99 1b 00
        E 0 99 1b 50
        E 30 99 1b 00
        E 0 99 1b 50
        E 0 99 2a 50
        E 30 99 2a 00
        E 0 99 1b 00
        E 0 99 1b 50
        E 0 99 2a 50
        E 30 99 2a 00
        E 0 99 1b 00
        E 0 99 1b 50
        E 0 99 3c 50
        E 30 99 3c 00
        E 0 99 1b 00
        E 0 99 1b 50
        E 0 99 2a 50
        E 0 99 3d 50
        E 30 99 3d 00
        E 0 99 2a 00
        E 0 99 1b 00
        E 0 99 1b 50
        E 0 99 3d 50
        E 30 99 3d 00
        E 0 99 1b 00
        E 0 99 1b 50
        E 0 99 2a 50
        E 0 99 3c 50
        E 30 99 3c 00
        E 0 99 2a 00
        E 0 99 1b 00
        E 0 99 1b 50
        E 30 99 1b 00
        E 0 99 1b 50
        E 0 99 2a 50
        E 30 99 2a 00
        E 0 99 1b 00
        E 0 99 2a 50
        E 0 99 1b 50
        E 0 99 3b 50
        E 30 99 3b 00
        E 0 99 1b 00
        E 0 99 2a 00
        E 0 99 1b 50
        E 0 99 2a 50
        E 30 99 2a 00
        E 0 99 1b 00
        E 0 99 1b 50
        E 30 99 1b 00
        E 0 99 1b 50
        E 0 99 2a 50
        E 30 99 2a 00
        E 0 99 1b 00
        E 0 99 1b 50
        E 0 99 2a 50
        E 0 99 3c 50
        E 30 99 3c 00
        E 0 99 2a 00
        E 0 99 1b 00
        E 0 99 1b 50
        E 0 99 3d 50
        E 30 99 3d 00
        E 0 99 1b 00
        E 0 99 1b 50
        E 0 99 2a 50
        E 0 99 3d 50
        E 30 99 3d 00
        E 0 99 2a 00
        E 0 99 1b 00
        E 0 99 1b 50
        E 30 99 1b 00
        E 0 99 1b 50
        E 0 99 2a 50
        E 30 99 2a 00
        E 0 99 1b 00
        E 0 99 1b 50
        E 0 99 2a 50
        E 30 99 2a 00
        E 0 99 1b 00
        E 0 99 1b 50
        E 0 99 3c 50
        E 30 99 3c 00
        E 0 99 1b 00
        E 0 99 1b 50
        E 0 99 2a 50
        E 0 99 3d 50
        E 30 99 3d 00
        E 0 99 2a 00
        E 0 99 1b 00
        E 0 99 1b 50
        E 0 99 3d 50
        E 30 99 3d 00
        E 0 99 1b 00
        E 0 99 1b 50
        E 0 99 2a 50
        E 0 99 3c 50
        E 30 99 3c 00
        E 0 99 2a 00
        E 0 99 1b 00
        E 0 99 1b 50
        E 30 99 1b 00
        E 0 99 1b 50
        E 0 99 2a 50
        E 30 99 2a 00
        E 0 99 1b 00
        E 0 99 2a 50
        E 0 99 1b 50
        E 0 99 3b 50
        E 30 99 3b 00
        E 0 99 1b 00
        E 0 99 2a 00
        E 0 99 1b 50
        E 0 99 2a 50
        E 30 99 2a 00
        E 0 99 1b 00
        E 0 99 1b 50
        E 30 99 1b 00
        E 0 99 1b 50
        E 0 99 2a 50
        E 30 99 2a 00
        E 0 99 1b 00
        E 0 99 1b 50
        E 0 99 2a 50
        E 0 99 3c 50
        E 30 99 3c 00
        E 0 99 2a 00
        E 0 99 1b 00
        E 0 99 1b 50
        E 0 99 3d 50
        E 30 99 3d 00
        E 0 99 1b 00
        E 0 99 1b 50
        E 0 99 2a 50
        E 0 99 3d 50
        E 30 99 3d 00
        E 0 99 2a 00
        E 0 99 1b 00
        E 0 99 1b 50
        E 30 99 1b 00
        E 0 99 1b 50
        E 0 99 2a 50
        E 30 99 2a 00
        E 0 99 1b 00
        E 0 99 1b 50
        E 0 99 2a 50
        E 30 99 2a 00
        E 0 99 1b 00
        E 0 99 1b 50
        E 0 99 3c 50
        E 30 99 3c 00
        E 0 99 1b 00
        E 0 99 1b 50
        E 0 99 2a 50
        E 0 99 3d 50
        E 30 99 3d 00
        E 0 99 2a 00
        E 0 99 1b 00
        E 0 99 1b 50
        E 0 99 3d 50
        E 30 99 3d 00
        E 0 99 1b 00
        E 0 99 1b 50
        E 0 99 2a 50
        E 0 99 3c 50
        E 30 99 3c 00
        E 0 99 2a 00
        E 0 99 1b 00
        E 0 99 1b 50
        E 30 99 1b 00
        E 0 99 1b 50
        E 0 99 2a 50
        E 30 99 2a 00
        E 0 99 1b 00
        E 0 99 2a 50
        E 0 99 1b 50
        E 0 99 3b 50
        E 30 99 3b 00
        E 0 99 1b 00
        E 0 99 2a 00
        E 0 99 1b 50
        E 0 99 2a 50
        E 30 99 2a 00
        E 0 99 1b 00
        E 0 99 1b 50
        E 30 99 1b 00
        E 0 99 1b 50
        E 0 99 2a 50
        E 30 99 2a 00
        E 0 99 1b 00
        E 0 99 1b 50
        E 0 99 2a 50
        E 0 99 3c 50
        E 30 99 3c 00
        E 0 99 2a 00
        E 0 99 1b 00
        E 0 99 1b 50
        E 0 99 3d 50
        E 30 99 3d 00
        E 0 99 1b 00
        E 0 99 1b 50
        E 0 99 2a 50
        E 0 99 3d 50
        E 30 99 3d 00
        E 0 99 2a 00
        E 0 99 1b 00
        E 0 99 1b 50
        E 30 99 1b 00
        E 0 99 1b 50
        E 0 99 2a 50
        E 30 99 2a 00
        E 0 99 1b 00
        E 0 99 1b 50
        E 0 99 2a 50
        E 30 99 2a 00
        E 0 99 1b 00
        E 0 99 1b 50
        E 0 99 3c 50
        E 30 99 3c 00
        E 0 99 1b 00
        E 0 99 1b 50
        E 0 99 2a 50
        E 0 99 3d 50
        E 30 99 3d 00
        E 0 99 2a 00
        E 0 99 1b 00
        E 0 99 1b 50
        E 0 99 3d 50
        E 30 99 3d 00
        E 0 99 1b 00
        E 0 99 1b 50
        E 0 99 2a 50
        E 0 99 3c 50
        E 30 99 3c 00
        E 0 99 2a 00
        E 0 99 1b 00
        E 0 99 1b 50
        E 30 99 1b 00
        E 0 99 1b 50
        E 0 99 2a 50
        E 30 99 2a 00
        E 0 99 1b 00
        E 0 99 2a 50
        E 0 99 1b 50
        E 0 99 3b 50
        E 30 99 3b 00
        E 0 99 1b 00
        E 0 99 2a 00
        E 0 99 1b 50
        E 0 99 2a 50
        E 30 99 2a 00
        E 0 99 1b 00
        E 0 99 1b 50
        E 30 99 1b 00
        E 0 99 1b 50
        E 0 99 2a 50
        E 30 99 2a 00
        E 0 99 1b 00
        E 0 99 1b 50
        E 0 99 2a 50
        E 0 99 3c 50
        E 30 99 3c 00
        E 0 99 2a 00
        E 0 99 1b 00
        E 0 99 1b 50
        E 0 99 3d 50
        E 30 99 3d 00
        E 0 99 1b 00
        E 0 99 1b 50
        E 0 99 2a 50
        E 0 99 3d 50
        E 30 99 3d 00
        E 0 99 2a 00
        E 0 99 1b 00
        E 0 99 1b 50
        E 30 99 1b 00
        E 0 99 1b 50
        E 0 99 2a 50
        E 30 99 2a 00
        E 0 99 1b 00
        E 0 99 1b 50
        E 0 99 2a 50
        E 30 99 2a 00
        E 0 99 1b 00
        E 0 99 1b 50
        E 0 99 3c 50
        E 30 99 3c 00
        E 0 99 1b 00
        E 0 99 1b 50
        E 0 99 2a 50
        E 0 99 3d 50
        E 30 99 3d 00
        E 0 99 2a 00
        E 0 99 1b 00
        E 0 99 1b 50
        E 0 99 3d 50
        E 30 99 3d 00
        E 0 99 1b 00
        E 0 99 1b 50
        E 0 99 2a 50
        E 0 99 3c 50
        E 30 99 3c 00
        E 0 99 2a 00
        E 0 99 1b 00
        E 0 99 1b 50
        E 30 99 1b 00
        E 0 99 1b 50
        E 0 99 2a 50
        E 30 99 2a 00
        E 0 99 1b 00
        E 0 99 2a 50
        E 0 99 1b 50
        E 0 99 3b 50
        E 30 99 3b 00
        E 0 99 1b 00
        E 0 99 2a 00
        E 0 99 1b 50
        E 0 99 2a 50
        E 30 99 2a 00
        E 0 99 1b 00
        E 0 99 1b 50
        E 30 99 1b 00
        E 0 99 1b 50
        E 0 99 2a 50
        E 30 99 2a 00
        E 0 99 1b 00
        E 0 99 1b 50
        E 0 99 2a 50
        E 0 99 3c 50
        E 30 99 3c 00
        E 0 99 2a 00
        E 0 99 1b 00
        E 0 99 1b 50
        E 0 99 3d 50
        E 30 99 3d 00
        E 0 99 1b 00
        E 0 99 1b 50
        E 0 99 2a 50
        E 0 99 3d 50
        E 30 99 3d 00
        E 0 99 2a 00
        E 0 99 1b 00
        E 0 99 1b 50
        E 30 99 1b 00
        E 0 99 1b 50
        E 0 99 2a 50
        E 30 99 2a 00
        E 0 99 1b 00
        E 0 99 1b 56
        E 0 99 2a 56
        E 30 99 2a 00
        E 0 99 1b 00
        E 0 99 1b 5c
        E 0 99 3c 5c
        E 30 99 3c 00
        E 0 99 1b 00
        E 0 99 1b 62
        E 0 99 2a 62
        E 0 99 3d 62
        E 30 99 3d 00
        E 0 99 2a 00
        E 0 99 1b 00
        E 0 99 1b 67
        E 0 99 3d 67
        E 30 99 3d 00
        E 0 99 1b 00
        E 0 99 1b 6d
        E 0 99 2a 6d
        E 0 99 3c 6d
        E 30 99 3c 00
        E 0 99 2a 00
        E 0 99 1b 00
        E 0 99 1b 73
        E 30 99 1b 00
        E 0 99 1b 79
        E 0 99 2a 79
        E 30 99 2a 00
        E 0 99 1b 00
        E 0 99 2a 7f
        E 0 99 1b 7f
        E 0 99 3b 7f
        E 30 99 3b 00
        E 0 99 1b 00
        E 0 99 2a 00
        E 0 99 1b 7f
        E 0 99 2a 7f
        E 30 99 2a 00
        E 0 99 1b 00
        E 0 99 1b 7f
        E 30 99 1b 00
        E 0 99 1b 7f
        E 0 99 2a 7f
        E 30 99 2a 00
        E 0 99 1b 00
        E 0 99 1b 7f
        E 0 99 2a 7f
        E 0 99 3c 7f
        E 30 99 3c 00
        E 0 99 2a 00
        E 0 99 1b 00
        E 0 99 1b 7f
        E 0 99 3d 7f
        E 30 99 3d 00
        E 0 99 1b 00
        E 0 99 1b 7f
        E 0 99 2a 7f
        E 0 99 3d 7f
        E 30 99 3d 00
        E 0 99 2a 00
        E 0 99 1b 00
        E 0 99 1b 7f
        E 30 99 1b 00
        E 0 99 1b 7f
        E 0 99 2a 7f
        E 30 99 2a 00
        E 0 99 1b 00
        E 0 99 1b 7f
        E 0 99 2a 7f
        E 30 99 2a 00
        E 0 99 1b 00
        E 0 99 1b 7f
        E 0 99 3c 7f
        E 30 99 3c 00
        E 0 99 1b 00
        E 0 99 1b 7f
        E 0 99 2a 7f
        E 0 99 3d 7f
        E 30 99 3d 00
        E 0 99 2a 00
        E 0 99 1b 00
        E 0 99 1b 7f
        E 0 99 3d 7f
        E 30 99 3d 00
        E 0 99 1b 00
        E 0 99 1b 7f
        E 0 99 2a 7f
        E 0 99 3c 7f
        E 30 99 3c 00
        E 0 99 2a 00
        E 0 99 1b 00
        E 0 99 1b 7f
        E 30 99 1b 00
        E 0 99 1b 7f
        E 0 99 2a 7f
        E 30 99 2a 00
        E 0 99 1b 00
        E 0 99 3b 7f
        E 0 99 2a 7f
        E 0 99 1b 7f
        E 0 99 26 7f
        E 30 99 26 00
        E 0 99 1b 00
        E 0 99 3b 00
        E 0 99 2a 00
        E 0 99 26 00
        E 0 99 1b 7f
        E 30 99 1b 00
        E 0 99 1b 7f
        E 0 99 26 7f
        E 30 99 26 00
        E 0 99 1b 00
        E 0 99 1b 7f
        E 30 99 1b 00
        E 0 99 2a 7f
        E 0 99 3b 7f
        E 0 99 1b 7f
        E 0 99 26 7f
        E 30 99 26 00
        E 0 99 1b 00
        E 0 99 2a 00
        E 0 99 3b 00
        E 0 99 26 00
        E 0 99 1b 7f
        E 30 99 1b 00
        E 0 99 1b 7f
        E 0 99 26 7f
        E 30 99 26 00
        E 0 99 1b 00
        E 0 99 1b 7f
        E 30 99 1b 00
        E 0 99 3b 7f
        E 0 99 2a 7f
        E 0 99 28 7f
        E 0 99 1b 7f
        E 30 99 1b 00
        E 0 99 3b 00
        E 0 99 2a 00
        E 0 99 28 00
        E 0 99 3b 7f
        E 0 99 28 7f
        E 0 99 2a 7f
        E 0 99 1b 7f
        E 30 99 1b 00
        E 0 99 3b 00
        E 0 99 28 00
        E 0 99 2a 00
        E 0 99 2a 7f
        E 0 99 3b 7f
        E 0 99 28 7f
        E 0 99 1b 7f
        E 30 99 1b 00
        E 0 99 2a 00
        E 0 99 3b 00
        E 0 99 28 00
        E 0 99 2a 7f
        E 0 99 1b 7f
        E 0 99 3b 7f
        E 0 99 28 7f
        E 30 99 28 00
        E 0 99 2a 00
        E 0 99 1b 00
        E 0 99 3b 00
        E 0 99 2a 7f
        E 0 99 3b 7f
        E 0 99 28 7f
        E 0 99 1b 7f
        E 30 99 1b 00
        E 0 99 2a 00
        E 0 99 3b 00
        E 0 99 28 00
        E 0 99 3b 7f
        E 0 99 28 7f
        E 0 99 2a 7f
        E 0 99 1b 7f
        E 30 99 1b 00
        E 0 99 3b 00
        E 0 99 28 00
        E 0 99 2a 00
        E 0 99 2a 7f
        E 0 99 3b 7f
        E 0 99 28 7f
        E 0 99 1b 7f
        E 30 99 1b 00
        E 0 99 2a 00
        E 0 99 3b 00
        E 0 99 28 00
        E 0 99 2a 7f
        E 0 99 1b 7f
        E 0 99 3b 7f
        E 0 99 28 7f
        E 30 99 28 00
        E 0 99 2a 00
        E 0 99 1b 00
        E 0 99 3b 00
        E 0 99 2e 7f
        E 0 99 2a 7f
        E 0 99 26 7f
        E 0 99 33 7f
        E 0 99 26 7f
        E 30 99 26 00
        E 0 99 33 00
        E 30 99 2a 00
        E 0 99 2e 00
        E 0 99 2e 4f
        E 0 99 2a 4f
        E 0 99 26 4f
        E 0 99 33 4f
        E 30 99 33 00
        E 0 99 26 00
        E 0 99 33 39
        E 30 99 33 00
        E 0 99 2a 00
        E 0 99 2e 00
        E 0 99 26 71
        E 0 99 2a 71
        E 0 99 2e 71
        E 0 99 26 71
        E 0 99 33 71
        E 30 99 26 00
        E 30 99 2a 00
        E 0 99 2e 00
        E 0 99 33 00
        E 0 99 2a 45
        E 0 99 2e 45
        E 0 99 26 45
        E 30 99 26 00
        E 0 99 33 67
        E 30 99 33 00
        E 0 99 2e 00
        E 0 99 2a 00
        E 0 99 33 71
        E 0 99 2e 71
        E 0 99 2a 71
        E 0 99 26 71
        E 30 99 26 00
        E 0 99 33 00
        E 0 99 26 00
        E 0 99 33 36
        E 30 99 33 00
        E 0 99 2a 00
        E 0 99 2e 00
        E 0 99 2e 47
        E 0 99 2a 47
        E 0 99 26 47
        E 0 99 33 47
        E 0 99 26 47
        E 30 99 26 00
        E 30 99 2e 00
        E 0 99 2a 00
        E 0 99 33 00
        E 0 99 2a 6a
        E 0 99 2e 6a
        E 0 99 26 6a
        E 0 99 33 6a
        E 0 99 26 6a
        E 30 99 26 00
        E 0 99 33 00
        E 0 99 33 38
        E 30 99 33 00
        E 0 99 2e 00
        E 0 99 2a 00
        E 0 99 2e 48
        E 0 99 26 48
        E 0 99 2a 48
        E 0 99 26 48
        E 0 99 2a 48
        E 30 99 26 00
        E 30 99 2e 00
        E 0 99 2a 00
        E 0 99 2e 7c
        E 0 99 2a 7c
        E 0 99 33 7c
        E 0 99 3b 64
        E 0 99 23 64
        E 30 99 33 00
        E 0 99 2e 00
        E 0 99 2a 00
        E 30 99 23 00
        E 0 99 2e 41
        E 0 99 2a 41
        E 0 99 33 41
        E 0 99 23 64
        E 30 99 33 00
        E 0 99 2a 00
        E 0 99 2e 00
        E 0 99 33 40
        E 30 99 33 00
        E 0 99 3b 00
        E 0 99 23 00
        E 0 99 28 73
        E 0 99 2e 73
        E 0 99 26 73
        E 0 99 2a 73
        E 0 99 33 73
        E 0 99 28 64
        E 0 99 26 64
        E 0 99 31 64
        E 0 99 3b 64
        E 30 99 2a 00
        E 0 99 2e 00
        E 30 99 31 00
        E 0 99 28 00
        E 0 99 26 00
        E 0 99 33 00
        E 0 99 28 00
        E 0 99 26 00
        E 0 99 2e 4d
        E 0 99 2a 4d
        E 0 99 23 64
        E 30 99 2a 00
        E 0 99 2e 00
        E 0 99 2e 64
        E 0 99 2a 64
        E 0 99 33 64
        E 0 99 26 64
        E 30 99 33 00
        E 0 99 2a 00
        E 0 99 2e 00
        E 0 99 23 00
        E 0 99 3b 00
        E 0 99 2e 68
        E 0 99 2a 68
        E 0 99 33 68
        E 0 99 23 64
        E 0 99 3b 64
        E 30 99 33 00
        E 0 99 2a 00
        E 0 99 26 00
        E 0 99 2e 00
        E 0 99 33 35
        E 0 99 26 64
        E 30 99 33 00
        E 0 99 23 00
        E 0 99 2e 4c
        E 0 99 2a 4c
        E 0 99 33 4c
        E 0 99 23 64
        E 30 99 2a 00
        E 0 99 2e 00
        E 0 99 26 00
        E 30 99 3b 00
        E 0 99 33 00
        E 0 99 23 00
        E 0 99 28 7d
        E 0 99 2e 7d
        E 0 99 26 7d
        E 0 99 2a 7d
        E 0 99 33 7d
        E 0 99 26 64
        E 0 99 28 64
        E 0 99 31 64
        E 0 99 3b 64
        E 30 99 33 00
        E 0 99 2a 00
        E 0 99 2e 00
        E 0 99 33 32
        E 30 99 33 00
        E 0 99 28 00
        E 0 99 26 00
        E 0 99 28 00
        E 0 99 31 00
        E 0 99 26 00
        E 0 99 2e 44
        E 0 99 2a 44
        E 0 99 23 64
        E 30 99 23 00
        E 0 99 2a 00
        E 0 99 2e 00
        E 0 99 26 64
        E 30 99 3b 00
        E 0 99 2a 00
        E 0 99 2e 7f
        E 0 99 2a 7f
        E 0 99 33 7f
        E 0 99 3b 64
        E 0 99 23 64
        E 3 99 26 00
        E 27 99 33 00
        E 0 99 2e 00
        E 0 99 2a 00
        E 30 99 23 00
        E 0 99 2e 4f
        E 0 99 2a 4f
        E 0 99 33 4f
        E 0 99 23 64
        E 30 99 33 00
        E 0 99 2a 00
        E 0 99 2e 00
        E 0 99 33 39
        E 30 99 33 00
        E 0 99 3b 00
        E 0 99 23 00
        E 0 99 28 71
        E 0 99 2e 71
        E 0 99 26 71
        E 0 99 2a 71
        E 0 99 33 71
        E 0 99 28 64
        E 0 99 26 64
        E 0 99 31 64
        E 0 99 3b 64
        E 30 99 2a 00
        E 0 99 2e 00
        E 30 99 31 00
        E 0 99 28 00
        E 0 99 26 00
        E 0 99 33 00
        E 0 99 28 00
        E 0 99 26 00
        E 0 99 2e 45
        E 0 99 2a 45
        E 0 99 23 64
        E 30 99 2a 00
        E 0 99 2e 00
        E 0 99 2e 67
        E 0 99 2a 67
        E 0 99 33 67
        E 0 99 26 64
        E 30 99 33 00
        E 0 99 2a 00
        E 0 99 2e 00
        E 0 99 23 00
        E 0 99 3b 00
        E 0 99 2e 71
        E 0 99 2a 71
        E 0 99 33 71
        E 0 99 23 64
        E 0 99 3b 64
        E 30 99 33 00
        E 0 99 2a 00
        E 0 99 26 00
        E 0 99 2e 00
        E 0 99 33 36
        E 0 99 26 64
        E 30 99 33 00
        E 0 99 23 00
        E 0 99 2e 47
        E 0 99 2a 47
        E 0 99 33 47
        E 0 99 23 64
        E 30 99 2a 00
        E 0 99 2e 00
        E 0 99 26 00
        E 30 99 3b 00
        E 0 99 33 00
        E 0 99 23 00
        E 0 99 28 6a
        E 0 99 2e 6a
        E 0 99 26 6a
        E 0 99 2a 6a
        E 0 99 33 6a
        E 0 99 26 64
        E 0 99 28 64
        E 0 99 31 64
        E 0 99 3b 64
        E 30 99 33 00
        E 0 99 2a 00
        E 0 99 2e 00
        E 0 99 33 38
        E 30 99 33 00
        E 0 99 28 00
        E 0 99 26 00
        E 0 99 28 00
        E 0 99 31 00
        E 0 99 26 00
        E 0 99 2e 48
        E 0 99 2a 48
        E 0 99 23 64
        E 30 99 23 00
        E 0 99 2a 00
        E 0 99 2e 00
        E 0 99 26 64
        E 30 99 3b 00
        E 0 99 2a 00
        E 0 99 2e 7c
        E 0 99 2a 7c
        E 0 99 33 7c
        E 0 99 3b 64
        E 0 99 23 64
        E 3 99 26 00
        E 27 99 33 00
        E 0 99 2e 00
        E 0 99 2a 00
        E 30 99 23 00
        E 0 99 2e 41
        E 0 99 2a 41
        E 0 99 33 41
        E 0 99 23 64
        E 30 99 33 00
        E 0 99 2a 00
        E 0 99 2e 00
        E 0 99 33 40
        E 30 99 33 00
        E 0 99 3b 00
        E 0 99 23 00
        E 0 99 28 73
        E 0 99 2e 73
        E 0 99 26 73
        E 0 99 2a 73
        E 0 99 33 73
        E 0 99 28 64
        E 0 99 26 64
        E 0 99 31 64
        E 0 99 3b 64
        E 30 99 2a 00
        E 0 99 2e 00
        E 30 99 31 00
        E 0 99 28 00
        E 0 99 26 00
        E 0 99 33 00
        E 0 99 28 00
        E 0 99 26 00
        E 0 99 2e 4d
        E 0 99 2a 4d
        E 0 99 23 64
        E 30 99 2a 00
        E 0 99 2e 00
        E 0 99 2e 64
        E 0 99 2a 64
        E 0 99 33 64
        E 0 99 26 64
        E 30 99 33 00
        E 0 99 2a 00
        E 0 99 2e 00
        E 0 99 23 00
        E 0 99 3b 00
        E 0 99 2e 68
        E 0 99 2a 68
        E 0 99 33 68
        E 0 99 23 64
        E 0 99 3b 64
        E 30 99 33 00
        E 0 99 2a 00
        E 0 99 26 00
        E 0 99 2e 00
        E 0 99 33 35
        E 0 99 26 64
        E 30 99 33 00
        E 0 99 23 00
        E 0 99 2e 4c
        E 0 99 2a 4c
        E 0 99 33 4c
        E 0 99 23 64
        E 30 99 2a 00
        E 0 99 2e 00
        E 0 99 26 00
        E 30 99 3b 00
        E 0 99 33 00
        E 0 99 23 00
        E 0 99 28 7d
        E 0 99 2e 7d
        E 0 99 26 7d
        E 0 99 2a 7d
        E 0 99 33 7d
        E 0 99 26 64
        E 0 99 28 64
        E 0 99 31 64
        E 0 99 3b 64
        E 30 99 33 00
        E 0 99 2a 00
        E 0 99 2e 00
        E 0 99 33 32
        E 30 99 33 00
        E 0 99 28 00
        E 0 99 26 00
        E 0 99 28 00
        E 0 99 31 00
        E 0 99 26 00
        E 0 99 2e 44
        E 0 99 2a 44
        E 0 99 23 64
        E 30 99 23 00
        E 0 99 2a 00
        E 0 99 2e 00
        E 0 99 26 64
        E 30 99 3b 00
        E 0 99 2a 00
        E 0 99 2e 7f
        E 0 99 2a 7f
        E 0 99 33 7f
        E 0 99 3b 64
        E 0 99 23 64
        E 3 99 26 00
        E 27 99 33 00
        E 0 99 2e 00
        E 0 99 2a 00
        E 30 99 23 00
        E 0 99 2e 4f
        E 0 99 2a 4f
        E 0 99 33 4f
        E 0 99 23 64
        E 30 99 33 00
        E 0 99 2a 00
        E 0 99 2e 00
        E 0 99 33 39
        E 30 99 33 00
        E 0 99 3b 00
        E 0 99 23 00
        E 0 99 28 71
        E 0 99 2e 71
        E 0 99 26 71
        E 0 99 2a 71
        E 0 99 33 71
        E 0 99 28 64
        E 0 99 26 64
        E 0 99 31 64
        E 0 99 3b 64
        E 30 99 2a 00
        E 0 99 2e 00
        E 30 99 31 00
        E 0 99 28 00
        E 0 99 26 00
        E 0 99 33 00
        E 0 99 28 00
        E 0 99 26 00
        E 0 99 2e 45
        E 0 99 2a 45
        E 0 99 23 64
        E 30 99 2a 00
        E 0 99 2e 00
        E 0 99 2e 67
        E 0 99 2a 67
        E 0 99 33 67
        E 0 99 26 64
        E 30 99 33 00
        E 0 99 2a 00
        E 0 99 2e 00
        E 0 99 23 00
        E 0 99 3b 00
        E 0 99 2e 71
        E 0 99 2a 71
        E 0 99 33 71
        E 0 99 23 64
        E 0 99 3b 64
        E 30 99 33 00
        E 0 99 2a 00
        E 0 99 26 00
        E 0 99 2e 00
        E 0 99 33 36
        E 0 99 26 64
        E 30 99 33 00
        E 0 99 23 00
        E 0 99 2e 47
        E 0 99 2a 47
        E 0 99 33 47
        E 0 99 23 64
        E 30 99 2a 00
        E 0 99 2e 00
        E 0 99 26 00
        E 30 99 3b 00
        E 0 99 33 00
        E 0 99 23 00
        E 0 99 28 6a
        E 0 99 2e 6a
        E 0 99 26 6a
        E 0 99 2a 6a
        E 0 99 33 6a
        E 30 99 33 00
        E 0 99 2e 00
        E 0 99 2a 00
        E 0 99 33 38
        E 30 99 33 00
        E 0 99 26 00
        E 0 99 28 00
        E 0 99 2e 48
        E 0 99 2a 48
        E 30 99 2a 00
        E 0 99 2e 00
        E 30 99 2a 00
        E 0 99 2e 7c
        E 0 99 2a 7c
        E 0 99 33 7c
        E 0 99 3b 64
        E 0 99 23 64
        E 30 99 33 00
        E 0 99 2e 00
        E 0 99 2a 00
        E 30 99 23 00
        E 0 99 2e 41
        E 0 99 2a 41
        E 0 99 33 41
        E 0 99 23 64
        E 30 99 33 00
        E 0 99 2a 00
        E 0 99 2e 00
        E 0 99 33 40
        E 30 99 33 00
        E 0 99 3b 00
        E 0 99 23 00
        E 0 99 28 73
        E 0 99 2e 73
        E 0 99 26 73
        E 0 99 2a 73
        E 0 99 33 73
        E 0 99 28 64
        E 0 99 26 64
        E 0 99 31 64
        E 0 99 3b 64
        E 30 99 2a 00
        E 0 99 2e 00
        E 30 99 31 00
        E 0 99 28 00
        E 0 99 26 00
        E 0 99 33 00
        E 0 99 28 00
        E 0 99 26 00
        E 0 99 2e 4d
        E 0 99 2a 4d
        E 0 99 23 64
        E 30 99 2a 00
        E 0 99 2e 00
        E 0 99 2e 64
        E 0 99 2a 64
        E 0 99 33 64
        E 0 99 26 64
        E 30 99 33 00
        E 0 99 2a 00
        E 0 99 2e 00
        E 0 99 23 00
        E 0 99 3b 00
        E 0 99 2e 68
        E 0 99 2a 68
        E 0 99 33 68
        E 0 99 23 64
        E 0 99 3b 64
        E 30 99 33 00
        E 0 99 2a 00
        E 0 99 26 00
        E 0 99 2e 00
        E 0 99 33 35
        E 0 99 26 64
        E 30 99 33 00
        E 0 99 23 00
        E 0 99 2e 4c
        E 0 99 2a 4c
        E 0 99 33 4c
        E 0 99 23 64
        E 30 99 2a 00
        E 0 99 2e 00
        E 0 99 26 00
        E 30 99 3b 00
        E 0 99 33 00
        E 0 99 23 00
        E 0 99 28 7d
        E 0 99 2e 7d
        E 0 99 26 7d
        E 0 99 2a 7d
        E 0 99 33 7d
        E 0 99 26 64
        E 0 99 28 64
        E 0 99 31 64
        E 0 99 3b 64
        E 30 99 33 00
        E 0 99 2a 00
        E 0 99 2e 00
        E 0 99 33 32
        E 30 99 33 00
        E 0 99 28 00
        E 0 99 26 00
        E 0 99 28 00
        E 0 99 31 00
        E 0 99 26 00
        E 0 99 2e 44
        E 0 99 2a 44
        E 0 99 23 64
        E 30 99 23 00
        E 0 99 2a 00
        E 0 99 2e 00
        E 0 99 26 64
        E 30 99 3b 00
        E 0 99 2a 00
        E 0 99 2e 7f
        E 0 99 2a 7f
        E 0 99 33 7f
        E 0 99 3b 64
        E 0 99 23 64
        E 3 99 26 00
        E 27 99 33 00
        E 0 99 2e 00
        E 0 99 2a 00
        E 30 99 23 00
        E 0 99 2e 4f
        E 0 99 2a 4f
        E 0 99 33 4f
        E 0 99 23 64
        E 30 99 33 00
        E 0 99 2a 00
        E 0 99 2e 00
        E 0 99 33 39
        E 30 99 33 00
        E 0 99 3b 00
        E 0 99 23 00
        E 0 99 28 71
        E 0 99 2e 71
        E 0 99 26 71
        E 0 99 2a 71
        E 0 99 33 71
        E 0 99 28 64
        E 0 99 26 64
        E 0 99 31 64
        E 0 99 3b 64
        E 30 99 2a 00
        E 0 99 2e 00
        E 30 99 31 00
        E 0 99 28 00
        E 0 99 26 00
        E 0 99 33 00
        E 0 99 28 00
        E 0 99 26 00
        E 0 99 2e 45
        E 0 99 2a 45
        E 0 99 23 64
        E 30 99 2a 00
        E 0 99 2e 00
        E 0 99 2e 67
        E 0 99 2a 67
        E 0 99 33 67
        E 0 99 26 64
        E 30 99 33 00
        E 0 99 2a 00
        E 0 99 2e 00
        E 0 99 23 00
        E 0 99 3b 00
        E 0 99 2e 71
        E 0 99 2a 71
        E 0 99 33 71
        E 0 99 23 64
        E 0 99 3b 64
        E 30 99 33 00
        E 0 99 2a 00
        E 0 99 26 00
        E 0 99 2e 00
        E 0 99 33 36
        E 0 99 26 64
        E 30 99 33 00
        E 0 99 23 00
        E 0 99 2e 47
        E 0 99 2a 47
        E 0 99 33 47
        E 0 99 23 64
        E 30 99 2a 00
        E 0 99 2e 00
        E 0 99 26 00
        E 30 99 3b 00
        E 0 99 33 00
        E 0 99 23 00
        E 0 99 28 6a
        E 0 99 2e 6a
        E 0 99 26 6a
        E 0 99 2a 6a
        E 0 99 33 6a
        E 0 99 26 64
        E 0 99 28 64
        E 0 99 31 64
        E 0 99 3b 64
        E 30 99 33 00
        E 0 99 2a 00
        E 0 99 2e 00
        E 0 99 33 38
        E 30 99 33 00
        E 0 99 28 00
        E 0 99 26 00
        E 0 99 28 00
        E 0 99 31 00
        E 0 99 26 00
        E 0 99 2e 48
        E 0 99 2a 48
        E 0 99 23 64
        E 30 99 23 00
        E 0 99 2a 00
        E 0 99 2e 00
        E 0 99 26 64
        E 30 99 3b 00
        E 0 99 2a 00
        E 0 99 2e 7c
        E 0 99 2a 7c
        E 0 99 33 7c
        E 0 99 3b 64
        E 0 99 23 64
        E 3 99 26 00
        E 27 99 33 00
        E 0 99 2e 00
        E 0 99 2a 00
        E 30 99 23 00
        E 0 99 2e 41
        E 0 99 2a 41
        E 0 99 33 41
        E 0 99 23 64
        E 30 99 33 00
        E 0 99 2a 00
        E 0 99 2e 00
        E 0 99 33 40
        E 30 99 33 00
        E 0 99 3b 00
        E 0 99 23 00
        E 0 99 28 73
        E 0 99 2e 73
        E 0 99 26 73
        E 0 99 2a 73
        E 0 99 33 73
        E 0 99 28 64
        E 0 99 26 64
        E 0 99 31 64
        E 0 99 3b 64
        E 30 99 2a 00
        E 0 99 2e 00
        E 30 99 31 00
        E 0 99 28 00
        E 0 99 26 00
        E 0 99 33 00
        E 0 99 28 00
        E 0 99 26 00
        E 0 99 2e 4d
        E 0 99 2a 4d
        E 0 99 23 64
        E 30 99 2a 00
        E 0 99 2e 00
        E 0 99 2e 64
        E 0 99 2a 64
        E 0 99 33 64
        E 0 99 26 64
        E 30 99 33 00
        E 0 99 2a 00
        E 0 99 2e 00
        E 0 99 23 00
        E 0 99 3b 00
        E 0 99 2e 68
        E 0 99 2a 68
        E 0 99 33 68
        E 0 99 23 64
        E 0 99 3b 64
        E 30 99 33 00
        E 0 99 2a 00
        E 0 99 26 00
        E 0 99 2e 00
        E 0 99 33 35
        E 0 99 26 64
        E 30 99 33 00
        E 0 99 23 00
        E 0 99 2e 4c
        E 0 99 2a 4c
        E 0 99 33 4c
        E 0 99 23 64
        E 30 99 2a 00
        E 0 99 2e 00
        E 0 99 26 00
        E 30 99 3b 00
        E 0 99 33 00
        E 0 99 23 00
        E 0 99 28 7d
        E 0 99 2e 7d
        E 0 99 26 7d
        E 0 99 2a 7d
        E 0 99 33 7d
        E 0 99 26 64
        E 0 99 28 64
        E 0 99 31 64
        E 0 99 3b 64
        E 30 99 33 00
        E 0 99 2a 00
        E 0 99 2e 00
        E 0 99 33 32
        E 30 99 33 00
        E 0 99 28 00
        E 0 99 26 00
        E 0 99 28 00
        E 0 99 31 00
        E 0 99 26 00
        E 0 99 2e 44
        E 0 99 2a 44
        E 0 99 23 64
        E 30 99 23 00
        E 0 99 2a 00
        E 0 99 2e 00
        E 0 99 26 64
        E 30 99 3b 00
        E 0 99 2a 00
        E 0 99 2e 7f
        E 0 99 2a 7f
        E 0 99 33 7f
        E 0 99 3b 64
        E 0 99 23 64
        E 3 99 26 00
        E 27 99 33 00
        E 0 99 2e 00
        E 0 99 2a 00
        E 30 99 23 00
        E 0 99 2e 4f
        E 0 99 2a 4f
        E 0 99 33 4f
        E 0 99 23 64
        E 30 99 33 00
        E 0 99 2a 00
        E 0 99 2e 00
        E 0 99 33 39
        E 30 99 33 00
        E 0 99 3b 00
        E 0 99 23 00
        E 0 99 28 71
        E 0 99 2e 71
        E 0 99 26 71
        E 0 99 2a 71
        E 0 99 33 71
        E 0 99 28 64
        E 0 99 26 64
        E 0 99 31 64
        E 0 99 3b 64
        E 30 99 2a 00
        E 0 99 2e 00
        E 30 99 31 00
        E 0 99 28 00
        E 0 99 26 00
        E 0 99 33 00
        E 0 99 28 00
        E 0 99 26 00
        E 0 99 2e 45
        E 0 99 2a 45
        E 0 99 23 64
        E 30 99 2a 00
        E 0 99 2e 00
        E 0 99 2e 67
        E 0 99 2a 67
        E 0 99 33 67
        E 0 99 26 64
        E 30 99 33 00
        E 0 99 2a 00
        E 0 99 2e 00
        E 0 99 23 00
        E 0 99 3b 00
        E 0 99 2e 71
        E 0 99 2a 71
        E 0 99 33 71
        E 0 99 23 64
        E 0 99 3b 64
        E 30 99 33 00
        E 0 99 2a 00
        E 0 99 26 00
        E 0 99 2e 00
        E 0 99 33 36
        E 0 99 26 64
        E 30 99 33 00
        E 0 99 23 00
        E 0 99 2e 47
        E 0 99 2a 47
        E 0 99 33 47
        E 0 99 23 64
        E 30 99 2a 00
        E 0 99 2e 00
        E 0 99 26 00
        E 30 99 3b 00
        E 0 99 33 00
        E 0 99 23 00
        E 0 99 28 6a
        E 0 99 2e 6a
        E 0 99 26 6a
        E 0 99 2a 6a
        E 0 99 33 6a
        E 30 99 33 00
        E 0 99 2e 00
        E 0 99 2a 00
        E 0 99 33 38
        E 30 99 33 00
        E 0 99 26 00
        E 0 99 28 00
        E 0 99 2e 48
        E 0 99 2a 48
        E 30 99 2a 00
        E 0 99 2e 00
        E 30 99 2a 00
        E 0 99 2e 7c
        E 0 99 2a 7c
        E 0 99 33 7c
        E 0 99 3b 64
        E 0 99 23 64
        E 30 99 33 00
        E 0 99 2e 00
        E 0 99 2a 00
        E 30 99 23 00
        E 0 99 2e 41
        E 0 99 2a 41
        E 0 99 33 41
        E 0 99 23 64
        E 30 99 33 00
        E 0 99 2a 00
        E 0 99 2e 00
        E 0 99 33 40
        E 30 99 33 00
        E 0 99 3b 00
        E 0 99 23 00
        E 0 99 28 73
        E 0 99 2e 73
        E 0 99 26 73
        E 0 99 2a 73
        E 0 99 33 73
        E 0 99 28 64
        E 0 99 26 64
        E 0 99 31 64
        E 0 99 3b 64
        E 30 99 2a 00
        E 0 99 2e 00
        E 30 99 31 00
        E 0 99 28 00
        E 0 99 26 00
        E 0 99 33 00
        E 0 99 28 00
        E 0 99 26 00
        E 0 99 2e 4d
        E 0 99 2a 4d
        E 0 99 23 64
        E 30 99 2a 00
        E 0 99 2e 00
        E 0 99 2e 64
        E 0 99 2a 64
        E 0 99 33 64
        E 0 99 26 64
        E 30 99 33 00
        E 0 99 2a 00
        E 0 99 2e 00
        E 0 99 23 00
        E 0 99 3b 00
        E 0 99 2e 68
        E 0 99 2a 68
        E 0 99 33 68
        E 0 99 23 64
        E 0 99 3b 64
        E 30 99 33 00
        E 0 99 2a 00
        E 0 99 26 00
        E 0 99 2e 00
        E 0 99 33 35
        E 0 99 26 64
        E 30 99 33 00
        E 0 99 23 00
        E 0 99 2e 4c
        E 0 99 2a 4c
        E 0 99 33 4c
        E 0 99 23 64
        E 30 99 2a 00
        E 0 99 2e 00
        E 0 99 26 00
        E 30 99 3b 00
        E 0 99 33 00
        E 0 99 23 00
        E 0 99 28 7d
        E 0 99 2e 7d
        E 0 99 26 7d
        E 0 99 2a 7d
        E 0 99 33 7d
        E 0 99 26 64
        E 0 99 28 64
        E 0 99 31 64
        E 0 99 3b 64
        E 30 99 33 00
        E 0 99 2a 00
        E 0 99 2e 00
        E 0 99 33 32
        E 30 99 33 00
        E 0 99 28 00
        E 0 99 26 00
        E 0 99 28 00
        E 0 99 31 00
        E 0 99 26 00
        E 0 99 2e 44
        E 0 99 2a 44
        E 0 99 23 64
        E 30 99 23 00
        E 0 99 2a 00
        E 0 99 2e 00
        E 0 99 26 64
        E 30 99 3b 00
        E 0 99 2a 00
        E 0 99 2e 7f
        E 0 99 2a 7f
        E 0 99 33 7f
        E 0 99 3b 64
        E 0 99 23 64
        E 3 99 26 00
        E 27 99 33 00
        E 0 99 2e 00
        E 0 99 2a 00
        E 30 99 23 00
        E 0 99 2e 4f
        E 0 99 2a 4f
        E 0 99 33 4f
        E 0 99 23 64
        E 30 99 33 00
        E 0 99 2a 00
        E 0 99 2e 00
        E 0 99 33 39
        E 30 99 33 00
        E 0 99 3b 00
        E 0 99 23 00
        E 0 99 28 71
        E 0 99 2e 71
        E 0 99 26 71
        E 0 99 2a 71
        E 0 99 33 71
        E 0 99 28 64
        E 0 99 26 64
        E 0 99 31 64
        E 0 99 3b 64
        E 30 99 2a 00
        E 0 99 2e 00
        E 30 99 31 00
        E 0 99 28 00
        E 0 99 26 00
        E 0 99 33 00
        E 0 99 28 00
        E 0 99 26 00
        E 0 99 2e 45
        E 0 99 2a 45
        E 0 99 23 64
        E 30 99 2a 00
        E 0 99 2e 00
        E 0 99 2e 67
        E 0 99 2a 67
        E 0 99 33 67
        E 0 99 26 64
        E 30 99 33 00
        E 0 99 2a 00
        E 0 99 2e 00
        E 0 99 23 00
        E 0 99 3b 00
        E 0 99 2e 71
        E 0 99 2a 71
        E 0 99 33 71
        E 0 99 23 64
        E 0 99 3b 64
        E 30 99 33 00
        E 0 99 2a 00
        E 0 99 26 00
        E 0 99 2e 00
        E 0 99 33 36
        E 0 99 26 64
        E 30 99 33 00
        E 0 99 23 00
        E 0 99 2e 47
        E 0 99 2a 47
        E 0 99 33 47
        E 0 99 23 64
        E 30 99 2a 00
        E 0 99 2e 00
        E 0 99 26 00
        E 30 99 3b 00
        E 0 99 33 00
        E 0 99 23 00
        E 0 99 28 6a
        E 0 99 2e 6a
        E 0 99 26 6a
        E 0 99 2a 6a
        E 0 99 33 6a
        E 0 99 26 64
        E 0 99 28 64
        E 0 99 31 64
        E 0 99 3b 64
        E 30 99 33 00
        E 0 99 2a 00
        E 0 99 2e 00
        E 0 99 33 38
        E 30 99 33 00
        E 0 99 28 00
        E 0 99 26 00
        E 0 99 28 00
        E 0 99 31 00
        E 0 99 26 00
        E 0 99 2e 48
        E 0 99 2a 48
        E 0 99 23 64
        E 30 99 23 00
        E 0 99 2a 00
        E 0 99 2e 00
        E 0 99 26 64
        E 30 99 3b 00
        E 0 99 2a 00
        E 0 99 2e 7c
        E 0 99 2a 7c
        E 0 99 33 7c
        E 0 99 3b 64
        E 0 99 23 64
        E 3 99 26 00
        E 27 99 33 00
        E 0 99 2e 00
        E 0 99 2a 00
        E 30 99 23 00
        E 0 99 2e 41
        E 0 99 2a 41
        E 0 99 33 41
        E 0 99 23 64
        E 30 99 33 00
        E 0 99 2a 00
        E 0 99 2e 00
        E 0 99 33 40
        E 30 99 33 00
        E 0 99 3b 00
        E 0 99 23 00
        E 0 99 28 73
        E 0 99 2e 73
        E 0 99 26 73
        E 0 99 2a 73
        E 0 99 33 73
        E 0 99 28 64
        E 0 99 26 64
        E 0 99 31 64
        E 0 99 3b 64
        E 30 99 2a 00
        E 0 99 2e 00
        E 30 99 31 00
        E 0 99 28 00
        E 0 99 26 00
        E 0 99 33 00
        E 0 99 28 00
        E 0 99 26 00
        E 0 99 2e 4d
        E 0 99 2a 4d
        E 0 99 23 64
        E 30 99 2a 00
        E 0 99 2e 00
        E 0 99 2e 64
        E 0 99 2a 64
        E 0 99 33 64
        E 0 99 26 64
        E 30 99 33 00
        E 0 99 2a 00
        E 0 99 2e 00
        E 0 99 23 00
        E 0 99 3b 00
        E 0 99 2e 68
        E 0 99 2a 68
        E 0 99 33 68
        E 0 99 23 64
        E 0 99 3b 64
        E 30 99 33 00
        E 0 99 2a 00
        E 0 99 26 00
        E 0 99 2e 00
        E 0 99 33 35
        E 0 99 26 64
        E 30 99 33 00
        E 0 99 23 00
        E 0 99 2e 4c
        E 0 99 2a 4c
        E 0 99 33 4c
        E 0 99 23 64
        E 30 99 2a 00
        E 0 99 2e 00
        E 0 99 26 00
        E 30 99 3b 00
        E 0 99 33 00
        E 0 99 23 00
        E 0 99 28 7d
        E 0 99 2e 7d
        E 0 99 26 7d
        E 0 99 2a 7d
        E 0 99 33 7d
        E 0 99 26 64
        E 0 99 28 64
        E 0 99 31 64
        E 0 99 3b 64
        E 30 99 33 00
        E 0 99 2a 00
        E 0 99 2e 00
        E 0 99 33 32
        E 30 99 33 00
        E 0 99 28 00
        E 0 99 26 00
        E 0 99 28 00
        E 0 99 31 00
        E 0 99 26 00
        E 0 99 2e 44
        E 0 99 2a 44
        E 0 99 23 64
        E 30 99 23 00
        E 0 99 2a 00
        E 0 99 2e 00
        E 0 99 26 64
        E 30 99 3b 00
        E 0 99 2a 00
        E 0 99 2e 7f
        E 0 99 2a 7f
        E 0 99 33 7f
        E 0 99 3b 64
        E 0 99 23 64
        E 3 99 26 00
        E 27 99 33 00
        E 0 99 2e 00
        E 0 99 2a 00
        E 30 99 23 00
        E 0 99 2e 4f
        E 0 99 2a 4f
        E 0 99 33 4f
        E 0 99 23 64
        E 30 99 33 00
        E 0 99 2a 00
        E 0 99 2e 00
        E 0 99 33 39
        E 30 99 33 00
        E 0 99 3b 00
        E 0 99 23 00
        E 0 99 28 71
        E 0 99 2e 71
        E 0 99 26 71
        E 0 99 2a 71
        E 0 99 33 71
        E 0 99 28 64
        E 0 99 26 64
        E 0 99 31 64
        E 0 99 3b 64
        E 30 99 2a 00
        E 0 99 2e 00
        E 30 99 31 00
        E 0 99 28 00
        E 0 99 26 00
        E 0 99 33 00
        E 0 99 28 00
        E 0 99 26 00
        E 0 99 2e 45
        E 0 99 2a 45
        E 0 99 23 64
        E 30 99 2a 00
        E 0 99 2e 00
        E 0 99 2e 67
        E 0 99 2a 67
        E 0 99 33 67
        E 0 99 26 64
        E 30 99 33 00
        E 0 99 2a 00
        E 0 99 2e 00
        E 0 99 23 00
        E 0 99 3b 00
        E 0 99 2e 71
        E 0 99 2a 71
        E 0 99 33 71
        E 0 99 23 64
        E 0 99 3b 64
        E 30 99 33 00
        E 0 99 2a 00
        E 0 99 26 00
        E 0 99 2e 00
        E 0 99 33 36
        E 0 99 26 64
        E 30 99 33 00
        E 0 99 23 00
        E 0 99 2e 47
        E 0 99 2a 47
        E 0 99 33 47
        E 0 99 23 64
        E 30 99 2a 00
        E 0 99 2e 00
        E 0 99 26 00
        E 30 99 3b 00
        E 0 99 33 00
        E 0 99 23 00
        E 0 99 28 6a
        E 0 99 2e 6a
        E 0 99 26 6a
        E 0 99 2a 6a
        E 0 99 33 6a
        E 30 99 33 00
        E 0 99 2e 00
        E 0 99 2a 00
        E 0 99 33 38
        E 30 99 33 00
        E 0 99 26 00
        E 0 99 28 00
        E 0 99 2e 48
        E 0 99 2a 48
        E 30 99 2a 00
        E 0 99 2e 00
        E 30 99 2a 00
        E 0 99 2e 7c
        E 0 99 2a 7c
        E 0 99 26 7c
        E 0 99 33 7c
        E 0 99 26 7c
        E 30 99 26 00
        E 0 99 33 00
        E 30 99 2a 00
        E 0 99 2e 00
        E 0 99 2e 41
        E 0 99 2a 41
        E 0 99 26 41
        E 0 99 33 41
        E 30 99 33 00
        E 0 99 26 00
        E 0 99 33 40
        E 30 99 33 00
        E 0 99 2a 00
        E 0 99 2e 00
        E 0 99 26 73
        E 0 99 2a 73
        E 0 99 2e 73
        E 0 99 26 73
        E 0 99 33 73
        E 30 99 26 00
        E 30 99 2a 00
        E 0 99 2e 00
        E 0 99 33 00
        E 0 99 2a 4d
        E 0 99 2e 4d
        E 0 99 26 4d
        E 30 99 26 00
        E 0 99 33 64
        E 30 99 33 00
        E 0 99 2e 00
        E 0 99 2a 00
        E 0 99 33 68
        E 0 99 2e 68
        E 0 99 2a 68
        E 0 99 26 68
        E 30 99 26 00
        E 0 99 33 00
        E 0 99 26 00
        E 0 99 33 35
        E 30 99 33 00
        E 0 99 2a 00
        E 0 99 2e 00
        E 0 99 2e 4c
        E 0 99 2a 4c
        E 0 99 26 4c
        E 0 99 33 4c
        E 0 99 26 4c
        E 30 99 26 00
        E 30 99 2e 00
        E 0 99 2a 00
        E 0 99 33 00
        E 0 99 2a 7d
        E 0 99 2e 7d
        E 0 99 26 7d
        E 0 99 33 7d
        E 0 99 26 7d
        E 30 99 26 00
        E 0 99 33 00
        E 0 99 33 32
        E 30 99 33 00
        E 0 99 2e 00
        E 0 99 2a 00
        E 0 99 2e 44
        E 0 99 26 44
        E 0 99 2a 44
        E 0 99 26 44
        E 0 99 2a 44
        E 30 99 26 00
        E 30 99 2e 00
        E 0 99 2a 00
        E 0 99 1b 7f
        E 0 99 2a 7f
        E 0 99 33 7f
        E 0 99 2a 7f
        E 30 99 2a 00
        E 0 99 1b 00
        E 0 99 2a 00
        E 0 99 33 00
        E 0 99 1b 7f
        E 0 99 2a 7f
        E 30 99 2a 00
        E 0 99 1b 00
        E 0 99 1b 7f
        E 0 99 33 4f
        E 0 99 2a 4f
        E 30 99 2a 00
        E 0 99 33 00
        E 0 99 1b 00
        E 0 99 1b 7f
        E 0 99 2a 7f
        E 0 99 33 39
        E 30 99 33 00
        E 0 99 2a 00
        E 0 99 1b 00
        E 0 99 26 7f
        E 0 99 28 7f
        E 0 99 1b 7f
        E 0 99 2a 7f
        E 0 99 33 71
        E 0 99 28 71
        E 0 99 2a 71
        E 30 99 2a 00
        E 0 99 28 00
        E 0 99 1b 00
        E 0 99 26 00
        E 0 99 28 00
        E 0 99 1b 7f
        E 30 99 1b 00
        E 0 99 33 00
        E 0 99 1b 7f
        E 0 99 2a 45
        E 30 99 2a 00
        E 0 99 1b 00
        E 0 99 28 7f
        E 0 99 1b 7f
        E 0 99 33 67
        E 0 99 28 67
        E 30 99 28 00
        E 0 99 1b 00
        E 0 99 33 00
        E 0 99 1b 7f
        E 0 99 2a 7f
        E 0 99 33 71
        E 0 99 2a 71
        E 30 99 2a 00
        E 0 99 1b 00
        E 0 99 2a 00
        E 0 99 33 00
        E 0 99 1b 7f
        E 0 99 2a 7f
        E 0 99 33 36
        E 0 99 28 36
        E 30 99 28 00
        E 0 99 1b 00
        E 0 99 2a 00
        E 0 99 33 00
        E 0 99 1b 7f
        E 0 99 33 47
        E 0 99 2a 47
        E 30 99 2a 00
        E 0 99 1b 00
        E 0 99 1b 7f
        E 0 99 2a 7f
        E 30 99 2a 00
        E 0 99 1b 00
        E 0 99 33 00
        E 0 99 26 7f
        E 0 99 28 7f
        E 0 99 1b 7f
        E 0 99 33 6a
        E 0 99 28 6a
        E 0 99 2a 6a
        E 30 99 2a 00
        E 0 99 28 00
        E 0 99 1b 00
        E 0 99 26 00
        E 0 99 28 00
        E 0 99 33 00
        E 0 99 1b 7f
        E 0 99 2a 7f
        E 0 99 33 38
        E 30 99 33 00
        E 0 99 2a 00
        E 0 99 1b 00
        E 0 99 1b 7f
        E 0 99 2a 48
        E 0 99 28 48
        E 0 99 2a 48
        E 30 99 28 00
        E 0 99 1b 00
        E 0 99 2a 00
        E 0 99 1b 7f
        E 0 99 2a 7f
        E 0 99 28 4d
        E 30 99 28 00
        E 0 99 2a 00
        E 0 99 1b 00
        E 0 99 2a 00
        E 0 99 1b 7f
        E 0 99 2a 7f
        E 0 99 33 7f
        E 0 99 2a 7f
        E 30 99 2a 00
        E 0 99 1b 00
        E 0 99 2a 00
        E 0 99 33 00
        E 0 99 1b 7f
        E 0 99 2a 7f
        E 30 99 2a 00
        E 0 99 1b 00
        E 0 99 1b 7f
        E 0 99 33 4f
        E 0 99 2a 4f
        E 30 99 2a 00
        E 0 99 33 00
        E 0 99 1b 00
        E 0 99 1b 7f
        E 0 99 2a 7f
        E 0 99 26 7f
        E 0 99 28 7f
        E 0 99 2a 7f
        E 0 99 33 39
        E 30 99 33 00
        E 0 99 2a 00
        E 0 99 26 00
        E 0 99 1b 00
        E 0 99 2a 00
        E 0 99 28 00
        E 0 99 26 7f
        E 0 99 28 7f
        E 0 99 1b 7f
        E 0 99 2a 7f
        E 0 99 33 71
        E 0 99 28 71
        E 0 99 2a 71
        E 30 99 2a 00
        E 0 99 28 00
        E 0 99 1b 00
        E 0 99 26 00
        E 0 99 28 00
        E 0 99 1b 7f
        E 30 99 1b 00
        E 0 99 33 00
        E 0 99 1b 7f
        E 0 99 2a 45
        E 30 99 2a 00
        E 0 99 1b 00
        E 0 99 28 7f
        E 0 99 1b 7f
        E 0 99 33 67
        E 0 99 28 67
        E 30 99 28 00
        E 0 99 1b 00
        E 0 99 33 00
        E 0 99 1b 7f
        E 0 99 2a 7f
        E 0 99 26 7f
        E 0 99 28 7f
        E 0 99 2a 7f
        E 0 99 33 71
        E 0 99 2a 71
        E 30 99 2a 00
        E 0 99 26 00
        E 0 99 1b 00
        E 0 99 33 00
        E 0 99 28 00
        E 0 99 1b 7f
        E 0 99 2a 7f
        E 0 99 33 36
        E 0 99 28 36
        E 30 99 28 00
        E 0 99 1b 00
        E 0 99 2a 00
        E 0 99 33 00
        E 0 99 1b 7f
        E 0 99 33 47
        E 0 99 2a 47
        E 30 99 2a 00
        E 0 99 1b 00
        E 0 99 1b 7f
        E 0 99 2a 7f
        E 30 99 2a 00
        E 0 99 1b 00
        E 0 99 33 00
        E 0 99 26 7f
        E 0 99 28 7f
        E 0 99 1b 7f
        E 0 99 33 6a
        E 0 99 28 6a
        E 0 99 2a 6a
        E 30 99 2a 00
        E 0 99 28 00
        E 0 99 1b 00
        E 0 99 26 00
        E 0 99 28 00
        E 0 99 33 00
        E 0 99 1b 7f
        E 0 99 2a 7f
        E 0 99 33 38
        E 30 99 33 00
        E 0 99 2a 00
        E 0 99 1b 00
        E 0 99 1b 7f
        E 0 99 26 7f
        E 0 99 28 7f
        E 0 99 2a 48
        E 0 99 28 48
        E 0 99 2a 48
        E 30 99 28 00
        E 0 99 2a 00
        E 0 99 26 00
        E 0 99 28 00
        E 0 99 1b 00
        E 0 99 2a 00
        E 0 99 1b 7f
        E 0 99 2a 7f
        E 0 99 28 4d
        E 30 99 28 00
        E 0 99 2a 00
        E 0 99 1b 00
        E 0 99 2a 00
        E 0 99 33 7f
        E 0 99 1b 7f
        E 0 99 2a 7f
        E 30 99 2a 00
        E 0 99 1b 00
        E 0 99 33 00
        E 0 99 1b 7f
        E 0 99 2a 7f
        E 30 99 2a 00
        E 0 99 1b 00
        E 0 99 1b 7f
        E 0 99 33 4f
        E 30 99 33 00
        E 0 99 1b 00
        E 0 99 1b 7f
        E 0 99 2a 7f
        E 0 99 33 39
        E 30 99 33 00
        E 0 99 2a 00
        E 0 99 1b 00
        E 0 99 26 7f
        E 0 99 28 7f
        E 0 99 1b 7f
        E 0 99 2a 7f
        E 0 99 33 71
        E 0 99 26 71
        E 0 99 28 71
        E 30 99 28 00
        E 0 99 1b 00
        E 0 99 28 00
        E 0 99 26 00
        E 0 99 2a 00
        E 0 99 1b 7f
        E 30 99 1b 00
        E 0 99 26 00
        E 0 99 33 00
        E 0 99 28 00
        E 0 99 1b 7f
        E 0 99 2a 7f
        E 30 99 2a 00
        E 0 99 1b 00
        E 0 99 28 7f
        E 0 99 1b 7f
        E 0 99 33 67
        E 30 99 33 00
        E 0 99 1b 00
        E 0 99 28 00
        E 0 99 1b 7f
        E 0 99 2a 7f
        E 0 99 33 71
        E 30 99 33 00
        E 0 99 2a 00
        E 0 99 1b 00
        E 0 99 1b 7f
        E 0 99 2a 7f
        E 0 99 33 36
        E 30 99 33 00
        E 0 99 2a 00
        E 0 99 1b 00
        E 0 99 1b 7f
        E 0 99 33 47
        E 30 99 1b 00
        E 0 99 1b 7f
        E 0 99 2a 7f
        E 30 99 2a 00
        E 0 99 1b 00
        E 0 99 33 00
        E 0 99 26 7f
        E 0 99 28 7f
        E 0 99 1b 7f
        E 0 99 33 6a
        E 0 99 26 6a
        E 0 99 28 6a
        E 30 99 28 00
        E 0 99 1b 00
        E 0 99 28 00
        E 0 99 26 00
        E 0 99 33 00
        E 0 99 1b 7f
        E 0 99 2a 7f
        E 0 99 33 38
        E 30 99 33 00
        E 0 99 1b 00
        E 0 99 26 00
        E 0 99 28 00
        E 0 99 2a 00
        E 0 99 1b 7f
        E 0 99 2a 48
        E 30 99 1b 00
        E 0 99 1b 7f
        E 0 99 2a 7f
        E 30 99 2a 00
        E 0 99 1b 00
        E 0 99 2a 00
        E 0 99 1b 7f
        E 0 99 2a 7f
        E 0 99 33 7c
        E 30 99 33 00
        E 0 99 2a 00
        E 0 99 1b 00
        E 0 99 1b 7f
        E 0 99 2a 7f
        E 30 99 2a 00
        E 0 99 1b 00
        E 0 99 1b 7f
        E 0 99 33 41
        E 30 99 33 00
        E 0 99 1b 00
        E 0 99 1b 7f
        E 0 99 2a 7f
        E 0 99 33 40
        E 30 99 33 00
        E 0 99 2a 00
        E 0 99 1b 00
        E 0 99 26 7f
        E 0 99 28 7f
        E 0 99 1b 7f
        E 0 99 2a 7f
        E 0 99 33 73
        E 0 99 26 73
        E 0 99 28 73
        E 30 99 28 00
        E 0 99 1b 00
        E 0 99 28 00
        E 0 99 26 00
        E 0 99 2a 00
        E 0 99 1b 7f
        E 30 99 1b 00
        E 0 99 26 00
        E 0 99 33 00
        E 0 99 28 00
        E 0 99 1b 7f
        E 0 99 2a 7f
        E 30 99 2a 00
        E 0 99 1b 00
        E 0 99 28 7f
        E 0 99 1b 7f
        E 0 99 33 64
        E 30 99 33 00
        E 0 99 1b 00
        E 0 99 28 00
        E 0 99 1b 7f
        E 0 99 2a 7f
        E 0 99 33 68
        E 30 99 33 00
        E 0 99 2a 00
        E 0 99 1b 00
        E 0 99 1b 7f
        E 0 99 2a 7f
        E 0 99 33 35
        E 30 99 33 00
        E 0 99 2a 00
        E 0 99 1b 00
        E 0 99 1b 7f
        E 0 99 33 4c
        E 30 99 1b 00
        E 0 99 1b 7f
        E 0 99 2a 7f
        E 30 99 2a 00
        E 0 99 1b 00
        E 0 99 33 00
        E 0 99 33 7d
        E 0 99 26 7d
        E 0 99 28 7d
        E 0 99 26 7f
        E 0 99 28 7f
        E 0 99 1b 7f
        E 30 99 1b 00
        E 0 99 26 00
        E 0 99 28 00
        E 0 99 33 00
        E 0 99 28 00
        E 0 99 1b 7f
        E 0 99 2a 7f
        E 0 99 33 32
        E 30 99 33 00
        E 0 99 1b 00
        E 0 99 26 00
        E 0 99 28 00
        E 0 99 2a 00
        E 0 99 1b 7f
        E 0 99 2a 44
        E 0 99 28 44
        E 30 99 28 00
        E 0 99 1b 00
        E 0 99 1b 7f
        E 0 99 2a 7f
        E 30 99 2a 00
        E 0 99 1b 00
        E 0 99 2a 00
        E 0 99 33 7f
        E 0 99 1b 7f
        E 0 99 2a 7f
        E 30 99 2a 00
        E 0 99 1b 00
        E 0 99 33 00
        E 0 99 1b 7f
        E 0 99 2a 7f
        E 30 99 2a 00
        E 0 99 1b 00
        E 0 99 1b 7f
        E 0 99 33 4f
        E 30 99 33 00
        E 0 99 1b 00
        E 0 99 1b 7f
        E 0 99 2a 7f
        E 0 99 33 39
        E 30 99 33 00
        E 0 99 2a 00
        E 0 99 1b 00
        E 0 99 26 7f
        E 0 99 28 7f
        E 0 99 1b 7f
        E 0 99 2a 7f
        E 0 99 33 71
        E 0 99 26 71
        E 0 99 28 71
        E 30 99 28 00
        E 0 99 1b 00
        E 0 99 28 00
        E 0 99 26 00
        E 0 99 2a 00
        E 0 99 1b 7f
        E 30 99 1b 00
        E 0 99 26 00
        E 0 99 33 00
        E 0 99 28 00
        E 0 99 1b 7f
        E 0 99 2a 7f
        E 30 99 2a 00
        E 0 99 1b 00
        E 0 99 28 7f
        E 0 99 1b 7f
        E 0 99 33 67
        E 30 99 33 00
        E 0 99 1b 00
        E 0 99 28 00
        E 0 99 1b 7f
        E 0 99 2a 7f
        E 0 99 33 71
        E 30 99 33 00
        E 0 99 2a 00
        E 0 99 1b 00
        E 0 99 1b 7f
        E 0 99 2a 7f
        E 0 99 33 36
        E 30 99 33 00
        E 0 99 2a 00
        E 0 99 1b 00
        E 0 99 1b 7f
        E 0 99 33 47
        E 30 99 1b 00
        E 0 99 1b 7f
        E 0 99 2a 7f
        E 30 99 2a 00
        E 0 99 1b 00
        E 0 99 33 00
        E 0 99 26 7f
        E 0 99 28 7f
        E 0 99 1b 7f
        E 0 99 33 6a
        E 0 99 26 6a
        E 0 99 28 6a
        E 30 99 28 00
        E 0 99 1b 00
        E 0 99 28 00
        E 0 99 26 00
        E 0 99 33 00
        E 0 99 1b 7f
        E 0 99 2a 7f
        E 0 99 33 38
        E 30 99 33 00
        E 0 99 1b 00
        E 0 99 26 00
        E 0 99 28 00
        E 0 99 2a 00
        E 0 99 1b 7f
        E 0 99 2a 48
        E 30 99 1b 00
        E 0 99 1b 7f
        E 0 99 2a 7f
        E 30 99 2a 00
        E 0 99 1b 00
        E 0 99 2a 00
        E 0 99 1b 7f
        E 0 99 2a 7f
        E 0 99 33 7c
        E 30 99 33 00
        E 0 99 2a 00
        E 0 99 1b 00
        E 0 99 1b 7f
        E 0 99 2a 7f
        E 30 99 2a 00
        E 0 99 1b 00
        E 0 99 1b 7f
        E 0 99 33 41
        E 30 99 33 00
        E 0 99 1b 00
        E 0 99 1b 7f
        E 0 99 2a 7f
        E 0 99 33 40
        E 30 99 33 00
        E 0 99 2a 00
        E 0 99 1b 00
        E 0 99 26 7f
        E 0 99 28 7f
        E 0 99 1b 7f
        E 0 99 2a 7f
        E 0 99 33 73
        E 0 99 26 73
        E 0 99 28 73
        E 30 99 28 00
        E 0 99 1b 00
        E 0 99 28 00
        E 0 99 26 00
        E 0 99 2a 00
        E 0 99 1b 7f
        E 30 99 1b 00
        E 0 99 26 00
        E 0 99 33 00
        E 0 99 28 00
        E 0 99 1b 7f
        E 0 99 2a 7f
        E 30 99 2a 00
        E 0 99 1b 00
        E 0 99 28 7f
        E 0 99 1b 7f
        E 0 99 33 64
        E 30 99 33 00
        E 0 99 1b 00
        E 0 99 28 00
        E 0 99 1b 7f
        E 0 99 2a 7f
        E 0 99 33 68
        E 30 99 33 00
        E 0 99 2a 00
        E 0 99 1b 00
        E 0 99 1b 7f
        E 0 99 2a 7f
        E 0 99 33 35
        E 30 99 33 00
        E 0 99 2a 00
        E 0 99 1b 00
        E 0 99 1b 7f
        E 0 99 33 4c
        E 30 99 1b 00
        E 0 99 1b 7f
        E 0 99 2a 7f
        E 30 99 2a 00
        E 0 99 1b 00
        E 0 99 33 00
        E 0 99 33 7d
        E 0 99 26 7d
        E 0 99 28 7d
        E 0 99 26 7f
        E 0 99 28 7f
        E 0 99 1b 7f
        E 30 99 1b 00
        E 0 99 26 00
        E 0 99 28 00
        E 0 99 33 00
        E 0 99 28 00
        E 0 99 1b 7f
        E 0 99 2a 7f
        E 0 99 33 32
        E 30 99 33 00
        E 0 99 1b 00
        E 0 99 26 00
        E 0 99 28 00
        E 0 99 2a 00
        E 0 99 2a 44
        E 0 99 1b 7f
        E 0 99 28 44
        E 30 99 28 00
        E 0 99 1b 00
        E 0 99 1b 7f
        E 0 99 2a 7f
        E 30 99 2a 00
        E 0 99 1b 00
        E 0 99 2a 00
        E 0 99 1b 7f
        E 0 99 2a 7f
        E 0 99 33 7c
        E 30 99 33 00
        E 0 99 2a 00
        E 0 99 1b 00
        E 0 99 1b 7f
        E 0 99 2a 7f
        E 30 99 2a 00
        E 0 99 1b 00
        E 0 99 1b 7f
        E 0 99 33 41
        E 30 99 33 00
        E 0 99 1b 00
        E 0 99 1b 7f
        E 0 99 2a 7f
        E 0 99 33 40
        E 30 99 33 00
        E 0 99 2a 00
        E 0 99 1b 00
        E 0 99 26 7f
        E 0 99 28 7f
        E 0 99 1b 7f
        E 0 99 2a 7f
        E 0 99 33 73
        E 0 99 26 73
        E 0 99 28 73
        E 30 99 28 00
        E 0 99 1b 00
        E 0 99 28 00
        E 0 99 26 00
        E 0 99 2a 00
        E 0 99 1b 7f
        E 30 99 1b 00
        E 0 99 26 00
        E 0 99 33 00
        E 0 99 28 00
        E 0 99 1b 7f
        E 0 99 2a 7f
        E 30 99 2a 00
        E 0 99 1b 00
        E 0 99 28 7f
        E 0 99 1b 7f
        E 0 99 33 64
        E 30 99 33 00
        E 0 99 1b 00
        E 0 99 28 00
        E 0 99 1b 7f
        E 0 99 2a 7f
        E 0 99 33 68
        E 30 99 33 00
        E 0 99 2a 00
        E 0 99 1b 00
        E 0 99 1b 7f
        E 0 99 2a 7f
        E 0 99 33 35
        E 30 99 33 00
        E 0 99 2a 00
        E 0 99 1b 00
        E 0 99 1b 7f
        E 0 99 33 4c
        E 30 99 1b 00
        E 0 99 1b 7f
        E 0 99 2a 7f
        E 30 99 2a 00
        E 0 99 1b 00
        E 0 99 33 00
        E 0 99 33 7d
        E 0 99 26 7d
        E 0 99 28 7d
        E 0 99 26 7f
        E 0 99 28 7f
        E 0 99 1b 7f
        E 30 99 1b 00
        E 0 99 26 00
        E 0 99 28 00
        E 0 99 33 00
        E 0 99 28 00
        E 0 99 1b 7f
        E 0 99 2a 7f
        E 0 99 33 32
        E 30 99 33 00
        E 0 99 1b 00
        E 0 99 26 00
        E 0 99 28 00
        E 0 99 2a 00
        E 0 99 2a 44
        E 0 99 1b 7f
        E 0 99 28 44
        E 30 99 28 00
        E 0 99 1b 00
        E 0 99 1b 7f
        E 0 99 2a 7f
        E 30 99 2a 00
        E 0 99 1b 00
        E 0 99 2a 00
        E 0 99 1b 7f
        E 0 99 2a 7f
        E 0 99 33 7f
        E 0 99 2a 7f
        E 30 99 2a 00
        E 0 99 1b 00
        E 0 99 2a 00
        E 0 99 33 00
        E 0 99 1b 7f
        E 0 99 2a 7f
        E 30 99 2a 00
        E 0 99 1b 00
        E 0 99 1b 7f
        E 0 99 33 4f
        E 0 99 2a 4f
        E 30 99 2a 00
        E 0 99 33 00
        E 0 99 1b 00
        E 0 99 1b 7f
        E 0 99 2a 7f
        E 0 99 26 7f
        E 0 99 28 7f
        E 0 99 2a 7f
        E 0 99 33 39
        E 30 99 33 00
        E 0 99 2a 00
        E 0 99 26 00
        E 0 99 1b 00
        E 0 99 2a 00
        E 0 99 28 00
        E 0 99 26 7f
        E 0 99 28 7f
        E 0 99 1b 7f
        E 0 99 2a 7f
        E 0 99 33 71
        E 0 99 28 71
        E 0 99 2a 71
        E 30 99 2a 00
        E 0 99 28 00
        E 0 99 1b 00
        E 0 99 26 00
        E 0 99 28 00
        E 0 99 1b 7f
        E 30 99 1b 00
        E 0 99 33 00
        E 0 99 1b 7f
        E 0 99 2a 45
        E 30 99 2a 00
        E 0 99 1b 00
        E 0 99 28 7f
        E 0 99 1b 7f
        E 0 99 33 67
        E 0 99 28 67
        E 30 99 28 00
        E 0 99 1b 00
        E 0 99 33 00
        E 0 99 1b 7f
        E 0 99 2a 7f
        E 0 99 26 7f
        E 0 99 28 7f
        E 0 99 2a 7f
        E 0 99 33 71
        E 0 99 2a 71
        E 30 99 2a 00
        E 0 99 26 00
        E 0 99 1b 00
        E 0 99 33 00
        E 0 99 28 00
        E 0 99 1b 7f
        E 0 99 2a 7f
        E 0 99 33 36
        E 0 99 28 36
        E 30 99 28 00
        E 0 99 1b 00
        E 0 99 2a 00
        E 0 99 33 00
        E 0 99 1b 7f
        E 0 99 33 47
        E 0 99 2a 47
        E 30 99 2a 00
        E 0 99 1b 00
        E 0 99 1b 7f
        E 0 99 2a 7f
        E 30 99 2a 00
        E 0 99 1b 00
        E 0 99 33 00
        E 0 99 26 7f
        E 0 99 28 7f
        E 0 99 1b 7f
        E 0 99 33 6a
        E 0 99 28 6a
        E 0 99 2a 6a
        E 30 99 2a 00
        E 0 99 28 00
        E 0 99 1b 00
        E 0 99 26 00
        E 0 99 28 00
        E 0 99 33 00
        E 0 99 1b 7f
        E 0 99 2a 7f
        E 0 99 33 38
        E 30 99 33 00
        E 0 99 2a 00
        E 0 99 1b 00
        E 0 99 1b 7f
        E 0 99 26 7f
        E 0 99 28 7f
        E 0 99 2a 48
        E 0 99 28 48
        E 0 99 2a 48
        E 30 99 28 00
        E 0 99 2a 00
        E 0 99 26 00
        E 0 99 28 00
        E 0 99 1b 00
        E 0 99 2a 00
        E 0 99 1b 7f
        E 0 99 2a 7f
        E 0 99 28 4d
        E 30 99 28 00
        E 0 99 2a 00
        E 0 99 1b 00
        E 0 99 2a 00
        E 0 99 1b 7f
        E 0 99 2a 7f
        E 0 99 33 7c
        E 0 99 2a 7c
        E 30 99 2a 00
        E 0 99 1b 00
        E 0 99 2a 00
        E 0 99 33 00
        E 0 99 1b 7f
        E 0 99 2a 7f
        E 30 99 2a 00
        E 0 99 1b 00
        E 0 99 1b 7f
        E 0 99 33 41
        E 0 99 2a 41
        E 30 99 2a 00
        E 0 99 33 00
        E 0 99 1b 00
        E 0 99 1b 7f
        E 0 99 2a 7f
        E 0 99 33 40
        E 30 99 33 00
        E 0 99 2a 00
        E 0 99 1b 00
        E 0 99 26 7f
        E 0 99 28 7f
        E 0 99 1b 7f
        E 0 99 2a 7f
        E 0 99 33 73
        E 0 99 28 73
        E 0 99 2a 73
        E 30 99 2a 00
        E 0 99 28 00
        E 0 99 1b 00
        E 0 99 26 00
        E 0 99 28 00
        E 0 99 1b 7f
        E 30 99 1b 00
        E 0 99 33 00
        E 0 99 1b 7f
        E 0 99 2a 4d
        E 30 99 2a 00
        E 0 99 1b 00
        E 0 99 28 7f
        E 0 99 1b 7f
        E 0 99 33 64
        E 0 99 28 64
        E 30 99 28 00
        E 0 99 1b 00
        E 0 99 33 00
        E 0 99 1b 7f
        E 0 99 2a 7f
        E 0 99 33 68
        E 0 99 2a 68
        E 30 99 2a 00
        E 0 99 1b 00
        E 0 99 2a 00
        E 0 99 33 00
        E 0 99 1b 7f
        E 0 99 2a 7f
        E 0 99 33 35
        E 0 99 28 35
        E 30 99 28 00
        E 0 99 1b 00
        E 0 99 2a 00
        E 0 99 33 00
        E 0 99 1b 7f
        E 0 99 33 4c
        E 0 99 2a 4c
        E 30 99 2a 00
        E 0 99 1b 00
        E 0 99 1b 7f
        E 0 99 2a 7f
        E 30 99 2a 00
        E 0 99 1b 00
        E 0 99 33 00
        E 0 99 26 7f
        E 0 99 28 7f
        E 0 99 1b 7f
        E 0 99 33 7d
        E 0 99 28 7d
        E 0 99 2a 7d
        E 30 99 2a 00
        E 0 99 28 00
        E 0 99 1b 00
        E 0 99 26 00
        E 0 99 28 00
        E 0 99 33 00
        E 0 99 1b 7f
        E 0 99 2a 7f
        E 0 99 33 32
        E 30 99 33 00
        E 0 99 2a 00
        E 0 99 1b 00
        E 0 99 1b 7f
        E 0 99 2a 44
        E 0 99 28 44
        E 0 99 2a 44
        E 30 99 28 00
        E 0 99 1b 00
        E 0 99 2a 00
        E 0 99 1b 7f
        E 0 99 2a 7f
        E 0 99 28 3e
        E 30 99 28 00
        E 0 99 2a 00
        E 0 99 1b 00
        E 0 99 2a 00
        E 0 99 1b 7f
        E 0 99 2a 7f
        E 0 99 33 7f
        E 0 99 2a 7f
        E 30 99 2a 00
        E 0 99 1b 00
        E 0 99 2a 00
        E 0 99 33 00
        E 0 99 1b 7f
        E 0 99 2a 7f
        E 30 99 2a 00
        E 0 99 1b 00
        E 0 99 1b 7f
        E 0 99 33 4f
        E 0 99 2a 4f
        E 30 99 2a 00
        E 0 99 33 00
        E 0 99 1b 00
        E 0 99 1b 7f
        E 0 99 2a 7f
        E 0 99 33 39
        E 30 99 33 00
        E 0 99 2a 00
        E 0 99 1b 00
        E 0 99 26 7f
        E 0 99 28 7f
        E 0 99 1b 7f
        E 0 99 2a 7f
        E 0 99 33 71
        E 0 99 28 71
        E 0 99 2a 71
        E 30 99 2a 00
        E 0 99 28 00
        E 0 99 1b 00
        E 0 99 26 00
        E 0 99 28 00
        E 0 99 1b 7f
        E 30 99 1b 00
        E 0 99 33 00
        E 0 99 1b 7f
        E 0 99 2a 45
        E 30 99 2a 00
        E 0 99 1b 00
        E 0 99 28 7f
        E 0 99 1b 7f
        E 0 99 33 67
        E 0 99 28 67
        E 30 99 28 00
        E 0 99 1b 00
        E 0 99 33 00
        E 0 99 1b 7f
        E 0 99 2a 7f
        E 0 99 33 71
        E 0 99 2a 71
        E 30 99 2a 00
        E 0 99 1b 00
        E 0 99 2a 00
        E 0 99 33 00
        E 0 99 1b 7f
        E 0 99 2a 7f
        E 0 99 33 36
        E 0 99 28 36
        E 30 99 28 00
        E 0 99 1b 00
        E 0 99 2a 00
        E 0 99 33 00
        E 0 99 1b 7f
        E 0 99 33 47
        E 0 99 2a 47
        E 30 99 2a 00
        E 0 99 1b 00
        E 0 99 1b 7f
        E 0 99 2a 7f
        E 30 99 2a 00
        E 0 99 1b 00
        E 0 99 33 00
        E 0 99 26 7f
        E 0 99 28 7f
        E 0 99 1b 7f
        E 0 99 33 6a
        E 0 99 28 6a
        E 0 99 2a 6a
        E 30 99 2a 00
        E 0 99 28 00
        E 0 99 1b 00
        E 0 99 26 00
        E 0 99 28 00
        E 0 99 33 00
        E 0 99 1b 7f
        E 0 99 2a 7f
        E 0 99 33 38
        E 30 99 33 00
        E 0 99 2a 00
        E 0 99 1b 00
        E 0 99 1b 7f
        E 0 99 2a 48
        E 0 99 28 48
        E 0 99 2a 48
        E 30 99 28 00
        E 0 99 1b 00
        E 0 99 2a 00
        E 0 99 1b 7f
        E 0 99 2a 7f
        E 0 99 28 4d
        E 30 99 28 00
        E 0 99 2a 00
        E 0 99 1b 00
        E 0 99 2a 00
        E 0 99 1b 7f
        E 0 99 2a 7f
        E 0 99 33 7f
        E 0 99 2a 7f
        E 30 99 2a 00
        E 0 99 1b 00
        E 0 99 2a 00
        E 0 99 33 00
        E 0 99 1b 7f
        E 0 99 2a 7f
        E 30 99 2a 00
        E 0 99 1b 00
        E 0 99 1b 7f
        E 0 99 33 4f
        E 0 99 2a 4f
        E 30 99 2a 00
        E 0 99 33 00
        E 0 99 1b 00
        E 0 99 1b 7f
        E 0 99 2a 7f
        E 0 99 26 7f
        E 0 99 28 7f
        E 0 99 2a 7f
        E 0 99 33 39
        E 30 99 33 00
        E 0 99 2a 00
        E 0 99 26 00
        E 0 99 1b 00
        E 0 99 2a 00
        E 0 99 28 00
        E 0 99 26 7f
        E 0 99 28 7f
        E 0 99 1b 7f
        E 0 99 2a 7f
        E 0 99 33 71
        E 0 99 28 71
        E 0 99 2a 71
        E 30 99 2a 00
        E 0 99 28 00
        E 0 99 1b 00
        E 0 99 26 00
        E 0 99 28 00
        E 0 99 1b 7f
        E 30 99 1b 00
        E 0 99 33 00
        E 0 99 1b 7f
        E 0 99 2a 45
        E 30 99 2a 00
        E 0 99 1b 00
        E 0 99 28 7f
        E 0 99 1b 7f
        E 0 99 33 67
        E 0 99 28 67
        E 30 99 28 00
        E 0 99 1b 00
        E 0 99 33 00
        E 0 99 1b 7f
        E 0 99 2a 7f
        E 0 99 26 7f
        E 0 99 28 7f
        E 0 99 2a 7f
        E 0 99 33 71
        E 0 99 2a 71
        E 30 99 2a 00
        E 0 99 26 00
        E 0 99 1b 00
        E 0 99 33 00
        E 0 99 28 00
        E 0 99 1b 7f
        E 0 99 2a 7f
        E 0 99 33 36
        E 0 99 28 36
        E 30 99 28 00
        E 0 99 1b 00
        E 0 99 2a 00
        E 0 99 33 00
        E 0 99 1b 7f
        E 0 99 33 47
        E 0 99 2a 47
        E 30 99 2a 00
        E 0 99 1b 00
        E 0 99 1b 7f
        E 0 99 2a 7f
        E 30 99 2a 00
        E 0 99 1b 00
        E 0 99 33 00
        E 0 99 26 7f
        E 0 99 28 7f
        E 0 99 1b 7f
        E 0 99 33 6a
        E 0 99 28 6a
        E 0 99 2a 6a
        E 30 99 2a 00
        E 0 99 28 00
        E 0 99 1b 00
        E 0 99 26 00
        E 0 99 28 00
        E 0 99 33 00
        E 0 99 1b 7f
        E 0 99 2a 7f
        E 0 99 33 38
        E 30 99 33 00
        E 0 99 2a 00
        E 0 99 1b 00
        E 0 99 1b 7f
        E 0 99 26 7f
        E 0 99 28 7f
        E 0 99 2a 48
        E 0 99 28 48
        E 0 99 2a 48
        E 30 99 28 00
        E 0 99 2a 00
        E 0 99 26 00
        E 0 99 28 00
        E 0 99 1b 00
        E 0 99 2a 00
        E 0 99 1b 7f
        E 0 99 2a 7f
        E 0 99 28 4d
        E 30 99 28 00
        E 0 99 2a 00
        E 0 99 1b 00
        E 0 99 2a 00
        E 0 99 1b 7f
        E 0 99 2a 7f
        E 0 99 33 7c
        E 0 99 2a 7c
        E 30 99 2a 00
        E 0 99 1b 00
        E 0 99 2a 00
        E 0 99 33 00
        E 0 99 1b 7f
        E 0 99 2a 7f
        E 30 99 2a 00
        E 0 99 1b 00
        E 0 99 1b 7f
        E 0 99 33 41
        E 0 99 2a 41
        E 30 99 2a 00
        E 0 99 33 00
        E 0 99 1b 00
        E 0 99 1b 7f
        E 0 99 2a 7f
        E 0 99 33 40
        E 30 99 33 00
        E 0 99 2a 00
        E 0 99 1b 00
        E 0 99 26 7f
        E 0 99 28 7f
        E 0 99 1b 7f
        E 0 99 2a 7f
        E 0 99 33 73
        E 0 99 28 73
        E 0 99 2a 73
        E 30 99 2a 00
        E 0 99 28 00
        E 0 99 1b 00
        E 0 99 26 00
        E 0 99 28 00
        E 0 99 1b 7f
        E 30 99 1b 00
        E 0 99 33 00
        E 0 99 1b 7f
        E 0 99 2a 4d
        E 30 99 2a 00
        E 0 99 1b 00
        E 0 99 28 7f
        E 0 99 1b 7f
        E 0 99 33 64
        E 0 99 28 64
        E 30 99 28 00
        E 0 99 1b 00
        E 0 99 33 00
        E 0 99 1b 7f
        E 0 99 2a 7f
        E 0 99 33 68
        E 0 99 2a 68
        E 30 99 2a 00
        E 0 99 1b 00
        E 0 99 2a 00
        E 0 99 33 00
        E 0 99 1b 7f
        E 0 99 2a 7f
        E 0 99 33 35
        E 0 99 28 35
        E 30 99 28 00
        E 0 99 1b 00
        E 0 99 2a 00
        E 0 99 33 00
        E 0 99 1b 7f
        E 0 99 33 4c
        E 0 99 2a 4c
        E 30 99 2a 00
        E 0 99 1b 00
        E 0 99 1b 7f
        E 0 99 2a 7f
        E 30 99 2a 00
        E 0 99 1b 00
        E 0 99 33 00
        E 0 99 26 7f
        E 0 99 28 7f
        E 0 99 1b 7f
        E 0 99 33 7d
        E 0 99 28 7d
        E 0 99 2a 7d
        E 30 99 2a 00
        E 0 99 28 00
        E 0 99 1b 00
        E 0 99 26 00
        E 0 99 28 00
        E 0 99 33 00
        E 0 99 1b 7f
        E 0 99 2a 7f
        E 0 99 33 32
        E 30 99 33 00
        E 0 99 2a 00
        E 0 99 1b 00
        E 0 99 1b 7f
        E 0 99 2a 44
        E 0 99 28 44
        E 0 99 2a 44
        E 30 99 28 00
        E 0 99 1b 00
        E 0 99 2a 00
        E 0 99 1b 7f
        E 0 99 2a 7f
        E 0 99 28 3e
        E 30 99 28 00
        E 0 99 2a 00
        E 0 99 1b 00
        E 0 99 2a 00
        E 0 99 1b 7f
        E 0 99 2a 7f
        E 0 99 33 7f
        E 0 99 2a 7f
        E 30 99 2a 00
        E 0 99 1b 00
        E 0 99 2a 00
        E 0 99 33 00
        E 0 99 1b 7f
        E 0 99 2a 7f
        E 30 99 2a 00
        E 0 99 1b 00
        E 0 99 1b 7f
        E 0 99 33 4f
        E 0 99 2a 4f
        E 30 99 2a 00
        E 0 99 33 00
        E 0 99 1b 00
        E 0 99 1b 7f
        E 0 99 2a 7f
        E 0 99 33 39
        E 30 99 33 00
        E 0 99 2a 00
        E 0 99 1b 00
        E 0 99 26 7f
        E 0 99 28 7f
        E 0 99 1b 7f
        E 0 99 2a 7f
        E 0 99 33 71
        E 0 99 28 71
        E 0 99 2a 71
        E 30 99 2a 00
        E 0 99 28 00
        E 0 99 1b 00
        E 0 99 26 00
        E 0 99 28 00
        E 0 99 1b 7f
        E 30 99 1b 00
        E 0 99 33 00
        E 0 99 1b 7f
        E 0 99 2a 45
        E 30 99 2a 00
        E 0 99 1b 00
        E 0 99 28 7f
        E 0 99 1b 7f
        E 0 99 33 67
        E 0 99 28 67
        E 30 99 28 00
        E 0 99 1b 00
        E 0 99 33 00
        E 0 99 1b 7f
        E 0 99 2a 7f
        E 0 99 33 71
        E 0 99 2a 71
        E 30 99 2a 00
        E 0 99 1b 00
        E 0 99 2a 00
        E 0 99 33 00
        E 0 99 1b 7f
        E 0 99 2a 7f
        E 0 99 33 36
        E 0 99 28 36
        E 30 99 28 00
        E 0 99 1b 00
        E 0 99 2a 00
        E 0 99 33 00
        E 0 99 1b 7f
        E 0 99 33 47
        E 0 99 2a 47
        E 30 99 2a 00
        E 0 99 1b 00
        E 0 99 1b 7f
        E 0 99 2a 7f
        E 30 99 2a 00
        E 0 99 1b 00
        E 0 99 33 00
        E 0 99 26 7f
        E 0 99 28 7f
        E 0 99 1b 7f
        E 0 99 33 6a
        E 0 99 28 6a
        E 0 99 2a 6a
        E 30 99 2a 00
        E 0 99 28 00
        E 0 99 1b 00
        E 0 99 26 00
        E 0 99 28 00
        E 0 99 33 00
        E 0 99 1b 7f
        E 0 99 2a 7f
        E 0 99 33 38
        E 30 99 33 00
        E 0 99 2a 00
        E 0 99 1b 00
        E 0 99 1b 7f
        E 0 99 2a 48
        E 0 99 28 48
        E 0 99 2a 48
        E 30 99 28 00
        E 0 99 1b 00
        E 0 99 2a 00
        E 0 99 1b 7f
        E 0 99 2a 7f
        E 0 99 28 4d
        E 30 99 28 00
        E 0 99 2a 00
        E 0 99 1b 00
        E 0 99 2a 00
        E 0 99 1b 7f
        E 0 99 2a 7f
        E 0 99 33 7f
        E 0 99 2a 7f
        E 30 99 2a 00
        E 0 99 1b 00
        E 0 99 2a 00
        E 0 99 33 00
        E 0 99 1b 7f
        E 0 99 2a 7f
        E 30 99 2a 00
        E 0 99 1b 00
        E 0 99 1b 7f
        E 0 99 33 4f
        E 0 99 2a 4f
        E 30 99 2a 00
        E 0 99 33 00
        E 0 99 1b 00
        E 0 99 1b 7f
        E 0 99 2a 7f
        E 0 99 26 7f
        E 0 99 28 7f
        E 0 99 2a 7f
        E 0 99 33 39
        E 30 99 33 00
        E 0 99 2a 00
        E 0 99 26 00
        E 0 99 1b 00
        E 0 99 2a 00
        E 0 99 28 00
        E 0 99 26 7f
        E 0 99 28 7f
        E 0 99 1b 7f
        E 0 99 2a 7f
        E 0 99 33 71
        E 0 99 28 71
        E 0 99 2a 71
        E 30 99 2a 00
        E 0 99 28 00
        E 0 99 1b 00
        E 0 99 26 00
        E 0 99 28 00
        E 0 99 1b 7f
        E 30 99 1b 00
        E 0 99 33 00
        E 0 99 1b 7f
        E 0 99 2a 45
        E 30 99 2a 00
        E 0 99 1b 00
        E 0 99 28 7f
        E 0 99 1b 7f
        E 0 99 33 67
        E 0 99 28 67
        E 30 99 28 00
        E 0 99 1b 00
        E 0 99 33 00
        E 0 99 1b 7f
        E 0 99 2a 7f
        E 0 99 26 7f
        E 0 99 28 7f
        E 0 99 2a 7f
        E 0 99 33 71
        E 0 99 2a 71
        E 30 99 2a 00
        E 0 99 26 00
        E 0 99 1b 00
        E 0 99 33 00
        E 0 99 28 00
        E 0 99 1b 7f
        E 0 99 2a 7f
        E 0 99 33 36
        E 0 99 28 36
        E 30 99 28 00
        E 0 99 1b 00
        E 0 99 2a 00
        E 0 99 33 00
        E 0 99 1b 7f
        E 0 99 33 47
        E 0 99 2a 47
        E 30 99 2a 00
        E 0 99 1b 00
        E 0 99 1b 7f
        E 0 99 2a 7f
        E 30 99 2a 00
        E 0 99 1b 00
        E 0 99 33 00
        E 0 99 26 7f
        E 0 99 28 7f
        E 0 99 1b 7f
        E 0 99 33 6a
        E 0 99 28 6a
        E 0 99 2a 6a
        E 30 99 2a 00
        E 0 99 28 00
        E 0 99 1b 00
        E 0 99 26 00
        E 0 99 28 00
        E 0 99 33 00
        E 0 99 1b 7f
        E 0 99 2a 7f
        E 0 99 33 38
        E 30 99 33 00
        E 0 99 2a 00
        E 0 99 1b 00
        E 0 99 1b 7f
        E 0 99 26 7f
        E 0 99 28 7f
        E 0 99 2a 48
        E 0 99 28 48
        E 0 99 2a 48
        E 30 99 28 00
        E 0 99 2a 00
        E 0 99 26 00
        E 0 99 28 00
        E 0 99 1b 00
        E 0 99 2a 00
        E 0 99 1b 7f
        E 0 99 2a 7f
        E 0 99 28 4d
        E 30 99 28 00
        E 0 99 2a 00
        E 0 99 1b 00
        E 0 99 2a 00
        E 0 99 1b 7f
        E 0 99 2a 7f
        E 0 99 33 7c
        E 0 99 2a 7c
        E 30 99 2a 00
        E 0 99 1b 00
        E 0 99 2a 00
        E 0 99 33 00
        E 0 99 1b 7f
        E 0 99 2a 7f
        E 30 99 2a 00
        E 0 99 1b 00
        E 0 99 1b 7f
        E 0 99 33 41
        E 0 99 2a 41
        E 30 99 2a 00
        E 0 99 33 00
        E 0 99 1b 00
        E 0 99 1b 7f
        E 0 99 2a 7f
        E 0 99 33 40
        E 30 99 33 00
        E 0 99 2a 00
        E 0 99 1b 00
        E 0 99 26 7f
        E 0 99 28 7f
        E 0 99 1b 7f
        E 0 99 2a 7f
        E 0 99 33 73
        E 0 99 28 73
        E 0 99 2a 73
        E 30 99 2a 00
        E 0 99 28 00
        E 0 99 1b 00
        E 0 99 26 00
        E 0 99 28 00
        E 0 99 1b 7f
        E 30 99 1b 00
        E 0 99 33 00
        E 0 99 1b 7f
        E 0 99 2a 4d
        E 30 99 2a 00
        E 0 99 1b 00
        E 0 99 28 7f
        E 0 99 1b 7f
        E 0 99 33 64
        E 0 99 28 64
        E 30 99 28 00
        E 0 99 1b 00
        E 0 99 33 00
        E 0 99 1b 7f
        E 0 99 2a 7f
        E 0 99 33 68
        E 0 99 2a 68
        E 30 99 2a 00
        E 0 99 1b 00
        E 0 99 2a 00
        E 0 99 33 00
        E 0 99 1b 7f
        E 0 99 2a 7f
        E 0 99 33 35
        E 0 99 28 35
        E 30 99 28 00
        E 0 99 1b 00
        E 0 99 2a 00
        E 0 99 33 00
        E 0 99 1b 7f
        E 0 99 33 4c
        E 0 99 2a 4c
        E 30 99 2a 00
        E 0 99 1b 00
        E 0 99 1b 7f
        E 0 99 2a 7f
        E 30 99 2a 00
        E 0 99 1b 00
        E 0 99 33 00
        E 0 99 26 7f
        E 0 99 28 7f
        E 0 99 1b 7f
        E 0 99 33 7d
        E 0 99 28 7d
        E 0 99 2a 7d
        E 30 99 2a 00
        E 0 99 28 00
        E 0 99 1b 00
        E 0 99 26 00
        E 0 99 28 00
        E 0 99 33 00
        E 0 99 1b 7f
        E 0 99 2a 7f
        E 0 99 33 32
        E 30 99 33 00
        E 0 99 2a 00
        E 0 99 1b 00
        E 0 99 1b 7f
        E 0 99 2a 44
        E 0 99 28 44
        E 0 99 2a 44
        E 30 99 28 00
        E 0 99 1b 00
        E 0 99 2a 00
        E 0 99 1b 7f
        E 0 99 2a 7f
        E 0 99 28 3e
        E 30 99 28 00
        E 0 99 2a 00
        E 0 99 1b 00
        E 0 99 2a 00
        E 0 99 1b 7f
        E 0 99 2a 7f
        E 0 99 33 7f
        E 0 99 2a 7f
        E 30 99 2a 00
        E 0 99 1b 00
        E 0 99 2a 00
        E 0 99 33 00
        E 0 99 1b 7f
        E 0 99 2a 7f
        E 30 99 2a 00
        E 0 99 1b 00
        E 0 99 1b 7f
        E 0 99 33 4f
        E 0 99 2a 4f
        E 30 99 2a 00
        E 0 99 33 00
        E 0 99 1b 00
        E 0 99 1b 7f
        E 0 99 2a 7f
        E 0 99 26 7f
        E 0 99 28 7f
        E 0 99 2a 7f
        E 0 99 33 39
        E 30 99 33 00
        E 0 99 2a 00
        E 0 99 26 00
        E 0 99 1b 00
        E 0 99 2a 00
        E 0 99 28 00
        E 0 99 26 7f
        E 0 99 28 7f
        E 0 99 1b 7f
        E 0 99 2a 7f
        E 0 99 33 71
        E 0 99 28 71
        E 0 99 2a 71
        E 30 99 2a 00
        E 0 99 28 00
        E 0 99 1b 00
        E 0 99 26 00
        E 0 99 28 00
        E 0 99 1b 7f
        E 30 99 1b 00
        E 0 99 33 00
        E 0 99 1b 7f
        E 0 99 2a 45
        E 30 99 2a 00
        E 0 99 1b 00
        E 0 99 28 7f
        E 0 99 1b 7f
        E 0 99 33 67
        E 0 99 28 67
        E 30 99 28 00
        E 0 99 1b 00
        E 0 99 33 00
        E 0 99 1b 7f
        E 0 99 2a 7f
        E 0 99 26 7f
        E 0 99 28 7f
        E 0 99 2a 7f
        E 0 99 33 71
        E 0 99 2a 71
        E 30 99 2a 00
        E 0 99 26 00
        E 0 99 1b 00
        E 0 99 33 00
        E 0 99 28 00
        E 0 99 1b 7f
        E 0 99 2a 7f
        E 0 99 33 36
        E 0 99 28 36
        E 30 99 28 00
        E 0 99 1b 00
        E 0 99 2a 00
        E 0 99 33 00
        E 0 99 1b 7f
        E 0 99 33 47
        E 0 99 2a 47
        E 30 99 2a 00
        E 0 99 1b 00
        E 0 99 1b 7f
        E 0 99 2a 7f
        E 30 99 2a 00
        E 0 99 1b 00
        E 0 99 33 00
        E 0 99 26 7f
        E 0 99 28 7f
        E 0 99 1b 7f
        E 0 99 33 6a
        E 0 99 28 6a
        E 0 99 2a 6a
        E 30 99 2a 00
        E 0 99 28 00
        E 0 99 1b 00
        E 0 99 26 00
        E 0 99 28 00
        E 0 99 33 00
        E 0 99 1b 7f
        E 0 99 2a 7f
        E 0 99 33 38
        E 30 99 33 00
        E 0 99 2a 00
        E 0 99 1b 00
        E 0 99 1b 7f
        E 0 99 26 7f
        E 0 99 28 7f
        E 0 99 2a 48
        E 0 99 28 48
        E 0 99 2a 48
        E 30 99 28 00
        E 0 99 2a 00
        E 0 99 26 00
        E 0 99 28 00
        E 0 99 1b 00
        E 0 99 2a 00
        E 0 99 1b 7f
        E 0 99 2a 7f
        E 0 99 28 4d
        E 30 99 28 00
        E 0 99 2a 00
        E 0 99 1b 00
        E 0 99 2a 00
        E 0 99 1b 7f
        E 0 99 2a 7f
        E 0 99 33 7c
        E 0 99 2a 7c
        E 30 99 2a 00
        E 0 99 1b 00
        E 0 99 2a 00
        E 0 99 33 00
        E 0 99 1b 7f
        E 0 99 2a 7f
        E 30 99 2a 00
        E 0 99 1b 00
        E 0 99 1b 7f
        E 0 99 33 41
        E 0 99 2a 41
        E 30 99 2a 00
        E 0 99 33 00
        E 0 99 1b 00
        E 0 99 1b 7f
        E 0 99 2a 7f
        E 0 99 33 40
        E 30 99 33 00
        E 0 99 2a 00
        E 0 99 1b 00
        E 0 99 26 7f
        E 0 99 28 7f
        E 0 99 1b 7f
        E 0 99 2a 7f
        E 0 99 33 73
        E 0 99 28 73
        E 0 99 2a 73
        E 30 99 2a 00
        E 0 99 28 00
        E 0 99 1b 00
        E 0 99 26 00
        E 0 99 28 00
        E 0 99 1b 7f
        E 30 99 1b 00
        E 0 99 33 00
        E 0 99 1b 7f
        E 0 99 2a 4d
        E 30 99 2a 00
        E 0 99 1b 00
        E 0 99 28 7f
        E 0 99 1b 7f
        E 0 99 33 64
        E 0 99 28 64
        E 30 99 28 00
        E 0 99 1b 00
        E 0 99 33 00
        E 0 99 1b 7f
        E 0 99 2a 7f
        E 0 99 33 68
        E 0 99 2a 68
        E 30 99 2a 00
        E 0 99 1b 00
        E 0 99 2a 00
        E 0 99 33 00
        E 0 99 1b 7f
        E 0 99 2a 7f
        E 0 99 33 35
        E 0 99 28 35
        E 30 99 28 00
        E 0 99 1b 00
        E 0 99 2a 00
        E 0 99 33 00
        E 0 99 1b 7f
        E 0 99 33 4c
        E 0 99 2a 4c
        E 30 99 2a 00
        E 0 99 1b 00
        E 0 99 1b 7f
        E 0 99 2a 7f
        E 30 99 2a 00
        E 0 99 1b 00
        E 0 99 33 00
        E 0 99 26 7f
        E 0 99 28 7f
        E 0 99 1b 7f
        E 0 99 33 7d
        E 0 99 28 7d
        E 0 99 2a 7d
        E 30 99 2a 00
        E 0 99 28 00
        E 0 99 1b 00
        E 0 99 26 00
        E 0 99 28 00
        E 0 99 33 00
        E 0 99 1b 7f
        E 0 99 2a 7f
        E 0 99 33 32
        E 30 99 33 00
        E 0 99 2a 00
        E 0 99 1b 00
        E 0 99 1b 7f
        E 0 99 2a 44
        E 0 99 28 44
        E 0 99 2a 44
        E 30 99 28 00
        E 0 99 1b 00
        E 0 99 2a 00
        E 0 99 1b 7f
        E 0 99 2a 7f
        E 0 99 28 3e
        E 30 99 28 00
        E 0 99 2a 00
        E 0 99 1b 00
        E 0 99 2a 00
        E 0 99 1b 7f
        E 0 99 2a 7f
        E 0 99 33 7f
        E 0 99 2a 7f
        E 30 99 2a 00
        E 0 99 1b 00
        E 0 99 2a 00
        E 0 99 33 00
        E 0 99 1b 7f
        E 0 99 2a 7f
        E 30 99 2a 00
        E 0 99 1b 00
        E 0 99 1b 7f
        E 0 99 33 4f
        E 0 99 2a 4f
        E 30 99 2a 00
        E 0 99 33 00
        E 0 99 1b 00
        E 0 99 1b 7f
        E 0 99 2a 7f
        E 0 99 26 7f
        E 0 99 28 7f
        E 0 99 2a 7f
        E 0 99 33 39
        E 30 99 33 00
        E 0 99 2a 00
        E 0 99 26 00
        E 0 99 1b 00
        E 0 99 2a 00
        E 0 99 28 00
        E 0 99 26 7f
        E 0 99 28 7f
        E 0 99 1b 7f
        E 0 99 2a 7f
        E 0 99 33 71
        E 0 99 28 71
        E 0 99 2a 71
        E 30 99 2a 00
        E 0 99 28 00
        E 0 99 1b 00
        E 0 99 26 00
        E 0 99 28 00
        E 0 99 1b 7f
        E 30 99 1b 00
        E 0 99 33 00
        E 0 99 1b 7f
        E 0 99 2a 45
        E 30 99 2a 00
        E 0 99 1b 00
        E 0 99 28 7f
        E 0 99 1b 7f
        E 0 99 33 67
        E 0 99 28 67
        E 30 99 28 00
        E 0 99 1b 00
        E 0 99 33 00
        E 0 99 1b 7f
        E 0 99 2a 7f
        E 0 99 26 7f
        E 0 99 28 7f
        E 0 99 2a 7f
        E 0 99 33 71
        E 0 99 2a 71
        E 30 99 2a 00
        E 0 99 26 00
        E 0 99 1b 00
        E 0 99 33 00
        E 0 99 28 00
        E 0 99 1b 7f
        E 0 99 2a 7f
        E 0 99 33 36
        E 0 99 28 36
        E 30 99 28 00
        E 0 99 1b 00
        E 0 99 2a 00
        E 0 99 33 00
        E 0 99 1b 7f
        E 0 99 33 47
        E 0 99 2a 47
        E 30 99 2a 00
        E 0 99 1b 00
        E 0 99 1b 7f
        E 0 99 2a 7f
        E 30 99 2a 00
        E 0 99 1b 00
        E 0 99 33 00
        E 0 99 26 7f
        E 0 99 28 7f
        E 0 99 1b 7f
        E 0 99 33 6a
        E 0 99 28 6a
        E 0 99 2a 6a
        E 30 99 2a 00
        E 0 99 28 00
        E 0 99 1b 00
        E 0 99 26 00
        E 0 99 28 00
        E 0 99 33 00
        E 0 99 1b 7f
        E 0 99 2a 7f
        E 0 99 33 38
        E 30 99 33 00
        E 0 99 2a 00
        E 0 99 1b 00
        E 0 99 1b 7f
        E 0 99 26 7f
        E 0 99 28 7f
        E 0 99 2a 48
        E 0 99 28 48
        E 0 99 2a 48
        E 30 99 28 00
        E 0 99 2a 00
        E 0 99 26 00
        E 0 99 28 00
        E 0 99 1b 00
        E 0 99 2a 00
        E 0 99 1b 7f
        E 0 99 2a 7f
        E 0 99 28 4d
        E 30 99 28 00
        E 0 99 2a 00
        E 0 99 1b 00
        E 0 99 2a 00
        E 0 99 1b 7f
        E 0 99 2a 7f
        E 0 99 33 7c
        E 0 99 2a 7c
        E 30 99 2a 00
        E 0 99 1b 00
        E 0 99 2a 00
        E 0 99 33 00
        E 0 99 1b 7f
        E 0 99 2a 7f
        E 30 99 2a 00
        E 0 99 1b 00
        E 0 99 1b 7f
        E 0 99 33 41
        E 0 99 2a 41
        E 30 99 2a 00
        E 0 99 33 00
        E 0 99 1b 00
        E 0 99 1b 7f
        E 0 99 2a 7f
        E 0 99 33 40
        E 30 99 33 00
        E 0 99 2a 00
        E 0 99 1b 00
        E 0 99 26 7f
        E 0 99 28 7f
        E 0 99 1b 7f
        E 0 99 2a 7f
        E 0 99 33 73
        E 0 99 28 73
        E 0 99 2a 73
        E 30 99 2a 00
        E 0 99 28 00
        E 0 99 1b 00
        E 0 99 26 00
        E 0 99 28 00
        E 0 99 1b 7f
        E 30 99 1b 00
        E 0 99 33 00
        E 0 99 1b 7f
        E 0 99 2a 4d
        E 30 99 2a 00
        E 0 99 1b 00
        E 0 99 28 7f
        E 0 99 1b 7f
        E 0 99 33 64
        E 0 99 28 64
        E 30 99 28 00
        E 0 99 1b 00
        E 0 99 33 00
        E 0 99 1b 7f
        E 0 99 2a 7f
        E 0 99 33 68
        E 0 99 2a 68
        E 30 99 2a 00
        E 0 99 1b 00
        E 0 99 2a 00
        E 0 99 33 00
        E 0 99 1b 7f
        E 0 99 2a 7f
        E 0 99 33 35
        E 0 99 28 35
        E 30 99 28 00
        E 0 99 1b 00
        E 0 99 2a 00
        E 0 99 33 00
        E 0 99 1b 7f
        E 0 99 33 4c
        E 0 99 2a 4c
        E 30 99 2a 00
        E 0 99 1b 00
        E 0 99 1b 7f
        E 0 99 2a 7f
        E 30 99 2a 00
        E 0 99 1b 00
        E 0 99 33 00
        E 0 99 26 7f
        E 0 99 28 7f
        E 0 99 1b 7f
        E 0 99 33 7d
        E 0 99 28 7d
        E 0 99 2a 7d
        E 30 99 2a 00
        E 0 99 28 00
        E 0 99 1b 00
        E 0 99 26 00
        E 0 99 28 00
        E 0 99 33 00
        E 0 99 1b 7f
        E 0 99 2a 7f
        E 0 99 33 32
        E 30 99 33 00
        E 0 99 2a 00
        E 0 99 1b 00
        E 0 99 1b 7f
        E 0 99 2a 44
        E 0 99 28 44
        E 0 99 2a 44
        E 30 99 28 00
        E 0 99 1b 00
        E 0 99 2a 00
        E 0 99 1b 7f
        E 0 99 2a 7f
        E 0 99 28 3e
        E 30 99 28 00
        E 0 99 2a 00
        E 0 99 1b 00
        E 0 99 2a 00
        E 0 99 1b 7f
        E 0 99 2a 7f
        E 0 99 33 7f
        E 0 99 2a 7f
        E 30 99 2a 00
        E 0 99 1b 00
        E 0 99 2a 00
        E 0 99 33 00
        E 0 99 1b 7f
        E 0 99 2a 7f
        E 30 99 2a 00
        E 0 99 1b 00
        E 0 99 1b 7f
        E 0 99 33 4f
        E 0 99 2a 4f
        E 30 99 2a 00
        E 0 99 33 00
        E 0 99 1b 00
        E 0 99 1b 7f
        E 0 99 2a 7f
        E 0 99 26 7f
        E 0 99 28 7f
        E 0 99 2a 7f
        E 0 99 33 39
        E 30 99 33 00
        E 0 99 2a 00
        E 0 99 26 00
        E 0 99 1b 00
        E 0 99 2a 00
        E 0 99 28 00
        E 0 99 26 7f
        E 0 99 28 7f
        E 0 99 1b 7f
        E 0 99 2a 7f
        E 0 99 33 71
        E 0 99 28 71
        E 0 99 2a 71
        E 30 99 2a 00
        E 0 99 28 00
        E 0 99 1b 00
        E 0 99 26 00
        E 0 99 28 00
        E 0 99 1b 7f
        E 30 99 1b 00
        E 0 99 33 00
        E 0 99 1b 7f
        E 0 99 2a 45
        E 30 99 2a 00
        E 0 99 1b 00
        E 0 99 28 7f
        E 0 99 1b 7f
        E 0 99 33 67
        E 0 99 28 67
        E 30 99 28 00
        E 0 99 1b 00
        E 0 99 33 00
        E 0 99 1b 7f
        E 0 99 2a 7f
        E 0 99 26 7f
        E 0 99 28 7f
        E 0 99 2a 7f
        E 0 99 33 71
        E 0 99 2a 71
        E 30 99 2a 00
        E 0 99 26 00
        E 0 99 1b 00
        E 0 99 33 00
        E 0 99 28 00
        E 0 99 1b 7f
        E 0 99 2a 7f
        E 0 99 33 36
        E 0 99 28 36
        E 30 99 28 00
        E 0 99 1b 00
        E 0 99 2a 00
        E 0 99 33 00
        E 0 99 1b 7f
        E 0 99 33 47
        E 0 99 2a 47
        E 30 99 2a 00
        E 0 99 1b 00
        E 0 99 1b 7f
        E 0 99 2a 7f
        E 30 99 2a 00
        E 0 99 1b 00
        E 0 99 33 00
        E 0 99 26 7f
        E 0 99 28 7f
        E 0 99 1b 7f
        E 0 99 33 6a
        E 0 99 28 6a
        E 0 99 2a 6a
        E 30 99 2a 00
        E 0 99 28 00
        E 0 99 1b 00
        E 0 99 26 00
        E 0 99 28 00
        E 0 99 33 00
        E 0 99 1b 7f
        E 0 99 2a 7f
        E 0 99 33 38
        E 30 99 33 00
        E 0 99 2a 00
        E 0 99 1b 00
        E 0 99 1b 7f
        E 0 99 26 7f
        E 0 99 28 7f
        E 0 99 2a 48
        E 0 99 28 48
        E 0 99 2a 48
        E 30 99 28 00
        E 0 99 2a 00
        E 0 99 26 00
        E 0 99 28 00
        E 0 99 1b 00
        E 0 99 2a 00
        E 0 99 1b 7f
        E 0 99 2a 7f
        E 0 99 28 4d
        E 30 99 28 00
        E 0 99 2a 00
        E 0 99 1b 00
        E 0 99 2a 00
        E 0 99 1b 7f
        E 0 99 2a 7f
        E 0 99 33 7c
        E 0 99 2a 7c
        E 30 99 2a 00
        E 0 99 1b 00
        E 0 99 2a 00
        E 0 99 33 00
        E 0 99 1b 7f
        E 0 99 2a 7f
        E 30 99 2a 00
        E 0 99 1b 00
        E 0 99 1b 7f
        E 0 99 33 41
        E 0 99 2a 41
        E 30 99 2a 00
        E 0 99 33 00
        E 0 99 1b 00
        E 0 99 1b 7f
        E 0 99 2a 7f
        E 0 99 33 40
        E 30 99 33 00
        E 0 99 2a 00
        E 0 99 1b 00
        E 0 99 26 7f
        E 0 99 28 7f
        E 0 99 1b 7f
        E 0 99 2a 7f
        E 0 99 33 73
        E 0 99 28 73
        E 0 99 2a 73
        E 30 99 2a 00
        E 0 99 28 00
        E 0 99 1b 00
        E 0 99 26 00
        E 0 99 28 00
        E 0 99 1b 7f
        E 30 99 1b 00
        E 0 99 33 00
        E 0 99 1b 7f
        E 0 99 2a 4d
        E 30 99 2a 00
        E 0 99 1b 00
        E 0 99 28 7f
        E 0 99 1b 7f
        E 0 99 33 64
        E 0 99 28 64
        E 30 99 28 00
        E 0 99 1b 00
        E 0 99 33 00
        E 0 99 1b 7f
        E 0 99 2a 7f
        E 0 99 33 68
        E 0 99 2a 68
        E 30 99 2a 00
        E 0 99 1b 00
        E 0 99 2a 00
        E 0 99 33 00
        E 0 99 1b 7f
        E 0 99 2a 7f
        E 0 99 33 35
        E 0 99 28 35
        E 30 99 28 00
        E 0 99 1b 00
        E 0 99 2a 00
        E 0 99 33 00
        E 0 99 1b 7f
        E 0 99 33 4c
        E 0 99 2a 4c
        E 30 99 2a 00
        E 0 99 1b 00
        E 0 99 1b 7f
        E 0 99 2a 7f
        E 30 99 2a 00
        E 0 99 1b 00
        E 0 99 33 00
        E 0 99 26 7f
        E 0 99 28 7f
        E 0 99 1b 7f
        E 0 99 33 7d
        E 0 99 28 7d
        E 0 99 2a 7d
        E 30 99 2a 00
        E 0 99 28 00
        E 0 99 1b 00
        E 0 99 26 00
        E 0 99 28 00
        E 0 99 33 00
        E 0 99 1b 7f
        E 0 99 2a 7f
        E 0 99 33 32
        E 30 99 33 00
        E 0 99 2a 00
        E 0 99 1b 00
        E 0 99 1b 7f
        E 0 99 2a 44
        E 0 99 28 44
        E 0 99 2a 44
        E 30 99 28 00
        E 0 99 1b 00
        E 0 99 2a 00
        E 0 99 1b 7f
        E 0 99 2a 7f
        E 0 99 28 3e
        E 30 99 28 00
        E 0 99 2a 00
        E 0 99 1b 00
        E 0 99 2a 00
        E 0 99 33 7f
        E 0 99 1b 7f
        E 0 99 2a 7f
        E 30 99 2a 00
        E 0 99 1b 00
        E 0 99 33 00
        E 0 99 1b 7f
        E 0 99 2a 7f
        E 30 99 2a 00
        E 0 99 1b 00
        E 0 99 1b 7f
        E 0 99 33 4f
        E 30 99 33 00
        E 0 99 1b 00
        E 0 99 1b 7f
        E 0 99 2a 7f
        E 0 99 33 39
        E 30 99 33 00
        E 0 99 2a 00
        E 0 99 1b 00
        E 0 99 26 7f
        E 0 99 28 7f
        E 0 99 1b 7f
        E 0 99 2a 7f
        E 0 99 33 71
        E 0 99 26 71
        E 0 99 28 71
        E 30 99 28 00
        E 0 99 1b 00
        E 0 99 28 00
        E 0 99 26 00
        E 0 99 2a 00
        E 0 99 1b 7f
        E 30 99 1b 00
        E 0 99 26 00
        E 0 99 33 00
        E 0 99 28 00
        E 0 99 1b 7f
        E 0 99 2a 7f
        E 30 99 2a 00
        E 0 99 1b 00
        E 0 99 28 7f
        E 0 99 1b 7f
        E 0 99 33 67
        E 30 99 33 00
        E 0 99 1b 00
        E 0 99 28 00
        E 0 99 1b 7f
        E 0 99 2a 7f
        E 0 99 33 71
        E 30 99 33 00
        E 0 99 2a 00
        E 0 99 1b 00
        E 0 99 1b 7f
        E 0 99 2a 7f
        E 0 99 33 36
        E 30 99 33 00
        E 0 99 2a 00
        E 0 99 1b 00
        E 0 99 1b 7f
        E 0 99 33 47
        E 30 99 1b 00
        E 0 99 1b 7f
        E 0 99 2a 7f
        E 30 99 2a 00
        E 0 99 1b 00
        E 0 99 33 00
        E 0 99 26 7f
        E 0 99 28 7f
        E 0 99 1b 7f
        E 0 99 33 6a
        E 0 99 26 6a
        E 0 99 28 6a
        E 30 99 28 00
        E 0 99 1b 00
        E 0 99 28 00
        E 0 99 26 00
        E 0 99 33 00
        E 0 99 1b 7f
        E 0 99 2a 7f
        E 0 99 33 38
        E 30 99 33 00
        E 0 99 1b 00
        E 0 99 26 00
        E 0 99 28 00
        E 0 99 2a 00
        E 0 99 1b 7f
        E 0 99 2a 48
        E 30 99 1b 00
        E 0 99 1b 7f
        E 0 99 2a 7f
        E 30 99 2a 00
        E 0 99 1b 00
        E 0 99 2a 00
        E 0 99 1b 7f
        E 0 99 2a 7f
        E 0 99 33 7c
        E 30 99 33 00
        E 0 99 2a 00
        E 0 99 1b 00
        E 0 99 1b 7f
        E 0 99 2a 7f
        E 30 99 2a 00
        E 0 99 1b 00
        E 0 99 1b 7f
        E 0 99 33 41
        E 30 99 33 00
        E 0 99 1b 00
        E 0 99 1b 7f
        E 0 99 2a 7f
        E 0 99 33 40
        E 30 99 33 00
        E 0 99 2a 00
        E 0 99 1b 00
        E 0 99 26 7f
        E 0 99 28 7f
        E 0 99 1b 7f
        E 0 99 2a 7f
        E 0 99 33 73
        E 0 99 26 73
        E 0 99 28 73
        E 30 99 28 00
        E 0 99 1b 00
        E 0 99 28 00
        E 0 99 26 00
        E 0 99 2a 00
        E 0 99 1b 7f
        E 30 99 1b 00
        E 0 99 26 00
        E 0 99 33 00
        E 0 99 28 00
        E 0 99 1b 7f
        E 0 99 2a 7f
        E 30 99 2a 00
        E 0 99 1b 00
        E 0 99 28 7f
        E 0 99 1b 7f
        E 0 99 33 64
        E 30 99 33 00
        E 0 99 1b 00
        E 0 99 28 00
        E 0 99 1b 7f
        E 0 99 2a 7f
        E 0 99 33 68
        E 30 99 33 00
        E 0 99 2a 00
        E 0 99 1b 00
        E 0 99 1b 7f
        E 0 99 2a 7f
        E 0 99 33 35
        E 30 99 33 00
        E 0 99 2a 00
        E 0 99 1b 00
        E 0 99 1b 7f
        E 0 99 33 4c
        E 30 99 1b 00
        E 0 99 1b 7f
        E 0 99 2a 7f
        E 30 99 2a 00
        E 0 99 1b 00
        E 0 99 33 00
        E 0 99 33 7d
        E 0 99 26 7d
        E 0 99 28 7d
        E 0 99 26 7f
        E 0 99 28 7f
        E 0 99 1b 7f
        E 30 99 1b 00
        E 0 99 26 00
        E 0 99 28 00
        E 0 99 33 00
        E 0 99 28 00
        E 0 99 1b 7f
        E 0 99 2a 7f
        E 0 99 33 32
        E 30 99 33 00
        E 0 99 1b 00
        E 0 99 26 00
        E 0 99 28 00
        E 0 99 2a 00
        E 0 99 1b 7f
        E 0 99 2a 44
        E 0 99 28 44
        E 30 99 28 00
        E 0 99 1b 00
        E 0 99 1b 7f
        E 0 99 2a 7f
        E 30 99 2a 00
        E 0 99 1b 00
        E 0 99 2a 00
        E 0 99 33 7f
        E 0 99 1b 7f
        E 0 99 2a 7f
        E 30 99 2a 00
        E 0 99 1b 00
        E 0 99 33 00
        E 0 99 1b 7f
        E 0 99 2a 7f
        E 30 99 2a 00
        E 0 99 1b 00
        E 0 99 1b 7f
        E 0 99 33 4f
        E 30 99 33 00
        E 0 99 1b 00
        E 0 99 1b 7f
        E 0 99 2a 7f
        E 0 99 33 39
        E 30 99 33 00
        E 0 99 2a 00
        E 0 99 1b 00
        E 0 99 26 7f
        E 0 99 28 7f
        E 0 99 1b 7f
        E 0 99 2a 7f
        E 0 99 33 71
        E 0 99 26 71
        E 0 99 28 71
        E 30 99 28 00
        E 0 99 1b 00
        E 0 99 28 00
        E 0 99 26 00
        E 0 99 2a 00
        E 0 99 1b 7f
        E 30 99 1b 00
        E 0 99 26 00
        E 0 99 33 00
        E 0 99 28 00
        E 0 99 1b 7f
        E 0 99 2a 7f
        E 30 99 2a 00
        E 0 99 1b 00
        E 0 99 28 7f
        E 0 99 1b 7f
        E 0 99 33 67
        E 30 99 33 00
        E 0 99 1b 00
        E 0 99 28 00
        E 0 99 1b 7f
        E 0 99 2a 7f
        E 0 99 33 71
        E 30 99 33 00
        E 0 99 2a 00
        E 0 99 1b 00
        E 0 99 1b 7f
        E 0 99 2a 7f
        E 0 99 33 36
        E 30 99 33 00
        E 0 99 2a 00
        E 0 99 1b 00
        E 0 99 1b 7f
        E 0 99 33 47
        E 30 99 1b 00
        E 0 99 1b 7f
        E 0 99 2a 7f
        E 30 99 2a 00
        E 0 99 1b 00
        E 0 99 33 00
        E 0 99 26 7f
        E 0 99 28 7f
        E 0 99 1b 7f
        E 0 99 33 6a
        E 0 99 26 6a
        E 0 99 28 6a
        E 30 99 28 00
        E 0 99 1b 00
        E 0 99 28 00
        E 0 99 26 00
        E 0 99 33 00
        E 0 99 1b 7f
        E 0 99 2a 7f
        E 0 99 33 38
        E 30 99 33 00
        E 0 99 1b 00
        E 0 99 26 00
        E 0 99 28 00
        E 0 99 2a 00
        E 0 99 1b 7f
        E 0 99 2a 48
        E 30 99 1b 00
        E 0 99 1b 7f
        E 0 99 2a 7f
        E 30 99 2a 00
        E 0 99 1b 00
        E 0 99 2a 00
        E 0 99 28 7f
        E 0 99 39 7f
        E 60 99 28 00
        E 419 99 39 00
        E 1 b0 7b 00
        GUID {4270A86A-0811-4DD5-B3A5-7888F0E63C94}
        IGNTEMPO 0 120.00000000 4 4
        SRCCOLOR 1223
        VELLANE -1 111 0
      >
    >
  >
  <TRACK '{36CC23A6-F9BB-4391-88D4-30E9DE2272DE}'
    NAME "Bass Drum (Rock Kit) - AvaAdore.midi"
    PEAKCOL 16576
    BEAT -1
    AUTOMODE 0
    VOLPAN 1.00000000000000 0.00000000000000 -1.00000000000000 -1.00000000000000 1.00000000000000
    MUTESOLO 0 0 0
    IPHASE 0
    ISBUS 0 0
    BUSCOMP 0 0
    SHOWINMIX 1 0.666700 0.500000 1 0.500000 0 -1 0
    FREEMODE 0
    SEL 0
    REC 0 0 0 0 0 0 0
    VU 2
    TRACKHEIGHT 0 0
    INQ 0 0 0 0.5000000000 100 0 0 100
    NCHAN 2
    FX 1
    TRACKID {36CC23A6-F9BB-4391-88D4-30E9DE2272DE}
    PERF 0
    MIDIOUT 0
    MAINSEND 1 0
    <FXCHAIN
      WNDRECT 338 315 1173 696
      SHOW 0
      LASTSEL 0
      DOCKED 0
      BYPASS 0 0
      <VST "VSTi: MT-PowerDrumKit (MANDA AUDIO) (16 out)" "MT-PowerDrumKit.dll" 0 ""
        RFBUTe5e7f4AAAAAEAAAAAEAAAAAAAAAAgAAAAAAAAAEAAAAAAAAAAgAAAAAAAAAEAAAAAAAAAAgAAAAAAAAAEAAAAAAAAAAgAAAAAAAAAAAAQAAAAAAAAACAAAAAAAA
        AAQAAAAAAAAACAAAAAAAAAAQAAAAAAAAACAAAAAAAAAAQAAAAAAAAACAAAAAAAAAbAIAAAEAAAAAABAAAQAAAGwCAACamTk/XoNCP5qZOT+UwCY/lMAmPww9Pj+R70I/
        V5ZAP9h+Mj/YfjI/jSUwP40lMD+NJTA/AAAAPwAAAD8AAAA/PdSuPpxTsT5vEoM+F9kOPx1aRD9kVyI/4ZUoP4zalT5O1C4/TtQuPwAAgD8AAIA/AACAPwAAgD8AAIA/
        AACAPwAAgD8AAIA/AACAPwAAgD8AAIA/AACAPwAAgD8AAAAAAAAAAAAAAAAAAAAAAAAAAAAAAAAAAAAAAAAAAAAAAAAAAAAAAAAAAAAAAAAAAAAAAAAAAJnTST8AAAAA
        AAAAAEjhuj4zMxM/AAAAAAAAAAAAAAAA4XrUPilczz5xPco+AAAAAAAAAAAAAAAAAAAAAAAAAAAAAAAAAACAPwAAAAAAAAAAAAAAAAAAAAAAAAAAAAAAAAAAAAAAAAAA
        AAAAAAAAAAAAAAAAAAAAAAAAAAAAAAAAAAAAAAAAAAAAAAAAAAAAAAAA0D0AAPA9AADgPQAAGD4AACg+AAA4PgAAqD4AAEg+AAAwPgAAED4AAGA+AABwPgAAUD4AAIg+
        AACMPgAAaD4AAIA+AACgPQAAAD4AAAAAAACcPgAAmD4AAJQ+AAAAAAAAWD4AAEA+AAAgPgAAAAAAAAAAAAAAAAAAAAAAAAAAAAAAAAAAAAAAAMA9AAAIPgAAAAAAAKA+
        AAAAAAAAAAAAAAAAAAAAAAAAAAAAAAAAAAAAAAAAAAAAAAAAAAAAAAAAAAAAAAAAAAAAAAAAAAAAAAA/AACAPAAAAAAAAAAAAAAAAAAAAAAAAAAAAAAAAAAAAAAAAAAA
        AAAAAAAAAAAATVQtUG93ZXJEcnVtS2l0ABAAAAA=
      >
      FLOATPOS 0 0 0 0
      FXID {F58A0F4C-B047-4B4D-AECD-3A1CDAE38C40}
      WAK 0
    >
    <ITEM
      POSITION 0.00000000000000
      SNAPOFFS 0.00000000000000
      LENGTH 258.15129600000000
      LOOP 1
      ALLTAKES 0
      SEL 0
      FADEIN 1 0.000000 0.000000 1 0 0.000000
      FADEOUT 1 0.000000 0.000000 1 0 0.000000
      MUTE 0
      IGUID {B4D9AC06-8091-47B8-849F-D7CAC2F1D582}
      IID 7
      NAME "Bass Drum (Rock Kit) - AvaAdore.midi.mid"
      VOLPAN 1.000000 0.000000 1.000000 -1.000000
      SOFFS 0.00000000000000 0.00000000000000
      PLAYRATE 1.00000000000000 1 0.00000000000000 -1 0 0.002500
      CHANMODE 0
      GUID {8E302C63-38EF-4A82-B609-DA26718063F0}
      <SOURCE MIDI
        HASDATA 1 120 QN
        POOLEDEVTS {31E0466C-104E-447E-9127-8EF8E76BA338}
        <X 0 0
          /wNBdmEgQWRvcmU=
        >
        <X 0 0
          /wNNaXh0dXJlIG9mIFN0dWRpbyBhbmQgTGl2ZSBWZXJzaW9u
        >
        <X 0 0
          /wNCYXNzIERydW0gKFJvY2sgS2l0KQ==
        >
        <X 0 0
          /wFUaGlzIE1pZGkgZmlsZSBoYXMgYmVlbiBvcHRpbWlzZWQgZm9yIA==
          WEcgU3ludGhlc2lzZXJzLgo=
        >
        <X 0 0
          /wFDaGFubmVsIDEwIGFuZCAxMSBoYXZlIHRvIG1hZGUgdG8gYmUgZA==
          cnVtIGNoYW5uZWxzLgo=
        >
        <X 0 0
          /wFDaGFubmVsIDEwIGJlaW5nIGEgU3RhbmRhcmQgRHJ1bSBLaXQK
        >
        <X 0 0
          /wFDaGFubmVsIDExIGJlaW5nIGEgUm9jayBLaXQgKEJldHRlciBCYQ==
          c3MgRHJ1bSkK
        >
        E 0 ba 00 7f
        E 0 ba 20 00
        E 0 ca 10 00
        E 0 ba 07 6e
        E 480 9a 23 7f
        E 0 9a 24 7f
        E 30 9a 24 00
        E 0 9a 23 00
        E 270 9a 24 7f
        E 30 9a 24 00
        E 60 9a 24 7f
        E 30 9a 24 00
        E 60 9a 23 7f
        E 0 9a 24 7f
        E 30 9a 24 00
        E 0 9a 23 00
        E 270 9a 24 7f
        E 30 9a 24 00
        E 60 9a 24 7f
        E 30 9a 24 00
        E 60 9a 24 7f
        E 0 9a 23 7f
        E 30 9a 23 00
        E 0 9a 24 00
        E 270 9a 24 7f
        E 30 9a 24 00
        E 60 9a 24 7f
        E 30 9a 24 00
        E 60 9a 24 7f
        E 0 9a 23 7f
        E 30 9a 23 00
        E 0 9a 24 00
        E 270 9a 24 7f
        E 30 9a 24 00
        E 60 9a 24 7f
        E 30 9a 24 00
        E 60 9a 23 7f
        E 0 9a 24 7f
        E 30 9a 24 00
        E 0 9a 23 00
        E 270 9a 24 7f
        E 30 9a 24 00
        E 60 9a 24 7f
        E 30 9a 24 00
        E 60 9a 24 7f
        E 0 9a 23 7f
        E 30 9a 23 00
        E 0 9a 24 00
        E 270 9a 24 7f
        E 30 9a 24 00
        E 60 9a 24 7f
        E 30 9a 24 00
        E 60 9a 24 7f
        E 0 9a 23 7f
        E 30 9a 23 00
        E 0 9a 24 00
        E 270 9a 24 7f
        E 30 9a 24 00
        E 60 9a 24 7f
        E 30 9a 24 00
        E 60 9a 24 7f
        E 0 9a 23 7f
        E 30 9a 23 00
        E 0 9a 24 00
        E 0 9a 24 7f
        E 30 9a 24 00
        E 30 9a 24 7f
        E 30 9a 24 00
        E 0 9a 23 7f
        E 0 9a 24 7f
        E 30 9a 24 00
        E 0 9a 23 00
        E 0 9a 24 7f
        E 30 9a 24 00
        E 30 9a 24 7f
        E 30 9a 24 00
        E 0 9a 24 7f
        E 0 9a 23 7f
        E 30 9a 23 00
        E 0 9a 24 00
        E 0 9a 24 7f
        E 0 9a 23 7f
        E 30 9a 23 00
        E 0 9a 24 00
        E 0 9a 24 7f
        E 0 9a 23 7f
        E 30 9a 23 00
        E 0 9a 24 00
        E 0 9a 24 7f
        E 0 9a 23 7f
        E 30 9a 23 00
        E 0 9a 24 00
        E 0 9a 24 7f
        E 0 9a 23 7f
        E 30 9a 23 00
        E 0 9a 24 00
        E 0 9a 24 7f
        E 0 9a 23 7f
        E 30 9a 23 00
        E 0 9a 24 00
        E 0 9a 24 7f
        E 0 9a 23 7f
        E 30 9a 23 00
        E 0 9a 24 00
        E 0 9a 24 7f
        E 0 9a 23 7f
        E 30 9a 23 00
        E 0 9a 24 00
        E 0 9a 24 7f
        E 0 9a 23 7f
        E 0 9a 24 7c
        E 30 9a 24 00
        E 0 9a 23 00
        E 0 9a 24 00
        E 30 9a 24 41
        E 30 9a 24 00
        E 90 9a 24 4d
        E 30 9a 24 00
        E 30 9a 24 68
        E 30 9a 24 00
        E 30 9a 24 4c
        E 30 9a 24 00
        E 60 9a 24 7f
        E 30 9a 24 00
        E 60 9a 24 7f
        E 0 9a 23 7f
        E 0 9a 24 7f
        E 30 9a 24 00
        E 0 9a 23 00
        E 0 9a 24 00
        E 30 9a 24 4f
        E 30 9a 24 00
        E 90 9a 24 45
        E 30 9a 24 00
        E 30 9a 24 71
        E 30 9a 24 00
        E 30 9a 24 47
        E 30 9a 24 00
        E 60 9a 24 7f
        E 30 9a 24 00
        E 60 9a 24 7f
        E 0 9a 23 7f
        E 0 9a 24 7c
        E 30 9a 24 00
        E 0 9a 23 00
        E 0 9a 24 00
        E 30 9a 24 41
        E 30 9a 24 00
        E 90 9a 24 4d
        E 30 9a 24 00
        E 30 9a 24 68
        E 30 9a 24 00
        E 30 9a 24 4c
        E 30 9a 24 00
        E 60 9a 24 7f
        E 30 9a 24 00
        E 60 9a 24 7f
        E 0 9a 23 7f
        E 0 9a 24 7f
        E 30 9a 24 00
        E 0 9a 23 00
        E 0 9a 24 00
        E 30 9a 24 4f
        E 30 9a 24 00
        E 90 9a 24 45
        E 30 9a 24 00
        E 30 9a 24 71
        E 30 9a 24 00
        E 30 9a 24 47
        E 30 9a 24 00
        E 60 9a 24 7f
        E 30 9a 24 00
        E 60 9a 24 7f
        E 0 9a 23 7f
        E 0 9a 24 7c
        E 30 9a 24 00
        E 0 9a 23 00
        E 0 9a 24 00
        E 30 9a 24 41
        E 30 9a 24 00
        E 90 9a 24 4d
        E 30 9a 24 00
        E 30 9a 24 68
        E 30 9a 24 00
        E 30 9a 24 4c
        E 30 9a 24 00
        E 60 9a 24 7f
        E 30 9a 24 00
        E 60 9a 24 7f
        E 0 9a 23 7f
        E 0 9a 24 7f
        E 30 9a 24 00
        E 0 9a 23 00
        E 0 9a 24 00
        E 30 9a 24 4f
        E 30 9a 24 00
        E 90 9a 24 45
        E 30 9a 24 00
        E 30 9a 24 71
        E 30 9a 24 00
        E 30 9a 24 47
        E 30 9a 24 00
        E 60 9a 24 7f
        E 30 9a 24 00
        E 60 9a 24 7f
        E 0 9a 23 7f
        E 0 9a 24 7c
        E 30 9a 24 00
        E 0 9a 23 00
        E 0 9a 24 00
        E 30 9a 24 41
        E 30 9a 24 00
        E 90 9a 24 4d
        E 30 9a 24 00
        E 30 9a 24 68
        E 30 9a 24 00
        E 30 9a 24 4c
        E 30 9a 24 00
        E 60 9a 24 7f
        E 30 9a 24 00
        E 60 9a 24 7f
        E 0 9a 23 7f
        E 0 9a 24 7f
        E 30 9a 24 00
        E 0 9a 23 00
        E 0 9a 24 00
        E 30 9a 24 4f
        E 30 9a 24 00
        E 90 9a 24 45
        E 30 9a 24 00
        E 30 9a 24 71
        E 30 9a 24 00
        E 30 9a 24 47
        E 30 9a 24 00
        E 60 9a 24 7f
        E 30 9a 24 00
        E 60 9a 24 7f
        E 0 9a 23 7f
        E 0 9a 24 7c
        E 30 9a 24 00
        E 0 9a 23 00
        E 0 9a 24 00
        E 30 9a 24 41
        E 30 9a 24 00
        E 90 9a 24 4d
        E 30 9a 24 00
        E 30 9a 24 68
        E 30 9a 24 00
        E 30 9a 24 4c
        E 30 9a 24 00
        E 60 9a 24 7f
        E 30 9a 24 00
        E 60 9a 24 7f
        E 0 9a 23 7f
        E 0 9a 24 7f
        E 30 9a 24 00
        E 0 9a 23 00
        E 0 9a 24 00
        E 30 9a 24 4f
        E 30 9a 24 00
        E 90 9a 24 45
        E 30 9a 24 00
        E 30 9a 24 64
        E 30 9a 24 00
        E 0 9a 24 64
        E 30 9a 24 00
        E 0 9a 24 47
        E 30 9a 24 00
        E 30 9a 24 64
        E 30 9a 24 00
        E 0 9a 24 64
        E 30 9a 24 00
        E 30 9a 24 64
        E 30 9a 24 00
        E 0 9a 24 7f
        E 0 9a 23 7f
        E 0 9a 24 7c
        E 30 9a 24 00
        E 0 9a 23 00
        E 0 9a 24 00
        E 30 9a 24 41
        E 30 9a 24 00
        E 90 9a 24 4d
        E 30 9a 24 00
        E 30 9a 24 68
        E 30 9a 24 00
        E 30 9a 24 4c
        E 30 9a 24 00
        E 60 9a 24 7f
        E 30 9a 24 00
        E 60 9a 24 7f
        E 0 9a 23 7f
        E 0 9a 24 7f
        E 30 9a 24 00
        E 0 9a 23 00
        E 0 9a 24 00
        E 30 9a 24 4f
        E 30 9a 24 00
        E 90 9a 24 45
        E 30 9a 24 00
        E 30 9a 24 71
        E 30 9a 24 00
        E 30 9a 24 47
        E 30 9a 24 00
        E 60 9a 24 7f
        E 30 9a 24 00
        E 60 9a 24 7f
        E 0 9a 23 7f
        E 0 9a 24 7f
        E 30 9a 24 00
        E 0 9a 23 00
        E 0 9a 24 00
        E 30 9a 24 4f
        E 30 9a 24 00
        E 90 9a 24 45
        E 30 9a 24 00
        E 30 9a 24 71
        E 30 9a 24 00
        E 30 9a 24 47
        E 30 9a 24 00
        E 60 9a 24 7f
        E 30 9a 24 00
        E 60 9a 23 7f
        E 0 9a 24 7f
        E 60 9a 24 00
        E 0 9a 23 00
        E 150 9a 23 67
        E 0 9a 24 67
        E 60 9a 24 00
        E 0 9a 23 00
        E 30 9a 23 47
        E 0 9a 24 47
        E 60 9a 24 00
        E 0 9a 23 00
        E 120 9a 23 7c
        E 0 9a 24 7c
        E 60 9a 24 00
        E 0 9a 23 00
        E 150 9a 23 64
        E 0 9a 24 64
        E 60 9a 24 00
        E 0 9a 23 00
        E 30 9a 23 4c
        E 0 9a 24 4c
        E 60 9a 24 00
        E 0 9a 23 00
        E 120 9a 23 7f
        E 0 9a 24 7f
        E 60 9a 24 00
        E 0 9a 23 00
        E 150 9a 23 67
        E 0 9a 24 67
        E 60 9a 24 00
        E 0 9a 23 00
        E 30 9a 23 47
        E 0 9a 24 47
        E 60 9a 24 00
        E 0 9a 23 00
        E 120 9a 23 7c
        E 0 9a 24 7c
        E 60 9a 24 00
        E 0 9a 23 00
        E 60 9a 24 73
        E 30 9a 24 00
        E 60 9a 23 64
        E 0 9a 24 64
        E 60 9a 24 00
        E 0 9a 23 00
        E 30 9a 23 4c
        E 0 9a 24 4c
        E 60 9a 24 00
        E 0 9a 23 00
        E 120 9a 23 7f
        E 0 9a 24 7f
        E 0 9a 23 7f
        E 30 9a 24 00
        E 0 9a 23 00
        E 0 9a 24 00
        E 30 9a 24 00
        E 0 9a 23 00
        E 0 9a 23 4f
        E 0 9a 24 4f
        E 30 9a 24 00
        E 0 9a 24 39
        E 30 9a 24 00
        E 0 9a 23 00
        E 60 9a 24 45
        E 30 9a 24 00
        E 30 9a 23 71
        E 0 9a 24 71
        E 30 9a 24 00
        E 30 9a 24 00
        E 0 9a 23 00
        E 0 9a 24 7f
        E 0 9a 23 47
        E 0 9a 24 47
        E 30 9a 24 00
        E 0 9a 24 4a
        E 30 9a 24 00
        E 0 9a 23 00
        E 30 9a 24 7f
        E 30 9a 24 00
        E 60 9a 24 7f
        E 0 9a 23 7c
        E 0 9a 24 7c
        E 30 9a 24 00
        E 0 9a 23 00
        E 0 9a 24 00
        E 30 9a 23 00
        E 0 9a 24 00
        E 0 9a 23 41
        E 0 9a 24 41
        E 30 9a 24 00
        E 0 9a 24 40
        E 30 9a 24 00
        E 0 9a 23 00
        E 60 9a 24 4d
        E 30 9a 24 00
        E 30 9a 23 68
        E 0 9a 24 68
        E 30 9a 24 00
        E 30 9a 24 00
        E 0 9a 23 00
        E 0 9a 24 7f
        E 0 9a 23 4c
        E 0 9a 24 4c
        E 30 9a 24 00
        E 0 9a 24 49
        E 30 9a 24 00
        E 0 9a 23 00
        E 30 9a 24 32
        E 30 9a 24 00
        E 60 9a 23 7f
        E 0 9a 24 7f
        E 0 9a 23 7f
        E 30 9a 24 00
        E 0 9a 23 00
        E 0 9a 24 00
        E 30 9a 24 00
        E 0 9a 23 00
        E 0 9a 23 4f
        E 0 9a 24 4f
        E 30 9a 24 00
        E 0 9a 24 39
        E 30 9a 24 00
        E 0 9a 23 00
        E 60 9a 24 45
        E 30 9a 24 00
        E 30 9a 23 71
        E 0 9a 24 71
        E 30 9a 24 00
        E 30 9a 24 00
        E 0 9a 23 00
        E 0 9a 24 7f
        E 0 9a 23 47
        E 0 9a 24 47
        E 30 9a 24 00
        E 0 9a 24 4a
        E 30 9a 24 00
        E 0 9a 23 00
        E 30 9a 24 7f
        E 30 9a 24 00
        E 60 9a 24 7f
        E 0 9a 23 7c
        E 0 9a 24 7c
        E 30 9a 24 00
        E 0 9a 23 00
        E 0 9a 24 00
        E 30 9a 23 00
        E 0 9a 24 00
        E 0 9a 23 41
        E 0 9a 24 41
        E 30 9a 24 00
        E 0 9a 24 40
        E 30 9a 24 00
        E 0 9a 23 00
        E 60 9a 24 4d
        E 30 9a 24 00
        E 30 9a 23 68
        E 0 9a 24 68
        E 30 9a 24 00
        E 30 9a 24 00
        E 0 9a 23 00
        E 0 9a 24 7f
        E 0 9a 23 4c
        E 0 9a 24 4c
        E 30 9a 24 00
        E 0 9a 24 49
        E 30 9a 24 00
        E 0 9a 23 00
        E 30 9a 24 32
        E 30 9a 24 00
        E 60 9a 24 7f
        E 0 9a 23 7f
        E 0 9a 24 7c
        E 30 9a 24 00
        E 0 9a 23 00
        E 0 9a 24 00
        E 30 9a 24 41
        E 30 9a 24 00
        E 90 9a 24 4d
        E 30 9a 24 00
        E 30 9a 24 68
        E 30 9a 24 00
        E 30 9a 24 4c
        E 30 9a 24 00
        E 60 9a 24 7f
        E 30 9a 24 00
        E 60 9a 24 7f
        E 0 9a 23 7f
        E 0 9a 24 7f
        E 30 9a 24 00
        E 0 9a 23 00
        E 0 9a 24 00
        E 30 9a 24 4f
        E 30 9a 24 00
        E 90 9a 24 45
        E 30 9a 24 00
        E 30 9a 24 71
        E 30 9a 24 00
        E 30 9a 24 47
        E 30 9a 24 00
        E 60 9a 24 7f
        E 30 9a 24 00
        E 60 9a 24 7f
        E 0 9a 23 7f
        E 0 9a 24 7c
        E 30 9a 24 00
        E 0 9a 23 00
        E 0 9a 24 00
        E 30 9a 24 41
        E 30 9a 24 00
        E 90 9a 24 4d
        E 30 9a 24 00
        E 30 9a 24 68
        E 30 9a 24 00
        E 30 9a 24 4c
        E 30 9a 24 00
        E 60 9a 24 7f
        E 30 9a 24 00
        E 60 9a 24 7f
        E 0 9a 23 7f
        E 0 9a 24 7f
        E 30 9a 24 00
        E 0 9a 23 00
        E 0 9a 24 00
        E 30 9a 24 4f
        E 30 9a 24 00
        E 90 9a 24 45
        E 30 9a 24 00
        E 30 9a 24 71
        E 30 9a 24 00
        E 30 9a 24 47
        E 30 9a 24 00
        E 60 9a 24 7f
        E 30 9a 24 00
        E 60 9a 24 7f
        E 0 9a 23 7f
        E 0 9a 24 7c
        E 30 9a 24 00
        E 0 9a 23 00
        E 0 9a 24 00
        E 30 9a 24 41
        E 30 9a 24 00
        E 90 9a 24 4d
        E 30 9a 24 00
        E 30 9a 24 68
        E 30 9a 24 00
        E 30 9a 24 4c
        E 30 9a 24 00
        E 60 9a 24 7f
        E 30 9a 24 00
        E 60 9a 24 7f
        E 0 9a 23 7f
        E 0 9a 24 7f
        E 30 9a 24 00
        E 0 9a 23 00
        E 0 9a 24 00
        E 30 9a 24 4f
        E 30 9a 24 00
        E 90 9a 24 45
        E 30 9a 24 00
        E 30 9a 24 64
        E 30 9a 24 00
        E 0 9a 24 64
        E 30 9a 24 00
        E 0 9a 24 47
        E 30 9a 24 00
        E 30 9a 24 64
        E 30 9a 24 00
        E 0 9a 24 64
        E 30 9a 24 00
        E 30 9a 24 64
        E 30 9a 24 00
        E 0 9a 24 7f
        E 0 9a 23 7f
        E 0 9a 24 7c
        E 30 9a 24 00
        E 0 9a 23 00
        E 0 9a 24 00
        E 30 9a 24 41
        E 30 9a 24 00
        E 90 9a 24 4d
        E 30 9a 24 00
        E 30 9a 24 68
        E 30 9a 24 00
        E 30 9a 24 4c
        E 30 9a 24 00
        E 60 9a 24 7f
        E 30 9a 24 00
        E 60 9a 24 7f
        E 0 9a 23 7f
        E 0 9a 24 7f
        E 30 9a 24 00
        E 0 9a 23 00
        E 0 9a 24 00
        E 30 9a 24 4f
        E 30 9a 24 00
        E 90 9a 24 45
        E 30 9a 24 00
        E 30 9a 24 71
        E 30 9a 24 00
        E 30 9a 24 47
        E 30 9a 24 00
        E 60 9a 24 7f
        E 30 9a 24 00
        E 60 9a 24 7f
        E 0 9a 23 7f
        E 0 9a 24 7f
        E 30 9a 24 00
        E 0 9a 23 00
        E 0 9a 24 00
        E 30 9a 24 4f
        E 30 9a 24 00
        E 90 9a 24 45
        E 30 9a 24 00
        E 30 9a 24 71
        E 30 9a 24 00
        E 30 9a 24 47
        E 30 9a 24 00
        E 60 9a 24 7f
        E 30 9a 24 00
        E 60 9a 23 7c
        E 0 9a 24 7c
        E 60 9a 24 00
        E 0 9a 23 00
        E 150 9a 23 64
        E 0 9a 24 64
        E 60 9a 24 00
        E 0 9a 23 00
        E 30 9a 23 4c
        E 0 9a 24 4c
        E 60 9a 24 00
        E 0 9a 23 00
        E 120 9a 23 7f
        E 0 9a 24 7f
        E 60 9a 24 00
        E 0 9a 23 00
        E 150 9a 23 67
        E 0 9a 24 67
        E 60 9a 24 00
        E 0 9a 23 00
        E 30 9a 23 47
        E 0 9a 24 47
        E 60 9a 24 00
        E 0 9a 23 00
        E 120 9a 23 7c
        E 0 9a 24 7c
        E 60 9a 24 00
        E 0 9a 23 00
        E 150 9a 23 64
        E 0 9a 24 64
        E 60 9a 24 00
        E 0 9a 23 00
        E 30 9a 23 4c
        E 0 9a 24 4c
        E 60 9a 24 00
        E 0 9a 23 00
        E 120 9a 23 7f
        E 0 9a 24 7f
        E 60 9a 24 00
        E 0 9a 23 00
        E 150 9a 23 67
        E 0 9a 24 67
        E 60 9a 24 00
        E 0 9a 23 00
        E 30 9a 23 47
        E 0 9a 24 47
        E 60 9a 24 00
        E 0 9a 23 00
        E 120 9a 23 7c
        E 0 9a 24 7c
        E 60 9a 24 00
        E 0 9a 23 00
        E 150 9a 23 64
        E 0 9a 24 64
        E 60 9a 24 00
        E 0 9a 23 00
        E 30 9a 23 4c
        E 0 9a 24 4c
        E 60 9a 24 00
        E 0 9a 23 00
        E 120 9a 23 7f
        E 0 9a 24 7f
        E 60 9a 24 00
        E 0 9a 23 00
        E 150 9a 23 67
        E 0 9a 24 67
        E 60 9a 24 00
        E 0 9a 23 00
        E 30 9a 23 47
        E 0 9a 24 47
        E 60 9a 24 00
        E 0 9a 23 00
        E 120 9a 23 7c
        E 0 9a 24 7c
        E 60 9a 24 00
        E 0 9a 23 00
        E 150 9a 23 64
        E 0 9a 24 64
        E 60 9a 24 00
        E 0 9a 23 00
        E 30 9a 23 4c
        E 0 9a 24 4c
        E 60 9a 24 00
        E 0 9a 23 00
        E 120 9a 23 7f
        E 0 9a 24 7f
        E 60 9a 24 00
        E 0 9a 23 00
        E 150 9a 23 67
        E 0 9a 24 67
        E 60 9a 24 00
        E 0 9a 23 00
        E 30 9a 23 47
        E 0 9a 24 47
        E 60 9a 24 00
        E 0 9a 23 00
        E 120 9a 23 7c
        E 0 9a 24 7c
        E 30 9a 24 00
        E 0 9a 24 30
        E 30 9a 24 00
        E 0 9a 23 00
        E 0 9a 23 41
        E 0 9a 24 41
        E 30 9a 24 00
        E 0 9a 24 40
        E 30 9a 24 00
        E 0 9a 23 00
        E 0 9a 24 00
        E 30 9a 24 2f
        E 30 9a 24 00
        E 0 9a 24 4d
        E 30 9a 24 00
        E 0 9a 24 64
        E 30 9a 24 00
        E 0 9a 24 68
        E 0 9a 23 68
        E 30 9a 24 00
        E 0 9a 24 35
        E 30 9a 24 00
        E 0 9a 23 00
        E 0 9a 24 00
        E 0 9a 23 4c
        E 0 9a 24 4c
        E 30 9a 24 49
        E 30 9a 24 00
        E 0 9a 23 00
        E 0 9a 24 00
        E 30 9a 24 32
        E 30 9a 24 00
        E 30 9a 24 3e
        E 30 9a 24 00
        E 0 9a 24 7f
        E 0 9a 23 7f
        E 0 9a 24 7f
        E 30 9a 24 00
        E 0 9a 23 00
        E 0 9a 24 00
        E 30 9a 24 79
        E 30 9a 24 00
        E 90 9a 24 6d
        E 30 9a 24 00
        E 30 9a 24 67
        E 30 9a 24 00
        E 30 9a 24 61
        E 30 9a 24 00
        E 60 9a 24 58
        E 30 9a 24 00
        E 60 9a 23 50
        E 0 9a 24 50
        E 30 9a 24 00
        E 0 9a 23 00
        E 270 9a 24 50
        E 30 9a 24 00
        E 60 9a 24 50
        E 30 9a 24 00
        E 60 9a 23 50
        E 0 9a 24 50
        E 30 9a 24 00
        E 0 9a 23 00
        E 270 9a 24 50
        E 30 9a 24 00
        E 60 9a 24 50
        E 30 9a 24 00
        E 60 9a 23 50
        E 0 9a 24 50
        E 30 9a 24 00
        E 0 9a 23 00
        E 270 9a 24 50
        E 30 9a 24 00
        E 60 9a 24 50
        E 30 9a 24 00
        E 60 9a 23 50
        E 0 9a 24 50
        E 30 9a 24 00
        E 0 9a 23 00
        E 270 9a 24 50
        E 30 9a 24 00
        E 60 9a 24 50
        E 30 9a 24 00
        E 60 9a 23 50
        E 0 9a 24 50
        E 30 9a 24 00
        E 0 9a 23 00
        E 270 9a 24 50
        E 30 9a 24 00
        E 60 9a 24 50
        E 30 9a 24 00
        E 60 9a 23 50
        E 0 9a 24 50
        E 30 9a 24 00
        E 0 9a 23 00
        E 270 9a 24 50
        E 30 9a 24 00
        E 60 9a 24 50
        E 30 9a 24 00
        E 60 9a 23 50
        E 0 9a 24 50
        E 30 9a 24 00
        E 0 9a 23 00
        E 270 9a 24 5c
        E 30 9a 24 00
        E 60 9a 24 6d
        E 30 9a 24 00
        E 60 9a 23 7f
        E 0 9a 24 7f
        E 30 9a 24 00
        E 0 9a 23 00
        E 270 9a 24 7f
        E 30 9a 24 00
        E 60 9a 24 7f
        E 30 9a 24 00
        E 60 9a 24 7f
        E 0 9a 23 7f
        E 30 9a 23 00
        E 0 9a 24 00
        E 0 9a 24 7f
        E 30 9a 24 00
        E 30 9a 24 7f
        E 30 9a 24 00
        E 0 9a 23 7f
        E 0 9a 24 7f
        E 30 9a 24 00
        E 0 9a 23 00
        E 0 9a 24 7f
        E 30 9a 24 00
        E 30 9a 24 7f
        E 30 9a 24 00
        E 0 9a 24 7f
        E 0 9a 23 7f
        E 30 9a 23 00
        E 0 9a 24 00
        E 0 9a 24 7f
        E 0 9a 23 7f
        E 30 9a 23 00
        E 0 9a 24 00
        E 0 9a 24 7f
        E 0 9a 23 7f
        E 30 9a 23 00
        E 0 9a 24 00
        E 0 9a 24 7f
        E 0 9a 23 7f
        E 30 9a 23 00
        E 0 9a 24 00
        E 0 9a 24 7f
        E 0 9a 23 7f
        E 30 9a 23 00
        E 0 9a 24 00
        E 0 9a 24 7f
        E 0 9a 23 7f
        E 30 9a 23 00
        E 0 9a 24 00
        E 0 9a 24 7f
        E 0 9a 23 7f
        E 30 9a 23 00
        E 0 9a 24 00
        E 0 9a 24 7f
        E 0 9a 23 7f
        E 30 9a 23 00
        E 0 9a 24 00
        E 0 9a 23 7f
        E 0 9a 24 7f
        E 30 9a 24 00
        E 0 9a 24 36
        E 30 9a 24 00
        E 0 9a 23 00
        E 0 9a 23 4f
        E 0 9a 24 4f
        E 30 9a 24 00
        E 0 9a 24 39
        E 30 9a 24 00
        E 0 9a 23 00
        E 0 9a 24 00
        E 30 9a 24 2f
        E 30 9a 24 00
        E 0 9a 24 45
        E 30 9a 24 00
        E 0 9a 24 67
        E 30 9a 24 00
        E 0 9a 24 71
        E 0 9a 23 71
        E 30 9a 24 00
        E 0 9a 24 36
        E 30 9a 24 00
        E 0 9a 23 00
        E 0 9a 24 00
        E 0 9a 23 47
        E 0 9a 24 47
        E 30 9a 24 4a
        E 30 9a 24 00
        E 0 9a 23 00
        E 0 9a 24 00
        E 30 9a 24 38
        E 30 9a 24 00
        E 30 9a 24 4d
        E 30 9a 24 00
        E 0 9a 23 7c
        E 0 9a 24 7c
        E 60 9a 24 00
        E 0 9a 23 00
        E 150 9a 23 64
        E 0 9a 24 64
        E 60 9a 24 00
        E 0 9a 23 00
        E 30 9a 23 4c
        E 0 9a 24 4c
        E 60 9a 24 00
        E 0 9a 23 00
        E 120 9a 23 7f
        E 0 9a 24 7f
        E 60 9a 24 00
        E 0 9a 23 00
        E 150 9a 23 67
        E 0 9a 24 67
        E 60 9a 24 00
        E 0 9a 23 00
        E 30 9a 23 47
        E 0 9a 24 47
        E 60 9a 24 00
        E 0 9a 23 00
        E 120 9a 23 7c
        E 0 9a 24 7c
        E 60 9a 24 00
        E 0 9a 23 00
        E 150 9a 23 64
        E 0 9a 24 64
        E 60 9a 24 00
        E 0 9a 23 00
        E 30 9a 23 4c
        E 0 9a 24 4c
        E 60 9a 24 00
        E 0 9a 23 00
        E 120 9a 23 7f
        E 0 9a 24 7f
        E 60 9a 24 00
        E 0 9a 23 00
        E 150 9a 23 67
        E 0 9a 24 67
        E 60 9a 24 00
        E 0 9a 23 00
        E 30 9a 23 47
        E 0 9a 24 47
        E 60 9a 24 00
        E 0 9a 23 00
        E 120 9a 23 7c
        E 0 9a 24 7c
        E 60 9a 24 00
        E 0 9a 23 00
        E 150 9a 23 64
        E 0 9a 24 64
        E 60 9a 24 00
        E 0 9a 23 00
        E 30 9a 23 4c
        E 0 9a 24 4c
        E 60 9a 24 00
        E 0 9a 23 00
        E 120 9a 23 7f
        E 0 9a 24 7f
        E 60 9a 24 00
        E 0 9a 23 00
        E 150 9a 23 67
        E 0 9a 24 67
        E 60 9a 24 00
        E 0 9a 23 00
        E 30 9a 23 47
        E 0 9a 24 47
        E 60 9a 24 00
        E 0 9a 23 00
        E 120 9a 23 7c
        E 0 9a 24 7c
        E 60 9a 24 00
        E 0 9a 23 00
        E 150 9a 23 64
        E 0 9a 24 64
        E 60 9a 24 00
        E 0 9a 23 00
        E 30 9a 23 4c
        E 0 9a 24 4c
        E 60 9a 24 00
        E 0 9a 23 00
        E 120 9a 23 7f
        E 0 9a 24 7f
        E 60 9a 24 00
        E 0 9a 23 00
        E 150 9a 23 67
        E 0 9a 24 67
        E 60 9a 24 00
        E 0 9a 23 00
        E 30 9a 23 47
        E 0 9a 24 47
        E 60 9a 24 00
        E 0 9a 23 00
        E 120 9a 23 7c
        E 0 9a 24 7c
        E 60 9a 24 00
        E 0 9a 23 00
        E 150 9a 23 64
        E 0 9a 24 64
        E 60 9a 24 00
        E 0 9a 23 00
        E 30 9a 23 4c
        E 0 9a 24 4c
        E 60 9a 24 00
        E 0 9a 23 00
        E 120 9a 23 7f
        E 0 9a 24 7f
        E 60 9a 24 00
        E 0 9a 23 00
        E 150 9a 23 67
        E 0 9a 24 67
        E 60 9a 24 00
        E 0 9a 23 00
        E 30 9a 23 47
        E 0 9a 24 47
        E 60 9a 24 00
        E 0 9a 23 00
        E 120 9a 23 7c
        E 0 9a 24 7c
        E 60 9a 24 00
        E 0 9a 23 00
        E 150 9a 23 64
        E 0 9a 24 64
        E 60 9a 24 00
        E 0 9a 23 00
        E 30 9a 23 4c
        E 0 9a 24 4c
        E 60 9a 24 00
        E 0 9a 23 00
        E 120 9a 23 7f
        E 0 9a 24 7f
        E 60 9a 24 00
        E 0 9a 23 00
        E 150 9a 23 67
        E 0 9a 24 67
        E 60 9a 24 00
        E 0 9a 23 00
        E 30 9a 23 47
        E 0 9a 24 47
        E 60 9a 24 00
        E 0 9a 23 00
        E 120 9a 23 7c
        E 0 9a 24 7c
        E 30 9a 24 00
        E 0 9a 24 30
        E 30 9a 24 00
        E 0 9a 23 00
        E 0 9a 23 41
        E 0 9a 24 41
        E 30 9a 24 00
        E 0 9a 24 40
        E 30 9a 24 00
        E 0 9a 23 00
        E 0 9a 24 00
        E 30 9a 24 2f
        E 30 9a 24 00
        E 0 9a 24 4d
        E 30 9a 24 00
        E 0 9a 24 64
        E 30 9a 24 00
        E 0 9a 24 68
        E 0 9a 23 68
        E 30 9a 24 00
        E 0 9a 24 35
        E 30 9a 24 00
        E 0 9a 23 00
        E 0 9a 24 00
        E 0 9a 23 4c
        E 0 9a 24 4c
        E 30 9a 24 49
        E 30 9a 24 00
        E 0 9a 23 00
        E 0 9a 24 00
        E 30 9a 24 32
        E 30 9a 24 00
        E 30 9a 24 3e
        E 30 9a 24 00
        E 0 9a 24 7f
        E 0 9a 23 7f
        E 0 9a 24 7f
        E 30 9a 24 00
        E 0 9a 23 00
        E 0 9a 24 00
        E 30 9a 24 4f
        E 30 9a 24 00
        E 90 9a 24 45
        E 30 9a 24 00
        E 30 9a 24 71
        E 30 9a 24 00
        E 30 9a 24 47
        E 30 9a 24 00
        E 60 9a 24 7f
        E 30 9a 24 00
        E 60 9a 24 7f
        E 0 9a 23 7f
        E 0 9a 24 7f
        E 30 9a 24 00
        E 0 9a 23 00
        E 0 9a 24 00
        E 30 9a 24 4f
        E 30 9a 24 00
        E 90 9a 24 45
        E 30 9a 24 00
        E 30 9a 24 71
        E 30 9a 24 00
        E 30 9a 24 47
        E 30 9a 24 00
        E 60 9a 24 7f
        E 30 9a 24 00
        E 60 9a 23 7f
        E 0 9a 24 7f
        E 0 9a 23 7f
        E 30 9a 24 00
        E 0 9a 23 00
        E 0 9a 24 00
        E 30 9a 24 00
        E 0 9a 23 00
        E 0 9a 23 4f
        E 0 9a 24 4f
        E 30 9a 24 00
        E 0 9a 24 39
        E 30 9a 24 00
        E 0 9a 23 00
        E 60 9a 24 45
        E 30 9a 24 00
        E 30 9a 23 71
        E 0 9a 24 71
        E 30 9a 24 00
        E 30 9a 24 00
        E 0 9a 23 00
        E 0 9a 24 7f
        E 0 9a 23 47
        E 0 9a 24 47
        E 30 9a 24 00
        E 0 9a 24 4a
        E 30 9a 24 00
        E 0 9a 23 00
        E 30 9a 24 7f
        E 30 9a 24 00
        E 60 9a 24 7f
        E 0 9a 23 7c
        E 0 9a 24 7c
        E 30 9a 24 00
        E 0 9a 23 00
        E 0 9a 24 00
        E 30 9a 23 00
        E 0 9a 24 00
        E 0 9a 23 41
        E 0 9a 24 41
        E 30 9a 24 00
        E 0 9a 24 40
        E 30 9a 24 00
        E 0 9a 23 00
        E 60 9a 24 4d
        E 30 9a 24 00
        E 30 9a 23 68
        E 0 9a 24 68
        E 30 9a 24 00
        E 30 9a 24 00
        E 0 9a 23 00
        E 0 9a 24 7f
        E 0 9a 23 4c
        E 0 9a 24 4c
        E 30 9a 24 00
        E 0 9a 24 49
        E 30 9a 24 00
        E 0 9a 23 00
        E 30 9a 24 32
        E 30 9a 24 00
        E 60 9a 23 7f
        E 0 9a 24 7f
        E 0 9a 23 7f
        E 30 9a 24 00
        E 0 9a 23 00
        E 0 9a 24 00
        E 30 9a 24 00
        E 0 9a 23 00
        E 0 9a 23 4f
        E 0 9a 24 4f
        E 30 9a 24 00
        E 0 9a 24 39
        E 30 9a 24 00
        E 0 9a 23 00
        E 60 9a 24 45
        E 30 9a 24 00
        E 30 9a 23 71
        E 0 9a 24 71
        E 30 9a 24 00
        E 30 9a 24 00
        E 0 9a 23 00
        E 0 9a 24 7f
        E 0 9a 23 47
        E 0 9a 24 47
        E 30 9a 24 00
        E 0 9a 24 4a
        E 30 9a 24 00
        E 0 9a 23 00
        E 30 9a 24 7f
        E 30 9a 24 00
        E 60 9a 24 7f
        E 0 9a 23 7c
        E 0 9a 24 7c
        E 30 9a 24 00
        E 0 9a 23 00
        E 0 9a 24 00
        E 30 9a 23 00
        E 0 9a 24 00
        E 0 9a 23 41
        E 0 9a 24 41
        E 30 9a 24 00
        E 0 9a 24 40
        E 30 9a 24 00
        E 0 9a 23 00
        E 60 9a 24 4d
        E 30 9a 24 00
        E 30 9a 23 68
        E 0 9a 24 68
        E 30 9a 24 00
        E 30 9a 24 00
        E 0 9a 23 00
        E 0 9a 24 7f
        E 0 9a 23 4c
        E 0 9a 24 4c
        E 30 9a 24 00
        E 0 9a 24 49
        E 30 9a 24 00
        E 0 9a 23 00
        E 30 9a 24 32
        E 30 9a 24 00
        E 60 9a 24 7f
        E 0 9a 23 7c
        E 0 9a 24 7c
        E 30 9a 24 00
        E 0 9a 23 00
        E 0 9a 24 00
        E 30 9a 23 00
        E 0 9a 24 00
        E 0 9a 23 41
        E 0 9a 24 41
        E 30 9a 24 00
        E 0 9a 24 40
        E 30 9a 24 00
        E 0 9a 23 00
        E 60 9a 24 4d
        E 30 9a 24 00
        E 30 9a 23 68
        E 0 9a 24 68
        E 30 9a 24 00
        E 30 9a 24 00
        E 0 9a 23 00
        E 0 9a 24 7f
        E 0 9a 23 4c
        E 0 9a 24 4c
        E 30 9a 24 00
        E 0 9a 24 49
        E 30 9a 24 00
        E 0 9a 23 00
        E 30 9a 24 32
        E 30 9a 24 00
        E 60 9a 24 7f
        E 0 9a 23 7f
        E 0 9a 24 7f
        E 30 9a 24 00
        E 0 9a 23 00
        E 0 9a 24 00
        E 30 9a 24 4f
        E 30 9a 24 00
        E 90 9a 24 45
        E 30 9a 24 00
        E 30 9a 24 71
        E 30 9a 24 00
        E 30 9a 24 47
        E 30 9a 24 00
        E 60 9a 24 7f
        E 30 9a 24 00
        E 60 9a 24 7f
        E 0 9a 23 7f
        E 0 9a 24 7c
        E 30 9a 24 00
        E 0 9a 23 00
        E 0 9a 24 00
        E 30 9a 24 41
        E 30 9a 24 00
        E 90 9a 24 4d
        E 30 9a 24 00
        E 30 9a 24 68
        E 30 9a 24 00
        E 30 9a 24 4c
        E 30 9a 24 00
        E 60 9a 24 7f
        E 30 9a 24 00
        E 60 9a 24 7f
        E 0 9a 23 7f
        E 0 9a 24 7f
        E 30 9a 24 00
        E 0 9a 23 00
        E 0 9a 24 00
        E 30 9a 24 4f
        E 30 9a 24 00
        E 90 9a 24 45
        E 30 9a 24 00
        E 30 9a 24 71
        E 30 9a 24 00
        E 30 9a 24 47
        E 30 9a 24 00
        E 60 9a 24 7f
        E 30 9a 24 00
        E 60 9a 24 7f
        E 0 9a 23 7f
        E 0 9a 24 7f
        E 30 9a 24 00
        E 0 9a 23 00
        E 0 9a 24 00
        E 30 9a 24 4f
        E 30 9a 24 00
        E 90 9a 24 45
        E 30 9a 24 00
        E 30 9a 24 71
        E 30 9a 24 00
        E 30 9a 24 47
        E 30 9a 24 00
        E 60 9a 24 7f
        E 30 9a 24 00
        E 60 9a 24 7f
        E 0 9a 23 7f
        E 0 9a 24 7c
        E 30 9a 24 00
        E 0 9a 23 00
        E 0 9a 24 00
        E 30 9a 24 41
        E 30 9a 24 00
        E 90 9a 24 4d
        E 30 9a 24 00
        E 30 9a 24 68
        E 30 9a 24 00
        E 30 9a 24 4c
        E 30 9a 24 00
        E 60 9a 24 7f
        E 30 9a 24 00
        E 60 9a 24 7f
        E 0 9a 23 7f
        E 0 9a 24 7f
        E 30 9a 24 00
        E 0 9a 23 00
        E 0 9a 24 00
        E 30 9a 24 4f
        E 30 9a 24 00
        E 90 9a 24 45
        E 30 9a 24 00
        E 30 9a 24 71
        E 30 9a 24 00
        E 30 9a 24 47
        E 30 9a 24 00
        E 60 9a 24 7f
        E 30 9a 24 00
        E 60 9a 24 7f
        E 0 9a 23 7f
        E 0 9a 24 7f
        E 30 9a 24 00
        E 0 9a 23 00
        E 0 9a 24 00
        E 30 9a 24 4f
        E 30 9a 24 00
        E 90 9a 24 45
        E 30 9a 24 00
        E 30 9a 24 71
        E 30 9a 24 00
        E 30 9a 24 47
        E 30 9a 24 00
        E 60 9a 24 7f
        E 30 9a 24 00
        E 60 9a 24 7f
        E 0 9a 23 7f
        E 0 9a 24 7c
        E 30 9a 24 00
        E 0 9a 23 00
        E 0 9a 24 00
        E 30 9a 24 41
        E 30 9a 24 00
        E 90 9a 24 4d
        E 30 9a 24 00
        E 30 9a 24 68
        E 30 9a 24 00
        E 30 9a 24 4c
        E 30 9a 24 00
        E 60 9a 24 7f
        E 30 9a 24 00
        E 60 9a 24 7f
        E 0 9a 23 7f
        E 0 9a 24 7f
        E 30 9a 24 00
        E 0 9a 23 00
        E 0 9a 24 00
        E 30 9a 24 4f
        E 30 9a 24 00
        E 90 9a 24 45
        E 30 9a 24 00
        E 30 9a 24 71
        E 30 9a 24 00
        E 30 9a 24 47
        E 30 9a 24 00
        E 60 9a 24 7f
        E 30 9a 24 00
        E 60 9a 24 7f
        E 0 9a 23 7f
        E 0 9a 24 7c
        E 30 9a 24 00
        E 0 9a 23 00
        E 0 9a 24 00
        E 30 9a 24 41
        E 30 9a 24 00
        E 90 9a 24 4d
        E 30 9a 24 00
        E 30 9a 24 68
        E 30 9a 24 00
        E 30 9a 24 4c
        E 30 9a 24 00
        E 60 9a 24 7f
        E 30 9a 24 00
        E 60 9a 24 7f
        E 0 9a 23 7f
        E 0 9a 24 7f
        E 30 9a 24 00
        E 0 9a 23 00
        E 0 9a 24 00
        E 30 9a 24 4f
        E 30 9a 24 00
        E 90 9a 24 45
        E 30 9a 24 00
        E 30 9a 24 71
        E 30 9a 24 00
        E 30 9a 24 47
        E 30 9a 24 00
        E 60 9a 24 7f
        E 30 9a 24 00
        E 60 9a 24 7f
        E 0 9a 23 7f
        E 0 9a 24 7c
        E 30 9a 24 00
        E 0 9a 23 00
        E 0 9a 24 00
        E 30 9a 24 41
        E 30 9a 24 00
        E 90 9a 24 4d
        E 30 9a 24 00
        E 30 9a 24 68
        E 30 9a 24 00
        E 30 9a 24 4c
        E 30 9a 24 00
        E 60 9a 24 7f
        E 30 9a 24 00
        E 60 9a 24 7f
        E 0 9a 23 7f
        E 0 9a 24 7f
        E 30 9a 24 00
        E 0 9a 23 00
        E 0 9a 24 00
        E 30 9a 24 4f
        E 30 9a 24 00
        E 90 9a 24 45
        E 30 9a 24 00
        E 30 9a 24 71
        E 30 9a 24 00
        E 30 9a 24 47
        E 30 9a 24 00
        E 60 9a 24 7f
        E 30 9a 24 00
        E 60 9a 24 7f
        E 0 9a 23 7f
        E 0 9a 24 7c
        E 30 9a 24 00
        E 0 9a 23 00
        E 0 9a 24 00
        E 30 9a 24 41
        E 30 9a 24 00
        E 90 9a 24 4d
        E 30 9a 24 00
        E 30 9a 24 68
        E 30 9a 24 00
        E 30 9a 24 4c
        E 30 9a 24 00
        E 60 9a 24 7f
        E 30 9a 24 00
        E 60 9a 23 7f
        E 0 9a 24 7f
        E 0 9a 23 7f
        E 30 9a 24 00
        E 0 9a 23 00
        E 0 9a 24 00
        E 30 9a 24 00
        E 0 9a 23 00
        E 0 9a 23 4f
        E 0 9a 24 4f
        E 30 9a 24 00
        E 0 9a 24 39
        E 30 9a 24 00
        E 0 9a 23 00
        E 60 9a 24 45
        E 30 9a 24 00
        E 30 9a 23 71
        E 0 9a 24 71
        E 30 9a 24 00
        E 30 9a 24 00
        E 0 9a 23 00
        E 0 9a 24 7f
        E 0 9a 23 47
        E 0 9a 24 47
        E 30 9a 24 00
        E 0 9a 24 4a
        E 30 9a 24 00
        E 0 9a 23 00
        E 30 9a 24 7f
        E 30 9a 24 00
        E 60 9a 24 7f
        E 0 9a 23 7c
        E 0 9a 24 7c
        E 30 9a 24 00
        E 0 9a 23 00
        E 0 9a 24 00
        E 30 9a 23 00
        E 0 9a 24 00
        E 0 9a 23 41
        E 0 9a 24 41
        E 30 9a 24 00
        E 0 9a 24 40
        E 30 9a 24 00
        E 0 9a 23 00
        E 60 9a 24 4d
        E 30 9a 24 00
        E 30 9a 23 68
        E 0 9a 24 68
        E 30 9a 24 00
        E 30 9a 24 00
        E 0 9a 23 00
        E 0 9a 24 7f
        E 0 9a 23 4c
        E 0 9a 24 4c
        E 30 9a 24 00
        E 0 9a 24 49
        E 30 9a 24 00
        E 0 9a 23 00
        E 30 9a 24 32
        E 30 9a 24 00
        E 60 9a 23 7f
        E 0 9a 24 7f
        E 0 9a 23 7f
        E 30 9a 24 00
        E 0 9a 23 00
        E 0 9a 24 00
        E 30 9a 24 00
        E 0 9a 23 00
        E 0 9a 23 4f
        E 0 9a 24 4f
        E 30 9a 24 00
        E 0 9a 24 39
        E 30 9a 24 00
        E 0 9a 23 00
        E 60 9a 24 45
        E 30 9a 24 00
        E 30 9a 23 71
        E 0 9a 24 71
        E 30 9a 24 00
        E 30 9a 24 00
        E 0 9a 23 00
        E 0 9a 24 7f
        E 0 9a 23 47
        E 0 9a 24 47
        E 30 9a 24 00
        E 0 9a 24 4a
        E 30 9a 24 00
        E 0 9a 23 00
        E 30 9a 24 7f
        E 30 9a 24 00
        E 60 b0 7b 00
        GUID {89AC9484-87EF-4E64-8986-CA36874E459D}
        IGNTEMPO 0 120.00000000 4 4
        SRCCOLOR 1224
        VELLANE -1 111 0
        CFGEDITVIEW -2328.000000 0.008435 91 12 0 0 0 0 0
        KEYSNAP 0 0 "102034050607" 0 "Major"
        TRACKSEL 226 0 0
        EVTFILTER 0 -1 -1 -1 -1 0 1 0 0 -1.00000000 -1.00000000
        CFGEDIT 1 1 0 1 0 0 1 0 1 1 1 0.12500000 170 172 997 734 0 0 0 0 0.00000000 0 0 0 0 0.500000 0 0 1.000000 64
      >
    >
  >
  <TRACK '{F6872E7A-1694-4FDB-8CEE-B50A0221CC2C}'
    NAME "========================= - AvaAdore.midi"
    PEAKCOL 16576
    BEAT -1
    AUTOMODE 0
    VOLPAN 1.00000000000000 0.00000000000000 -1.00000000000000 -1.00000000000000 1.00000000000000
    MUTESOLO 0 0 0
    IPHASE 0
    ISBUS 0 0
    BUSCOMP 0 0
    SHOWINMIX 1 0.666700 0.500000 1 0.500000 0 -1 0
    FREEMODE 0
    SEL 0
    REC 0 0 0 0 0 0 0
    VU 2
    TRACKHEIGHT 0 0
    INQ 0 0 0 0.5000000000 100 0 0 100
    NCHAN 2
    FX 1
    TRACKID {F6872E7A-1694-4FDB-8CEE-B50A0221CC2C}
    PERF 0
    MIDIOUT -1
    MAINSEND 1 0
    <ITEM
      POSITION 0.00000000000000
      SNAPOFFS 0.00000000000000
      LENGTH 0.67226900000000
      LOOP 1
      ALLTAKES 0
      SEL 0
      FADEIN 1 0.000000 0.000000 1 0 0.000000
      FADEOUT 1 0.000000 0.000000 1 0 0.000000
      MUTE 0
      IGUID {427606E3-FDCC-4485-802C-56B92A241C55}
      IID 8
      NAME "========================= - AvaAdore.midi.mid"
      VOLPAN 1.000000 0.000000 1.000000 -1.000000
      SOFFS 0.00000000000000 0.00000000000000
      PLAYRATE 1.00000000000000 1 0.00000000000000 -1 0 0.002500
      CHANMODE 0
      GUID {6F8ABE6D-A2CA-4948-9231-C3F922DBEAB8}
      <SOURCE MIDI
        HASDATA 1 120 QN
        POOLEDEVTS {F91760D4-180F-4FE0-B40C-8DEB5CBB57FA}
        <X 0 0
          /wNBdmEgQWRvcmU=
        >
        <X 0 0
          /wNNaXh0dXJlIG9mIFN0dWRpbyBhbmQgTGl2ZSBWZXJzaW9u
        >
        <X 0 0
          /wM9PT09PT09PT09PT09PT09PT09PT09PT09
        >
        <X 0 0
          /wFUaGlzIE1pZGkgZmlsZSBoYXMgYmVlbiBvcHRpbWlzZWQgZm9yIA==
          WEcgU3ludGhlc2lzZXJzLgo=
        >
        <X 0 0
          /wFDaGFubmVsIDEwIGFuZCAxMSBoYXZlIHRvIG1hZGUgdG8gYmUgZA==
          cnVtIGNoYW5uZWxzLgo=
        >
        <X 0 0
          /wFDaGFubmVsIDEwIGJlaW5nIGEgU3RhbmRhcmQgRHJ1bSBLaXQK
        >
        <X 0 0
          /wFDaGFubmVsIDExIGJlaW5nIGEgUm9jayBLaXQgKEJldHRlciBCYQ==
          c3MgRHJ1bSkK
        >
        E 120 b0 7b 00
        GUID {FDCF018E-1CDA-4FE7-82A8-746656F34E46}
        IGNTEMPO 0 120.00000000 4 4
        SRCCOLOR 1225
        VELLANE -1 111 0
      >
    >
  >
  <TRACK '{64B297F8-621E-40FB-BA64-36199BCF0871}'
    NAME "Midi File by Sayed Hoda - AvaAdore.midi"
    PEAKCOL 16576
    BEAT -1
    AUTOMODE 0
    VOLPAN 1.00000000000000 0.00000000000000 -1.00000000000000 -1.00000000000000 1.00000000000000
    MUTESOLO 0 0 0
    IPHASE 0
    ISBUS 0 0
    BUSCOMP 0 0
    SHOWINMIX 1 0.666700 0.500000 1 0.500000 0 -1 0
    FREEMODE 0
    SEL 0
    REC 0 0 0 0 0 0 0
    VU 2
    TRACKHEIGHT 0 0
    INQ 0 0 0 0.5000000000 100 0 0 100
    NCHAN 2
    FX 1
    TRACKID {64B297F8-621E-40FB-BA64-36199BCF0871}
    PERF 0
    MIDIOUT -1
    MAINSEND 1 0
    <ITEM
      POSITION 0.00000000000000
      SNAPOFFS 0.00000000000000
      LENGTH 0.67226900000000
      LOOP 1
      ALLTAKES 0
      SEL 0
      FADEIN 1 0.000000 0.000000 1 0 0.000000
      FADEOUT 1 0.000000 0.000000 1 0 0.000000
      MUTE 0
      IGUID {23F24A8D-BC9D-4626-B9DE-4A058147D7E2}
      IID 9
      NAME "Midi File by Sayed Hoda - AvaAdore.midi.mid"
      VOLPAN 1.000000 0.000000 1.000000 -1.000000
      SOFFS 0.00000000000000 0.00000000000000
      PLAYRATE 1.00000000000000 1 0.00000000000000 -1 0 0.002500
      CHANMODE 0
      GUID {E8857FE4-9DAB-4D36-8259-FEB60D60A58F}
      <SOURCE MIDI
        HASDATA 1 120 QN
        POOLEDEVTS {5801B5BB-2FD3-4A92-A778-32BFA06D8FFE}
        <X 0 0
          /wNBdmEgQWRvcmU=
        >
        <X 0 0
          /wNNaXh0dXJlIG9mIFN0dWRpbyBhbmQgTGl2ZSBWZXJzaW9u
        >
        <X 0 0
          /wNNaWRpIEZpbGUgYnkgU2F5ZWQgSG9kYQ==
        >
        <X 0 0
          /wFUaGlzIE1pZGkgZmlsZSBoYXMgYmVlbiBvcHRpbWlzZWQgZm9yIA==
          WEcgU3ludGhlc2lzZXJzLgo=
        >
        <X 0 0
          /wFDaGFubmVsIDEwIGFuZCAxMSBoYXZlIHRvIG1hZGUgdG8gYmUgZA==
          cnVtIGNoYW5uZWxzLgo=
        >
        <X 0 0
          /wFDaGFubmVsIDEwIGJlaW5nIGEgU3RhbmRhcmQgRHJ1bSBLaXQK
        >
        <X 0 0
          /wFDaGFubmVsIDExIGJlaW5nIGEgUm9jayBLaXQgKEJldHRlciBCYQ==
          c3MgRHJ1bSkK
        >
        E 120 b0 7b 00
        GUID {299E3292-2E4D-4B52-8B63-A662F52ABA1A}
        IGNTEMPO 0 120.00000000 4 4
        SRCCOLOR 1226
        VELLANE -1 111 0
      >
    >
  >
  <TRACK '{655F6544-503C-47E3-A00D-0A472C55F384}'
    NAME "AHODA@compuserve.com - AvaAdore.midi"
    PEAKCOL 16576
    BEAT -1
    AUTOMODE 0
    VOLPAN 1.00000000000000 0.00000000000000 -1.00000000000000 -1.00000000000000 1.00000000000000
    MUTESOLO 0 0 0
    IPHASE 0
    ISBUS 0 0
    BUSCOMP 0 0
    SHOWINMIX 1 0.666700 0.500000 1 0.500000 0 -1 0
    FREEMODE 0
    SEL 0
    REC 0 0 0 0 0 0 0
    VU 2
    TRACKHEIGHT 0 0
    INQ 0 0 0 0.5000000000 100 0 0 100
    NCHAN 2
    FX 1
    TRACKID {655F6544-503C-47E3-A00D-0A472C55F384}
    PERF 0
    MIDIOUT -1
    MAINSEND 1 0
    <ITEM
      POSITION 0.00000000000000
      SNAPOFFS 0.00000000000000
      LENGTH 0.67226900000000
      LOOP 1
      ALLTAKES 0
      SEL 0
      FADEIN 1 0.000000 0.000000 1 0 0.000000
      FADEOUT 1 0.000000 0.000000 1 0 0.000000
      MUTE 0
      IGUID {E06BB85D-AFAA-4C3E-91F8-1665B6DB32FD}
      IID 10
      NAME "AHODA@compuserve.com - AvaAdore.midi.mid"
      VOLPAN 1.000000 0.000000 1.000000 -1.000000
      SOFFS 0.00000000000000 0.00000000000000
      PLAYRATE 1.00000000000000 1 0.00000000000000 -1 0 0.002500
      CHANMODE 0
      GUID {B07CB78B-928D-43C0-A4A4-58EE0140B761}
      <SOURCE MIDI
        HASDATA 1 120 QN
        POOLEDEVTS {8BBBAB5F-31F6-494E-92E7-0BB95EC3D46C}
        <X 0 0
          /wNBdmEgQWRvcmU=
        >
        <X 0 0
          /wNNaXh0dXJlIG9mIFN0dWRpbyBhbmQgTGl2ZSBWZXJzaW9u
        >
        <X 0 0
          /wNBSE9EQUBjb21wdXNlcnZlLmNvbQ==
        >
        <X 0 0
          /wFUaGlzIE1pZGkgZmlsZSBoYXMgYmVlbiBvcHRpbWlzZWQgZm9yIA==
          WEcgU3ludGhlc2lzZXJzLgo=
        >
        <X 0 0
          /wFDaGFubmVsIDEwIGFuZCAxMSBoYXZlIHRvIG1hZGUgdG8gYmUgZA==
          cnVtIGNoYW5uZWxzLgo=
        >
        <X 0 0
          /wFDaGFubmVsIDEwIGJlaW5nIGEgU3RhbmRhcmQgRHJ1bSBLaXQK
        >
        <X 0 0
          /wFDaGFubmVsIDExIGJlaW5nIGEgUm9jayBLaXQgKEJldHRlciBCYQ==
          c3MgRHJ1bSkK
        >
        E 120 b0 7b 00
        GUID {520DFC3E-D07F-4714-BBA7-02F307BDBDCD}
        IGNTEMPO 0 120.00000000 4 4
        SRCCOLOR 1227
        VELLANE -1 111 0
      >
    >
  >
  <TRACK '{0B31DC36-B60D-451A-A8F0-215F09C9AFFE}'
    NAME "Smashing Pumpkins - AvaAdore.midi"
    PEAKCOL 16576
    BEAT -1
    AUTOMODE 0
    VOLPAN 1.00000000000000 0.00000000000000 -1.00000000000000 -1.00000000000000 1.00000000000000
    MUTESOLO 0 0 0
    IPHASE 0
    ISBUS 0 0
    BUSCOMP 0 0
    SHOWINMIX 1 0.666700 0.500000 1 0.500000 0 -1 0
    FREEMODE 0
    SEL 0
    REC 0 0 0 0 0 0 0
    VU 2
    TRACKHEIGHT 0 0
    INQ 0 0 0 0.5000000000 100 0 0 100
    NCHAN 2
    FX 1
    TRACKID {0B31DC36-B60D-451A-A8F0-215F09C9AFFE}
    PERF 0
    MIDIOUT -1
    MAINSEND 1 0
    <ITEM
      POSITION 0.00000000000000
      SNAPOFFS 0.00000000000000
      LENGTH 0.67226900000000
      LOOP 1
      ALLTAKES 0
      SEL 0
      FADEIN 1 0.000000 0.000000 1 0 0.000000
      FADEOUT 1 0.000000 0.000000 1 0 0.000000
      MUTE 0
      IGUID {0D3BAEEA-B5EB-4C80-B32F-6D340FE9D960}
      IID 11
      NAME "Song by Billy Corgan/ Smashing Pumpkins - AvaAdore.midi.mid"
      VOLPAN 1.000000 0.000000 1.000000 -1.000000
      SOFFS 0.00000000000000 0.00000000000000
      PLAYRATE 1.00000000000000 1 0.00000000000000 -1 0 0.002500
      CHANMODE 0
      GUID {85162B31-D31E-4793-945B-AC8F91A48424}
      <SOURCE MIDI
        HASDATA 1 120 QN
        POOLEDEVTS {B3D88739-F2A7-42A9-8C95-F7034E4F6FEA}
        <X 0 0
          /wNBdmEgQWRvcmU=
        >
        <X 0 0
          /wNNaXh0dXJlIG9mIFN0dWRpbyBhbmQgTGl2ZSBWZXJzaW9u
        >
        <X 0 0
          /wNTb25nIGJ5IEJpbGx5IENvcmdhbi8gU21hc2hpbmcgUHVtcGtpbg==
          cw==
        >
        <X 0 0
          /wFUaGlzIE1pZGkgZmlsZSBoYXMgYmVlbiBvcHRpbWlzZWQgZm9yIA==
          WEcgU3ludGhlc2lzZXJzLgo=
        >
        <X 0 0
          /wFDaGFubmVsIDEwIGFuZCAxMSBoYXZlIHRvIG1hZGUgdG8gYmUgZA==
          cnVtIGNoYW5uZWxzLgo=
        >
        <X 0 0
          /wFDaGFubmVsIDEwIGJlaW5nIGEgU3RhbmRhcmQgRHJ1bSBLaXQK
        >
        <X 0 0
          /wFDaGFubmVsIDExIGJlaW5nIGEgUm9jayBLaXQgKEJldHRlciBCYQ==
          c3MgRHJ1bSkK
        >
        E 120 b0 7b 00
        GUID {565ECEA1-1A5E-4948-8686-8B2619240468}
        IGNTEMPO 0 120.00000000 4 4
        SRCCOLOR 1228
        VELLANE -1 111 0
      >
    >
  >
  <TRACK '{353E5381-2465-45D3-BBE7-597D953DCA31}'
    NAME "Optimised for XG - AvaAdore.midi"
    PEAKCOL 16576
    BEAT -1
    AUTOMODE 0
    VOLPAN 1.00000000000000 0.00000000000000 -1.00000000000000 -1.00000000000000 1.00000000000000
    MUTESOLO 0 0 0
    IPHASE 0
    ISBUS 0 0
    BUSCOMP 0 0
    SHOWINMIX 1 0.666700 0.500000 1 0.500000 0 -1 0
    FREEMODE 0
    SEL 0
    REC 0 0 0 0 0 0 0
    VU 2
    TRACKHEIGHT 0 0
    INQ 0 0 0 0.5000000000 100 0 0 100
    NCHAN 2
    FX 1
    TRACKID {353E5381-2465-45D3-BBE7-597D953DCA31}
    PERF 0
    MIDIOUT -1
    MAINSEND 1 0
    <ITEM
      POSITION 0.00000000000000
      SNAPOFFS 0.00000000000000
      LENGTH 0.67226900000000
      LOOP 1
      ALLTAKES 0
      SEL 0
      FADEIN 1 0.000000 0.000000 1 0 0.000000
      FADEOUT 1 0.000000 0.000000 1 0 0.000000
      MUTE 0
      IGUID {228FB3B0-A85E-4980-880F-9FDF7A526BF2}
      IID 12
      NAME "Optimised for XG - AvaAdore.midi.mid"
      VOLPAN 1.000000 0.000000 1.000000 -1.000000
      SOFFS 0.00000000000000 0.00000000000000
      PLAYRATE 1.00000000000000 1 0.00000000000000 -1 0 0.002500
      CHANMODE 0
      GUID {48628162-755F-4A37-9370-424B3A7E8100}
      <SOURCE MIDI
        HASDATA 1 120 QN
        POOLEDEVTS {144AF20C-7211-4C3E-BC9D-260D1FEC4B2B}
        <X 0 0
          /wNBdmEgQWRvcmU=
        >
        <X 0 0
          /wNNaXh0dXJlIG9mIFN0dWRpbyBhbmQgTGl2ZSBWZXJzaW9u
        >
        <X 0 0
          /wNPcHRpbWlzZWQgZm9yIFhH
        >
        <X 0 0
          /wFUaGlzIE1pZGkgZmlsZSBoYXMgYmVlbiBvcHRpbWlzZWQgZm9yIA==
          WEcgU3ludGhlc2lzZXJzLgo=
        >
        <X 0 0
          /wFDaGFubmVsIDEwIGFuZCAxMSBoYXZlIHRvIG1hZGUgdG8gYmUgZA==
          cnVtIGNoYW5uZWxzLgo=
        >
        <X 0 0
          /wFDaGFubmVsIDEwIGJlaW5nIGEgU3RhbmRhcmQgRHJ1bSBLaXQK
        >
        <X 0 0
          /wFDaGFubmVsIDExIGJlaW5nIGEgUm9jayBLaXQgKEJldHRlciBCYQ==
          c3MgRHJ1bSkK
        >
        E 120 b0 7b 00
        GUID {412A56B5-7118-4B80-8957-7F29E93351F6}
        IGNTEMPO 0 120.00000000 4 4
        SRCCOLOR 1229
        VELLANE -1 111 0
      >
    >
  >
>
